<?xml version="1.0" encoding="UTF-8" standalone="no"?>
<!DOCTYPE svg PUBLIC "-//W3C//DTD SVG 1.1//EN"
 "http://www.w3.org/Graphics/SVG/1.1/DTD/svg11.dtd">
<!-- Generated by graphviz version 2.40.1 (20161225.0304)
 -->
<!-- Title: G Pages: 1 -->
<svg width="246pt" height="219pt"
 viewBox="0.00 0.00 246.17 219.30" xmlns="http://www.w3.org/2000/svg" xmlns:xlink="http://www.w3.org/1999/xlink">
<g id="graph0" class="graph" transform="scale(1 1) rotate(0) translate(4 215.2999)">
<title>G</title>
<polygon fill="transparent" stroke="transparent" points="-4,4 -4,-215.2999 242.1745,-215.2999 242.1745,4 -4,4"/>
<!-- 0 -->
<g id="node1" class="node">
<title>0</title>
<ellipse fill="none" stroke="#000000" cx="63" cy="-26.0423" rx="18" ry="18"/>
<text text-anchor="middle" x="63" y="-22.3423" font-family="Times,serif" font-size="14.00" fill="#000000">0</text>
</g>
<!-- 1 -->
<g id="node2" class="node">
<title>1</title>
<ellipse fill="none" stroke="#000000" cx="63" cy="-115.3576" rx="18" ry="18"/>
<text text-anchor="middle" x="63" y="-111.6576" font-family="Times,serif" font-size="14.00" fill="#000000">1</text>
</g>
<!-- 0&#45;&#45;1 -->
<g id="edge1" class="edge">
<title>0&#45;&#45;1</title>
<path fill="none" stroke="#000000" d="M63,-44.1166C63,-59.6124 63,-81.8222 63,-97.3102"/>
</g>
<!-- 2 -->
<g id="node3" class="node">
<title>2</title>
<ellipse fill="none" stroke="#000000" cx="140.3493" cy="-70.7" rx="18" ry="18"/>
<text text-anchor="middle" x="140.3493" y="-67" font-family="Times,serif" font-size="14.00" fill="#000000">2</text>
</g>
<!-- 0&#45;&#45;2 -->
<g id="edge2" class="edge">
<title>0&#45;&#45;2</title>
<path fill="none" stroke="#000000" d="M78.6528,-35.0795C92.0725,-42.8274 111.3068,-53.9323 124.7198,-61.6763"/>
</g>
<!-- 1&#45;&#45;2 -->
<g id="edge3" class="edge">
<title>1&#45;&#45;2</title>
<path fill="none" stroke="#000000" d="M78.6528,-106.3205C92.0725,-98.5726 111.3068,-87.4677 124.7198,-79.7237"/>
</g>
<!-- 5 -->
<g id="node6" class="node">
<title>5</title>
<ellipse fill="none" stroke="#000000" cx="18" cy="-193.2999" rx="18" ry="18"/>
<text text-anchor="middle" x="18" y="-189.5999" font-family="Times,serif" font-size="14.00" fill="#000000">5</text>
</g>
<!-- 1&#45;&#45;5 -->
<g id="edge6" class="edge">
<title>1&#45;&#45;5</title>
<path fill="none" stroke="#000000" d="M53.8936,-131.1304C46.0863,-144.653 34.8963,-164.0347 27.0929,-177.5506"/>
</g>
<!-- 3 -->
<g id="node4" class="node">
<title>3</title>
<ellipse fill="none" stroke="#000000" cx="220.1745" cy="-18" rx="18" ry="18"/>
<text text-anchor="middle" x="220.1745" y="-14.3" font-family="Times,serif" font-size="14.00" fill="#000000">3</text>
</g>
<!-- 2&#45;&#45;3 -->
<g id="edge4" class="edge">
<title>2&#45;&#45;3</title>
<path fill="none" stroke="#000000" d="M155.7404,-60.5389C169.9662,-51.1471 190.9778,-37.2755 205.1014,-27.9512"/>
</g>
<!-- 4 -->
<g id="node5" class="node">
<title>4</title>
<ellipse fill="none" stroke="#000000" cx="220.1745" cy="-123.4" rx="18" ry="18"/>
<text text-anchor="middle" x="220.1745" y="-119.7" font-family="Times,serif" font-size="14.00" fill="#000000">4</text>
</g>
<!-- 2&#45;&#45;4 -->
<g id="edge5" class="edge">
<title>2&#45;&#45;4</title>
<path fill="none" stroke="#000000" d="M155.7404,-80.8611C169.9662,-90.2529 190.9778,-104.1245 205.1014,-113.4488"/>
</g>
</g>
</svg>
