<?xml version="1.0" encoding="UTF-8" standalone="no"?>
<!DOCTYPE svg PUBLIC "-//W3C//DTD SVG 1.1//EN"
 "http://www.w3.org/Graphics/SVG/1.1/DTD/svg11.dtd">
<!-- Generated by graphviz version 3.0.0 (0)
 -->
<!-- Title: probability_tree Pages: 1 -->
<svg width="469pt" height="422pt"
 viewBox="0.00 0.00 468.72 422.00" xmlns="http://www.w3.org/2000/svg" xmlns:xlink="http://www.w3.org/1999/xlink">
<g id="graph0" class="graph" transform="scale(1 1) rotate(0) translate(4 418)">
<title>probability_tree</title>
<polygon fill="white" stroke="transparent" points="-4,4 -4,-418 464.72,-418 464.72,4 -4,4"/>
<!-- Univers -->
<g id="node1" class="node">
<title>Univers</title>
<ellipse fill="black" stroke="black" cx="0.36" cy="-209" rx="0.36" ry="0.36"/>
</g>
<!-- S -->
<g id="node2" class="node">
<title>S</title>
<text text-anchor="middle" x="92.72" y="-267.3" font-family="Times,serif" font-size="14.00">Succès</text>
</g>
<!-- Univers&#45;&#45;S -->
<g id="edge1" class="edge">
<title>Univers&#45;&#45;S</title>
<path fill="none" stroke="black" d="M0.79,-209.04C2.54,-210.24 38.93,-235.03 65.13,-252.88"/>
<text text-anchor="middle" x="30.22" y="-239.8" font-family="Times,serif" font-size="14.00">1/4</text>
</g>
<!-- E -->
<g id="node3" class="node">
<title>E</title>
<text text-anchor="middle" x="92.72" y="-151.3" font-family="Times,serif" font-size="14.00">Échec</text>
</g>
<!-- Univers&#45;&#45;E -->
<g id="edge2" class="edge">
<title>Univers&#45;&#45;E</title>
<path fill="none" stroke="black" d="M0.79,-208.96C2.5,-207.95 37.16,-187.38 63.18,-171.93"/>
<text text-anchor="middle" x="30.22" y="-200.8" font-family="Times,serif" font-size="14.00">3/4</text>
</g>
<!-- S1 -->
<g id="node4" class="node">
<title>S1</title>
<text text-anchor="middle" x="217.72" y="-338.3" font-family="Times,serif" font-size="14.00">Succès</text>
</g>
<!-- S&#45;&#45;S1 -->
<g id="edge3" class="edge">
<title>S&#45;&#45;S1</title>
<path fill="none" stroke="black" d="M125.08,-289.1C143.58,-299.78 166.93,-313.26 185.42,-323.93"/>
<text text-anchor="middle" x="155.22" y="-315.8" font-family="Times,serif" font-size="14.00">1/4</text>
</g>
<!-- E1 -->
<g id="node5" class="node">
<title>E1</title>
<text text-anchor="middle" x="217.72" y="-267.3" font-family="Times,serif" font-size="14.00">Échec</text>
</g>
<!-- S&#45;&#45;E1 -->
<g id="edge4" class="edge">
<title>S&#45;&#45;E1</title>
<path fill="none" stroke="black" d="M126.04,-271C145.25,-271 169.42,-271 187.97,-271"/>
<text text-anchor="middle" x="155.22" y="-274.8" font-family="Times,serif" font-size="14.00">3/4</text>
</g>
<!-- S2 -->
<g id="node6" class="node">
<title>S2</title>
<text text-anchor="middle" x="217.72" y="-151.3" font-family="Times,serif" font-size="14.00">Succès</text>
</g>
<!-- E&#45;&#45;S2 -->
<g id="edge5" class="edge">
<title>E&#45;&#45;S2</title>
<path fill="none" stroke="black" d="M122.25,-155C140.84,-155 165.14,-155 184.44,-155"/>
<text text-anchor="middle" x="155.22" y="-158.8" font-family="Times,serif" font-size="14.00">1/4</text>
</g>
<!-- E2 -->
<g id="node7" class="node">
<title>E2</title>
<text text-anchor="middle" x="217.72" y="-68.3" font-family="Times,serif" font-size="14.00">Échec</text>
</g>
<!-- E&#45;&#45;E2 -->
<g id="edge6" class="edge">
<title>E&#45;&#45;E2</title>
<path fill="none" stroke="black" d="M120.41,-136.99C140.9,-123.16 169.08,-104.15 189.66,-90.26"/>
<text text-anchor="middle" x="155.22" y="-123.8" font-family="Times,serif" font-size="14.00">3/4</text>
</g>
<!-- S3 -->
<g id="node8" class="node">
<title>S3</title>
<text text-anchor="middle" x="342.72" y="-392.3" font-family="Times,serif" font-size="14.00">Succès</text>
</g>
<!-- S1&#45;&#45;S3 -->
<g id="edge7" class="edge">
<title>S1&#45;&#45;S3</title>
<path fill="none" stroke="black" d="M251.04,-356.19C269.12,-364.13 291.58,-373.99 309.62,-381.91"/>
<text text-anchor="middle" x="280.22" y="-376.8" font-family="Times,serif" font-size="14.00">1/4</text>
</g>
<!-- E3 -->
<g id="node9" class="node">
<title>E3</title>
<text text-anchor="middle" x="342.72" y="-338.3" font-family="Times,serif" font-size="14.00">Échec</text>
</g>
<!-- S1&#45;&#45;E3 -->
<g id="edge8" class="edge">
<title>S1&#45;&#45;E3</title>
<path fill="none" stroke="black" d="M251.04,-342C270.25,-342 294.42,-342 312.97,-342"/>
<text text-anchor="middle" x="280.22" y="-345.8" font-family="Times,serif" font-size="14.00">3/4</text>
</g>
<!-- S4 -->
<g id="node10" class="node">
<title>S4</title>
<text text-anchor="middle" x="342.72" y="-284.3" font-family="Times,serif" font-size="14.00">Succès</text>
</g>
<!-- E1&#45;&#45;S4 -->
<g id="edge9" class="edge">
<title>E1&#45;&#45;S4</title>
<path fill="none" stroke="black" d="M247.25,-274.94C265.84,-277.51 290.14,-280.87 309.44,-283.54"/>
<text text-anchor="middle" x="280.22" y="-284.8" font-family="Times,serif" font-size="14.00">1/4</text>
</g>
<!-- E4 -->
<g id="node11" class="node">
<title>E4</title>
<text text-anchor="middle" x="342.72" y="-230.3" font-family="Times,serif" font-size="14.00">Échec</text>
</g>
<!-- E1&#45;&#45;E4 -->
<g id="edge10" class="edge">
<title>E1&#45;&#45;E4</title>
<path fill="none" stroke="black" d="M247.25,-262.42C266.98,-256.48 293.13,-248.62 312.92,-242.66"/>
<text text-anchor="middle" x="280.22" y="-258.8" font-family="Times,serif" font-size="14.00">3/4</text>
</g>
<!-- S5 -->
<g id="node12" class="node">
<title>S5</title>
<text text-anchor="middle" x="342.72" y="-176.3" font-family="Times,serif" font-size="14.00">Succès</text>
</g>
<!-- S2&#45;&#45;S5 -->
<g id="edge11" class="edge">
<title>S2&#45;&#45;S5</title>
<path fill="none" stroke="black" d="M251.04,-161.57C269.12,-165.24 291.58,-169.81 309.62,-173.48"/>
<text text-anchor="middle" x="280.22" y="-172.8" font-family="Times,serif" font-size="14.00">1/4</text>
</g>
<!-- E5 -->
<g id="node13" class="node">
<title>E5</title>
<text text-anchor="middle" x="342.72" y="-122.3" font-family="Times,serif" font-size="14.00">Échec</text>
</g>
<!-- S2&#45;&#45;E5 -->
<g id="edge12" class="edge">
<title>S2&#45;&#45;E5</title>
<path fill="none" stroke="black" d="M251.04,-147.38C270.25,-142.85 294.42,-137.15 312.97,-132.78"/>
<text text-anchor="middle" x="280.22" y="-146.8" font-family="Times,serif" font-size="14.00">3/4</text>
</g>
<!-- S6 -->
<g id="node14" class="node">
<title>S6</title>
<text text-anchor="middle" x="342.72" y="-68.3" font-family="Times,serif" font-size="14.00">Succès</text>
</g>
<!-- E2&#45;&#45;S6 -->
<g id="edge13" class="edge">
<title>E2&#45;&#45;S6</title>
<path fill="none" stroke="black" d="M247.25,-72C265.84,-72 290.14,-72 309.44,-72"/>
<text text-anchor="middle" x="280.22" y="-75.8" font-family="Times,serif" font-size="14.00">1/4</text>
</g>
<!-- E6 -->
<g id="node15" class="node">
<title>E6</title>
<text text-anchor="middle" x="342.72" y="-14.3" font-family="Times,serif" font-size="14.00">Échec</text>
</g>
<!-- E2&#45;&#45;E6 -->
<g id="edge14" class="edge">
<title>E2&#45;&#45;E6</title>
<path fill="none" stroke="black" d="M247.25,-59.48C266.98,-50.81 293.13,-39.33 312.92,-30.64"/>
<text text-anchor="middle" x="280.22" y="-52.8" font-family="Times,serif" font-size="14.00">3/4</text>
</g>
<!-- SSS -->
<g id="node16" class="node">
<title>SSS</title>
<text text-anchor="middle" x="436.72" y="-392.3" font-family="Times,serif" font-size="14.00">SSS</text>
</g>
<!-- S3&#45;&#45;SSS -->
<g id="edge15" class="edge">
<title>S3&#45;&#45;SSS</title>
<path fill="none" stroke="black" d="M375.9,-396C388.54,-396 402.72,-396 414.1,-396"/>
</g>
<!-- SSE -->
<g id="node17" class="node">
<title>SSE</title>
<text text-anchor="middle" x="436.72" y="-338.3" font-family="Times,serif" font-size="14.00" fill="red">SSE</text>
</g>
<!-- E3&#45;&#45;SSE -->
<g id="edge16" class="edge">
<title>E3&#45;&#45;SSE</title>
<path fill="none" stroke="black" d="M372.33,-342C385.41,-342 400.69,-342 412.97,-342"/>
</g>
<!-- SES -->
<g id="node18" class="node">
<title>SES</title>
<text text-anchor="middle" x="436.72" y="-284.3" font-family="Times,serif" font-size="14.00" fill="red">SES</text>
</g>
<!-- S4&#45;&#45;SES -->
<g id="edge17" class="edge">
<title>S4&#45;&#45;SES</title>
<path fill="none" stroke="black" d="M375.9,-288C388.13,-288 401.79,-288 412.97,-288"/>
</g>
<!-- SEE -->
<g id="node19" class="node">
<title>SEE</title>
<text text-anchor="middle" x="436.72" y="-230.3" font-family="Times,serif" font-size="14.00">SEE</text>
</g>
<!-- E4&#45;&#45;SEE -->
<g id="edge18" class="edge">
<title>E4&#45;&#45;SEE</title>
<path fill="none" stroke="black" d="M372.33,-234C385.41,-234 400.69,-234 412.97,-234"/>
</g>
<!-- ESS -->
<g id="node20" class="node">
<title>ESS</title>
<text text-anchor="middle" x="436.72" y="-176.3" font-family="Times,serif" font-size="14.00" fill="red">ESS</text>
</g>
<!-- S5&#45;&#45;ESS -->
<g id="edge19" class="edge">
<title>S5&#45;&#45;ESS</title>
<path fill="none" stroke="black" d="M375.9,-180C388.13,-180 401.79,-180 412.97,-180"/>
</g>
<!-- ESE -->
<g id="node21" class="node">
<title>ESE</title>
<text text-anchor="middle" x="436.72" y="-122.3" font-family="Times,serif" font-size="14.00">ESE</text>
</g>
<!-- E5&#45;&#45;ESE -->
<g id="edge20" class="edge">
<title>E5&#45;&#45;ESE</title>
<path fill="none" stroke="black" d="M372.33,-126C385.41,-126 400.69,-126 412.97,-126"/>
</g>
<!-- EES -->
<g id="node22" class="node">
<title>EES</title>
<text text-anchor="middle" x="436.72" y="-68.3" font-family="Times,serif" font-size="14.00">EES</text>
</g>
<!-- S6&#45;&#45;EES -->
<g id="edge21" class="edge">
<title>S6&#45;&#45;EES</title>
<path fill="none" stroke="black" d="M375.9,-72C388.13,-72 401.79,-72 412.97,-72"/>
</g>
<!-- EEE -->
<g id="node23" class="node">
<title>EEE</title>
<text text-anchor="middle" x="436.72" y="-14.3" font-family="Times,serif" font-size="14.00">EEE</text>
</g>
<!-- E6&#45;&#45;EEE -->
<g id="edge22" class="edge">
<title>E6&#45;&#45;EEE</title>
<path fill="none" stroke="black" d="M372.33,-18C385.3,-18 400.44,-18 412.67,-18"/>
</g>
</g>
</svg>
