<svg version="1.1" xmlns="http://www.w3.org/2000/svg" xmlns:xlink="http://www.w3.org/1999/xlink" width="500" height="532"><defs><clipPath id="ikLPRDoVhnJb"><path fill="none" stroke="none" d=" M 0 0 L 500 0 L 500 532 L 0 532 L 0 0 Z"/></clipPath></defs><g transform="scale(1,1)" clip-path="url(#ikLPRDoVhnJb)"><g><rect fill="rgb(255,255,255)" stroke="none" x="0" y="0" width="500" height="532" fill-opacity="1"/><path fill="none" stroke="rgb(192,192,192)" paint-order="fill stroke markers" d=" M 12.5 0.5 L 12.5 532.5 M 12.5 0.5 L 12.5 532.5 M 183.5 0.5 L 183.5 532.5 M 269.5 0.5 L 269.5 532.5 M 355.5 0.5 L 355.5 532.5 M 440.5 0.5 L 440.5 532.5" stroke-opacity="1" stroke-linecap="round" stroke-linejoin="round" stroke-miterlimit="10"/><path fill="none" stroke="rgb(192,192,192)" paint-order="fill stroke markers" d=" M 29.5 0.5 L 29.5 532.5 M 46.5 0.5 L 46.5 532.5 M 63.5 0.5 L 63.5 532.5 M 80.5 0.5 L 80.5 532.5 M 115.5 0.5 L 115.5 532.5 M 132.5 0.5 L 132.5 532.5 M 149.5 0.5 L 149.5 532.5 M 166.5 0.5 L 166.5 532.5 M 200.5 0.5 L 200.5 532.5 M 218.5 0.5 L 218.5 532.5 M 235.5 0.5 L 235.5 532.5 M 252.5 0.5 L 252.5 532.5 M 286.5 0.5 L 286.5 532.5 M 303.5 0.5 L 303.5 532.5 M 320.5 0.5 L 320.5 532.5 M 338.5 0.5 L 338.5 532.5 M 372.5 0.5 L 372.5 532.5 M 389.5 0.5 L 389.5 532.5 M 406.5 0.5 L 406.5 532.5 M 423.5 0.5 L 423.5 532.5 M 458.5 0.5 L 458.5 532.5 M 475.5 0.5 L 475.5 532.5 M 492.5 0.5 L 492.5 532.5" stroke-opacity="0.23529411764705882" stroke-linecap="round" stroke-linejoin="round" stroke-miterlimit="10"/><path fill="none" stroke="rgb(192,192,192)" paint-order="fill stroke markers" d=" M 0.5 74.5 L 500.5 74.5 M 0.5 74.5 L 500.5 74.5 M 0.5 159.5 L 500.5 159.5 M 0.5 245.5 L 500.5 245.5 M 0.5 416.5 L 500.5 416.5 M 0.5 502.5 L 500.5 502.5" stroke-opacity="1" stroke-linecap="round" stroke-linejoin="round" stroke-miterlimit="10"/><path fill="none" stroke="rgb(192,192,192)" paint-order="fill stroke markers" d=" M 0.5 5.5 L 500.5 5.5 M 0.5 22.5 L 500.5 22.5 M 0.5 39.5 L 500.5 39.5 M 0.5 56.5 L 500.5 56.5 M 0.5 91.5 L 500.5 91.5 M 0.5 108.5 L 500.5 108.5 M 0.5 125.5 L 500.5 125.5 M 0.5 142.5 L 500.5 142.5 M 0.5 176.5 L 500.5 176.5 M 0.5 194.5 L 500.5 194.5 M 0.5 211.5 L 500.5 211.5 M 0.5 228.5 L 500.5 228.5 M 0.5 262.5 L 500.5 262.5 M 0.5 279.5 L 500.5 279.5 M 0.5 296.5 L 500.5 296.5 M 0.5 314.5 L 500.5 314.5 M 0.5 348.5 L 500.5 348.5 M 0.5 365.5 L 500.5 365.5 M 0.5 382.5 L 500.5 382.5 M 0.5 399.5 L 500.5 399.5 M 0.5 434.5 L 500.5 434.5 M 0.5 451.5 L 500.5 451.5 M 0.5 468.5 L 500.5 468.5 M 0.5 485.5 L 500.5 485.5 M 0.5 519.5 L 500.5 519.5" stroke-opacity="0.23529411764705882" stroke-linecap="round" stroke-linejoin="round" stroke-miterlimit="10"/><path fill="none" stroke="rgb(0,0,0)" paint-order="fill stroke markers" d=" M 98.5 2.5 L 98.5 532.5" stroke-opacity="1" stroke-miterlimit="10"/><path fill="none" stroke="rgb(0,0,0)" paint-order="fill stroke markers" d=" M 98.5 1.5 L 94.5 5.5" stroke-opacity="1" stroke-miterlimit="10"/><path fill="none" stroke="rgb(0,0,0)" paint-order="fill stroke markers" d=" M 98.5 1.5 L 102.5 5.5" stroke-opacity="1" stroke-miterlimit="10"/><path fill="none" stroke="rgb(0,0,0)" paint-order="fill stroke markers" d=" M 0.5 331.5 L 498.5 331.5" stroke-opacity="1" stroke-miterlimit="10"/><path fill="none" stroke="rgb(0,0,0)" paint-order="fill stroke markers" d=" M 499.5 331.5 L 495.5 327.5" stroke-opacity="1" stroke-miterlimit="10"/><path fill="none" stroke="rgb(0,0,0)" paint-order="fill stroke markers" d=" M 499.5 331.5 L 495.5 335.5" stroke-opacity="1" stroke-miterlimit="10"/><text fill="rgb(0,0,0)" stroke="none" font-family="geogebra-sans-serif, sans-serif" font-size="12px" font-style="normal" font-weight="normal" text-decoration="normal" x="7" y="347" text-anchor="start" dominant-baseline="alphabetic" fill-opacity="1">–5</text><text fill="rgb(0,0,0)" stroke="none" font-family="geogebra-sans-serif, sans-serif" font-size="12px" font-style="normal" font-weight="normal" text-decoration="normal" x="7" y="347" text-anchor="start" dominant-baseline="alphabetic" fill-opacity="1">–5</text><text fill="rgb(0,0,0)" stroke="none" font-family="geogebra-sans-serif, sans-serif" font-size="12px" font-style="normal" font-weight="normal" text-decoration="normal" x="181" y="347" text-anchor="start" dominant-baseline="alphabetic" fill-opacity="1">5</text><text fill="rgb(0,0,0)" stroke="none" font-family="geogebra-sans-serif, sans-serif" font-size="12px" font-style="normal" font-weight="normal" text-decoration="normal" x="181" y="347" text-anchor="start" dominant-baseline="alphabetic" fill-opacity="1">5</text><text fill="rgb(0,0,0)" stroke="none" font-family="geogebra-sans-serif, sans-serif" font-size="12px" font-style="normal" font-weight="normal" text-decoration="normal" x="264" y="347" text-anchor="start" dominant-baseline="alphabetic" fill-opacity="1">10</text><text fill="rgb(0,0,0)" stroke="none" font-family="geogebra-sans-serif, sans-serif" font-size="12px" font-style="normal" font-weight="normal" text-decoration="normal" x="264" y="347" text-anchor="start" dominant-baseline="alphabetic" fill-opacity="1">10</text><text fill="rgb(0,0,0)" stroke="none" font-family="geogebra-sans-serif, sans-serif" font-size="12px" font-style="normal" font-weight="normal" text-decoration="normal" x="350" y="347" text-anchor="start" dominant-baseline="alphabetic" fill-opacity="1">15</text><text fill="rgb(0,0,0)" stroke="none" font-family="geogebra-sans-serif, sans-serif" font-size="12px" font-style="normal" font-weight="normal" text-decoration="normal" x="350" y="347" text-anchor="start" dominant-baseline="alphabetic" fill-opacity="1">15</text><text fill="rgb(0,0,0)" stroke="none" font-family="geogebra-sans-serif, sans-serif" font-size="12px" font-style="normal" font-weight="normal" text-decoration="normal" x="435" y="347" text-anchor="start" dominant-baseline="alphabetic" fill-opacity="1">20</text><text fill="rgb(0,0,0)" stroke="none" font-family="geogebra-sans-serif, sans-serif" font-size="12px" font-style="normal" font-weight="normal" text-decoration="normal" x="435" y="347" text-anchor="start" dominant-baseline="alphabetic" fill-opacity="1">20</text><text fill="rgb(0,0,0)" stroke="none" font-family="geogebra-sans-serif, sans-serif" font-size="12px" font-style="normal" font-weight="normal" text-decoration="normal" x="78" y="507" text-anchor="start" dominant-baseline="alphabetic" fill-opacity="1">–1</text><text fill="rgb(0,0,0)" stroke="none" font-family="geogebra-sans-serif, sans-serif" font-size="12px" font-style="normal" font-weight="normal" text-decoration="normal" x="78" y="507" text-anchor="start" dominant-baseline="alphabetic" fill-opacity="1">–1</text><text fill="rgb(0,0,0)" stroke="none" font-family="geogebra-sans-serif, sans-serif" font-size="12px" font-style="normal" font-weight="normal" text-decoration="normal" x="68" y="421" text-anchor="start" dominant-baseline="alphabetic" fill-opacity="1">–0.5</text><text fill="rgb(0,0,0)" stroke="none" font-family="geogebra-sans-serif, sans-serif" font-size="12px" font-style="normal" font-weight="normal" text-decoration="normal" x="68" y="421" text-anchor="start" dominant-baseline="alphabetic" fill-opacity="1">–0.5</text><text fill="rgb(0,0,0)" stroke="none" font-family="geogebra-sans-serif, sans-serif" font-size="12px" font-style="normal" font-weight="normal" text-decoration="normal" x="74" y="250" text-anchor="start" dominant-baseline="alphabetic" fill-opacity="1">0.5</text><text fill="rgb(0,0,0)" stroke="none" font-family="geogebra-sans-serif, sans-serif" font-size="12px" font-style="normal" font-weight="normal" text-decoration="normal" x="74" y="250" text-anchor="start" dominant-baseline="alphabetic" fill-opacity="1">0.5</text><text fill="rgb(0,0,0)" stroke="none" font-family="geogebra-sans-serif, sans-serif" font-size="12px" font-style="normal" font-weight="normal" text-decoration="normal" x="84" y="164" text-anchor="start" dominant-baseline="alphabetic" fill-opacity="1">1</text><text fill="rgb(0,0,0)" stroke="none" font-family="geogebra-sans-serif, sans-serif" font-size="12px" font-style="normal" font-weight="normal" text-decoration="normal" x="84" y="164" text-anchor="start" dominant-baseline="alphabetic" fill-opacity="1">1</text><text fill="rgb(0,0,0)" stroke="none" font-family="geogebra-sans-serif, sans-serif" font-size="12px" font-style="normal" font-weight="normal" text-decoration="normal" x="74" y="79" text-anchor="start" dominant-baseline="alphabetic" fill-opacity="1">1.5</text><text fill="rgb(0,0,0)" stroke="none" font-family="geogebra-sans-serif, sans-serif" font-size="12px" font-style="normal" font-weight="normal" text-decoration="normal" x="74" y="79" text-anchor="start" dominant-baseline="alphabetic" fill-opacity="1">1.5</text><text fill="rgb(0,0,0)" stroke="none" font-family="geogebra-sans-serif, sans-serif" font-size="12px" font-style="normal" font-weight="normal" text-decoration="normal" x="84" y="347" text-anchor="start" dominant-baseline="alphabetic" fill-opacity="1">0</text><text fill="rgb(0,0,0)" stroke="none" font-family="geogebra-sans-serif, sans-serif" font-size="12px" font-style="normal" font-weight="normal" text-decoration="normal" x="84" y="347" text-anchor="start" dominant-baseline="alphabetic" fill-opacity="1">0</text><path fill="none" stroke="rgb(21,101,192)" paint-order="fill stroke markers" d=" M 100.00000000000038 493.3349027500248 L 100.00000000000038 547.1180875998274 L 100.00000000000038 493.3349027500249 L 101.00000000000038 462.4338879205731 L 101.00000000000038 462.43388792057317 L 102.0000000000004 440.6605073898635 L 102.0000000000004 440.6605073898636 L 103.0000000000004 423.8344604387944 L 103.0000000000004 423.83446043879445 L 104.0000000000004 410.11858775356455 L 104.0000000000004 410.1185877535646 L 105.0000000000004 398.5405245159385 L 105.0000000000004 398.5405245159385 L 106.0000000000004 388.5228508984065 L 106.0000000000004 388.52285089840655 L 107.0000000000004 379.6944933868493 L 107.0000000000004 379.69449338684933 L 108.0000000000004 371.80278892456204 L 108.0000000000004 371.8027889245621 L 109.0000000000004 364.6679138584098 L 109.0000000000004 364.6679138584098 L 110.0000000000004 358.15732420905226 L 110.0000000000004 358.15732420905226 L 111.0000000000004 352.17050853971597 L 111.0000000000004 352.17050853971597 L 112.0000000000004 346.6294311462841 L 112.0000000000004 346.6294311462841 L 113.0000000000004 341.4722932403872 L 113.0000000000004 341.4722932403872 L 114.0000000000004 336.6493190785368 L 114.0000000000004 336.6493190785368 L 115.0000000000004 332.11982619795833 L 115.0000000000004 332.11982619795833 L 116.0000000000004 327.85013704144 L 116.0000000000004 327.85013704144 L 117.0000000000004 323.81205769165086 L 117.0000000000004 323.81205769165086 L 118.0000000000004 319.98174839429817 L 118.0000000000004 319.98174839429817 L 119.0000000000004 316.3388706962895 L 119.0000000000004 316.3388706962895 L 120.0000000000004 312.865933687401 L 120.0000000000004 312.8659336874011 L 121.0000000000004 309.54778604711896 L 121.0000000000004 309.54778604711896 L 122.0000000000004 306.3712165352378 L 122.0000000000004 306.3712165352378 L 123.0000000000004 303.32463627798273 L 123.0000000000004 303.3246362779828 L 124.0000000000004 300.39782354153266 L 124.0000000000004 300.3978235415327 L 125.0000000000004 297.5817168015261 L 125.0000000000004 297.5817168015261 L 126.0000000000004 294.86824554055136 L 126.0000000000004 294.8682455405514 L 127.0000000000004 292.25019080883305 L 127.0000000000004 292.2501908088331 L 128.0000000000004 289.72106947852797 L 128.0000000000004 289.721069478528 L 129.0000000000004 287.2750375187613 L 129.0000000000004 287.27503751876134 L 130.0000000000004 284.90680865958984 L 130.0000000000004 284.9068086595899 L 131.0000000000004 282.6115855972212 L 131.0000000000004 282.6115855972213 L 132.0000000000004 280.3850014892473 L 132.0000000000004 280.3850014892473 L 133.0000000000004 278.2230699464525 L 133.0000000000004 278.22306994645254 L 134.0000000000004 276.1221420821599 L 134.0000000000004 276.1221420821599 L 135.0000000000004 274.07886945663597 L 135.0000000000004 274.07886945663597 L 136.00000000000043 272.09017197150825 L 136.00000000000043 272.0901719715083 L 137.00000000000043 270.15320994131264 L 137.00000000000043 270.15320994131264 L 138.00000000000043 268.26535970651236 L 138.00000000000043 268.26535970651236 L 139.00000000000043 266.4241922623985 L 139.00000000000043 266.4241922623985 L 140.00000000000043 264.627454467093 L 140.00000000000043 264.627454467093 L 141.00000000000043 262.8730524639387 L 141.00000000000043 262.87305246393873 L 142.00000000000045 261.1590370123495 L 142.00000000000045 261.15903701234953 L 143.00000000000045 259.48359046939476 L 143.00000000000045 259.4835904693948 L 144.00000000000045 257.84501520410504 L 144.00000000000045 257.8450152041051 L 145.00000000000045 256.2417232593559 L 145.00000000000045 256.241723259356 L 146.00000000000045 254.67222710351194 L 146.00000000000045 254.672227103512 L 147.00000000000045 253.1351313368235 L 147.00000000000045 253.13513133682358 L 148.00000000000045 251.62912523668876 L 148.00000000000045 251.62912523668882 L 149.00000000000045 250.15297604197912 L 149.00000000000045 250.15297604197917 L 150.00000000000048 248.7055228902094 L 150.00000000000048 248.70552289020947 L 151.00000000000048 247.28567133284628 L 151.00000000000048 247.28567133284633 L 152.00000000000048 245.89238836383458 L 152.00000000000048 245.89238836383464 L 153.00000000000048 244.52469790477113 L 153.00000000000048 244.5246979047712 L 154.00000000000048 243.18167669729883 L 154.00000000000048 243.1816766972989 L 155.0000000000005 241.86245055942538 L 155.0000000000005 241.86245055942544 L 156.0000000000005 240.56619096774753 L 156.0000000000005 240.5661909677476 L 157.0000000000005 239.29211193211728 L 157.0000000000005 239.29211193211734 L 158.0000000000005 238.03946713322654 L 158.0000000000005 238.0394671332266 L 159.0000000000005 236.80754729700766 L 159.0000000000005 236.80754729700774 L 160.0000000000005 235.59567778272097 L 160.0000000000005 235.59567778272103 L 161.0000000000005 234.40321636419358 L 161.0000000000005 234.40321636419367 L 162.0000000000005 233.22955118594055 L 162.0000000000005 233.22955118594064 L 163.0000000000005 232.07409887788322 L 163.0000000000005 232.0740988778833 L 164.0000000000005 230.93630281412268 L 164.0000000000005 230.93630281412277 L 165.00000000000054 229.81563150275792 L 165.00000000000054 229.81563150275798 L 166.00000000000054 228.71157709508935 L 166.00000000000054 228.7115770950894 L 167.00000000000054 227.62365400374026 L 167.00000000000054 227.62365400374034 L 168.00000000000054 226.55139762028472 L 168.00000000000054 226.55139762028477 L 169.00000000000054 225.49436312390563 L 169.00000000000054 225.4943631239057 L 170.00000000000057 224.45212437343693 L 170.00000000000057 224.45212437343702 L 171.00000000000057 223.42427287588302 L 171.00000000000057 223.4242728758831 L 172.00000000000057 222.41041682516737 L 172.00000000000057 222.41041682516746 L 173.00000000000057 221.41018020544882 L 173.00000000000057 221.4101802054489 L 174.00000000000057 220.42320195387032 L 174.00000000000057 220.42320195387038 L 175.00000000000057 219.44913517807487 L 175.00000000000057 219.44913517807495 L 176.00000000000057 218.4876464242452 L 176.00000000000057 218.4876464242453 L 177.00000000000057 217.53841499180197 L 177.00000000000057 217.53841499180203 L 178.00000000000057 216.60113229123664 L 178.00000000000057 216.6011322912367 L 179.00000000000057 215.67550124186158 L 179.00000000000057 215.67550124186167 L 180.00000000000057 214.76123570653613 L 180.00000000000057 214.76123570653624 L 181.0000000000006 213.85805996067725 L 181.0000000000006 213.85805996067734 L 182.0000000000006 212.96570819308994 L 182.0000000000006 212.96570819309 L 183.0000000000006 212.08392403635588 L 183.0000000000006 212.08392403635597 L 184.00000000000063 211.2124601247046 L 184.00000000000063 211.2124601247047 L 185.00000000000063 210.35107767745944 L 185.00000000000063 210.35107767745956 L 186.00000000000063 209.4995461063036 L 186.00000000000063 209.49954610630368 L 187.00000000000063 208.65764264474967 L 187.00000000000063 208.65764264474979 L 188.00000000000063 207.82515199832406 L 188.00000000000063 207.82515199832415 L 189.00000000000063 207.00186601409058 L 189.00000000000063 207.00186601409067 L 190.00000000000063 206.1875833682459 L 190.00000000000063 206.18758336824595 L 191.00000000000063 205.38210927061203 L 191.00000000000063 205.38210927061215 L 192.00000000000063 204.5852551849427 L 192.00000000000063 204.58525518494275 L 193.00000000000063 203.79683856403688 L 193.00000000000063 203.796838564037 L 194.00000000000063 203.0166825987307 L 194.00000000000063 203.0166825987308 L 195.00000000000065 202.24461597990233 L 195.00000000000065 202.24461597990242 L 196.00000000000065 201.48047267268987 L 196.00000000000065 201.48047267268996 L 197.00000000000065 200.72409170217725 L 197.00000000000065 200.7240917021773 L 198.00000000000068 199.97531694985625 L 198.00000000000068 199.97531694985634 L 199.00000000000068 199.23399696022108 L 199.00000000000068 199.23399696022116 L 200.00000000000068 198.49998475689586 L 200.00000000000068 198.49998475689594 L 201.00000000000068 197.77313766773688 L 201.00000000000068 197.77313766773696 L 202.00000000000068 197.05331715838906 L 202.00000000000068 197.05331715838918 L 203.00000000000068 196.3403886738109 L 203.00000000000068 196.340388673811 L 204.00000000000068 195.63422148731414 L 204.00000000000068 195.63422148731422 L 205.00000000000068 194.93468855669505 L 205.00000000000068 194.93468855669514 L 206.00000000000068 194.2416663870611 L 206.00000000000068 194.24166638706117 L 207.00000000000068 193.55503489998233 L 207.00000000000068 193.5550348999824 L 208.0000000000007 192.8746773086209 L 208.0000000000007 192.87467730862102 L 209.0000000000007 192.20047999851417 L 209.0000000000007 192.20047999851428 L 210.0000000000007 191.53233241370637 L 210.0000000000007 191.53233241370646 L 211.0000000000007 190.87012694794413 L 211.0000000000007 190.87012694794421 L 212.00000000000074 190.21375884066762 L 212.00000000000074 190.2137588406677 L 213.00000000000074 189.56312607754583 L 213.00000000000074 189.56312607754592 L 214.00000000000074 188.91812929532009 L 214.00000000000074 188.9181292953202 L 215.00000000000074 188.2786716907336 L 215.00000000000074 188.27867169073366 L 216.00000000000074 187.64465893333823 L 216.00000000000074 187.64465893333832 L 217.00000000000074 187.01599908198247 L 217.00000000000074 187.01599908198256 L 218.00000000000074 186.39260250479492 L 218.00000000000074 186.39260250479504 L 219.00000000000074 185.7743818024902 L 219.00000000000074 185.77438180249027 L 220.00000000000074 185.16125173483192 L 220.00000000000074 185.16125173483204 L 221.00000000000074 184.55312915009932 L 221.00000000000074 184.5531291500994 L 222.00000000000077 183.94993291741022 L 222.00000000000077 183.9499329174103 L 223.00000000000077 183.35158386176377 L 223.00000000000077 183.35158386176386 L 224.00000000000077 182.75800470167204 L 224.00000000000077 182.75800470167215 L 225.00000000000077 182.16911998925815 L 225.00000000000077 182.1691199892583 L 226.0000000000008 181.5848560527045 L 226.0000000000008 181.58485605270462 L 227.00000000000077 181.00514094094123 L 227.00000000000077 181.00514094094137 L 228.0000000000008 180.4299043704717 L 228.0000000000008 180.4299043704718 L 229.0000000000008 179.85907767423572 L 229.0000000000008 179.85907767423583 L 230.0000000000008 179.29259375241847 L 230.0000000000008 179.2925937524186 L 231.0000000000008 178.73038702511636 L 231.0000000000008 178.73038702511647 L 232.0000000000008 178.17239338677612 L 232.0000000000008 178.17239338677624 L 233.0000000000008 177.61855016232911 L 233.0000000000008 177.61855016232923 L 234.0000000000008 177.06879606494454 L 234.0000000000008 177.06879606494465 L 235.00000000000082 176.5230711553306 L 235.00000000000082 176.5230711553307 L 236.00000000000082 175.98131680251694 L 236.00000000000082 175.98131680251709 L 237.0000000000008 175.44347564605286 L 237.0000000000008 175.443475646053 L 238.0000000000008 174.9094915595613 L 238.0000000000008 174.90949155956145 L 239.0000000000008 174.37930961559044 L 239.0000000000008 174.37930961559056 L 240.00000000000077 173.8528760517076 L 240.00000000000077 173.8528760517077 L 241.00000000000077 173.33013823778347 L 241.00000000000077 173.33013823778361 L 242.00000000000074 172.8110446444168 L 242.00000000000074 172.8110446444169 L 243.00000000000074 172.29554481245188 L 243.00000000000074 172.29554481245202 L 244.00000000000074 171.78358932354422 L 244.00000000000074 171.78358932354433 L 245.0000000000007 171.27512977173092 L 245.0000000000007 171.27512977173103 L 246.0000000000007 170.77011873596553 L 246.0000000000007 170.77011873596564 L 247.00000000000068 170.2685097535777 L 247.00000000000068 170.26850975357783 L 248.00000000000068 169.7702572946209 L 248.00000000000068 169.77025729462102 L 249.00000000000068 169.27531673707296 L 249.00000000000068 169.27531673707307 L 250.00000000000065 168.78364434285479 L 250.00000000000065 168.7836443428549 L 251.00000000000065 168.29519723463653 L 251.00000000000065 168.29519723463667 L 252.00000000000065 167.8099333733988 L 252.00000000000065 167.8099333733989 L 253.00000000000063 167.32781153672045 L 253.00000000000063 167.3278115367206 L 254.00000000000063 166.8487912977654 L 254.00000000000063 166.84879129776553 L 255.0000000000006 166.37283300494002 L 255.0000000000006 166.37283300494016 L 256.00000000000057 165.89989776219758 L 256.00000000000057 165.8998977621977 L 257.00000000000057 165.42994740996346 L 257.00000000000057 165.42994740996357 L 258.00000000000057 164.96294450665894 L 258.00000000000057 164.96294450665908 L 259.00000000000057 164.49885231080094 L 259.00000000000057 164.49885231080108 L 260.00000000000057 164.0376347636554 L 260.00000000000057 164.03763476365552 L 261.00000000000057 163.5792564724256 L 261.00000000000057 163.57925647242573 L 262.00000000000057 163.12368269395404 L 262.00000000000057 163.12368269395418 L 263.0000000000005 162.67087931892013 L 263.0000000000005 162.67087931892024 L 264.0000000000005 162.22081285651555 L 264.0000000000005 162.22081285651566 L 265.00000000000045 161.77345041957975 L 265.00000000000045 161.7734504195799 L 266.00000000000045 161.32875971017972 L 266.00000000000045 161.32875971017984 L 267.00000000000045 160.8867090056172 L 267.00000000000045 160.88670900561735 L 268.00000000000045 160.44726714484938 L 268.00000000000045 160.4472671448495 L 269.00000000000045 160.01040351530762 L 269.00000000000045 160.01040351530773 L 270.00000000000045 159.57608804010079 L 270.00000000000045 159.5760880401009 L 271.00000000000045 159.14429116558938 L 271.00000000000045 159.14429116558952 L 272.00000000000045 158.71498384931832 L 272.00000000000045 158.71498384931843 L 273.0000000000004 158.2881375482949 L 273.0000000000004 158.28813754829508 L 274.0000000000004 157.86372420760193 L 274.0000000000004 157.86372420760205 L 275.0000000000004 157.44171624933205 L 275.0000000000004 157.44171624933216 L 276.00000000000034 157.02208656183532 L 276.00000000000034 157.02208656183544 L 277.00000000000034 156.60480848926716 L 277.00000000000034 156.60480848926733 L 278.00000000000034 156.189855821428 L 278.00000000000034 156.18985582142813 L 279.00000000000034 155.77720278388418 L 279.00000000000034 155.77720278388432 L 280.00000000000034 155.3668240283613 L 280.00000000000034 155.3668240283614 L 281.00000000000034 154.9586946234006 L 281.00000000000034 154.95869462340076 L 282.00000000000034 154.55279004527046 L 282.00000000000034 154.55279004527063 L 283.0000000000003 154.14908616912373 L 283.0000000000003 154.14908616912385 L 284.0000000000003 153.74755926039396 L 284.0000000000003 153.7475592603941 L 285.0000000000003 153.34818596642194 L 285.0000000000003 153.34818596642208 L 286.0000000000002 152.95094330830608 L 286.0000000000002 152.9509433083062 L 287.0000000000002 152.5558086729685 L 287.0000000000002 152.55580867296862 L 288.0000000000002 152.162759805431 L 288.0000000000002 152.1627598054311 L 289.0000000000002 151.77177480129353 L 289.0000000000002 151.7717748012937 L 290.0000000000002 151.3828320994092 L 290.0000000000002 151.38283209940934 L 291.0000000000002 150.99591047474956 L 291.0000000000002 150.99591047474968 L 292.0000000000002 150.61098903145432 L 292.0000000000002 150.61098903145444 L 293.00000000000017 150.22804719605995 L 293.00000000000017 150.22804719606006 L 294.00000000000017 149.8470647109011 L 294.00000000000017 149.84706471090124 L 295.00000000000017 149.46802162768063 L 295.00000000000017 149.46802162768074 L 296.0000000000001 149.0908983012016 L 296.0000000000001 149.09089830120172 L 297.0000000000001 148.71567538325814 L 297.0000000000001 148.71567538325826 L 298.0000000000001 148.34233381667863 L 298.0000000000001 148.34233381667877 L 299.0000000000001 147.97085482951817 L 299.0000000000001 147.97085482951832 L 300.0000000000001 147.60121992939463 L 300.0000000000001 147.6012199293948 L 301.0000000000001 147.233410897965 L 301.0000000000001 147.23341089796514 L 302.0000000000001 146.86740978553723 L 302.0000000000001 146.86740978553738 L 303.0000000000001 146.50319890581403 L 303.0000000000001 146.50319890581414 L 304.00000000000006 146.14076083076446 L 304.00000000000006 146.1407608307646 L 305.00000000000006 145.78007838561996 L 305.00000000000006 145.78007838562007 L 306 145.42113464399048 L 306 145.4211346439906 L 307 145.0639129230985 L 307 145.06391292309866 L 308 144.7083967791261 L 308 144.70839677912625 L 309 144.3545700026732 L 309 144.35457000267334 L 310 144.00241661432247 L 310 144.0024166143226 L 311 143.65192086030973 L 311 143.6519208603099 L 312 143.30306720829452 L 312 143.30306720829466 L 313 142.95584034323005 L 313 142.95584034323022 L 313.99999999999994 142.61022516332906 L 313.99999999999994 142.61022516332918 L 314.99999999999994 142.26620677612223 L 314.99999999999994 142.26620677612235 L 315.9999999999999 141.92377049460796 L 315.9999999999999 141.92377049460808 L 316.9999999999999 141.58290183348984 L 316.9999999999999 141.58290183349 L 317.9999999999999 141.24358650549996 L 317.9999999999999 141.24358650550008 L 318.9999999999999 140.90581041780553 L 318.9999999999999 140.90581041780564 L 319.9999999999999 140.56955966849685 L 319.9999999999999 140.569559668497 L 320.9999999999999 140.23482054315411 L 320.9999999999999 140.23482054315429 L 321.9999999999999 139.90157951149084 L 321.9999999999999 139.901579511491 L 322.9999999999999 139.56982322407245 L 322.9999999999999 139.56982322407256 L 323.99999999999983 139.23953850910723 L 323.99999999999983 139.2395385091074 L 324.99999999999983 138.91071236930864 L 324.99999999999983 138.91071236930878 L 325.99999999999983 138.58333197882607 L 325.99999999999983 138.58333197882618 L 326.9999999999998 138.25738468024292 L 326.9999999999998 138.2573846802431 L 327.9999999999998 137.93285798164064 L 327.9999999999998 137.9328579816408 L 328.9999999999998 137.60973955372552 L 328.9999999999998 137.6097395537257 L 329.9999999999998 137.28801722701843 L 329.9999999999998 137.28801722701857 L 330.9999999999998 136.96767898910434 L 330.9999999999998 136.9676789891045 L 331.9999999999998 136.64871298194143 L 331.9999999999998 136.64871298194154 L 332.9999999999998 136.33110749922665 L 332.9999999999998 136.33110749922682 L 333.9999999999997 136.01485098381852 L 333.9999999999997 136.01485098381863 L 334.9999999999997 135.6999320252129 L 334.9999999999997 135.69993202521306 L 335.9999999999997 135.38633935707338 L 335.9999999999997 135.38633935707352 L 336.99999999999966 135.0740618548124 L 336.99999999999966 135.07406185481258 L 337.99999999999966 134.76308853322342 L 337.99999999999966 134.7630885332236 L 338.99999999999966 134.45340854416213 L 338.99999999999966 134.45340854416227 L 339.99999999999966 134.14501117427565 L 339.99999999999966 134.1450111742758 L 340.99999999999966 133.8378858427789 L 340.99999999999966 133.83788584277903 L 341.99999999999966 133.53202209927596 L 341.99999999999966 133.53202209927608 L 342.99999999999966 133.22740962162683 L 342.99999999999966 133.22740962162698 L 343.9999999999996 132.92403821385705 L 343.9999999999996 132.9240382138572 L 344.9999999999996 132.62189780410984 L 344.9999999999996 132.62189780410995 L 345.9999999999996 132.32097844263978 L 345.9999999999996 132.3209784426399 L 346.99999999999955 132.0212702998468 L 346.99999999999955 132.02127029984695 L 347.99999999999955 131.72276366434943 L 347.99999999999955 131.7227636643496 L 348.99999999999955 131.42544894109693 L 348.99999999999955 131.42544894109707 L 349.99999999999955 131.12931664951827 L 349.99999999999955 131.12931664951842 L 350.99999999999955 130.8343574217085 L 350.99999999999955 130.83435742170863 L 351.99999999999955 130.5405620006504 L 351.99999999999955 130.54056200065054 L 352.99999999999955 130.24792123847138 L 352.99999999999955 130.24792123847152 L 353.99999999999955 129.9564260947343 L 353.99999999999955 129.95642609473444 L 354.99999999999955 129.6660676347617 L 354.99999999999955 129.66606763476187 L 355.99999999999943 129.37683702799256 L 355.99999999999943 129.37683702799268 L 356.99999999999943 129.08872554637085 L 356.99999999999943 129.088725546371 L 357.99999999999943 128.80172456276517 L 357.99999999999943 128.8017245627653 L 358.99999999999943 128.5158255494186 L 358.99999999999943 128.51582554941876 L 359.99999999999943 128.23102007642856 L 359.99999999999943 128.2310200764287 L 360.99999999999943 127.94729981025503 L 360.99999999999943 127.94729981025515 L 361.99999999999943 127.66465651225761 L 361.99999999999943 127.66465651225772 L 362.99999999999943 127.3830820372601 L 362.99999999999943 127.38308203726027 L 363.99999999999943 127.10256833214194 L 363.99999999999943 127.10256833214208 L 364.99999999999943 126.82310743445626 L 364.99999999999943 126.8231074344564 L 365.9999999999993 126.54469147107375 L 365.9999999999993 126.54469147107392 L 366.9999999999993 126.26731265685177 L 366.9999999999993 126.26731265685191 L 367.9999999999993 125.99096329332806 L 367.9999999999993 125.99096329332818 L 368.9999999999993 125.71563576743878 L 368.9999999999993 125.71563576743893 L 369.9999999999993 125.44132255026005 L 369.9999999999993 125.44132255026017 L 370.9999999999993 125.16801619577257 L 370.9999999999993 125.16801619577271 L 371.9999999999993 124.89570933964893 L 371.9999999999993 124.89570933964907 L 372.9999999999993 124.62439469806284 L 372.9999999999993 124.62439469806296 L 373.9999999999993 124.35406506652023 L 373.9999999999993 124.35406506652038 L 374.9999999999993 124.0847133187113 L 374.9999999999993 124.08471331871144 L 375.9999999999992 123.81633240538318 L 375.9999999999992 123.81633240538332 L 376.9999999999992 123.54891535323316 L 376.9999999999992 123.5489153532333 L 377.9999999999992 123.28245526382139 L 377.9999999999992 123.28245526382153 L 378.9999999999992 123.01694531250314 L 378.9999999999992 123.01694531250325 L 379.9999999999992 122.75237874737999 L 379.9999999999992 122.75237874738013 L 380.9999999999992 122.48874888826961 L 380.9999999999992 122.48874888826973 L 381.9999999999992 122.22604912569355 L 381.9999999999992 122.22604912569372 L 382.9999999999992 121.96427291988323 L 382.9999999999992 121.9642729198834 L 383.9999999999992 121.70341379980275 L 383.9999999999992 121.70341379980292 L 384.9999999999992 121.44346536218936 L 384.9999999999992 121.44346536218953 L 385.9999999999992 121.18442127061019 L 385.9999999999992 121.18442127061033 L 386.9999999999991 120.92627525453543 L 386.9999999999991 120.9262752545356 L 387.9999999999991 120.66902110842781 L 387.9999999999991 120.66902110842796 L 388.9999999999991 120.41265269084727 L 388.9999999999991 120.41265269084738 L 389.9999999999991 120.15716392357123 L 389.9999999999991 120.1571639235714 L 390.9999999999991 119.90254879073026 L 390.9999999999991 119.9025487907304 L 391.9999999999991 119.64880133795765 L 391.9999999999991 119.64880133795779 L 392.9999999999991 119.3959156715542 L 392.9999999999991 119.39591567155435 L 393.9999999999991 119.14388595766681 L 393.9999999999991 119.14388595766698 L 394.9999999999991 118.89270642148082 L 394.9999999999991 118.892706421481 L 395.9999999999991 118.64237134642627 L 395.9999999999991 118.64237134642642 L 396.999999999999 118.39287507339697 L 396.999999999999 118.39287507339714 L 397.999999999999 118.14421199998324 L 397.999999999999 118.14421199998336 L 398.999999999999 117.89637657971673 L 398.999999999999 117.89637657971687 L 399.999999999999 117.64936332132837 L 399.999999999999 117.64936332132851 L 400.999999999999 117.40316678801813 L 400.999999999999 117.40316678801827 L 401.999999999999 117.15778159673715 L 401.999999999999 117.1577815967373 L 402.999999999999 116.91320241748147 L 402.999999999999 116.91320241748164 L 403.999999999999 116.66942397259734 L 403.999999999999 116.66942397259749 L 404.999999999999 116.4264410360978 L 404.999999999999 116.42644103609794 L 405.999999999999 116.18424843299073 L 405.999999999999 116.1842484329909 L 406.99999999999886 115.94284103861739 L 406.99999999999886 115.94284103861753 L 407.99999999999886 115.70221377800158 L 407.99999999999886 115.70221377800172 L 408.99999999999886 115.46236162520984 L 408.99999999999886 115.46236162520998 L 409.99999999999886 115.22327960272136 L 409.99999999999886 115.22327960272153 L 410.99999999999886 114.98496278080827 L 410.99999999999886 114.98496278080839 L 411.99999999999886 114.74740627692566 L 411.99999999999886 114.7474062769258 L 412.99999999999886 114.51060525511139 L 412.99999999999886 114.51060525511156 L 413.99999999999886 114.2745549253955 L 413.99999999999886 114.27455492539568 L 414.99999999999886 114.03925054321869 L 414.99999999999886 114.03925054321886 L 415.99999999999886 113.80468740886019 L 415.99999999999886 113.80468740886033 L 416.99999999999875 113.57086086687448 L 416.99999999999875 113.57086086687463 L 417.99999999999875 113.337766305537 L 417.99999999999875 113.33776630553714 L 418.99999999999875 113.10539915629838 L 418.99999999999875 113.10539915629852 L 419.99999999999875 112.87375489324694 L 419.99999999999875 112.87375489324708 L 420.99999999999875 112.6428290325801 L 420.99999999999875 112.64282903258024 L 421.99999999999875 112.41261713208337 L 421.99999999999875 112.41261713208354 L 422.99999999999875 112.18311479061771 L 422.99999999999875 112.18311479061785 L 423.99999999999875 111.95431764761469 L 423.99999999999875 111.95431764761486 L 424.99999999999875 111.72622138257933 L 424.99999999999875 111.72622138257947 L 425.99999999999875 111.49882171460058 L 425.99999999999875 111.49882171460075 L 426.99999999999864 111.27211440186923 L 426.99999999999864 111.27211440186935 L 427.99999999999864 111.04609524120315 L 427.99999999999864 111.04609524120329 L 428.99999999999864 110.82076006757973 L 428.99999999999864 110.8207600675799 L 429.99999999999864 110.59610475367535 L 429.99999999999864 110.59610475367552 L 430.99999999999864 110.37212520941176 L 430.99999999999864 110.37212520941193 L 431.99999999999864 110.1488173815093 L 431.99999999999864 110.14881738150945 L 432.99999999999864 109.92617725304677 L 432.99999999999864 109.92617725304692 L 433.99999999999864 109.70420084302779 L 433.99999999999864 109.70420084302796 L 434.99999999999864 109.48288420595398 L 434.99999999999864 109.48288420595412 L 435.99999999999864 109.26222343140384 L 435.99999999999864 109.26222343140398 L 436.99999999999864 109.04221464361822 L 436.99999999999864 109.04221464361837 L 437.9999999999985 108.82285400109205 L 437.9999999999985 108.8228540010922 L 438.9999999999985 108.60413769617185 L 438.9999999999985 108.60413769617202 L 439.9999999999985 108.38606195465894 L 439.9999999999985 108.38606195465911 L 440.9999999999985 108.16862303541885 L 440.9999999999985 108.16862303541899 L 441.9999999999985 107.95181722999615 L 441.9999999999985 107.95181722999632 L 442.9999999999985 107.73564086223507 L 442.9999999999985 107.73564086223521 L 443.9999999999985 107.5200902879053 L 443.9999999999985 107.52009028790545 L 444.9999999999985 107.30516189433357 L 444.9999999999985 107.30516189433374 L 445.9999999999985 107.09085210004022 L 445.9999999999985 107.0908521000404 L 446.9999999999985 106.87715735438118 L 446.9999999999985 106.87715735438132 L 447.9999999999984 106.6640741371948 L 447.9999999999984 106.66407413719494 L 448.9999999999984 106.4515989584543 L 448.9999999999984 106.45159895845447 L 449.9999999999984 106.23972835792455 L 449.9999999999984 106.23972835792469 L 450.9999999999984 106.02845890482382 L 450.9999999999984 106.02845890482399 L 451.9999999999984 105.81778719749079 L 451.9999999999984 105.81778719749093 L 452.9999999999984 105.60770986305553 L 452.9999999999984 105.6077098630557 L 453.9999999999984 105.39822355711593 L 453.9999999999984 105.3982235571161 L 454.9999999999984 105.18932496341782 L 454.9999999999984 105.18932496341796 L 455.9999999999984 104.98101079354024 L 455.9999999999984 104.9810107935404 L 456.9999999999984 104.77327778658474 L 456.9999999999984 104.77327778658491 L 457.9999999999983 104.5661227088691 L 457.9999999999983 104.56612270886924 L 458.9999999999983 104.35954235362539 L 458.9999999999983 104.35954235362553 L 459.9999999999983 104.15353354070189 L 459.9999999999983 104.15353354070203 L 460.9999999999983 103.94809311626972 L 460.9999999999983 103.94809311626986 L 461.9999999999983 103.74321795253272 L 461.9999999999983 103.74321795253286 L 462.9999999999983 103.53890494744198 L 462.9999999999983 103.53890494744212 L 463.9999999999983 103.33515102441405 L 463.9999999999983 103.33515102441419 L 464.9999999999983 103.13195313205273 L 464.9999999999983 103.13195313205287 L 465.9999999999983 102.92930824387511 L 465.9999999999983 102.92930824387525 L 466.9999999999983 102.72721335804104 L 466.9999999999983 102.72721335804121 L 467.9999999999982 102.52566549708621 L 467.9999999999982 102.52566549708638 L 468.9999999999982 102.32466170765912 L 468.9999999999982 102.32466170765926 L 469.9999999999982 102.12419906026122 L 469.9999999999982 102.12419906026136 L 470.9999999999982 101.92427464899092 L 470.9999999999982 101.92427464899106 L 471.9999999999982 101.7248855912907 L 471.9999999999982 101.72488559129084 L 472.9999999999982 101.52602902769783 L 472.9999999999982 101.526029027698 L 473.9999999999982 101.32770212159826 L 473.9999999999982 101.32770212159843 L 474.9999999999982 101.12990205898382 L 474.9999999999982 101.12990205898399 L 475.9999999999982 100.93262604821271 L 475.9999999999982 100.93262604821285 L 476.9999999999982 100.73587131977308 L 476.9999999999982 100.73587131977322 L 477.99999999999807 100.53963512604969 L 477.99999999999807 100.53963512604983 L 478.99999999999807 100.34391474109378 L 478.99999999999807 100.34391474109393 L 479.99999999999807 100.14870746039574 L 479.99999999999807 100.14870746039588 L 480.99999999999807 99.95401060066095 L 480.99999999999807 99.95401060066112 L 481.99999999999807 99.75982149958858 L 481.99999999999807 99.75982149958872 L 482.99999999999807 99.56613751565297 L 482.99999999999807 99.56613751565311 L 483.99999999999807 99.37295602788805 L 483.99999999999807 99.3729560278882 L 484.99999999999807 99.18027443567465 L 484.99999999999807 99.18027443567479 L 485.99999999999807 98.98809015853035 L 485.99999999999807 98.98809015853053 L 486.99999999999807 98.79640063590224 L 486.99999999999807 98.79640063590239 L 487.99999999999807 98.60520332696194 L 487.99999999999807 98.60520332696208 L 488.99999999999795 98.41449571040386 L 488.99999999999795 98.41449571040405 L 489.99999999999795 98.22427528424555 L 489.99999999999795 98.22427528424569 L 490.99999999999795 98.0345395656307 L 490.99999999999795 98.03453956563084 L 491.99999999999795 97.84528609063474 L 491.99999999999795 97.84528609063491 L 492.99999999999795 97.65651241407295 L 492.99999999999795 97.65651241407312 L 493.99999999999795 97.4682161093107 L 493.99999999999795 97.46821610931087 L 494.99999999999795 97.28039476807652 L 494.99999999999795 97.28039476807666 L 495.99999999999795 97.0930460002771 L 495.99999999999795 97.09304600027724 L 496.99999999999795 96.90616743381483 L 496.99999999999795 96.906167433815 L 497.99999999999795 96.71975671440774 L 497.99999999999795 96.71975671440788 L 498.99999999999784 96.53381150541128 L 498.99999999999784 96.53381150541142 L 499.99999999999784 96.34832948764284" stroke-opacity="0.8" stroke-linecap="round" stroke-linejoin="round" stroke-miterlimit="10" stroke-width="2.5"/><text fill="rgb(21,101,192)" stroke="none" font-family="geogebra-sans-serif, sans-serif" font-size="16px" font-style="normal" font-weight="normal" text-decoration="normal" x="100" y="493" text-anchor="start" dominant-baseline="alphabetic" fill-opacity="1">f</text><text fill="rgb(21,101,192)" stroke="none" font-family="geogebra-sans-serif, sans-serif" font-size="16px" font-style="normal" font-weight="normal" text-decoration="normal" x="100" y="493" text-anchor="start" dominant-baseline="alphabetic" fill-opacity="1">f</text></g></g></svg>