<svg version="1.1" xmlns="http://www.w3.org/2000/svg" xmlns:xlink="http://www.w3.org/1999/xlink" width="510" height="715"><defs><clipPath id="mWCwrqMeGERZ"><path fill="none" stroke="none" d=" M 0 0 L 510 0 L 510 715 L 0 715 L 0 0 Z"/></clipPath></defs><g transform="scale(1,1)" clip-path="url(#mWCwrqMeGERZ)"><g><rect fill="rgb(255,255,255)" stroke="none" x="0" y="0" width="510" height="715" fill-opacity="1"/><path fill="none" stroke="rgb(0,0,0)" paint-order="fill stroke markers" d=" M 213.5 2.5 L 213.5 715.5" stroke-opacity="1" stroke-miterlimit="10"/><path fill="none" stroke="rgb(0,0,0)" paint-order="fill stroke markers" d=" M 213.5 1.5 L 209.5 5.5" stroke-opacity="1" stroke-miterlimit="10"/><path fill="none" stroke="rgb(0,0,0)" paint-order="fill stroke markers" d=" M 213.5 1.5 L 217.5 5.5" stroke-opacity="1" stroke-miterlimit="10"/><path fill="none" stroke="rgb(0,0,0)" paint-order="fill stroke markers" d=" M 0.5 539.5 L 508.5 539.5" stroke-opacity="1" stroke-miterlimit="10"/><path fill="none" stroke="rgb(0,0,0)" paint-order="fill stroke markers" d=" M 509.5 539.5 L 505.5 535.5" stroke-opacity="1" stroke-miterlimit="10"/><path fill="none" stroke="rgb(0,0,0)" paint-order="fill stroke markers" d=" M 509.5 539.5 L 505.5 543.5" stroke-opacity="1" stroke-miterlimit="10"/><path fill="none" stroke="rgb(0,0,0)" paint-order="fill stroke markers" d=" M 50.5 539.5 L 50.5 542.5" stroke-opacity="1" stroke-miterlimit="10"/><path fill="none" stroke="rgb(0,0,0)" paint-order="fill stroke markers" d=" M 104.5 539.5 L 104.5 542.5" stroke-opacity="1" stroke-miterlimit="10"/><path fill="none" stroke="rgb(0,0,0)" paint-order="fill stroke markers" d=" M 158.5 539.5 L 158.5 542.5" stroke-opacity="1" stroke-miterlimit="10"/><path fill="none" stroke="rgb(0,0,0)" paint-order="fill stroke markers" d=" M 213.5 539.5 L 213.5 542.5" stroke-opacity="1" stroke-miterlimit="10"/><path fill="none" stroke="rgb(0,0,0)" paint-order="fill stroke markers" d=" M 267.5 539.5 L 267.5 542.5" stroke-opacity="1" stroke-miterlimit="10"/><path fill="none" stroke="rgb(0,0,0)" paint-order="fill stroke markers" d=" M 321.5 539.5 L 321.5 542.5" stroke-opacity="1" stroke-miterlimit="10"/><path fill="none" stroke="rgb(0,0,0)" paint-order="fill stroke markers" d=" M 375.5 539.5 L 375.5 542.5" stroke-opacity="1" stroke-miterlimit="10"/><path fill="none" stroke="rgb(0,0,0)" paint-order="fill stroke markers" d=" M 429.5 539.5 L 429.5 542.5" stroke-opacity="1" stroke-miterlimit="10"/><path fill="none" stroke="rgb(0,0,0)" paint-order="fill stroke markers" d=" M 483.5 539.5 L 483.5 542.5" stroke-opacity="1" stroke-miterlimit="10"/><path fill="none" stroke="rgb(0,0,0)" paint-order="fill stroke markers" d=" M 210.5 701.5 L 213.5 701.5" stroke-opacity="1" stroke-miterlimit="10"/><path fill="none" stroke="rgb(0,0,0)" paint-order="fill stroke markers" d=" M 210.5 647.5 L 213.5 647.5" stroke-opacity="1" stroke-miterlimit="10"/><path fill="none" stroke="rgb(0,0,0)" paint-order="fill stroke markers" d=" M 210.5 593.5 L 213.5 593.5" stroke-opacity="1" stroke-miterlimit="10"/><path fill="none" stroke="rgb(0,0,0)" paint-order="fill stroke markers" d=" M 210.5 484.5 L 213.5 484.5" stroke-opacity="1" stroke-miterlimit="10"/><path fill="none" stroke="rgb(0,0,0)" paint-order="fill stroke markers" d=" M 210.5 430.5 L 213.5 430.5" stroke-opacity="1" stroke-miterlimit="10"/><path fill="none" stroke="rgb(0,0,0)" paint-order="fill stroke markers" d=" M 210.5 376.5 L 213.5 376.5" stroke-opacity="1" stroke-miterlimit="10"/><path fill="none" stroke="rgb(0,0,0)" paint-order="fill stroke markers" d=" M 210.5 322.5 L 213.5 322.5" stroke-opacity="1" stroke-miterlimit="10"/><path fill="none" stroke="rgb(0,0,0)" paint-order="fill stroke markers" d=" M 210.5 268.5 L 213.5 268.5" stroke-opacity="1" stroke-miterlimit="10"/><path fill="none" stroke="rgb(0,0,0)" paint-order="fill stroke markers" d=" M 210.5 214.5 L 213.5 214.5" stroke-opacity="1" stroke-miterlimit="10"/><path fill="none" stroke="rgb(0,0,0)" paint-order="fill stroke markers" d=" M 210.5 160.5 L 213.5 160.5" stroke-opacity="1" stroke-miterlimit="10"/><path fill="none" stroke="rgb(0,0,0)" paint-order="fill stroke markers" d=" M 210.5 105.5 L 213.5 105.5" stroke-opacity="1" stroke-miterlimit="10"/><path fill="none" stroke="rgb(0,0,0)" paint-order="fill stroke markers" d=" M 210.5 51.5 L 213.5 51.5" stroke-opacity="1" stroke-miterlimit="10"/><path fill="none" stroke="rgb(46,125,50)" paint-order="fill stroke markers" d=" M 1 537.8175949432452 L 1 537.8426671629101 L 1 537.8175949432452 L 2 537.791983866611 L 2 537.791983866611 L 2.9999999999999716 537.7658223517896 L 2.9999999999999716 537.7658223517896 L 3.9999999999999716 537.7390985686577 L 3.9999999999999716 537.7390985686577 L 4.999999999999943 537.7118004328365 L 4.999999999999943 537.7118004328365 L 5.999999999999943 537.6839156002276 L 5.999999999999943 537.6839156002276 L 6.999999999999943 537.6554314614307 L 6.999999999999943 537.6554314614307 L 7.999999999999915 537.6263351360419 L 7.999999999999915 537.6263351360419 L 8.999999999999915 537.5966134668291 L 8.999999999999915 537.5966134668291 L 9.999999999999915 537.5662530137826 L 9.999999999999915 537.5662530137826 L 10.999999999999886 537.5352400480373 L 10.999999999999886 537.5352400480373 L 11.999999999999886 537.5035605456646 L 11.999999999999886 537.5035605456646 L 12.999999999999858 537.4712001813313 L 12.999999999999858 537.4712001813313 L 13.999999999999858 537.4381443218209 L 13.999999999999858 537.4381443218209 L 14.999999999999858 537.4043780194173 L 14.999999999999858 537.4043780194173 L 15.99999999999983 537.3698860051452 L 15.99999999999983 537.3698860051452 L 16.99999999999983 537.3346526818655 L 16.99999999999983 537.3346526818655 L 17.99999999999983 537.2986621172222 L 17.99999999999983 537.2986621172222 L 18.9999999999998 537.2618980364383 L 18.9999999999998 537.2618980364383 L 19.9999999999998 537.2243438149561 L 19.9999999999998 537.2243438149561 L 20.999999999999773 537.1859824709197 L 20.999999999999773 537.1859824709197 L 21.999999999999773 537.1467966574958 L 21.999999999999773 537.1467966574958 L 22.999999999999773 537.1067686550297 L 22.999999999999773 537.1067686550297 L 23.999999999999744 537.0658803630323 L 23.999999999999744 537.0658803630323 L 24.999999999999744 537.0241132919957 L 24.999999999999744 537.0241132919957 L 25.999999999999744 536.9814485550315 L 25.999999999999744 536.9814485550315 L 26.999999999999716 536.937866859331 L 26.999999999999716 536.937866859331 L 27.999999999999716 536.8933484974407 L 27.999999999999716 536.8933484974407 L 28.999999999999716 536.8478733383503 L 28.999999999999716 536.8478733383503 L 29.999999999999687 536.8014208183905 L 29.999999999999687 536.8014208183905 L 30.999999999999687 536.7539699319333 L 30.999999999999687 536.7539699319333 L 31.99999999999966 536.7054992218939 L 31.99999999999966 536.7054992218939 L 32.99999999999966 536.6559867700277 L 32.99999999999966 536.6559867700277 L 33.99999999999966 536.6054101870187 L 33.99999999999966 536.6054101870187 L 34.99999999999963 536.5537466023559 L 34.99999999999963 536.5537466023559 L 35.99999999999963 536.5009726539904 L 35.99999999999963 536.5009726539904 L 36.99999999999963 536.447064477772 L 36.99999999999963 536.447064477772 L 37.9999999999996 536.3919976966572 L 37.9999999999996 536.3919976966572 L 38.9999999999996 536.3357474096869 L 38.9999999999996 536.3357474096869 L 39.999999999999574 536.2782881807252 L 39.999999999999574 536.2782881807252 L 40.999999999999574 536.2195940269586 L 40.999999999999574 536.2195940269586 L 41.999999999999574 536.1596384071453 L 41.999999999999574 536.1596384071453 L 42.999999999999545 536.0983942096143 L 42.999999999999545 536.0983942096143 L 43.999999999999545 536.0358337400054 L 43.999999999999545 536.0358337400054 L 44.999999999999545 535.9719287087458 L 44.999999999999545 535.9719287087458 L 45.99999999999952 535.9066502182579 L 45.99999999999952 535.9066502182579 L 46.99999999999952 535.8399687498916 L 46.99999999999952 535.8399687498916 L 47.99999999999949 535.7718541505762 L 47.99999999999949 535.7718541505762 L 48.99999999999949 535.7022756191859 L 48.99999999999949 535.7022756191859 L 49.99999999999949 535.6312016926107 L 49.99999999999949 535.6312016926107 L 50.99999999999946 535.5586002315296 L 50.99999999999946 535.5586002315296 L 51.99999999999946 535.4844384058769 L 51.99999999999946 535.4844384058769 L 52.99999999999946 535.4086826799971 L 52.99999999999946 535.4086826799971 L 53.99999999999943 535.3312987974799 L 53.99999999999943 535.3312987974799 L 54.99999999999943 535.2522517656695 L 54.99999999999943 535.2522517656695 L 55.99999999999943 535.1715058398412 L 55.99999999999943 535.1715058398412 L 56.9999999999994 535.089024507038 L 56.9999999999994 535.089024507038 L 57.9999999999994 535.0047704695592 L 57.9999999999994 535.0047704695592 L 58.999999999999375 534.9187056280947 L 58.999999999999375 534.9187056280947 L 59.999999999999375 534.8307910644969 L 59.999999999999375 534.8307910644969 L 60.999999999999375 534.7409870241819 L 60.999999999999375 534.7409870241819 L 61.999999999999346 534.6492528981524 L 61.999999999999346 534.6492528981524 L 62.999999999999346 534.5555472046349 L 62.999999999999346 534.5555472046349 L 63.999999999999346 534.4598275703214 L 63.999999999999346 534.4598275703214 L 64.99999999999932 534.362050711209 L 64.99999999999932 534.362050711209 L 65.99999999999932 534.2621724130264 L 65.99999999999932 534.2621724130264 L 66.99999999999929 534.1601475112408 L 66.99999999999929 534.1601475112408 L 67.99999999999929 534.0559298706344 L 67.99999999999929 534.0559298706344 L 68.99999999999929 533.9494723644426 L 68.99999999999929 533.9494723644426 L 69.99999999999926 533.8407268530433 L 69.99999999999926 533.8407268530433 L 70.99999999999926 533.7296441621882 L 70.99999999999926 533.7296441621883 L 71.99999999999926 533.6161740607669 L 71.99999999999926 533.6161740607669 L 72.99999999999923 533.5002652380919 L 72.99999999999923 533.5002652380919 L 73.99999999999923 533.381865280697 L 73.99999999999923 533.381865280697 L 74.99999999999923 533.2609206486352 L 74.99999999999923 533.2609206486352 L 75.9999999999992 533.137376651269 L 75.9999999999992 533.137376651269 L 76.9999999999992 533.0111774225393 L 76.9999999999992 533.0111774225393 L 77.99999999999918 532.8822658957025 L 77.99999999999918 532.8822658957025 L 78.99999999999918 532.7505837775259 L 78.99999999999918 532.7505837775259 L 79.99999999999918 532.6160715219273 L 79.99999999999918 532.6160715219273 L 80.99999999999915 532.4786683030486 L 80.99999999999915 532.4786683030486 L 81.99999999999915 532.3383119877507 L 81.99999999999915 532.3383119877507 L 82.99999999999915 532.1949391075171 L 82.99999999999915 532.1949391075171 L 83.99999999999912 532.0484848297539 L 83.99999999999912 532.0484848297539 L 84.99999999999912 531.8988829284724 L 84.99999999999912 531.8988829284724 L 85.9999999999991 531.7460657543422 L 85.9999999999991 531.7460657543422 L 86.99999999999909 531.5899642041006 L 86.99999999999909 531.5899642041006 L 87.99999999999908 531.4305076893044 L 87.99999999999908 531.4305076893044 L 88.99999999999908 531.2676241044095 L 88.99999999999908 531.2676241044095 L 89.99999999999906 531.1012397941662 L 89.99999999999906 531.1012397941662 L 90.99999999999905 530.9312795203116 L 90.99999999999905 530.9312795203116 L 91.99999999999903 530.7576664275476 L 91.99999999999903 530.7576664275476 L 92.99999999999903 530.5803220087876 L 92.99999999999903 530.5803220087876 L 93.99999999999902 530.3991660696549 L 93.99999999999902 530.3991660696549 L 94.999999999999 530.2141166922206 L 94.999999999999 530.2141166922206 L 95.99999999999899 530.0250901979593 L 95.99999999999899 530.0250901979593 L 96.99999999999899 529.8320011099111 L 96.99999999999899 529.8320011099111 L 97.99999999999898 529.6347621140285 L 97.99999999999898 529.6347621140285 L 98.99999999999896 529.4332840196937 L 98.99999999999896 529.4332840196937 L 99.99999999999896 529.2274757193873 L 99.99999999999896 529.2274757193873 L 100.99999999999895 529.0172441474891 L 100.99999999999895 529.0172441474891 L 101.99999999999893 528.8024942381952 L 101.99999999999893 528.8024942381952 L 102.99999999999892 528.5831288825286 L 102.99999999999892 528.5831288825286 L 103.99999999999892 528.3590488844279 L 103.99999999999892 528.3590488844279 L 104.99999999999892 528.1301529158908 L 104.99999999999892 528.1301529158908 L 105.99999999999892 527.8963374711539 L 105.99999999999892 527.8963374711539 L 106.99999999999892 527.657496819888 L 106.99999999999892 527.657496819888 L 107.99999999999892 527.4135229593876 L 107.99999999999892 527.4135229593876 L 108.99999999999892 527.1643055657321 L 108.99999999999892 527.1643055657321 L 109.99999999999892 526.9097319438978 L 109.99999999999892 526.9097319438978 L 110.99999999999892 526.6496869767983 L 110.99999999999892 526.6496869767983 L 111.99999999999892 526.3840530732281 L 111.99999999999892 526.3840530732281 L 112.99999999999892 526.1127101146893 L 112.99999999999892 526.1127101146893 L 113.99999999999893 525.835535401074 L 113.99999999999893 525.835535401074 L 114.99999999999893 525.55240359518 L 114.99999999999893 525.55240359518 L 115.99999999999893 525.2631866660336 L 115.99999999999893 525.2631866660336 L 116.99999999999893 524.9677538309951 L 116.99999999999893 524.9677538309951 L 117.99999999999893 524.6659714966189 L 117.99999999999893 524.6659714966189 L 118.99999999999893 524.3577031982436 L 118.99999999999893 524.3577031982436 L 119.99999999999893 524.0428095382829 L 119.99999999999893 524.0428095382829 L 120.99999999999893 523.7211481231907 L 120.99999999999893 523.7211481231907 L 121.99999999999893 523.3925734990714 L 121.99999999999893 523.3925734990714 L 122.99999999999895 523.0569370859065 L 122.99999999999895 523.0569370859065 L 123.99999999999895 522.7140871103669 L 123.99999999999895 522.7140871103669 L 124.99999999999895 522.363868537182 L 124.99999999999895 522.363868537182 L 125.99999999999895 522.0061229990334 L 125.99999999999895 522.0061229990336 L 126.99999999999895 521.6406887249419 L 126.99999999999895 521.6406887249419 L 127.99999999999895 521.267400467115 L 127.99999999999895 521.267400467115 L 128.99999999999895 520.886089426223 L 128.99999999999895 520.886089426223 L 129.99999999999895 520.4965831750684 L 129.99999999999895 520.4965831750684 L 130.99999999999895 520.0987055806156 L 130.99999999999895 520.0987055806156 L 131.99999999999898 519.6922767243435 L 131.99999999999898 519.6922767243435 L 132.99999999999898 519.2771128208876 L 132.99999999999898 519.2771128208876 L 133.99999999999898 518.8530261349331 L 133.99999999999898 518.8530261349331 L 134.99999999999898 518.4198248963216 L 134.99999999999898 518.4198248963216 L 135.99999999999898 517.9773132133336 L 135.99999999999898 517.9773132133336 L 136.99999999999898 517.5252909841071 L 136.99999999999898 517.5252909841071 L 137.99999999999898 517.0635538061521 L 137.99999999999898 517.0635538061521 L 138.99999999999898 516.5918928839214 L 138.99999999999898 516.5918928839214 L 139.99999999999898 516.1100949343935 L 139.99999999999898 516.1100949343936 L 140.99999999999898 515.6179420906271 L 140.99999999999898 515.6179420906271 L 141.99999999999898 515.1152118032428 L 141.99999999999898 515.1152118032428 L 142.99999999999898 514.6016767397871 L 142.99999999999898 514.6016767397871 L 143.99999999999898 514.0771046819334 L 143.99999999999898 514.0771046819334 L 144.99999999999898 513.5412584204746 L 144.99999999999898 513.5412584204746 L 145.99999999999898 512.9938956480574 L 145.99999999999898 512.9938956480574 L 146.99999999999898 512.4347688496122 L 146.99999999999898 512.4347688496122 L 147.99999999999898 511.863625190428 L 147.99999999999898 511.8636251904281 L 148.99999999999898 511.28020640182166 L 148.99999999999898 511.28020640182166 L 149.99999999999898 510.68424866434947 L 149.99999999999898 510.6842486643495 L 150.99999999999898 510.0754824885098 L 150.99999999999898 510.0754824885098 L 151.99999999999898 509.4536325928806 L 151.99999999999898 509.45363259288064 L 152.99999999999898 508.81841777963865 L 152.99999999999898 508.81841777963865 L 153.99999999999898 508.16955080740286 L 153.99999999999898 508.1695508074029 L 154.99999999999898 507.50673826134533 L 154.99999999999898 507.50673826134533 L 155.99999999999898 506.82968042050993 L 155.99999999999898 506.82968042051 L 156.99999999999898 506.1380711222804 L 156.99999999999898 506.1380711222804 L 157.999999999999 505.43159762393424 L 157.999999999999 505.4315976239343 L 158.999999999999 504.7099404612226 L 158.999999999999 504.7099404612226 L 159.999999999999 503.9727733039091 L 159.999999999999 503.9727733039091 L 160.999999999999 503.2197628082055 L 160.999999999999 503.2197628082055 L 161.999999999999 502.45056846603444 L 161.999999999999 502.45056846603444 L 162.999999999999 501.66484245105363 L 162.999999999999 501.66484245105363 L 163.999999999999 500.86222946137 L 163.999999999999 500.86222946137 L 164.999999999999 500.0423665588739 L 164.999999999999 500.0423665588739 L 165.999999999999 499.2048830051198 L 165.999999999999 499.2048830051199 L 166.999999999999 498.3494000936806 L 166.999999999999 498.3494000936806 L 167.999999999999 497.47553097889715 L 167.999999999999 497.4755309788972 L 168.999999999999 496.5828805009496 L 168.999999999999 496.5828805009496 L 169.999999999999 495.6710450071668 L 169.999999999999 495.6710450071668 L 170.999999999999 494.73961216949687 L 170.999999999999 494.7396121694969 L 171.999999999999 493.7881607980541 L 171.999999999999 493.78816079805415 L 172.99999999999903 492.8162606506587 L 172.99999999999903 492.8162606506587 L 173.99999999999903 491.8234722382831 L 173.99999999999903 491.8234722382831 L 174.99999999999903 490.8093466263171 L 174.99999999999903 490.8093466263171 L 175.99999999999903 489.77342523156136 L 175.99999999999903 489.77342523156136 L 176.99999999999903 488.7152396148583 L 176.99999999999903 488.7152396148583 L 177.99999999999903 487.6343112692657 L 177.99999999999903 487.6343112692657 L 178.99999999999903 486.5301514036782 L 178.99999999999903 486.5301514036782 L 179.99999999999903 485.4022607217978 L 179.99999999999903 485.4022607217978 L 180.99999999999903 484.25012919635446 L 180.99999999999903 484.25012919635446 L 181.99999999999903 483.073235838474 L 181.99999999999903 483.07323583847403 L 182.99999999999903 481.871048462089 L 182.99999999999903 481.871048462089 L 183.99999999999903 480.6430234432866 L 183.99999999999903 480.64302344328667 L 184.99999999999903 479.38860547448445 L 184.99999999999903 479.3886054744845 L 185.99999999999903 478.1072273133226 L 185.99999999999903 478.1072273133226 L 186.99999999999903 476.79830952615913 L 186.99999999999903 476.7983095261592 L 187.99999999999903 475.46126022605296 L 187.99999999999903 475.461260226053 L 188.99999999999903 474.0954748051148 L 188.99999999999903 474.0954748051148 L 189.99999999999903 472.70033566110635 L 189.99999999999903 472.70033566110635 L 190.99999999999903 471.2752119181632 L 190.99999999999903 471.2752119181632 L 191.99999999999903 469.8194591415154 L 191.99999999999903 469.81945914151544 L 192.99999999999903 468.33241904607695 L 192.99999999999903 468.332419046077 L 193.99999999999903 466.8134191987722 L 193.99999999999903 466.8134191987722 L 194.99999999999906 465.2617727144642 L 194.99999999999906 465.2617727144642 L 195.99999999999906 463.67677794534876 L 195.99999999999906 463.6767779453488 L 196.99999999999906 462.05771816367195 L 196.99999999999906 462.05771816367195 L 197.99999999999906 460.403861237629 L 197.99999999999906 460.403861237629 L 198.99999999999906 458.7144593002975 L 198.99999999999906 458.7144593002975 L 199.99999999999906 456.9887484114554 L 199.99999999999906 456.9887484114554 L 200.99999999999906 455.22594821213016 L 200.99999999999906 455.22594821213016 L 201.99999999999906 453.42526157172426 L 201.99999999999906 453.4252615717243 L 202.99999999999906 451.58587422755596 L 202.99999999999906 451.585874227556 L 203.99999999999906 449.70695441665316 L 203.99999999999906 449.70695441665316 L 204.99999999999906 447.78765249963396 L 204.99999999999906 447.787652499634 L 205.99999999999906 445.82710057650354 L 205.99999999999906 445.82710057650354 L 206.99999999999906 443.8244120941931 L 206.99999999999906 443.8244120941932 L 207.99999999999906 441.77868144566503 L 207.99999999999906 441.7786814456651 L 208.99999999999906 439.6889835604007 L 208.99999999999906 439.68898356040074 L 209.99999999999906 437.5543734860881 L 209.99999999999906 437.5543734860881 L 210.99999999999906 435.37388596131814 L 210.99999999999906 435.3738859613182 L 211.99999999999906 433.146534979098 L 211.99999999999906 433.146534979098 L 212.99999999999906 430.8713133409827 L 212.99999999999906 430.87131334098274 L 213.99999999999906 428.5471922016244 L 213.99999999999906 428.54719220162445 L 214.99999999999906 426.17312060353333 L 214.99999999999906 426.1731206035334 L 215.99999999999906 423.7480250018389 L 215.99999999999906 423.748025001839 L 216.99999999999906 421.27080877883765 L 216.99999999999906 421.2708087788377 L 217.99999999999906 418.74035174810746 L 217.99999999999906 418.7403517481075 L 218.99999999999906 416.15550964796404 L 218.99999999999906 416.1555096479641 L 219.99999999999906 413.51511362403085 L 219.99999999999906 413.5151136240309 L 220.99999999999906 410.8179697006882 L 220.99999999999906 410.8179697006882 L 221.99999999999906 408.0628582411625 L 221.99999999999906 408.06285824116253 L 222.99999999999906 405.248533396012 L 222.99999999999906 405.2485333960121 L 223.99999999999906 402.3737225397592 L 223.99999999999906 402.3737225397593 L 224.99999999999906 399.43712569541475 L 224.99999999999906 399.4371256954148 L 225.99999999999906 396.4374149466337 L 225.99999999999906 396.4374149466338 L 226.99999999999906 393.37323383723765 L 226.99999999999906 393.3732338372377 L 227.99999999999906 390.2431967578309 L 227.99999999999906 390.24319675783096 L 228.99999999999906 387.045888319234 L 228.99999999999906 387.045888319234 L 229.99999999999906 383.7798627124509 L 229.99999999999906 383.77986271245095 L 230.99999999999906 380.4436430548805 L 230.99999999999906 380.44364305488057 L 231.99999999999906 377.0357207224765 L 231.99999999999906 377.03572072247664 L 232.99999999999906 373.5545546675546 L 232.99999999999906 373.5545546675546 L 233.99999999999906 369.99857072193674 L 233.99999999999906 369.99857072193674 L 234.99999999999906 366.3661608851197 L 234.99999999999906 366.3661608851197 L 235.99999999999906 362.65568259714405 L 235.99999999999906 362.6556825971441 L 236.99999999999906 358.86545799583564 L 236.99999999999906 358.8654579958357 L 237.99999999999906 354.9937731580835 L 237.99999999999906 354.9937731580836 L 238.9999999999991 351.03887732481166 L 238.9999999999991 351.03887732481166 L 239.9999999999991 346.9989821092928 L 239.9999999999991 346.9989821092928 L 240.9999999999991 342.87226068844814 L 240.9999999999991 342.8722606884482 L 241.9999999999991 338.6568469767659 L 241.9999999999991 338.65684697676596 L 242.9999999999991 334.3508347824653 L 242.9999999999991 334.3508347824653 L 243.9999999999991 329.9522769455249 L 243.9999999999991 329.952276945525 L 244.9999999999991 325.45918445718564 L 244.9999999999991 325.4591844571857 L 245.9999999999991 320.86952556052927 L 245.9999999999991 320.8695255605294 L 246.9999999999991 316.181224831727 L 246.9999999999991 316.1812248317271 L 247.9999999999991 311.3921622415418 L 247.9999999999991 311.3921622415419 L 248.9999999999991 306.5001721966604 L 248.9999999999991 306.50017219666046 L 249.9999999999991 301.503042560421 L 249.9999999999991 301.5030425604211 L 250.9999999999991 296.39851365249535 L 250.9999999999991 296.39851365249547 L 251.9999999999991 291.1842772270709 L 251.9999999999991 291.184277227071 L 252.9999999999991 285.85797542907136 L 252.9999999999991 285.8579754290715 L 253.9999999999991 280.417199727946 L 253.9999999999991 280.4171997279461 L 254.9999999999991 274.8594898285419 L 254.9999999999991 274.85948982854194 L 255.9999999999991 269.1823325585691 L 255.9999999999991 269.1823325585692 L 256.9999999999991 263.3831607321555 L 256.9999999999991 263.3831607321556 L 257.9999999999991 257.45935198897604 L 257.9999999999991 257.45935198897615 L 258.9999999999991 251.4082276084331 L 258.9999999999991 251.40822760843315 L 259.9999999999991 245.22705129835037 L 259.9999999999991 245.2270512983505 L 260.9999999999991 238.9130279576338 L 260.9999999999991 238.91302795763391 L 261.9999999999991 232.46330241233863 L 261.9999999999991 232.4633024123387 L 262.9999999999991 225.8749581245723 L 262.9999999999991 225.8749581245724 L 263.9999999999991 219.1450158736488 L 263.9999999999991 219.14501587364884 L 264.9999999999991 212.2704324088976 L 264.9999999999991 212.2704324088977 L 265.9999999999991 205.24809907351954 L 265.9999999999991 205.24809907351965 L 266.9999999999991 198.0748403988651 L 266.9999999999991 198.0748403988652 L 267.9999999999991 190.74741266850162 L 267.9999999999991 190.74741266850174 L 268.9999999999991 183.2625024514187 L 268.9999999999991 183.26250245141875 L 269.9999999999991 175.61672510370903 L 269.9999999999991 175.61672510370914 L 270.9999999999991 167.80662323804734 L 270.9999999999991 167.8066232380474 L 271.9999999999991 159.82866516027445 L 271.9999999999991 159.82866516027457 L 272.9999999999991 151.6792432723811 L 272.9999999999991 151.67924327238114 L 273.9999999999991 143.35467244116705 L 273.9999999999991 143.35467244116717 L 274.99999999999915 134.8511883318406 L 274.99999999999915 134.85118833184066 L 275.99999999999915 126.16494570580198 L 275.99999999999915 126.1649457058021 L 276.99999999999915 117.29201668184396 L 276.99999999999915 117.29201668184402 L 277.99999999999915 108.22838895998018 L 277.99999999999915 108.2283889599803 L 278.99999999999915 98.96996400710123 L 278.99999999999915 98.96996400710145 L 279.99999999999915 89.51255520363554 L 279.99999999999915 89.51255520363571 L 280.99999999999915 79.85188595037766 L 280.99999999999915 79.85188595037783 L 281.99999999999915 69.98358773462974 L 281.99999999999915 69.98358773462996 L 282.99999999999915 59.9031981547779 L 282.99999999999915 59.90319815477807 L 283.99999999999915 49.60615890241445 L 283.99999999999915 49.60615890241468 L 284.99999999999915 39.08781370109017 L 284.99999999999915 39.08781370109034 L 285.99999999999915 28.343406200766424 L 285.99999999999915 28.343406200766594 L 286.99999999999915 17.368077827014417 L 286.99999999999915 17.368077827014645 L 287.99999999999915 6.156865583988861 L 287.99999999999915 6.156865583988974 L 288.99999999999915 -5.295300189817453 L 288.99999999999915 -5.29530018981734 L 289.40216960113713 -10" stroke-opacity="0.8" stroke-linecap="round" stroke-linejoin="round" stroke-miterlimit="10" stroke-width="2.5"/><text fill="rgb(46,125,50)" stroke="none" font-family="geogebra-sans-serif, sans-serif" font-size="16px" font-style="normal" font-weight="normal" text-decoration="normal" x="8" y="537" text-anchor="start" dominant-baseline="alphabetic" fill-opacity="1">g</text><text fill="none" stroke="rgb(255,255,255)" font-family="geogebra-sans-serif, sans-serif" font-size="16px" font-style="normal" font-weight="normal" text-decoration="normal" x="8" y="537" text-anchor="start" dominant-baseline="alphabetic" stroke-opacity="1" stroke-linejoin="bevel" stroke-miterlimit="10" stroke-width="3">g</text><text fill="rgb(46,125,50)" stroke="none" font-family="geogebra-sans-serif, sans-serif" font-size="16px" font-style="normal" font-weight="normal" text-decoration="normal" x="8" y="537" text-anchor="start" dominant-baseline="alphabetic" fill-opacity="1">g</text><path fill="none" stroke="rgb(255,0,0)" paint-order="fill stroke markers" d=" M 213.06308963084234 105.87684434890878 L 278.25601130572227 105.87684434890878" stroke-opacity="0.6980392156862745" stroke-linecap="round" stroke-linejoin="round" stroke-miterlimit="10" stroke-width="4.5"/><path fill="rgb(255,0,0)" stroke="none" paint-order="stroke fill markers" d=" M 278.25601130572227 103.62684434890878 C 277.013370618603 103.62684434890878 276.00601130572227 104.63420366178948 276.00601130572227 105.87684434890878 L 276.00601130572227 533.5772600327205 L 270.84700156339204 528.4182502903902 C 270.40766173517187 527.97891046217 269.83183652044704 527.75924054806 269.25601130572227 527.75924054806 C 268.6801860909975 527.75924054806 268.10436087627266 527.97891046217 267.6650210480525 528.4182502903902 C 266.78634139161215 529.2969299468306 266.78634139161215 530.7215511492893 267.6650210480525 531.6002308057298 L 276.6650210480525 540.6002308057298 C 276.88089401942 540.8161037770973 277.1297189727278 540.9789413339932 277.3953047006303 541.0887434764177 L 277.39530345381564 541.0887434764177 C 277.66044384088605 541.1986078396519 277.95114680938224 541.25924054806 278.25601130572227 541.25924054806 C 278.5610170119172 541.25924054806 278.85184806830466 541.1985516578468 279.1170875714385 541.0885907808665 L 279.1170871522184 541.0885907808665 C 279.3825342644209 540.9787903904783 279.63122863702245 540.8160037320994 279.84700156339204 540.6002308057298 L 288.84700156339204 531.6002308057298 C 289.7256812198324 530.7215511492893 289.7256812198324 529.2969299468306 288.84700156339204 528.4182502903902 C 288.40766173517187 527.97891046217 287.83183652044704 527.75924054806 287.25601130572227 527.75924054806 C 286.6801860909975 527.75924054806 286.10436087627266 527.97891046217 285.6650210480525 528.4182502903902 L 280.50601130572227 533.5772600327205 L 280.50601130572227 105.87684434890878 C 280.50601130572227 104.63420366178948 279.49865199284153 103.62684434890878 278.25601130572227 103.62684434890878 Z" fill-opacity="0.8470588235294118"/><path fill="rgb(211,47,47)" stroke="none" paint-order="stroke fill markers" d=" M 214.06308963084234 105.87684434890878 C 214.06308963084234 106.42912909873957 213.61537438067313 106.87684434890878 213.06308963084234 106.87684434890878 C 212.51080488101155 106.87684434890878 212.06308963084234 106.42912909873957 212.06308963084234 105.87684434890878 C 212.06308963084234 105.32455959907799 212.51080488101155 104.87684434890878 213.06308963084234 104.87684434890878 C 213.61537438067313 104.87684434890878 214.06308963084234 105.32455959907799 214.06308963084234 105.87684434890878 Z" fill-opacity="1"/><path fill="none" stroke="rgb(0,0,0)" paint-order="fill stroke markers" d=" M 214.06308963084234 105.87684434890878 C 214.06308963084234 106.42912909873957 213.61537438067313 106.87684434890878 213.06308963084234 106.87684434890878 C 212.51080488101155 106.87684434890878 212.06308963084234 106.42912909873957 212.06308963084234 105.87684434890878 C 212.06308963084234 105.32455959907799 212.51080488101155 104.87684434890878 213.06308963084234 104.87684434890878 C 213.61537438067313 104.87684434890878 214.06308963084234 105.32455959907799 214.06308963084234 105.87684434890878 Z" stroke-opacity="1" stroke-linecap="round" stroke-linejoin="round" stroke-miterlimit="10"/><g transform="scale(19,19)"><g transform="translate(9.157894736842104,6.009789473684211)"><path fill="rgb(211,47,47)" stroke="none" paint-order="stroke fill markers" d=" M 0.23900000000000002 -0.683 L 0.165 -0.382 Q 0.223 -0.442 0.28200000000000003 -0.442 Q 0.357 -0.442 0.394 -0.373 Q 0.41500000000000004 -0.333 0.41500000000000004 -0.28200000000000003 Q 0.41500000000000004 -0.176 0.341 -0.084 Q 0.272 0.001 0.189 0.01 Q 0.181 0.011 0.17400000000000002 0.011 Q 0.10200000000000001 0.011 0.067 -0.056 Q 0.047 -0.094 0.047 -0.146 Q 0.047 -0.18 0.063 -0.247 L 0.145 -0.5730000000000001 Q 0.159 -0.632 0.159 -0.635 Q 0.159 -0.646 0.145 -0.649 L 0.145 -0.649 Q 0.133 -0.652 0.109 -0.652 Q 0.08700000000000001 -0.652 0.085 -0.664 Q 0.085 -0.681 0.10400000000000001 -0.684 L 0.226 -0.6940000000000001 Q 0.23900000000000002 -0.6940000000000001 0.23900000000000002 -0.683 M 0.145 -0.305 L 0.123 -0.213 Q 0.107 -0.15 0.107 -0.112 Q 0.107 -0.026000000000000002 0.159 -0.013000000000000001 Q 0.166 -0.011 0.17400000000000002 -0.011 Q 0.227 -0.011 0.273 -0.081 Q 0.28300000000000003 -0.096 0.292 -0.114 Q 0.319 -0.171 0.337 -0.268 Q 0.343 -0.303 0.343 -0.326 Q 0.343 -0.406 0.294 -0.418 L 0.293 -0.419 Q 0.28700000000000003 -0.42 0.28 -0.42 Q 0.22 -0.42 0.16 -0.34 Q 0.152 -0.33 0.145 -0.305 Z"/></g></g><path fill="rgb(211,47,47)" stroke="none" paint-order="stroke fill markers" d=" M 279.25601130572227 539.00924054806 C 279.25601130572227 539.5615252978909 278.80829605555306 540.00924054806 278.25601130572227 540.00924054806 C 277.7037265558915 540.00924054806 277.25601130572227 539.5615252978909 277.25601130572227 539.00924054806 C 277.25601130572227 538.4569557982292 277.7037265558915 538.00924054806 278.25601130572227 538.00924054806 C 278.80829605555306 538.00924054806 279.25601130572227 538.4569557982292 279.25601130572227 539.00924054806 Z" fill-opacity="1"/><path fill="none" stroke="rgb(0,0,0)" paint-order="fill stroke markers" d=" M 279.25601130572227 539.00924054806 C 279.25601130572227 539.5615252978909 278.80829605555306 540.00924054806 278.25601130572227 540.00924054806 C 277.7037265558915 540.00924054806 277.25601130572227 539.5615252978909 277.25601130572227 539.00924054806 C 277.25601130572227 538.4569557982292 277.7037265558915 538.00924054806 278.25601130572227 538.00924054806 C 278.80829605555306 538.00924054806 279.25601130572227 538.4569557982292 279.25601130572227 539.00924054806 Z" stroke-opacity="1" stroke-linecap="round" stroke-linejoin="round" stroke-miterlimit="10"/><g transform="scale(19,19)"><g transform="translate(13.631578947368421,30.430842105263157)"><path fill="rgb(211,47,47)" stroke="none" paint-order="stroke fill markers" d=" M 0.177 -0.6940000000000001 L 0.177 -0.076 Q 0.177 -0.042 0.193 -0.036000000000000004 Q 0.20400000000000001 -0.031 0.255 -0.031 L 0.255 0 L 0.14400000000000002 -0.003 Q 0.132 -0.003 0.033 0 L 0.033 -0.031 Q 0.092 -0.031 0.10200000000000001 -0.04 L 0.10400000000000001 -0.042 Q 0.111 -0.05 0.111 -0.076 L 0.111 -0.596 Q 0.111 -0.635 0.097 -0.644 L 0.096 -0.644 Q 0.085 -0.65 0.058 -0.652 L 0.033 -0.652 L 0.033 -0.683 L 0.177 -0.6940000000000001 Z"/></g><g transform="translate(13.909578947368422,30.430842105263157)"><path fill="rgb(211,47,47)" stroke="none" paint-order="stroke fill markers" d=" M 0.47100000000000003 -0.214 L 0.47100000000000003 -0.214 Q 0.47100000000000003 -0.111 0.395 -0.044 Q 0.332 0.011 0.249 0.011 Q 0.153 0.011 0.08700000000000001 -0.061 Q 0.028 -0.126 0.028 -0.214 Q 0.028 -0.316 0.101 -0.386 Q 0.164 -0.448 0.25 -0.448 Q 0.34700000000000003 -0.448 0.41300000000000003 -0.371 Q 0.47100000000000003 -0.304 0.47100000000000003 -0.214 M 0.25 -0.014 L 0.25 -0.014 Q 0.317 -0.014 0.356 -0.07 L 0.366 -0.088 Q 0.388 -0.132 0.388 -0.222 Q 0.388 -0.318 0.362 -0.361 Q 0.319 -0.423 0.249 -0.426 Q 0.187 -0.426 0.147 -0.376 Q 0.14 -0.368 0.135 -0.359 Q 0.111 -0.315 0.111 -0.222 Q 0.111 -0.125 0.136 -0.081 Q 0.178 -0.016 0.25 -0.014 Z"/></g><g transform="translate(14.409578947368422,30.430842105263157)"><path fill="rgb(211,47,47)" stroke="none" paint-order="stroke fill markers" d=" M 0.222 -0.17200000000000001 Q 0.266 -0.17200000000000001 0.293 -0.212 Q 0.309 -0.23900000000000002 0.309 -0.296 Q 0.305 -0.41600000000000004 0.222 -0.419 Q 0.178 -0.419 0.151 -0.379 Q 0.135 -0.352 0.135 -0.295 Q 0.139 -0.17500000000000002 0.222 -0.17200000000000001 M 0.123 -0.18 Q 0.106 -0.16 0.106 -0.133 Q 0.106 -0.092 0.138 -0.073 Q 0.148 -0.067 0.159 -0.066 Q 0.166 -0.065 0.234 -0.065 Q 0.337 -0.065 0.384 -0.047 Q 0.395 -0.043000000000000003 0.406 -0.037 Q 0.467 0.003 0.47100000000000003 0.077 Q 0.47100000000000003 0.14200000000000002 0.387 0.179 Q 0.327 0.20600000000000002 0.249 0.20600000000000002 Q 0.133 0.20600000000000002 0.068 0.152 Q 0.028 0.12 0.028 0.079 Q 0.028 0.029 0.079 -0.003 Q 0.097 -0.015 0.12 -0.021 Q 0.079 -0.053 0.076 -0.11 Q 0.076 -0.157 0.107 -0.193 Q 0.062 -0.23600000000000002 0.06 -0.296 Q 0.06 -0.365 0.12 -0.40900000000000003 Q 0.164 -0.442 0.222 -0.442 Q 0.28200000000000003 -0.442 0.328 -0.406 Q 0.376 -0.453 0.434 -0.453 Q 0.47300000000000003 -0.453 0.483 -0.417 Q 0.485 -0.41100000000000003 0.485 -0.404 Q 0.481 -0.378 0.456 -0.374 Q 0.434 -0.374 0.428 -0.395 Q 0.427 -0.399 0.427 -0.403 Q 0.427 -0.424 0.443 -0.43 Q 0.44 -0.431 0.433 -0.431 Q 0.384 -0.431 0.343 -0.392 Q 0.384 -0.354 0.384 -0.295 Q 0.384 -0.226 0.324 -0.182 Q 0.28 -0.149 0.222 -0.149 Q 0.166 -0.149 0.123 -0.18 M 0.25 0.183 L 0.25 0.183 Q 0.34500000000000003 0.183 0.394 0.133 Q 0.419 0.108 0.419 0.079 Q 0.419 0.005 0.301 -0.005 L 0.301 -0.005 L 0.3 -0.005 Q 0.274 -0.007 0.221 -0.007 L 0.162 -0.007 Q 0.115 -0.004 0.091 0.038 Q 0.08 0.057 0.08 0.079 Q 0.08 0.126 0.138 0.157 Q 0.185 0.183 0.25 0.183 Z"/></g><g transform="translate(15.090245614035087,30.430842105263157)"><path fill="rgb(211,47,47)" stroke="none" paint-order="stroke fill markers" d=" M 0.23900000000000002 -0.683 L 0.165 -0.382 Q 0.223 -0.442 0.28200000000000003 -0.442 Q 0.357 -0.442 0.394 -0.373 Q 0.41500000000000004 -0.333 0.41500000000000004 -0.28200000000000003 Q 0.41500000000000004 -0.176 0.341 -0.084 Q 0.272 0.001 0.189 0.01 Q 0.181 0.011 0.17400000000000002 0.011 Q 0.10200000000000001 0.011 0.067 -0.056 Q 0.047 -0.094 0.047 -0.146 Q 0.047 -0.18 0.063 -0.247 L 0.145 -0.5730000000000001 Q 0.159 -0.632 0.159 -0.635 Q 0.159 -0.646 0.145 -0.649 L 0.145 -0.649 Q 0.133 -0.652 0.109 -0.652 Q 0.08700000000000001 -0.652 0.085 -0.664 Q 0.085 -0.681 0.10400000000000001 -0.684 L 0.226 -0.6940000000000001 Q 0.23900000000000002 -0.6940000000000001 0.23900000000000002 -0.683 M 0.145 -0.305 L 0.123 -0.213 Q 0.107 -0.15 0.107 -0.112 Q 0.107 -0.026000000000000002 0.159 -0.013000000000000001 Q 0.166 -0.011 0.17400000000000002 -0.011 Q 0.227 -0.011 0.273 -0.081 Q 0.28300000000000003 -0.096 0.292 -0.114 Q 0.319 -0.171 0.337 -0.268 Q 0.343 -0.303 0.343 -0.326 Q 0.343 -0.406 0.294 -0.418 L 0.293 -0.419 Q 0.28700000000000003 -0.42 0.28 -0.42 Q 0.22 -0.42 0.16 -0.34 Q 0.152 -0.33 0.145 -0.305 Z"/></g></g></g></g></svg>