<?xml version="1.0" encoding="UTF-8" standalone="no"?>
<!DOCTYPE svg PUBLIC "-//W3C//DTD SVG 1.1//EN"
 "http://www.w3.org/Graphics/SVG/1.1/DTD/svg11.dtd">
<!-- Generated by graphviz version 2.40.1 (20161225.0304)
 -->
<!-- Title: G Pages: 1 -->
<svg width="264pt" height="219pt"
 viewBox="0.00 0.00 264.17 219.30" xmlns="http://www.w3.org/2000/svg" xmlns:xlink="http://www.w3.org/1999/xlink">
<g id="graph0" class="graph" transform="scale(1 1) rotate(0) translate(4 215.2999)">
<title>G</title>
<polygon fill="transparent" stroke="transparent" points="-4,4 -4,-215.2999 260.1745,-215.2999 260.1745,4 -4,4"/>
<!-- 1 -->
<g id="node1" class="node">
<title>1</title>
<ellipse fill="none" stroke="#000000" cx="63" cy="-115.3576" rx="18" ry="18"/>
<text text-anchor="middle" x="63" y="-111.6576" font-family="Times,serif" font-size="14.00" fill="#000000">1</text>
</g>
<!-- 2 -->
<g id="node2" class="node">
<title>2</title>
<ellipse fill="none" stroke="#000000" cx="18" cy="-193.2999" rx="18" ry="18"/>
<text text-anchor="middle" x="18" y="-189.5999" font-family="Times,serif" font-size="14.00" fill="#000000">2</text>
</g>
<!-- 1&#45;&gt;2 -->
<g id="edge1" class="edge">
<title>1&#45;&gt;2</title>
<path fill="none" stroke="#000000" d="M53.8936,-131.1304C47.6721,-141.9063 39.3026,-156.4027 32.2105,-168.6866"/>
<polygon fill="#000000" stroke="#000000" points="29.0618,-167.1403 27.0929,-177.5506 35.124,-170.6403 29.0618,-167.1403"/>
</g>
<!-- 3 -->
<g id="node3" class="node">
<title>3</title>
<ellipse fill="none" stroke="#000000" cx="140.3493" cy="-70.7" rx="18" ry="18"/>
<text text-anchor="middle" x="140.3493" y="-67" font-family="Times,serif" font-size="14.00" fill="#000000">3</text>
</g>
<!-- 1&#45;&gt;3 -->
<g id="edge2" class="edge">
<title>1&#45;&gt;3</title>
<path fill="none" stroke="#000000" d="M78.6528,-106.3205C89.3467,-100.1464 103.7328,-91.8405 115.9232,-84.8024"/>
<polygon fill="#000000" stroke="#000000" points="117.8095,-87.7548 124.7198,-79.7237 114.3095,-81.6926 117.8095,-87.7548"/>
</g>
<!-- 4 -->
<g id="node4" class="node">
<title>4</title>
<ellipse fill="none" stroke="#000000" cx="63" cy="-26.0423" rx="18" ry="18"/>
<text text-anchor="middle" x="63" y="-22.3423" font-family="Times,serif" font-size="14.00" fill="#000000">4</text>
</g>
<!-- 1&#45;&gt;4 -->
<g id="edge3" class="edge">
<title>1&#45;&gt;4</title>
<path fill="none" stroke="#000000" d="M63,-97.2833C63,-84.9351 63,-68.3235 63,-54.2472"/>
<polygon fill="#000000" stroke="#000000" points="66.5001,-54.0897 63,-44.0897 59.5001,-54.0898 66.5001,-54.0897"/>
</g>
<!-- 2&#45;&gt;2 -->
<g id="edge4" class="edge">
<title>2&#45;&gt;2</title>
<path fill="none" stroke="#000000" d="M35.0373,-199.6791C44.8579,-200.981 54,-198.8546 54,-193.2999 54,-189.8282 50.4289,-187.6957 45.3529,-186.9024"/>
<polygon fill="#000000" stroke="#000000" points="45.031,-183.4029 35.0373,-186.9207 45.0435,-190.4028 45.031,-183.4029"/>
</g>
<!-- 6 -->
<g id="node5" class="node">
<title>6</title>
<ellipse fill="none" stroke="#000000" cx="220.1745" cy="-18" rx="18" ry="18"/>
<text text-anchor="middle" x="220.1745" y="-14.3" font-family="Times,serif" font-size="14.00" fill="#000000">6</text>
</g>
<!-- 3&#45;&gt;6 -->
<g id="edge7" class="edge">
<title>3&#45;&gt;6</title>
<path fill="none" stroke="#000000" d="M157.9458,-65.5105C170.5978,-58.9781 187.5808,-48.0899 200.6426,-38.294"/>
<polygon fill="#000000" stroke="#000000" points="202.8673,-40.9973 208.5749,-32.0712 198.5467,-35.4898 202.8673,-40.9973"/>
</g>
<!-- 5 -->
<g id="node6" class="node">
<title>5</title>
<ellipse fill="none" stroke="#000000" cx="220.1745" cy="-123.4" rx="18" ry="18"/>
<text text-anchor="middle" x="220.1745" y="-119.7" font-family="Times,serif" font-size="14.00" fill="#000000">5</text>
</g>
<!-- 3&#45;&gt;5 -->
<g id="edge8" class="edge">
<title>3&#45;&gt;5</title>
<path fill="none" stroke="#000000" d="M152.0351,-84.8425C163.0131,-93.9104 179.6983,-105.2497 193.8384,-113.4123"/>
<polygon fill="#000000" stroke="#000000" points="192.2267,-116.5202 202.6774,-118.2618 195.5938,-110.3831 192.2267,-116.5202"/>
</g>
<!-- 4&#45;&gt;3 -->
<g id="edge5" class="edge">
<title>4&#45;&gt;3</title>
<path fill="none" stroke="#000000" d="M78.6528,-35.0795C89.3467,-41.2536 103.7328,-49.5594 115.9232,-56.5976"/>
<polygon fill="#000000" stroke="#000000" points="114.3095,-59.7073 124.7198,-61.6763 117.8095,-53.6451 114.3095,-59.7073"/>
</g>
<!-- 4&#45;&gt;4 -->
<g id="edge6" class="edge">
<title>4&#45;&gt;4</title>
<path fill="none" stroke="#000000" d="M80.0373,-32.4215C89.8579,-33.7234 99,-31.597 99,-26.0423 99,-22.5707 95.4289,-20.4382 90.3529,-19.6448"/>
<polygon fill="#000000" stroke="#000000" points="90.031,-16.1453 80.0373,-19.6631 90.0435,-23.1453 90.031,-16.1453"/>
</g>
<!-- 6&#45;&gt;3 -->
<g id="edge11" class="edge">
<title>6&#45;&gt;3</title>
<path fill="none" stroke="#000000" d="M202.578,-23.1895C189.926,-29.7219 172.9431,-40.61 159.8812,-50.4059"/>
<polygon fill="#000000" stroke="#000000" points="157.6565,-47.7027 151.9489,-56.6287 161.9771,-53.2102 157.6565,-47.7027"/>
</g>
<!-- 6&#45;&gt;6 -->
<g id="edge12" class="edge">
<title>6&#45;&gt;6</title>
<path fill="none" stroke="#000000" d="M237.2118,-24.3792C247.0324,-25.6811 256.1745,-23.5547 256.1745,-18 256.1745,-14.5283 252.6034,-12.3958 247.5274,-11.6025"/>
<polygon fill="#000000" stroke="#000000" points="247.2056,-8.1029 237.2118,-11.6208 247.218,-15.1029 247.2056,-8.1029"/>
</g>
<!-- 5&#45;&gt;3 -->
<g id="edge10" class="edge">
<title>5&#45;&gt;3</title>
<path fill="none" stroke="#000000" d="M208.4887,-109.2575C197.5107,-100.1895 180.8255,-88.8503 166.6854,-80.6876"/>
<polygon fill="#000000" stroke="#000000" points="168.2971,-77.5798 157.8464,-75.8382 164.9301,-83.7168 168.2971,-77.5798"/>
</g>
<!-- 5&#45;&gt;5 -->
<g id="edge9" class="edge">
<title>5&#45;&gt;5</title>
<path fill="none" stroke="#000000" d="M237.2118,-129.7792C247.0324,-131.081 256.1745,-128.9546 256.1745,-123.4 256.1745,-119.9283 252.6034,-117.7958 247.5274,-117.0024"/>
<polygon fill="#000000" stroke="#000000" points="247.2056,-113.5029 237.2118,-117.0207 247.218,-120.5029 247.2056,-113.5029"/>
</g>
</g>
</svg>
