<?xml version="1.0" encoding="UTF-8" standalone="no"?>
<!DOCTYPE svg PUBLIC "-//W3C//DTD SVG 1.1//EN"
 "http://www.w3.org/Graphics/SVG/1.1/DTD/svg11.dtd">
<!-- Generated by graphviz version 2.40.1 (20161225.0304)
 -->
<!-- Title: G Pages: 1 -->
<svg width="152pt" height="139pt"
 viewBox="0.00 0.00 152.20 139.40" xmlns="http://www.w3.org/2000/svg" xmlns:xlink="http://www.w3.org/1999/xlink">
<g id="graph0" class="graph" transform="scale(1 1) rotate(0) translate(4 135.3968)">
<title>G</title>
<polygon fill="transparent" stroke="transparent" points="-4,4 -4,-135.3968 148.1984,-135.3968 148.1984,4 -4,4"/>
<!-- A -->
<g id="node1" class="node">
<title>A</title>
<ellipse fill="none" stroke="#000000" cx="18.1984" cy="-113.3968" rx="18" ry="18"/>
<text text-anchor="middle" x="18.1984" y="-109.6968" font-family="Times,serif" font-size="14.00" fill="#000000">A</text>
</g>
<!-- B -->
<g id="node2" class="node">
<title>B</title>
<ellipse fill="none" stroke="#000000" cx="126.1984" cy="-113.3968" rx="18" ry="18"/>
<text text-anchor="middle" x="126.1984" y="-109.6968" font-family="Times,serif" font-size="14.00" fill="#000000">B</text>
</g>
<!-- A&#45;&gt;B -->
<g id="edge1" class="edge">
<title>A&#45;&gt;B</title>
<path fill="none" stroke="#000000" d="M36.339,-113.3968C56.8513,-113.3968 77.3637,-113.3968 97.876,-113.3968"/>
<polygon fill="#000000" stroke="#000000" points="97.9457,-116.8969 107.9457,-113.3968 97.9457,-109.8969 97.9457,-116.8969"/>
</g>
<!-- C -->
<g id="node3" class="node">
<title>C</title>
<ellipse fill="none" stroke="#000000" cx="126.1984" cy="-18.1984" rx="18" ry="18"/>
<text text-anchor="middle" x="126.1984" y="-14.4984" font-family="Times,serif" font-size="14.00" fill="#000000">C</text>
</g>
<!-- A&#45;&gt;C -->
<g id="edge2" class="edge">
<title>A&#45;&gt;C</title>
<path fill="none" stroke="#000000" d="M31.8767,-101.3398C50.2976,-85.1024 83.2628,-56.0446 104.9328,-36.9432"/>
<polygon fill="#000000" stroke="#000000" points="107.4438,-39.3955 112.6312,-30.1574 102.8151,-34.1443 107.4438,-39.3955"/>
</g>
<!-- D -->
<g id="node4" class="node">
<title>D</title>
<ellipse fill="none" stroke="#000000" cx="18.1984" cy="-18.1984" rx="18.399" ry="18.399"/>
<text text-anchor="middle" x="18.1984" y="-14.4984" font-family="Times,serif" font-size="14.00" fill="#000000">D</text>
</g>
<!-- A&#45;&gt;D -->
<g id="edge3" class="edge">
<title>A&#45;&gt;D</title>
<path fill="none" stroke="#000000" d="M18.1984,-95.0416C18.1984,-81.3449 18.1984,-62.3737 18.1984,-46.7086"/>
<polygon fill="#000000" stroke="#000000" points="21.6985,-46.4972 18.1984,-36.4972 14.6985,-46.4973 21.6985,-46.4972"/>
</g>
<!-- B&#45;&gt;C -->
<g id="edge4" class="edge">
<title>B&#45;&gt;C</title>
<path fill="none" stroke="#000000" d="M126.1984,-95.0416C126.1984,-81.3449 126.1984,-62.3737 126.1984,-46.7086"/>
<polygon fill="#000000" stroke="#000000" points="129.6985,-46.4972 126.1984,-36.4972 122.6985,-46.4973 129.6985,-46.4972"/>
</g>
<!-- B&#45;&gt;D -->
<g id="edge5" class="edge">
<title>B&#45;&gt;D</title>
<path fill="none" stroke="#000000" d="M112.5201,-101.3398C94.1998,-85.1911 61.4938,-56.3618 39.8202,-37.2573"/>
<polygon fill="#000000" stroke="#000000" points="41.9228,-34.445 32.1067,-30.4581 37.2941,-39.6962 41.9228,-34.445"/>
</g>
<!-- D&#45;&gt;C -->
<g id="edge6" class="edge">
<title>D&#45;&gt;C</title>
<path fill="none" stroke="#000000" d="M36.7609,-18.1984C57.1769,-18.1984 77.5929,-18.1984 98.009,-18.1984"/>
<polygon fill="#000000" stroke="#000000" points="98.0314,-21.6985 108.0314,-18.1984 98.0314,-14.6985 98.0314,-21.6985"/>
</g>
</g>
</svg>
