<?xml version="1.0" encoding="UTF-8" standalone="no"?>
<!DOCTYPE svg PUBLIC "-//W3C//DTD SVG 1.1//EN"
 "http://www.w3.org/Graphics/SVG/1.1/DTD/svg11.dtd">
<!-- Generated by graphviz version 2.40.1 (20161225.0304)
 -->
<!-- Title: G Pages: 1 -->
<svg width="98pt" height="353pt"
 viewBox="0.00 0.00 98.00 353.00" xmlns="http://www.w3.org/2000/svg" xmlns:xlink="http://www.w3.org/1999/xlink">
<g id="graph0" class="graph" transform="scale(1 1) rotate(0) translate(4 349)">
<title>G</title>
<polygon fill="transparent" stroke="transparent" points="-4,4 -4,-349 94,-349 94,4 -4,4"/>
<!-- 1 -->
<g id="node1" class="node">
<title>1</title>
<ellipse fill="none" stroke="#000000" cx="44" cy="-327" rx="18" ry="18"/>
<text text-anchor="middle" x="44" y="-323.3" font-family="Times,serif" font-size="14.00" fill="#000000">1</text>
</g>
<!-- 2 -->
<g id="node2" class="node">
<title>2</title>
<ellipse fill="none" stroke="#000000" cx="44" cy="-224" rx="18" ry="18"/>
<text text-anchor="middle" x="44" y="-220.3" font-family="Times,serif" font-size="14.00" fill="#000000">2</text>
</g>
<!-- 1&#45;&gt;2 -->
<g id="edge1" class="edge">
<title>1&#45;&gt;2</title>
<path fill="none" stroke="#000000" d="M37.9485,-309.7904C34.5288,-298.0688 31.2559,-282.1678 33,-268 33.6683,-262.571 34.784,-256.8484 36.0549,-251.3914"/>
<polygon fill="#000000" stroke="#000000" points="39.5305,-251.9267 38.6136,-241.3716 32.7481,-250.1947 39.5305,-251.9267"/>
<text text-anchor="middle" x="37" y="-271.8" font-family="Times,serif" font-size="14.00" fill="#000000">s</text>
</g>
<!-- 2&#45;&gt;1 -->
<g id="edge2" class="edge">
<title>2&#45;&gt;1</title>
<path fill="none" stroke="#000000" d="M47.8925,-241.838C48.3522,-244.56 48.7471,-247.346 49,-250 50.8896,-269.8321 51.1184,-276.7688 48.9346,-299.0193"/>
<polygon fill="#000000" stroke="#000000" points="45.4329,-298.8566 47.8925,-309.162 52.3963,-299.5721 45.4329,-298.8566"/>
<text text-anchor="middle" x="55" y="-271.8" font-family="Times,serif" font-size="14.00" fill="#000000">u</text>
</g>
<!-- 2&#45;&gt;2 -->
<g id="edge4" class="edge">
<title>2:e&#45;&gt;2</title>
<path fill="none" stroke="#000000" d="M62,-224C68,-230.5 80,-230.5 80,-224 80,-221.5244 76.5187,-219.9917 71.5449,-219.4018"/>
<polygon fill="#000000" stroke="#000000" points="71.4249,-215.9013 61.4099,-219.3583 71.3947,-222.9013 71.4249,-215.9013"/>
<text text-anchor="middle" x="85" y="-220.3" font-family="Times,serif" font-size="14.00" fill="#000000">p</text>
</g>
<!-- 2&#45;&gt;2 -->
<g id="edge5" class="edge">
<title>2:w&#45;&gt;2</title>
<path fill="none" stroke="#000000" d="M26,-224C20,-230.5 8,-230.5 8,-224 8,-221.5244 11.4813,-219.9917 16.4551,-219.4018"/>
<polygon fill="#000000" stroke="#000000" points="16.6053,-222.9013 26.5901,-219.3583 16.5751,-215.9013 16.6053,-222.9013"/>
<text text-anchor="middle" x="4" y="-220.3" font-family="Times,serif" font-size="14.00" fill="#000000">c</text>
</g>
<!-- 3 -->
<g id="node3" class="node">
<title>3</title>
<ellipse fill="none" stroke="#000000" cx="44" cy="-121" rx="18" ry="18"/>
<text text-anchor="middle" x="44" y="-117.3" font-family="Times,serif" font-size="14.00" fill="#000000">3</text>
</g>
<!-- 2&#45;&gt;3 -->
<g id="edge3" class="edge">
<title>2&#45;&gt;3</title>
<path fill="none" stroke="#000000" d="M44,-205.5857C44,-189.9868 44,-167.365 44,-149.4401"/>
<polygon fill="#000000" stroke="#000000" points="47.5001,-149.2549 44,-139.2549 40.5001,-149.2549 47.5001,-149.2549"/>
<text text-anchor="middle" x="48.5" y="-168.8" font-family="Times,serif" font-size="14.00" fill="#000000">e</text>
</g>
<!-- 3&#45;&gt;3 -->
<g id="edge6" class="edge">
<title>3&#45;&gt;3</title>
<path fill="none" stroke="#000000" d="M61.4099,-125.6417C71.0879,-126.5082 80,-124.9609 80,-121 80,-118.5244 76.5187,-116.9917 71.5449,-116.4018"/>
<polygon fill="#000000" stroke="#000000" points="71.4249,-112.9013 61.4099,-116.3583 71.3947,-119.9013 71.4249,-112.9013"/>
<text text-anchor="middle" x="85" y="-117.3" font-family="Times,serif" font-size="14.00" fill="#000000">n</text>
</g>
<!-- 4 -->
<g id="node4" class="node">
<title>4</title>
<ellipse fill="none" stroke="#000000" cx="44" cy="-18" rx="18" ry="18"/>
<text text-anchor="middle" x="44" y="-14.3" font-family="Times,serif" font-size="14.00" fill="#000000">4</text>
</g>
<!-- 3&#45;&gt;4 -->
<g id="edge7" class="edge">
<title>3&#45;&gt;4</title>
<path fill="none" stroke="#000000" d="M44,-102.5857C44,-86.9868 44,-64.365 44,-46.4401"/>
<polygon fill="#000000" stroke="#000000" points="47.5001,-46.2549 44,-36.2549 40.5001,-46.2549 47.5001,-46.2549"/>
<text text-anchor="middle" x="48" y="-65.8" font-family="Times,serif" font-size="14.00" fill="#000000">s</text>
</g>
</g>
</svg>
