<?xml version="1.0" encoding="UTF-8" standalone="no"?>
<!DOCTYPE svg PUBLIC "-//W3C//DTD SVG 1.1//EN"
 "http://www.w3.org/Graphics/SVG/1.1/DTD/svg11.dtd">
<!-- Generated by graphviz version 2.40.1 (20161225.0304)
 -->
<!-- Title: probability_tree Pages: 1 -->
<svg width="404pt" height="157pt"
 viewBox="0.00 0.00 403.72 157.00" xmlns="http://www.w3.org/2000/svg" xmlns:xlink="http://www.w3.org/1999/xlink">
<g id="graph0" class="graph" transform="scale(1 1) rotate(0) translate(4 153)">
<title>probability_tree</title>
<polygon fill="#ffffff" stroke="transparent" points="-4,4 -4,-153 399.72,-153 399.72,4 -4,4"/>
<!-- Univers -->
<g id="node1" class="node">
<title>Univers</title>
<ellipse fill="#000000" stroke="#000000" cx=".36" cy="-75.5" rx=".36" ry=".36"/>
</g>
<!-- Rouge -->
<g id="node2" class="node">
<title>Rouge</title>
<text text-anchor="middle" x="74.22" y="-98.8" font-family="Times,serif" font-size="14.00" fill="#000000">R</text>
</g>
<!-- Univers&#45;&#45;Rouge -->
<g id="edge1" class="edge">
<title>Univers&#45;&#45;Rouge</title>
<path fill="none" stroke="#000000" d="M.8317,-75.6724C5.3038,-77.3072 40.5099,-90.1771 60.4898,-97.4808"/>
<text text-anchor="middle" x="30.22" y="-94.3" font-family="Times,serif" font-size="14.00" fill="#000000">1/3</text>
</g>
<!-- Noir -->
<g id="node3" class="node">
<title>Noir</title>
<text text-anchor="middle" x="74.22" y="-44.8" font-family="Times,serif" font-size="14.00" fill="#000000">N</text>
</g>
<!-- Univers&#45;&#45;Noir -->
<g id="edge2" class="edge">
<title>Univers&#45;&#45;Noir</title>
<path fill="none" stroke="#000000" d="M.7841,-75.1479C2.7173,-73.5598 10.9365,-66.9893 18.72,-63.5 32.0174,-57.5389 48.1992,-53.4983 59.6503,-51.1266"/>
<text text-anchor="middle" x="30.22" y="-67.3" font-family="Times,serif" font-size="14.00" fill="#000000">2/3</text>
</g>
<!-- V1 -->
<g id="node4" class="node">
<title>V1</title>
<text text-anchor="middle" x="271.72" y="-133.8" font-family="Times,serif" font-size="14.00" fill="#000000">V &#160;: Boule rouge marquée d&#39;un V</text>
</g>
<!-- Rouge&#45;&#45;V1 -->
<g id="edge3" class="edge">
<title>Rouge&#45;&#45;V1</title>
<path fill="none" stroke="#000000" d="M87.8822,-108.8413C93.5954,-111.2608 100.3716,-113.8348 106.72,-115.5 122.7934,-119.7162 139.9704,-123.1482 156.9444,-125.9358"/>
<text text-anchor="middle" x="118.22" y="-124.3" font-family="Times,serif" font-size="14.00" fill="#000000">1/2</text>
</g>
<!-- nV1 -->
<g id="node6" class="node">
<title>nV1</title>
<text text-anchor="middle" x="271.72" y="-92.8" font-family="Times,serif" font-size="14.00" fill="#000000">P &#160;: Boule rouge non marquée</text>
</g>
<!-- Rouge&#45;&#45;nV1 -->
<g id="edge4" class="edge">
<title>Rouge&#45;&#45;nV1</title>
<path fill="none" stroke="#000000" d="M87.813,-101.5504C93.6332,-101.1731 100.5074,-100.7664 106.72,-100.5 123.0379,-99.8004 140.2693,-99.214 157.1983,-98.7251"/>
<text text-anchor="middle" x="118.22" y="-104.3" font-family="Times,serif" font-size="14.00" fill="#000000">1/2</text>
</g>
<!-- V2 -->
<g id="node5" class="node">
<title>V2</title>
<text text-anchor="middle" x="271.72" y="-48.8" font-family="Times,serif" font-size="14.00" fill="#000000">V &#160;: Boule noire marquée d&#39;un V</text>
</g>
<!-- Noir&#45;&#45;V2 -->
<g id="edge5" class="edge">
<title>Noir&#45;&#45;V2</title>
<path fill="none" stroke="#000000" d="M88.7426,-48.7941C102.7286,-49.0774 125.3423,-49.5354 149.9774,-50.0343"/>
<text text-anchor="middle" x="118.22" y="-53.3" font-family="Times,serif" font-size="14.00" fill="#000000">2/3</text>
</g>
<!-- nV2 -->
<g id="node7" class="node">
<title>nV2</title>
<text text-anchor="middle" x="271.72" y="-7.8" font-family="Times,serif" font-size="14.00" fill="#000000">P &#160;: Boule noire non marquée</text>
</g>
<!-- Noir&#45;&#45;nV2 -->
<g id="edge6" class="edge">
<title>Noir&#45;&#45;nV2</title>
<path fill="none" stroke="#000000" d="M88.803,-38.2149C94.1968,-34.8961 100.5136,-31.5488 106.72,-29.5 123.4117,-23.9899 141.5171,-20.0837 159.4148,-17.33"/>
<text text-anchor="middle" x="118.22" y="-33.3" font-family="Times,serif" font-size="14.00" fill="#000000">1/3</text>
</g>
</g>
</svg>
