<svg version="1.1" xmlns="http://www.w3.org/2000/svg" xmlns:xlink="http://www.w3.org/1999/xlink" width="596" height="298"><defs><clipPath id="MNaLeXvbwDiK"><path fill="none" stroke="none" d=" M 0 0 L 596 0 L 596 298 L 0 298 L 0 0 Z"/></clipPath></defs><g transform="scale(1,1)" clip-path="url(#MNaLeXvbwDiK)"><g><rect fill="rgb(255,255,255)" stroke="none" x="0" y="0" width="596" height="298" fill-opacity="1"/><path fill="none" stroke="rgb(192,192,192)" paint-order="fill stroke markers" d=" M 36.5 0.5 L 36.5 298.5 M 36.5 0.5 L 36.5 298.5 M 86.5 0.5 L 86.5 298.5 M 186.5 0.5 L 186.5 298.5 M 236.5 0.5 L 236.5 298.5 M 286.5 0.5 L 286.5 298.5 M 336.5 0.5 L 336.5 298.5 M 386.5 0.5 L 386.5 298.5 M 436.5 0.5 L 436.5 298.5 M 486.5 0.5 L 486.5 298.5 M 536.5 0.5 L 536.5 298.5 M 586.5 0.5 L 586.5 298.5" stroke-opacity="1" stroke-linecap="round" stroke-linejoin="round" stroke-miterlimit="10"/><path fill="none" stroke="rgb(192,192,192)" paint-order="fill stroke markers" d=" M 6.5 0.5 L 6.5 298.5 M 16.5 0.5 L 16.5 298.5 M 26.5 0.5 L 26.5 298.5 M 46.5 0.5 L 46.5 298.5 M 56.5 0.5 L 56.5 298.5 M 66.5 0.5 L 66.5 298.5 M 76.5 0.5 L 76.5 298.5 M 96.5 0.5 L 96.5 298.5 M 106.5 0.5 L 106.5 298.5 M 116.5 0.5 L 116.5 298.5 M 126.5 0.5 L 126.5 298.5 M 146.5 0.5 L 146.5 298.5 M 156.5 0.5 L 156.5 298.5 M 166.5 0.5 L 166.5 298.5 M 176.5 0.5 L 176.5 298.5 M 196.5 0.5 L 196.5 298.5 M 206.5 0.5 L 206.5 298.5 M 216.5 0.5 L 216.5 298.5 M 226.5 0.5 L 226.5 298.5 M 246.5 0.5 L 246.5 298.5 M 256.5 0.5 L 256.5 298.5 M 266.5 0.5 L 266.5 298.5 M 276.5 0.5 L 276.5 298.5 M 296.5 0.5 L 296.5 298.5 M 306.5 0.5 L 306.5 298.5 M 316.5 0.5 L 316.5 298.5 M 326.5 0.5 L 326.5 298.5 M 346.5 0.5 L 346.5 298.5 M 356.5 0.5 L 356.5 298.5 M 366.5 0.5 L 366.5 298.5 M 376.5 0.5 L 376.5 298.5 M 396.5 0.5 L 396.5 298.5 M 406.5 0.5 L 406.5 298.5 M 416.5 0.5 L 416.5 298.5 M 426.5 0.5 L 426.5 298.5 M 446.5 0.5 L 446.5 298.5 M 456.5 0.5 L 456.5 298.5 M 466.5 0.5 L 466.5 298.5 M 476.5 0.5 L 476.5 298.5 M 496.5 0.5 L 496.5 298.5 M 506.5 0.5 L 506.5 298.5 M 516.5 0.5 L 516.5 298.5 M 526.5 0.5 L 526.5 298.5 M 546.5 0.5 L 546.5 298.5 M 556.5 0.5 L 556.5 298.5 M 566.5 0.5 L 566.5 298.5 M 576.5 0.5 L 576.5 298.5" stroke-opacity="0.23529411764705882" stroke-linecap="round" stroke-linejoin="round" stroke-miterlimit="10"/><path fill="none" stroke="rgb(192,192,192)" paint-order="fill stroke markers" d=" M 0.5 14.5 L 596.5 14.5 M 0.5 14.5 L 596.5 14.5 M 0.5 64.5 L 596.5 64.5 M 0.5 114.5 L 596.5 114.5 M 0.5 214.5 L 596.5 214.5 M 0.5 264.5 L 596.5 264.5" stroke-opacity="1" stroke-linecap="round" stroke-linejoin="round" stroke-miterlimit="10"/><path fill="none" stroke="rgb(192,192,192)" paint-order="fill stroke markers" d=" M 0.5 4.5 L 596.5 4.5 M 0.5 4.5 L 596.5 4.5 M 0.5 24.5 L 596.5 24.5 M 0.5 34.5 L 596.5 34.5 M 0.5 44.5 L 596.5 44.5 M 0.5 54.5 L 596.5 54.5 M 0.5 74.5 L 596.5 74.5 M 0.5 84.5 L 596.5 84.5 M 0.5 94.5 L 596.5 94.5 M 0.5 104.5 L 596.5 104.5 M 0.5 124.5 L 596.5 124.5 M 0.5 134.5 L 596.5 134.5 M 0.5 144.5 L 596.5 144.5 M 0.5 154.5 L 596.5 154.5 M 0.5 174.5 L 596.5 174.5 M 0.5 184.5 L 596.5 184.5 M 0.5 194.5 L 596.5 194.5 M 0.5 204.5 L 596.5 204.5 M 0.5 224.5 L 596.5 224.5 M 0.5 234.5 L 596.5 234.5 M 0.5 244.5 L 596.5 244.5 M 0.5 254.5 L 596.5 254.5 M 0.5 274.5 L 596.5 274.5 M 0.5 284.5 L 596.5 284.5 M 0.5 294.5 L 596.5 294.5" stroke-opacity="0.23529411764705882" stroke-linecap="round" stroke-linejoin="round" stroke-miterlimit="10"/><path fill="none" stroke="rgb(0,0,0)" paint-order="fill stroke markers" d=" M 136.5 2.5 L 136.5 298.5" stroke-opacity="1" stroke-miterlimit="10"/><path fill="none" stroke="rgb(0,0,0)" paint-order="fill stroke markers" d=" M 136.5 1.5 L 132.5 5.5" stroke-opacity="1" stroke-miterlimit="10"/><path fill="none" stroke="rgb(0,0,0)" paint-order="fill stroke markers" d=" M 136.5 1.5 L 140.5 5.5" stroke-opacity="1" stroke-miterlimit="10"/><path fill="none" stroke="rgb(0,0,0)" paint-order="fill stroke markers" d=" M 0.5 164.5 L 594.5 164.5" stroke-opacity="1" stroke-miterlimit="10"/><path fill="none" stroke="rgb(0,0,0)" paint-order="fill stroke markers" d=" M 595.5 164.5 L 591.5 160.5" stroke-opacity="1" stroke-miterlimit="10"/><path fill="none" stroke="rgb(0,0,0)" paint-order="fill stroke markers" d=" M 595.5 164.5 L 591.5 168.5" stroke-opacity="1" stroke-miterlimit="10"/><text fill="rgb(0,0,0)" stroke="none" font-family="geogebra-sans-serif, sans-serif" font-size="12px" font-style="normal" font-weight="normal" text-decoration="normal" x="31" y="180" text-anchor="start" dominant-baseline="alphabetic" fill-opacity="1">–4</text><text fill="none" stroke="rgb(255,255,255)" font-family="geogebra-sans-serif, sans-serif" font-size="12px" font-style="normal" font-weight="normal" text-decoration="normal" x="31" y="180" text-anchor="start" dominant-baseline="alphabetic" stroke-opacity="1" stroke-linejoin="bevel" stroke-miterlimit="10" stroke-width="3">–4</text><text fill="rgb(0,0,0)" stroke="none" font-family="geogebra-sans-serif, sans-serif" font-size="12px" font-style="normal" font-weight="normal" text-decoration="normal" x="31" y="180" text-anchor="start" dominant-baseline="alphabetic" fill-opacity="1">–4</text><text fill="rgb(0,0,0)" stroke="none" font-family="geogebra-sans-serif, sans-serif" font-size="12px" font-style="normal" font-weight="normal" text-decoration="normal" x="81" y="180" text-anchor="start" dominant-baseline="alphabetic" fill-opacity="1">–2</text><text fill="none" stroke="rgb(255,255,255)" font-family="geogebra-sans-serif, sans-serif" font-size="12px" font-style="normal" font-weight="normal" text-decoration="normal" x="81" y="180" text-anchor="start" dominant-baseline="alphabetic" stroke-opacity="1" stroke-linejoin="bevel" stroke-miterlimit="10" stroke-width="3">–2</text><text fill="rgb(0,0,0)" stroke="none" font-family="geogebra-sans-serif, sans-serif" font-size="12px" font-style="normal" font-weight="normal" text-decoration="normal" x="81" y="180" text-anchor="start" dominant-baseline="alphabetic" fill-opacity="1">–2</text><text fill="rgb(0,0,0)" stroke="none" font-family="geogebra-sans-serif, sans-serif" font-size="12px" font-style="normal" font-weight="normal" text-decoration="normal" x="184" y="180" text-anchor="start" dominant-baseline="alphabetic" fill-opacity="1">2</text><text fill="none" stroke="rgb(255,255,255)" font-family="geogebra-sans-serif, sans-serif" font-size="12px" font-style="normal" font-weight="normal" text-decoration="normal" x="184" y="180" text-anchor="start" dominant-baseline="alphabetic" stroke-opacity="1" stroke-linejoin="bevel" stroke-miterlimit="10" stroke-width="3">2</text><text fill="rgb(0,0,0)" stroke="none" font-family="geogebra-sans-serif, sans-serif" font-size="12px" font-style="normal" font-weight="normal" text-decoration="normal" x="184" y="180" text-anchor="start" dominant-baseline="alphabetic" fill-opacity="1">2</text><text fill="rgb(0,0,0)" stroke="none" font-family="geogebra-sans-serif, sans-serif" font-size="12px" font-style="normal" font-weight="normal" text-decoration="normal" x="234" y="180" text-anchor="start" dominant-baseline="alphabetic" fill-opacity="1">4</text><text fill="none" stroke="rgb(255,255,255)" font-family="geogebra-sans-serif, sans-serif" font-size="12px" font-style="normal" font-weight="normal" text-decoration="normal" x="234" y="180" text-anchor="start" dominant-baseline="alphabetic" stroke-opacity="1" stroke-linejoin="bevel" stroke-miterlimit="10" stroke-width="3">4</text><text fill="rgb(0,0,0)" stroke="none" font-family="geogebra-sans-serif, sans-serif" font-size="12px" font-style="normal" font-weight="normal" text-decoration="normal" x="234" y="180" text-anchor="start" dominant-baseline="alphabetic" fill-opacity="1">4</text><text fill="rgb(0,0,0)" stroke="none" font-family="geogebra-sans-serif, sans-serif" font-size="12px" font-style="normal" font-weight="normal" text-decoration="normal" x="284" y="180" text-anchor="start" dominant-baseline="alphabetic" fill-opacity="1">6</text><text fill="none" stroke="rgb(255,255,255)" font-family="geogebra-sans-serif, sans-serif" font-size="12px" font-style="normal" font-weight="normal" text-decoration="normal" x="284" y="180" text-anchor="start" dominant-baseline="alphabetic" stroke-opacity="1" stroke-linejoin="bevel" stroke-miterlimit="10" stroke-width="3">6</text><text fill="rgb(0,0,0)" stroke="none" font-family="geogebra-sans-serif, sans-serif" font-size="12px" font-style="normal" font-weight="normal" text-decoration="normal" x="284" y="180" text-anchor="start" dominant-baseline="alphabetic" fill-opacity="1">6</text><text fill="rgb(0,0,0)" stroke="none" font-family="geogebra-sans-serif, sans-serif" font-size="12px" font-style="normal" font-weight="normal" text-decoration="normal" x="334" y="180" text-anchor="start" dominant-baseline="alphabetic" fill-opacity="1">8</text><text fill="none" stroke="rgb(255,255,255)" font-family="geogebra-sans-serif, sans-serif" font-size="12px" font-style="normal" font-weight="normal" text-decoration="normal" x="334" y="180" text-anchor="start" dominant-baseline="alphabetic" stroke-opacity="1" stroke-linejoin="bevel" stroke-miterlimit="10" stroke-width="3">8</text><text fill="rgb(0,0,0)" stroke="none" font-family="geogebra-sans-serif, sans-serif" font-size="12px" font-style="normal" font-weight="normal" text-decoration="normal" x="334" y="180" text-anchor="start" dominant-baseline="alphabetic" fill-opacity="1">8</text><text fill="rgb(0,0,0)" stroke="none" font-family="geogebra-sans-serif, sans-serif" font-size="12px" font-style="normal" font-weight="normal" text-decoration="normal" x="381" y="180" text-anchor="start" dominant-baseline="alphabetic" fill-opacity="1">10</text><text fill="none" stroke="rgb(255,255,255)" font-family="geogebra-sans-serif, sans-serif" font-size="12px" font-style="normal" font-weight="normal" text-decoration="normal" x="381" y="180" text-anchor="start" dominant-baseline="alphabetic" stroke-opacity="1" stroke-linejoin="bevel" stroke-miterlimit="10" stroke-width="3">10</text><text fill="rgb(0,0,0)" stroke="none" font-family="geogebra-sans-serif, sans-serif" font-size="12px" font-style="normal" font-weight="normal" text-decoration="normal" x="381" y="180" text-anchor="start" dominant-baseline="alphabetic" fill-opacity="1">10</text><text fill="rgb(0,0,0)" stroke="none" font-family="geogebra-sans-serif, sans-serif" font-size="12px" font-style="normal" font-weight="normal" text-decoration="normal" x="431" y="180" text-anchor="start" dominant-baseline="alphabetic" fill-opacity="1">12</text><text fill="none" stroke="rgb(255,255,255)" font-family="geogebra-sans-serif, sans-serif" font-size="12px" font-style="normal" font-weight="normal" text-decoration="normal" x="431" y="180" text-anchor="start" dominant-baseline="alphabetic" stroke-opacity="1" stroke-linejoin="bevel" stroke-miterlimit="10" stroke-width="3">12</text><text fill="rgb(0,0,0)" stroke="none" font-family="geogebra-sans-serif, sans-serif" font-size="12px" font-style="normal" font-weight="normal" text-decoration="normal" x="431" y="180" text-anchor="start" dominant-baseline="alphabetic" fill-opacity="1">12</text><text fill="rgb(0,0,0)" stroke="none" font-family="geogebra-sans-serif, sans-serif" font-size="12px" font-style="normal" font-weight="normal" text-decoration="normal" x="481" y="180" text-anchor="start" dominant-baseline="alphabetic" fill-opacity="1">14</text><text fill="none" stroke="rgb(255,255,255)" font-family="geogebra-sans-serif, sans-serif" font-size="12px" font-style="normal" font-weight="normal" text-decoration="normal" x="481" y="180" text-anchor="start" dominant-baseline="alphabetic" stroke-opacity="1" stroke-linejoin="bevel" stroke-miterlimit="10" stroke-width="3">14</text><text fill="rgb(0,0,0)" stroke="none" font-family="geogebra-sans-serif, sans-serif" font-size="12px" font-style="normal" font-weight="normal" text-decoration="normal" x="481" y="180" text-anchor="start" dominant-baseline="alphabetic" fill-opacity="1">14</text><text fill="rgb(0,0,0)" stroke="none" font-family="geogebra-sans-serif, sans-serif" font-size="12px" font-style="normal" font-weight="normal" text-decoration="normal" x="531" y="180" text-anchor="start" dominant-baseline="alphabetic" fill-opacity="1">16</text><text fill="none" stroke="rgb(255,255,255)" font-family="geogebra-sans-serif, sans-serif" font-size="12px" font-style="normal" font-weight="normal" text-decoration="normal" x="531" y="180" text-anchor="start" dominant-baseline="alphabetic" stroke-opacity="1" stroke-linejoin="bevel" stroke-miterlimit="10" stroke-width="3">16</text><text fill="rgb(0,0,0)" stroke="none" font-family="geogebra-sans-serif, sans-serif" font-size="12px" font-style="normal" font-weight="normal" text-decoration="normal" x="531" y="180" text-anchor="start" dominant-baseline="alphabetic" fill-opacity="1">16</text><text fill="rgb(0,0,0)" stroke="none" font-family="geogebra-sans-serif, sans-serif" font-size="12px" font-style="normal" font-weight="normal" text-decoration="normal" x="116" y="269" text-anchor="start" dominant-baseline="alphabetic" fill-opacity="1">–4</text><text fill="none" stroke="rgb(255,255,255)" font-family="geogebra-sans-serif, sans-serif" font-size="12px" font-style="normal" font-weight="normal" text-decoration="normal" x="116" y="269" text-anchor="start" dominant-baseline="alphabetic" stroke-opacity="1" stroke-linejoin="bevel" stroke-miterlimit="10" stroke-width="3">–4</text><text fill="rgb(0,0,0)" stroke="none" font-family="geogebra-sans-serif, sans-serif" font-size="12px" font-style="normal" font-weight="normal" text-decoration="normal" x="116" y="269" text-anchor="start" dominant-baseline="alphabetic" fill-opacity="1">–4</text><text fill="rgb(0,0,0)" stroke="none" font-family="geogebra-sans-serif, sans-serif" font-size="12px" font-style="normal" font-weight="normal" text-decoration="normal" x="116" y="219" text-anchor="start" dominant-baseline="alphabetic" fill-opacity="1">–2</text><text fill="none" stroke="rgb(255,255,255)" font-family="geogebra-sans-serif, sans-serif" font-size="12px" font-style="normal" font-weight="normal" text-decoration="normal" x="116" y="219" text-anchor="start" dominant-baseline="alphabetic" stroke-opacity="1" stroke-linejoin="bevel" stroke-miterlimit="10" stroke-width="3">–2</text><text fill="rgb(0,0,0)" stroke="none" font-family="geogebra-sans-serif, sans-serif" font-size="12px" font-style="normal" font-weight="normal" text-decoration="normal" x="116" y="219" text-anchor="start" dominant-baseline="alphabetic" fill-opacity="1">–2</text><text fill="rgb(0,0,0)" stroke="none" font-family="geogebra-sans-serif, sans-serif" font-size="12px" font-style="normal" font-weight="normal" text-decoration="normal" x="122" y="119" text-anchor="start" dominant-baseline="alphabetic" fill-opacity="1">2</text><text fill="none" stroke="rgb(255,255,255)" font-family="geogebra-sans-serif, sans-serif" font-size="12px" font-style="normal" font-weight="normal" text-decoration="normal" x="122" y="119" text-anchor="start" dominant-baseline="alphabetic" stroke-opacity="1" stroke-linejoin="bevel" stroke-miterlimit="10" stroke-width="3">2</text><text fill="rgb(0,0,0)" stroke="none" font-family="geogebra-sans-serif, sans-serif" font-size="12px" font-style="normal" font-weight="normal" text-decoration="normal" x="122" y="119" text-anchor="start" dominant-baseline="alphabetic" fill-opacity="1">2</text><text fill="rgb(0,0,0)" stroke="none" font-family="geogebra-sans-serif, sans-serif" font-size="12px" font-style="normal" font-weight="normal" text-decoration="normal" x="122" y="69" text-anchor="start" dominant-baseline="alphabetic" fill-opacity="1">4</text><text fill="none" stroke="rgb(255,255,255)" font-family="geogebra-sans-serif, sans-serif" font-size="12px" font-style="normal" font-weight="normal" text-decoration="normal" x="122" y="69" text-anchor="start" dominant-baseline="alphabetic" stroke-opacity="1" stroke-linejoin="bevel" stroke-miterlimit="10" stroke-width="3">4</text><text fill="rgb(0,0,0)" stroke="none" font-family="geogebra-sans-serif, sans-serif" font-size="12px" font-style="normal" font-weight="normal" text-decoration="normal" x="122" y="69" text-anchor="start" dominant-baseline="alphabetic" fill-opacity="1">4</text><text fill="rgb(0,0,0)" stroke="none" font-family="geogebra-sans-serif, sans-serif" font-size="12px" font-style="normal" font-weight="normal" text-decoration="normal" x="122" y="19" text-anchor="start" dominant-baseline="alphabetic" fill-opacity="1">6</text><text fill="none" stroke="rgb(255,255,255)" font-family="geogebra-sans-serif, sans-serif" font-size="12px" font-style="normal" font-weight="normal" text-decoration="normal" x="122" y="19" text-anchor="start" dominant-baseline="alphabetic" stroke-opacity="1" stroke-linejoin="bevel" stroke-miterlimit="10" stroke-width="3">6</text><text fill="rgb(0,0,0)" stroke="none" font-family="geogebra-sans-serif, sans-serif" font-size="12px" font-style="normal" font-weight="normal" text-decoration="normal" x="122" y="19" text-anchor="start" dominant-baseline="alphabetic" fill-opacity="1">6</text><text fill="rgb(0,0,0)" stroke="none" font-family="geogebra-sans-serif, sans-serif" font-size="12px" font-style="normal" font-weight="normal" text-decoration="normal" x="122" y="180" text-anchor="start" dominant-baseline="alphabetic" fill-opacity="1">0</text><text fill="none" stroke="rgb(255,255,255)" font-family="geogebra-sans-serif, sans-serif" font-size="12px" font-style="normal" font-weight="normal" text-decoration="normal" x="122" y="180" text-anchor="start" dominant-baseline="alphabetic" stroke-opacity="1" stroke-linejoin="bevel" stroke-miterlimit="10" stroke-width="3">0</text><text fill="rgb(0,0,0)" stroke="none" font-family="geogebra-sans-serif, sans-serif" font-size="12px" font-style="normal" font-weight="normal" text-decoration="normal" x="122" y="180" text-anchor="start" dominant-baseline="alphabetic" fill-opacity="1">0</text><path fill="none" stroke="rgb(0,0,0)" paint-order="fill stroke markers" d=" M 0.9999999999999716 -3.3814342611611323 L 0.9999999999999716 -2.8814342611611323 L 0.9999999999999716 -2.8814342611611323 L 1.9999999999999716 -2.3814342611611323 L 1.9999999999999716 -2.3814342611611323 L 2.9999999999999716 -1.8814342611611323 L 2.9999999999999716 -1.8814342611611323 L 3.999999999999943 -1.3814342611611607 L 3.999999999999943 -1.3814342611611607 L 4.999999999999943 -0.8814342611611607 L 4.999999999999943 -0.8814342611611607 L 5.999999999999943 -0.38143426116116075 L 5.999999999999943 -0.38143426116116075 L 6.999999999999915 0.11856573883883925 L 6.999999999999915 0.11856573883883925 L 7.999999999999915 0.6185657388388393 L 7.999999999999915 0.6185657388388393 L 8.9999999999999 1.1185657388388108 L 8.9999999999999 1.1185657388388108 L 9.9999999999999 1.6185657388388108 L 9.9999999999999 1.6185657388388108 L 10.999999999999886 2.118565738838811 L 10.999999999999886 2.118565738838811 L 11.999999999999872 2.618565738838811 L 11.999999999999872 2.618565738838811 L 12.999999999999872 3.1185657388387824 L 12.999999999999872 3.1185657388387824 L 13.999999999999858 3.6185657388387824 L 13.999999999999858 3.6185657388387824 L 14.999999999999844 4.118565738838811 L 14.999999999999844 4.118565738838811 L 15.999999999999844 4.618565738838782 L 15.999999999999844 4.618565738838782 L 16.99999999999983 5.118565738838754 L 16.99999999999983 5.118565738838754 L 17.999999999999815 5.618565738838782 L 17.999999999999815 5.618565738838782 L 18.999999999999815 6.118565738838782 L 18.999999999999815 6.118565738838782 L 19.9999999999998 6.618565738838754 L 19.9999999999998 6.618565738838754 L 20.999999999999787 7.118565738838754 L 20.999999999999787 7.118565738838754 L 21.999999999999787 7.618565738838754 L 21.999999999999787 7.618565738838754 L 22.999999999999773 8.118565738838754 L 22.999999999999773 8.118565738838754 L 23.99999999999976 8.618565738838726 L 23.99999999999976 8.618565738838726 L 24.99999999999976 9.118565738838726 L 24.99999999999976 9.118565738838726 L 25.999999999999744 9.618565738838726 L 25.999999999999744 9.618565738838726 L 26.99999999999973 10.118565738838726 L 26.99999999999973 10.118565738838726 L 27.99999999999973 10.618565738838726 L 27.99999999999973 10.618565738838726 L 28.999999999999716 11.118565738838697 L 28.999999999999716 11.118565738838697 L 29.9999999999997 11.618565738838697 L 29.9999999999997 11.618565738838697 L 30.9999999999997 12.118565738838697 L 30.9999999999997 12.118565738838697 L 31.999999999999687 12.618565738838697 L 31.999999999999687 12.618565738838697 L 32.99999999999967 13.118565738838669 L 32.99999999999967 13.118565738838669 L 33.99999999999967 13.618565738838669 L 33.99999999999967 13.618565738838669 L 34.99999999999966 14.118565738838669 L 34.99999999999966 14.118565738838669 L 35.999999999999645 14.618565738838669 L 35.999999999999645 14.618565738838669 L 36.99999999999966 15.118565738838669 L 36.99999999999966 15.118565738838669 L 37.99999999999966 15.61856573883864 L 37.99999999999966 15.61856573883864 L 38.99999999999966 16.11856573883867 L 38.99999999999966 16.11856573883867 L 39.99999999999966 16.61856573883867 L 39.99999999999966 16.61856573883867 L 40.99999999999966 17.11856573883867 L 40.99999999999966 17.11856573883867 L 41.99999999999966 17.61856573883867 L 41.99999999999966 17.61856573883867 L 42.99999999999966 18.11856573883867 L 42.99999999999966 18.11856573883867 L 43.99999999999966 18.61856573883867 L 43.99999999999966 18.61856573883867 L 44.99999999999967 19.11856573883867 L 44.99999999999967 19.11856573883867 L 45.99999999999967 19.61856573883864 L 45.99999999999967 19.61856573883864 L 46.99999999999967 20.11856573883867 L 46.99999999999967 20.11856573883867 L 47.99999999999967 20.61856573883867 L 47.99999999999967 20.61856573883867 L 48.99999999999967 21.11856573883867 L 48.99999999999967 21.11856573883867 L 49.99999999999967 21.61856573883867 L 49.99999999999967 21.61856573883867 L 50.99999999999967 22.11856573883867 L 50.99999999999967 22.11856573883867 L 51.99999999999967 22.61856573883867 L 51.99999999999967 22.61856573883867 L 52.99999999999967 23.11856573883867 L 52.99999999999967 23.11856573883867 L 53.99999999999969 23.61856573883864 L 53.99999999999969 23.61856573883864 L 54.99999999999969 24.11856573883864 L 54.99999999999969 24.11856573883864 L 55.99999999999969 24.61856573883867 L 55.99999999999969 24.61856573883867 L 56.99999999999969 25.11856573883867 L 56.99999999999969 25.11856573883867 L 57.99999999999969 25.61856573883867 L 57.99999999999969 25.61856573883867 L 58.99999999999969 26.11856573883864 L 58.99999999999969 26.11856573883864 L 59.99999999999969 26.61856573883867 L 59.99999999999969 26.61856573883867 L 60.99999999999969 27.11856573883867 L 60.99999999999969 27.11856573883867 L 61.9999999999997 27.61856573883864 L 61.9999999999997 27.61856573883864 L 62.9999999999997 28.11856573883864 L 62.9999999999997 28.11856573883864 L 63.9999999999997 28.61856573883867 L 63.9999999999997 28.61856573883867 L 64.9999999999997 29.11856573883867 L 64.9999999999997 29.11856573883867 L 65.9999999999997 29.61856573883867 L 65.9999999999997 29.61856573883867 L 66.9999999999997 30.11856573883864 L 66.9999999999997 30.11856573883864 L 67.9999999999997 30.61856573883867 L 67.9999999999997 30.61856573883867 L 68.9999999999997 31.11856573883867 L 68.9999999999997 31.11856573883867 L 69.9999999999997 31.61856573883864 L 69.9999999999997 31.61856573883864 L 70.99999999999972 32.11856573883864 L 70.99999999999972 32.11856573883864 L 71.99999999999972 32.61856573883864 L 71.99999999999972 32.61856573883864 L 72.99999999999972 33.11856573883867 L 72.99999999999972 33.11856573883867 L 73.99999999999972 33.61856573883867 L 73.99999999999972 33.61856573883867 L 74.99999999999972 34.11856573883864 L 74.99999999999972 34.11856573883864 L 75.99999999999972 34.61856573883864 L 75.99999999999972 34.61856573883864 L 76.99999999999972 35.11856573883867 L 76.99999999999972 35.11856573883867 L 77.99999999999972 35.61856573883864 L 77.99999999999972 35.61856573883864 L 78.99999999999972 36.11856573883864 L 78.99999999999972 36.11856573883864 L 79.99999999999972 36.61856573883864 L 79.99999999999972 36.61856573883864 L 80.99999999999972 37.118565738838655 L 80.99999999999972 37.118565738838655 L 81.99999999999973 37.61856573883867 L 81.99999999999973 37.61856573883867 L 82.99999999999973 38.11856573883864 L 82.99999999999973 38.11856573883864 L 83.99999999999973 38.618565738838655 L 83.99999999999973 38.618565738838655 L 84.99999999999973 39.118565738838655 L 84.99999999999973 39.118565738838655 L 85.99999999999974 39.61856573883864 L 85.99999999999974 39.61856573883864 L 86.99999999999974 40.11856573883864 L 86.99999999999974 40.11856573883864 L 87.99999999999974 40.618565738838655 L 87.99999999999974 40.618565738838655 L 88.99999999999974 41.118565738838655 L 88.99999999999974 41.118565738838655 L 89.99999999999974 41.618565738838655 L 89.99999999999974 41.618565738838655 L 90.99999999999974 42.11856573883864 L 90.99999999999974 42.11856573883864 L 91.99999999999974 42.618565738838655 L 91.99999999999974 42.618565738838655 L 92.99999999999974 43.118565738838655 L 92.99999999999974 43.118565738838655 L 93.99999999999974 43.61856573883864 L 93.99999999999974 43.61856573883864 L 94.99999999999974 44.11856573883864 L 94.99999999999974 44.11856573883864 L 95.99999999999974 44.61856573883864 L 95.99999999999974 44.61856573883864 L 96.99999999999974 45.118565738838655 L 96.99999999999974 45.118565738838655 L 97.99999999999974 45.618565738838655 L 97.99999999999974 45.618565738838655 L 98.99999999999976 46.11856573883864 L 98.99999999999976 46.11856573883864 L 99.99999999999976 46.61856573883864 L 99.99999999999976 46.61856573883864 L 100.99999999999976 47.118565738838655 L 100.99999999999976 47.118565738838655 L 101.99999999999976 47.61856573883864 L 101.99999999999976 47.61856573883864 L 102.99999999999976 48.11856573883864 L 102.99999999999976 48.11856573883864 L 103.99999999999977 48.61856573883864 L 103.99999999999977 48.61856573883864 L 104.99999999999977 49.118565738838655 L 104.99999999999977 49.118565738838655 L 105.99999999999977 49.618565738838655 L 105.99999999999977 49.618565738838655 L 106.99999999999977 50.11856573883864 L 106.99999999999977 50.11856573883864 L 107.99999999999977 50.61856573883864 L 107.99999999999977 50.61856573883864 L 108.99999999999977 51.118565738838655 L 108.99999999999977 51.118565738838655 L 109.99999999999977 51.618565738838626 L 109.99999999999977 51.618565738838626 L 110.99999999999977 52.11856573883864 L 110.99999999999977 52.11856573883864 L 111.99999999999977 52.61856573883864 L 111.99999999999977 52.61856573883864 L 112.99999999999977 53.11856573883864 L 112.99999999999977 53.11856573883864 L 113.99999999999977 53.618565738838626 L 113.99999999999977 53.618565738838626 L 114.99999999999977 54.11856573883864 L 114.99999999999977 54.11856573883864 L 115.99999999999977 54.61856573883864 L 115.99999999999977 54.61856573883864 L 116.99999999999977 55.118565738838626 L 116.99999999999977 55.118565738838626 L 117.99999999999977 55.618565738838626 L 117.99999999999977 55.618565738838626 L 118.99999999999977 56.11856573883864 L 118.99999999999977 56.11856573883864 L 119.99999999999977 56.61856573883861 L 119.99999999999977 56.61856573883861 L 120.99999999999976 57.118565738838626 L 120.99999999999976 57.118565738838626 L 121.99999999999976 57.618565738838626 L 121.99999999999976 57.618565738838626 L 122.99999999999976 58.11856573883861 L 122.99999999999976 58.11856573883861 L 123.99999999999976 58.61856573883861 L 123.99999999999976 58.61856573883861 L 124.99999999999976 59.118565738838626 L 124.99999999999976 59.118565738838626 L 125.99999999999976 59.618565738838626 L 125.99999999999976 59.618565738838626 L 126.99999999999976 60.11856573883861 L 126.99999999999976 60.11856573883861 L 127.99999999999976 60.61856573883861 L 127.99999999999976 60.61856573883861 L 128.99999999999977 61.118565738838626 L 128.99999999999977 61.118565738838626 L 129.99999999999977 61.618565738838626 L 129.99999999999977 61.618565738838626 L 130.99999999999977 62.11856573883861 L 130.99999999999977 62.11856573883861 L 131.99999999999977 62.61856573883861 L 131.99999999999977 62.61856573883861 L 132.99999999999977 63.11856573883861 L 132.99999999999977 63.11856573883861 L 133.99999999999977 63.6185657388386 L 133.99999999999977 63.6185657388386 L 134.99999999999977 64.11856573883861 L 134.99999999999977 64.11856573883861 L 135.99999999999977 64.61856573883861 L 135.99999999999977 64.61856573883861 L 136.99999999999977 65.11856573883861 L 136.99999999999977 65.11856573883861 L 137.99999999999977 65.6185657388386 L 137.99999999999977 65.6185657388386 L 138.99999999999977 66.11856573883861 L 138.99999999999977 66.11856573883861 L 139.99999999999977 66.6185657388386 L 139.99999999999977 66.6185657388386 L 140.99999999999977 67.1185657388386 L 140.99999999999977 67.1185657388386 L 141.99999999999977 67.6185657388386 L 141.99999999999977 67.6185657388386 L 142.99999999999977 68.1185657388386 L 142.99999999999977 68.1185657388386 L 143.99999999999977 68.6185657388386 L 143.99999999999977 68.6185657388386 L 144.99999999999977 69.1185657388386 L 144.99999999999977 69.1185657388386 L 145.99999999999977 69.6185657388386 L 145.99999999999977 69.6185657388386 L 146.99999999999977 70.1185657388386 L 146.99999999999977 70.1185657388386 L 147.99999999999977 70.6185657388386 L 147.99999999999977 70.6185657388386 L 148.99999999999977 71.1185657388386 L 148.99999999999977 71.1185657388386 L 149.99999999999977 71.6185657388386 L 149.99999999999977 71.6185657388386 L 150.99999999999977 72.11856573883858 L 150.99999999999977 72.11856573883858 L 151.99999999999977 72.61856573883858 L 151.99999999999977 72.61856573883858 L 152.99999999999977 73.11856573883858 L 152.99999999999977 73.11856573883858 L 153.99999999999977 73.61856573883858 L 153.99999999999977 73.61856573883858 L 154.99999999999977 74.11856573883858 L 154.99999999999977 74.11856573883858 L 155.99999999999977 74.61856573883858 L 155.99999999999977 74.61856573883858 L 156.99999999999974 75.11856573883858 L 156.99999999999974 75.11856573883858 L 157.99999999999974 75.61856573883858 L 157.99999999999974 75.61856573883858 L 158.99999999999974 76.11856573883858 L 158.99999999999974 76.11856573883858 L 159.99999999999974 76.61856573883857 L 159.99999999999974 76.61856573883857 L 160.99999999999974 77.11856573883857 L 160.99999999999974 77.11856573883857 L 161.99999999999974 77.61856573883857 L 161.99999999999974 77.61856573883857 L 162.99999999999974 78.11856573883857 L 162.99999999999974 78.11856573883857 L 163.99999999999974 78.61856573883857 L 163.99999999999974 78.61856573883857 L 164.99999999999977 79.11856573883857 L 164.99999999999977 79.11856573883857 L 165.99999999999977 79.61856573883857 L 165.99999999999977 79.61856573883857 L 166.99999999999977 80.11856573883857 L 166.99999999999977 80.11856573883857 L 167.99999999999977 80.61856573883857 L 167.99999999999977 80.61856573883857 L 168.99999999999977 81.11856573883857 L 168.99999999999977 81.11856573883857 L 169.99999999999977 81.61856573883857 L 169.99999999999977 81.61856573883857 L 170.99999999999977 82.11856573883857 L 170.99999999999977 82.11856573883857 L 171.99999999999977 82.61856573883857 L 171.99999999999977 82.61856573883857 L 172.99999999999977 83.11856573883857 L 172.99999999999977 83.11856573883857 L 173.99999999999977 83.61856573883857 L 173.99999999999977 83.61856573883857 L 174.99999999999977 84.11856573883857 L 174.99999999999977 84.11856573883857 L 175.99999999999977 84.61856573883857 L 175.99999999999977 84.61856573883857 L 176.99999999999977 85.11856573883857 L 176.99999999999977 85.11856573883857 L 177.99999999999977 85.61856573883857 L 177.99999999999977 85.61856573883857 L 178.99999999999977 86.11856573883857 L 178.99999999999977 86.11856573883857 L 179.99999999999977 86.61856573883857 L 179.99999999999977 86.61856573883857 L 180.99999999999977 87.11856573883857 L 180.99999999999977 87.11856573883857 L 181.99999999999977 87.61856573883857 L 181.99999999999977 87.61856573883857 L 182.99999999999977 88.11856573883857 L 182.99999999999977 88.11856573883857 L 183.99999999999977 88.61856573883857 L 183.99999999999977 88.61856573883857 L 184.9999999999998 89.11856573883857 L 184.9999999999998 89.11856573883857 L 185.9999999999998 89.61856573883857 L 185.9999999999998 89.61856573883857 L 186.99999999999977 90.11856573883857 L 186.99999999999977 90.11856573883857 L 187.9999999999998 90.61856573883857 L 187.9999999999998 90.61856573883857 L 188.9999999999998 91.11856573883856 L 188.9999999999998 91.11856573883856 L 189.9999999999998 91.61856573883856 L 189.9999999999998 91.61856573883856 L 190.9999999999998 92.11856573883857 L 190.9999999999998 92.11856573883857 L 191.9999999999998 92.61856573883856 L 191.9999999999998 92.61856573883856 L 192.9999999999998 93.11856573883856 L 192.9999999999998 93.11856573883856 L 193.9999999999998 93.61856573883856 L 193.9999999999998 93.61856573883856 L 194.9999999999998 94.11856573883857 L 194.9999999999998 94.11856573883857 L 195.9999999999998 94.61856573883856 L 195.9999999999998 94.61856573883856 L 196.9999999999998 95.11856573883856 L 196.9999999999998 95.11856573883856 L 197.9999999999998 95.61856573883856 L 197.9999999999998 95.61856573883856 L 198.9999999999998 96.11856573883857 L 198.9999999999998 96.11856573883857 L 199.9999999999998 96.61856573883856 L 199.9999999999998 96.61856573883856 L 200.99999999999983 97.11856573883856 L 200.99999999999983 97.11856573883856 L 201.99999999999983 97.61856573883856 L 201.99999999999983 97.61856573883856 L 202.99999999999983 98.11856573883857 L 202.99999999999983 98.11856573883857 L 203.99999999999983 98.61856573883856 L 203.99999999999983 98.61856573883856 L 204.99999999999983 99.11856573883856 L 204.99999999999983 99.11856573883856 L 205.99999999999983 99.61856573883856 L 205.99999999999983 99.61856573883856 L 206.99999999999983 100.11856573883856 L 206.99999999999983 100.11856573883856 L 207.99999999999983 100.61856573883856 L 207.99999999999983 100.61856573883856 L 208.99999999999983 101.11856573883856 L 208.99999999999983 101.11856573883856 L 209.99999999999983 101.61856573883856 L 209.99999999999983 101.61856573883856 L 210.99999999999983 102.11856573883856 L 210.99999999999983 102.11856573883856 L 211.99999999999983 102.61856573883856 L 211.99999999999983 102.61856573883856 L 212.99999999999983 103.11856573883856 L 212.99999999999983 103.11856573883856 L 213.99999999999983 103.61856573883856 L 213.99999999999983 103.61856573883856 L 214.99999999999983 104.11856573883856 L 214.99999999999983 104.11856573883856 L 215.99999999999983 104.61856573883856 L 215.99999999999983 104.61856573883856 L 216.99999999999983 105.11856573883856 L 216.99999999999983 105.11856573883856 L 217.99999999999983 105.61856573883856 L 217.99999999999983 105.61856573883856 L 218.99999999999983 106.11856573883856 L 218.99999999999983 106.11856573883856 L 219.99999999999983 106.61856573883856 L 219.99999999999983 106.61856573883856 L 220.99999999999983 107.11856573883856 L 220.99999999999983 107.11856573883856 L 221.99999999999983 107.61856573883856 L 221.99999999999983 107.61856573883856 L 222.99999999999983 108.11856573883856 L 222.99999999999983 108.11856573883856 L 223.99999999999983 108.61856573883856 L 223.99999999999983 108.61856573883856 L 224.99999999999986 109.11856573883856 L 224.99999999999986 109.11856573883856 L 225.99999999999986 109.61856573883856 L 225.99999999999986 109.61856573883856 L 226.99999999999986 110.11856573883856 L 226.99999999999986 110.11856573883856 L 227.99999999999986 110.61856573883856 L 227.99999999999986 110.61856573883856 L 228.99999999999986 111.11856573883854 L 228.99999999999986 111.11856573883854 L 229.99999999999986 111.61856573883856 L 229.99999999999986 111.61856573883856 L 230.99999999999986 112.11856573883856 L 230.99999999999986 112.11856573883856 L 231.99999999999986 112.61856573883856 L 231.99999999999986 112.61856573883856 L 232.99999999999986 113.11856573883854 L 232.99999999999986 113.11856573883854 L 233.9999999999999 113.61856573883856 L 233.9999999999999 113.61856573883856 L 234.9999999999999 114.11856573883856 L 234.9999999999999 114.11856573883856 L 235.9999999999999 114.61856573883856 L 235.9999999999999 114.61856573883856 L 236.99999999999986 115.11856573883854 L 236.99999999999986 115.11856573883854 L 237.99999999999983 115.61856573883853 L 237.99999999999983 115.61856573883853 L 238.99999999999983 116.11856573883853 L 238.99999999999983 116.11856573883853 L 239.99999999999983 116.61856573883853 L 239.99999999999983 116.61856573883853 L 240.99999999999983 117.11856573883853 L 240.99999999999983 117.11856573883853 L 241.99999999999983 117.61856573883851 L 241.99999999999983 117.61856573883851 L 242.9999999999998 118.1185657388385 L 242.9999999999998 118.1185657388385 L 243.99999999999977 118.6185657388385 L 243.99999999999977 118.6185657388385 L 244.99999999999977 119.1185657388385 L 244.99999999999977 119.1185657388385 L 245.99999999999977 119.6185657388385 L 245.99999999999977 119.6185657388385 L 246.99999999999977 120.11856573883848 L 246.99999999999977 120.11856573883848 L 247.99999999999977 120.61856573883847 L 247.99999999999977 120.61856573883847 L 248.99999999999974 121.11856573883847 L 248.99999999999974 121.11856573883847 L 249.99999999999972 121.61856573883847 L 249.99999999999972 121.61856573883847 L 250.99999999999972 122.11856573883846 L 250.99999999999972 122.11856573883846 L 251.99999999999972 122.61856573883846 L 251.99999999999972 122.61856573883846 L 252.99999999999972 123.11856573883844 L 252.99999999999972 123.11856573883844 L 253.99999999999972 123.61856573883844 L 253.99999999999972 123.61856573883844 L 254.9999999999997 124.11856573883844 L 254.9999999999997 124.11856573883844 L 255.99999999999966 124.61856573883843 L 255.99999999999966 124.61856573883843 L 256.99999999999966 125.11856573883843 L 256.99999999999966 125.11856573883843 L 257.99999999999966 125.61856573883841 L 257.99999999999966 125.61856573883841 L 258.99999999999966 126.11856573883841 L 258.99999999999966 126.11856573883841 L 259.99999999999966 126.61856573883841 L 259.99999999999966 126.61856573883841 L 260.99999999999966 127.1185657388384 L 260.99999999999966 127.1185657388384 L 261.9999999999996 127.61856573883838 L 261.9999999999996 127.61856573883838 L 262.9999999999996 128.11856573883838 L 262.9999999999996 128.11856573883838 L 263.9999999999996 128.61856573883838 L 263.9999999999996 128.61856573883838 L 264.9999999999996 129.11856573883838 L 264.9999999999996 129.11856573883838 L 265.99999999999955 129.61856573883836 L 265.99999999999955 129.61856573883836 L 266.99999999999955 130.11856573883836 L 266.99999999999955 130.11856573883836 L 267.99999999999955 130.61856573883836 L 267.99999999999955 130.61856573883836 L 268.99999999999955 131.11856573883836 L 268.99999999999955 131.11856573883836 L 269.99999999999955 131.61856573883836 L 269.99999999999955 131.61856573883836 L 270.99999999999955 132.11856573883836 L 270.99999999999955 132.11856573883836 L 271.99999999999955 132.61856573883833 L 271.99999999999955 132.61856573883833 L 272.99999999999955 133.11856573883833 L 272.99999999999955 133.11856573883833 L 273.99999999999955 133.61856573883833 L 273.99999999999955 133.61856573883833 L 274.9999999999995 134.11856573883833 L 274.9999999999995 134.11856573883833 L 275.9999999999995 134.6185657388383 L 275.9999999999995 134.6185657388383 L 276.9999999999995 135.1185657388383 L 276.9999999999995 135.1185657388383 L 277.99999999999943 135.6185657388383 L 277.99999999999943 135.6185657388383 L 278.99999999999943 136.1185657388383 L 278.99999999999943 136.1185657388383 L 279.99999999999943 136.6185657388383 L 279.99999999999943 136.6185657388383 L 280.99999999999943 137.11856573883827 L 280.99999999999943 137.11856573883827 L 281.99999999999943 137.61856573883827 L 281.99999999999943 137.61856573883827 L 282.99999999999943 138.11856573883827 L 282.99999999999943 138.11856573883827 L 283.99999999999943 138.61856573883827 L 283.99999999999943 138.61856573883827 L 284.99999999999943 139.11856573883827 L 284.99999999999943 139.11856573883827 L 285.99999999999943 139.61856573883824 L 285.99999999999943 139.61856573883824 L 286.9999999999994 140.11856573883824 L 286.9999999999994 140.11856573883824 L 287.9999999999994 140.61856573883824 L 287.9999999999994 140.61856573883824 L 288.9999999999994 141.11856573883824 L 288.9999999999994 141.11856573883824 L 289.9999999999993 141.61856573883824 L 289.9999999999993 141.61856573883824 L 290.9999999999993 142.1185657388382 L 290.9999999999993 142.1185657388382 L 291.9999999999993 142.6185657388382 L 291.9999999999993 142.6185657388382 L 292.9999999999993 143.1185657388382 L 292.9999999999993 143.1185657388382 L 293.9999999999993 143.6185657388382 L 293.9999999999993 143.6185657388382 L 294.9999999999993 144.11856573883819 L 294.9999999999993 144.11856573883819 L 295.9999999999993 144.61856573883819 L 295.9999999999993 144.61856573883819 L 296.9999999999993 145.11856573883819 L 296.9999999999993 145.11856573883819 L 297.9999999999993 145.61856573883819 L 297.9999999999993 145.61856573883819 L 298.99999999999926 146.11856573883819 L 298.99999999999926 146.11856573883819 L 299.99999999999926 146.61856573883819 L 299.99999999999926 146.61856573883819 L 300.99999999999926 147.11856573883816 L 300.99999999999926 147.11856573883816 L 301.9999999999992 147.61856573883816 L 301.9999999999992 147.61856573883816 L 302.9999999999992 148.11856573883816 L 302.9999999999992 148.11856573883816 L 303.9999999999992 148.61856573883816 L 303.9999999999992 148.61856573883816 L 304.9999999999992 149.11856573883813 L 304.9999999999992 149.11856573883813 L 305.9999999999992 149.61856573883813 L 305.9999999999992 149.61856573883813 L 306.9999999999992 150.11856573883813 L 306.9999999999992 150.11856573883813 L 307.9999999999992 150.61856573883813 L 307.9999999999992 150.61856573883813 L 308.9999999999992 151.11856573883813 L 308.9999999999992 151.11856573883813 L 309.9999999999992 151.6185657388381 L 309.9999999999992 151.6185657388381 L 310.99999999999915 152.1185657388381 L 310.99999999999915 152.1185657388381 L 311.99999999999915 152.6185657388381 L 311.99999999999915 152.6185657388381 L 312.99999999999915 153.1185657388381 L 312.99999999999915 153.1185657388381 L 313.9999999999991 153.6185657388381 L 313.9999999999991 153.6185657388381 L 314.9999999999991 154.11856573883807 L 314.9999999999991 154.11856573883807 L 315.9999999999991 154.61856573883807 L 315.9999999999991 154.61856573883807 L 316.9999999999991 155.11856573883807 L 316.9999999999991 155.11856573883807 L 317.9999999999991 155.61856573883807 L 317.9999999999991 155.61856573883807 L 318.9999999999991 156.11856573883807 L 318.9999999999991 156.11856573883807 L 319.9999999999991 156.61856573883804 L 319.9999999999991 156.61856573883804 L 320.9999999999991 157.11856573883804 L 320.9999999999991 157.11856573883804 L 321.9999999999991 157.61856573883804 L 321.9999999999991 157.61856573883804 L 322.99999999999903 158.11856573883804 L 322.99999999999903 158.11856573883804 L 323.99999999999903 158.61856573883804 L 323.99999999999903 158.61856573883804 L 324.99999999999903 159.11856573883802 L 324.99999999999903 159.11856573883802 L 325.999999999999 159.61856573883802 L 325.999999999999 159.61856573883802 L 326.999999999999 160.11856573883802 L 326.999999999999 160.11856573883802 L 327.999999999999 160.61856573883802 L 327.999999999999 160.61856573883802 L 328.999999999999 161.11856573883802 L 328.999999999999 161.11856573883802 L 329.999999999999 161.618565738838 L 329.999999999999 161.618565738838 L 330.999999999999 162.118565738838 L 330.999999999999 162.118565738838 L 331.999999999999 162.618565738838 L 331.999999999999 162.618565738838 L 332.999999999999 163.118565738838 L 332.999999999999 163.118565738838 L 333.999999999999 163.61856573883796 L 333.999999999999 163.61856573883796 L 334.9999999999989 164.11856573883796 L 334.9999999999989 164.11856573883796 L 335.9999999999989 164.61856573883796 L 335.9999999999989 164.61856573883796 L 336.9999999999989 165.11856573883796 L 336.9999999999989 165.11856573883796 L 337.9999999999989 165.61856573883796 L 337.9999999999989 165.61856573883796 L 338.999999999999 166.11856573883796 L 338.999999999999 166.11856573883796 L 339.999999999999 166.61856573883796 L 339.999999999999 166.61856573883796 L 340.999999999999 167.118565738838 L 340.999999999999 167.118565738838 L 341.999999999999 167.618565738838 L 341.999999999999 167.618565738838 L 342.999999999999 168.118565738838 L 342.999999999999 168.118565738838 L 343.999999999999 168.618565738838 L 343.999999999999 168.618565738838 L 344.999999999999 169.118565738838 L 344.999999999999 169.118565738838 L 345.99999999999903 169.61856573883802 L 345.99999999999903 169.61856573883802 L 346.99999999999903 170.11856573883802 L 346.99999999999903 170.11856573883802 L 347.9999999999991 170.61856573883802 L 347.9999999999991 170.61856573883802 L 348.9999999999991 171.11856573883802 L 348.9999999999991 171.11856573883802 L 349.9999999999991 171.61856573883802 L 349.9999999999991 171.61856573883802 L 350.9999999999991 172.11856573883802 L 350.9999999999991 172.11856573883802 L 351.9999999999991 172.61856573883804 L 351.9999999999991 172.61856573883804 L 352.9999999999991 173.11856573883804 L 352.9999999999991 173.11856573883804 L 353.9999999999991 173.61856573883804 L 353.9999999999991 173.61856573883804 L 354.99999999999915 174.11856573883804 L 354.99999999999915 174.11856573883804 L 355.99999999999915 174.61856573883804 L 355.99999999999915 174.61856573883804 L 356.9999999999992 175.11856573883807 L 356.9999999999992 175.11856573883807 L 357.9999999999992 175.61856573883807 L 357.9999999999992 175.61856573883807 L 358.9999999999992 176.11856573883807 L 358.9999999999992 176.11856573883807 L 359.9999999999992 176.61856573883807 L 359.9999999999992 176.61856573883807 L 360.9999999999992 177.11856573883807 L 360.9999999999992 177.11856573883807 L 361.9999999999992 177.61856573883807 L 361.9999999999992 177.61856573883807 L 362.9999999999992 178.1185657388381 L 362.9999999999992 178.1185657388381 L 363.99999999999926 178.6185657388381 L 363.99999999999926 178.6185657388381 L 364.99999999999926 179.1185657388381 L 364.99999999999926 179.1185657388381 L 365.9999999999993 179.6185657388381 L 365.9999999999993 179.6185657388381 L 366.9999999999993 180.1185657388381 L 366.9999999999993 180.1185657388381 L 367.9999999999993 180.61856573883813 L 367.9999999999993 180.61856573883813 L 368.9999999999993 181.11856573883813 L 368.9999999999993 181.11856573883813 L 369.9999999999993 181.61856573883813 L 369.9999999999993 181.61856573883813 L 370.9999999999993 182.11856573883813 L 370.9999999999993 182.11856573883813 L 371.9999999999993 182.61856573883813 L 371.9999999999993 182.61856573883813 L 372.9999999999994 183.11856573883813 L 372.9999999999994 183.11856573883813 L 373.9999999999994 183.61856573883816 L 373.9999999999994 183.61856573883816 L 374.99999999999943 184.11856573883816 L 374.99999999999943 184.11856573883816 L 375.99999999999943 184.61856573883816 L 375.99999999999943 184.61856573883816 L 376.99999999999943 185.11856573883816 L 376.99999999999943 185.11856573883816 L 377.99999999999943 185.61856573883816 L 377.99999999999943 185.61856573883816 L 378.99999999999943 186.11856573883819 L 378.99999999999943 186.11856573883819 L 379.99999999999943 186.61856573883819 L 379.99999999999943 186.61856573883819 L 380.9999999999995 187.11856573883819 L 380.9999999999995 187.11856573883819 L 381.9999999999995 187.61856573883819 L 381.9999999999995 187.61856573883819 L 382.9999999999995 188.11856573883819 L 382.9999999999995 188.11856573883819 L 383.99999999999955 188.61856573883819 L 383.99999999999955 188.61856573883819 L 384.99999999999955 189.1185657388382 L 384.99999999999955 189.1185657388382 L 385.99999999999955 189.6185657388382 L 385.99999999999955 189.6185657388382 L 386.99999999999955 190.1185657388382 L 386.99999999999955 190.1185657388382 L 387.99999999999955 190.6185657388382 L 387.99999999999955 190.6185657388382 L 388.99999999999955 191.11856573883824 L 388.99999999999955 191.11856573883824 L 389.9999999999996 191.61856573883824 L 389.9999999999996 191.61856573883824 L 390.9999999999996 192.11856573883824 L 390.9999999999996 192.11856573883824 L 391.9999999999996 192.61856573883824 L 391.9999999999996 192.61856573883824 L 392.9999999999996 193.11856573883824 L 392.9999999999996 193.11856573883824 L 393.99999999999966 193.61856573883824 L 393.99999999999966 193.61856573883824 L 394.99999999999966 194.11856573883824 L 394.99999999999966 194.11856573883824 L 395.99999999999966 194.61856573883827 L 395.99999999999966 194.61856573883827 L 396.99999999999966 195.11856573883827 L 396.99999999999966 195.11856573883827 L 397.9999999999997 195.61856573883827 L 397.9999999999997 195.61856573883827 L 398.9999999999997 196.11856573883827 L 398.9999999999997 196.11856573883827 L 399.9999999999997 196.6185657388383 L 399.9999999999997 196.6185657388383 L 400.9999999999997 197.1185657388383 L 400.9999999999997 197.1185657388383 L 401.9999999999997 197.6185657388383 L 401.9999999999997 197.6185657388383 L 402.9999999999998 198.1185657388383 L 402.9999999999998 198.1185657388383 L 403.9999999999998 198.6185657388383 L 403.9999999999998 198.6185657388383 L 404.9999999999998 199.1185657388383 L 404.9999999999998 199.1185657388383 L 405.9999999999998 199.6185657388383 L 405.9999999999998 199.6185657388383 L 406.99999999999983 200.11856573883833 L 406.99999999999983 200.11856573883833 L 407.99999999999983 200.61856573883833 L 407.99999999999983 200.61856573883833 L 408.99999999999983 201.11856573883833 L 408.99999999999983 201.11856573883833 L 409.99999999999983 201.61856573883833 L 409.99999999999983 201.61856573883833 L 410.99999999999983 202.11856573883836 L 410.99999999999983 202.11856573883836 L 411.9999999999999 202.61856573883836 L 411.9999999999999 202.61856573883836 L 412.9999999999999 203.11856573883836 L 412.9999999999999 203.11856573883836 L 413.9999999999999 203.61856573883836 L 413.9999999999999 203.61856573883836 L 414.9999999999999 204.11856573883836 L 414.9999999999999 204.11856573883836 L 415.99999999999994 204.61856573883836 L 415.99999999999994 204.61856573883836 L 416.99999999999994 205.11856573883836 L 416.99999999999994 205.11856573883836 L 417.99999999999994 205.61856573883838 L 417.99999999999994 205.61856573883838 L 418.99999999999994 206.11856573883838 L 418.99999999999994 206.11856573883838 L 420 206.61856573883838 L 420 206.61856573883838 L 421 207.11856573883838 L 421 207.11856573883838 L 422 207.6185657388384 L 422 207.6185657388384 L 423 208.1185657388384 L 423 208.1185657388384 L 424 208.6185657388384 L 424 208.6185657388384 L 425.00000000000006 209.1185657388384 L 425.00000000000006 209.1185657388384 L 426.00000000000006 209.6185657388384 L 426.00000000000006 209.6185657388384 L 427.00000000000006 210.1185657388384 L 427.00000000000006 210.1185657388384 L 428.00000000000006 210.61856573883844 L 428.00000000000006 210.61856573883844 L 429.0000000000001 211.11856573883844 L 429.0000000000001 211.11856573883844 L 430.0000000000001 211.61856573883844 L 430.0000000000001 211.61856573883844 L 431.0000000000001 212.11856573883844 L 431.0000000000001 212.11856573883844 L 432.0000000000001 212.61856573883847 L 432.0000000000001 212.61856573883847 L 433.0000000000001 213.11856573883847 L 433.0000000000001 213.11856573883847 L 434.00000000000017 213.61856573883847 L 434.00000000000017 213.61856573883847 L 435.00000000000017 214.11856573883847 L 435.00000000000017 214.11856573883847 L 436.00000000000017 214.61856573883847 L 436.00000000000017 214.61856573883847 L 437.00000000000017 215.11856573883847 L 437.00000000000017 215.11856573883847 L 438.0000000000002 215.61856573883847 L 438.0000000000002 215.61856573883847 L 439.0000000000002 216.1185657388385 L 439.0000000000002 216.1185657388385 L 440.0000000000002 216.6185657388385 L 440.0000000000002 216.6185657388385 L 441.0000000000002 217.1185657388385 L 441.0000000000002 217.1185657388385 L 442.0000000000002 217.6185657388385 L 442.0000000000002 217.6185657388385 L 443.0000000000003 218.11856573883853 L 443.0000000000003 218.11856573883853 L 444.0000000000003 218.61856573883853 L 444.0000000000003 218.61856573883853 L 445.0000000000003 219.11856573883853 L 445.0000000000003 219.11856573883853 L 446.0000000000003 219.61856573883853 L 446.0000000000003 219.61856573883853 L 447.00000000000034 220.11856573883853 L 447.00000000000034 220.11856573883853 L 448.00000000000034 220.61856573883853 L 448.00000000000034 220.61856573883853 L 449.00000000000034 221.11856573883853 L 449.00000000000034 221.11856573883853 L 450.00000000000034 221.61856573883856 L 450.00000000000034 221.61856573883856 L 451.00000000000034 222.11856573883856 L 451.00000000000034 222.11856573883856 L 452.0000000000004 222.61856573883856 L 452.0000000000004 222.61856573883856 L 453.0000000000004 223.11856573883856 L 453.0000000000004 223.11856573883856 L 454.0000000000004 223.61856573883858 L 454.0000000000004 223.61856573883858 L 455.0000000000004 224.11856573883858 L 455.0000000000004 224.11856573883858 L 456.00000000000045 224.61856573883858 L 456.00000000000045 224.61856573883858 L 457.00000000000045 225.11856573883858 L 457.00000000000045 225.11856573883858 L 458.00000000000045 225.61856573883858 L 458.00000000000045 225.61856573883858 L 459.00000000000045 226.11856573883858 L 459.00000000000045 226.11856573883858 L 460.00000000000045 226.61856573883858 L 460.00000000000045 226.61856573883858 L 461.0000000000005 227.1185657388386 L 461.0000000000005 227.1185657388386 L 462.0000000000005 227.6185657388386 L 462.0000000000005 227.6185657388386 L 463.0000000000005 228.1185657388386 L 463.0000000000005 228.1185657388386 L 464.0000000000005 228.6185657388386 L 464.0000000000005 228.6185657388386 L 465.00000000000057 229.11856573883864 L 465.00000000000057 229.11856573883864 L 466.00000000000057 229.61856573883864 L 466.00000000000057 229.61856573883864 L 467.00000000000057 230.11856573883864 L 467.00000000000057 230.11856573883864 L 468.00000000000057 230.61856573883864 L 468.00000000000057 230.61856573883864 L 469.00000000000057 231.11856573883864 L 469.00000000000057 231.11856573883864 L 470.0000000000006 231.61856573883864 L 470.0000000000006 231.61856573883864 L 471.0000000000006 232.11856573883864 L 471.0000000000006 232.11856573883864 L 472.0000000000006 232.61856573883867 L 472.0000000000006 232.61856573883867 L 473.0000000000006 233.11856573883867 L 473.0000000000006 233.11856573883867 L 474.0000000000007 233.61856573883867 L 474.0000000000007 233.61856573883867 L 475.0000000000007 234.1185657388387 L 475.0000000000007 234.1185657388387 L 476.0000000000007 234.6185657388387 L 476.0000000000007 234.6185657388387 L 477.0000000000007 235.1185657388387 L 477.0000000000007 235.1185657388387 L 478.00000000000074 235.6185657388387 L 478.00000000000074 235.6185657388387 L 479.00000000000074 236.1185657388387 L 479.00000000000074 236.1185657388387 L 480.00000000000074 236.6185657388387 L 480.00000000000074 236.6185657388387 L 481.00000000000074 237.1185657388387 L 481.00000000000074 237.1185657388387 L 482.00000000000074 237.6185657388387 L 482.00000000000074 237.6185657388387 L 483.0000000000008 238.11856573883873 L 483.0000000000008 238.11856573883873 L 484.0000000000008 238.61856573883873 L 484.0000000000008 238.61856573883873 L 485.0000000000008 239.11856573883873 L 485.0000000000008 239.11856573883873 L 486.0000000000008 239.61856573883875 L 486.0000000000008 239.61856573883875 L 487.00000000000085 240.11856573883875 L 487.00000000000085 240.11856573883875 L 488.00000000000085 240.61856573883875 L 488.00000000000085 240.61856573883875 L 489.00000000000085 241.11856573883875 L 489.00000000000085 241.11856573883875 L 490.00000000000085 241.61856573883875 L 490.00000000000085 241.61856573883875 L 491.00000000000085 242.11856573883875 L 491.00000000000085 242.11856573883875 L 492.0000000000009 242.61856573883875 L 492.0000000000009 242.61856573883875 L 493.0000000000009 243.11856573883875 L 493.0000000000009 243.11856573883875 L 494.0000000000009 243.61856573883878 L 494.0000000000009 243.61856573883878 L 495.0000000000009 244.11856573883878 L 495.0000000000009 244.11856573883878 L 496.00000000000097 244.61856573883878 L 496.00000000000097 244.61856573883878 L 497.00000000000097 245.1185657388388 L 497.00000000000097 245.1185657388388 L 498.00000000000097 245.6185657388388 L 498.00000000000097 245.6185657388388 L 499.00000000000097 246.1185657388388 L 499.00000000000097 246.1185657388388 L 500.00000000000097 246.6185657388388 L 500.00000000000097 246.6185657388388 L 501.000000000001 247.1185657388388 L 501.000000000001 247.1185657388388 L 502.000000000001 247.6185657388388 L 502.000000000001 247.6185657388388 L 503.000000000001 248.1185657388388 L 503.000000000001 248.1185657388388 L 504.000000000001 248.6185657388388 L 504.000000000001 248.6185657388388 L 505.0000000000011 249.11856573883884 L 505.0000000000011 249.11856573883884 L 506.0000000000011 249.61856573883884 L 506.0000000000011 249.61856573883884 L 507.0000000000011 250.11856573883884 L 507.0000000000011 250.11856573883884 L 508.0000000000011 250.61856573883887 L 508.0000000000011 250.61856573883887 L 509.0000000000011 251.11856573883887 L 509.0000000000011 251.11856573883887 L 510.00000000000114 251.61856573883887 L 510.00000000000114 251.61856573883887 L 511.00000000000114 252.11856573883887 L 511.00000000000114 252.11856573883887 L 512.0000000000011 252.61856573883887 L 512.0000000000011 252.61856573883887 L 513.0000000000011 253.11856573883887 L 513.0000000000011 253.11856573883887 L 514.0000000000011 253.61856573883887 L 514.0000000000011 253.61856573883887 L 515.0000000000011 254.11856573883887 L 515.0000000000011 254.11856573883887 L 516.0000000000011 254.6185657388389 L 516.0000000000011 254.6185657388389 L 517.0000000000011 255.1185657388389 L 517.0000000000011 255.1185657388389 L 518.0000000000011 255.6185657388389 L 518.0000000000011 255.6185657388389 L 519.0000000000013 256.1185657388389 L 519.0000000000013 256.1185657388389 L 520.0000000000013 256.6185657388389 L 520.0000000000013 256.6185657388389 L 521.0000000000013 257.1185657388389 L 521.0000000000013 257.1185657388389 L 522.0000000000013 257.6185657388389 L 522.0000000000013 257.6185657388389 L 523.0000000000014 258.1185657388389 L 523.0000000000014 258.1185657388389 L 524.0000000000014 258.6185657388389 L 524.0000000000014 258.6185657388389 L 525.0000000000014 259.1185657388389 L 525.0000000000014 259.1185657388389 L 526.0000000000014 259.6185657388389 L 526.0000000000014 259.6185657388389 L 527.0000000000014 260.1185657388389 L 527.0000000000014 260.1185657388389 L 528.0000000000014 260.6185657388389 L 528.0000000000014 260.6185657388389 L 529.0000000000014 261.118565738839 L 529.0000000000014 261.118565738839 L 530.0000000000014 261.618565738839 L 530.0000000000014 261.618565738839 L 531.0000000000014 262.118565738839 L 531.0000000000014 262.118565738839 L 532.0000000000014 262.618565738839 L 532.0000000000014 262.618565738839 L 533.0000000000014 263.118565738839 L 533.0000000000014 263.118565738839 L 534.0000000000014 263.618565738839 L 534.0000000000014 263.618565738839 L 535.0000000000014 264.118565738839 L 535.0000000000014 264.118565738839 L 536.0000000000015 264.618565738839 L 536.0000000000015 264.618565738839 L 537.0000000000015 265.118565738839 L 537.0000000000015 265.118565738839 L 538.0000000000015 265.61856573883904 L 538.0000000000015 265.61856573883904 L 539.0000000000015 266.11856573883904 L 539.0000000000015 266.11856573883904 L 540.0000000000015 266.61856573883904 L 540.0000000000015 266.61856573883904 L 541.0000000000016 267.11856573883904 L 541.0000000000016 267.11856573883904 L 542.0000000000016 267.61856573883904 L 542.0000000000016 267.61856573883904 L 543.0000000000016 268.11856573883904 L 543.0000000000016 268.11856573883904 L 544.0000000000016 268.61856573883904 L 544.0000000000016 268.61856573883904 L 545.0000000000016 269.11856573883904 L 545.0000000000016 269.11856573883904 L 546.0000000000016 269.61856573883904 L 546.0000000000016 269.61856573883904 L 547.0000000000016 270.11856573883904 L 547.0000000000016 270.11856573883904 L 548.0000000000016 270.61856573883904 L 548.0000000000016 270.61856573883904 L 549.0000000000016 271.11856573883904 L 549.0000000000016 271.11856573883904 L 550.0000000000016 271.61856573883904 L 550.0000000000016 271.61856573883904 L 551.0000000000016 272.1185657388391 L 551.0000000000016 272.1185657388391 L 552.0000000000016 272.6185657388391 L 552.0000000000016 272.6185657388391 L 553.0000000000016 273.1185657388391 L 553.0000000000016 273.1185657388391 L 554.0000000000017 273.6185657388391 L 554.0000000000017 273.6185657388391 L 555.0000000000017 274.1185657388391 L 555.0000000000017 274.1185657388391 L 556.0000000000017 274.6185657388391 L 556.0000000000017 274.6185657388391 L 557.0000000000017 275.1185657388391 L 557.0000000000017 275.1185657388391 L 558.0000000000017 275.6185657388391 L 558.0000000000017 275.6185657388391 L 559.0000000000018 276.11856573883915 L 559.0000000000018 276.11856573883915 L 560.0000000000018 276.61856573883915 L 560.0000000000018 276.61856573883915 L 561.0000000000018 277.11856573883915 L 561.0000000000018 277.11856573883915 L 562.0000000000018 277.61856573883915 L 562.0000000000018 277.61856573883915 L 563.0000000000018 278.11856573883915 L 563.0000000000018 278.11856573883915 L 564.0000000000018 278.61856573883915 L 564.0000000000018 278.61856573883915 L 565.0000000000018 279.11856573883915 L 565.0000000000018 279.11856573883915 L 566.0000000000018 279.61856573883915 L 566.0000000000018 279.61856573883915 L 567.0000000000018 280.11856573883915 L 567.0000000000018 280.11856573883915 L 568.0000000000018 280.61856573883915 L 568.0000000000018 280.61856573883915 L 569.0000000000018 281.11856573883915 L 569.0000000000018 281.11856573883915 L 570.0000000000018 281.61856573883915 L 570.0000000000018 281.61856573883915 L 571.0000000000018 282.11856573883915 L 571.0000000000018 282.11856573883915 L 572.0000000000019 282.61856573883915 L 572.0000000000019 282.61856573883915 L 573.0000000000019 283.1185657388392 L 573.0000000000019 283.1185657388392 L 574.0000000000019 283.6185657388392 L 574.0000000000019 283.6185657388392 L 575.0000000000019 284.1185657388392 L 575.0000000000019 284.1185657388392 L 576.0000000000019 284.6185657388392 L 576.0000000000019 284.6185657388392 L 577.000000000002 285.1185657388392 L 577.000000000002 285.1185657388392 L 578.000000000002 285.6185657388392 L 578.000000000002 285.6185657388392 L 579.000000000002 286.1185657388392 L 579.000000000002 286.1185657388392 L 580.000000000002 286.6185657388392 L 580.000000000002 286.6185657388392 L 581.000000000002 287.11856573883927 L 581.000000000002 287.11856573883927 L 582.000000000002 287.61856573883927 L 582.000000000002 287.61856573883927 L 583.000000000002 288.11856573883927 L 583.000000000002 288.11856573883927 L 584.000000000002 288.61856573883927 L 584.000000000002 288.61856573883927 L 585.000000000002 289.11856573883927 L 585.000000000002 289.11856573883927 L 586.000000000002 289.61856573883927 L 586.000000000002 289.61856573883927 L 587.000000000002 290.11856573883927 L 587.000000000002 290.11856573883927 L 588.000000000002 290.61856573883927 L 588.000000000002 290.61856573883927 L 589.000000000002 291.11856573883927 L 589.000000000002 291.11856573883927 L 590.0000000000022 291.61856573883927 L 590.0000000000022 291.61856573883927 L 591.0000000000022 292.11856573883927 L 591.0000000000022 292.11856573883927 L 592.0000000000022 292.61856573883927 L 592.0000000000022 292.61856573883927 L 593.0000000000022 293.11856573883927 L 593.0000000000022 293.11856573883927 L 594.0000000000023 293.61856573883927 L 594.0000000000023 293.61856573883927 L 595.0000000000023 294.11856573883927 L 595.0000000000023 294.11856573883927 L 596.0000000000023 294.6185657388393" stroke-opacity="0.8" stroke-linecap="round" stroke-linejoin="round" stroke-miterlimit="10" stroke-width="2.5"/><text fill="rgb(0,0,0)" stroke="none" font-family="geogebra-sans-serif, sans-serif" font-size="16px" font-style="normal" font-weight="normal" text-decoration="normal" x="24" y="24" text-anchor="start" dominant-baseline="alphabetic" fill-opacity="1">f</text><text fill="none" stroke="rgb(255,255,255)" font-family="geogebra-sans-serif, sans-serif" font-size="16px" font-style="normal" font-weight="normal" text-decoration="normal" x="24" y="24" text-anchor="start" dominant-baseline="alphabetic" stroke-opacity="1" stroke-linejoin="bevel" stroke-miterlimit="10" stroke-width="3">f</text><text fill="rgb(0,0,0)" stroke="none" font-family="geogebra-sans-serif, sans-serif" font-size="16px" font-style="normal" font-weight="normal" text-decoration="normal" x="24" y="24" text-anchor="start" dominant-baseline="alphabetic" fill-opacity="1">f</text></g></g></svg>