<svg version="1.1" xmlns="http://www.w3.org/2000/svg" xmlns:xlink="http://www.w3.org/1999/xlink" width="350" height="449"><defs><clipPath id="bUAAeGgVonSu"><path fill="none" stroke="none" d=" M 0 0 L 350 0 L 350 449 L 0 449 L 0 0 Z"/></clipPath></defs><g transform="scale(1,1)" clip-path="url(#bUAAeGgVonSu)"><g><rect fill="rgb(255,255,255)" stroke="none" x="0" y="0" width="350" height="449" fill-opacity="1"/><path fill="none" stroke="rgb(180,179,186)" paint-order="fill stroke markers" d=" M 103.5 0.5 L 103.5 449.5 M 162.5 0.5 L 162.5 449.5 M 221.5 0.5 L 221.5 449.5 M 280.5 0.5 L 280.5 449.5 M 339.5 0.5 L 339.5 449.5" stroke-opacity="1" stroke-linecap="round" stroke-linejoin="round" stroke-miterlimit="10"/><path fill="none" stroke="rgb(180,179,186)" paint-order="fill stroke markers" d=" M 8.5 0.5 L 8.5 449.5 M 20.5 0.5 L 20.5 449.5 M 32.5 0.5 L 32.5 449.5 M 55.5 0.5 L 55.5 449.5 M 67.5 0.5 L 67.5 449.5 M 79.5 0.5 L 79.5 449.5 M 91.5 0.5 L 91.5 449.5 M 114.5 0.5 L 114.5 449.5 M 126.5 0.5 L 126.5 449.5 M 138.5 0.5 L 138.5 449.5 M 150.5 0.5 L 150.5 449.5 M 174.5 0.5 L 174.5 449.5 M 185.5 0.5 L 185.5 449.5 M 197.5 0.5 L 197.5 449.5 M 209.5 0.5 L 209.5 449.5 M 233.5 0.5 L 233.5 449.5 M 244.5 0.5 L 244.5 449.5 M 256.5 0.5 L 256.5 449.5 M 268.5 0.5 L 268.5 449.5 M 292.5 0.5 L 292.5 449.5 M 304.5 0.5 L 304.5 449.5 M 315.5 0.5 L 315.5 449.5 M 327.5 0.5 L 327.5 449.5" stroke-opacity="0.23529411764705882" stroke-linecap="round" stroke-linejoin="round" stroke-miterlimit="10"/><path fill="none" stroke="rgb(180,179,186)" paint-order="fill stroke markers" d=" M 0.5 9.5 L 350.5 9.5 M 0.5 9.5 L 350.5 9.5 M 0.5 68.5 L 350.5 68.5 M 0.5 127.5 L 350.5 127.5 M 0.5 186.5 L 350.5 186.5 M 0.5 245.5 L 350.5 245.5 M 0.5 304.5 L 350.5 304.5 M 0.5 363.5 L 350.5 363.5" stroke-opacity="1" stroke-linecap="round" stroke-linejoin="round" stroke-miterlimit="10"/><path fill="none" stroke="rgb(180,179,186)" paint-order="fill stroke markers" d=" M 0.5 9.5 L 350.5 9.5 M 0.5 20.5 L 350.5 20.5 M 0.5 32.5 L 350.5 32.5 M 0.5 44.5 L 350.5 44.5 M 0.5 56.5 L 350.5 56.5 M 0.5 80.5 L 350.5 80.5 M 0.5 91.5 L 350.5 91.5 M 0.5 103.5 L 350.5 103.5 M 0.5 115.5 L 350.5 115.5 M 0.5 139.5 L 350.5 139.5 M 0.5 150.5 L 350.5 150.5 M 0.5 162.5 L 350.5 162.5 M 0.5 174.5 L 350.5 174.5 M 0.5 198.5 L 350.5 198.5 M 0.5 210.5 L 350.5 210.5 M 0.5 221.5 L 350.5 221.5 M 0.5 233.5 L 350.5 233.5 M 0.5 257.5 L 350.5 257.5 M 0.5 269.5 L 350.5 269.5 M 0.5 281.5 L 350.5 281.5 M 0.5 292.5 L 350.5 292.5 M 0.5 316.5 L 350.5 316.5 M 0.5 328.5 L 350.5 328.5 M 0.5 340.5 L 350.5 340.5 M 0.5 352.5 L 350.5 352.5 M 0.5 375.5 L 350.5 375.5 M 0.5 387.5 L 350.5 387.5 M 0.5 399.5 L 350.5 399.5 M 0.5 411.5 L 350.5 411.5 M 0.5 434.5 L 350.5 434.5 M 0.5 446.5 L 350.5 446.5" stroke-opacity="0.23529411764705882" stroke-linecap="round" stroke-linejoin="round" stroke-miterlimit="10"/><path fill="none" stroke="rgb(28,28,31)" paint-order="fill stroke markers" d=" M 43.5 2.5 L 43.5 449.5" stroke-opacity="1" stroke-miterlimit="10"/><path fill="none" stroke="rgb(28,28,31)" paint-order="fill stroke markers" d=" M 43.5 1.5 L 39.5 5.5" stroke-opacity="1" stroke-miterlimit="10"/><path fill="none" stroke="rgb(28,28,31)" paint-order="fill stroke markers" d=" M 43.5 1.5 L 47.5 5.5" stroke-opacity="1" stroke-miterlimit="10"/><path fill="none" stroke="rgb(28,28,31)" paint-order="fill stroke markers" d=" M 0.5 422.5 L 348.5 422.5" stroke-opacity="1" stroke-miterlimit="10"/><path fill="none" stroke="rgb(28,28,31)" paint-order="fill stroke markers" d=" M 349.5 422.5 L 345.5 418.5" stroke-opacity="1" stroke-miterlimit="10"/><path fill="none" stroke="rgb(28,28,31)" paint-order="fill stroke markers" d=" M 349.5 422.5 L 345.5 426.5" stroke-opacity="1" stroke-miterlimit="10"/><text fill="rgb(28,28,31)" stroke="none" font-family="geogebra-sans-serif, sans-serif" font-size="12px" font-style="normal" font-weight="normal" text-decoration="normal" x="101" y="438" text-anchor="start" dominant-baseline="alphabetic" fill-opacity="1">1</text><text fill="rgb(28,28,31)" stroke="none" font-family="geogebra-sans-serif, sans-serif" font-size="12px" font-style="normal" font-weight="normal" text-decoration="normal" x="160" y="438" text-anchor="start" dominant-baseline="alphabetic" fill-opacity="1">2</text><text fill="rgb(28,28,31)" stroke="none" font-family="geogebra-sans-serif, sans-serif" font-size="12px" font-style="normal" font-weight="normal" text-decoration="normal" x="219" y="438" text-anchor="start" dominant-baseline="alphabetic" fill-opacity="1">3</text><text fill="rgb(28,28,31)" stroke="none" font-family="geogebra-sans-serif, sans-serif" font-size="12px" font-style="normal" font-weight="normal" text-decoration="normal" x="278" y="438" text-anchor="start" dominant-baseline="alphabetic" fill-opacity="1">4</text><text fill="rgb(28,28,31)" stroke="none" font-family="geogebra-sans-serif, sans-serif" font-size="12px" font-style="normal" font-weight="normal" text-decoration="normal" x="337" y="438" text-anchor="start" dominant-baseline="alphabetic" fill-opacity="1">5</text><text fill="rgb(28,28,31)" stroke="none" font-family="geogebra-sans-serif, sans-serif" font-size="12px" font-style="normal" font-weight="normal" text-decoration="normal" x="29" y="368" text-anchor="start" dominant-baseline="alphabetic" fill-opacity="1">1</text><text fill="rgb(28,28,31)" stroke="none" font-family="geogebra-sans-serif, sans-serif" font-size="12px" font-style="normal" font-weight="normal" text-decoration="normal" x="29" y="309" text-anchor="start" dominant-baseline="alphabetic" fill-opacity="1">2</text><text fill="rgb(28,28,31)" stroke="none" font-family="geogebra-sans-serif, sans-serif" font-size="12px" font-style="normal" font-weight="normal" text-decoration="normal" x="29" y="250" text-anchor="start" dominant-baseline="alphabetic" fill-opacity="1">3</text><text fill="rgb(28,28,31)" stroke="none" font-family="geogebra-sans-serif, sans-serif" font-size="12px" font-style="normal" font-weight="normal" text-decoration="normal" x="29" y="191" text-anchor="start" dominant-baseline="alphabetic" fill-opacity="1">4</text><text fill="rgb(28,28,31)" stroke="none" font-family="geogebra-sans-serif, sans-serif" font-size="12px" font-style="normal" font-weight="normal" text-decoration="normal" x="29" y="132" text-anchor="start" dominant-baseline="alphabetic" fill-opacity="1">5</text><text fill="rgb(28,28,31)" stroke="none" font-family="geogebra-sans-serif, sans-serif" font-size="12px" font-style="normal" font-weight="normal" text-decoration="normal" x="29" y="73" text-anchor="start" dominant-baseline="alphabetic" fill-opacity="1">6</text><text fill="rgb(28,28,31)" stroke="none" font-family="geogebra-sans-serif, sans-serif" font-size="12px" font-style="normal" font-weight="normal" text-decoration="normal" x="29" y="438" text-anchor="start" dominant-baseline="alphabetic" fill-opacity="1">0</text><path fill="none" stroke="rgb(0,103,88)" paint-order="fill stroke markers" d=" M 13.671874999999993 -10.600147957647835 L 16.406249999999996 -2.968666991138093 L 19.140625 4.561647881291265 L 21.874999999999996 11.990796659640296 L 24.609374999999996 19.318779343908943 L 27.34375 26.54559593409732 L 30.078125 33.67124643020537 L 32.8125 40.695730832233096 L 35.546875 47.61904914018044 L 38.28125 54.44120135404745 L 41.01562499999999 61.16218747383414 L 43.75 67.78200749954044 L 46.484375 74.30066143116642 L 49.21874999999999 80.71814926871207 L 51.953125 87.03447101217739 L 54.6875 93.24962666156239 L 57.42187499999999 99.363616216867 L 60.15625 105.37643967809134 L 62.89062499999999 111.2880970452353 L 65.625 117.09858831829894 L 68.359375 122.80791349728224 L 71.09375 128.41607258218517 L 73.828125 133.92306557300782 L 76.5625 139.3288924697501 L 79.296875 144.63355327241197 L 82.03125 149.8370479809936 L 84.765625 154.93937659549488 L 87.5 159.94053911591578 L 90.234375 164.84053554225636 L 92.96875 169.6393658745166 L 95.703125 174.33703011269654 L 98.4375 178.93352825679608 L 101.171875 183.42886030681535 L 103.90625 187.82302626275424 L 106.640625 192.11602612461277 L 109.375 196.307859892391 L 112.109375 200.3985275660889 L 114.84375 204.38802914570644 L 117.578125 208.27636463124364 L 120.31250000000001 212.0635340227005 L 123.04687499999999 215.749537320077 L 125.78124999999999 219.3343745233732 L 128.515625 222.81804563258905 L 131.25 226.20055064772455 L 133.984375 229.48188956877974 L 136.71875 232.66206239575456 L 139.453125 235.74106912864906 L 142.1875 238.71890976746323 L 144.921875 241.59558431219708 L 147.65625 244.37109276285054 L 150.390625 247.04543511942373 L 153.125 249.61861138191654 L 155.859375 252.090621550329 L 158.59375 254.4614656246611 L 161.328125 256.73114360491286 L 164.0625 258.89965549108433 L 166.796875 260.9670012831755 L 169.53125 262.93318098118624 L 172.265625 264.7981945851167 L 175 266.5620420949667 L 177.734375 268.22472351073657 L 180.46875 269.78623883242597 L 183.203125 271.24658806003504 L 185.9375 272.6057711935638 L 188.671875 273.8637882330122 L 191.40625 275.0206391783803 L 194.140625 276.07632402966806 L 196.875 277.03084278687544 L 199.609375 277.8841954500025 L 202.34375 278.6363820190492 L 205.078125 279.2874024940156 L 207.8125 279.83725687490164 L 210.546875 280.28594516170733 L 213.28125 280.6334673544327 L 216.015625 280.87982345307773 L 218.75 281.02501345764244 L 221.484375 281.06903736812677 L 224.21875 281.0118951845308 L 226.953125 280.8535869068545 L 229.6875 280.5941125350978 L 232.421875 280.2334720692608 L 235.15625 279.7716655093435 L 237.890625 279.2086928553458 L 240.62500000000003 278.5445541072678 L 243.359375 277.77924926510946 L 246.09374999999997 276.9127783288708 L 248.828125 275.9451412985517 L 251.56249999999997 274.87633817415235 L 254.296875 273.7063689556727 L 257.03125 272.4352336431126 L 259.765625 271.0629322364722 L 262.5 269.5894647357515 L 265.234375 268.01483114095043 L 267.96875 266.3390314520691 L 270.703125 264.5620656691073 L 273.4375 262.6839337920652 L 276.171875 260.7046358209428 L 278.90625 258.6241717557401 L 281.640625 256.442541596457 L 284.375 254.15974534309356 L 287.109375 251.77578299564985 L 289.84375 249.29065455412572 L 292.578125 246.70436001852127 L 295.3125 244.0168993888365 L 298.046875 241.2282726650714 L 300.78125 238.3384798472259 L 303.515625 235.34752093530014 L 306.25 232.255395929294 L 308.984375 229.06210482920756 L 311.71875 225.7676476350407 L 314.453125 222.37202434679358 L 317.1875 218.87523496446613 L 319.921875 215.27727948805827 L 322.65625 211.57815791757017 L 325.390625 207.7778702530016 L 328.125 203.8764164943528 L 330.859375 199.87379664162358 L 333.59375 195.77001069481412 L 336.328125 191.5650586539242 L 339.0625 187.2589405189541 L 341.796875 182.85165628990353 L 344.53125 178.34320596677267 L 347.265625 173.73358954956143 L 350 169.02280703826992" stroke-opacity="0.8" stroke-linecap="round" stroke-linejoin="round" stroke-miterlimit="10" stroke-width="2.5"/><text fill="rgb(0,103,88)" stroke="none" font-family="geogebra-sans-serif, sans-serif" font-size="16px" font-style="normal" font-weight="normal" text-decoration="normal" x="24" y="24" text-anchor="start" dominant-baseline="alphabetic" fill-opacity="1">f</text><path fill="none" stroke="rgb(21,101,192)" paint-order="fill stroke markers" d=" M -5 186.46925000000059 L 355 186.46925000000059" stroke-opacity="0.8" stroke-linecap="round" stroke-linejoin="round" stroke-miterlimit="10" stroke-width="2.5"/></g></g></svg>