<svg version="1.1" xmlns="http://www.w3.org/2000/svg" xmlns:xlink="http://www.w3.org/1999/xlink" width="596" height="682"><defs><clipPath id="StccLMmeTUGf"><path fill="none" stroke="none" d=" M 0 0 L 596 0 L 596 682 L 0 682 L 0 0 Z"/></clipPath></defs><g transform="scale(1,1)" clip-path="url(#StccLMmeTUGf)"><g><rect fill="rgb(255,255,255)" stroke="none" x="0" y="0" width="596" height="682" fill-opacity="1"/><path fill="none" stroke="rgb(192,192,192)" paint-order="fill stroke markers" d=" M 8.5 0.5 L 8.5 682.5 M 8.5 0.5 L 8.5 682.5 M 126.5 0.5 L 126.5 682.5 M 186.5 0.5 L 186.5 682.5 M 245.5 0.5 L 245.5 682.5 M 304.5 0.5 L 304.5 682.5 M 363.5 0.5 L 363.5 682.5 M 423.5 0.5 L 423.5 682.5 M 482.5 0.5 L 482.5 682.5 M 541.5 0.5 L 541.5 682.5" stroke-opacity="1" stroke-linecap="round" stroke-linejoin="round" stroke-miterlimit="10"/><path fill="none" stroke="rgb(192,192,192)" paint-order="fill stroke markers" d=" M 20.5 0.5 L 20.5 682.5 M 32.5 0.5 L 32.5 682.5 M 43.5 0.5 L 43.5 682.5 M 55.5 0.5 L 55.5 682.5 M 79.5 0.5 L 79.5 682.5 M 91.5 0.5 L 91.5 682.5 M 103.5 0.5 L 103.5 682.5 M 114.5 0.5 L 114.5 682.5 M 138.5 0.5 L 138.5 682.5 M 150.5 0.5 L 150.5 682.5 M 162.5 0.5 L 162.5 682.5 M 174.5 0.5 L 174.5 682.5 M 197.5 0.5 L 197.5 682.5 M 209.5 0.5 L 209.5 682.5 M 221.5 0.5 L 221.5 682.5 M 233.5 0.5 L 233.5 682.5 M 257.5 0.5 L 257.5 682.5 M 269.5 0.5 L 269.5 682.5 M 280.5 0.5 L 280.5 682.5 M 292.5 0.5 L 292.5 682.5 M 316.5 0.5 L 316.5 682.5 M 328.5 0.5 L 328.5 682.5 M 340.5 0.5 L 340.5 682.5 M 351.5 0.5 L 351.5 682.5 M 375.5 0.5 L 375.5 682.5 M 387.5 0.5 L 387.5 682.5 M 399.5 0.5 L 399.5 682.5 M 411.5 0.5 L 411.5 682.5 M 434.5 0.5 L 434.5 682.5 M 446.5 0.5 L 446.5 682.5 M 458.5 0.5 L 458.5 682.5 M 470.5 0.5 L 470.5 682.5 M 494.5 0.5 L 494.5 682.5 M 506.5 0.5 L 506.5 682.5 M 517.5 0.5 L 517.5 682.5 M 529.5 0.5 L 529.5 682.5 M 553.5 0.5 L 553.5 682.5 M 565.5 0.5 L 565.5 682.5 M 577.5 0.5 L 577.5 682.5 M 588.5 0.5 L 588.5 682.5" stroke-opacity="0.23529411764705882" stroke-linecap="round" stroke-linejoin="round" stroke-miterlimit="10"/><path fill="none" stroke="rgb(192,192,192)" paint-order="fill stroke markers" d=" M 0.5 117.5 L 596.5 117.5 M 0.5 176.5 L 596.5 176.5 M 0.5 235.5 L 596.5 235.5 M 0.5 295.5 L 596.5 295.5 M 0.5 354.5 L 596.5 354.5 M 0.5 413.5 L 596.5 413.5 M 0.5 472.5 L 596.5 472.5 M 0.5 532.5 L 596.5 532.5 M 0.5 591.5 L 596.5 591.5 M 0.5 650.5 L 596.5 650.5" stroke-opacity="1" stroke-linecap="round" stroke-linejoin="round" stroke-miterlimit="10"/><path fill="none" stroke="rgb(192,192,192)" paint-order="fill stroke markers" d=" M 0.5 10.5 L 596.5 10.5 M 0.5 22.5 L 596.5 22.5 M 0.5 34.5 L 596.5 34.5 M 0.5 46.5 L 596.5 46.5 M 0.5 69.5 L 596.5 69.5 M 0.5 81.5 L 596.5 81.5 M 0.5 93.5 L 596.5 93.5 M 0.5 105.5 L 596.5 105.5 M 0.5 129.5 L 596.5 129.5 M 0.5 141.5 L 596.5 141.5 M 0.5 152.5 L 596.5 152.5 M 0.5 164.5 L 596.5 164.5 M 0.5 188.5 L 596.5 188.5 M 0.5 200.5 L 596.5 200.5 M 0.5 212.5 L 596.5 212.5 M 0.5 224.5 L 596.5 224.5 M 0.5 247.5 L 596.5 247.5 M 0.5 259.5 L 596.5 259.5 M 0.5 271.5 L 596.5 271.5 M 0.5 283.5 L 596.5 283.5 M 0.5 307.5 L 596.5 307.5 M 0.5 318.5 L 596.5 318.5 M 0.5 330.5 L 596.5 330.5 M 0.5 342.5 L 596.5 342.5 M 0.5 366.5 L 596.5 366.5 M 0.5 378.5 L 596.5 378.5 M 0.5 389.5 L 596.5 389.5 M 0.5 401.5 L 596.5 401.5 M 0.5 425.5 L 596.5 425.5 M 0.5 437.5 L 596.5 437.5 M 0.5 449.5 L 596.5 449.5 M 0.5 461.5 L 596.5 461.5 M 0.5 484.5 L 596.5 484.5 M 0.5 496.5 L 596.5 496.5 M 0.5 508.5 L 596.5 508.5 M 0.5 520.5 L 596.5 520.5 M 0.5 544.5 L 596.5 544.5 M 0.5 555.5 L 596.5 555.5 M 0.5 567.5 L 596.5 567.5 M 0.5 579.5 L 596.5 579.5 M 0.5 603.5 L 596.5 603.5 M 0.5 615.5 L 596.5 615.5 M 0.5 626.5 L 596.5 626.5 M 0.5 638.5 L 596.5 638.5 M 0.5 662.5 L 596.5 662.5 M 0.5 674.5 L 596.5 674.5" stroke-opacity="0.23529411764705882" stroke-linecap="round" stroke-linejoin="round" stroke-miterlimit="10"/><path fill="none" stroke="rgb(0,0,0)" paint-order="fill stroke markers" d=" M 67.5 2.5 L 67.5 682.5" stroke-opacity="1" stroke-miterlimit="10"/><path fill="none" stroke="rgb(0,0,0)" paint-order="fill stroke markers" d=" M 67.5 1.5 L 63.5 5.5" stroke-opacity="1" stroke-miterlimit="10"/><path fill="none" stroke="rgb(0,0,0)" paint-order="fill stroke markers" d=" M 67.5 1.5 L 71.5 5.5" stroke-opacity="1" stroke-miterlimit="10"/><path fill="none" stroke="rgb(0,0,0)" paint-order="fill stroke markers" d=" M 0.5 58.5 L 594.5 58.5" stroke-opacity="1" stroke-miterlimit="10"/><path fill="none" stroke="rgb(0,0,0)" paint-order="fill stroke markers" d=" M 595.5 58.5 L 591.5 54.5" stroke-opacity="1" stroke-miterlimit="10"/><path fill="none" stroke="rgb(0,0,0)" paint-order="fill stroke markers" d=" M 595.5 58.5 L 591.5 62.5" stroke-opacity="1" stroke-miterlimit="10"/><text fill="rgb(0,0,0)" stroke="none" font-family="geogebra-sans-serif, sans-serif" font-size="12px" font-style="normal" font-weight="normal" text-decoration="normal" x="118" y="74" text-anchor="start" dominant-baseline="alphabetic" fill-opacity="1">0.5</text><text fill="none" stroke="rgb(255,255,255)" font-family="geogebra-sans-serif, sans-serif" font-size="12px" font-style="normal" font-weight="normal" text-decoration="normal" x="118" y="74" text-anchor="start" dominant-baseline="alphabetic" stroke-opacity="1" stroke-linejoin="bevel" stroke-miterlimit="10" stroke-width="3">0.5</text><text fill="rgb(0,0,0)" stroke="none" font-family="geogebra-sans-serif, sans-serif" font-size="12px" font-style="normal" font-weight="normal" text-decoration="normal" x="118" y="74" text-anchor="start" dominant-baseline="alphabetic" fill-opacity="1">0.5</text><text fill="rgb(0,0,0)" stroke="none" font-family="geogebra-sans-serif, sans-serif" font-size="12px" font-style="normal" font-weight="normal" text-decoration="normal" x="184" y="74" text-anchor="start" dominant-baseline="alphabetic" fill-opacity="1">1</text><text fill="none" stroke="rgb(255,255,255)" font-family="geogebra-sans-serif, sans-serif" font-size="12px" font-style="normal" font-weight="normal" text-decoration="normal" x="184" y="74" text-anchor="start" dominant-baseline="alphabetic" stroke-opacity="1" stroke-linejoin="bevel" stroke-miterlimit="10" stroke-width="3">1</text><text fill="rgb(0,0,0)" stroke="none" font-family="geogebra-sans-serif, sans-serif" font-size="12px" font-style="normal" font-weight="normal" text-decoration="normal" x="184" y="74" text-anchor="start" dominant-baseline="alphabetic" fill-opacity="1">1</text><text fill="rgb(0,0,0)" stroke="none" font-family="geogebra-sans-serif, sans-serif" font-size="12px" font-style="normal" font-weight="normal" text-decoration="normal" x="237" y="74" text-anchor="start" dominant-baseline="alphabetic" fill-opacity="1">1.5</text><text fill="none" stroke="rgb(255,255,255)" font-family="geogebra-sans-serif, sans-serif" font-size="12px" font-style="normal" font-weight="normal" text-decoration="normal" x="237" y="74" text-anchor="start" dominant-baseline="alphabetic" stroke-opacity="1" stroke-linejoin="bevel" stroke-miterlimit="10" stroke-width="3">1.5</text><text fill="rgb(0,0,0)" stroke="none" font-family="geogebra-sans-serif, sans-serif" font-size="12px" font-style="normal" font-weight="normal" text-decoration="normal" x="237" y="74" text-anchor="start" dominant-baseline="alphabetic" fill-opacity="1">1.5</text><text fill="rgb(0,0,0)" stroke="none" font-family="geogebra-sans-serif, sans-serif" font-size="12px" font-style="normal" font-weight="normal" text-decoration="normal" x="302" y="74" text-anchor="start" dominant-baseline="alphabetic" fill-opacity="1">2</text><text fill="none" stroke="rgb(255,255,255)" font-family="geogebra-sans-serif, sans-serif" font-size="12px" font-style="normal" font-weight="normal" text-decoration="normal" x="302" y="74" text-anchor="start" dominant-baseline="alphabetic" stroke-opacity="1" stroke-linejoin="bevel" stroke-miterlimit="10" stroke-width="3">2</text><text fill="rgb(0,0,0)" stroke="none" font-family="geogebra-sans-serif, sans-serif" font-size="12px" font-style="normal" font-weight="normal" text-decoration="normal" x="302" y="74" text-anchor="start" dominant-baseline="alphabetic" fill-opacity="1">2</text><text fill="rgb(0,0,0)" stroke="none" font-family="geogebra-sans-serif, sans-serif" font-size="12px" font-style="normal" font-weight="normal" text-decoration="normal" x="355" y="74" text-anchor="start" dominant-baseline="alphabetic" fill-opacity="1">2.5</text><text fill="none" stroke="rgb(255,255,255)" font-family="geogebra-sans-serif, sans-serif" font-size="12px" font-style="normal" font-weight="normal" text-decoration="normal" x="355" y="74" text-anchor="start" dominant-baseline="alphabetic" stroke-opacity="1" stroke-linejoin="bevel" stroke-miterlimit="10" stroke-width="3">2.5</text><text fill="rgb(0,0,0)" stroke="none" font-family="geogebra-sans-serif, sans-serif" font-size="12px" font-style="normal" font-weight="normal" text-decoration="normal" x="355" y="74" text-anchor="start" dominant-baseline="alphabetic" fill-opacity="1">2.5</text><text fill="rgb(0,0,0)" stroke="none" font-family="geogebra-sans-serif, sans-serif" font-size="12px" font-style="normal" font-weight="normal" text-decoration="normal" x="421" y="74" text-anchor="start" dominant-baseline="alphabetic" fill-opacity="1">3</text><text fill="none" stroke="rgb(255,255,255)" font-family="geogebra-sans-serif, sans-serif" font-size="12px" font-style="normal" font-weight="normal" text-decoration="normal" x="421" y="74" text-anchor="start" dominant-baseline="alphabetic" stroke-opacity="1" stroke-linejoin="bevel" stroke-miterlimit="10" stroke-width="3">3</text><text fill="rgb(0,0,0)" stroke="none" font-family="geogebra-sans-serif, sans-serif" font-size="12px" font-style="normal" font-weight="normal" text-decoration="normal" x="421" y="74" text-anchor="start" dominant-baseline="alphabetic" fill-opacity="1">3</text><text fill="rgb(0,0,0)" stroke="none" font-family="geogebra-sans-serif, sans-serif" font-size="12px" font-style="normal" font-weight="normal" text-decoration="normal" x="474" y="74" text-anchor="start" dominant-baseline="alphabetic" fill-opacity="1">3.5</text><text fill="none" stroke="rgb(255,255,255)" font-family="geogebra-sans-serif, sans-serif" font-size="12px" font-style="normal" font-weight="normal" text-decoration="normal" x="474" y="74" text-anchor="start" dominant-baseline="alphabetic" stroke-opacity="1" stroke-linejoin="bevel" stroke-miterlimit="10" stroke-width="3">3.5</text><text fill="rgb(0,0,0)" stroke="none" font-family="geogebra-sans-serif, sans-serif" font-size="12px" font-style="normal" font-weight="normal" text-decoration="normal" x="474" y="74" text-anchor="start" dominant-baseline="alphabetic" fill-opacity="1">3.5</text><text fill="rgb(0,0,0)" stroke="none" font-family="geogebra-sans-serif, sans-serif" font-size="12px" font-style="normal" font-weight="normal" text-decoration="normal" x="539" y="74" text-anchor="start" dominant-baseline="alphabetic" fill-opacity="1">4</text><text fill="none" stroke="rgb(255,255,255)" font-family="geogebra-sans-serif, sans-serif" font-size="12px" font-style="normal" font-weight="normal" text-decoration="normal" x="539" y="74" text-anchor="start" dominant-baseline="alphabetic" stroke-opacity="1" stroke-linejoin="bevel" stroke-miterlimit="10" stroke-width="3">4</text><text fill="rgb(0,0,0)" stroke="none" font-family="geogebra-sans-serif, sans-serif" font-size="12px" font-style="normal" font-weight="normal" text-decoration="normal" x="539" y="74" text-anchor="start" dominant-baseline="alphabetic" fill-opacity="1">4</text><text fill="rgb(0,0,0)" stroke="none" font-family="geogebra-sans-serif, sans-serif" font-size="12px" font-style="normal" font-weight="normal" text-decoration="normal" x="47" y="655" text-anchor="start" dominant-baseline="alphabetic" fill-opacity="1">–5</text><text fill="none" stroke="rgb(255,255,255)" font-family="geogebra-sans-serif, sans-serif" font-size="12px" font-style="normal" font-weight="normal" text-decoration="normal" x="47" y="655" text-anchor="start" dominant-baseline="alphabetic" stroke-opacity="1" stroke-linejoin="bevel" stroke-miterlimit="10" stroke-width="3">–5</text><text fill="rgb(0,0,0)" stroke="none" font-family="geogebra-sans-serif, sans-serif" font-size="12px" font-style="normal" font-weight="normal" text-decoration="normal" x="47" y="655" text-anchor="start" dominant-baseline="alphabetic" fill-opacity="1">–5</text><text fill="rgb(0,0,0)" stroke="none" font-family="geogebra-sans-serif, sans-serif" font-size="12px" font-style="normal" font-weight="normal" text-decoration="normal" x="37" y="596" text-anchor="start" dominant-baseline="alphabetic" fill-opacity="1">–4.5</text><text fill="none" stroke="rgb(255,255,255)" font-family="geogebra-sans-serif, sans-serif" font-size="12px" font-style="normal" font-weight="normal" text-decoration="normal" x="37" y="596" text-anchor="start" dominant-baseline="alphabetic" stroke-opacity="1" stroke-linejoin="bevel" stroke-miterlimit="10" stroke-width="3">–4.5</text><text fill="rgb(0,0,0)" stroke="none" font-family="geogebra-sans-serif, sans-serif" font-size="12px" font-style="normal" font-weight="normal" text-decoration="normal" x="37" y="596" text-anchor="start" dominant-baseline="alphabetic" fill-opacity="1">–4.5</text><text fill="rgb(0,0,0)" stroke="none" font-family="geogebra-sans-serif, sans-serif" font-size="12px" font-style="normal" font-weight="normal" text-decoration="normal" x="47" y="537" text-anchor="start" dominant-baseline="alphabetic" fill-opacity="1">–4</text><text fill="none" stroke="rgb(255,255,255)" font-family="geogebra-sans-serif, sans-serif" font-size="12px" font-style="normal" font-weight="normal" text-decoration="normal" x="47" y="537" text-anchor="start" dominant-baseline="alphabetic" stroke-opacity="1" stroke-linejoin="bevel" stroke-miterlimit="10" stroke-width="3">–4</text><text fill="rgb(0,0,0)" stroke="none" font-family="geogebra-sans-serif, sans-serif" font-size="12px" font-style="normal" font-weight="normal" text-decoration="normal" x="47" y="537" text-anchor="start" dominant-baseline="alphabetic" fill-opacity="1">–4</text><text fill="rgb(0,0,0)" stroke="none" font-family="geogebra-sans-serif, sans-serif" font-size="12px" font-style="normal" font-weight="normal" text-decoration="normal" x="37" y="477" text-anchor="start" dominant-baseline="alphabetic" fill-opacity="1">–3.5</text><text fill="none" stroke="rgb(255,255,255)" font-family="geogebra-sans-serif, sans-serif" font-size="12px" font-style="normal" font-weight="normal" text-decoration="normal" x="37" y="477" text-anchor="start" dominant-baseline="alphabetic" stroke-opacity="1" stroke-linejoin="bevel" stroke-miterlimit="10" stroke-width="3">–3.5</text><text fill="rgb(0,0,0)" stroke="none" font-family="geogebra-sans-serif, sans-serif" font-size="12px" font-style="normal" font-weight="normal" text-decoration="normal" x="37" y="477" text-anchor="start" dominant-baseline="alphabetic" fill-opacity="1">–3.5</text><text fill="rgb(0,0,0)" stroke="none" font-family="geogebra-sans-serif, sans-serif" font-size="12px" font-style="normal" font-weight="normal" text-decoration="normal" x="47" y="418" text-anchor="start" dominant-baseline="alphabetic" fill-opacity="1">–3</text><text fill="none" stroke="rgb(255,255,255)" font-family="geogebra-sans-serif, sans-serif" font-size="12px" font-style="normal" font-weight="normal" text-decoration="normal" x="47" y="418" text-anchor="start" dominant-baseline="alphabetic" stroke-opacity="1" stroke-linejoin="bevel" stroke-miterlimit="10" stroke-width="3">–3</text><text fill="rgb(0,0,0)" stroke="none" font-family="geogebra-sans-serif, sans-serif" font-size="12px" font-style="normal" font-weight="normal" text-decoration="normal" x="47" y="418" text-anchor="start" dominant-baseline="alphabetic" fill-opacity="1">–3</text><text fill="rgb(0,0,0)" stroke="none" font-family="geogebra-sans-serif, sans-serif" font-size="12px" font-style="normal" font-weight="normal" text-decoration="normal" x="37" y="359" text-anchor="start" dominant-baseline="alphabetic" fill-opacity="1">–2.5</text><text fill="none" stroke="rgb(255,255,255)" font-family="geogebra-sans-serif, sans-serif" font-size="12px" font-style="normal" font-weight="normal" text-decoration="normal" x="37" y="359" text-anchor="start" dominant-baseline="alphabetic" stroke-opacity="1" stroke-linejoin="bevel" stroke-miterlimit="10" stroke-width="3">–2.5</text><text fill="rgb(0,0,0)" stroke="none" font-family="geogebra-sans-serif, sans-serif" font-size="12px" font-style="normal" font-weight="normal" text-decoration="normal" x="37" y="359" text-anchor="start" dominant-baseline="alphabetic" fill-opacity="1">–2.5</text><text fill="rgb(0,0,0)" stroke="none" font-family="geogebra-sans-serif, sans-serif" font-size="12px" font-style="normal" font-weight="normal" text-decoration="normal" x="47" y="300" text-anchor="start" dominant-baseline="alphabetic" fill-opacity="1">–2</text><text fill="none" stroke="rgb(255,255,255)" font-family="geogebra-sans-serif, sans-serif" font-size="12px" font-style="normal" font-weight="normal" text-decoration="normal" x="47" y="300" text-anchor="start" dominant-baseline="alphabetic" stroke-opacity="1" stroke-linejoin="bevel" stroke-miterlimit="10" stroke-width="3">–2</text><text fill="rgb(0,0,0)" stroke="none" font-family="geogebra-sans-serif, sans-serif" font-size="12px" font-style="normal" font-weight="normal" text-decoration="normal" x="47" y="300" text-anchor="start" dominant-baseline="alphabetic" fill-opacity="1">–2</text><text fill="rgb(0,0,0)" stroke="none" font-family="geogebra-sans-serif, sans-serif" font-size="12px" font-style="normal" font-weight="normal" text-decoration="normal" x="37" y="240" text-anchor="start" dominant-baseline="alphabetic" fill-opacity="1">–1.5</text><text fill="none" stroke="rgb(255,255,255)" font-family="geogebra-sans-serif, sans-serif" font-size="12px" font-style="normal" font-weight="normal" text-decoration="normal" x="37" y="240" text-anchor="start" dominant-baseline="alphabetic" stroke-opacity="1" stroke-linejoin="bevel" stroke-miterlimit="10" stroke-width="3">–1.5</text><text fill="rgb(0,0,0)" stroke="none" font-family="geogebra-sans-serif, sans-serif" font-size="12px" font-style="normal" font-weight="normal" text-decoration="normal" x="37" y="240" text-anchor="start" dominant-baseline="alphabetic" fill-opacity="1">–1.5</text><text fill="rgb(0,0,0)" stroke="none" font-family="geogebra-sans-serif, sans-serif" font-size="12px" font-style="normal" font-weight="normal" text-decoration="normal" x="47" y="181" text-anchor="start" dominant-baseline="alphabetic" fill-opacity="1">–1</text><text fill="none" stroke="rgb(255,255,255)" font-family="geogebra-sans-serif, sans-serif" font-size="12px" font-style="normal" font-weight="normal" text-decoration="normal" x="47" y="181" text-anchor="start" dominant-baseline="alphabetic" stroke-opacity="1" stroke-linejoin="bevel" stroke-miterlimit="10" stroke-width="3">–1</text><text fill="rgb(0,0,0)" stroke="none" font-family="geogebra-sans-serif, sans-serif" font-size="12px" font-style="normal" font-weight="normal" text-decoration="normal" x="47" y="181" text-anchor="start" dominant-baseline="alphabetic" fill-opacity="1">–1</text><text fill="rgb(0,0,0)" stroke="none" font-family="geogebra-sans-serif, sans-serif" font-size="12px" font-style="normal" font-weight="normal" text-decoration="normal" x="37" y="122" text-anchor="start" dominant-baseline="alphabetic" fill-opacity="1">–0.5</text><text fill="none" stroke="rgb(255,255,255)" font-family="geogebra-sans-serif, sans-serif" font-size="12px" font-style="normal" font-weight="normal" text-decoration="normal" x="37" y="122" text-anchor="start" dominant-baseline="alphabetic" stroke-opacity="1" stroke-linejoin="bevel" stroke-miterlimit="10" stroke-width="3">–0.5</text><text fill="rgb(0,0,0)" stroke="none" font-family="geogebra-sans-serif, sans-serif" font-size="12px" font-style="normal" font-weight="normal" text-decoration="normal" x="37" y="122" text-anchor="start" dominant-baseline="alphabetic" fill-opacity="1">–0.5</text><text fill="rgb(0,0,0)" stroke="none" font-family="geogebra-sans-serif, sans-serif" font-size="12px" font-style="normal" font-weight="normal" text-decoration="normal" x="53" y="74" text-anchor="start" dominant-baseline="alphabetic" fill-opacity="1">0</text><text fill="none" stroke="rgb(255,255,255)" font-family="geogebra-sans-serif, sans-serif" font-size="12px" font-style="normal" font-weight="normal" text-decoration="normal" x="53" y="74" text-anchor="start" dominant-baseline="alphabetic" stroke-opacity="1" stroke-linejoin="bevel" stroke-miterlimit="10" stroke-width="3">0</text><text fill="rgb(0,0,0)" stroke="none" font-family="geogebra-sans-serif, sans-serif" font-size="12px" font-style="normal" font-weight="normal" text-decoration="normal" x="53" y="74" text-anchor="start" dominant-baseline="alphabetic" fill-opacity="1">0</text><path fill="none" stroke="rgb(0,0,0)" paint-order="fill stroke markers" d=" M 1 665.3248938919018 L 1 667.3248938919018 L 1 665.3248938919018 L 2.000000000000014 663.3248938919016 L 2.000000000000014 663.3248938919016 L 3.000000000000014 661.3248938919018 L 3.000000000000014 661.3248938919018 L 4.000000000000014 659.3248938919018 L 4.000000000000014 659.3248938919018 L 5.000000000000014 657.3248938919016 L 5.000000000000014 657.3248938919016 L 6.000000000000014 655.3248938919018 L 6.000000000000014 655.3248938919018 L 7.000000000000021 653.3248938919018 L 7.000000000000021 653.3248938919018 L 8.000000000000021 651.3248938919018 L 8.000000000000021 651.3248938919018 L 9.000000000000021 649.3248938919016 L 9.000000000000021 649.3248938919016 L 10.000000000000021 647.3248938919016 L 10.000000000000021 647.3248938919016 L 11.000000000000028 645.3248938919018 L 11.000000000000028 645.3248938919018 L 12.000000000000028 643.3248938919016 L 12.000000000000028 643.3248938919016 L 13.000000000000028 641.3248938919016 L 13.000000000000028 641.3248938919016 L 14.000000000000036 639.3248938919018 L 14.000000000000036 639.3248938919018 L 15.000000000000036 637.3248938919016 L 15.000000000000036 637.3248938919016 L 16.000000000000036 635.3248938919016 L 16.000000000000036 635.3248938919016 L 17.000000000000036 633.3248938919016 L 17.000000000000036 633.3248938919016 L 18.000000000000043 631.3248938919016 L 18.000000000000043 631.3248938919016 L 19.000000000000043 629.3248938919016 L 19.000000000000043 629.3248938919016 L 20.000000000000043 627.3248938919016 L 20.000000000000043 627.3248938919016 L 21.00000000000005 625.3248938919016 L 21.00000000000005 625.3248938919016 L 22.00000000000005 623.3248938919016 L 22.00000000000005 623.3248938919016 L 23.00000000000005 621.3248938919016 L 23.00000000000005 621.3248938919016 L 24.00000000000005 619.3248938919016 L 24.00000000000005 619.3248938919016 L 25.000000000000057 617.3248938919016 L 25.000000000000057 617.3248938919016 L 26.000000000000057 615.3248938919015 L 26.000000000000057 615.3248938919015 L 27.000000000000057 613.3248938919016 L 27.000000000000057 613.3248938919016 L 28.000000000000064 611.3248938919016 L 28.000000000000064 611.3248938919016 L 29.000000000000064 609.3248938919015 L 29.000000000000064 609.3248938919015 L 30.000000000000064 607.3248938919016 L 30.000000000000064 607.3248938919016 L 31.000000000000064 605.3248938919016 L 31.000000000000064 605.3248938919016 L 32.00000000000007 603.3248938919015 L 32.00000000000007 603.3248938919015 L 33.00000000000007 601.3248938919015 L 33.00000000000007 601.3248938919015 L 34.00000000000007 599.3248938919015 L 34.00000000000007 599.3248938919015 L 35.00000000000007 597.3248938919016 L 35.00000000000007 597.3248938919016 L 36.00000000000008 595.3248938919015 L 36.00000000000008 595.3248938919015 L 37.00000000000008 593.3248938919015 L 37.00000000000008 593.3248938919015 L 38.00000000000008 591.3248938919016 L 38.00000000000008 591.3248938919016 L 39.00000000000007 589.3248938919015 L 39.00000000000007 589.3248938919015 L 40.00000000000007 587.3248938919015 L 40.00000000000007 587.3248938919015 L 41.00000000000007 585.3248938919015 L 41.00000000000007 585.3248938919015 L 42.00000000000007 583.3248938919015 L 42.00000000000007 583.3248938919015 L 43.00000000000007 581.3248938919015 L 43.00000000000007 581.3248938919015 L 44.00000000000007 579.3248938919015 L 44.00000000000007 579.3248938919015 L 45.00000000000007 577.3248938919016 L 45.00000000000007 577.3248938919016 L 46.00000000000007 575.3248938919015 L 46.00000000000007 575.3248938919015 L 47.000000000000064 573.3248938919015 L 47.000000000000064 573.3248938919015 L 48.000000000000064 571.3248938919016 L 48.000000000000064 571.3248938919016 L 49.000000000000064 569.3248938919015 L 49.000000000000064 569.3248938919015 L 50.00000000000006 567.3248938919015 L 50.00000000000006 567.3248938919015 L 51.00000000000006 565.3248938919015 L 51.00000000000006 565.3248938919015 L 52.00000000000006 563.3248938919015 L 52.00000000000006 563.3248938919015 L 53.00000000000006 561.3248938919015 L 53.00000000000006 561.3248938919015 L 54.00000000000006 559.3248938919015 L 54.00000000000006 559.3248938919015 L 55.00000000000006 557.3248938919015 L 55.00000000000006 557.3248938919015 L 56.00000000000006 555.3248938919015 L 56.00000000000006 555.3248938919015 L 57.00000000000006 553.3248938919015 L 57.00000000000006 553.3248938919015 L 58.00000000000006 551.3248938919015 L 58.00000000000006 551.3248938919015 L 59.000000000000064 549.3248938919015 L 59.000000000000064 549.3248938919015 L 60.000000000000064 547.3248938919015 L 60.000000000000064 547.3248938919015 L 61.000000000000064 545.3248938919015 L 61.000000000000064 545.3248938919015 L 62.000000000000064 543.3248938919015 L 62.000000000000064 543.3248938919015 L 63.000000000000064 541.3248938919015 L 63.000000000000064 541.3248938919015 L 64.00000000000006 539.3248938919015 L 64.00000000000006 539.3248938919015 L 65.00000000000006 537.3248938919015 L 65.00000000000006 537.3248938919015 L 66.00000000000006 535.3248938919015 L 66.00000000000006 535.3248938919015 L 67.00000000000006 533.3248938919015 L 67.00000000000006 533.3248938919015 L 68.00000000000006 531.3248938919015 L 68.00000000000006 531.3248938919015 L 69.00000000000006 529.3248938919015 L 69.00000000000006 529.3248938919015 L 70.00000000000006 527.3248938919015 L 70.00000000000006 527.3248938919015 L 71.00000000000006 525.3248938919015 L 71.00000000000006 525.3248938919015 L 72.00000000000006 523.3248938919015 L 72.00000000000006 523.3248938919015 L 73.00000000000006 521.3248938919015 L 73.00000000000006 521.3248938919015 L 74.00000000000006 519.3248938919015 L 74.00000000000006 519.3248938919015 L 75.00000000000006 517.3248938919015 L 75.00000000000006 517.3248938919015 L 76.00000000000006 515.3248938919015 L 76.00000000000006 515.3248938919015 L 77.00000000000006 513.3248938919015 L 77.00000000000006 513.3248938919015 L 78.00000000000007 511.3248938919015 L 78.00000000000007 511.3248938919015 L 79.00000000000007 509.3248938919015 L 79.00000000000007 509.3248938919015 L 80.00000000000007 507.3248938919015 L 80.00000000000007 507.3248938919015 L 81.00000000000007 505.3248938919015 L 81.00000000000007 505.3248938919015 L 82.00000000000007 503.3248938919015 L 82.00000000000007 503.3248938919015 L 83.00000000000007 501.3248938919015 L 83.00000000000007 501.3248938919015 L 84.00000000000006 499.3248938919015 L 84.00000000000006 499.3248938919015 L 85.00000000000006 497.3248938919015 L 85.00000000000006 497.3248938919015 L 86.00000000000006 495.3248938919015 L 86.00000000000006 495.3248938919015 L 87.00000000000006 493.3248938919015 L 87.00000000000006 493.3248938919015 L 88.00000000000006 491.3248938919015 L 88.00000000000006 491.3248938919015 L 89.00000000000006 489.3248938919015 L 89.00000000000006 489.3248938919015 L 90.00000000000006 487.3248938919015 L 90.00000000000006 487.3248938919015 L 91.00000000000006 485.3248938919015 L 91.00000000000006 485.3248938919015 L 92.00000000000006 483.3248938919015 L 92.00000000000006 483.3248938919015 L 93.00000000000006 481.3248938919015 L 93.00000000000006 481.3248938919015 L 94.00000000000006 479.3248938919015 L 94.00000000000006 479.3248938919015 L 95.00000000000006 477.3248938919015 L 95.00000000000006 477.3248938919015 L 96.00000000000006 475.3248938919016 L 96.00000000000006 475.3248938919016 L 97.00000000000004 473.3248938919015 L 97.00000000000004 473.3248938919015 L 98.00000000000006 471.3248938919015 L 98.00000000000006 471.3248938919015 L 99.00000000000006 469.3248938919015 L 99.00000000000006 469.3248938919015 L 100.00000000000006 467.3248938919015 L 100.00000000000006 467.3248938919015 L 101.00000000000006 465.3248938919015 L 101.00000000000006 465.3248938919015 L 102.00000000000006 463.3248938919015 L 102.00000000000006 463.3248938919015 L 103.00000000000006 461.32489389190147 L 103.00000000000006 461.32489389190147 L 104.00000000000006 459.3248938919015 L 104.00000000000006 459.3248938919015 L 105.00000000000006 457.32489389190147 L 105.00000000000006 457.32489389190147 L 106.00000000000006 455.3248938919015 L 106.00000000000006 455.3248938919015 L 107.00000000000006 453.32489389190147 L 107.00000000000006 453.32489389190147 L 108.00000000000007 451.32489389190147 L 108.00000000000007 451.32489389190147 L 109.00000000000007 449.32489389190147 L 109.00000000000007 449.32489389190147 L 110.00000000000007 447.32489389190147 L 110.00000000000007 447.32489389190147 L 111.00000000000009 445.32489389190147 L 111.00000000000009 445.32489389190147 L 112.00000000000009 443.32489389190147 L 112.00000000000009 443.32489389190147 L 113.00000000000009 441.32489389190147 L 113.00000000000009 441.32489389190147 L 114.00000000000009 439.32489389190147 L 114.00000000000009 439.32489389190147 L 115.00000000000009 437.3248938919014 L 115.00000000000009 437.3248938919014 L 116.00000000000009 435.32489389190147 L 116.00000000000009 435.32489389190147 L 117.00000000000009 433.3248938919014 L 117.00000000000009 433.3248938919014 L 118.00000000000009 431.32489389190147 L 118.00000000000009 431.32489389190147 L 119.00000000000009 429.3248938919014 L 119.00000000000009 429.3248938919014 L 120.00000000000009 427.3248938919014 L 120.00000000000009 427.3248938919014 L 121.00000000000009 425.3248938919014 L 121.00000000000009 425.3248938919014 L 122.0000000000001 423.3248938919014 L 122.0000000000001 423.3248938919014 L 123.0000000000001 421.3248938919014 L 123.0000000000001 421.3248938919014 L 124.0000000000001 419.3248938919014 L 124.0000000000001 419.3248938919014 L 125.0000000000001 417.32489389190135 L 125.0000000000001 417.32489389190135 L 126.00000000000011 415.3248938919014 L 126.00000000000011 415.3248938919014 L 127.0000000000001 413.3248938919014 L 127.0000000000001 413.3248938919014 L 128.0000000000001 411.3248938919014 L 128.0000000000001 411.3248938919014 L 129.0000000000001 409.32489389190135 L 129.0000000000001 409.32489389190135 L 130.0000000000001 407.32489389190135 L 130.0000000000001 407.32489389190135 L 131.0000000000001 405.3248938919014 L 131.0000000000001 405.3248938919014 L 132.0000000000001 403.32489389190135 L 132.0000000000001 403.32489389190135 L 133.0000000000001 401.32489389190135 L 133.0000000000001 401.32489389190135 L 134.0000000000001 399.32489389190135 L 134.0000000000001 399.32489389190135 L 135.0000000000001 397.32489389190135 L 135.0000000000001 397.32489389190135 L 136.0000000000001 395.32489389190135 L 136.0000000000001 395.32489389190135 L 137.0000000000001 393.3248938919013 L 137.0000000000001 393.3248938919013 L 138.0000000000001 391.32489389190135 L 138.0000000000001 391.32489389190135 L 139.0000000000001 389.32489389190135 L 139.0000000000001 389.32489389190135 L 140.0000000000001 387.32489389190135 L 140.0000000000001 387.32489389190135 L 141.0000000000001 385.3248938919013 L 141.0000000000001 385.3248938919013 L 142.0000000000001 383.3248938919013 L 142.0000000000001 383.3248938919013 L 143.0000000000001 381.32489389190135 L 143.0000000000001 381.32489389190135 L 144.0000000000001 379.3248938919013 L 144.0000000000001 379.3248938919013 L 145.00000000000014 377.3248938919013 L 145.00000000000014 377.3248938919013 L 146.00000000000014 375.3248938919013 L 146.00000000000014 375.3248938919013 L 147.00000000000014 373.3248938919013 L 147.00000000000014 373.3248938919013 L 148.00000000000014 371.3248938919013 L 148.00000000000014 371.3248938919013 L 149.00000000000014 369.32489389190124 L 149.00000000000014 369.32489389190124 L 150.00000000000014 367.3248938919013 L 150.00000000000014 367.3248938919013 L 151.00000000000014 365.3248938919013 L 151.00000000000014 365.3248938919013 L 152.00000000000017 363.32489389190124 L 152.00000000000017 363.32489389190124 L 153.00000000000017 361.32489389190124 L 153.00000000000017 361.32489389190124 L 154.00000000000017 359.32489389190124 L 154.00000000000017 359.32489389190124 L 155.00000000000017 357.3248938919013 L 155.00000000000017 357.3248938919013 L 156.00000000000017 355.32489389190124 L 156.00000000000017 355.32489389190124 L 157.00000000000017 353.32489389190124 L 157.00000000000017 353.32489389190124 L 158.00000000000017 351.32489389190124 L 158.00000000000017 351.32489389190124 L 159.00000000000017 349.32489389190124 L 159.00000000000017 349.32489389190124 L 160.00000000000017 347.32489389190124 L 160.00000000000017 347.32489389190124 L 161.00000000000017 345.3248938919012 L 161.00000000000017 345.3248938919012 L 162.00000000000017 343.32489389190124 L 162.00000000000017 343.32489389190124 L 163.00000000000017 341.32489389190124 L 163.00000000000017 341.32489389190124 L 164.00000000000017 339.3248938919012 L 164.00000000000017 339.3248938919012 L 165.00000000000017 337.3248938919012 L 165.00000000000017 337.3248938919012 L 166.00000000000017 335.3248938919012 L 166.00000000000017 335.3248938919012 L 167.00000000000017 333.32489389190124 L 167.00000000000017 333.32489389190124 L 168.00000000000017 331.3248938919012 L 168.00000000000017 331.3248938919012 L 169.00000000000017 329.3248938919011 L 169.00000000000017 329.3248938919011 L 170.00000000000017 327.3248938919012 L 170.00000000000017 327.3248938919012 L 171.00000000000017 325.3248938919012 L 171.00000000000017 325.3248938919012 L 172.00000000000017 323.3248938919012 L 172.00000000000017 323.3248938919012 L 173.0000000000002 321.3248938919011 L 173.0000000000002 321.3248938919011 L 174.0000000000002 319.3248938919011 L 174.0000000000002 319.3248938919011 L 175.0000000000002 317.3248938919012 L 175.0000000000002 317.3248938919012 L 176.0000000000002 315.3248938919011 L 176.0000000000002 315.3248938919011 L 177.0000000000002 313.32489389190107 L 177.0000000000002 313.32489389190107 L 178.0000000000002 311.3248938919011 L 178.0000000000002 311.3248938919011 L 179.0000000000002 309.3248938919011 L 179.0000000000002 309.3248938919011 L 180.00000000000023 307.3248938919011 L 180.00000000000023 307.3248938919011 L 181.00000000000023 305.32489389190107 L 181.00000000000023 305.32489389190107 L 182.00000000000023 303.32489389190107 L 182.00000000000023 303.32489389190107 L 183.00000000000023 301.3248938919011 L 183.00000000000023 301.3248938919011 L 184.00000000000023 299.32489389190107 L 184.00000000000023 299.32489389190107 L 185.00000000000023 297.32489389190107 L 185.00000000000023 297.32489389190107 L 186.00000000000023 295.32489389190107 L 186.00000000000023 295.32489389190107 L 187.00000000000023 293.32489389190107 L 187.00000000000023 293.32489389190107 L 188.0000000000002 291.3248938919011 L 188.0000000000002 291.3248938919011 L 189.00000000000017 289.3248938919011 L 189.00000000000017 289.3248938919011 L 190.00000000000017 287.3248938919012 L 190.00000000000017 287.3248938919012 L 191.00000000000017 285.3248938919012 L 191.00000000000017 285.3248938919012 L 192.00000000000017 283.3248938919012 L 192.00000000000017 283.3248938919012 L 193.00000000000014 281.32489389190124 L 193.00000000000014 281.32489389190124 L 194.0000000000001 279.32489389190124 L 194.0000000000001 279.32489389190124 L 195.0000000000001 277.32489389190124 L 195.0000000000001 277.32489389190124 L 196.0000000000001 275.3248938919013 L 196.0000000000001 275.3248938919013 L 197.0000000000001 273.3248938919013 L 197.0000000000001 273.3248938919013 L 198.00000000000006 271.32489389190135 L 198.00000000000006 271.32489389190135 L 199.00000000000006 269.32489389190135 L 199.00000000000006 269.32489389190135 L 200.00000000000006 267.32489389190135 L 200.00000000000006 267.32489389190135 L 201.00000000000006 265.3248938919014 L 201.00000000000006 265.3248938919014 L 202.00000000000006 263.3248938919014 L 202.00000000000006 263.3248938919014 L 203 261.3248938919014 L 203 261.3248938919014 L 204 259.32489389190147 L 204 259.32489389190147 L 205 257.32489389190147 L 205 257.32489389190147 L 206 255.32489389190152 L 206 255.32489389190152 L 207 253.32489389190152 L 207 253.32489389190152 L 208 251.32489389190155 L 208 251.32489389190155 L 208.99999999999994 249.32489389190158 L 208.99999999999994 249.32489389190158 L 209.99999999999994 247.32489389190158 L 209.99999999999994 247.32489389190158 L 210.99999999999994 245.3248938919016 L 210.99999999999994 245.3248938919016 L 211.99999999999994 243.32489389190164 L 211.99999999999994 243.32489389190164 L 212.99999999999994 241.32489389190167 L 212.99999999999994 241.32489389190167 L 213.9999999999999 239.32489389190167 L 213.9999999999999 239.32489389190167 L 214.9999999999999 237.3248938919017 L 214.9999999999999 237.3248938919017 L 215.9999999999999 235.32489389190172 L 215.9999999999999 235.32489389190172 L 216.9999999999999 233.32489389190175 L 216.9999999999999 233.32489389190175 L 217.9999999999999 231.32489389190175 L 217.9999999999999 231.32489389190175 L 218.99999999999983 229.32489389190178 L 218.99999999999983 229.32489389190178 L 219.99999999999983 227.3248938919018 L 219.99999999999983 227.3248938919018 L 220.99999999999983 225.32489389190184 L 220.99999999999983 225.32489389190184 L 221.99999999999983 223.32489389190184 L 221.99999999999983 223.32489389190184 L 222.99999999999983 221.32489389190187 L 222.99999999999983 221.32489389190187 L 223.99999999999977 219.3248938919019 L 223.99999999999977 219.3248938919019 L 224.99999999999977 217.32489389190192 L 224.99999999999977 217.32489389190192 L 225.99999999999977 215.32489389190192 L 225.99999999999977 215.32489389190192 L 226.99999999999977 213.32489389190195 L 226.99999999999977 213.32489389190195 L 227.99999999999977 211.32489389190198 L 227.99999999999977 211.32489389190198 L 228.99999999999972 209.324893891902 L 228.99999999999972 209.324893891902 L 229.99999999999972 207.324893891902 L 229.99999999999972 207.324893891902 L 230.99999999999972 205.32489389190204 L 230.99999999999972 205.32489389190204 L 231.99999999999972 203.32489389190206 L 231.99999999999972 203.32489389190206 L 232.99999999999972 201.3248938919021 L 232.99999999999972 201.3248938919021 L 233.99999999999966 199.3248938919021 L 233.99999999999966 199.3248938919021 L 234.99999999999966 197.32489389190212 L 234.99999999999966 197.32489389190212 L 235.99999999999966 195.32489389190215 L 235.99999999999966 195.32489389190215 L 236.99999999999966 193.32489389190218 L 236.99999999999966 193.32489389190218 L 237.99999999999966 191.32489389190218 L 237.99999999999966 191.32489389190218 L 238.9999999999996 189.3248938919022 L 238.9999999999996 189.3248938919022 L 239.9999999999996 187.32489389190224 L 239.9999999999996 187.32489389190224 L 240.9999999999996 185.32489389190224 L 240.9999999999996 185.32489389190224 L 241.9999999999996 183.32489389190226 L 241.9999999999996 183.32489389190226 L 242.9999999999996 181.3248938919023 L 242.9999999999996 181.3248938919023 L 243.99999999999955 179.32489389190232 L 243.99999999999955 179.32489389190232 L 244.99999999999955 177.32489389190232 L 244.99999999999955 177.32489389190232 L 245.99999999999955 175.32489389190235 L 245.99999999999955 175.32489389190235 L 246.99999999999955 173.32489389190238 L 246.99999999999955 173.32489389190238 L 247.99999999999955 171.32489389190238 L 247.99999999999955 171.32489389190238 L 248.9999999999995 169.3248938919024 L 248.9999999999995 169.3248938919024 L 249.9999999999995 167.32489389190243 L 249.9999999999995 167.32489389190243 L 250.9999999999995 165.32489389190246 L 250.9999999999995 165.32489389190246 L 251.9999999999995 163.32489389190246 L 251.9999999999995 163.32489389190246 L 252.9999999999995 161.3248938919025 L 252.9999999999995 161.3248938919025 L 253.99999999999943 159.32489389190252 L 253.99999999999943 159.32489389190252 L 254.99999999999943 157.32489389190255 L 254.99999999999943 157.32489389190255 L 255.99999999999943 155.32489389190255 L 255.99999999999943 155.32489389190255 L 256.99999999999943 153.32489389190258 L 256.99999999999943 153.32489389190258 L 257.99999999999943 151.3248938919026 L 257.99999999999943 151.3248938919026 L 258.99999999999943 149.32489389190263 L 258.99999999999943 149.32489389190263 L 259.9999999999994 147.32489389190263 L 259.9999999999994 147.32489389190263 L 260.9999999999994 145.32489389190266 L 260.9999999999994 145.32489389190266 L 261.9999999999994 143.3248938919027 L 261.9999999999994 143.3248938919027 L 262.9999999999994 141.32489389190272 L 262.9999999999994 141.32489389190272 L 263.9999999999994 139.32489389190272 L 263.9999999999994 139.32489389190272 L 264.9999999999993 137.32489389190275 L 264.9999999999993 137.32489389190275 L 265.9999999999993 135.32489389190278 L 265.9999999999993 135.32489389190278 L 266.9999999999993 133.3248938919028 L 266.9999999999993 133.3248938919028 L 267.9999999999993 131.3248938919028 L 267.9999999999993 131.3248938919028 L 268.9999999999993 129.32489389190283 L 268.9999999999993 129.32489389190283 L 269.99999999999926 127.32489389190286 L 269.99999999999926 127.32489389190286 L 270.99999999999926 125.32489389190289 L 270.99999999999926 125.32489389190289 L 271.99999999999926 123.32489389190289 L 271.99999999999926 123.32489389190289 L 272.99999999999926 121.32489389190292 L 272.99999999999926 121.32489389190292 L 273.99999999999926 119.32489389190295 L 273.99999999999926 119.32489389190295 L 274.9999999999992 117.32489389190296 L 274.9999999999992 117.32489389190296 L 275.9999999999992 115.32489389190297 L 275.9999999999992 115.32489389190297 L 276.9999999999992 113.324893891903 L 276.9999999999992 113.324893891903 L 277.9999999999992 111.32489389190303 L 277.9999999999992 111.32489389190303 L 278.9999999999992 109.32489389190305 L 278.9999999999992 109.32489389190305 L 279.99999999999915 107.32489389190306 L 279.99999999999915 107.32489389190306 L 280.99999999999915 105.32489389190309 L 280.99999999999915 105.32489389190309 L 281.99999999999915 103.32489389190312 L 281.99999999999915 103.32489389190312 L 282.99999999999915 101.32489389190313 L 282.99999999999915 101.32489389190313 L 283.99999999999915 99.32489389190314 L 283.99999999999915 99.32489389190314 L 284.9999999999991 97.32489389190317 L 284.9999999999991 97.32489389190317 L 285.9999999999991 95.3248938919032 L 285.9999999999991 95.3248938919032 L 286.9999999999991 93.32489389190322 L 286.9999999999991 93.32489389190322 L 287.9999999999991 91.32489389190323 L 287.9999999999991 91.32489389190323 L 288.9999999999991 89.32489389190326 L 288.9999999999991 89.32489389190326 L 289.99999999999903 87.32489389190327 L 289.99999999999903 87.32489389190327 L 290.99999999999903 85.3248938919033 L 290.99999999999903 85.3248938919033 L 291.99999999999903 83.32489389190332 L 291.99999999999903 83.32489389190332 L 292.99999999999903 81.32489389190334 L 292.99999999999903 81.32489389190334 L 293.99999999999903 79.32489389190336 L 293.99999999999903 79.32489389190336 L 294.999999999999 77.32489389190339 L 294.999999999999 77.32489389190339 L 295.999999999999 75.3248938919034 L 295.999999999999 75.3248938919034 L 296.999999999999 73.32489389190343 L 296.999999999999 73.32489389190343 L 297.999999999999 71.32489389190344 L 297.999999999999 71.32489389190344 L 298.999999999999 69.32489389190347 L 298.999999999999 69.32489389190347 L 299.9999999999989 67.32489389190349 L 299.9999999999989 67.32489389190349 L 300.9999999999989 65.32489389190351 L 300.9999999999989 65.32489389190351 L 301.9999999999989 63.32489389190353 L 301.9999999999989 63.32489389190353 L 302.9999999999989 61.32489389190355 L 302.9999999999989 61.32489389190355 L 303.9999999999989 59.32489389190357 L 303.9999999999989 59.32489389190357 L 304.99999999999886 57.32489389190359 L 304.99999999999886 57.32489389190359 L 305.9999999999989 55.324893891903564 L 305.9999999999989 55.324893891903564 L 306.9999999999989 53.32489389190353 L 306.9999999999989 53.32489389190353 L 307.9999999999989 51.3248938919035 L 307.9999999999989 51.3248938919035 L 308.999999999999 49.32489389190347 L 308.999999999999 49.32489389190347 L 309.999999999999 47.324893891903436 L 309.999999999999 47.324893891903436 L 310.999999999999 45.32489389190341 L 310.999999999999 45.32489389190341 L 311.999999999999 43.32489389190337 L 311.999999999999 43.32489389190337 L 312.99999999999903 41.32489389190334 L 312.99999999999903 41.32489389190334 L 313.99999999999903 39.324893891903315 L 313.99999999999903 39.324893891903315 L 314.99999999999903 37.32489389190328 L 314.99999999999903 37.32489389190328 L 315.99999999999903 35.324893891903244 L 315.99999999999903 35.324893891903244 L 316.9999999999991 33.324893891903216 L 316.9999999999991 33.324893891903216 L 317.9999999999991 31.324893891903184 L 317.9999999999991 31.324893891903184 L 318.9999999999991 29.324893891903155 L 318.9999999999991 29.324893891903155 L 319.9999999999991 27.324893891903123 L 319.9999999999991 27.324893891903123 L 320.99999999999915 25.324893891903088 L 320.99999999999915 25.324893891903088 L 321.99999999999915 23.32489389190306 L 321.99999999999915 23.32489389190306 L 322.99999999999915 21.32489389190303 L 322.99999999999915 21.32489389190303 L 323.9999999999992 19.324893891902995 L 323.9999999999992 19.324893891902995 L 324.9999999999992 17.324893891902967 L 324.9999999999992 17.324893891902967 L 325.9999999999992 15.324893891902931 L 325.9999999999992 15.324893891902931 L 326.99999999999926 13.324893891902903 L 326.99999999999926 13.324893891902903 L 327.99999999999926 11.324893891902867 L 327.99999999999926 11.324893891902867 L 328.99999999999926 9.324893891902839 L 328.99999999999926 9.324893891902839 L 329.99999999999926 7.3248938919028035 L 329.99999999999926 7.3248938919028035 L 330.9999999999993 5.324893891902775 L 330.9999999999993 5.324893891902775 L 331.9999999999993 3.3248938919027466 L 331.9999999999993 3.3248938919027466 L 332.9999999999993 1.3248938919027111 L 332.9999999999993 1.3248938919027111 L 333.9999999999993 -0.6751061080973173 L 333.9999999999993 -0.6751061080973173 L 334.9999999999994 -2.675106108097353 L 334.9999999999994 -2.675106108097353 L 335.9999999999994 -4.675106108097381 L 335.9999999999994 -4.675106108097381 L 336.9999999999994 -6.675106108097417 L 336.9999999999994 -6.675106108097417 L 337.99999999999943 -8.675106108097445 L 337.99999999999943 -8.675106108097445 L 338.99999999999943 -10.675106108097474 L 338.99999999999943 -10.675106108097474 L 339.99999999999943 -12.675106108097502 L 339.99999999999943 -12.675106108097502 L 340.99999999999943 -14.675106108097545 L 340.99999999999943 -14.675106108097545 L 341.9999999999995 -16.675106108097573 L 341.9999999999995 -16.675106108097573 L 342.9999999999995 -18.6751061080976 L 342.9999999999995 -18.6751061080976 L 343.9999999999995 -20.67510610809763 L 343.9999999999995 -20.67510610809763 L 344.9999999999995 -22.675106108097673 L 344.9999999999995 -22.675106108097673 L 345.99999999999955 -24.6751061080977 L 345.99999999999955 -24.6751061080977 L 346.99999999999955 -26.67510610809773 L 346.99999999999955 -26.67510610809773 L 347.99999999999955 -28.675106108097758 L 347.99999999999955 -28.675106108097758 L 348.99999999999955 -30.675106108097786 L 348.99999999999955 -30.675106108097786 L 349.9999999999996 -32.67510610809783 L 349.9999999999996 -32.67510610809783 L 350.9999999999996 -34.67510610809786 L 350.9999999999996 -34.67510610809786 L 351.9999999999996 -36.675106108097886 L 351.9999999999996 -36.675106108097886 L 352.99999999999966 -38.675106108097914 L 352.99999999999966 -38.675106108097914 L 353.99999999999966 -40.67510610809794 L 353.99999999999966 -40.67510610809794 L 354.99999999999966 -42.675106108097985 L 354.99999999999966 -42.675106108097985 L 355.99999999999966 -44.675106108098014 L 355.99999999999966 -44.675106108098014 L 356.9999999999997 -46.67510610809804 L 356.9999999999997 -46.67510610809804 L 357.9999999999997 -48.67510610809807 L 357.9999999999997 -48.67510610809807 L 358.9999999999997 -50.67510610809811 L 358.9999999999997 -50.67510610809811 L 359.9999999999997 -52.67510610809814 L 359.9999999999997 -52.67510610809814 L 360.9999999999998 -54.67510610809817 L 360.9999999999998 -54.67510610809817 L 361.9999999999998 -56.6751061080982 L 361.9999999999998 -56.6751061080982 L 362.9999999999998 -58.67510610809823 L 362.9999999999998 -58.67510610809823 L 363.9999999999998 -60.67510610809827 L 363.9999999999998 -60.67510610809827 L 364.99999999999983 -62.6751061080983 L 364.99999999999983 -62.6751061080983 L 365.99999999999983 -64.67510610809833 L 365.99999999999983 -64.67510610809833 L 366.99999999999983 -66.67510610809836 L 366.99999999999983 -66.67510610809836 L 367.9999999999999 -68.67510610809839 L 367.9999999999999 -68.67510610809839 L 368.9999999999999 -70.67510610809842 L 368.9999999999999 -70.67510610809842 L 369.9999999999999 -72.67510610809845 L 369.9999999999999 -72.67510610809845 L 370.9999999999999 -74.67510610809848 L 370.9999999999999 -74.67510610809848 L 371.99999999999994 -76.6751061080985 L 371.99999999999994 -76.6751061080985 L 372.99999999999994 -78.67510610809853 L 372.99999999999994 -78.67510610809853 L 373.99999999999994 -80.67510610809856 L 373.99999999999994 -80.67510610809856 L 374.99999999999994 -82.67510610809862 L 374.99999999999994 -82.67510610809862 L 376 -84.67510610809865 L 376 -84.67510610809865 L 377 -86.67510610809867 L 377 -86.67510610809867 L 378 -88.6751061080987 L 378 -88.6751061080987 L 379 -90.67510610809873 L 379 -90.67510610809873 L 380.00000000000006 -92.67510610809876 L 380.00000000000006 -92.67510610809876 L 381.00000000000006 -94.67510610809879 L 381.00000000000006 -94.67510610809879 L 382.00000000000006 -96.67510610809882 L 382.00000000000006 -96.67510610809882 L 383.0000000000001 -98.67510610809884 L 383.0000000000001 -98.67510610809884 L 384.0000000000001 -100.67510610809887 L 384.0000000000001 -100.67510610809887 L 385.0000000000001 -102.67510610809893 L 385.0000000000001 -102.67510610809893 L 386.0000000000001 -104.67510610809896 L 386.0000000000001 -104.67510610809896 L 387.00000000000017 -106.67510610809899 L 387.00000000000017 -106.67510610809899 L 388.00000000000017 -108.67510610809902 L 388.00000000000017 -108.67510610809902 L 389.00000000000017 -110.67510610809904 L 389.00000000000017 -110.67510610809904 L 390.00000000000017 -112.67510610809907 L 390.00000000000017 -112.67510610809907 L 391.0000000000002 -114.6751061080991 L 391.0000000000002 -114.6751061080991 L 392.0000000000002 -116.67510610809913 L 392.0000000000002 -116.67510610809913 L 393.0000000000002 -118.67510610809916 L 393.0000000000002 -118.67510610809916 L 394.0000000000002 -120.67510610809921 L 394.0000000000002 -120.67510610809921 L 395.0000000000003 -122.67510610809924 L 395.0000000000003 -122.67510610809924 L 396.0000000000003 -124.67510610809927 L 396.0000000000003 -124.67510610809927 L 397.0000000000003 -126.6751061080993 L 397.0000000000003 -126.6751061080993 L 398.00000000000034 -128.67510610809933 L 398.00000000000034 -128.67510610809933 L 399.00000000000034 -130.67510610809936 L 399.00000000000034 -130.67510610809936 L 400.00000000000034 -132.67510610809938 L 400.00000000000034 -132.67510610809938 L 401.00000000000034 -134.6751061080994 L 401.00000000000034 -134.6751061080994 L 402.0000000000004 -136.67510610809944 L 402.0000000000004 -136.67510610809944 L 403.0000000000004 -138.6751061080995 L 403.0000000000004 -138.6751061080995 L 404.0000000000004 -140.67510610809953 L 404.0000000000004 -140.67510610809953 L 405.0000000000004 -142.67510610809956 L 405.0000000000004 -142.67510610809956 L 406.00000000000045 -144.67510610809958 L 406.00000000000045 -144.67510610809958 L 407.00000000000045 -146.6751061080996 L 407.00000000000045 -146.6751061080996 L 408.00000000000045 -148.67510610809964 L 408.00000000000045 -148.67510610809964 L 409.00000000000045 -150.67510610809967 L 409.00000000000045 -150.67510610809967 L 410.0000000000005 -152.6751061080997 L 410.0000000000005 -152.6751061080997 L 411.0000000000005 -154.67510610809973 L 411.0000000000005 -154.67510610809973 L 412.0000000000005 -156.67510610809978 L 412.0000000000005 -156.67510610809978 L 413.00000000000057 -158.6751061080998 L 413.00000000000057 -158.6751061080998 L 414.00000000000057 -160.67510610809984 L 414.00000000000057 -160.67510610809984 L 415.00000000000057 -162.67510610809987 L 415.00000000000057 -162.67510610809987 L 416.00000000000057 -164.6751061080999 L 416.00000000000057 -164.6751061080999 L 417.0000000000006 -166.67510610809992 L 417.0000000000006 -166.67510610809992 L 418.0000000000006 -168.67510610809995 L 418.0000000000006 -168.67510610809995 L 419.0000000000006 -170.67510610809998 L 419.0000000000006 -170.67510610809998 L 420.0000000000006 -172.6751061081 L 420.0000000000006 -172.6751061081 L 421.0000000000007 -174.67510610810007 L 421.0000000000007 -174.67510610810007 L 422.0000000000007 -176.6751061081001 L 422.0000000000007 -176.6751061081001 L 423.0000000000007 -178.67510610810012 L 423.0000000000007 -178.67510610810012 L 424.0000000000007 -180.67510610810015 L 424.0000000000007 -180.67510610810015 L 425.00000000000074 -182.67510610810018 L 425.00000000000074 -182.67510610810018 L 426.00000000000074 -184.6751061081002 L 426.00000000000074 -184.6751061081002 L 427.00000000000074 -186.67510610810024 L 427.00000000000074 -186.67510610810024 L 428.0000000000008 -188.67510610810027 L 428.0000000000008 -188.67510610810027 L 429.0000000000008 -190.6751061081003 L 429.0000000000008 -190.6751061081003 L 430.0000000000008 -192.67510610810032 L 430.0000000000008 -192.67510610810032 L 431.0000000000008 -194.67510610810038 L 431.0000000000008 -194.67510610810038 L 432.00000000000085 -196.6751061081004 L 432.00000000000085 -196.6751061081004 L 433.00000000000085 -198.6751061081004 L 433.00000000000085 -198.6751061081004 L 434.00000000000085 -200.67510610810047 L 434.00000000000085 -200.67510610810047 L 435.00000000000085 -202.67510610810052 L 435.00000000000085 -202.67510610810052 L 436.0000000000009 -204.67510610810052 L 436.0000000000009 -204.67510610810052 L 437.0000000000009 -206.67510610810058 L 437.0000000000009 -206.67510610810058 L 438.0000000000009 -208.67510610810058 L 438.0000000000009 -208.67510610810058 L 439.0000000000009 -210.67510610810064 L 439.0000000000009 -210.67510610810064 L 440.00000000000097 -212.67510610810064 L 440.00000000000097 -212.67510610810064 L 441.00000000000097 -214.6751061081007 L 441.00000000000097 -214.6751061081007 L 442.00000000000097 -216.6751061081007 L 442.00000000000097 -216.6751061081007 L 443.000000000001 -218.67510610810075 L 443.000000000001 -218.67510610810075 L 444.000000000001 -220.6751061081008 L 444.000000000001 -220.6751061081008 L 445.000000000001 -222.6751061081008 L 445.000000000001 -222.6751061081008 L 446.000000000001 -224.67510610810086 L 446.000000000001 -224.67510610810086 L 447.0000000000011 -226.67510610810086 L 447.0000000000011 -226.67510610810086 L 448.0000000000011 -228.67510610810092 L 448.0000000000011 -228.67510610810092 L 449.0000000000011 -230.67510610810092 L 449.0000000000011 -230.67510610810092 L 450.0000000000011 -232.67510610810098 L 450.0000000000011 -232.67510610810098 L 451.00000000000114 -234.67510610810098 L 451.00000000000114 -234.67510610810098 L 452.00000000000114 -236.67510610810103 L 452.00000000000114 -236.67510610810103 L 453.00000000000114 -238.67510610810103 L 453.00000000000114 -238.67510610810103 L 454.00000000000114 -240.6751061081011 L 454.00000000000114 -240.6751061081011 L 455.0000000000012 -242.67510610810115 L 455.0000000000012 -242.67510610810115 L 456.0000000000012 -244.67510610810115 L 456.0000000000012 -244.67510610810115 L 457.0000000000012 -246.6751061081012 L 457.0000000000012 -246.6751061081012 L 458.00000000000125 -248.6751061081012 L 458.00000000000125 -248.6751061081012 L 459.00000000000125 -250.67510610810126 L 459.00000000000125 -250.67510610810126 L 460.00000000000125 -252.67510610810126 L 460.00000000000125 -252.67510610810126 L 461.00000000000125 -254.67510610810132 L 461.00000000000125 -254.67510610810132 L 462.0000000000013 -256.6751061081013 L 462.0000000000013 -256.6751061081013 L 463.0000000000013 -258.6751061081014 L 463.0000000000013 -258.6751061081014 L 464.0000000000013 -260.67510610810143 L 464.0000000000013 -260.67510610810143 L 465.0000000000013 -262.67510610810143 L 465.0000000000013 -262.67510610810143 L 466.00000000000136 -264.6751061081015 L 466.00000000000136 -264.6751061081015 L 467.00000000000136 -266.6751061081015 L 467.00000000000136 -266.6751061081015 L 468.00000000000136 -268.67510610810155 L 468.00000000000136 -268.67510610810155 L 469.00000000000136 -270.67510610810155 L 469.00000000000136 -270.67510610810155 L 470.0000000000014 -272.6751061081016 L 470.0000000000014 -272.6751061081016 L 471.0000000000014 -274.6751061081016 L 471.0000000000014 -274.6751061081016 L 472.0000000000014 -276.67510610810166 L 472.0000000000014 -276.67510610810166 L 473.0000000000015 -278.6751061081017 L 473.0000000000015 -278.6751061081017 L 474.0000000000015 -280.6751061081017 L 474.0000000000015 -280.6751061081017 L 475.0000000000015 -282.6751061081018 L 475.0000000000015 -282.6751061081018 L 476.0000000000015 -284.6751061081018 L 476.0000000000015 -284.6751061081018 L 477.00000000000153 -286.67510610810183 L 477.00000000000153 -286.67510610810183 L 478.00000000000153 -288.67510610810183 L 478.00000000000153 -288.67510610810183 L 479.00000000000153 -290.6751061081019 L 479.00000000000153 -290.6751061081019 L 480.00000000000153 -292.6751061081019 L 480.00000000000153 -292.6751061081019 L 481.0000000000016 -294.67510610810194 L 481.0000000000016 -294.67510610810194 L 482.0000000000016 -296.675106108102 L 482.0000000000016 -296.675106108102 L 483.0000000000016 -298.675106108102 L 483.0000000000016 -298.675106108102 L 484.0000000000016 -300.67510610810206 L 484.0000000000016 -300.67510610810206 L 485.00000000000165 -302.67510610810206 L 485.00000000000165 -302.67510610810206 L 486.00000000000165 -304.6751061081021 L 486.00000000000165 -304.6751061081021 L 487.00000000000165 -306.6751061081021 L 487.00000000000165 -306.6751061081021 L 488.0000000000017 -308.67510610810217 L 488.0000000000017 -308.67510610810217 L 489.0000000000017 -310.67510610810217 L 489.0000000000017 -310.67510610810217 L 490.0000000000017 -312.6751061081022 L 490.0000000000017 -312.6751061081022 L 491.0000000000017 -314.6751061081023 L 491.0000000000017 -314.6751061081023 L 492.00000000000176 -316.6751061081023 L 492.00000000000176 -316.6751061081023 L 493.00000000000176 -318.67510610810234 L 493.00000000000176 -318.67510610810234 L 494.00000000000176 -320.67510610810234 L 494.00000000000176 -320.67510610810234 L 495.00000000000176 -322.6751061081024 L 495.00000000000176 -322.6751061081024 L 496.0000000000018 -324.6751061081024 L 496.0000000000018 -324.6751061081024 L 497.0000000000018 -326.67510610810245 L 497.0000000000018 -326.67510610810245 L 498.0000000000018 -328.67510610810245 L 498.0000000000018 -328.67510610810245 L 499.0000000000018 -330.6751061081025 L 499.0000000000018 -330.6751061081025 L 500.0000000000019 -332.67510610810257 L 500.0000000000019 -332.67510610810257 L 501.0000000000019 -334.67510610810257 L 501.0000000000019 -334.67510610810257 L 502.0000000000019 -336.6751061081026 L 502.0000000000019 -336.6751061081026 L 503.00000000000193 -338.6751061081026 L 503.00000000000193 -338.6751061081026 L 504.00000000000193 -340.6751061081027 L 504.00000000000193 -340.6751061081027 L 505.00000000000193 -342.6751061081027 L 505.00000000000193 -342.6751061081027 L 506.00000000000193 -344.67510610810274 L 506.00000000000193 -344.67510610810274 L 507.000000000002 -346.67510610810274 L 507.000000000002 -346.67510610810274 L 508.000000000002 -348.6751061081028 L 508.000000000002 -348.6751061081028 L 509.000000000002 -350.67510610810285 L 509.000000000002 -350.67510610810285 L 510.000000000002 -352.67510610810285 L 510.000000000002 -352.67510610810285 L 511.00000000000205 -354.6751061081029 L 511.00000000000205 -354.6751061081029 L 512.000000000002 -356.6751061081029 L 512.000000000002 -356.6751061081029 L 513.000000000002 -358.67510610810297 L 513.000000000002 -358.67510610810297 L 514.000000000002 -360.67510610810297 L 514.000000000002 -360.67510610810297 L 515.000000000002 -362.675106108103 L 515.000000000002 -362.675106108103 L 516.000000000002 -364.675106108103 L 516.000000000002 -364.675106108103 L 517.000000000002 -366.6751061081031 L 517.000000000002 -366.6751061081031 L 518.0000000000022 -368.67510610810314 L 518.0000000000022 -368.67510610810314 L 519.0000000000022 -370.67510610810314 L 519.0000000000022 -370.67510610810314 L 520.0000000000022 -372.6751061081032 L 520.0000000000022 -372.6751061081032 L 521.0000000000022 -374.6751061081032 L 521.0000000000022 -374.6751061081032 L 522.0000000000022 -376.67510610810325 L 522.0000000000022 -376.67510610810325 L 523.0000000000022 -378.67510610810325 L 523.0000000000022 -378.67510610810325 L 524.0000000000022 -380.6751061081033 L 524.0000000000022 -380.6751061081033 L 525.0000000000022 -382.6751061081033 L 525.0000000000022 -382.6751061081033 L 526.0000000000023 -384.67510610810336 L 526.0000000000023 -384.67510610810336 L 527.0000000000023 -386.6751061081034 L 527.0000000000023 -386.6751061081034 L 528.0000000000023 -388.6751061081034 L 528.0000000000023 -388.6751061081034 L 529.0000000000023 -390.6751061081035 L 529.0000000000023 -390.6751061081035 L 530.0000000000023 -392.6751061081035 L 530.0000000000023 -392.6751061081035 L 531.0000000000023 -394.67510610810353 L 531.0000000000023 -394.67510610810353 L 532.0000000000023 -396.67510610810353 L 532.0000000000023 -396.67510610810353 L 533.0000000000024 -398.6751061081036 L 533.0000000000024 -398.6751061081036 L 534.0000000000024 -400.6751061081036 L 534.0000000000024 -400.6751061081036 L 535.0000000000024 -402.67510610810365 L 535.0000000000024 -402.67510610810365 L 536.0000000000024 -404.67510610810365 L 536.0000000000024 -404.67510610810365 L 537.0000000000024 -406.6751061081037 L 537.0000000000024 -406.6751061081037 L 538.0000000000024 -408.67510610810376 L 538.0000000000024 -408.67510610810376 L 539.0000000000024 -410.67510610810376 L 539.0000000000024 -410.67510610810376 L 540.0000000000024 -412.6751061081038 L 540.0000000000024 -412.6751061081038 L 541.0000000000025 -414.6751061081038 L 541.0000000000025 -414.6751061081038 L 542.0000000000024 -416.67510610810376 L 542.0000000000024 -416.67510610810376 L 543.0000000000024 -418.6751061081038 L 543.0000000000024 -418.6751061081038 L 544.0000000000025 -420.6751061081038 L 544.0000000000025 -420.6751061081038 L 545.0000000000025 -422.6751061081039 L 545.0000000000025 -422.6751061081039 L 546.0000000000025 -424.6751061081039 L 546.0000000000025 -424.6751061081039 L 547.0000000000025 -426.67510610810393 L 547.0000000000025 -426.67510610810393 L 548.0000000000025 -428.67510610810393 L 548.0000000000025 -428.67510610810393 L 549.0000000000025 -430.675106108104 L 549.0000000000025 -430.675106108104 L 550.0000000000025 -432.675106108104 L 550.0000000000025 -432.675106108104 L 551.0000000000025 -434.67510610810405 L 551.0000000000025 -434.67510610810405 L 552.0000000000026 -436.6751061081041 L 552.0000000000026 -436.6751061081041 L 553.0000000000026 -438.6751061081041 L 553.0000000000026 -438.6751061081041 L 554.0000000000026 -440.67510610810416 L 554.0000000000026 -440.67510610810416 L 555.0000000000026 -442.67510610810416 L 555.0000000000026 -442.67510610810416 L 556.0000000000026 -444.6751061081042 L 556.0000000000026 -444.6751061081042 L 557.0000000000026 -446.6751061081042 L 557.0000000000026 -446.6751061081042 L 558.0000000000026 -448.6751061081043 L 558.0000000000026 -448.6751061081043 L 559.0000000000027 -450.6751061081043 L 559.0000000000027 -450.6751061081043 L 560.0000000000027 -452.67510610810433 L 560.0000000000027 -452.67510610810433 L 561.0000000000027 -454.6751061081044 L 561.0000000000027 -454.6751061081044 L 562.0000000000027 -456.6751061081044 L 562.0000000000027 -456.6751061081044 L 563.0000000000027 -458.6751061081044 L 563.0000000000027 -458.6751061081044 L 564.0000000000027 -460.6751061081045 L 564.0000000000027 -460.6751061081045 L 565.0000000000027 -462.6751061081045 L 565.0000000000027 -462.6751061081045 L 566.0000000000027 -464.6751061081045 L 566.0000000000027 -464.6751061081045 L 567.0000000000028 -466.6751061081045 L 567.0000000000028 -466.6751061081045 L 568.0000000000028 -468.6751061081046 L 568.0000000000028 -468.6751061081046 L 569.0000000000028 -470.6751061081046 L 569.0000000000028 -470.6751061081046 L 570.0000000000028 -472.6751061081046 L 570.0000000000028 -472.6751061081046 L 571.0000000000028 -474.6751061081047 L 571.0000000000028 -474.6751061081047 L 572.0000000000028 -476.6751061081047 L 572.0000000000028 -476.6751061081047 L 573.0000000000028 -478.6751061081047 L 573.0000000000028 -478.6751061081047 L 574.000000000003 -480.6751061081047 L 574.000000000003 -480.6751061081047 L 575.000000000003 -482.67510610810484 L 575.000000000003 -482.67510610810484 L 576.000000000003 -484.67510610810484 L 576.000000000003 -484.67510610810484 L 577.000000000003 -486.67510610810484 L 577.000000000003 -486.67510610810484 L 578.000000000003 -488.67510610810484 L 578.000000000003 -488.67510610810484 L 579.000000000003 -490.67510610810496 L 579.000000000003 -490.67510610810496 L 580.0000000000031 -492.67510610810496 L 580.0000000000031 -492.67510610810496 L 581.0000000000031 -494.67510610810496 L 581.0000000000031 -494.67510610810496 L 582.0000000000031 -496.67510610810507 L 582.0000000000031 -496.67510610810507 L 583.0000000000031 -498.67510610810507 L 583.0000000000031 -498.67510610810507 L 584.0000000000031 -500.67510610810507 L 584.0000000000031 -500.67510610810507 L 585.0000000000031 -502.67510610810507 L 585.0000000000031 -502.67510610810507 L 586.0000000000031 -504.6751061081052 L 586.0000000000031 -504.6751061081052 L 587.0000000000031 -506.6751061081052 L 587.0000000000031 -506.6751061081052 L 588.0000000000032 -508.6751061081052 L 588.0000000000032 -508.6751061081052 L 589.0000000000032 -510.6751061081053 L 589.0000000000032 -510.6751061081053 L 590.0000000000032 -512.6751061081053 L 590.0000000000032 -512.6751061081053 L 591.0000000000032 -514.6751061081053 L 591.0000000000032 -514.6751061081053 L 592.0000000000032 -516.6751061081053 L 592.0000000000032 -516.6751061081053 L 593.0000000000032 -518.6751061081054 L 593.0000000000032 -518.6751061081054 L 594.0000000000032 -520.6751061081054 L 594.0000000000032 -520.6751061081054 L 595.0000000000033 -522.6751061081054 L 595.0000000000033 -522.6751061081054 L 596.0000000000033 -524.6751061081054" stroke-opacity="0.8" stroke-linecap="round" stroke-linejoin="round" stroke-miterlimit="10" stroke-width="2.5"/><text fill="rgb(0,0,0)" stroke="none" font-family="geogebra-sans-serif, sans-serif" font-size="16px" font-style="normal" font-weight="normal" text-decoration="normal" x="24" y="619" text-anchor="start" dominant-baseline="alphabetic" fill-opacity="1">f</text><text fill="none" stroke="rgb(255,255,255)" font-family="geogebra-sans-serif, sans-serif" font-size="16px" font-style="normal" font-weight="normal" text-decoration="normal" x="24" y="619" text-anchor="start" dominant-baseline="alphabetic" stroke-opacity="1" stroke-linejoin="bevel" stroke-miterlimit="10" stroke-width="3">f</text><text fill="rgb(0,0,0)" stroke="none" font-family="geogebra-sans-serif, sans-serif" font-size="16px" font-style="normal" font-weight="normal" text-decoration="normal" x="24" y="619" text-anchor="start" dominant-baseline="alphabetic" fill-opacity="1">f</text><text fill="rgb(0,0,0)" stroke="none" font-family="geogebra-sans-serif, sans-serif" font-size="16px" font-style="normal" font-weight="normal" text-decoration="normal" x="185" y="443" text-anchor="start" dominant-baseline="alphabetic" fill-opacity="1">1</text><text fill="none" stroke="rgb(255,255,255)" font-family="geogebra-sans-serif, sans-serif" font-size="16px" font-style="normal" font-weight="normal" text-decoration="normal" x="185" y="443" text-anchor="start" dominant-baseline="alphabetic" stroke-opacity="1" stroke-linejoin="bevel" stroke-miterlimit="10" stroke-width="3">1</text><text fill="rgb(0,0,0)" stroke="none" font-family="geogebra-sans-serif, sans-serif" font-size="16px" font-style="normal" font-weight="normal" text-decoration="normal" x="185" y="443" text-anchor="start" dominant-baseline="alphabetic" fill-opacity="1">1</text><path fill="none" stroke="rgb(0,0,0)" paint-order="fill stroke markers" d=" M 126.83184466127305 413.6612045693555 L 245.33623175139462 413.6612045693555" stroke-opacity="0.6980392156862745" stroke-linejoin="round" stroke-miterlimit="10" stroke-width="2.5" stroke-dasharray="6.5,4"/><text fill="rgb(0,0,0)" stroke="none" font-family="geogebra-sans-serif, sans-serif" font-size="16px" font-style="normal" font-weight="normal" text-decoration="normal" x="261" y="295" text-anchor="start" dominant-baseline="alphabetic" fill-opacity="1">2</text><text fill="none" stroke="rgb(255,255,255)" font-family="geogebra-sans-serif, sans-serif" font-size="16px" font-style="normal" font-weight="normal" text-decoration="normal" x="261" y="295" text-anchor="start" dominant-baseline="alphabetic" stroke-opacity="1" stroke-linejoin="bevel" stroke-miterlimit="10" stroke-width="3">2</text><text fill="rgb(0,0,0)" stroke="none" font-family="geogebra-sans-serif, sans-serif" font-size="16px" font-style="normal" font-weight="normal" text-decoration="normal" x="261" y="295" text-anchor="start" dominant-baseline="alphabetic" fill-opacity="1">2</text><path fill="none" stroke="rgb(0,0,0)" paint-order="fill stroke markers" d=" M 245.33623175139462 413.6612045693555 L 245.33623175139462 176.65243038911223" stroke-opacity="0.6980392156862745" stroke-linejoin="round" stroke-miterlimit="10" stroke-width="2.5" stroke-dasharray="6.5,4"/></g></g></svg>