<svg version="1.1" xmlns="http://www.w3.org/2000/svg" xmlns:xlink="http://www.w3.org/1999/xlink" width="596" height="298"><defs><clipPath id="EialoWHMNGem"><path fill="none" stroke="none" d=" M 0 0 L 596 0 L 596 298 L 0 298 L 0 0 Z"/></clipPath></defs><g transform="scale(1,1)" clip-path="url(#EialoWHMNGem)"><g><rect fill="rgb(255,255,255)" stroke="none" x="0" y="0" width="596" height="298" fill-opacity="1"/><path fill="none" stroke="rgb(192,192,192)" paint-order="fill stroke markers" d=" M 8.5 0.5 L 8.5 298.5 M 8.5 0.5 L 8.5 298.5 M 126.5 0.5 L 126.5 298.5 M 186.5 0.5 L 186.5 298.5 M 245.5 0.5 L 245.5 298.5 M 304.5 0.5 L 304.5 298.5 M 363.5 0.5 L 363.5 298.5 M 423.5 0.5 L 423.5 298.5 M 482.5 0.5 L 482.5 298.5 M 541.5 0.5 L 541.5 298.5" stroke-opacity="1" stroke-linecap="round" stroke-linejoin="round" stroke-miterlimit="10"/><path fill="none" stroke="rgb(192,192,192)" paint-order="fill stroke markers" d=" M 20.5 0.5 L 20.5 298.5 M 32.5 0.5 L 32.5 298.5 M 43.5 0.5 L 43.5 298.5 M 55.5 0.5 L 55.5 298.5 M 79.5 0.5 L 79.5 298.5 M 91.5 0.5 L 91.5 298.5 M 103.5 0.5 L 103.5 298.5 M 114.5 0.5 L 114.5 298.5 M 138.5 0.5 L 138.5 298.5 M 150.5 0.5 L 150.5 298.5 M 162.5 0.5 L 162.5 298.5 M 174.5 0.5 L 174.5 298.5 M 197.5 0.5 L 197.5 298.5 M 209.5 0.5 L 209.5 298.5 M 221.5 0.5 L 221.5 298.5 M 233.5 0.5 L 233.5 298.5 M 257.5 0.5 L 257.5 298.5 M 269.5 0.5 L 269.5 298.5 M 280.5 0.5 L 280.5 298.5 M 292.5 0.5 L 292.5 298.5 M 316.5 0.5 L 316.5 298.5 M 328.5 0.5 L 328.5 298.5 M 340.5 0.5 L 340.5 298.5 M 351.5 0.5 L 351.5 298.5 M 375.5 0.5 L 375.5 298.5 M 387.5 0.5 L 387.5 298.5 M 399.5 0.5 L 399.5 298.5 M 411.5 0.5 L 411.5 298.5 M 434.5 0.5 L 434.5 298.5 M 446.5 0.5 L 446.5 298.5 M 458.5 0.5 L 458.5 298.5 M 470.5 0.5 L 470.5 298.5 M 494.5 0.5 L 494.5 298.5 M 506.5 0.5 L 506.5 298.5 M 517.5 0.5 L 517.5 298.5 M 529.5 0.5 L 529.5 298.5 M 553.5 0.5 L 553.5 298.5 M 565.5 0.5 L 565.5 298.5 M 577.5 0.5 L 577.5 298.5 M 588.5 0.5 L 588.5 298.5" stroke-opacity="0.23529411764705882" stroke-linecap="round" stroke-linejoin="round" stroke-miterlimit="10"/><path fill="none" stroke="rgb(192,192,192)" paint-order="fill stroke markers" d=" M 0.5 53.5 L 596.5 53.5 M 0.5 53.5 L 596.5 53.5 M 0.5 172.5 L 596.5 172.5 M 0.5 231.5 L 596.5 231.5 M 0.5 290.5 L 596.5 290.5" stroke-opacity="1" stroke-linecap="round" stroke-linejoin="round" stroke-miterlimit="10"/><path fill="none" stroke="rgb(192,192,192)" paint-order="fill stroke markers" d=" M 0.5 6.5 L 596.5 6.5 M 0.5 18.5 L 596.5 18.5 M 0.5 30.5 L 596.5 30.5 M 0.5 42.5 L 596.5 42.5 M 0.5 65.5 L 596.5 65.5 M 0.5 77.5 L 596.5 77.5 M 0.5 89.5 L 596.5 89.5 M 0.5 101.5 L 596.5 101.5 M 0.5 124.5 L 596.5 124.5 M 0.5 136.5 L 596.5 136.5 M 0.5 148.5 L 596.5 148.5 M 0.5 160.5 L 596.5 160.5 M 0.5 184.5 L 596.5 184.5 M 0.5 196.5 L 596.5 196.5 M 0.5 207.5 L 596.5 207.5 M 0.5 219.5 L 596.5 219.5 M 0.5 243.5 L 596.5 243.5 M 0.5 255.5 L 596.5 255.5 M 0.5 267.5 L 596.5 267.5 M 0.5 279.5 L 596.5 279.5" stroke-opacity="0.23529411764705882" stroke-linecap="round" stroke-linejoin="round" stroke-miterlimit="10"/><path fill="none" stroke="rgb(0,0,0)" paint-order="fill stroke markers" d=" M 67.5 2.5 L 67.5 298.5" stroke-opacity="1" stroke-miterlimit="10"/><path fill="none" stroke="rgb(0,0,0)" paint-order="fill stroke markers" d=" M 67.5 1.5 L 63.5 5.5" stroke-opacity="1" stroke-miterlimit="10"/><path fill="none" stroke="rgb(0,0,0)" paint-order="fill stroke markers" d=" M 67.5 1.5 L 71.5 5.5" stroke-opacity="1" stroke-miterlimit="10"/><path fill="none" stroke="rgb(0,0,0)" paint-order="fill stroke markers" d=" M 0.5 113.5 L 594.5 113.5" stroke-opacity="1" stroke-miterlimit="10"/><path fill="none" stroke="rgb(0,0,0)" paint-order="fill stroke markers" d=" M 595.5 113.5 L 591.5 109.5" stroke-opacity="1" stroke-miterlimit="10"/><path fill="none" stroke="rgb(0,0,0)" paint-order="fill stroke markers" d=" M 595.5 113.5 L 591.5 117.5" stroke-opacity="1" stroke-miterlimit="10"/><text fill="rgb(0,0,0)" stroke="none" font-family="geogebra-sans-serif, sans-serif" font-size="12px" font-style="normal" font-weight="normal" text-decoration="normal" x="118" y="129" text-anchor="start" dominant-baseline="alphabetic" fill-opacity="1">0.5</text><text fill="none" stroke="rgb(255,255,255)" font-family="geogebra-sans-serif, sans-serif" font-size="12px" font-style="normal" font-weight="normal" text-decoration="normal" x="118" y="129" text-anchor="start" dominant-baseline="alphabetic" stroke-opacity="1" stroke-linejoin="bevel" stroke-miterlimit="10" stroke-width="3">0.5</text><text fill="rgb(0,0,0)" stroke="none" font-family="geogebra-sans-serif, sans-serif" font-size="12px" font-style="normal" font-weight="normal" text-decoration="normal" x="118" y="129" text-anchor="start" dominant-baseline="alphabetic" fill-opacity="1">0.5</text><text fill="rgb(0,0,0)" stroke="none" font-family="geogebra-sans-serif, sans-serif" font-size="12px" font-style="normal" font-weight="normal" text-decoration="normal" x="184" y="129" text-anchor="start" dominant-baseline="alphabetic" fill-opacity="1">1</text><text fill="none" stroke="rgb(255,255,255)" font-family="geogebra-sans-serif, sans-serif" font-size="12px" font-style="normal" font-weight="normal" text-decoration="normal" x="184" y="129" text-anchor="start" dominant-baseline="alphabetic" stroke-opacity="1" stroke-linejoin="bevel" stroke-miterlimit="10" stroke-width="3">1</text><text fill="rgb(0,0,0)" stroke="none" font-family="geogebra-sans-serif, sans-serif" font-size="12px" font-style="normal" font-weight="normal" text-decoration="normal" x="184" y="129" text-anchor="start" dominant-baseline="alphabetic" fill-opacity="1">1</text><text fill="rgb(0,0,0)" stroke="none" font-family="geogebra-sans-serif, sans-serif" font-size="12px" font-style="normal" font-weight="normal" text-decoration="normal" x="237" y="129" text-anchor="start" dominant-baseline="alphabetic" fill-opacity="1">1.5</text><text fill="none" stroke="rgb(255,255,255)" font-family="geogebra-sans-serif, sans-serif" font-size="12px" font-style="normal" font-weight="normal" text-decoration="normal" x="237" y="129" text-anchor="start" dominant-baseline="alphabetic" stroke-opacity="1" stroke-linejoin="bevel" stroke-miterlimit="10" stroke-width="3">1.5</text><text fill="rgb(0,0,0)" stroke="none" font-family="geogebra-sans-serif, sans-serif" font-size="12px" font-style="normal" font-weight="normal" text-decoration="normal" x="237" y="129" text-anchor="start" dominant-baseline="alphabetic" fill-opacity="1">1.5</text><text fill="rgb(0,0,0)" stroke="none" font-family="geogebra-sans-serif, sans-serif" font-size="12px" font-style="normal" font-weight="normal" text-decoration="normal" x="302" y="129" text-anchor="start" dominant-baseline="alphabetic" fill-opacity="1">2</text><text fill="none" stroke="rgb(255,255,255)" font-family="geogebra-sans-serif, sans-serif" font-size="12px" font-style="normal" font-weight="normal" text-decoration="normal" x="302" y="129" text-anchor="start" dominant-baseline="alphabetic" stroke-opacity="1" stroke-linejoin="bevel" stroke-miterlimit="10" stroke-width="3">2</text><text fill="rgb(0,0,0)" stroke="none" font-family="geogebra-sans-serif, sans-serif" font-size="12px" font-style="normal" font-weight="normal" text-decoration="normal" x="302" y="129" text-anchor="start" dominant-baseline="alphabetic" fill-opacity="1">2</text><text fill="rgb(0,0,0)" stroke="none" font-family="geogebra-sans-serif, sans-serif" font-size="12px" font-style="normal" font-weight="normal" text-decoration="normal" x="355" y="129" text-anchor="start" dominant-baseline="alphabetic" fill-opacity="1">2.5</text><text fill="none" stroke="rgb(255,255,255)" font-family="geogebra-sans-serif, sans-serif" font-size="12px" font-style="normal" font-weight="normal" text-decoration="normal" x="355" y="129" text-anchor="start" dominant-baseline="alphabetic" stroke-opacity="1" stroke-linejoin="bevel" stroke-miterlimit="10" stroke-width="3">2.5</text><text fill="rgb(0,0,0)" stroke="none" font-family="geogebra-sans-serif, sans-serif" font-size="12px" font-style="normal" font-weight="normal" text-decoration="normal" x="355" y="129" text-anchor="start" dominant-baseline="alphabetic" fill-opacity="1">2.5</text><text fill="rgb(0,0,0)" stroke="none" font-family="geogebra-sans-serif, sans-serif" font-size="12px" font-style="normal" font-weight="normal" text-decoration="normal" x="421" y="129" text-anchor="start" dominant-baseline="alphabetic" fill-opacity="1">3</text><text fill="none" stroke="rgb(255,255,255)" font-family="geogebra-sans-serif, sans-serif" font-size="12px" font-style="normal" font-weight="normal" text-decoration="normal" x="421" y="129" text-anchor="start" dominant-baseline="alphabetic" stroke-opacity="1" stroke-linejoin="bevel" stroke-miterlimit="10" stroke-width="3">3</text><text fill="rgb(0,0,0)" stroke="none" font-family="geogebra-sans-serif, sans-serif" font-size="12px" font-style="normal" font-weight="normal" text-decoration="normal" x="421" y="129" text-anchor="start" dominant-baseline="alphabetic" fill-opacity="1">3</text><text fill="rgb(0,0,0)" stroke="none" font-family="geogebra-sans-serif, sans-serif" font-size="12px" font-style="normal" font-weight="normal" text-decoration="normal" x="474" y="129" text-anchor="start" dominant-baseline="alphabetic" fill-opacity="1">3.5</text><text fill="none" stroke="rgb(255,255,255)" font-family="geogebra-sans-serif, sans-serif" font-size="12px" font-style="normal" font-weight="normal" text-decoration="normal" x="474" y="129" text-anchor="start" dominant-baseline="alphabetic" stroke-opacity="1" stroke-linejoin="bevel" stroke-miterlimit="10" stroke-width="3">3.5</text><text fill="rgb(0,0,0)" stroke="none" font-family="geogebra-sans-serif, sans-serif" font-size="12px" font-style="normal" font-weight="normal" text-decoration="normal" x="474" y="129" text-anchor="start" dominant-baseline="alphabetic" fill-opacity="1">3.5</text><text fill="rgb(0,0,0)" stroke="none" font-family="geogebra-sans-serif, sans-serif" font-size="12px" font-style="normal" font-weight="normal" text-decoration="normal" x="539" y="129" text-anchor="start" dominant-baseline="alphabetic" fill-opacity="1">4</text><text fill="none" stroke="rgb(255,255,255)" font-family="geogebra-sans-serif, sans-serif" font-size="12px" font-style="normal" font-weight="normal" text-decoration="normal" x="539" y="129" text-anchor="start" dominant-baseline="alphabetic" stroke-opacity="1" stroke-linejoin="bevel" stroke-miterlimit="10" stroke-width="3">4</text><text fill="rgb(0,0,0)" stroke="none" font-family="geogebra-sans-serif, sans-serif" font-size="12px" font-style="normal" font-weight="normal" text-decoration="normal" x="539" y="129" text-anchor="start" dominant-baseline="alphabetic" fill-opacity="1">4</text><text fill="rgb(0,0,0)" stroke="none" font-family="geogebra-sans-serif, sans-serif" font-size="12px" font-style="normal" font-weight="normal" text-decoration="normal" x="47" y="236" text-anchor="start" dominant-baseline="alphabetic" fill-opacity="1">–1</text><text fill="none" stroke="rgb(255,255,255)" font-family="geogebra-sans-serif, sans-serif" font-size="12px" font-style="normal" font-weight="normal" text-decoration="normal" x="47" y="236" text-anchor="start" dominant-baseline="alphabetic" stroke-opacity="1" stroke-linejoin="bevel" stroke-miterlimit="10" stroke-width="3">–1</text><text fill="rgb(0,0,0)" stroke="none" font-family="geogebra-sans-serif, sans-serif" font-size="12px" font-style="normal" font-weight="normal" text-decoration="normal" x="47" y="236" text-anchor="start" dominant-baseline="alphabetic" fill-opacity="1">–1</text><text fill="rgb(0,0,0)" stroke="none" font-family="geogebra-sans-serif, sans-serif" font-size="12px" font-style="normal" font-weight="normal" text-decoration="normal" x="37" y="177" text-anchor="start" dominant-baseline="alphabetic" fill-opacity="1">–0.5</text><text fill="none" stroke="rgb(255,255,255)" font-family="geogebra-sans-serif, sans-serif" font-size="12px" font-style="normal" font-weight="normal" text-decoration="normal" x="37" y="177" text-anchor="start" dominant-baseline="alphabetic" stroke-opacity="1" stroke-linejoin="bevel" stroke-miterlimit="10" stroke-width="3">–0.5</text><text fill="rgb(0,0,0)" stroke="none" font-family="geogebra-sans-serif, sans-serif" font-size="12px" font-style="normal" font-weight="normal" text-decoration="normal" x="37" y="177" text-anchor="start" dominant-baseline="alphabetic" fill-opacity="1">–0.5</text><text fill="rgb(0,0,0)" stroke="none" font-family="geogebra-sans-serif, sans-serif" font-size="12px" font-style="normal" font-weight="normal" text-decoration="normal" x="43" y="58" text-anchor="start" dominant-baseline="alphabetic" fill-opacity="1">0.5</text><text fill="none" stroke="rgb(255,255,255)" font-family="geogebra-sans-serif, sans-serif" font-size="12px" font-style="normal" font-weight="normal" text-decoration="normal" x="43" y="58" text-anchor="start" dominant-baseline="alphabetic" stroke-opacity="1" stroke-linejoin="bevel" stroke-miterlimit="10" stroke-width="3">0.5</text><text fill="rgb(0,0,0)" stroke="none" font-family="geogebra-sans-serif, sans-serif" font-size="12px" font-style="normal" font-weight="normal" text-decoration="normal" x="43" y="58" text-anchor="start" dominant-baseline="alphabetic" fill-opacity="1">0.5</text><text fill="rgb(0,0,0)" stroke="none" font-family="geogebra-sans-serif, sans-serif" font-size="12px" font-style="normal" font-weight="normal" text-decoration="normal" x="53" y="129" text-anchor="start" dominant-baseline="alphabetic" fill-opacity="1">0</text><text fill="none" stroke="rgb(255,255,255)" font-family="geogebra-sans-serif, sans-serif" font-size="12px" font-style="normal" font-weight="normal" text-decoration="normal" x="53" y="129" text-anchor="start" dominant-baseline="alphabetic" stroke-opacity="1" stroke-linejoin="bevel" stroke-miterlimit="10" stroke-width="3">0</text><text fill="rgb(0,0,0)" stroke="none" font-family="geogebra-sans-serif, sans-serif" font-size="12px" font-style="normal" font-weight="normal" text-decoration="normal" x="53" y="129" text-anchor="start" dominant-baseline="alphabetic" fill-opacity="1">0</text><path fill="none" stroke="rgb(0,0,0)" paint-order="fill stroke markers" d=" M 1 253.84564742784968 L 1 254.17898076118303 L 1 253.84564742784968 L 2.000000000000014 253.51231409451634 L 2.000000000000014 253.51231409451634 L 3.000000000000014 253.178980761183 L 3.000000000000014 253.178980761183 L 4.000000000000014 252.8456474278497 L 4.000000000000014 252.8456474278497 L 5.000000000000014 252.51231409451637 L 5.000000000000014 252.51231409451637 L 6.000000000000014 252.17898076118303 L 6.000000000000014 252.17898076118303 L 7.000000000000021 251.84564742784968 L 7.000000000000021 251.84564742784968 L 8.000000000000021 251.51231409451634 L 8.000000000000021 251.51231409451634 L 9.000000000000021 251.17898076118303 L 9.000000000000021 251.17898076118303 L 10.000000000000021 250.84564742784968 L 10.000000000000021 250.84564742784968 L 11.000000000000028 250.51231409451634 L 11.000000000000028 250.51231409451634 L 12.000000000000028 250.17898076118303 L 12.000000000000028 250.17898076118303 L 13.000000000000028 249.84564742784968 L 13.000000000000028 249.84564742784968 L 14.000000000000036 249.51231409451634 L 14.000000000000036 249.51231409451634 L 15.000000000000036 249.178980761183 L 15.000000000000036 249.178980761183 L 16.000000000000036 248.84564742784968 L 16.000000000000036 248.84564742784968 L 17.000000000000036 248.51231409451634 L 17.000000000000036 248.51231409451634 L 18.000000000000043 248.178980761183 L 18.000000000000043 248.178980761183 L 19.000000000000043 247.84564742784968 L 19.000000000000043 247.84564742784968 L 20.000000000000043 247.51231409451634 L 20.000000000000043 247.51231409451634 L 21.00000000000005 247.17898076118303 L 21.00000000000005 247.17898076118303 L 22.00000000000005 246.84564742784968 L 22.00000000000005 246.84564742784968 L 23.00000000000005 246.51231409451634 L 23.00000000000005 246.51231409451634 L 24.00000000000005 246.178980761183 L 24.00000000000005 246.178980761183 L 25.000000000000057 245.84564742784966 L 25.000000000000057 245.84564742784966 L 26.000000000000057 245.51231409451634 L 26.000000000000057 245.51231409451634 L 27.000000000000057 245.178980761183 L 27.000000000000057 245.178980761183 L 28.000000000000064 244.84564742784968 L 28.000000000000064 244.84564742784968 L 29.000000000000064 244.51231409451634 L 29.000000000000064 244.51231409451634 L 30.000000000000064 244.178980761183 L 30.000000000000064 244.178980761183 L 31.000000000000064 243.84564742784966 L 31.000000000000064 243.84564742784966 L 32.00000000000007 243.5123140945163 L 32.00000000000007 243.5123140945163 L 33.00000000000007 243.178980761183 L 33.00000000000007 243.178980761183 L 34.00000000000007 242.84564742784968 L 34.00000000000007 242.84564742784968 L 35.00000000000007 242.51231409451634 L 35.00000000000007 242.51231409451634 L 36.00000000000008 242.178980761183 L 36.00000000000008 242.178980761183 L 37.00000000000008 241.84564742784966 L 37.00000000000008 241.84564742784966 L 38.00000000000008 241.5123140945163 L 38.00000000000008 241.5123140945163 L 39.00000000000007 241.178980761183 L 39.00000000000007 241.178980761183 L 40.00000000000007 240.84564742784966 L 40.00000000000007 240.84564742784966 L 41.00000000000007 240.51231409451634 L 41.00000000000007 240.51231409451634 L 42.00000000000007 240.17898076118297 L 42.00000000000007 240.17898076118297 L 43.00000000000007 239.84564742784966 L 43.00000000000007 239.84564742784966 L 44.00000000000007 239.51231409451634 L 44.00000000000007 239.51231409451634 L 45.00000000000007 239.178980761183 L 45.00000000000007 239.178980761183 L 46.00000000000007 238.84564742784966 L 46.00000000000007 238.84564742784966 L 47.000000000000064 238.51231409451634 L 47.000000000000064 238.51231409451634 L 48.000000000000064 238.17898076118297 L 48.000000000000064 238.17898076118297 L 49.000000000000064 237.84564742784966 L 49.000000000000064 237.84564742784966 L 50.00000000000006 237.51231409451634 L 50.00000000000006 237.51231409451634 L 51.00000000000006 237.178980761183 L 51.00000000000006 237.178980761183 L 52.00000000000006 236.84564742784966 L 52.00000000000006 236.84564742784966 L 53.00000000000006 236.5123140945163 L 53.00000000000006 236.5123140945163 L 54.00000000000006 236.178980761183 L 54.00000000000006 236.178980761183 L 55.00000000000006 235.84564742784966 L 55.00000000000006 235.84564742784966 L 56.00000000000006 235.51231409451634 L 56.00000000000006 235.51231409451634 L 57.00000000000006 235.17898076118297 L 57.00000000000006 235.17898076118297 L 58.00000000000006 234.84564742784966 L 58.00000000000006 234.84564742784966 L 59.000000000000064 234.51231409451634 L 59.000000000000064 234.51231409451634 L 60.000000000000064 234.178980761183 L 60.000000000000064 234.178980761183 L 61.000000000000064 233.84564742784966 L 61.000000000000064 233.84564742784966 L 62.000000000000064 233.51231409451634 L 62.000000000000064 233.51231409451634 L 63.000000000000064 233.17898076118297 L 63.000000000000064 233.17898076118297 L 64.00000000000006 232.84564742784966 L 64.00000000000006 232.84564742784966 L 65.00000000000006 232.51231409451634 L 65.00000000000006 232.51231409451634 L 66.00000000000006 232.178980761183 L 66.00000000000006 232.178980761183 L 67.00000000000006 231.84564742784966 L 67.00000000000006 231.84564742784966 L 68.00000000000006 231.51231409451634 L 68.00000000000006 231.51231409451634 L 69.00000000000006 231.17898076118297 L 69.00000000000006 231.17898076118297 L 70.00000000000006 230.84564742784966 L 70.00000000000006 230.84564742784966 L 71.00000000000006 230.51231409451634 L 71.00000000000006 230.51231409451634 L 72.00000000000006 230.17898076118297 L 72.00000000000006 230.17898076118297 L 73.00000000000006 229.84564742784966 L 73.00000000000006 229.84564742784966 L 74.00000000000006 229.51231409451634 L 74.00000000000006 229.51231409451634 L 75.00000000000006 229.17898076118297 L 75.00000000000006 229.17898076118297 L 76.00000000000006 228.84564742784966 L 76.00000000000006 228.84564742784966 L 77.00000000000006 228.51231409451634 L 77.00000000000006 228.51231409451634 L 78.00000000000007 228.17898076118297 L 78.00000000000007 228.17898076118297 L 79.00000000000007 227.84564742784966 L 79.00000000000007 227.84564742784966 L 80.00000000000007 227.5123140945163 L 80.00000000000007 227.5123140945163 L 81.00000000000007 227.178980761183 L 81.00000000000007 227.178980761183 L 82.00000000000007 226.84564742784966 L 82.00000000000007 226.84564742784966 L 83.00000000000007 226.5123140945163 L 83.00000000000007 226.5123140945163 L 84.00000000000006 226.17898076118297 L 84.00000000000006 226.17898076118297 L 85.00000000000006 225.84564742784966 L 85.00000000000006 225.84564742784966 L 86.00000000000006 225.51231409451634 L 86.00000000000006 225.51231409451634 L 87.00000000000006 225.17898076118297 L 87.00000000000006 225.17898076118297 L 88.00000000000006 224.84564742784966 L 88.00000000000006 224.84564742784966 L 89.00000000000006 224.51231409451634 L 89.00000000000006 224.51231409451634 L 90.00000000000006 224.17898076118297 L 90.00000000000006 224.17898076118297 L 91.00000000000006 223.84564742784966 L 91.00000000000006 223.84564742784966 L 92.00000000000006 223.51231409451634 L 92.00000000000006 223.51231409451634 L 93.00000000000006 223.17898076118297 L 93.00000000000006 223.17898076118297 L 94.00000000000006 222.84564742784966 L 94.00000000000006 222.84564742784966 L 95.00000000000006 222.5123140945163 L 95.00000000000006 222.5123140945163 L 96.00000000000006 222.178980761183 L 96.00000000000006 222.178980761183 L 97.00000000000004 221.84564742784966 L 97.00000000000004 221.84564742784966 L 98.00000000000006 221.5123140945163 L 98.00000000000006 221.5123140945163 L 99.00000000000006 221.17898076118297 L 99.00000000000006 221.17898076118297 L 100.00000000000006 220.84564742784966 L 100.00000000000006 220.84564742784966 L 101.00000000000006 220.51231409451634 L 101.00000000000006 220.51231409451634 L 102.00000000000006 220.17898076118297 L 102.00000000000006 220.17898076118297 L 103.00000000000006 219.84564742784966 L 103.00000000000006 219.84564742784966 L 104.00000000000006 219.5123140945163 L 104.00000000000006 219.5123140945163 L 105.00000000000006 219.17898076118297 L 105.00000000000006 219.17898076118297 L 106.00000000000006 218.84564742784966 L 106.00000000000006 218.84564742784966 L 107.00000000000006 218.51231409451634 L 107.00000000000006 218.51231409451634 L 108.00000000000007 218.17898076118297 L 108.00000000000007 218.17898076118297 L 109.00000000000007 217.84564742784966 L 109.00000000000007 217.84564742784966 L 110.00000000000007 217.51231409451628 L 110.00000000000007 217.51231409451628 L 111.00000000000009 217.17898076118297 L 111.00000000000009 217.17898076118297 L 112.00000000000009 216.84564742784966 L 112.00000000000009 216.84564742784966 L 113.00000000000009 216.5123140945163 L 113.00000000000009 216.5123140945163 L 114.00000000000009 216.17898076118297 L 114.00000000000009 216.17898076118297 L 115.00000000000009 215.84564742784966 L 115.00000000000009 215.84564742784966 L 116.00000000000009 215.51231409451628 L 116.00000000000009 215.51231409451628 L 117.00000000000009 215.17898076118297 L 117.00000000000009 215.17898076118297 L 118.00000000000009 214.84564742784966 L 118.00000000000009 214.84564742784966 L 119.00000000000009 214.5123140945163 L 119.00000000000009 214.5123140945163 L 120.00000000000009 214.17898076118297 L 120.00000000000009 214.17898076118297 L 121.00000000000009 213.84564742784963 L 121.00000000000009 213.84564742784963 L 122.0000000000001 213.51231409451628 L 122.0000000000001 213.51231409451628 L 123.0000000000001 213.17898076118297 L 123.0000000000001 213.17898076118297 L 124.0000000000001 212.84564742784963 L 124.0000000000001 212.84564742784963 L 125.0000000000001 212.51231409451628 L 125.0000000000001 212.51231409451628 L 126.00000000000011 212.17898076118297 L 126.00000000000011 212.17898076118297 L 127.0000000000001 211.84564742784963 L 127.0000000000001 211.84564742784963 L 128.0000000000001 211.51231409451628 L 128.0000000000001 211.51231409451628 L 129.0000000000001 211.17898076118297 L 129.0000000000001 211.17898076118297 L 130.0000000000001 210.84564742784966 L 130.0000000000001 210.84564742784966 L 131.0000000000001 210.51231409451628 L 131.0000000000001 210.51231409451628 L 132.0000000000001 210.17898076118297 L 132.0000000000001 210.17898076118297 L 133.0000000000001 209.84564742784963 L 133.0000000000001 209.84564742784963 L 134.0000000000001 209.51231409451628 L 134.0000000000001 209.51231409451628 L 135.0000000000001 209.17898076118297 L 135.0000000000001 209.17898076118297 L 136.0000000000001 208.84564742784963 L 136.0000000000001 208.84564742784963 L 137.0000000000001 208.51231409451628 L 137.0000000000001 208.51231409451628 L 138.0000000000001 208.17898076118297 L 138.0000000000001 208.17898076118297 L 139.0000000000001 207.8456474278496 L 139.0000000000001 207.8456474278496 L 140.0000000000001 207.51231409451628 L 140.0000000000001 207.51231409451628 L 141.0000000000001 207.17898076118297 L 141.0000000000001 207.17898076118297 L 142.0000000000001 206.84564742784963 L 142.0000000000001 206.84564742784963 L 143.0000000000001 206.51231409451628 L 143.0000000000001 206.51231409451628 L 144.0000000000001 206.17898076118297 L 144.0000000000001 206.17898076118297 L 145.00000000000014 205.8456474278496 L 145.00000000000014 205.8456474278496 L 146.00000000000014 205.51231409451628 L 146.00000000000014 205.51231409451628 L 147.00000000000014 205.17898076118294 L 147.00000000000014 205.17898076118294 L 148.00000000000014 204.84564742784963 L 148.00000000000014 204.84564742784963 L 149.00000000000014 204.51231409451628 L 149.00000000000014 204.51231409451628 L 150.00000000000014 204.17898076118294 L 150.00000000000014 204.17898076118294 L 151.00000000000014 203.8456474278496 L 151.00000000000014 203.8456474278496 L 152.00000000000017 203.51231409451628 L 152.00000000000017 203.51231409451628 L 153.00000000000017 203.17898076118294 L 153.00000000000017 203.17898076118294 L 154.00000000000017 202.8456474278496 L 154.00000000000017 202.8456474278496 L 155.00000000000017 202.51231409451628 L 155.00000000000017 202.51231409451628 L 156.00000000000017 202.17898076118294 L 156.00000000000017 202.17898076118294 L 157.00000000000017 201.8456474278496 L 157.00000000000017 201.8456474278496 L 158.00000000000017 201.51231409451628 L 158.00000000000017 201.51231409451628 L 159.00000000000017 201.17898076118294 L 159.00000000000017 201.17898076118294 L 160.00000000000017 200.8456474278496 L 160.00000000000017 200.8456474278496 L 161.00000000000017 200.51231409451628 L 161.00000000000017 200.51231409451628 L 162.00000000000017 200.1789807611829 L 162.00000000000017 200.1789807611829 L 163.00000000000017 199.8456474278496 L 163.00000000000017 199.8456474278496 L 164.00000000000017 199.51231409451628 L 164.00000000000017 199.51231409451628 L 165.00000000000017 199.1789807611829 L 165.00000000000017 199.1789807611829 L 166.00000000000017 198.8456474278496 L 166.00000000000017 198.8456474278496 L 167.00000000000017 198.51231409451628 L 167.00000000000017 198.51231409451628 L 168.00000000000017 198.1789807611829 L 168.00000000000017 198.1789807611829 L 169.00000000000017 197.8456474278496 L 169.00000000000017 197.8456474278496 L 170.00000000000017 197.51231409451628 L 170.00000000000017 197.51231409451628 L 171.00000000000017 197.1789807611829 L 171.00000000000017 197.1789807611829 L 172.00000000000017 196.8456474278496 L 172.00000000000017 196.8456474278496 L 173.0000000000002 196.51231409451626 L 173.0000000000002 196.51231409451626 L 174.0000000000002 196.1789807611829 L 174.0000000000002 196.1789807611829 L 175.0000000000002 195.8456474278496 L 175.0000000000002 195.8456474278496 L 176.0000000000002 195.51231409451626 L 176.0000000000002 195.51231409451626 L 177.0000000000002 195.1789807611829 L 177.0000000000002 195.1789807611829 L 178.0000000000002 194.8456474278496 L 178.0000000000002 194.8456474278496 L 179.0000000000002 194.51231409451626 L 179.0000000000002 194.51231409451626 L 180.00000000000023 194.1789807611829 L 180.00000000000023 194.1789807611829 L 181.00000000000023 193.8456474278496 L 181.00000000000023 193.8456474278496 L 182.00000000000023 193.51231409451626 L 182.00000000000023 193.51231409451626 L 183.00000000000023 193.1789807611829 L 183.00000000000023 193.1789807611829 L 184.00000000000023 192.8456474278496 L 184.00000000000023 192.8456474278496 L 185.00000000000023 192.51231409451626 L 185.00000000000023 192.51231409451626 L 186.00000000000023 192.1789807611829 L 186.00000000000023 192.1789807611829 L 187.00000000000023 191.8456474278496 L 187.00000000000023 191.8456474278496 L 188.0000000000002 191.51231409451626 L 188.0000000000002 191.51231409451626 L 189.00000000000017 191.1789807611829 L 189.00000000000017 191.1789807611829 L 190.00000000000017 190.8456474278496 L 190.00000000000017 190.8456474278496 L 191.00000000000017 190.51231409451628 L 191.00000000000017 190.51231409451628 L 192.00000000000017 190.1789807611829 L 192.00000000000017 190.1789807611829 L 193.00000000000014 189.8456474278496 L 193.00000000000014 189.8456474278496 L 194.0000000000001 189.51231409451628 L 194.0000000000001 189.51231409451628 L 195.0000000000001 189.17898076118294 L 195.0000000000001 189.17898076118294 L 196.0000000000001 188.8456474278496 L 196.0000000000001 188.8456474278496 L 197.0000000000001 188.51231409451628 L 197.0000000000001 188.51231409451628 L 198.00000000000006 188.17898076118297 L 198.00000000000006 188.17898076118297 L 199.00000000000006 187.84564742784963 L 199.00000000000006 187.84564742784963 L 200.00000000000006 187.51231409451628 L 200.00000000000006 187.51231409451628 L 201.00000000000006 187.17898076118297 L 201.00000000000006 187.17898076118297 L 202.00000000000006 186.84564742784966 L 202.00000000000006 186.84564742784966 L 203 186.5123140945163 L 203 186.5123140945163 L 204 186.17898076118297 L 204 186.17898076118297 L 205 185.84564742784966 L 205 185.84564742784966 L 206 185.51231409451634 L 206 185.51231409451634 L 207 185.17898076118297 L 207 185.17898076118297 L 208 184.84564742784966 L 208 184.84564742784966 L 208.99999999999994 184.51231409451634 L 208.99999999999994 184.51231409451634 L 209.99999999999994 184.178980761183 L 209.99999999999994 184.178980761183 L 210.99999999999994 183.84564742784966 L 210.99999999999994 183.84564742784966 L 211.99999999999994 183.51231409451634 L 211.99999999999994 183.51231409451634 L 212.99999999999994 183.178980761183 L 212.99999999999994 183.178980761183 L 213.9999999999999 182.84564742784968 L 213.9999999999999 182.84564742784968 L 214.9999999999999 182.51231409451634 L 214.9999999999999 182.51231409451634 L 215.9999999999999 182.17898076118303 L 215.9999999999999 182.17898076118303 L 216.9999999999999 181.84564742784968 L 216.9999999999999 181.84564742784968 L 217.9999999999999 181.51231409451637 L 217.9999999999999 181.51231409451637 L 218.99999999999983 181.17898076118303 L 218.99999999999983 181.17898076118303 L 219.99999999999983 180.8456474278497 L 219.99999999999983 180.8456474278497 L 220.99999999999983 180.51231409451637 L 220.99999999999983 180.51231409451637 L 221.99999999999983 180.17898076118303 L 221.99999999999983 180.17898076118303 L 222.99999999999983 179.8456474278497 L 222.99999999999983 179.8456474278497 L 223.99999999999977 179.5123140945164 L 223.99999999999977 179.5123140945164 L 224.99999999999977 179.17898076118303 L 224.99999999999977 179.17898076118303 L 225.99999999999977 178.8456474278497 L 225.99999999999977 178.8456474278497 L 226.99999999999977 178.5123140945164 L 226.99999999999977 178.5123140945164 L 227.99999999999977 178.17898076118306 L 227.99999999999977 178.17898076118306 L 228.99999999999972 177.8456474278497 L 228.99999999999972 177.8456474278497 L 229.99999999999972 177.5123140945164 L 229.99999999999972 177.5123140945164 L 230.99999999999972 177.17898076118308 L 230.99999999999972 177.17898076118308 L 231.99999999999972 176.84564742784974 L 231.99999999999972 176.84564742784974 L 232.99999999999972 176.51231409451643 L 232.99999999999972 176.51231409451643 L 233.99999999999966 176.17898076118308 L 233.99999999999966 176.17898076118308 L 234.99999999999966 175.84564742784977 L 234.99999999999966 175.84564742784977 L 235.99999999999966 175.51231409451643 L 235.99999999999966 175.51231409451643 L 236.99999999999966 175.17898076118308 L 236.99999999999966 175.17898076118308 L 237.99999999999966 174.84564742784977 L 237.99999999999966 174.84564742784977 L 238.9999999999996 174.51231409451646 L 238.9999999999996 174.51231409451646 L 239.9999999999996 174.17898076118308 L 239.9999999999996 174.17898076118308 L 240.9999999999996 173.84564742784977 L 240.9999999999996 173.84564742784977 L 241.9999999999996 173.51231409451646 L 241.9999999999996 173.51231409451646 L 242.9999999999996 173.1789807611831 L 242.9999999999996 173.1789807611831 L 243.99999999999955 172.84564742784977 L 243.99999999999955 172.84564742784977 L 244.99999999999955 172.51231409451646 L 244.99999999999955 172.51231409451646 L 245.99999999999955 172.1789807611831 L 245.99999999999955 172.1789807611831 L 246.99999999999955 171.8456474278498 L 246.99999999999955 171.8456474278498 L 247.99999999999955 171.51231409451646 L 247.99999999999955 171.51231409451646 L 248.9999999999995 171.17898076118314 L 248.9999999999995 171.17898076118314 L 249.9999999999995 170.8456474278498 L 249.9999999999995 170.8456474278498 L 250.9999999999995 170.51231409451648 L 250.9999999999995 170.51231409451648 L 251.9999999999995 170.17898076118314 L 251.9999999999995 170.17898076118314 L 252.9999999999995 169.84564742784983 L 252.9999999999995 169.84564742784983 L 253.99999999999943 169.51231409451648 L 253.99999999999943 169.51231409451648 L 254.99999999999943 169.17898076118314 L 254.99999999999943 169.17898076118314 L 255.99999999999943 168.84564742784983 L 255.99999999999943 168.84564742784983 L 256.99999999999943 168.5123140945165 L 256.99999999999943 168.5123140945165 L 257.99999999999943 168.17898076118317 L 257.99999999999943 168.17898076118317 L 258.99999999999943 167.84564742784983 L 258.99999999999943 167.84564742784983 L 259.9999999999994 167.5123140945165 L 259.9999999999994 167.5123140945165 L 260.9999999999994 167.17898076118317 L 260.9999999999994 167.17898076118317 L 261.9999999999994 166.84564742784985 L 261.9999999999994 166.84564742784985 L 262.9999999999994 166.5123140945165 L 262.9999999999994 166.5123140945165 L 263.9999999999994 166.1789807611832 L 263.9999999999994 166.1789807611832 L 264.9999999999993 165.84564742784985 L 264.9999999999993 165.84564742784985 L 265.9999999999993 165.51231409451654 L 265.9999999999993 165.51231409451654 L 266.9999999999993 165.1789807611832 L 266.9999999999993 165.1789807611832 L 267.9999999999993 164.84564742784988 L 267.9999999999993 164.84564742784988 L 268.9999999999993 164.51231409451654 L 268.9999999999993 164.51231409451654 L 269.99999999999926 164.1789807611832 L 269.99999999999926 164.1789807611832 L 270.99999999999926 163.84564742784988 L 270.99999999999926 163.84564742784988 L 271.99999999999926 163.51231409451657 L 271.99999999999926 163.51231409451657 L 272.99999999999926 163.1789807611832 L 272.99999999999926 163.1789807611832 L 273.99999999999926 162.84564742784988 L 273.99999999999926 162.84564742784988 L 274.9999999999992 162.51231409451657 L 274.9999999999992 162.51231409451657 L 275.9999999999992 162.17898076118323 L 275.9999999999992 162.17898076118323 L 276.9999999999992 161.84564742784988 L 276.9999999999992 161.84564742784988 L 277.9999999999992 161.51231409451657 L 277.9999999999992 161.51231409451657 L 278.9999999999992 161.17898076118323 L 278.9999999999992 161.17898076118323 L 279.99999999999915 160.8456474278499 L 279.99999999999915 160.8456474278499 L 280.99999999999915 160.51231409451657 L 280.99999999999915 160.51231409451657 L 281.99999999999915 160.17898076118325 L 281.99999999999915 160.17898076118325 L 282.99999999999915 159.8456474278499 L 282.99999999999915 159.8456474278499 L 283.99999999999915 159.5123140945166 L 283.99999999999915 159.5123140945166 L 284.9999999999991 159.17898076118325 L 284.9999999999991 159.17898076118325 L 285.9999999999991 158.84564742784994 L 285.9999999999991 158.84564742784994 L 286.9999999999991 158.5123140945166 L 286.9999999999991 158.5123140945166 L 287.9999999999991 158.17898076118325 L 287.9999999999991 158.17898076118325 L 288.9999999999991 157.84564742784994 L 288.9999999999991 157.84564742784994 L 289.99999999999903 157.51231409451663 L 289.99999999999903 157.51231409451663 L 290.99999999999903 157.17898076118328 L 290.99999999999903 157.17898076118328 L 291.99999999999903 156.84564742784994 L 291.99999999999903 156.84564742784994 L 292.99999999999903 156.51231409451663 L 292.99999999999903 156.51231409451663 L 293.99999999999903 156.17898076118328 L 293.99999999999903 156.17898076118328 L 294.999999999999 155.84564742784997 L 294.999999999999 155.84564742784997 L 295.999999999999 155.51231409451663 L 295.999999999999 155.51231409451663 L 296.999999999999 155.1789807611833 L 296.999999999999 155.1789807611833 L 297.999999999999 154.84564742784997 L 297.999999999999 154.84564742784997 L 298.999999999999 154.51231409451665 L 298.999999999999 154.51231409451665 L 299.9999999999989 154.1789807611833 L 299.9999999999989 154.1789807611833 L 300.9999999999989 153.84564742785 L 300.9999999999989 153.84564742785 L 301.9999999999989 153.51231409451665 L 301.9999999999989 153.51231409451665 L 302.9999999999989 153.1789807611833 L 302.9999999999989 153.1789807611833 L 303.9999999999989 152.84564742785 L 303.9999999999989 152.84564742785 L 304.99999999999886 152.51231409451668 L 304.99999999999886 152.51231409451668 L 305.9999999999989 152.17898076118334 L 305.9999999999989 152.17898076118334 L 306.9999999999989 151.84564742785 L 306.9999999999989 151.84564742785 L 307.9999999999989 151.51231409451665 L 307.9999999999989 151.51231409451665 L 308.999999999999 151.1789807611833 L 308.999999999999 151.1789807611833 L 309.999999999999 150.84564742784997 L 309.999999999999 150.84564742784997 L 310.999999999999 150.51231409451663 L 310.999999999999 150.51231409451663 L 311.999999999999 150.1789807611833 L 311.999999999999 150.1789807611833 L 312.99999999999903 149.84564742784997 L 312.99999999999903 149.84564742784997 L 313.99999999999903 149.51231409451663 L 313.99999999999903 149.51231409451663 L 314.99999999999903 149.17898076118328 L 314.99999999999903 149.17898076118328 L 315.99999999999903 148.84564742784994 L 315.99999999999903 148.84564742784994 L 316.9999999999991 148.5123140945166 L 316.9999999999991 148.5123140945166 L 317.9999999999991 148.17898076118325 L 317.9999999999991 148.17898076118325 L 318.9999999999991 147.84564742784994 L 318.9999999999991 147.84564742784994 L 319.9999999999991 147.5123140945166 L 319.9999999999991 147.5123140945166 L 320.99999999999915 147.17898076118325 L 320.99999999999915 147.17898076118325 L 321.99999999999915 146.8456474278499 L 321.99999999999915 146.8456474278499 L 322.99999999999915 146.51231409451657 L 322.99999999999915 146.51231409451657 L 323.9999999999992 146.17898076118323 L 323.9999999999992 146.17898076118323 L 324.9999999999992 145.84564742784988 L 324.9999999999992 145.84564742784988 L 325.9999999999992 145.51231409451657 L 325.9999999999992 145.51231409451657 L 326.99999999999926 145.17898076118323 L 326.99999999999926 145.17898076118323 L 327.99999999999926 144.84564742784988 L 327.99999999999926 144.84564742784988 L 328.99999999999926 144.51231409451654 L 328.99999999999926 144.51231409451654 L 329.99999999999926 144.1789807611832 L 329.99999999999926 144.1789807611832 L 330.9999999999993 143.84564742784985 L 330.9999999999993 143.84564742784985 L 331.9999999999993 143.5123140945165 L 331.9999999999993 143.5123140945165 L 332.9999999999993 143.1789807611832 L 332.9999999999993 143.1789807611832 L 333.9999999999993 142.84564742784985 L 333.9999999999993 142.84564742784985 L 334.9999999999994 142.5123140945165 L 334.9999999999994 142.5123140945165 L 335.9999999999994 142.17898076118317 L 335.9999999999994 142.17898076118317 L 336.9999999999994 141.84564742784983 L 336.9999999999994 141.84564742784983 L 337.99999999999943 141.51231409451648 L 337.99999999999943 141.51231409451648 L 338.99999999999943 141.17898076118314 L 338.99999999999943 141.17898076118314 L 339.99999999999943 140.84564742784983 L 339.99999999999943 140.84564742784983 L 340.99999999999943 140.51231409451648 L 340.99999999999943 140.51231409451648 L 341.9999999999995 140.17898076118314 L 341.9999999999995 140.17898076118314 L 342.9999999999995 139.8456474278498 L 342.9999999999995 139.8456474278498 L 343.9999999999995 139.51231409451646 L 343.9999999999995 139.51231409451646 L 344.9999999999995 139.1789807611831 L 344.9999999999995 139.1789807611831 L 345.99999999999955 138.84564742784977 L 345.99999999999955 138.84564742784977 L 346.99999999999955 138.51231409451646 L 346.99999999999955 138.51231409451646 L 347.99999999999955 138.1789807611831 L 347.99999999999955 138.1789807611831 L 348.99999999999955 137.84564742784977 L 348.99999999999955 137.84564742784977 L 349.9999999999996 137.51231409451643 L 349.9999999999996 137.51231409451643 L 350.9999999999996 137.17898076118308 L 350.9999999999996 137.17898076118308 L 351.9999999999996 136.84564742784974 L 351.9999999999996 136.84564742784974 L 352.99999999999966 136.5123140945164 L 352.99999999999966 136.5123140945164 L 353.99999999999966 136.17898076118308 L 353.99999999999966 136.17898076118308 L 354.99999999999966 135.84564742784974 L 354.99999999999966 135.84564742784974 L 355.99999999999966 135.5123140945164 L 355.99999999999966 135.5123140945164 L 356.9999999999997 135.17898076118306 L 356.9999999999997 135.17898076118306 L 357.9999999999997 134.8456474278497 L 357.9999999999997 134.8456474278497 L 358.9999999999997 134.51231409451637 L 358.9999999999997 134.51231409451637 L 359.9999999999997 134.17898076118306 L 359.9999999999997 134.17898076118306 L 360.9999999999998 133.8456474278497 L 360.9999999999998 133.8456474278497 L 361.9999999999998 133.51231409451637 L 361.9999999999998 133.51231409451637 L 362.9999999999998 133.17898076118303 L 362.9999999999998 133.17898076118303 L 363.9999999999998 132.84564742784968 L 363.9999999999998 132.84564742784968 L 364.99999999999983 132.51231409451634 L 364.99999999999983 132.51231409451634 L 365.99999999999983 132.17898076118303 L 365.99999999999983 132.17898076118303 L 366.99999999999983 131.84564742784968 L 366.99999999999983 131.84564742784968 L 367.9999999999999 131.51231409451634 L 367.9999999999999 131.51231409451634 L 368.9999999999999 131.178980761183 L 368.9999999999999 131.178980761183 L 369.9999999999999 130.84564742784966 L 369.9999999999999 130.84564742784966 L 370.9999999999999 130.5123140945163 L 370.9999999999999 130.5123140945163 L 371.99999999999994 130.17898076118297 L 371.99999999999994 130.17898076118297 L 372.99999999999994 129.84564742784966 L 372.99999999999994 129.84564742784966 L 373.99999999999994 129.5123140945163 L 373.99999999999994 129.5123140945163 L 374.99999999999994 129.17898076118297 L 374.99999999999994 129.17898076118297 L 376 128.84564742784963 L 376 128.84564742784963 L 377 128.51231409451628 L 377 128.51231409451628 L 378 128.17898076118294 L 378 128.17898076118294 L 379 127.84564742784961 L 379 127.84564742784961 L 380.00000000000006 127.51231409451627 L 380.00000000000006 127.51231409451627 L 381.00000000000006 127.17898076118293 L 381.00000000000006 127.17898076118293 L 382.00000000000006 126.8456474278496 L 382.00000000000006 126.8456474278496 L 383.0000000000001 126.51231409451626 L 383.0000000000001 126.51231409451626 L 384.0000000000001 126.17898076118291 L 384.0000000000001 126.17898076118291 L 385.0000000000001 125.84564742784957 L 385.0000000000001 125.84564742784957 L 386.0000000000001 125.51231409451624 L 386.0000000000001 125.51231409451624 L 387.00000000000017 125.1789807611829 L 387.00000000000017 125.1789807611829 L 388.00000000000017 124.84564742784956 L 388.00000000000017 124.84564742784956 L 389.00000000000017 124.51231409451623 L 389.00000000000017 124.51231409451623 L 390.00000000000017 124.17898076118288 L 390.00000000000017 124.17898076118288 L 391.0000000000002 123.84564742784954 L 391.0000000000002 123.84564742784954 L 392.0000000000002 123.51231409451621 L 392.0000000000002 123.51231409451621 L 393.0000000000002 123.17898076118287 L 393.0000000000002 123.17898076118287 L 394.0000000000002 122.84564742784953 L 394.0000000000002 122.84564742784953 L 395.0000000000003 122.5123140945162 L 395.0000000000003 122.5123140945162 L 396.0000000000003 122.17898076118286 L 396.0000000000003 122.17898076118286 L 397.0000000000003 121.84564742784951 L 397.0000000000003 121.84564742784951 L 398.00000000000034 121.51231409451617 L 398.00000000000034 121.51231409451617 L 399.00000000000034 121.17898076118284 L 399.00000000000034 121.17898076118284 L 400.00000000000034 120.8456474278495 L 400.00000000000034 120.8456474278495 L 401.00000000000034 120.51231409451616 L 401.00000000000034 120.51231409451616 L 402.0000000000004 120.17898076118283 L 402.0000000000004 120.17898076118283 L 403.0000000000004 119.84564742784949 L 403.0000000000004 119.84564742784949 L 404.0000000000004 119.51231409451614 L 404.0000000000004 119.51231409451614 L 405.0000000000004 119.1789807611828 L 405.0000000000004 119.1789807611828 L 406.00000000000045 118.84564742784947 L 406.00000000000045 118.84564742784947 L 407.00000000000045 118.51231409451613 L 407.00000000000045 118.51231409451613 L 408.00000000000045 118.17898076118279 L 408.00000000000045 118.17898076118279 L 409.00000000000045 117.84564742784946 L 409.00000000000045 117.84564742784946 L 410.0000000000005 117.51231409451611 L 410.0000000000005 117.51231409451611 L 411.0000000000005 117.17898076118277 L 411.0000000000005 117.17898076118277 L 412.0000000000005 116.84564742784943 L 412.0000000000005 116.84564742784943 L 413.00000000000057 116.5123140945161 L 413.00000000000057 116.5123140945161 L 414.00000000000057 116.17898076118276 L 414.00000000000057 116.17898076118276 L 415.00000000000057 115.84564742784941 L 415.00000000000057 115.84564742784941 L 416.00000000000057 115.51231409451609 L 416.00000000000057 115.51231409451609 L 417.0000000000006 115.17898076118274 L 417.0000000000006 115.17898076118274 L 418.0000000000006 114.8456474278494 L 418.0000000000006 114.8456474278494 L 419.0000000000006 114.51231409451607 L 419.0000000000006 114.51231409451607 L 420.0000000000006 114.17898076118273 L 420.0000000000006 114.17898076118273 L 421.0000000000007 113.84564742784939 L 421.0000000000007 113.84564742784939 L 422.0000000000007 113.51231409451604 L 422.0000000000007 113.51231409451604 L 423.0000000000007 113.17898076118271 L 423.0000000000007 113.17898076118271 L 424.0000000000007 112.84564742784937 L 424.0000000000007 112.84564742784937 L 425.00000000000074 112.51231409451603 L 425.00000000000074 112.51231409451603 L 426.00000000000074 112.1789807611827 L 426.00000000000074 112.1789807611827 L 427.00000000000074 111.84564742784936 L 427.00000000000074 111.84564742784936 L 428.0000000000008 111.51231409451601 L 428.0000000000008 111.51231409451601 L 429.0000000000008 111.17898076118267 L 429.0000000000008 111.17898076118267 L 430.0000000000008 110.84564742784934 L 430.0000000000008 110.84564742784934 L 431.0000000000008 110.512314094516 L 431.0000000000008 110.512314094516 L 432.00000000000085 110.17898076118266 L 432.00000000000085 110.17898076118266 L 433.00000000000085 109.84564742784933 L 433.00000000000085 109.84564742784933 L 434.00000000000085 109.51231409451599 L 434.00000000000085 109.51231409451599 L 435.00000000000085 109.17898076118264 L 435.00000000000085 109.17898076118264 L 436.0000000000009 108.84564742784931 L 436.0000000000009 108.84564742784931 L 437.0000000000009 108.51231409451597 L 437.0000000000009 108.51231409451597 L 438.0000000000009 108.17898076118263 L 438.0000000000009 108.17898076118263 L 439.0000000000009 107.84564742784929 L 439.0000000000009 107.84564742784929 L 440.00000000000097 107.51231409451596 L 440.00000000000097 107.51231409451596 L 441.00000000000097 107.17898076118261 L 441.00000000000097 107.17898076118261 L 442.00000000000097 106.84564742784927 L 442.00000000000097 106.84564742784927 L 443.000000000001 106.51231409451594 L 443.000000000001 106.51231409451594 L 444.000000000001 106.1789807611826 L 444.000000000001 106.1789807611826 L 445.000000000001 105.84564742784926 L 445.000000000001 105.84564742784926 L 446.000000000001 105.51231409451592 L 446.000000000001 105.51231409451592 L 447.0000000000011 105.17898076118259 L 447.0000000000011 105.17898076118259 L 448.0000000000011 104.84564742784924 L 448.0000000000011 104.84564742784924 L 449.0000000000011 104.5123140945159 L 449.0000000000011 104.5123140945159 L 450.0000000000011 104.17898076118257 L 450.0000000000011 104.17898076118257 L 451.00000000000114 103.84564742784923 L 451.00000000000114 103.84564742784923 L 452.00000000000114 103.51231409451589 L 452.00000000000114 103.51231409451589 L 453.00000000000114 103.17898076118254 L 453.00000000000114 103.17898076118254 L 454.00000000000114 102.84564742784922 L 454.00000000000114 102.84564742784922 L 455.0000000000012 102.51231409451587 L 455.0000000000012 102.51231409451587 L 456.0000000000012 102.17898076118253 L 456.0000000000012 102.17898076118253 L 457.0000000000012 101.8456474278492 L 457.0000000000012 101.8456474278492 L 458.00000000000125 101.51231409451586 L 458.00000000000125 101.51231409451586 L 459.00000000000125 101.17898076118252 L 459.00000000000125 101.17898076118252 L 460.00000000000125 100.84564742784919 L 460.00000000000125 100.84564742784919 L 461.00000000000125 100.51231409451584 L 461.00000000000125 100.51231409451584 L 462.0000000000013 100.1789807611825 L 462.0000000000013 100.1789807611825 L 463.0000000000013 99.84564742784917 L 463.0000000000013 99.84564742784917 L 464.0000000000013 99.51231409451583 L 464.0000000000013 99.51231409451583 L 465.0000000000013 99.17898076118249 L 465.0000000000013 99.17898076118249 L 466.00000000000136 98.84564742784914 L 466.00000000000136 98.84564742784914 L 467.00000000000136 98.51231409451582 L 467.00000000000136 98.51231409451582 L 468.00000000000136 98.17898076118247 L 468.00000000000136 98.17898076118247 L 469.00000000000136 97.84564742784913 L 469.00000000000136 97.84564742784913 L 470.0000000000014 97.5123140945158 L 470.0000000000014 97.5123140945158 L 471.0000000000014 97.17898076118246 L 471.0000000000014 97.17898076118246 L 472.0000000000014 96.84564742784912 L 472.0000000000014 96.84564742784912 L 473.0000000000015 96.51231409451577 L 473.0000000000015 96.51231409451577 L 474.0000000000015 96.17898076118244 L 474.0000000000015 96.17898076118244 L 475.0000000000015 95.8456474278491 L 475.0000000000015 95.8456474278491 L 476.0000000000015 95.51231409451576 L 476.0000000000015 95.51231409451576 L 477.00000000000153 95.17898076118243 L 477.00000000000153 95.17898076118243 L 478.00000000000153 94.84564742784909 L 478.00000000000153 94.84564742784909 L 479.00000000000153 94.51231409451574 L 479.00000000000153 94.51231409451574 L 480.00000000000153 94.1789807611824 L 480.00000000000153 94.1789807611824 L 481.0000000000016 93.84564742784907 L 481.0000000000016 93.84564742784907 L 482.0000000000016 93.51231409451573 L 482.0000000000016 93.51231409451573 L 483.0000000000016 93.17898076118239 L 483.0000000000016 93.17898076118239 L 484.0000000000016 92.84564742784906 L 484.0000000000016 92.84564742784906 L 485.00000000000165 92.51231409451572 L 485.00000000000165 92.51231409451572 L 486.00000000000165 92.17898076118237 L 486.00000000000165 92.17898076118237 L 487.00000000000165 91.84564742784903 L 487.00000000000165 91.84564742784903 L 488.0000000000017 91.5123140945157 L 488.0000000000017 91.5123140945157 L 489.0000000000017 91.17898076118236 L 489.0000000000017 91.17898076118236 L 490.0000000000017 90.84564742784903 L 490.0000000000017 90.84564742784903 L 491.0000000000017 90.51231409451569 L 491.0000000000017 90.51231409451569 L 492.00000000000176 90.17898076118234 L 492.00000000000176 90.17898076118234 L 493.00000000000176 89.845647427849 L 493.00000000000176 89.845647427849 L 494.00000000000176 89.51231409451566 L 494.00000000000176 89.51231409451566 L 495.00000000000176 89.17898076118233 L 495.00000000000176 89.17898076118233 L 496.0000000000018 88.84564742784899 L 496.0000000000018 88.84564742784899 L 497.0000000000018 88.51231409451566 L 497.0000000000018 88.51231409451566 L 498.0000000000018 88.17898076118232 L 498.0000000000018 88.17898076118232 L 499.0000000000018 87.84564742784897 L 499.0000000000018 87.84564742784897 L 500.0000000000019 87.51231409451563 L 500.0000000000019 87.51231409451563 L 501.0000000000019 87.1789807611823 L 501.0000000000019 87.1789807611823 L 502.0000000000019 86.84564742784896 L 502.0000000000019 86.84564742784896 L 503.00000000000193 86.51231409451562 L 503.00000000000193 86.51231409451562 L 504.00000000000193 86.17898076118229 L 504.00000000000193 86.17898076118229 L 505.00000000000193 85.84564742784895 L 505.00000000000193 85.84564742784895 L 506.00000000000193 85.5123140945156 L 506.00000000000193 85.5123140945156 L 507.000000000002 85.17898076118226 L 507.000000000002 85.17898076118226 L 508.000000000002 84.84564742784893 L 508.000000000002 84.84564742784893 L 509.000000000002 84.51231409451559 L 509.000000000002 84.51231409451559 L 510.000000000002 84.17898076118225 L 510.000000000002 84.17898076118225 L 511.00000000000205 83.84564742784892 L 511.00000000000205 83.84564742784892 L 512.000000000002 83.51231409451557 L 512.000000000002 83.51231409451557 L 513.000000000002 83.17898076118223 L 513.000000000002 83.17898076118223 L 514.000000000002 82.84564742784889 L 514.000000000002 82.84564742784889 L 515.000000000002 82.51231409451556 L 515.000000000002 82.51231409451556 L 516.000000000002 82.17898076118222 L 516.000000000002 82.17898076118222 L 517.000000000002 81.84564742784889 L 517.000000000002 81.84564742784889 L 518.0000000000022 81.51231409451555 L 518.0000000000022 81.51231409451555 L 519.0000000000022 81.1789807611822 L 519.0000000000022 81.1789807611822 L 520.0000000000022 80.84564742784886 L 520.0000000000022 80.84564742784886 L 521.0000000000022 80.51231409451552 L 521.0000000000022 80.51231409451552 L 522.0000000000022 80.17898076118219 L 522.0000000000022 80.17898076118219 L 523.0000000000022 79.84564742784885 L 523.0000000000022 79.84564742784885 L 524.0000000000022 79.51231409451552 L 524.0000000000022 79.51231409451552 L 525.0000000000022 79.17898076118217 L 525.0000000000022 79.17898076118217 L 526.0000000000023 78.84564742784883 L 526.0000000000023 78.84564742784883 L 527.0000000000023 78.51231409451549 L 527.0000000000023 78.51231409451549 L 528.0000000000023 78.17898076118215 L 528.0000000000023 78.17898076118215 L 529.0000000000023 77.84564742784882 L 529.0000000000023 77.84564742784882 L 530.0000000000023 77.51231409451547 L 530.0000000000023 77.51231409451547 L 531.0000000000023 77.17898076118215 L 531.0000000000023 77.17898076118215 L 532.0000000000023 76.8456474278488 L 532.0000000000023 76.8456474278488 L 533.0000000000024 76.51231409451546 L 533.0000000000024 76.51231409451546 L 534.0000000000024 76.17898076118212 L 534.0000000000024 76.17898076118212 L 535.0000000000024 75.84564742784877 L 535.0000000000024 75.84564742784877 L 536.0000000000024 75.51231409451545 L 536.0000000000024 75.51231409451545 L 537.0000000000024 75.17898076118212 L 537.0000000000024 75.17898076118212 L 538.0000000000024 74.84564742784877 L 538.0000000000024 74.84564742784877 L 539.0000000000024 74.51231409451543 L 539.0000000000024 74.51231409451543 L 540.0000000000024 74.17898076118209 L 540.0000000000024 74.17898076118209 L 541.0000000000025 73.84564742784875 L 541.0000000000025 73.84564742784875 L 542.0000000000024 73.51231409451543 L 542.0000000000024 73.51231409451543 L 543.0000000000024 73.1789807611821 L 543.0000000000024 73.1789807611821 L 544.0000000000025 72.84564742784876 L 544.0000000000025 72.84564742784876 L 545.0000000000025 72.51231409451543 L 545.0000000000025 72.51231409451543 L 546.0000000000025 72.17898076118209 L 546.0000000000025 72.17898076118209 L 547.0000000000025 71.84564742784875 L 547.0000000000025 71.84564742784875 L 548.0000000000025 71.5123140945154 L 548.0000000000025 71.5123140945154 L 549.0000000000025 71.17898076118206 L 549.0000000000025 71.17898076118206 L 550.0000000000025 70.84564742784873 L 550.0000000000025 70.84564742784873 L 551.0000000000025 70.51231409451539 L 551.0000000000025 70.51231409451539 L 552.0000000000026 70.17898076118206 L 552.0000000000026 70.17898076118206 L 553.0000000000026 69.84564742784872 L 553.0000000000026 69.84564742784872 L 554.0000000000026 69.51231409451538 L 554.0000000000026 69.51231409451538 L 555.0000000000026 69.17898076118203 L 555.0000000000026 69.17898076118203 L 556.0000000000026 68.84564742784869 L 556.0000000000026 68.84564742784869 L 557.0000000000026 68.51231409451536 L 557.0000000000026 68.51231409451536 L 558.0000000000026 68.17898076118203 L 558.0000000000026 68.17898076118203 L 559.0000000000027 67.84564742784869 L 559.0000000000027 67.84564742784869 L 560.0000000000027 67.51231409451535 L 560.0000000000027 67.51231409451535 L 561.0000000000027 67.178980761182 L 561.0000000000027 67.178980761182 L 562.0000000000027 66.84564742784866 L 562.0000000000027 66.84564742784866 L 563.0000000000027 66.51231409451533 L 563.0000000000027 66.51231409451533 L 564.0000000000027 66.17898076118199 L 564.0000000000027 66.17898076118199 L 565.0000000000027 65.84564742784866 L 565.0000000000027 65.84564742784866 L 566.0000000000027 65.51231409451532 L 566.0000000000027 65.51231409451532 L 567.0000000000028 65.17898076118198 L 567.0000000000028 65.17898076118198 L 568.0000000000028 64.84564742784863 L 568.0000000000028 64.84564742784863 L 569.0000000000028 64.51231409451529 L 569.0000000000028 64.51231409451529 L 570.0000000000028 64.17898076118196 L 570.0000000000028 64.17898076118196 L 571.0000000000028 63.84564742784862 L 571.0000000000028 63.84564742784862 L 572.0000000000028 63.51231409451528 L 572.0000000000028 63.51231409451528 L 573.0000000000028 63.17898076118194 L 573.0000000000028 63.17898076118194 L 574.000000000003 62.845647427848604 L 574.000000000003 62.845647427848604 L 575.000000000003 62.51231409451527 L 575.000000000003 62.51231409451527 L 576.000000000003 62.178980761181926 L 576.000000000003 62.178980761181926 L 577.000000000003 61.84564742784859 L 577.000000000003 61.84564742784859 L 578.000000000003 61.51231409451525 L 578.000000000003 61.51231409451525 L 579.000000000003 61.17898076118191 L 579.000000000003 61.17898076118191 L 580.0000000000031 60.845647427848576 L 580.0000000000031 60.845647427848576 L 581.0000000000031 60.51231409451523 L 581.0000000000031 60.51231409451523 L 582.0000000000031 60.1789807611819 L 582.0000000000031 60.1789807611819 L 583.0000000000031 59.845647427848554 L 583.0000000000031 59.845647427848554 L 584.0000000000031 59.51231409451522 L 584.0000000000031 59.51231409451522 L 585.0000000000031 59.178980761181876 L 585.0000000000031 59.178980761181876 L 586.0000000000031 58.84564742784854 L 586.0000000000031 58.84564742784854 L 587.0000000000031 58.512314094515204 L 587.0000000000031 58.512314094515204 L 588.0000000000032 58.17898076118186 L 588.0000000000032 58.17898076118186 L 589.0000000000032 57.845647427848526 L 589.0000000000032 57.845647427848526 L 590.0000000000032 57.51231409451518 L 590.0000000000032 57.51231409451518 L 591.0000000000032 57.17898076118185 L 591.0000000000032 57.17898076118185 L 592.0000000000032 56.84564742784851 L 592.0000000000032 56.84564742784851 L 593.0000000000032 56.51231409451517 L 593.0000000000032 56.51231409451517 L 594.0000000000032 56.17898076118183 L 594.0000000000032 56.17898076118183 L 595.0000000000033 55.84564742784849 L 595.0000000000033 55.84564742784849 L 596.0000000000033 55.512314094515155" stroke-opacity="0.8" stroke-linecap="round" stroke-linejoin="round" stroke-miterlimit="10" stroke-width="2.5"/><text fill="rgb(0,0,0)" stroke="none" font-family="geogebra-sans-serif, sans-serif" font-size="16px" font-style="normal" font-weight="normal" text-decoration="normal" x="24" y="246" text-anchor="start" dominant-baseline="alphabetic" fill-opacity="1">f</text><text fill="none" stroke="rgb(255,255,255)" font-family="geogebra-sans-serif, sans-serif" font-size="16px" font-style="normal" font-weight="normal" text-decoration="normal" x="24" y="246" text-anchor="start" dominant-baseline="alphabetic" stroke-opacity="1" stroke-linejoin="bevel" stroke-miterlimit="10" stroke-width="3">f</text><text fill="rgb(0,0,0)" stroke="none" font-family="geogebra-sans-serif, sans-serif" font-size="16px" font-style="normal" font-weight="normal" text-decoration="normal" x="24" y="246" text-anchor="start" dominant-baseline="alphabetic" fill-opacity="1">f</text></g></g></svg>