<?xml version="1.0" encoding="UTF-8" standalone="no"?>
<!DOCTYPE svg PUBLIC "-//W3C//DTD SVG 1.1//EN"
 "http://www.w3.org/Graphics/SVG/1.1/DTD/svg11.dtd">
<!-- Generated by graphviz version 2.40.1 (20161225.0304)
 -->
<!-- Title: G Pages: 1 -->
<svg width="182pt" height="182pt"
 viewBox="0.00 0.00 181.51 181.51" xmlns="http://www.w3.org/2000/svg" xmlns:xlink="http://www.w3.org/1999/xlink">
<g id="graph0" class="graph" transform="scale(1 1) rotate(0) translate(4 177.5099)">
<title>G</title>
<polygon fill="transparent" stroke="transparent" points="-4,4 -4,-177.5099 177.5099,-177.5099 177.5099,4 -4,4"/>
<!-- 1 -->
<g id="node1" class="node">
<title>1</title>
<ellipse fill="none" stroke="#000000" cx="86.7549" cy="-18" rx="18" ry="18"/>
<text text-anchor="middle" x="86.7549" y="-14.3" font-family="Times,serif" font-size="14.00" fill="#000000">1</text>
</g>
<!-- 2 -->
<g id="node2" class="node">
<title>2</title>
<ellipse fill="none" stroke="#000000" cx="18" cy="-86.7549" rx="18" ry="18"/>
<text text-anchor="middle" x="18" y="-83.0549" font-family="Times,serif" font-size="14.00" fill="#000000">2</text>
</g>
<!-- 1&#45;&gt;2 -->
<g id="edge1" class="edge">
<title>1&#45;&gt;2</title>
<path fill="none" stroke="#000000" d="M73.8227,-30.9323C63.7391,-41.0158 49.5571,-55.1978 38.0113,-66.7436"/>
<polygon fill="#000000" stroke="#000000" points="35.4705,-64.3347 30.8743,-73.8806 40.4203,-69.2844 35.4705,-64.3347"/>
</g>
<!-- 3 -->
<g id="node3" class="node">
<title>3</title>
<ellipse fill="none" stroke="#000000" cx="86.7549" cy="-155.5099" rx="18" ry="18"/>
<text text-anchor="middle" x="86.7549" y="-151.8099" font-family="Times,serif" font-size="14.00" fill="#000000">3</text>
</g>
<!-- 2&#45;&gt;3 -->
<g id="edge2" class="edge">
<title>2&#45;&gt;3</title>
<path fill="none" stroke="#000000" d="M30.9323,-99.6872C41.0158,-109.7707 55.1978,-123.9528 66.7436,-135.4986"/>
<polygon fill="#000000" stroke="#000000" points="64.3347,-138.0394 73.8806,-142.6356 69.2844,-133.0896 64.3347,-138.0394"/>
</g>
<!-- 4 -->
<g id="node4" class="node">
<title>4</title>
<ellipse fill="none" stroke="#000000" cx="155.5099" cy="-86.7549" rx="18" ry="18"/>
<text text-anchor="middle" x="155.5099" y="-83.0549" font-family="Times,serif" font-size="14.00" fill="#000000">4</text>
</g>
<!-- 3&#45;&gt;4 -->
<g id="edge3" class="edge">
<title>3&#45;&gt;4</title>
<path fill="none" stroke="#000000" d="M99.6872,-142.5776C109.7707,-132.4941 123.9528,-118.312 135.4986,-106.7662"/>
<polygon fill="#000000" stroke="#000000" points="138.0394,-109.1752 142.6356,-99.6292 133.0896,-104.2254 138.0394,-109.1752"/>
</g>
<!-- 4&#45;&gt;1 -->
<g id="edge4" class="edge">
<title>4&#45;&gt;1</title>
<path fill="none" stroke="#000000" d="M142.5776,-73.8227C132.4941,-63.7391 118.312,-49.5571 106.7662,-38.0113"/>
<polygon fill="#000000" stroke="#000000" points="109.1752,-35.4705 99.6292,-30.8743 104.2254,-40.4203 109.1752,-35.4705"/>
</g>
</g>
</svg>
