<?xml version="1.0" encoding="UTF-8" standalone="no"?>
<!DOCTYPE svg PUBLIC "-//W3C//DTD SVG 1.1//EN"
 "http://www.w3.org/Graphics/SVG/1.1/DTD/svg11.dtd">
<!-- Generated by graphviz version 2.40.1 (20161225.0304)
 -->
<!-- Title: G Pages: 1 -->
<svg width="260pt" height="117pt"
 viewBox="0.00 0.00 260.00 117.00" xmlns="http://www.w3.org/2000/svg" xmlns:xlink="http://www.w3.org/1999/xlink">
<g id="graph0" class="graph" transform="scale(1 1) rotate(0) translate(4 113)">
<title>G</title>
<polygon fill="transparent" stroke="transparent" points="-4,4 -4,-113 256,-113 256,4 -4,4"/>
<!-- 1 -->
<g id="node1" class="node">
<title>1</title>
<ellipse fill="none" stroke="#000000" cx="18" cy="-73" rx="18" ry="18"/>
<text text-anchor="middle" x="18" y="-69.3" font-family="Times,serif" font-size="14.00" fill="#000000">1</text>
</g>
<!-- 3 -->
<g id="node2" class="node">
<title>3</title>
<ellipse fill="none" stroke="#000000" cx="234" cy="-73" rx="18" ry="18"/>
<text text-anchor="middle" x="234" y="-69.3" font-family="Times,serif" font-size="14.00" fill="#000000">3</text>
</g>
<!-- 1&#45;&gt;3 -->
<g id="edge1" class="edge">
<title>1&#45;&gt;3</title>
<path fill="none" stroke="#000000" d="M35.6762,-69.0882C73.188,-65.5905 161.0103,-65.3256 206.1417,-68.2936"/>
<polygon fill="#000000" stroke="#000000" points="206.1402,-71.804 216.3825,-69.0937 206.6855,-64.8253 206.1402,-71.804"/>
</g>
<!-- 2 -->
<g id="node3" class="node">
<title>2</title>
<ellipse fill="none" stroke="#000000" cx="90" cy="-18" rx="18" ry="18"/>
<text text-anchor="middle" x="90" y="-14.3" font-family="Times,serif" font-size="14.00" fill="#000000">2</text>
</g>
<!-- 1&#45;&gt;2 -->
<g id="edge2" class="edge">
<title>1&#45;&gt;2</title>
<path fill="none" stroke="#000000" d="M32.5703,-61.8699C42.5246,-54.2659 55.9158,-44.0366 67.2632,-35.3684"/>
<polygon fill="#000000" stroke="#000000" points="69.6293,-37.9653 75.4514,-29.1135 65.38,-32.4026 69.6293,-37.9653"/>
</g>
<!-- 3&#45;&gt;1 -->
<g id="edge5" class="edge">
<title>3&#45;&gt;1</title>
<path fill="none" stroke="#000000" d="M216.3825,-76.9063C178.9233,-80.4074 91.1049,-80.6756 45.929,-77.7111"/>
<polygon fill="#000000" stroke="#000000" points="45.918,-74.1997 35.6762,-76.9118 45.3739,-81.1785 45.918,-74.1997"/>
</g>
<!-- 3&#45;&gt;3 -->
<g id="edge6" class="edge">
<title>3&#45;&gt;3</title>
<path fill="none" stroke="#000000" d="M222.2435,-87.0417C217.8468,-97.9126 221.7656,-109 234,-109 242.4111,-109 246.8919,-103.7595 247.4422,-96.9516"/>
<polygon fill="#000000" stroke="#000000" points="250.884,-96.3132 245.7565,-87.0417 243.9831,-97.4871 250.884,-96.3132"/>
</g>
<!-- 4 -->
<g id="node4" class="node">
<title>4</title>
<ellipse fill="none" stroke="#000000" cx="162" cy="-18" rx="18" ry="18"/>
<text text-anchor="middle" x="162" y="-14.3" font-family="Times,serif" font-size="14.00" fill="#000000">4</text>
</g>
<!-- 2&#45;&gt;4 -->
<g id="edge3" class="edge">
<title>2&#45;&gt;4</title>
<path fill="none" stroke="#000000" d="M108.1686,-18C115.869,-18 125.0257,-18 133.5834,-18"/>
<polygon fill="#000000" stroke="#000000" points="133.5868,-21.5001 143.5867,-18 133.5867,-14.5001 133.5868,-21.5001"/>
</g>
<!-- 4&#45;&gt;3 -->
<g id="edge4" class="edge">
<title>4&#45;&gt;3</title>
<path fill="none" stroke="#000000" d="M176.5703,-29.1301C186.5246,-36.7341 199.9158,-46.9634 211.2632,-55.6316"/>
<polygon fill="#000000" stroke="#000000" points="209.38,-58.5974 219.4514,-61.8865 213.6293,-53.0347 209.38,-58.5974"/>
</g>
</g>
</svg>
