<?xml version="1.0" encoding="UTF-8" standalone="no"?>
<!DOCTYPE svg PUBLIC "-//W3C//DTD SVG 1.1//EN"
 "http://www.w3.org/Graphics/SVG/1.1/DTD/svg11.dtd">
<!-- Generated by graphviz version 2.40.1 (20161225.0304)
 -->
<!-- Title: G Pages: 1 -->
<svg width="332pt" height="121pt"
 viewBox="0.00 0.00 332.00 121.03" xmlns="http://www.w3.org/2000/svg" xmlns:xlink="http://www.w3.org/1999/xlink">
<g id="graph0" class="graph" transform="scale(1 1) rotate(0) translate(4 117.0282)">
<title>G</title>
<polygon fill="transparent" stroke="transparent" points="-4,4 -4,-117.0282 328,-117.0282 328,4 -4,4"/>
<!-- 1 -->
<g id="node1" class="node">
<title>1</title>
<ellipse fill="none" stroke="#000000" cx="18" cy="-79" rx="18" ry="18"/>
<text text-anchor="middle" x="18" y="-75.3" font-family="Times,serif" font-size="14.00" fill="#000000">1</text>
</g>
<!-- 2 -->
<g id="node2" class="node">
<title>2</title>
<ellipse fill="none" stroke="#000000" cx="90" cy="-33" rx="18" ry="18"/>
<text text-anchor="middle" x="90" y="-29.3" font-family="Times,serif" font-size="14.00" fill="#000000">2</text>
</g>
<!-- 1&#45;&#45;2 -->
<g id="edge1" class="edge">
<title>1&#45;&#45;2</title>
<path fill="none" stroke="#000000" d="M33.2693,-69.2446C45.488,-61.4382 62.5398,-50.544 74.7527,-42.7414"/>
</g>
<!-- 3 -->
<g id="node3" class="node">
<title>3</title>
<ellipse fill="none" stroke="#000000" cx="162" cy="-79" rx="18" ry="18"/>
<text text-anchor="middle" x="162" y="-75.3" font-family="Times,serif" font-size="14.00" fill="#000000">3</text>
</g>
<!-- 1&#45;&#45;3 -->
<g id="edge2" class="edge">
<title>1&#45;&#45;3</title>
<path fill="none" stroke="#000000" d="M36.2377,-79C63.9367,-79 116.2995,-79 143.9104,-79"/>
</g>
<!-- 4 -->
<g id="node4" class="node">
<title>4</title>
<ellipse fill="none" stroke="#000000" cx="234" cy="-60" rx="18" ry="18"/>
<text text-anchor="middle" x="234" y="-56.3" font-family="Times,serif" font-size="14.00" fill="#000000">4</text>
</g>
<!-- 1&#45;&#45;4 -->
<g id="edge3" class="edge">
<title>1&#45;&#45;4</title>
<path fill="none" stroke="#000000" d="M34.144,-86.9772C63.8696,-100.5255 128.8942,-124.8165 180,-106 197.1043,-99.7024 212.4801,-85.3119 222.4092,-74.2908"/>
</g>
<!-- 2&#45;&#45;3 -->
<g id="edge4" class="edge">
<title>2&#45;&#45;3</title>
<path fill="none" stroke="#000000" d="M105.2693,-42.7554C117.488,-50.5618 134.5398,-61.456 146.7527,-69.2586"/>
</g>
<!-- 2&#45;&#45;4 -->
<g id="edge5" class="edge">
<title>2&#45;&#45;4</title>
<path fill="none" stroke="#000000" d="M107.9465,-36.365C135.6915,-41.5672 188.6725,-51.5011 216.2796,-56.6774"/>
</g>
<!-- 5 -->
<g id="node5" class="node">
<title>5</title>
<ellipse fill="none" stroke="#000000" cx="306" cy="-18" rx="18" ry="18"/>
<text text-anchor="middle" x="306" y="-14.3" font-family="Times,serif" font-size="14.00" fill="#000000">5</text>
</g>
<!-- 2&#45;&#45;5 -->
<g id="edge6" class="edge">
<title>2&#45;&#45;5</title>
<path fill="none" stroke="#000000" d="M108.0445,-31.7469C148.7033,-28.9234 247.1012,-22.0902 287.8549,-19.2601"/>
</g>
<!-- 3&#45;&#45;4 -->
<g id="edge7" class="edge">
<title>3&#45;&#45;4</title>
<path fill="none" stroke="#000000" d="M179.4292,-74.4006C190.6661,-71.4353 205.2273,-67.5928 216.4818,-64.6229"/>
</g>
<!-- 4&#45;&#45;5 -->
<g id="edge8" class="edge">
<title>4&#45;&#45;5</title>
<path fill="none" stroke="#000000" d="M249.6229,-50.8866C261.6997,-43.8418 278.3384,-34.1359 290.4076,-27.0956"/>
</g>
</g>
</svg>
