<?xml version="1.0" encoding="UTF-8" standalone="no"?>
<!DOCTYPE svg PUBLIC "-//W3C//DTD SVG 1.1//EN"
 "http://www.w3.org/Graphics/SVG/1.1/DTD/svg11.dtd">
<!-- Generated by graphviz version 2.40.1 (20161225.0304)
 -->
<!-- Title: G Pages: 1 -->
<svg width="188pt" height="67pt"
 viewBox="0.00 0.00 188.00 67.00" xmlns="http://www.w3.org/2000/svg" xmlns:xlink="http://www.w3.org/1999/xlink">
<g id="graph0" class="graph" transform="scale(1 1) rotate(0) translate(4 63)">
<title>G</title>
<polygon fill="transparent" stroke="transparent" points="-4,4 -4,-63 184,-63 184,4 -4,4"/>
<!-- 1 -->
<g id="node1" class="node">
<title>1</title>
<ellipse fill="none" stroke="#000000" cx="18" cy="-18" rx="18" ry="18"/>
<text text-anchor="middle" x="18" y="-14.3" font-family="Times,serif" font-size="14.00" fill="#000000">1</text>
</g>
<!-- 2 -->
<g id="node2" class="node">
<title>2</title>
<ellipse fill="none" stroke="#000000" cx="162" cy="-41" rx="18" ry="18"/>
<text text-anchor="middle" x="162" y="-37.3" font-family="Times,serif" font-size="14.00" fill="#000000">2</text>
</g>
<!-- 1&#45;&gt;2 -->
<g id="edge1" class="edge">
<title>1&#45;&gt;2</title>
<path fill="none" stroke="#000000" d="M33.3269,-28.0771C43.7533,-34.3095 58.1264,-41.7249 72,-45 92.391,-49.8137 116.085,-48.4944 134.042,-46.1425"/>
<polygon fill="#000000" stroke="#000000" points="134.7684,-49.5729 144.1416,-44.6338 133.7342,-42.6497 134.7684,-49.5729"/>
</g>
<!-- 3 -->
<g id="node3" class="node">
<title>3</title>
<ellipse fill="none" stroke="#000000" cx="90" cy="-18" rx="18" ry="18"/>
<text text-anchor="middle" x="90" y="-14.3" font-family="Times,serif" font-size="14.00" fill="#000000">3</text>
</g>
<!-- 1&#45;&gt;3 -->
<g id="edge2" class="edge">
<title>1&#45;&gt;3</title>
<path fill="none" stroke="#000000" d="M35.063,-12.1601C43.1928,-11.2975 53.1239,-11.0481 62.2953,-11.4119"/>
<polygon fill="#000000" stroke="#000000" points="62.342,-14.9233 72.5593,-12.1206 62.8242,-7.94 62.342,-14.9233"/>
</g>
<!-- 3&#45;&gt;1 -->
<g id="edge3" class="edge">
<title>3&#45;&gt;1</title>
<path fill="none" stroke="#000000" d="M72.5593,-23.8794C64.3745,-24.7231 54.428,-24.9536 45.2807,-24.5709"/>
<polygon fill="#000000" stroke="#000000" points="45.2873,-21.0625 35.063,-23.8399 44.7877,-28.0446 45.2873,-21.0625"/>
</g>
<!-- 3&#45;&gt;2 -->
<g id="edge4" class="edge">
<title>3&#45;&gt;2</title>
<path fill="none" stroke="#000000" d="M107.4292,-23.5677C115.7425,-26.2233 125.8751,-29.4601 135.1423,-32.4204"/>
<polygon fill="#000000" stroke="#000000" points="134.1405,-35.7746 144.7313,-35.4836 136.2706,-29.1066 134.1405,-35.7746"/>
</g>
</g>
</svg>
