<?xml version="1.0" encoding="UTF-8" standalone="no"?>
<!DOCTYPE svg PUBLIC "-//W3C//DTD SVG 1.1//EN"
 "http://www.w3.org/Graphics/SVG/1.1/DTD/svg11.dtd">
<!-- Generated by graphviz version 2.40.1 (20161225.0304)
 -->
<!-- Title: G Pages: 1 -->
<svg width="386pt" height="79pt"
 viewBox="0.00 0.00 386.40 79.20" xmlns="http://www.w3.org/2000/svg" xmlns:xlink="http://www.w3.org/1999/xlink">
<g id="graph0" class="graph" transform="scale(1 1) rotate(0) translate(4 75.1984)">
<title>G</title>
<polygon fill="transparent" stroke="transparent" points="-4,4 -4,-75.1984 382.3968,-75.1984 382.3968,4 -4,4"/>
<!-- S -->
<g id="node1" class="node">
<title>S</title>
<ellipse fill="none" stroke="#000000" cx="18" cy="-18.1984" rx="18" ry="18"/>
<text text-anchor="middle" x="18" y="-14.4984" font-family="Times,serif" font-size="14.00" fill="#000000">S</text>
</g>
<!-- A -->
<g id="node2" class="node">
<title>A</title>
<ellipse fill="none" stroke="#000000" cx="189" cy="-53.1984" rx="18" ry="18"/>
<text text-anchor="middle" x="189" y="-49.4984" font-family="Times,serif" font-size="14.00" fill="#000000">A</text>
</g>
<!-- S&#45;&#45;A -->
<g id="edge1" class="edge">
<title>S&#45;&#45;A</title>
<path fill="none" stroke="#ff0000" d="M35.6559,-21.8122C68.4236,-28.519 138.2958,-42.8203 171.1839,-49.5518"/>
<text text-anchor="middle" x="94.5" y="-44.9984" font-family="Times,serif" font-size="14.00" fill="#ff0000">100Mbits/s</text>
</g>
<!-- D -->
<g id="node3" class="node">
<title>D</title>
<ellipse fill="none" stroke="#000000" cx="360.1984" cy="-18.1984" rx="18.399" ry="18.399"/>
<text text-anchor="middle" x="360.1984" y="-14.4984" font-family="Times,serif" font-size="14.00" fill="#000000">D</text>
</g>
<!-- S&#45;&#45;D -->
<g id="edge2" class="edge">
<title>S&#45;&#45;D</title>
<path fill="none" stroke="#ff0000" d="M36.3304,-16.9462C62.285,-15.2419 111.2392,-12.2803 153,-11.1984 184.9893,-10.3696 193.0107,-10.3708 225,-11.1984 266.822,-12.2803 315.8482,-15.2419 341.8411,-16.9462"/>
<text text-anchor="middle" x="189" y="-14.9984" font-family="Times,serif" font-size="14.00" fill="#ff0000">10Mbits/s</text>
</g>
<!-- A&#45;&#45;D -->
<g id="edge3" class="edge">
<title>A&#45;&#45;D</title>
<path fill="none" stroke="#ff0000" d="M206.6764,-49.5846C239.4821,-42.8778 309.4354,-28.5764 342.3616,-21.845"/>
<text text-anchor="middle" x="283.5" y="-44.9984" font-family="Times,serif" font-size="14.00" fill="#ff0000">100Mbits/s</text>
</g>
</g>
</svg>
