<?xml version="1.0" encoding="UTF-8" standalone="no"?>
<!DOCTYPE svg PUBLIC "-//W3C//DTD SVG 1.1//EN"
 "http://www.w3.org/Graphics/SVG/1.1/DTD/svg11.dtd">
<!-- Generated by graphviz version 3.0.0 (0)
 -->
<!-- Title: probability_tree Pages: 1 -->
<svg width="404pt" height="157pt"
 viewBox="0.00 0.00 403.72 157.00" xmlns="http://www.w3.org/2000/svg" xmlns:xlink="http://www.w3.org/1999/xlink">
<g id="graph0" class="graph" transform="scale(1 1) rotate(0) translate(4 153)">
<title>probability_tree</title>
<polygon fill="white" stroke="transparent" points="-4,4 -4,-153 399.72,-153 399.72,4 -4,4"/>
<!-- Univers -->
<g id="node1" class="node">
<title>Univers</title>
<ellipse fill="black" stroke="black" cx="0.36" cy="-75.5" rx="0.36" ry="0.36"/>
</g>
<!-- Rouge -->
<g id="node2" class="node">
<title>Rouge</title>
<text text-anchor="middle" x="74.22" y="-98.8" font-family="Times,serif" font-size="14.00">R</text>
</g>
<!-- Univers&#45;&#45;Rouge -->
<g id="edge1" class="edge">
<title>Univers&#45;&#45;Rouge</title>
<path fill="none" stroke="black" d="M0.77,-75.52C2.38,-76.12 40.29,-90.24 60.62,-97.81"/>
<text text-anchor="middle" x="30.22" y="-94.3" font-family="Times,serif" font-size="14.00">1/3</text>
</g>
<!-- Noir -->
<g id="node3" class="node">
<title>Noir</title>
<text text-anchor="middle" x="74.22" y="-44.8" font-family="Times,serif" font-size="14.00">N</text>
</g>
<!-- Univers&#45;&#45;Noir -->
<g id="edge2" class="edge">
<title>Univers&#45;&#45;Noir</title>
<path fill="none" stroke="black" d="M0.83,-75.41C1.87,-74.51 10.52,-67.24 18.72,-63.5 31.93,-57.47 48.08,-53.4 59.36,-51.04"/>
<text text-anchor="middle" x="30.22" y="-67.3" font-family="Times,serif" font-size="14.00">2/3</text>
</g>
<!-- V1 -->
<g id="node4" class="node">
<title>V1</title>
<text text-anchor="middle" x="271.72" y="-133.8" font-family="Times,serif" font-size="14.00">V &#160;: Boule rouge marquée d&#39;un V</text>
</g>
<!-- Rouge&#45;&#45;V1 -->
<g id="edge3" class="edge">
<title>Rouge&#45;&#45;V1</title>
<path fill="none" stroke="black" d="M87.83,-108.58C93.49,-111.08 100.32,-113.78 106.72,-115.5 122.53,-119.75 139.44,-123.19 156.16,-125.99"/>
<text text-anchor="middle" x="118.22" y="-124.3" font-family="Times,serif" font-size="14.00">1/2</text>
</g>
<!-- nV1 -->
<g id="node6" class="node">
<title>nV1</title>
<text text-anchor="middle" x="271.72" y="-92.8" font-family="Times,serif" font-size="14.00">P &#160;: Boule rouge non marquée</text>
</g>
<!-- Rouge&#45;&#45;nV1 -->
<g id="edge4" class="edge">
<title>Rouge&#45;&#45;nV1</title>
<path fill="none" stroke="black" d="M87.78,-101.59C93.55,-101.2 100.48,-100.77 106.72,-100.5 122.94,-99.79 140.06,-99.19 156.89,-98.7"/>
<text text-anchor="middle" x="118.22" y="-104.3" font-family="Times,serif" font-size="14.00">1/2</text>
</g>
<!-- V2 -->
<g id="node5" class="node">
<title>V2</title>
<text text-anchor="middle" x="271.72" y="-48.8" font-family="Times,serif" font-size="14.00">V &#160;: Boule noire marquée d&#39;un V</text>
</g>
<!-- Noir&#45;&#45;V2 -->
<g id="edge5" class="edge">
<title>Noir&#45;&#45;V2</title>
<path fill="none" stroke="black" d="M88.97,-48.78C102.7,-49.06 125.26,-49.52 149.9,-50.03"/>
<text text-anchor="middle" x="118.22" y="-53.3" font-family="Times,serif" font-size="14.00">2/3</text>
</g>
<!-- nV2 -->
<g id="node7" class="node">
<title>nV2</title>
<text text-anchor="middle" x="271.72" y="-7.8" font-family="Times,serif" font-size="14.00">P &#160;: Boule rouge non marquée</text>
</g>
<!-- Noir&#45;&#45;nV2 -->
<g id="edge6" class="edge">
<title>Noir&#45;&#45;nV2</title>
<path fill="none" stroke="black" d="M89,-38.41C94.29,-35.03 100.55,-31.59 106.72,-29.5 122.59,-24.13 139.78,-20.28 156.84,-17.53"/>
<text text-anchor="middle" x="118.22" y="-33.3" font-family="Times,serif" font-size="14.00">1/3</text>
</g>
</g>
</svg>
