<svg version="1.1" xmlns="http://www.w3.org/2000/svg" xmlns:xlink="http://www.w3.org/1999/xlink" width="452" height="504"><defs><clipPath id="zdPpfRmPspbA"><path fill="none" stroke="none" d=" M 0 0 L 452 0 L 452 504 L 0 504 L 0 0 Z"/></clipPath></defs><g transform="scale(1,1)" clip-path="url(#zdPpfRmPspbA)"><g><rect fill="rgb(255,255,255)" stroke="none" x="0" y="0" width="452" height="504" fill-opacity="1"/><path fill="none" stroke="rgb(192,192,192)" paint-order="fill stroke markers" d=" M 35.5 0.5 L 35.5 504.5 M 35.5 0.5 L 35.5 504.5 M 93.5 0.5 L 93.5 504.5 M 209.5 0.5 L 209.5 504.5 M 266.5 0.5 L 266.5 504.5 M 324.5 0.5 L 324.5 504.5 M 382.5 0.5 L 382.5 504.5 M 440.5 0.5 L 440.5 504.5" stroke-opacity="1" stroke-linecap="round" stroke-linejoin="round" stroke-miterlimit="10"/><path fill="none" stroke="rgb(192,192,192)" paint-order="fill stroke markers" d=" M 1.5 0.5 L 1.5 504.5 M 12.5 0.5 L 12.5 504.5 M 24.5 0.5 L 24.5 504.5 M 47.5 0.5 L 47.5 504.5 M 59.5 0.5 L 59.5 504.5 M 70.5 0.5 L 70.5 504.5 M 82.5 0.5 L 82.5 504.5 M 105.5 0.5 L 105.5 504.5 M 116.5 0.5 L 116.5 504.5 M 128.5 0.5 L 128.5 504.5 M 139.5 0.5 L 139.5 504.5 M 162.5 0.5 L 162.5 504.5 M 174.5 0.5 L 174.5 504.5 M 186.5 0.5 L 186.5 504.5 M 197.5 0.5 L 197.5 504.5 M 220.5 0.5 L 220.5 504.5 M 232.5 0.5 L 232.5 504.5 M 243.5 0.5 L 243.5 504.5 M 255.5 0.5 L 255.5 504.5 M 278.5 0.5 L 278.5 504.5 M 290.5 0.5 L 290.5 504.5 M 301.5 0.5 L 301.5 504.5 M 313.5 0.5 L 313.5 504.5 M 336.5 0.5 L 336.5 504.5 M 347.5 0.5 L 347.5 504.5 M 359.5 0.5 L 359.5 504.5 M 370.5 0.5 L 370.5 504.5 M 393.5 0.5 L 393.5 504.5 M 405.5 0.5 L 405.5 504.5 M 417.5 0.5 L 417.5 504.5 M 428.5 0.5 L 428.5 504.5 M 451.5 0.5 L 451.5 504.5" stroke-opacity="0.23529411764705882" stroke-linecap="round" stroke-linejoin="round" stroke-miterlimit="10"/><path fill="none" stroke="rgb(192,192,192)" paint-order="fill stroke markers" d=" M 0.5 23.5 L 452.5 23.5 M 0.5 23.5 L 452.5 23.5 M 0.5 80.5 L 452.5 80.5 M 0.5 138.5 L 452.5 138.5 M 0.5 196.5 L 452.5 196.5 M 0.5 254.5 L 452.5 254.5 M 0.5 311.5 L 452.5 311.5 M 0.5 369.5 L 452.5 369.5 M 0.5 427.5 L 452.5 427.5" stroke-opacity="1" stroke-linecap="round" stroke-linejoin="round" stroke-miterlimit="10"/><path fill="none" stroke="rgb(192,192,192)" paint-order="fill stroke markers" d=" M 0.5 11.5 L 452.5 11.5 M 0.5 11.5 L 452.5 11.5 M 0.5 34.5 L 452.5 34.5 M 0.5 46.5 L 452.5 46.5 M 0.5 57.5 L 452.5 57.5 M 0.5 69.5 L 452.5 69.5 M 0.5 92.5 L 452.5 92.5 M 0.5 103.5 L 452.5 103.5 M 0.5 115.5 L 452.5 115.5 M 0.5 126.5 L 452.5 126.5 M 0.5 150.5 L 452.5 150.5 M 0.5 161.5 L 452.5 161.5 M 0.5 173.5 L 452.5 173.5 M 0.5 184.5 L 452.5 184.5 M 0.5 207.5 L 452.5 207.5 M 0.5 219.5 L 452.5 219.5 M 0.5 230.5 L 452.5 230.5 M 0.5 242.5 L 452.5 242.5 M 0.5 265.5 L 452.5 265.5 M 0.5 277.5 L 452.5 277.5 M 0.5 288.5 L 452.5 288.5 M 0.5 300.5 L 452.5 300.5 M 0.5 323.5 L 452.5 323.5 M 0.5 334.5 L 452.5 334.5 M 0.5 346.5 L 452.5 346.5 M 0.5 357.5 L 452.5 357.5 M 0.5 381.5 L 452.5 381.5 M 0.5 392.5 L 452.5 392.5 M 0.5 404.5 L 452.5 404.5 M 0.5 415.5 L 452.5 415.5 M 0.5 438.5 L 452.5 438.5 M 0.5 450.5 L 452.5 450.5 M 0.5 461.5 L 452.5 461.5 M 0.5 473.5 L 452.5 473.5 M 0.5 496.5 L 452.5 496.5" stroke-opacity="0.23529411764705882" stroke-linecap="round" stroke-linejoin="round" stroke-miterlimit="10"/><path fill="none" stroke="rgb(0,0,0)" paint-order="fill stroke markers" d=" M 151.5 2.5 L 151.5 504.5" stroke-opacity="1" stroke-miterlimit="10"/><path fill="none" stroke="rgb(0,0,0)" paint-order="fill stroke markers" d=" M 151.5 1.5 L 147.5 5.5" stroke-opacity="1" stroke-miterlimit="10"/><path fill="none" stroke="rgb(0,0,0)" paint-order="fill stroke markers" d=" M 151.5 1.5 L 155.5 5.5" stroke-opacity="1" stroke-miterlimit="10"/><path fill="none" stroke="rgb(0,0,0)" paint-order="fill stroke markers" d=" M 0.5 485.5 L 450.5 485.5" stroke-opacity="1" stroke-miterlimit="10"/><path fill="none" stroke="rgb(0,0,0)" paint-order="fill stroke markers" d=" M 451.5 485.5 L 447.5 481.5" stroke-opacity="1" stroke-miterlimit="10"/><path fill="none" stroke="rgb(0,0,0)" paint-order="fill stroke markers" d=" M 451.5 485.5 L 447.5 489.5" stroke-opacity="1" stroke-miterlimit="10"/><text fill="rgb(0,0,0)" stroke="none" font-family="geogebra-sans-serif, sans-serif" font-size="12px" font-style="normal" font-weight="normal" text-decoration="normal" x="30" y="498" text-anchor="start" dominant-baseline="alphabetic" fill-opacity="1">–2</text><text fill="none" stroke="rgb(255,255,255)" font-family="geogebra-sans-serif, sans-serif" font-size="12px" font-style="normal" font-weight="normal" text-decoration="normal" x="30" y="498" text-anchor="start" dominant-baseline="alphabetic" stroke-opacity="1" stroke-linejoin="bevel" stroke-miterlimit="10" stroke-width="3">–2</text><text fill="rgb(0,0,0)" stroke="none" font-family="geogebra-sans-serif, sans-serif" font-size="12px" font-style="normal" font-weight="normal" text-decoration="normal" x="30" y="498" text-anchor="start" dominant-baseline="alphabetic" fill-opacity="1">–2</text><text fill="rgb(0,0,0)" stroke="none" font-family="geogebra-sans-serif, sans-serif" font-size="12px" font-style="normal" font-weight="normal" text-decoration="normal" x="88" y="498" text-anchor="start" dominant-baseline="alphabetic" fill-opacity="1">–1</text><text fill="none" stroke="rgb(255,255,255)" font-family="geogebra-sans-serif, sans-serif" font-size="12px" font-style="normal" font-weight="normal" text-decoration="normal" x="88" y="498" text-anchor="start" dominant-baseline="alphabetic" stroke-opacity="1" stroke-linejoin="bevel" stroke-miterlimit="10" stroke-width="3">–1</text><text fill="rgb(0,0,0)" stroke="none" font-family="geogebra-sans-serif, sans-serif" font-size="12px" font-style="normal" font-weight="normal" text-decoration="normal" x="88" y="498" text-anchor="start" dominant-baseline="alphabetic" fill-opacity="1">–1</text><text fill="rgb(0,0,0)" stroke="none" font-family="geogebra-sans-serif, sans-serif" font-size="12px" font-style="normal" font-weight="normal" text-decoration="normal" x="207" y="498" text-anchor="start" dominant-baseline="alphabetic" fill-opacity="1">1</text><text fill="none" stroke="rgb(255,255,255)" font-family="geogebra-sans-serif, sans-serif" font-size="12px" font-style="normal" font-weight="normal" text-decoration="normal" x="207" y="498" text-anchor="start" dominant-baseline="alphabetic" stroke-opacity="1" stroke-linejoin="bevel" stroke-miterlimit="10" stroke-width="3">1</text><text fill="rgb(0,0,0)" stroke="none" font-family="geogebra-sans-serif, sans-serif" font-size="12px" font-style="normal" font-weight="normal" text-decoration="normal" x="207" y="498" text-anchor="start" dominant-baseline="alphabetic" fill-opacity="1">1</text><text fill="rgb(0,0,0)" stroke="none" font-family="geogebra-sans-serif, sans-serif" font-size="12px" font-style="normal" font-weight="normal" text-decoration="normal" x="264" y="498" text-anchor="start" dominant-baseline="alphabetic" fill-opacity="1">2</text><text fill="none" stroke="rgb(255,255,255)" font-family="geogebra-sans-serif, sans-serif" font-size="12px" font-style="normal" font-weight="normal" text-decoration="normal" x="264" y="498" text-anchor="start" dominant-baseline="alphabetic" stroke-opacity="1" stroke-linejoin="bevel" stroke-miterlimit="10" stroke-width="3">2</text><text fill="rgb(0,0,0)" stroke="none" font-family="geogebra-sans-serif, sans-serif" font-size="12px" font-style="normal" font-weight="normal" text-decoration="normal" x="264" y="498" text-anchor="start" dominant-baseline="alphabetic" fill-opacity="1">2</text><text fill="rgb(0,0,0)" stroke="none" font-family="geogebra-sans-serif, sans-serif" font-size="12px" font-style="normal" font-weight="normal" text-decoration="normal" x="322" y="498" text-anchor="start" dominant-baseline="alphabetic" fill-opacity="1">3</text><text fill="none" stroke="rgb(255,255,255)" font-family="geogebra-sans-serif, sans-serif" font-size="12px" font-style="normal" font-weight="normal" text-decoration="normal" x="322" y="498" text-anchor="start" dominant-baseline="alphabetic" stroke-opacity="1" stroke-linejoin="bevel" stroke-miterlimit="10" stroke-width="3">3</text><text fill="rgb(0,0,0)" stroke="none" font-family="geogebra-sans-serif, sans-serif" font-size="12px" font-style="normal" font-weight="normal" text-decoration="normal" x="322" y="498" text-anchor="start" dominant-baseline="alphabetic" fill-opacity="1">3</text><text fill="rgb(0,0,0)" stroke="none" font-family="geogebra-sans-serif, sans-serif" font-size="12px" font-style="normal" font-weight="normal" text-decoration="normal" x="380" y="498" text-anchor="start" dominant-baseline="alphabetic" fill-opacity="1">4</text><text fill="none" stroke="rgb(255,255,255)" font-family="geogebra-sans-serif, sans-serif" font-size="12px" font-style="normal" font-weight="normal" text-decoration="normal" x="380" y="498" text-anchor="start" dominant-baseline="alphabetic" stroke-opacity="1" stroke-linejoin="bevel" stroke-miterlimit="10" stroke-width="3">4</text><text fill="rgb(0,0,0)" stroke="none" font-family="geogebra-sans-serif, sans-serif" font-size="12px" font-style="normal" font-weight="normal" text-decoration="normal" x="380" y="498" text-anchor="start" dominant-baseline="alphabetic" fill-opacity="1">4</text><text fill="rgb(0,0,0)" stroke="none" font-family="geogebra-sans-serif, sans-serif" font-size="12px" font-style="normal" font-weight="normal" text-decoration="normal" x="438" y="498" text-anchor="start" dominant-baseline="alphabetic" fill-opacity="1">5</text><text fill="none" stroke="rgb(255,255,255)" font-family="geogebra-sans-serif, sans-serif" font-size="12px" font-style="normal" font-weight="normal" text-decoration="normal" x="438" y="498" text-anchor="start" dominant-baseline="alphabetic" stroke-opacity="1" stroke-linejoin="bevel" stroke-miterlimit="10" stroke-width="3">5</text><text fill="rgb(0,0,0)" stroke="none" font-family="geogebra-sans-serif, sans-serif" font-size="12px" font-style="normal" font-weight="normal" text-decoration="normal" x="438" y="498" text-anchor="start" dominant-baseline="alphabetic" fill-opacity="1">5</text><text fill="rgb(0,0,0)" stroke="none" font-family="geogebra-sans-serif, sans-serif" font-size="12px" font-style="normal" font-weight="normal" text-decoration="normal" x="137" y="432" text-anchor="start" dominant-baseline="alphabetic" fill-opacity="1">1</text><text fill="none" stroke="rgb(255,255,255)" font-family="geogebra-sans-serif, sans-serif" font-size="12px" font-style="normal" font-weight="normal" text-decoration="normal" x="137" y="432" text-anchor="start" dominant-baseline="alphabetic" stroke-opacity="1" stroke-linejoin="bevel" stroke-miterlimit="10" stroke-width="3">1</text><text fill="rgb(0,0,0)" stroke="none" font-family="geogebra-sans-serif, sans-serif" font-size="12px" font-style="normal" font-weight="normal" text-decoration="normal" x="137" y="432" text-anchor="start" dominant-baseline="alphabetic" fill-opacity="1">1</text><text fill="rgb(0,0,0)" stroke="none" font-family="geogebra-sans-serif, sans-serif" font-size="12px" font-style="normal" font-weight="normal" text-decoration="normal" x="137" y="374" text-anchor="start" dominant-baseline="alphabetic" fill-opacity="1">2</text><text fill="none" stroke="rgb(255,255,255)" font-family="geogebra-sans-serif, sans-serif" font-size="12px" font-style="normal" font-weight="normal" text-decoration="normal" x="137" y="374" text-anchor="start" dominant-baseline="alphabetic" stroke-opacity="1" stroke-linejoin="bevel" stroke-miterlimit="10" stroke-width="3">2</text><text fill="rgb(0,0,0)" stroke="none" font-family="geogebra-sans-serif, sans-serif" font-size="12px" font-style="normal" font-weight="normal" text-decoration="normal" x="137" y="374" text-anchor="start" dominant-baseline="alphabetic" fill-opacity="1">2</text><text fill="rgb(0,0,0)" stroke="none" font-family="geogebra-sans-serif, sans-serif" font-size="12px" font-style="normal" font-weight="normal" text-decoration="normal" x="137" y="316" text-anchor="start" dominant-baseline="alphabetic" fill-opacity="1">3</text><text fill="none" stroke="rgb(255,255,255)" font-family="geogebra-sans-serif, sans-serif" font-size="12px" font-style="normal" font-weight="normal" text-decoration="normal" x="137" y="316" text-anchor="start" dominant-baseline="alphabetic" stroke-opacity="1" stroke-linejoin="bevel" stroke-miterlimit="10" stroke-width="3">3</text><text fill="rgb(0,0,0)" stroke="none" font-family="geogebra-sans-serif, sans-serif" font-size="12px" font-style="normal" font-weight="normal" text-decoration="normal" x="137" y="316" text-anchor="start" dominant-baseline="alphabetic" fill-opacity="1">3</text><text fill="rgb(0,0,0)" stroke="none" font-family="geogebra-sans-serif, sans-serif" font-size="12px" font-style="normal" font-weight="normal" text-decoration="normal" x="137" y="259" text-anchor="start" dominant-baseline="alphabetic" fill-opacity="1">4</text><text fill="none" stroke="rgb(255,255,255)" font-family="geogebra-sans-serif, sans-serif" font-size="12px" font-style="normal" font-weight="normal" text-decoration="normal" x="137" y="259" text-anchor="start" dominant-baseline="alphabetic" stroke-opacity="1" stroke-linejoin="bevel" stroke-miterlimit="10" stroke-width="3">4</text><text fill="rgb(0,0,0)" stroke="none" font-family="geogebra-sans-serif, sans-serif" font-size="12px" font-style="normal" font-weight="normal" text-decoration="normal" x="137" y="259" text-anchor="start" dominant-baseline="alphabetic" fill-opacity="1">4</text><text fill="rgb(0,0,0)" stroke="none" font-family="geogebra-sans-serif, sans-serif" font-size="12px" font-style="normal" font-weight="normal" text-decoration="normal" x="137" y="201" text-anchor="start" dominant-baseline="alphabetic" fill-opacity="1">5</text><text fill="none" stroke="rgb(255,255,255)" font-family="geogebra-sans-serif, sans-serif" font-size="12px" font-style="normal" font-weight="normal" text-decoration="normal" x="137" y="201" text-anchor="start" dominant-baseline="alphabetic" stroke-opacity="1" stroke-linejoin="bevel" stroke-miterlimit="10" stroke-width="3">5</text><text fill="rgb(0,0,0)" stroke="none" font-family="geogebra-sans-serif, sans-serif" font-size="12px" font-style="normal" font-weight="normal" text-decoration="normal" x="137" y="201" text-anchor="start" dominant-baseline="alphabetic" fill-opacity="1">5</text><text fill="rgb(0,0,0)" stroke="none" font-family="geogebra-sans-serif, sans-serif" font-size="12px" font-style="normal" font-weight="normal" text-decoration="normal" x="137" y="143" text-anchor="start" dominant-baseline="alphabetic" fill-opacity="1">6</text><text fill="none" stroke="rgb(255,255,255)" font-family="geogebra-sans-serif, sans-serif" font-size="12px" font-style="normal" font-weight="normal" text-decoration="normal" x="137" y="143" text-anchor="start" dominant-baseline="alphabetic" stroke-opacity="1" stroke-linejoin="bevel" stroke-miterlimit="10" stroke-width="3">6</text><text fill="rgb(0,0,0)" stroke="none" font-family="geogebra-sans-serif, sans-serif" font-size="12px" font-style="normal" font-weight="normal" text-decoration="normal" x="137" y="143" text-anchor="start" dominant-baseline="alphabetic" fill-opacity="1">6</text><text fill="rgb(0,0,0)" stroke="none" font-family="geogebra-sans-serif, sans-serif" font-size="12px" font-style="normal" font-weight="normal" text-decoration="normal" x="137" y="85" text-anchor="start" dominant-baseline="alphabetic" fill-opacity="1">7</text><text fill="none" stroke="rgb(255,255,255)" font-family="geogebra-sans-serif, sans-serif" font-size="12px" font-style="normal" font-weight="normal" text-decoration="normal" x="137" y="85" text-anchor="start" dominant-baseline="alphabetic" stroke-opacity="1" stroke-linejoin="bevel" stroke-miterlimit="10" stroke-width="3">7</text><text fill="rgb(0,0,0)" stroke="none" font-family="geogebra-sans-serif, sans-serif" font-size="12px" font-style="normal" font-weight="normal" text-decoration="normal" x="137" y="85" text-anchor="start" dominant-baseline="alphabetic" fill-opacity="1">7</text><text fill="rgb(0,0,0)" stroke="none" font-family="geogebra-sans-serif, sans-serif" font-size="12px" font-style="normal" font-weight="normal" text-decoration="normal" x="137" y="28" text-anchor="start" dominant-baseline="alphabetic" fill-opacity="1">8</text><text fill="none" stroke="rgb(255,255,255)" font-family="geogebra-sans-serif, sans-serif" font-size="12px" font-style="normal" font-weight="normal" text-decoration="normal" x="137" y="28" text-anchor="start" dominant-baseline="alphabetic" stroke-opacity="1" stroke-linejoin="bevel" stroke-miterlimit="10" stroke-width="3">8</text><text fill="rgb(0,0,0)" stroke="none" font-family="geogebra-sans-serif, sans-serif" font-size="12px" font-style="normal" font-weight="normal" text-decoration="normal" x="137" y="28" text-anchor="start" dominant-baseline="alphabetic" fill-opacity="1">8</text><text fill="rgb(0,0,0)" stroke="none" font-family="geogebra-sans-serif, sans-serif" font-size="12px" font-style="normal" font-weight="normal" text-decoration="normal" x="137" y="501" text-anchor="start" dominant-baseline="alphabetic" fill-opacity="1">0</text><text fill="none" stroke="rgb(255,255,255)" font-family="geogebra-sans-serif, sans-serif" font-size="12px" font-style="normal" font-weight="normal" text-decoration="normal" x="137" y="501" text-anchor="start" dominant-baseline="alphabetic" stroke-opacity="1" stroke-linejoin="bevel" stroke-miterlimit="10" stroke-width="3">0</text><text fill="rgb(0,0,0)" stroke="none" font-family="geogebra-sans-serif, sans-serif" font-size="12px" font-style="normal" font-weight="normal" text-decoration="normal" x="137" y="501" text-anchor="start" dominant-baseline="alphabetic" fill-opacity="1">0</text><path fill="none" stroke="rgb(46,125,50)" paint-order="fill stroke markers" d=" M 1 475.5069808651922 L 1 475.62027005536186 L 1 475.50698086519225 L 1.9999999999999716 475.3923237229808 L 1.9999999999999716 475.3923237229808 L 2.9999999999999716 475.27628211088694 L 2.9999999999999716 475.27628211088694 L 3.9999999999999716 475.1588393116193 L 3.9999999999999716 475.1588393116193 L 4.999999999999943 475.0399784060274 L 4.999999999999943 475.0399784060274 L 5.999999999999943 474.9196822706642 L 5.999999999999943 474.9196822706642 L 6.999999999999943 474.79793357531946 L 6.999999999999943 474.79793357531946 L 7.999999999999915 474.67471478052266 L 7.999999999999915 474.6747147805227 L 8.999999999999915 474.5500081350168 L 8.999999999999915 474.5500081350168 L 9.999999999999915 474.42379567320063 L 9.999999999999915 474.42379567320063 L 10.999999999999886 474.2960592125405 L 10.999999999999886 474.2960592125405 L 11.999999999999886 474.1667803509514 L 11.999999999999886 474.1667803509514 L 12.999999999999886 474.0359404641452 L 12.999999999999886 474.0359404641452 L 13.999999999999858 473.90352070294824 L 13.999999999999858 473.90352070294824 L 14.999999999999858 473.7695019905854 L 14.999999999999858 473.7695019905854 L 15.999999999999858 473.6338650199321 L 15.999999999999858 473.6338650199321 L 16.99999999999983 473.49659025073265 L 16.99999999999983 473.49659025073265 L 17.99999999999983 473.35765790678556 L 17.99999999999983 473.35765790678556 L 18.99999999999983 473.2170479730941 L 18.99999999999983 473.2170479730941 L 19.9999999999998 473.0747401929832 L 19.9999999999998 473.07474019298326 L 20.9999999999998 472.9307140651812 L 20.9999999999998 472.9307140651812 L 21.9999999999998 472.784948840866 L 21.9999999999998 472.784948840866 L 22.999999999999773 472.63742352067646 L 22.999999999999773 472.63742352067646 L 23.999999999999773 472.4881168516869 L 23.999999999999773 472.4881168516869 L 24.99999999999976 472.3370073243453 L 24.99999999999976 472.3370073243453 L 25.999999999999744 472.1840731693745 L 25.999999999999744 472.1840731693745 L 26.999999999999744 472.02929235463654 L 26.999999999999744 472.02929235463654 L 27.99999999999973 471.87264258195796 L 27.99999999999973 471.87264258195796 L 28.999999999999716 471.71410128391796 L 28.999999999999716 471.71410128391796 L 29.9999999999997 471.5536456205971 L 29.9999999999997 471.5536456205971 L 30.9999999999997 471.39125247628675 L 30.9999999999997 471.39125247628675 L 31.999999999999687 471.22689845615946 L 31.999999999999687 471.2268984561595 L 32.99999999999967 471.06055988289813 L 32.99999999999967 471.06055988289813 L 33.99999999999967 470.89221279328507 L 33.99999999999967 470.8922127932851 L 34.99999999999966 470.7218329347502 L 34.99999999999966 470.7218329347502 L 35.99999999999966 470.54939576187644 L 35.99999999999966 470.5493957618765 L 36.99999999999966 470.3748764328645 L 36.99999999999966 470.3748764328645 L 37.99999999999967 470.19824980595325 L 37.99999999999967 470.19824980595325 L 38.99999999999967 470.01949043579833 L 38.99999999999967 470.01949043579833 L 39.99999999999967 469.8385725698061 L 39.99999999999967 469.8385725698061 L 40.99999999999967 469.6554701444238 L 40.99999999999967 469.6554701444238 L 41.99999999999969 469.4701567813847 L 41.99999999999969 469.4701567813847 L 42.99999999999969 469.28260578390785 L 42.99999999999969 469.28260578390785 L 43.99999999999969 469.0927901328524 L 43.99999999999969 469.09279013285243 L 44.99999999999969 468.9006824828248 L 44.99999999999969 468.9006824828248 L 45.99999999999969 468.7062551582395 L 45.99999999999969 468.7062551582395 L 46.9999999999997 468.5094801493319 L 46.9999999999997 468.5094801493319 L 47.9999999999997 468.31032910812326 L 47.9999999999997 468.31032910812326 L 48.9999999999997 468.10877334433656 L 48.9999999999997 468.10877334433656 L 49.9999999999997 467.90478382126366 L 49.9999999999997 467.90478382126366 L 50.9999999999997 467.69833115158184 L 50.9999999999997 467.69833115158184 L 51.999999999999716 467.4893855931204 L 51.999999999999716 467.4893855931204 L 52.999999999999716 467.2779170445759 L 52.999999999999716 467.2779170445759 L 53.999999999999716 467.0638950411755 L 53.999999999999716 467.0638950411755 L 54.999999999999716 466.8472887502884 L 54.999999999999716 466.8472887502884 L 55.999999999999716 466.6280669669837 L 55.999999999999716 466.6280669669837 L 56.99999999999973 466.40619810953507 L 56.99999999999973 466.4061981095351 L 57.99999999999973 466.18165021487124 L 57.99999999999973 466.18165021487124 L 58.99999999999973 465.9543909339707 L 58.99999999999973 465.9543909339707 L 59.99999999999973 465.7243875272021 L 59.99999999999973 465.7243875272021 L 60.999999999999744 465.49160685960715 L 60.999999999999744 465.49160685960715 L 61.999999999999744 465.25601539612734 L 61.999999999999744 465.25601539612734 L 62.999999999999744 465.0175791967728 L 62.999999999999744 465.0175791967728 L 63.999999999999744 464.7762639117327 L 63.999999999999744 464.7762639117327 L 64.99999999999974 464.5320347764269 L 64.99999999999974 464.5320347764269 L 65.99999999999976 464.28485660649727 L 65.99999999999976 464.28485660649727 L 66.99999999999976 464.0346937927395 L 66.99999999999976 464.0346937927395 L 67.99999999999976 463.7815102959726 L 67.99999999999976 463.7815102959726 L 68.99999999999976 463.5252696418474 L 68.99999999999976 463.5252696418474 L 69.99999999999976 463.2659349155916 L 69.99999999999976 463.2659349155916 L 70.99999999999977 463.003468756692 L 70.99999999999977 463.003468756692 L 71.99999999999977 462.73783335351203 L 71.99999999999977 462.73783335351203 L 72.99999999999977 462.46899043784475 L 72.99999999999977 462.46899043784475 L 73.99999999999977 462.1969012793995 L 73.99999999999977 462.1969012793995 L 74.99999999999977 461.9215266802226 L 74.99999999999977 461.9215266802226 L 75.99999999999979 461.6428269690501 L 75.99999999999979 461.6428269690501 L 76.99999999999979 461.3607619955929 L 76.99999999999979 461.3607619955929 L 77.99999999999979 461.07529112475237 L 77.99999999999979 461.07529112475237 L 78.99999999999979 460.78637323076646 L 78.99999999999979 460.78637323076646 L 79.9999999999998 460.4939666912849 L 79.9999999999998 460.4939666912849 L 80.9999999999998 460.19802938137315 L 80.9999999999998 460.19802938137315 L 81.9999999999998 459.8985186674435 L 81.9999999999998 459.8985186674435 L 82.9999999999998 459.5953914011134 L 82.9999999999998 459.5953914011134 L 83.9999999999998 459.28860391298906 L 83.9999999999998 459.28860391298906 L 84.99999999999982 458.9781120063749 L 84.99999999999982 458.9781120063749 L 85.99999999999982 458.6638709509056 L 85.99999999999982 458.6638709509057 L 86.99999999999982 458.34583547610305 L 86.99999999999982 458.34583547610305 L 87.99999999999983 458.0239597648536 L 87.99999999999983 458.02395976485366 L 88.99999999999983 457.6981974468084 L 88.99999999999983 457.6981974468084 L 89.99999999999983 457.3685015917025 L 89.99999999999983 457.3685015917025 L 90.99999999999983 457.0348247025943 L 90.99999999999983 457.0348247025943 L 91.99999999999983 456.69711870902273 L 91.99999999999983 456.69711870902273 L 92.99999999999983 456.35533496008253 L 92.99999999999983 456.35533496008253 L 93.99999999999983 456.0094242174149 L 93.99999999999983 456.00942421741496 L 94.99999999999983 455.6593366481145 L 94.99999999999983 455.6593366481145 L 95.99999999999984 455.30502181755014 L 95.99999999999984 455.30502181755014 L 96.99999999999984 454.94642868209917 L 96.99999999999984 454.94642868209917 L 97.99999999999986 454.5835055817938 L 97.99999999999986 454.5835055817938 L 98.99999999999986 454.2162002328791 L 98.99999999999986 454.2162002328791 L 99.99999999999986 453.8444597202806 L 99.99999999999986 453.8444597202806 L 100.99999999999986 453.4682304899813 L 100.99999999999986 453.4682304899813 L 101.99999999999986 453.0874583413065 L 101.99999999999986 453.0874583413065 L 102.99999999999986 452.70208841911546 L 102.99999999999986 452.7020884191155 L 103.99999999999986 452.31206520589893 L 103.99999999999986 452.31206520589893 L 104.99999999999987 451.91733251378093 L 104.99999999999987 451.91733251378093 L 105.99999999999987 451.5178334764244 L 105.99999999999987 451.51783347642447 L 106.99999999999989 451.1135105408387 L 106.99999999999989 451.1135105408387 L 107.99999999999989 450.70430545908846 L 107.99999999999989 450.70430545908846 L 108.99999999999989 450.290159279902 L 108.99999999999989 450.290159279902 L 109.99999999999989 449.87101234017905 L 109.99999999999989 449.87101234017905 L 110.99999999999989 449.44680425639507 L 110.99999999999989 449.44680425639507 L 111.99999999999989 449.0174739159025 L 111.99999999999989 449.01747391590254 L 112.99999999999989 448.58295946812666 L 112.99999999999989 448.58295946812666 L 113.9999999999999 448.14319831565524 L 113.9999999999999 448.14319831565524 L 114.9999999999999 447.6981271052204 L 114.9999999999999 447.6981271052204 L 115.9999999999999 447.24768171857215 L 115.9999999999999 447.24768171857215 L 116.99999999999991 446.7917972632408 L 116.99999999999991 446.7917972632408 L 117.99999999999991 446.3304080631889 L 117.99999999999991 446.3304080631889 L 118.99999999999991 445.8634476493492 L 118.99999999999991 445.8634476493492 L 119.99999999999991 445.39084875004954 L 119.99999999999991 445.3908487500496 L 120.99999999999991 444.91254328132106 L 120.99999999999991 444.91254328132106 L 121.99999999999991 444.42846233708985 L 121.99999999999991 444.42846233708985 L 122.99999999999991 443.9385361792503 L 122.99999999999991 443.9385361792503 L 123.99999999999991 443.4426942276185 L 123.99999999999991 443.4426942276185 L 124.99999999999991 442.94086504976394 L 124.99999999999991 442.94086504976394 L 125.99999999999991 442.43297635071895 L 125.99999999999991 442.432976350719 L 126.99999999999991 441.91895496256376 L 126.99999999999991 441.9189549625638 L 127.99999999999991 441.3987268338855 L 127.99999999999991 441.3987268338856 L 128.99999999999991 440.87221701911034 L 128.99999999999991 440.8722170191104 L 129.99999999999991 440.3393496677065 L 129.99999999999991 440.3393496677065 L 130.99999999999991 439.80004801325686 L 130.99999999999991 439.80004801325686 L 131.99999999999991 439.25423436240015 L 131.99999999999991 439.25423436240015 L 132.99999999999991 438.70183008363796 L 132.99999999999991 438.70183008363796 L 133.99999999999991 438.1427555960068 L 133.99999999999991 438.1427555960068 L 134.99999999999991 437.5769303576136 L 134.99999999999991 437.5769303576136 L 135.99999999999991 437.0042728540326 L 135.99999999999991 437.0042728540326 L 136.99999999999991 436.424700586562 L 136.99999999999991 436.424700586562 L 137.99999999999991 435.83813006033904 L 137.99999999999991 435.83813006033904 L 138.99999999999991 435.2444767723115 L 138.99999999999991 435.24447677231154 L 139.99999999999991 434.6436551990641 L 139.99999999999991 434.6436551990641 L 140.99999999999991 434.0355787844973 L 140.99999999999991 434.0355787844974 L 141.99999999999991 433.42015992735844 L 141.99999999999991 433.42015992735844 L 142.99999999999991 432.7973099686209 L 142.99999999999991 432.7973099686209 L 143.99999999999991 432.16693917871214 L 143.99999999999991 432.16693917871214 L 144.99999999999991 431.528956744587 L 144.99999999999991 431.528956744587 L 145.99999999999991 430.88327075664455 L 145.99999999999991 430.8832707566446 L 146.99999999999991 430.22978819548774 L 146.99999999999991 430.22978819548774 L 147.99999999999991 429.56841491852236 L 147.99999999999991 429.56841491852236 L 148.99999999999991 428.8990556463949 L 148.99999999999991 428.8990556463949 L 149.99999999999991 428.22161394926627 L 149.99999999999991 428.22161394926627 L 150.99999999999991 427.5359922329196 L 150.99999999999991 427.5359922329196 L 151.99999999999991 426.8420917247009 L 151.99999999999991 426.8420917247009 L 152.99999999999991 426.13981245928915 L 152.99999999999991 426.1398124592892 L 153.99999999999991 425.42905326429565 L 153.99999999999991 425.42905326429565 L 154.99999999999991 424.709711745688 L 154.99999999999991 424.7097117456881 L 155.99999999999991 423.9816842730397 L 155.99999999999991 423.9816842730397 L 156.99999999999991 423.2448659646003 L 156.99999999999991 423.24486596460036 L 157.99999999999991 422.49915067218615 L 157.99999999999991 422.49915067218615 L 158.99999999999991 421.7444309658881 L 158.99999999999991 421.7444309658881 L 159.99999999999991 420.98059811859525 L 159.99999999999991 420.98059811859525 L 160.99999999999991 420.207542090331 L 160.99999999999991 420.207542090331 L 161.99999999999991 419.4251515124005 L 161.99999999999991 419.42515151240053 L 162.99999999999991 418.63331367134674 L 162.99999999999991 418.6333136713468 L 163.99999999999991 417.83191449271254 L 163.99999999999991 417.83191449271254 L 164.99999999999991 417.0208385246065 L 164.99999999999991 417.0208385246065 L 165.99999999999991 416.19996892107105 L 165.99999999999991 416.1999689210711 L 166.99999999999991 415.36918742524904 L 166.99999999999991 415.36918742524904 L 167.99999999999991 414.5283743523472 L 167.99999999999991 414.5283743523472 L 168.99999999999991 413.67740857239437 L 168.99999999999991 413.6774085723944 L 169.99999999999991 412.8161674927909 L 169.99999999999991 412.8161674927909 L 170.99999999999991 411.9445270406475 L 170.99999999999991 411.94452704064753 L 171.99999999999991 411.0623616449113 L 171.99999999999991 411.0623616449113 L 172.99999999999991 410.1695442182753 L 172.99999999999991 410.1695442182753 L 173.99999999999991 409.2659461388703 L 173.99999999999991 409.2659461388703 L 174.99999999999991 408.3514372317346 L 174.99999999999991 408.3514372317346 L 175.99999999999991 407.4258857500614 L 175.99999999999991 407.4258857500614 L 176.99999999999991 406.4891583562183 L 176.99999999999991 406.48915835621835 L 177.99999999999991 405.5411201025386 L 177.99999999999991 405.5411201025387 L 178.99999999999991 404.5816344118805 L 178.99999999999991 404.5816344118805 L 179.99999999999991 403.6105630579508 L 179.99999999999991 403.61056305795086 L 180.99999999999991 402.6277661453925 L 180.99999999999991 402.6277661453925 L 181.99999999999991 401.63310208963026 L 181.99999999999991 401.63310208963026 L 182.99999999999991 400.62642759647383 L 182.99999999999991 400.62642759647383 L 183.99999999999991 399.6075976414744 L 183.99999999999991 399.6075976414744 L 184.99999999999991 398.5764654490321 L 184.99999999999991 398.5764654490322 L 185.99999999999994 397.53288247125107 L 185.99999999999994 397.5328824712511 L 186.99999999999994 396.4766983665391 L 186.99999999999994 396.4766983665391 L 187.99999999999994 395.4077609779491 L 187.99999999999994 395.4077609779491 L 188.99999999999994 394.3259163112589 L 188.99999999999994 394.3259163112589 L 189.99999999999994 393.2310085127864 L 189.99999999999994 393.2310085127864 L 190.99999999999994 392.1228798469368 L 190.99999999999994 392.1228798469368 L 191.99999999999994 391.00137067347885 L 191.99999999999994 391.00137067347885 L 192.99999999999994 389.8663194245464 L 192.99999999999994 389.8663194245464 L 193.99999999999994 388.7175625813628 L 193.99999999999994 388.7175625813628 L 194.99999999999994 387.55493465068355 L 194.99999999999994 387.5549346506836 L 195.99999999999994 386.3782681409552 L 195.99999999999994 386.37826814095524 L 196.99999999999994 385.1873935381857 L 196.99999999999994 385.1873935381857 L 197.99999999999997 383.98213928152387 L 197.99999999999997 383.9821392815239 L 198.99999999999997 382.7623317385441 L 198.99999999999997 382.7623317385441 L 199.99999999999997 381.52779518023186 L 199.99999999999997 381.52779518023186 L 200.99999999999997 380.2783517556681 L 200.99999999999997 380.2783517556681 L 201.99999999999997 379.01382146640725 L 201.99999999999997 379.01382146640725 L 202.99999999999997 377.73402214054624 L 202.99999999999997 377.7340221405463 L 203.99999999999997 376.43876940648045 L 203.99999999999997 376.43876940648045 L 205 375.12787666634216 L 205 375.1278766663422 L 206 373.8011550691192 L 206 373.8011550691192 L 207 372.45841348344817 L 207 372.45841348344817 L 208 371.09945847007975 L 208 371.09945847007975 L 209 369.7240942540111 L 209 369.7240942540111 L 210 368.3321226962821 L 210 368.3321226962821 L 211 366.92334326543073 L 211 366.9233432654308 L 212 365.49755300860403 L 212 365.4975530086041 L 213 364.0545465223201 L 213 364.05454652232015 L 214 362.594115922877 L 214 362.59411592287705 L 215 361.11605081640454 L 215 361.1160508164046 L 216 359.62013826855423 L 216 359.6201382685543 L 217 358.1061627738234 L 217 358.1061627738235 L 218 356.57390622450896 L 218 356.57390622450896 L 219 355.0231478792858 L 219 355.02314787928583 L 220.00000000000003 353.45366433140657 L 220.00000000000003 353.45366433140657 L 221.00000000000003 351.8652294765168 L 221.00000000000003 351.8652294765169 L 222.00000000000003 350.25761448008194 L 222.00000000000003 350.257614480082 L 223.00000000000003 348.63058774442027 L 223.00000000000003 348.6305877444203 L 224.00000000000006 346.9839148753389 L 224.00000000000006 346.9839148753389 L 225.00000000000006 345.3173586483656 L 225.00000000000006 345.31735864836565 L 226.00000000000006 343.63067897457427 L 226.00000000000006 343.6306789745743 L 227.00000000000006 341.9236328659964 L 227.00000000000006 341.9236328659965 L 228.00000000000006 340.195974400616 L 228.00000000000006 340.195974400616 L 229.00000000000006 338.4474546869409 L 229.00000000000006 338.44745468694094 L 230.00000000000006 336.6778218281471 L 230.00000000000006 336.6778218281472 L 231.00000000000006 334.8868208857897 L 231.00000000000006 334.8868208857898 L 232.00000000000006 333.0741938430756 L 232.00000000000006 333.0741938430756 L 233.00000000000006 331.23967956769286 L 233.00000000000006 331.23967956769286 L 234.00000000000006 329.38301377419134 L 234.00000000000006 329.3830137741914 L 235.00000000000006 327.50392898590906 L 235.00000000000006 327.50392898590906 L 236.00000000000006 325.60215449643835 L 236.00000000000006 325.6021544964384 L 237.00000000000006 323.67741633062747 L 237.00000000000006 323.6774163306275 L 238.00000000000006 321.7294372051109 L 238.00000000000006 321.7294372051109 L 239.00000000000009 319.75793648836293 L 239.00000000000009 319.75793648836293 L 240.00000000000009 317.76263016026905 L 240.00000000000009 317.7626301602691 L 241.00000000000009 315.74323077120954 L 241.00000000000009 315.7432307712096 L 242.00000000000009 313.6994474006482 L 242.00000000000009 313.6994474006483 L 243.0000000000001 311.6309856152219 L 243.0000000000001 311.6309856152219 L 244.0000000000001 309.53754742632316 L 244.0000000000001 309.5375474263232 L 245.0000000000001 307.4188312471716 L 245.0000000000001 307.4188312471716 L 246.0000000000001 305.2745318493661 L 246.0000000000001 305.2745318493661 L 247.0000000000001 303.1043403189128 L 247.0000000000001 303.1043403189128 L 248.0000000000001 300.90794401172207 L 248.0000000000001 300.9079440117221 L 249.0000000000001 298.6850265085682 L 249.0000000000001 298.6850265085683 L 250.0000000000001 296.43526756950496 L 250.0000000000001 296.435267569505 L 251.0000000000001 294.15834308773094 L 251.0000000000001 294.158343087731 L 252.0000000000001 291.85392504289786 L 252.0000000000001 291.8539250428979 L 253.0000000000001 289.5216814538549 L 253.0000000000001 289.52168145385497 L 254.0000000000001 287.1612763308227 L 254.0000000000001 287.1612763308228 L 255.0000000000001 284.77236962698953 L 255.0000000000001 284.7723696269896 L 256.0000000000001 282.3546171895232 L 256.0000000000001 282.3546171895232 L 257.0000000000001 279.9076707099914 L 257.0000000000001 279.90767070999146 L 258.0000000000001 277.4311776741836 L 258.0000000000001 277.4311776741836 L 259.0000000000001 274.9247813113262 L 259.0000000000001 274.9247813113263 L 260.0000000000001 272.3881205426861 L 260.0000000000001 272.3881205426862 L 261.0000000000001 269.8208299295517 L 261.0000000000001 269.82082992955173 L 262.00000000000017 267.2225396205871 L 262.00000000000017 267.2225396205872 L 263.00000000000017 264.59287529855044 L 263.00000000000017 264.59287529855055 L 264.00000000000017 261.9314581263685 L 264.00000000000017 261.9314581263685 L 265.00000000000017 259.23790469256005 L 265.00000000000017 259.2379046925601 L 266.00000000000017 256.5118269560011 L 266.00000000000017 256.51182695600113 L 267.00000000000017 253.75283219002196 L 267.00000000000017 253.75283219002208 L 268.0000000000001 250.96052292583036 L 268.0000000000001 250.96052292583045 L 269.0000000000001 248.13449689525058 L 269.0000000000001 248.1344968952507 L 270.0000000000001 245.2743469727718 L 270.0000000000001 245.2743469727719 L 271.0000000000001 242.3796611168962 L 271.0000000000001 242.3796611168963 L 272.0000000000001 239.45002231077925 L 272.0000000000001 239.45002231077936 L 273.0000000000001 236.48500850215305 L 273.0000000000001 236.48500850215314 L 274.0000000000001 233.484192542524 L 274.0000000000001 233.4841925425241 L 275.00000000000006 230.4471421256369 L 275.00000000000006 230.447142125637 L 276.00000000000006 227.3734197251954 L 276.00000000000006 227.37341972519545 L 277.00000000000006 224.26258253183073 L 277.00000000000006 224.26258253183084 L 278.00000000000006 221.11418238930946 L 278.00000000000006 221.11418238930958 L 279 217.9277657299707 L 279 217.92776572997082 L 280 214.70287350938372 L 280 214.70287350938383 L 281 211.43904114021694 L 281 211.439041140217 L 282 208.13579842530783 L 282 208.13579842530788 L 283 204.79266948992506 L 283 204.79266948992512 L 284 201.4091727132128 L 284 201.4091727132129 L 285 197.9848206588067 L 285 197.98482065880683 L 286 194.51912000461272 L 286 194.51912000461283 L 286.99999999999994 191.01157147173734 L 286.99999999999994 191.0115714717374 L 287.99999999999994 187.46166975256028 L 287.99999999999994 187.46166975256034 L 288.99999999999994 183.8689034379384 L 288.99999999999994 183.8689034379385 L 289.9999999999999 180.2327549435305 L 289.9999999999999 180.23275494353055 L 290.9999999999999 176.55270043523262 L 290.9999999999999 176.55270043523274 L 291.9999999999999 172.8282097537131 L 291.9999999999999 172.82820975371317 L 292.9999999999999 169.0587463380362 L 292.9999999999999 169.05874633803631 L 293.9999999999999 165.2437671483636 L 293.9999999999999 165.2437671483637 L 294.9999999999999 161.38272258772247 L 294.9999999999999 161.38272258772258 L 295.9999999999999 157.47505642282886 L 295.9999999999999 157.47505642282897 L 296.9999999999999 153.52020570395553 L 296.9999999999999 153.52020570395558 L 297.9999999999999 149.517600683831 L 297.9999999999999 149.51760068383112 L 298.99999999999983 145.46666473556104 L 298.99999999999983 145.46666473556115 L 299.99999999999983 141.36681426955738 L 299.99999999999983 141.3668142695575 L 300.99999999999983 137.2174586494645 L 300.99999999999983 137.21745864946462 L 301.9999999999998 133.01800010707058 L 301.9999999999998 133.0180001070707 L 302.9999999999998 128.76783365619167 L 302.9999999999998 128.76783365619178 L 303.9999999999998 124.46634700551505 L 303.9999999999998 124.46634700551516 L 304.9999999999998 120.11292047039126 L 304.9999999999998 120.11292047039137 L 305.9999999999998 115.70692688356053 L 305.9999999999998 115.70692688356064 L 306.9999999999998 111.24773150480081 L 306.9999999999998 111.24773150480087 L 307.9999999999998 106.73469192948556 L 307.9999999999998 106.73469192948562 L 308.9999999999998 102.16715799603713 L 308.9999999999998 102.16715799603725 L 309.9999999999998 97.54447169226245 L 309.9999999999998 97.54447169226256 L 310.9999999999997 92.86596706055798 L 310.9999999999997 92.86596706055809 L 311.9999999999997 88.13097010196975 L 311.9999999999997 88.13097010196987 L 312.99999999999966 83.33879867909542 L 312.99999999999966 83.33879867909553 L 313.99999999999966 78.48876241781323 L 313.99999999999966 78.48876241781329 L 314.99999999999966 73.580162607825 L 314.99999999999966 73.58016260782512 L 315.99999999999966 68.61229210199775 L 315.99999999999966 68.61229210199787 L 316.99999999999966 63.5844352144901 L 316.99999999999966 63.58443521449021 L 317.99999999999966 58.495867617648344 L 317.99999999999966 58.4958676176484 L 318.99999999999966 53.34585623765787 L 318.99999999999966 53.34585623765798 L 319.99999999999966 48.13365914893433 L 319.99999999999966 48.13365914893444 L 320.99999999999966 42.85852546723987 L 320.99999999999966 42.858525467239986 L 321.9999999999996 37.5196952415082 L 321.9999999999996 37.51969524150826 L 322.9999999999996 32.11639934436408 L 322.9999999999996 32.1163993443642 L 323.9999999999996 26.647859361320855 L 323.9999999999996 26.647859361320968 L 324.99999999999955 21.113287478638995 L 324.99999999999955 21.113287478639222 L 325.99999999999955 15.511886369832553 L 325.99999999999955 15.511886369832723 L 326.99999999999955 9.84284908080275 L 326.99999999999955 9.842849080802978 L 327.99999999999955 4.105358913586656 L 327.99999999999955 4.1053589135868265 L 328.99999999999955 -1.701410691298861 L 328.99999999999955 -1.7014106912986335 L 329.99999999999955 -7.578296273933802 L 329.99999999999955 -7.578296273933631 L 330.99999999999955 -13.526144475509682 L 330.99999999999955 -13.526144475509454 L 331.99999999999955 -19.54581216029834 L 331.99999999999955 -19.545812160298112 L 332.99999999999955 -25.638166539095266 L 332.99999999999955 -25.63816653909504 L 333.9999999999995 -31.80408529415149 L 333.9999999999995 -31.804085294151264 L 334.9999999999995 -38.0444567056162 L 334.9999999999995 -38.044456705616085 L 335.9999999999995 -44.360179779503824 L 335.9999999999995 -44.360179779503596 L 336.99999999999943 -50.75216437720803 L 336.99999999999943 -50.752164377207805 L 337.99999999999943 -57.22133134657918 L 337.99999999999943 -57.22133134657895 L 338.99999999999943 -63.76861265458365 L 338.99999999999943 -63.76861265458342 L 339.99999999999943 -70.39495152156644 L 339.99999999999943 -70.39495152156621 L 340.99999999999943 -77.10130255713398 L 340.99999999999943 -77.10130255713375 L 341.99999999999943 -83.88863189767744 L 341.99999999999943 -83.88863189767721 L 342.99999999999943 -90.75791734555821 L 342.99999999999943 -90.75791734555798 L 343.99999999999943 -97.71014850997187 L 343.99999999999943 -97.71014850997165 L 344.9999999999994 -104.7463269495147 L 344.9999999999994 -104.74632694951447 L 345.9999999999994 -111.86746631647134 L 345.9999999999994 -111.86746631647111 L 346.9999999999994 -119.07459250284364 L 346.9999999999994 -119.07459250284353 L 347.9999999999993 -126.3687437881448 L 347.9999999999993 -126.36874378814457 L 348.9999999999993 -133.75097098897606 L 348.9999999999993 -133.75097098897584 L 349.9999999999993 -141.22233761041025 L 349.9999999999993 -141.22233761041002 L 350.9999999999993 -148.7839199992045 L 350.9999999999993 -148.78391999920427 L 351.9999999999993 -156.4368074988605 L 351.9999999999993 -156.43680749886028 L 352.9999999999993 -164.18210260655985 L 352.9999999999993 -164.18210260655962 L 353.9999999999993 -172.02092113199183 L 353.9999999999993 -172.0209211319916 L 354.9999999999993 -179.9543923581008 L 354.9999999999993 -179.95439235810056 L 355.9999999999993 -187.98365920377387 L 355.9999999999993 -187.98365920377364 L 356.99999999999926 -196.10987838849337 L 356.99999999999926 -196.10987838849314 L 357.99999999999926 -204.33422059897623 L 357.99999999999926 -204.33422059897612 L 358.99999999999926 -212.65787065782808 L 358.99999999999926 -212.65787065782786 L 359.9999999999992 -221.08202769423065 L 359.9999999999992 -221.08202769423053 L 360.9999999999992 -229.60790531669318 L 360.9999999999992 -229.60790531669295 L 361.9999999999992 -238.23673178788704 L 361.9999999999992 -238.2367317878868 L 362.9999999999992 -246.9697502015938 L 362.9999999999992 -246.96975020159357 L 363.9999999999992 -255.80821866178894 L 363.9999999999992 -255.80821866178871 L 364.9999999999992 -264.75341046388723 L 364.9999999999992 -264.753410463887 L 365.9999999999992 -273.8066142781778 L 365.9999999999992 -273.80661427817756 L 366.9999999999992 -282.96913433547377 L 366.9999999999992 -282.96913433547365 L 367.99999999999915 -292.24229061500375 L 367.99999999999915 -292.24229061500364 L 368.99999999999915 -301.6274190345712 L 368.99999999999915 -301.62741903457095 L 369.99999999999915 -311.125871643011 L 369.99999999999915 -311.1258716430108 L 370.9999999999991 -320.7390168149698 L 370.9999999999991 -320.73901681496955 L 371.9999999999991 -330.4682394480376 L 371.9999999999991 -330.46823944803737 L 372.9999999999991 -340.3149411622602 L 372.9999999999991 -340.31494116225997 L 373.9999999999991 -350.28054050206106 L 373.9999999999991 -350.28054050206083 L 374.9999999999991 -360.3664731406004 L 374.9999999999991 -360.3664731406002 L 375.9999999999991 -370.5741920866026 L 375.9999999999991 -370.57419208660247 L 376.9999999999991 -380.9051678936812 L 376.9999999999991 -380.905167893681 L 377.9999999999991 -391.36088887219046 L 377.9999999999991 -391.36088887219023 L 378.9999999999991 -401.94286130363605 L 378.9999999999991 -401.9428613036358 L 379.99999999999903 -412.6526096576748 L 379.99999999999903 -412.6526096576746 L 380.99999999999903 -423.4916768117332 L 380.99999999999903 -423.4916768117331 L 381.99999999999903 -434.46162427327977 L 381.99999999999903 -434.46162427327954 L 382.99999999999903 -445.5640324047798 L 382.99999999999903 -445.5640324047795 L 383.99999999999903 -456.8005006513664 L 383.99999999999903 -456.80050065136606 L 384.99999999999903 -468.172647771263 L 384.99999999999903 -468.1726477712625 L 385.999999999999 -479.68211206898434 L 385.999999999999 -479.682112068984 L 386.999999999999 -491.33055163135725 L 386.999999999999 -491.3305516313569 L 387.999999999999 -503.11964456638736 L 387.999999999999 -503.119644566387 L 388.999999999999 -515.0510892450144 L 388.999999999999 -515.051089245014 L 389.999999999999 -527.1266045457824 L 389.999999999999 -527.1266045457819 L 390.999999999999 -539.347930102468 L 390.999999999999 -539.3479301024676 L 391.999999999999 -551.7168265546962 L 391.999999999999 -551.7168265546958 L 392.999999999999 -564.2350758015833 L 392.999999999999 -564.2350758015829 L 393.9999999999989 -576.9044812584428 L 393.9999999999989 -576.9044812584424 L 394.9999999999989 -589.7268681165907 L 394.9999999999989 -589.7268681165903 L 395.9999999999989 -602.7040836062869 L 395.9999999999989 -602.7040836062864 L 396.99999999999886 -615.8379972628537 L 396.99999999999886 -615.8379972628533 L 397.99999999999886 -629.1305011960063 L 397.99999999999886 -629.1305011960061 L 398.99999999999886 -642.5835103624348 L 398.99999999999886 -642.5835103624344 L 399.99999999999886 -656.1989628416796 L 399.99999999999886 -656.1989628416792 L 400.99999999999886 -669.9788201153357 L 400.99999999999886 -669.9788201153352 L 401.99999999999886 -683.9250673496296 L 401.99999999999886 -683.9250673496291 L 402.99999999999886 -698.0397136814091 L 402.99999999999886 -698.0397136814087 L 403.99999999999886 -712.3247925075842 L 403.99999999999886 -712.3247925075838 L 404.99999999999886 -726.7823617780645 L 404.99999999999886 -726.7823617780642 L 405.9999999999988 -741.4145042922345 L 405.9999999999988 -741.414504292234 L 406.9999999999988 -756.2233279990054 L 406.9999999999988 -756.2233279990049 L 407.99999999999875 -771.2109663004948 L 407.99999999999875 -771.2109663004945 L 408.99999999999875 -786.3795783593692 L 408.99999999999875 -786.3795783593688 L 409.99999999999875 -801.7313494099 L 409.99999999999875 -801.7313494098995 L 410.99999999999875 -817.2684910727738 L 410.99999999999875 -817.2684910727736 L 411.99999999999875 -832.9932416737068 L 411.99999999999875 -832.9932416737064 L 412.99999999999875 -848.907866565902 L 412.99999999999875 -848.9078665659016 L 413.99999999999875 -865.0146584564048 L 413.99999999999875 -865.0146584564044 L 414.99999999999875 -881.3159377363951 L 414.99999999999875 -881.3159377363946 L 415.99999999999875 -897.8140528154712 L 415.99999999999875 -897.8140528154707 L 416.99999999999875 -914.5113804599674 L 416.99999999999875 -914.5113804599672 L 417.99999999999875 -931.4103261353588 L 417.99999999999875 -931.4103261353586 L 418.99999999999864 -948.5133243527986 L 418.99999999999864 -948.5133243527981 L 419.99999999999864 -965.8228390198414 L 419.99999999999864 -965.8228390198409 L 420.99999999999864 -983.341363795401 L 420.99999999999864 -983.3413637954005 L 421.99999999999864 -1001.071422448994 L 421.99999999999864 -1001.0714224489935 L 422.99999999999864 -1019.015569224321 L 422.99999999999864 -1019.0155692243205 L 423.99999999999864 -1037.1763892072395 L 423.99999999999864 -1037.176389207239 L 424.99999999999864 -1055.5564986981763 L 424.99999999999864 -1055.5564986981758 L 425.99999999999864 -1074.1585455890436 L 425.99999999999864 -1074.1585455890431 L 426.99999999999864 -1092.9852097446974 L 426.99999999999864 -1092.985209744697 L 427.99999999999864 -1112.0392033890093 L 427.99999999999864 -1112.039203389009 L 428.99999999999864 -1131.3232714955975 L 428.99999999999864 -1131.323271495597 L 429.9999999999985 -1150.8401921832738 L 429.9999999999985 -1150.8401921832733 L 430.9999999999985 -1170.5927771162687 L 430.9999999999985 -1170.5927771162683 L 431.9999999999985 -1190.583871909289 L 431.9999999999985 -1190.5838719092885 L 432.9999999999985 -1210.8163565374616 L 432.9999999999985 -1210.8163565374612 L 433.9999999999985 -1231.2931457512364 L 433.9999999999985 -1231.293145751236 L 434.9999999999985 -1252.0171894962891 L 434.9999999999985 -1252.0171894962891 L 435.9999999999985 -1272.9914733385012 L 435.9999999999985 -1272.9914733385008 L 436.9999999999985 -1294.2190188940685 L 436.9999999999985 -1294.219018894068 L 437.9999999999985 -1315.7028842648047 L 437.9999999999985 -1315.7028842648042 L 438.9999999999985 -1337.4461644786988 L 438.9999999999985 -1337.4461644786984 L 439.9999999999985 -1359.4519919357963 L 439.9999999999985 -1359.4519919357958 L 440.9999999999985 -1381.7235368594597 L 440.9999999999985 -1381.7235368594588 L 441.9999999999984 -1404.264007753081 L 441.9999999999984 -1404.26400775308 L 442.9999999999984 -1427.0766518623072 L 442.9999999999984 -1427.0766518623063 L 443.9999999999984 -1450.1647556428497 L 443.9999999999984 -1450.1647556428488 L 444.9999999999984 -1473.531645233939 L 444.9999999999984 -1473.531645233938 L 445.9999999999984 -1497.1806869374977 L 445.9999999999984 -1497.1806869374968 L 446.9999999999984 -1521.1152877031022 L 446.9999999999984 -1521.1152877031013 L 447.9999999999984 -1545.3388956187937 L 447.9999999999984 -1545.3388956187928 L 448.9999999999984 -1569.8550004078247 L 448.9999999999984 -1569.8550004078238 L 449.9999999999984 -1594.6671339313948 L 449.9999999999984 -1594.667133931394 L 450.9999999999984 -1619.778870697462 L 450.9999999999984 -1619.7788706974611 L 451.9999999999984 -1645.1938283756967" stroke-opacity="0.8" stroke-linecap="round" stroke-linejoin="round" stroke-miterlimit="10" stroke-width="2.5"/><text fill="rgb(46,125,50)" stroke="none" font-family="geogebra-sans-serif, sans-serif" font-size="16px" font-style="normal" font-weight="normal" text-decoration="normal" x="24" y="472" text-anchor="start" dominant-baseline="alphabetic" fill-opacity="1">f</text><text fill="none" stroke="rgb(255,255,255)" font-family="geogebra-sans-serif, sans-serif" font-size="16px" font-style="normal" font-weight="normal" text-decoration="normal" x="24" y="472" text-anchor="start" dominant-baseline="alphabetic" stroke-opacity="1" stroke-linejoin="bevel" stroke-miterlimit="10" stroke-width="3">f</text><text fill="rgb(46,125,50)" stroke="none" font-family="geogebra-sans-serif, sans-serif" font-size="16px" font-style="normal" font-weight="normal" text-decoration="normal" x="24" y="472" text-anchor="start" dominant-baseline="alphabetic" fill-opacity="1">f</text><path fill="rgb(21,101,192)" stroke="none" paint-order="stroke fill markers" d=" M 156.40999999999903 427.25249999999994 C 156.40999999999903 430.0139237491539 154.171423749153 432.25249999999994 151.40999999999903 432.25249999999994 C 148.64857625084505 432.25249999999994 146.40999999999903 430.0139237491539 146.40999999999903 427.25249999999994 C 146.40999999999903 424.491076250846 148.64857625084505 422.25249999999994 151.40999999999903 422.25249999999994 C 154.171423749153 422.25249999999994 156.40999999999903 424.491076250846 156.40999999999903 427.25249999999994 Z" fill-opacity="1"/><path fill="none" stroke="rgb(0,0,0)" paint-order="fill stroke markers" d=" M 156.40999999999903 427.25249999999994 C 156.40999999999903 430.0139237491539 154.171423749153 432.25249999999994 151.40999999999903 432.25249999999994 C 148.64857625084505 432.25249999999994 146.40999999999903 430.0139237491539 146.40999999999903 427.25249999999994 C 146.40999999999903 424.491076250846 148.64857625084505 422.25249999999994 151.40999999999903 422.25249999999994 C 154.171423749153 422.25249999999994 156.40999999999903 424.491076250846 156.40999999999903 427.25249999999994 Z" stroke-opacity="1" stroke-linecap="round" stroke-linejoin="round" stroke-miterlimit="10"/><path fill="rgb(21,101,192)" stroke="none" paint-order="stroke fill markers" d=" M 214.15999999999894 369.5025 C 214.15999999999894 372.26392374915395 211.92142374915292 374.5025 209.15999999999894 374.5025 C 206.39857625084497 374.5025 204.15999999999894 372.26392374915395 204.15999999999894 369.5025 C 204.15999999999894 366.74107625084605 206.39857625084497 364.5025 209.15999999999894 364.5025 C 211.92142374915292 364.5025 214.15999999999894 366.74107625084605 214.15999999999894 369.5025 Z" fill-opacity="1"/><path fill="none" stroke="rgb(0,0,0)" paint-order="fill stroke markers" d=" M 214.15999999999894 369.5025 C 214.15999999999894 372.26392374915395 211.92142374915292 374.5025 209.15999999999894 374.5025 C 206.39857625084497 374.5025 204.15999999999894 372.26392374915395 204.15999999999894 369.5025 C 204.15999999999894 366.74107625084605 206.39857625084497 364.5025 209.15999999999894 364.5025 C 211.92142374915292 364.5025 214.15999999999894 366.74107625084605 214.15999999999894 369.5025 Z" stroke-opacity="1" stroke-linecap="round" stroke-linejoin="round" stroke-miterlimit="10"/><path fill="rgb(21,101,192)" stroke="none" paint-order="stroke fill markers" d=" M 271.90999999999883 254.00250000000003 C 271.90999999999883 256.763923749154 269.6714237491528 259.00250000000005 266.90999999999883 259.00250000000005 C 264.1485762508449 259.00250000000005 261.90999999999883 256.763923749154 261.90999999999883 254.00250000000003 C 261.90999999999883 251.24107625084605 264.1485762508449 249.00250000000003 266.90999999999883 249.00250000000003 C 269.6714237491528 249.00250000000003 271.90999999999883 251.24107625084605 271.90999999999883 254.00250000000003 Z" fill-opacity="1"/><path fill="none" stroke="rgb(0,0,0)" paint-order="fill stroke markers" d=" M 271.90999999999883 254.00250000000003 C 271.90999999999883 256.763923749154 269.6714237491528 259.00250000000005 266.90999999999883 259.00250000000005 C 264.1485762508449 259.00250000000005 261.90999999999883 256.763923749154 261.90999999999883 254.00250000000003 C 261.90999999999883 251.24107625084605 264.1485762508449 249.00250000000003 266.90999999999883 249.00250000000003 C 269.6714237491528 249.00250000000003 271.90999999999883 251.24107625084605 271.90999999999883 254.00250000000003 Z" stroke-opacity="1" stroke-linecap="round" stroke-linejoin="round" stroke-miterlimit="10"/><path fill="rgb(21,101,192)" stroke="none" paint-order="stroke fill markers" d=" M 329.6599999999987 23.00250000000011 C 329.6599999999987 25.763923749154078 327.42142374915267 28.00250000000011 324.6599999999987 28.00250000000011 C 321.89857625084477 28.00250000000011 319.6599999999987 25.763923749154078 319.6599999999987 23.00250000000011 C 319.6599999999987 20.241076250846145 321.89857625084477 18.00250000000011 324.6599999999987 18.00250000000011 C 327.42142374915267 18.00250000000011 329.6599999999987 20.241076250846145 329.6599999999987 23.00250000000011 Z" fill-opacity="1"/><path fill="none" stroke="rgb(0,0,0)" paint-order="fill stroke markers" d=" M 329.6599999999987 23.00250000000011 C 329.6599999999987 25.763923749154078 327.42142374915267 28.00250000000011 324.6599999999987 28.00250000000011 C 321.89857625084477 28.00250000000011 319.6599999999987 25.763923749154078 319.6599999999987 23.00250000000011 C 319.6599999999987 20.241076250846145 321.89857625084477 18.00250000000011 324.6599999999987 18.00250000000011 C 327.42142374915267 18.00250000000011 329.6599999999987 20.241076250846145 329.6599999999987 23.00250000000011 Z" stroke-opacity="1" stroke-linecap="round" stroke-linejoin="round" stroke-miterlimit="10"/></g></g></svg>