<?xml version="1.0" encoding="UTF-8" standalone="no"?>
<!DOCTYPE svg PUBLIC "-//W3C//DTD SVG 1.1//EN"
 "http://www.w3.org/Graphics/SVG/1.1/DTD/svg11.dtd">
<!-- Generated by graphviz version 3.0.0 (0)
 -->
<!-- Pages: 1 -->
<svg width="156pt" height="134pt"
 viewBox="0.00 0.00 155.71 134.19" xmlns="http://www.w3.org/2000/svg" xmlns:xlink="http://www.w3.org/1999/xlink">
<g id="graph0" class="graph" transform="scale(1 1) rotate(0) translate(4 130.19)">
<polygon fill="white" stroke="transparent" points="-4,4 -4,-130.19 151.71,-130.19 151.71,4 -4,4"/>
<!-- a -->
<g id="node1" class="node">
<title>a</title>
<ellipse fill="none" stroke="black" cx="27" cy="-55.04" rx="27" ry="18"/>
<text text-anchor="middle" x="27" y="-51.34" font-family="Times,serif" font-size="14.00">a</text>
</g>
<!-- b -->
<g id="node2" class="node">
<title>b</title>
<ellipse fill="none" stroke="black" cx="120.71" cy="-57.26" rx="27" ry="18"/>
<text text-anchor="middle" x="120.71" y="-53.56" font-family="Times,serif" font-size="14.00">b</text>
</g>
<!-- a&#45;&gt;b -->
<g id="edge1" class="edge">
<title>a&#45;&gt;b</title>
<path fill="none" stroke="black" d="M54.1,-55.68C63.23,-55.9 73.59,-56.14 83.37,-56.38"/>
<polygon fill="black" stroke="black" points="83.58,-59.88 93.67,-56.62 83.75,-52.88 83.58,-59.88"/>
</g>
<!-- c -->
<g id="node3" class="node">
<title>c</title>
<ellipse fill="none" stroke="black" cx="77.41" cy="-18" rx="27" ry="18"/>
<text text-anchor="middle" x="77.41" y="-14.3" font-family="Times,serif" font-size="14.00">c</text>
</g>
<!-- b&#45;&gt;c -->
<g id="edge2" class="edge">
<title>b&#45;&gt;c</title>
<path fill="none" stroke="black" d="M104.59,-42.64C103.48,-41.63 102.34,-40.61 101.2,-39.57"/>
<polygon fill="black" stroke="black" points="103.45,-36.89 93.69,-32.76 98.75,-42.07 103.45,-36.89"/>
</g>
<!-- d -->
<g id="node4" class="node">
<title>d</title>
<ellipse fill="none" stroke="black" cx="50.74" cy="-108.19" rx="27" ry="18"/>
<text text-anchor="middle" x="50.74" y="-104.49" font-family="Times,serif" font-size="14.00">d</text>
</g>
<!-- c&#45;&gt;d -->
<g id="edge3" class="edge">
<title>c&#45;&gt;d</title>
<path fill="none" stroke="black" d="M72.14,-35.82C68.38,-48.54 63.24,-65.91 58.95,-80.44"/>
<polygon fill="black" stroke="black" points="55.48,-79.83 56,-90.41 62.19,-81.81 55.48,-79.83"/>
</g>
<!-- d&#45;&gt;a -->
<g id="edge4" class="edge">
<title>d&#45;&gt;a</title>
<path fill="none" stroke="black" d="M42.97,-90.79C41.64,-87.82 40.24,-84.68 38.84,-81.54"/>
<polygon fill="black" stroke="black" points="41.98,-80 34.71,-72.3 35.59,-82.86 41.98,-80"/>
</g>
</g>
</svg>
