<svg xmlns="http://www.w3.org/2000/svg" xmlns:xlink="http://www.w3.org/1999/xlink" viewBox="0.00 0.00 1459.45 805.80" class="svg-content">
<g id="graph0" class="graph" transform="scale(1 1) rotate(0) translate(4 801.8)">
<title>Linux_kernel_diagram</title>
<polygon fill="#ffffff" stroke="transparent" points="-4,4 -4,-801.8 1455.452,-801.8 1455.452,4 -4,4"></polygon>
<!-- system_ -->
<!-- SCI -->
<g id="node3" class="node">
<title>SCI</title>
<g id="a_node3"><a xlink:href="https://en.wikibooks.org/wiki/The_Linux_Kernel/Syscalls" xlink:title="System calls">
<ellipse fill="#d9e7ee" stroke="#e27dd6" stroke-width="5" cx="490" cy="-592" rx="79" ry="36"></ellipse>
<text text-anchor="middle" x="490" y="-584.8" font-family="Helvetica,Arial,sans-serif" font-size="24.00" fill="#000000">System calls</text>
</a>
</g>
</g>
<!-- system_&#45;&gt;SCI -->
<!-- system -->
<g id="node2" class="node">
<title>system</title>
<g id="a_node2"><a xlink:href="https://en.wikibooks.org/wiki/The_Linux_Kernel/System" xlink:title="system">
<polygon fill="#ffffff" stroke="#e27dd6" stroke-width="5" points="562,-735.8 418,-735.8 418,-692.8 562,-692.8 562,-735.8"></polygon>
<text text-anchor="middle" x="490" y="-707.1" font-family="Helvetica,Arial,sans-serif" font-size="24.00" fill="#000000">system</text>
</a>
</g>
</g>
<!-- system&#45;&gt;system_ -->
<g id="edge1" class="edge">
<title>system-&gt;system_</title>
<path fill="none" stroke="#e27dd6" stroke-width="5" d="M490,-692.6874C490,-682.7002 490,-671.6943 490,-665.4568"></path>
<polygon fill="#e27dd6" stroke="#e27dd6" stroke-width="5" points="492.1876,-665.45 490,-660.4501 487.8126,-665.4501 492.1876,-665.45"></polygon>
</g>
<!-- processing -->
<g id="node18" class="node">
<title>processing</title>
<g id="a_node18"><a xlink:href="https://en.wikibooks.org/wiki/The_Linux_Kernel/Processing" xlink:title="processing">
<polygon fill="#ffffff" stroke="#c46747" stroke-width="5" points="742,-735.8 598,-735.8 598,-692.8 742,-692.8 742,-735.8"></polygon>
<text text-anchor="middle" x="670" y="-707.1" font-family="Helvetica,Arial,sans-serif" font-size="24.00" fill="#000000">processing</text>
</a>
</g>
</g>
<!-- system&#45;&gt;processing -->
<!-- sysfs -->
<g id="node4" class="node">
<title>sysfs</title>
<polygon fill="#b2d3e4" stroke="#e27dd6" stroke-width="5" points="569,-542 411,-542 411,-470 569,-470 569,-542"></polygon>
<text text-anchor="middle" x="490" y="-513.2" font-family="Helvetica,Arial,sans-serif" font-size="24.00" fill="#000000">proc &amp; sysfs</text>
<text text-anchor="middle" x="490" y="-484.4" font-family="Helvetica,Arial,sans-serif" font-size="24.00" fill="#000000">file systems</text>
</g>
<!-- SCI&#45;&gt;sysfs -->
<g id="edge2" class="edge">
<title>SCI-&gt;sysfs</title>
<path fill="none" stroke="#e27dd6" stroke-width="5" d="M490,-555.5283C490,-551.1334 490,-546.6454 490,-542.2536"></path>
</g>
<!-- DM -->
<g id="node5" class="node">
<title>DM</title>
<polygon fill="#91b5c9" stroke="#e27dd6" stroke-width="5" points="562,-407.9878 562,-432.0122 519.8234,-449 460.1766,-449 418,-432.0122 418,-407.9878 460.1766,-391 519.8234,-391 562,-407.9878"></polygon>
<text text-anchor="middle" x="490" y="-426" font-family="Helvetica,Arial,sans-serif" font-size="20.00" fill="#000000">Device</text>
<text text-anchor="middle" x="490" y="-402" font-family="Helvetica,Arial,sans-serif" font-size="20.00" fill="#000000">Model</text>
</g>
<!-- sysfs&#45;&gt;DM -->
<g id="edge3" class="edge">
<title>sysfs-&gt;DM</title>
<path fill="none" stroke="#e27dd6" stroke-width="5" d="M490,-469.5283C490,-462.7528 490,-455.756 490,-449.2319"></path>
</g>
<!-- log_sys -->
<g id="node6" class="node">
<title>log_sys</title>
<polygon fill="#6a9ab1" stroke="#e27dd6" stroke-width="5" points="569,-370 411,-370 411,-266 569,-266 569,-370"></polygon>
<text text-anchor="middle" x="490" y="-348" font-family="Helvetica,Arial,sans-serif" font-size="20.00" fill="#000000">system run,</text>
<text text-anchor="middle" x="490" y="-324" font-family="Helvetica,Arial,sans-serif" font-size="20.00" fill="#000000">modules,</text>
<text text-anchor="middle" x="490" y="-300" font-family="Helvetica,Arial,sans-serif" font-size="20.00" fill="#000000">generic</text>
<text text-anchor="middle" x="490" y="-276" font-family="Helvetica,Arial,sans-serif" font-size="20.00" fill="#000000">HW access </text>
</g>
<!-- DM&#45;&gt;log_sys -->
<g id="edge4" class="edge">
<title>DM-&gt;log_sys</title>
<path fill="none" stroke="#e27dd6" stroke-width="5" d="M490,-390.7709C490,-384.2953 490,-377.2433 490,-370.1614"></path>
</g>
<!-- bus_drv -->
<g id="node7" class="node">
<title>bus_drv</title>
<polygon fill="#71809b" stroke="#e27dd6" stroke-width="5" points="569,-248 411,-248 411,-176 569,-176 569,-248"></polygon>
<text text-anchor="middle" x="490" y="-204.8" font-family="Helvetica,Arial,sans-serif" font-size="24.00" fill="#000000">bus drivers</text>
</g>
<!-- log_sys&#45;&gt;bus_drv -->
<g id="edge5" class="edge">
<title>log_sys-&gt;bus_drv</title>
<path fill="none" stroke="#e27dd6" stroke-width="5" d="M490,-265.9316C490,-259.9629 490,-253.9784 490,-248.2811"></path>
</g>
<!-- buses -->
<g id="node8" class="node">
<title>buses</title>
<polygon fill="#777777" stroke="#e27dd6" stroke-width="5" points="569,-158 411,-158 411,-86 569,-86 569,-158"></polygon>
<text text-anchor="middle" x="490" y="-128" font-family="Helvetica,Arial,sans-serif" font-size="20.00" fill="#ffffff">buses:</text>
<text text-anchor="middle" x="490" y="-104" font-family="Helvetica,Arial,sans-serif" font-size="20.00" fill="#ffffff">PCI, USB ...</text>
</g>
<!-- bus_drv&#45;&gt;buses -->
<g id="edge6" class="edge">
<title>bus_drv-&gt;buses</title>
<path fill="none" stroke="#e27dd6" stroke-width="5" d="M490,-175.9121C490,-170.0437 490,-163.9646 490,-158.096"></path>
</g>
<!-- networking_ -->
<!-- sock -->
<g id="node11" class="node">
<title>sock</title>
<ellipse fill="#d9e7ee" stroke="#61c2c5" stroke-width="5" cx="1369" cy="-592" rx="79" ry="36"></ellipse>
<text text-anchor="middle" x="1369" y="-584.8" font-family="Helvetica,Arial,sans-serif" font-size="24.00" fill="#000000">Sockets</text>
</g>
<!-- networking_&#45;&gt;sock -->
<!-- networking -->
<g id="node10" class="node">
<title>networking</title>
<g id="a_node10"><a xlink:href="https://en.wikibooks.org/wiki/The_Linux_Kernel/Networking" xlink:title="networking">
<polygon fill="#ffffff" stroke="#61c2c5" stroke-width="5" points="1441,-735.8 1297,-735.8 1297,-692.8 1441,-692.8 1441,-735.8"></polygon>
<text text-anchor="middle" x="1369" y="-707.1" font-family="Helvetica,Arial,sans-serif" font-size="24.00" fill="#000000">networking</text>
</a>
</g>
</g>
<!-- networking&#45;&gt;networking_ -->
<g id="edge7" class="edge">
<title>networking-&gt;networking_</title>
<path fill="none" stroke="#61c2c5" stroke-width="5" d="M1369,-692.6874C1369,-682.7002 1369,-671.6943 1369,-665.4568"></path>
<polygon fill="#61c2c5" stroke="#61c2c5" stroke-width="5" points="1371.1876,-665.45 1369,-660.4501 1366.8126,-665.4501 1371.1876,-665.45"></polygon>
</g>
<!-- prot_fam -->
<g id="node12" class="node">
<title>prot_fam</title>
<polygon fill="#b2d3e4" stroke="#61c2c5" stroke-width="5" points="1448,-542 1290,-542 1290,-470 1448,-470 1448,-542"></polygon>
<text text-anchor="middle" x="1369" y="-513.2" font-family="Helvetica,Arial,sans-serif" font-size="24.00" fill="#000000">protocol</text>
<text text-anchor="middle" x="1369" y="-484.4" font-family="Helvetica,Arial,sans-serif" font-size="24.00" fill="#000000">families</text>
</g>
<!-- sock&#45;&gt;prot_fam -->
<g id="edge8" class="edge">
<title>sock-&gt;prot_fam</title>
<path fill="none" stroke="#61c2c5" stroke-width="5" d="M1369,-555.5283C1369,-551.1334 1369,-546.6454 1369,-542.2536"></path>
</g>
<!-- log_prot -->
<g id="node13" class="node">
<title>log_prot</title>
<polygon fill="#6a9ab1" stroke="#61c2c5" stroke-width="5" points="1451.0032,-354 1286.9968,-354 1286.9968,-282 1451.0032,-282 1451.0032,-354"></polygon>
<text text-anchor="middle" x="1369" y="-325.2" font-family="Helvetica,Arial,sans-serif" font-size="24.00" fill="#000000">protocols:</text>
<text text-anchor="middle" x="1369" y="-296.4" font-family="Helvetica,Arial,sans-serif" font-size="24.00" fill="#000000">TCP, UDP, IP</text>
</g>
<!-- prot_fam&#45;&gt;log_prot -->
<g id="edge9" class="edge">
<title>prot_fam-&gt;log_prot</title>
<path fill="none" stroke="#61c2c5" stroke-width="5" d="M1369,-469.7517C1369,-436.4612 1369,-387.3923 1369,-354.137"></path>
</g>
<!-- netif -->
<g id="node14" class="node">
<title>netif</title>
<polygon fill="#71809b" stroke="#61c2c5" stroke-width="5" points="1448,-252 1290,-252 1290,-172 1448,-172 1448,-252"></polygon>
<text text-anchor="middle" x="1369" y="-230" font-family="Helvetica,Arial,sans-serif" font-size="20.00" fill="#000000">network</text>
<text text-anchor="middle" x="1369" y="-206" font-family="Helvetica,Arial,sans-serif" font-size="20.00" fill="#000000">interfaces</text>
<text text-anchor="middle" x="1369" y="-182" font-family="Helvetica,Arial,sans-serif" font-size="20.00" fill="#000000">and drivers</text>
</g>
<!-- log_prot&#45;&gt;netif -->
<g id="edge10" class="edge">
<title>log_prot-&gt;netif</title>
<path fill="none" stroke="#61c2c5" stroke-width="5" d="M1369,-281.8173C1369,-272.2212 1369,-261.8046 1369,-252.0174"></path>
</g>
<!-- net_hw -->
<g id="node15" class="node">
<title>net_hw</title>
<polygon fill="#777777" stroke="#61c2c5" stroke-width="5" points="1451.404,-158 1286.596,-158 1286.596,-86 1451.404,-86 1451.404,-158"></polygon>
<text text-anchor="middle" x="1369" y="-128" font-family="Helvetica,Arial,sans-serif" font-size="20.00" fill="#ffffff">network:</text>
<text text-anchor="middle" x="1369" y="-104" font-family="Helvetica,Arial,sans-serif" font-size="20.00" fill="#ffffff">Ethernet, WiFi ...</text>
</g>
<!-- netif&#45;&gt;net_hw -->
<g id="edge11" class="edge">
<title>netif-&gt;net_hw</title>
<path fill="none" stroke="#61c2c5" stroke-width="5" d="M1369,-171.7383C1369,-167.2452 1369,-162.6884 1369,-158.2498"></path>
</g>
<!-- NFS -->
<g id="node16" class="node">
<title>NFS</title>
<polygon fill="#91b5c9" stroke="#8383cc" stroke-width="5" points="1320,-407.9878 1320,-432.0122 1294.8112,-449 1259.1888,-449 1234,-432.0122 1234,-407.9878 1259.1888,-391 1294.8112,-391 1320,-407.9878"></polygon>
<text text-anchor="middle" x="1277" y="-412.8" font-family="Helvetica,Arial,sans-serif" font-size="24.00" fill="#000000">NFS</text>
</g>
<!-- NFS&#45;&gt;log_prot -->
<g id="edge12" class="edge">
<title>NFS-&gt;log_prot</title>
<path fill="none" stroke="#61c2c5" stroke-width="5" d="M1300.2155,-394.2611C1311.1811,-382.1036 1324.4576,-367.3839 1336.4105,-354.1319"></path>
</g>
<!-- processing_ -->
<!-- proc -->
<g id="node19" class="node">
<title>proc</title>
<ellipse fill="#d9e7ee" stroke="#c46747" stroke-width="5" cx="670" cy="-592" rx="79" ry="36"></ellipse>
<text text-anchor="middle" x="670" y="-584.8" font-family="Helvetica,Arial,sans-serif" font-size="24.00" fill="#000000">Processes</text>
</g>
<!-- processing_&#45;&gt;proc -->
<!-- processing&#45;&gt;processing_ -->
<g id="edge13" class="edge">
<title>processing-&gt;processing_</title>
<path fill="none" stroke="#c46747" stroke-width="5" d="M670,-692.6874C670,-682.7002 670,-671.6943 670,-665.4568"></path>
<polygon fill="#c46747" stroke="#c46747" stroke-width="5" points="672.1876,-665.45 670,-660.4501 667.8126,-665.4501 672.1876,-665.45"></polygon>
</g>
<!-- memory -->
<g id="node34" class="node">
<title>memory</title>
<g id="a_node34"><a xlink:href="https://en.wikibooks.org/wiki/The_Linux_Kernel/Memory" xlink:title="memory">
<polygon fill="#ffffff" stroke="#51bf5b" stroke-width="5" points="922,-735.8 778,-735.8 778,-692.8 922,-692.8 922,-735.8"></polygon>
<text text-anchor="middle" x="850" y="-707.1" font-family="Helvetica,Arial,sans-serif" font-size="24.00" fill="#000000">memory</text>
</a>
</g>
</g>
<!-- processing&#45;&gt;memory -->
<!-- Tasks -->
<g id="node20" class="node">
<title>Tasks</title>
<polygon fill="#b2d3e4" stroke="#c46747" stroke-width="5" points="749,-542 591,-542 591,-470 749,-470 749,-542"></polygon>
<text text-anchor="middle" x="670" y="-498.8" font-family="Helvetica,Arial,sans-serif" font-size="24.00" fill="#000000">Tasks</text>
</g>
<!-- proc&#45;&gt;Tasks -->
<g id="edge14" class="edge">
<title>proc-&gt;Tasks</title>
<path fill="none" stroke="#c46747" stroke-width="5" d="M670,-555.5283C670,-551.1334 670,-546.6454 670,-542.2536"></path>
</g>
<!-- sync -->
<g id="node21" class="node">
<title>sync</title>
<polygon fill="#91b5c9" stroke="#c46747" stroke-width="5" points="749,-409.6447 749,-430.3553 702.7229,-445 637.2771,-445 591,-430.3553 591,-409.6447 637.2771,-395 702.7229,-395 749,-409.6447"></polygon>
<text text-anchor="middle" x="670" y="-414" font-family="Arial Narrow" font-size="20.00" fill="#000000">synchronization</text>
</g>
<!-- Tasks&#45;&gt;sync -->
<g id="edge15" class="edge">
<title>Tasks-&gt;sync</title>
<path fill="none" stroke="#c46747" stroke-width="5" d="M670,-469.5283C670,-461.2879 670,-452.72 670,-445.0734"></path>
</g>
<!-- sched -->
<g id="node22" class="node">
<title>sched</title>
<polygon fill="#6a9ab1" stroke="#c46747" stroke-width="5" points="749,-354 591,-354 591,-282 749,-282 749,-354"></polygon>
<text text-anchor="middle" x="670" y="-310.8" font-family="Helvetica,Arial,sans-serif" font-size="24.00" fill="#000000">Scheduler</text>
</g>
<!-- sync&#45;&gt;sched -->
<g id="edge16" class="edge">
<title>sync-&gt;sched</title>
<path fill="none" stroke="#c46747" stroke-width="5" d="M670,-394.7865C670,-382.5157 670,-367.5421 670,-354.087"></path>
</g>
<!-- IRQ -->
<g id="node23" class="node">
<title>IRQ</title>
<polygon fill="#71809b" stroke="#c46747" stroke-width="5" points="749,-252 591,-252 591,-172 749,-172 749,-252"></polygon>
<text text-anchor="middle" x="670" y="-230" font-family="Helvetica,Arial,sans-serif" font-size="20.00" fill="#000000">interrupts</text>
<text text-anchor="middle" x="670" y="-206" font-family="Helvetica,Arial,sans-serif" font-size="20.00" fill="#000000">core,</text>
<text text-anchor="middle" x="670" y="-182" font-family="Helvetica,Arial,sans-serif" font-size="20.00" fill="#000000">CPU arch</text>
</g>
<!-- sched&#45;&gt;IRQ -->
<g id="edge17" class="edge">
<title>sched-&gt;IRQ</title>
<path fill="none" stroke="#c46747" stroke-width="5" d="M670,-281.8173C670,-272.2212 670,-261.8046 670,-252.0174"></path>
</g>
<!-- CPU -->
<g id="node24" class="node">
<title>CPU</title>
<polygon fill="#777777" stroke="#c46747" stroke-width="5" points="749,-158 591,-158 591,-86 749,-86 749,-158"></polygon>
<text text-anchor="middle" x="670" y="-116" font-family="Helvetica,Arial,sans-serif" font-size="20.00" fill="#ffffff">CPU</text>
</g>
<!-- IRQ&#45;&gt;CPU -->
<g id="edge18" class="edge">
<title>IRQ-&gt;CPU</title>
<path fill="none" stroke="#c46747" stroke-width="5" d="M670,-171.7383C670,-167.2452 670,-162.6884 670,-158.2498"></path>
</g>
<!-- bottom -->
<g id="node63" class="node">
<title>bottom</title>
<g id="a_node63"><a xlink:href="http://www.MakeLinux.net/kernel/diagram" xlink:title="© 2007-2022 Costa Shulyupin http://www.MakeLinux.net/kernel/diagram">
<text text-anchor="middle" x="670" y="-28.8" font-family="Helvetica,Arial,sans-serif" font-size="24.00" fill="#000000">© 2007-2022 Costa Shulyupin http://www.MakeLinux.net/kernel/diagram</text>
</a>
</g>
</g>
<!-- CPU&#45;&gt;bottom -->
<!-- MA -->
<g id="node25" class="node">
<title>MA</title>
<ellipse fill="#d9e7ee" stroke="#51bf5b" stroke-width="5" cx="850" cy="-592" rx="79" ry="36"></ellipse>
<text text-anchor="middle" x="850" y="-599.2" font-family="Helvetica,Arial,sans-serif" font-size="24.00" fill="#000000">memory</text>
<text text-anchor="middle" x="850" y="-570.4" font-family="Helvetica,Arial,sans-serif" font-size="24.00" fill="#000000">access</text>
</g>
<!-- VM -->
<g id="node26" class="node">
<title>VM</title>
<polygon fill="#b2d3e4" stroke="#51bf5b" stroke-width="5" points="929,-542 771,-542 771,-470 929,-470 929,-542"></polygon>
<text text-anchor="middle" x="850" y="-513.2" font-family="Helvetica,Arial,sans-serif" font-size="24.00" fill="#000000">Virtual</text>
<text text-anchor="middle" x="850" y="-484.4" font-family="Helvetica,Arial,sans-serif" font-size="24.00" fill="#000000">memory</text>
</g>
<!-- MA&#45;&gt;VM -->
<g id="edge19" class="edge">
<title>MA-&gt;VM</title>
<path fill="none" stroke="#51bf5b" stroke-width="5" d="M850,-555.5283C850,-551.1334 850,-546.6454 850,-542.2536"></path>
</g>
<!-- mmap -->
<g id="node27" class="node">
<title>mmap</title>
<polygon fill="#91b5c9" stroke="#51bf5b" stroke-width="5" points="922,-407.9878 922,-432.0122 879.8234,-449 820.1766,-449 778,-432.0122 778,-407.9878 820.1766,-391 879.8234,-391 922,-407.9878"></polygon>
<text text-anchor="middle" x="850" y="-426" font-family="Helvetica,Arial,sans-serif" font-size="20.00" fill="#000000">memory</text>
<text text-anchor="middle" x="850" y="-402" font-family="Helvetica,Arial,sans-serif" font-size="20.00" fill="#000000">mapping</text>
</g>
<!-- VM&#45;&gt;mmap -->
<g id="edge27" class="edge">
<title>VM-&gt;mmap</title>
<path fill="none" stroke="#51bf5b" stroke-width="5" d="M850,-469.5283C850,-462.7528 850,-455.756 850,-449.2319"></path>
</g>
<!-- log_mem -->
<g id="node28" class="node">
<title>log_mem</title>
<polygon fill="#6a9ab1" stroke="#51bf5b" stroke-width="5" points="929,-354 771,-354 771,-282 929,-282 929,-354"></polygon>
<text text-anchor="middle" x="850" y="-325.2" font-family="Helvetica,Arial,sans-serif" font-size="24.00" fill="#000000">logical</text>
<text text-anchor="middle" x="850" y="-296.4" font-family="Helvetica,Arial,sans-serif" font-size="24.00" fill="#000000">memory</text>
</g>
<!-- mmap&#45;&gt;log_mem -->
<g id="edge20" class="edge">
<title>mmap-&gt;log_mem</title>
<path fill="none" stroke="#51bf5b" stroke-width="5" d="M850,-390.7709C850,-379.3504 850,-366.1367 850,-354.1285"></path>
</g>
<!-- SW -->
<g id="node30" class="node">
<title>SW</title>
<polygon fill="#91b5c9" stroke="#8383cc" stroke-width="5" points="1037,-305.9878 1037,-330.0122 1011.8112,-347 976.1888,-347 951,-330.0122 951,-305.9878 976.1888,-289 1011.8112,-289 1037,-305.9878"></polygon>
<text text-anchor="middle" x="994" y="-310.8" font-family="Helvetica,Arial,sans-serif" font-size="24.00" fill="#000000">Swap</text>
</g>
<!-- mmap&#45;&gt;SW -->
<g id="edge22" class="edge">
<title>mmap-&gt;SW</title>
<path fill="none" stroke="#51bf5b" stroke-width="5" d="M887.0836,-393.7325C911.0833,-376.7327 941.9124,-354.8954 964.2941,-339.0417"></path>
</g>
<!-- PA -->
<g id="node29" class="node">
<title>PA</title>
<polygon fill="#71809b" stroke="#51bf5b" stroke-width="5" points="929,-248 771,-248 771,-176 929,-176 929,-248"></polygon>
<text text-anchor="middle" x="850" y="-219.2" font-family="Helvetica,Arial,sans-serif" font-size="24.00" fill="#000000">Page</text>
<text text-anchor="middle" x="850" y="-190.4" font-family="Helvetica,Arial,sans-serif" font-size="24.00" fill="#000000">Allocator</text>
</g>
<!-- log_mem&#45;&gt;PA -->
<g id="edge21" class="edge">
<title>log_mem-&gt;PA</title>
<path fill="none" stroke="#51bf5b" stroke-width="5" d="M850,-281.8173C850,-270.9018 850,-258.9245 850,-248.0196"></path>
</g>
<!-- RAM -->
<g id="node33" class="node">
<title>RAM</title>
<polygon fill="#777777" stroke="#51bf5b" stroke-width="5" points="929,-158 771,-158 771,-86 929,-86 929,-158"></polygon>
<text text-anchor="middle" x="850" y="-116" font-family="Helvetica,Arial,sans-serif" font-size="20.00" fill="#ffffff">MMU, RAM</text>
</g>
<!-- PA&#45;&gt;RAM -->
<g id="edge25" class="edge">
<title>PA-&gt;RAM</title>
<path fill="none" stroke="#51bf5b" stroke-width="5" d="M850,-175.9121C850,-170.0437 850,-163.9646 850,-158.096"></path>
</g>
<!-- block -->
<g id="node31" class="node">
<title>block</title>
<polygon fill="#71809b" stroke="#51bf5b" stroke-width="5" points="1263,-252 1105,-252 1105,-172 1263,-172 1263,-252"></polygon>
<text text-anchor="middle" x="1184" y="-230" font-family="Helvetica,Arial,sans-serif" font-size="20.00" fill="#000000">Block</text>
<text text-anchor="middle" x="1184" y="-206" font-family="Helvetica,Arial,sans-serif" font-size="20.00" fill="#000000">devices</text>
<text text-anchor="middle" x="1184" y="-182" font-family="Helvetica,Arial,sans-serif" font-size="20.00" fill="#000000">and drivers</text>
</g>
<!-- SW&#45;&gt;block -->
<g id="edge23" class="edge">
<title>SW-&gt;block</title>
<path fill="none" stroke="#8383cc" stroke-width="5" d="M1027.5308,-299.2933C1050.9682,-286.2177 1083.1532,-268.2619 1112.2411,-252.0339"></path>
</g>
<!-- SD -->
<g id="node41" class="node">
<title>SD</title>
<polygon fill="#777777" stroke="#8383cc" stroke-width="5" points="1264.5965,-158 1103.4035,-158 1103.4035,-86 1264.5965,-86 1264.5965,-158"></polygon>
<text text-anchor="middle" x="1184" y="-128" font-family="Helvetica,Arial,sans-serif" font-size="20.00" fill="#ffffff">storage devices:</text>
<text text-anchor="middle" x="1184" y="-104" font-family="Helvetica,Arial,sans-serif" font-size="20.00" fill="#ffffff">SCSI, NVMe ...</text>
</g>
<!-- block&#45;&gt;SD -->
<g id="edge35" class="edge">
<title>block-&gt;SD</title>
<path fill="none" stroke="#8383cc" stroke-width="5" d="M1184,-171.7383C1184,-167.2452 1184,-162.6884 1184,-158.2498"></path>
</g>
<!-- PC -->
<g id="node32" class="node">
<title>PC</title>
<polygon fill="#91b5c9" stroke="#51bf5b" stroke-width="5" points="1072,-407.9878 1072,-432.0122 1046.8112,-449 1011.1888,-449 986,-432.0122 986,-407.9878 1011.1888,-391 1046.8112,-391 1072,-407.9878"></polygon>
<text text-anchor="middle" x="1029" y="-426" font-family="Helvetica,Arial,sans-serif" font-size="20.00" fill="#000000">page</text>
<text text-anchor="middle" x="1029" y="-402" font-family="Helvetica,Arial,sans-serif" font-size="20.00" fill="#000000">cache</text>
</g>
<!-- PC&#45;&gt;PA -->
<g id="edge24" class="edge">
<title>PC-&gt;PA</title>
<path fill="none" stroke="#51bf5b" stroke-width="5" d="M1006.3295,-393.6567C974.6263,-356.8171 916.9305,-289.774 881.1938,-248.2476"></path>
</g>
<!-- memory_ -->
<!-- memory&#45;&gt;memory_ -->
<g id="edge26" class="edge">
<title>memory-&gt;memory_</title>
<path fill="none" stroke="#51bf5b" stroke-width="5" d="M850,-692.6874C850,-682.7002 850,-671.6943 850,-665.4568"></path>
<polygon fill="#51bf5b" stroke="#51bf5b" stroke-width="5" points="852.1876,-665.45 850,-660.4501 847.8126,-665.4501 852.1876,-665.45"></polygon>
</g>
<!-- storage -->
<g id="node37" class="node">
<title>storage</title>
<g id="a_node37"><a xlink:href="https://en.wikibooks.org/wiki/The_Linux_Kernel/Storage" xlink:title="storage">
<polygon fill="#ffffff" stroke="#8383cc" stroke-width="5" points="1256,-735.8 1112,-735.8 1112,-692.8 1256,-692.8 1256,-735.8"></polygon>
<text text-anchor="middle" x="1184" y="-707.1" font-family="Helvetica,Arial,sans-serif" font-size="24.00" fill="#000000">storage</text>
</a>
</g>
</g>
<!-- memory&#45;&gt;storage -->
<!-- memory_&#45;&gt;MA -->
<!-- storage_ -->
<!-- FS -->
<g id="node38" class="node">
<title>FS</title>
<ellipse fill="#d9e7ee" stroke="#8383cc" stroke-width="5" cx="1184" cy="-592" rx="79" ry="36"></ellipse>
<text text-anchor="middle" x="1184" y="-599.2" font-family="Helvetica,Arial,sans-serif" font-size="24.00" fill="#000000">files and</text>
<text text-anchor="middle" x="1184" y="-570.4" font-family="Helvetica,Arial,sans-serif" font-size="24.00" fill="#000000">directories</text>
</g>
<!-- storage_&#45;&gt;FS -->
<!-- storage&#45;&gt;networking -->
<!-- storage&#45;&gt;storage_ -->
<g id="edge28" class="edge">
<title>storage-&gt;storage_</title>
<path fill="none" stroke="#8383cc" stroke-width="5" d="M1184,-692.6874C1184,-682.7002 1184,-671.6943 1184,-665.4568"></path>
<polygon fill="#8383cc" stroke="#8383cc" stroke-width="5" points="1186.1876,-665.45 1184,-660.4501 1181.8126,-665.4501 1186.1876,-665.45"></polygon>
</g>
<!-- VFS -->
<g id="node39" class="node">
<title>VFS</title>
<polygon fill="#b2d3e4" stroke="#8383cc" stroke-width="5" points="1263,-542 1105,-542 1105,-470 1263,-470 1263,-542"></polygon>
<text text-anchor="middle" x="1184" y="-513.2" font-family="Helvetica,Arial,sans-serif" font-size="24.00" fill="#000000">Virtual</text>
<text text-anchor="middle" x="1184" y="-484.4" font-family="Helvetica,Arial,sans-serif" font-size="24.00" fill="#000000">File System</text>
</g>
<!-- FS&#45;&gt;VFS -->
<g id="edge29" class="edge">
<title>FS-&gt;VFS</title>
<path fill="none" stroke="#8383cc" stroke-width="5" d="M1184,-555.5283C1184,-551.1334 1184,-546.6454 1184,-542.2536"></path>
</g>
<!-- VFS&#45;&gt;NFS -->
<g id="edge31" class="edge">
<title>VFS-&gt;NFS</title>
<path fill="none" stroke="#8383cc" stroke-width="5" d="M1223.1708,-469.7775C1232.6026,-461.0556 1242.4471,-451.9521 1251.0991,-443.9513"></path>
</g>
<!-- VFS&#45;&gt;mmap -->
<g id="edge30" class="edge">
<title>VFS-&gt;mmap</title>
<path fill="none" stroke="#8383cc" stroke-width="5" d="M1104.8467,-485.6192C1045.9136,-470.4448 966.5767,-450.0167 912.1667,-436.007"></path>
</g>
<!-- VFS&#45;&gt;PC -->
<g id="edge33" class="edge">
<title>VFS-&gt;PC</title>
<path fill="none" stroke="#8383cc" stroke-width="5" d="M1118.7153,-469.7775C1099.3552,-459.0358 1078.952,-447.7153 1062.5029,-438.5887"></path>
</g>
<!-- logFS -->
<g id="node40" class="node">
<title>logFS</title>
<polygon fill="#6a9ab1" stroke="#8383cc" stroke-width="5" points="1263,-358 1105,-358 1105,-278 1263,-278 1263,-358"></polygon>
<text text-anchor="middle" x="1184" y="-336" font-family="Helvetica,Arial,sans-serif" font-size="20.00" fill="#000000">logical</text>
<text text-anchor="middle" x="1184" y="-312" font-family="Helvetica,Arial,sans-serif" font-size="20.00" fill="#000000">filesystems:</text>
<text text-anchor="middle" x="1184" y="-288" font-family="Helvetica,Arial,sans-serif" font-size="20.00" fill="#000000">ext3, xfs ...</text>
</g>
<!-- VFS&#45;&gt;logFS -->
<g id="edge32" class="edge">
<title>VFS-&gt;logFS</title>
<path fill="none" stroke="#8383cc" stroke-width="5" d="M1184,-469.7517C1184,-437.7416 1184,-391.1435 1184,-358.0425"></path>
</g>
<!-- logFS&#45;&gt;block -->
<g id="edge34" class="edge">
<title>logFS-&gt;block</title>
<path fill="none" stroke="#8383cc" stroke-width="5" d="M1184,-277.9259C1184,-269.4836 1184,-260.5752 1184,-252.1307"></path>
</g>
<!-- HI_ -->
<!-- char -->
<g id="node44" class="node">
<title>char</title>
<ellipse fill="#d9e7ee" stroke="#cfbf57" stroke-width="5" cx="306" cy="-592" rx="79" ry="36"></ellipse>
<text text-anchor="middle" x="306" y="-599.2" font-family="Helvetica,Arial,sans-serif" font-size="24.00" fill="#000000">char</text>
<text text-anchor="middle" x="306" y="-570.4" font-family="Helvetica,Arial,sans-serif" font-size="24.00" fill="#000000">devices</text>
</g>
<!-- HI_&#45;&gt;char -->
<!-- HI -->
<g id="node43" class="node">
<title>HI</title>
<g id="a_node43"><a xlink:href="https://en.wikibooks.org/wiki/The_Linux_Kernel/Human_interfaces" xlink:title="human\ninterface">
<polygon fill="#ffffff" stroke="#cfbf57" stroke-width="5" points="378,-735.8 234,-735.8 234,-692.8 378,-692.8 378,-735.8"></polygon>
<text text-anchor="middle" x="306" y="-717.9" font-family="Helvetica,Arial,sans-serif" font-size="12.00" fill="#000000">human</text>
<text text-anchor="middle" x="306" y="-703.5" font-family="Helvetica,Arial,sans-serif" font-size="12.00" fill="#000000">interface</text>
</a>
</g>
</g>
<!-- HI&#45;&gt;system -->
<!-- HI&#45;&gt;HI_ -->
<g id="edge36" class="edge">
<title>HI-&gt;HI_</title>
<path fill="none" stroke="#cfbf57" stroke-width="5" d="M306,-692.6874C306,-682.7002 306,-671.6943 306,-665.4568"></path>
<polygon fill="#cfbf57" stroke="#cfbf57" stroke-width="5" points="308.1876,-665.45 306,-660.4501 303.8126,-665.4501 308.1876,-665.45"></polygon>
</g>
<!-- input -->
<g id="node45" class="node">
<title>input</title>
<polygon fill="#b2d3e4" stroke="#cfbf57" stroke-width="5" points="385,-542 227,-542 227,-470 385,-470 385,-542"></polygon>
<text text-anchor="middle" x="306" y="-513.2" font-family="Helvetica,Arial,sans-serif" font-size="24.00" fill="#000000">input</text>
<text text-anchor="middle" x="306" y="-484.4" font-family="Helvetica,Arial,sans-serif" font-size="24.00" fill="#000000">subsystem</text>
</g>
<!-- char&#45;&gt;input -->
<g id="edge37" class="edge">
<title>char-&gt;input</title>
<path fill="none" stroke="#cfbf57" stroke-width="5" d="M306,-555.5283C306,-551.1334 306,-546.6454 306,-542.2536"></path>
</g>
<!-- F7 -->
<g id="node46" class="node">
<title>F7</title>
<polygon fill="#6a9ab1" stroke="#cfbf57" stroke-width="5" points="385,-354 227,-354 227,-282 385,-282 385,-354"></polygon>
<text text-anchor="middle" x="306" y="-325.2" font-family="Helvetica,Arial,sans-serif" font-size="24.00" fill="#000000">HI class</text>
<text text-anchor="middle" x="306" y="-296.4" font-family="Helvetica,Arial,sans-serif" font-size="24.00" fill="#000000">drivers</text>
</g>
<!-- input&#45;&gt;F7 -->
<g id="edge38" class="edge">
<title>input-&gt;F7</title>
<path fill="none" stroke="#cfbf57" stroke-width="5" d="M306,-469.7517C306,-436.4612 306,-387.3923 306,-354.137"></path>
</g>
<!-- HID -->
<g id="node47" class="node">
<title>HID</title>
<g id="a_node47"><a xlink:href="https://www.kernel.org/doc/html/latest/hid/" xlink:title="HI\nperipherals\ndrivers">
<polygon fill="#71809b" stroke="#cfbf57" stroke-width="5" points="385,-252 227,-252 227,-172 385,-172 385,-252"></polygon>
<text text-anchor="middle" x="306" y="-230" font-family="Helvetica,Arial,sans-serif" font-size="20.00" fill="#000000">HI</text>
<text text-anchor="middle" x="306" y="-206" font-family="Helvetica,Arial,sans-serif" font-size="20.00" fill="#000000">peripherals</text>
<text text-anchor="middle" x="306" y="-182" font-family="Helvetica,Arial,sans-serif" font-size="20.00" fill="#000000">drivers</text>
</a>
</g>
</g>
<!-- F7&#45;&gt;HID -->
<g id="edge39" class="edge">
<title>F7-&gt;HID</title>
<path fill="none" stroke="#cfbf57" stroke-width="5" d="M306,-281.8173C306,-272.2212 306,-261.8046 306,-252.0174"></path>
</g>
<!-- display -->
<g id="node48" class="node">
<title>display</title>
<polygon fill="#777777" stroke="#cfbf57" stroke-width="5" points="389.4873,-158 222.5127,-158 222.5127,-86 389.4873,-86 389.4873,-158"></polygon>
<text text-anchor="middle" x="306" y="-127.7" font-family="Helvetica,Arial,sans-serif" font-size="19.00" fill="#ffffff">keyboard, mouse,</text>
<text text-anchor="middle" x="306" y="-104.9" font-family="Helvetica,Arial,sans-serif" font-size="19.00" fill="#ffffff">display, audio</text>
</g>
<!-- HID&#45;&gt;display -->
<g id="edge40" class="edge">
<title>HID-&gt;display</title>
<path fill="none" stroke="#cfbf57" stroke-width="5" d="M306,-171.7383C306,-167.2452 306,-162.6884 306,-158.2498"></path>
</g>
<!-- functions_ -->
<!-- functions_&#45;&gt;HI -->
<!-- functions -->
<g id="node50" class="node">
<title>functions</title>
<g id="a_node50"><a xlink:href="http://www.makelinux.net/ldd3/chp-1-sect-2.shtml" xlink:title="Columns represent main functionalities of the kernel">
<polygon fill="none" stroke="#c0c0c0" stroke-dasharray="5,2" points="136.5,-735.8 21.5,-735.8 21.5,-692.8 136.5,-692.8 136.5,-735.8"></polygon>
<text text-anchor="middle" x="79" y="-707.1" font-family="Helvetica,Arial,sans-serif" font-size="24.00" fill="#000000">functions</text>
</a>
</g>
</g>
<!-- functions&#45;&gt;functions_ -->
<g id="edge47" class="edge">
<title>functions-&gt;functions_</title>
<path fill="none" stroke="#c0c0c0" d="M136.6797,-714.3C151.2073,-714.3 165.7348,-714.3 180.2624,-714.3"></path>
<polygon fill="#c0c0c0" stroke="#c0c0c0" points="180.6147,-716.0501 185.6147,-714.3 180.6147,-712.5501 180.6147,-716.0501"></polygon>
</g>
<!-- layers -->
<g id="node64" class="node">
<title>layers</title>
<g id="a_node64"><a xlink:title="Functionalities are divided to common layers. It is approximate division.">
<polygon fill="#d3d3d3" stroke="#000000" stroke-width="0" points="118.9984,-678.7005 39.0016,-678.7005 39.0016,-642.0995 118.9984,-642.0995 118.9984,-678.7005"></polygon>
<text text-anchor="middle" x="79" y="-653.2" font-family="Helvetica,Arial,sans-serif" font-size="24.00" fill="#000000">layers</text>
</a>
</g>
</g>
<!-- functions&#45;&gt;layers -->
<!-- usr_ -->
<!-- usr -->
<g id="node52" class="node">
<title>usr</title>
<ellipse fill="#d9e7ee" stroke="#000000" stroke-width="0" cx="79" cy="-592" rx="79" ry="36"></ellipse>
<text text-anchor="middle" x="79" y="-599.2" font-family="Helvetica,Arial,sans-serif" font-size="24.00" fill="#000000">user space</text>
<text text-anchor="middle" x="79" y="-570.4" font-family="Helvetica,Arial,sans-serif" font-size="24.00" fill="#000000">interfaces</text>
</g>
<!-- usr&#45;&gt;usr_ -->
<g id="edge56" class="edge">
<title>usr-&gt;usr_</title>
<path fill="none" stroke="#d9e7ee" stroke-width="5" d="M158.1094,-592C170.5214,-592 182.9334,-592 195.3455,-592"></path>
<polygon fill="#d9e7ee" stroke="#d9e7ee" stroke-width="5" points="195.665,-594.1876 200.6649,-592 195.6649,-589.8126 195.665,-594.1876"></polygon>
</g>
<!-- virt -->
<g id="node54" class="node">
<title>virt</title>
<g id="a_node54"><a xlink:href="https://en.wikipedia.org/wiki/Proxy_pattern" xlink:title="proxy between standard user space interfaces and internal implementations">
<polygon fill="#b2d3e4" stroke="#000000" stroke-width="0" points="158,-542 0,-542 0,-470 158,-470 158,-542"></polygon>
<text text-anchor="middle" x="79" y="-513.2" font-family="Helvetica,Arial,sans-serif" font-size="24.00" fill="#000000">virtual</text>
<text text-anchor="middle" x="79" y="-484.4" font-family="Helvetica,Arial,sans-serif" font-size="24.00" fill="#000000">subsystems</text>
</a>
</g>
</g>
<!-- usr&#45;&gt;virt -->
<g id="edge57" class="edge">
<title>usr-&gt;virt</title>
<path fill="none" stroke="#d9e7ee" stroke-width="5" d="M79,-555.5283C79,-551.1334 79,-546.6454 79,-542.2536"></path>
</g>
<!-- D0 -->
<!-- virt&#45;&gt;D0 -->
<g id="edge58" class="edge">
<title>virt-&gt;D0</title>
<path fill="none" stroke="#b2d3e4" stroke-width="5" d="M158.1094,-506C170.5214,-506 182.9334,-506 195.3455,-506"></path>
<polygon fill="#b2d3e4" stroke="#b2d3e4" stroke-width="5" points="195.665,-508.1876 200.6649,-506 195.6649,-503.8126 195.665,-508.1876"></polygon>
</g>
<!-- bridges -->
<g id="node55" class="node">
<title>bridges</title>
<g id="a_node55"><a xlink:href="https://en.wikipedia.org/wiki/Bridge_pattern" xlink:title="bridges between uniform virtual interfaces and various implementations">
<polygon fill="#91b5c9" stroke="#000000" stroke-width="0" points="158,-405.0883 158,-434.9117 111.7229,-456 46.2771,-456 0,-434.9117 0,-405.0883 46.2771,-384 111.7229,-384 158,-405.0883"></polygon>
<text text-anchor="middle" x="79" y="-412.8" font-family="Helvetica,Arial,sans-serif" font-size="24.00" fill="#000000">bridges</text>
</a>
</g>
</g>
<!-- virt&#45;&gt;bridges -->
<g id="edge59" class="edge">
<title>virt-&gt;bridges</title>
<path fill="none" stroke="#b2d3e4" stroke-width="5" d="M79,-469.5283C79,-465.1334 79,-460.6454 79,-456.2536"></path>
</g>
<!-- E0 -->
<!-- bridges&#45;&gt;E0 -->
<g id="edge60" class="edge">
<title>bridges-&gt;E0</title>
<path fill="none" stroke="#91b5c9" stroke-width="6" d="M158.1094,-420C170.5214,-420 182.9334,-420 195.3455,-420"></path>
<polygon fill="#91b5c9" stroke="#91b5c9" stroke-width="6" points="195.665,-422.6251 200.6649,-420 195.6649,-417.3751 195.665,-422.6251"></polygon>
</g>
<!-- logical -->
<g id="node58" class="node">
<title>logical</title>
<polygon fill="#6a9ab1" stroke="#000000" stroke-width="0" points="158,-354 0,-354 0,-282 158,-282 158,-354"></polygon>
<text text-anchor="middle" x="79" y="-310.8" font-family="Helvetica,Arial,sans-serif" font-size="24.00" fill="#000000">logical</text>
</g>
<!-- bridges&#45;&gt;logical -->
<g id="edge61" class="edge">
<title>bridges-&gt;logical</title>
<path fill="none" stroke="#91b5c9" stroke-width="6" d="M79,-383.7514C79,-374.1315 79,-363.7455 79,-354.1319"></path>
</g>
<!-- F0 -->
<!-- logical&#45;&gt;F0 -->
<g id="edge62" class="edge">
<title>logical-&gt;F0</title>
<path fill="none" stroke="#6a9ab1" stroke-width="6" d="M158.1094,-318C170.5214,-318 182.9334,-318 195.3455,-318"></path>
<polygon fill="#6a9ab1" stroke="#6a9ab1" stroke-width="6" points="195.665,-320.6251 200.6649,-318 195.6649,-315.3751 195.665,-320.6251"></polygon>
</g>
<!-- HWI -->
<g id="node59" class="node">
<title>HWI</title>
<polygon fill="#71809b" stroke="#000000" stroke-width="0" points="158,-248 0,-248 0,-176 158,-176 158,-248"></polygon>
<text text-anchor="middle" x="79" y="-219.2" font-family="Helvetica,Arial,sans-serif" font-size="24.00" fill="#000000">hardware</text>
<text text-anchor="middle" x="79" y="-190.4" font-family="Helvetica,Arial,sans-serif" font-size="24.00" fill="#000000">interfaces</text>
</g>
<!-- logical&#45;&gt;HWI -->
<g id="edge63" class="edge">
<title>logical-&gt;HWI</title>
<path fill="none" stroke="#6a9ab1" stroke-width="6" d="M79,-281.8173C79,-270.9018 79,-258.9245 79,-248.0196"></path>
</g>
<!-- G0 -->
<!-- HWI&#45;&gt;G0 -->
<g id="edge64" class="edge">
<title>HWI-&gt;G0</title>
<path fill="none" stroke="#71809b" stroke-width="6" d="M158.1094,-212C170.5214,-212 182.9334,-212 195.3455,-212"></path>
<polygon fill="#71809b" stroke="#71809b" stroke-width="6" points="195.665,-214.6251 200.6649,-212 195.6649,-209.3751 195.665,-214.6251"></polygon>
</g>
<!-- HW -->
<g id="node61" class="node">
<title>HW</title>
<polygon fill="#777777" stroke="#000000" stroke-width="0" points="158,-158 0,-158 0,-86 158,-86 158,-158"></polygon>
<text text-anchor="middle" x="79" y="-129.2" font-family="Helvetica,Arial,sans-serif" font-size="24.00" fill="#ffffff">electronics,</text>
<text text-anchor="middle" x="79" y="-100.4" font-family="Helvetica,Arial,sans-serif" font-size="24.00" fill="#ffffff">hardware</text>
</g>
<!-- HWI&#45;&gt;HW -->
<g id="edge65" class="edge">
<title>HWI-&gt;HW</title>
<path fill="none" stroke="#71809b" stroke-width="6" d="M79,-175.9121C79,-170.0437 79,-163.9646 79,-158.096"></path>
</g>
<!-- H0 -->
<!-- HW&#45;&gt;H0 -->
<g id="edge66" class="edge">
<title>HW-&gt;H0</title>
<path fill="none" stroke="#777777" stroke-width="6" d="M158.1094,-122C170.5214,-122 182.9334,-122 195.3455,-122"></path>
<polygon fill="#777777" stroke="#777777" stroke-width="6" points="195.665,-124.6251 200.6649,-122 195.6649,-119.3751 195.665,-124.6251"></polygon>
</g>
<!-- layers&#45;&gt;usr -->
<g id="edge67" class="edge">
<title>layers-&gt;usr</title>
<path fill="none" stroke="#c0c0c0" d="M79,-642.0701C79,-639.3495 79,-636.4567 79,-633.4871"></path>
<polygon fill="#c0c0c0" stroke="#c0c0c0" points="80.7501,-633.0794 79,-628.0794 77.2501,-633.0794 80.7501,-633.0794"></polygon>
</g>
<!-- LKD -->
<g id="node65" class="node">
<title>LKD</title>
<text text-anchor="middle" x="670" y="-761.8" font-family="Helvetica,Arial,sans-serif" font-size="40.00" fill="#000000">Linux kernel diagram</text>
</g>
<!-- LKD&#45;&gt;processing -->
</g>
</svg>
