<?xml version="1.0" encoding="UTF-8" standalone="no"?>
<!DOCTYPE svg PUBLIC "-//W3C//DTD SVG 1.1//EN"
 "http://www.w3.org/Graphics/SVG/1.1/DTD/svg11.dtd">
<!-- Generated by graphviz version 3.0.0 (0)
 -->
<!-- Title: G Pages: 1 -->
<svg width="182pt" height="182pt"
 viewBox="0.00 0.00 181.51 181.51" xmlns="http://www.w3.org/2000/svg" xmlns:xlink="http://www.w3.org/1999/xlink">
<g id="graph0" class="graph" transform="scale(1 1) rotate(0) translate(4 177.51)">
<title>G</title>
<polygon fill="transparent" stroke="transparent" points="-4,4 -4,-177.51 177.51,-177.51 177.51,4 -4,4"/>
<!-- 1 -->
<g id="node1" class="node">
<title>1</title>
<ellipse fill="none" stroke="black" cx="86.75" cy="-18" rx="18" ry="18"/>
<text text-anchor="middle" x="86.75" y="-14.3" font-family="Times,serif" font-size="14.00">1</text>
</g>
<!-- 2 -->
<g id="node2" class="node">
<title>2</title>
<ellipse fill="none" stroke="black" cx="18" cy="-86.75" rx="18" ry="18"/>
<text text-anchor="middle" x="18" y="-83.05" font-family="Times,serif" font-size="14.00">2</text>
</g>
<!-- 1&#45;&gt;2 -->
<g id="edge1" class="edge">
<title>1&#45;&gt;2</title>
<path fill="none" stroke="black" d="M73.82,-30.93C63.74,-41.02 49.56,-55.2 38.01,-66.74"/>
<polygon fill="black" stroke="black" points="35.47,-64.33 30.87,-73.88 40.42,-69.28 35.47,-64.33"/>
</g>
<!-- 3 -->
<g id="node3" class="node">
<title>3</title>
<ellipse fill="none" stroke="black" cx="86.75" cy="-155.51" rx="18" ry="18"/>
<text text-anchor="middle" x="86.75" y="-151.81" font-family="Times,serif" font-size="14.00">3</text>
</g>
<!-- 2&#45;&gt;3 -->
<g id="edge2" class="edge">
<title>2&#45;&gt;3</title>
<path fill="none" stroke="black" d="M30.93,-99.69C41.02,-109.77 55.2,-123.95 66.74,-135.5"/>
<polygon fill="black" stroke="black" points="64.33,-138.04 73.88,-142.64 69.28,-133.09 64.33,-138.04"/>
</g>
<!-- 4 -->
<g id="node4" class="node">
<title>4</title>
<ellipse fill="none" stroke="black" cx="155.51" cy="-86.75" rx="18" ry="18"/>
<text text-anchor="middle" x="155.51" y="-83.05" font-family="Times,serif" font-size="14.00">4</text>
</g>
<!-- 3&#45;&gt;4 -->
<g id="edge3" class="edge">
<title>3&#45;&gt;4</title>
<path fill="none" stroke="black" d="M99.69,-142.58C109.77,-132.49 123.95,-118.31 135.5,-106.77"/>
<polygon fill="black" stroke="black" points="138.04,-109.18 142.64,-99.63 133.09,-104.23 138.04,-109.18"/>
</g>
<!-- 4&#45;&gt;1 -->
<g id="edge4" class="edge">
<title>4&#45;&gt;1</title>
<path fill="none" stroke="black" d="M142.58,-73.82C132.49,-63.74 118.31,-49.56 106.77,-38.01"/>
<polygon fill="black" stroke="black" points="109.18,-35.47 99.63,-30.87 104.23,-40.42 109.18,-35.47"/>
</g>
</g>
</svg>
