<?xml version="1.0" encoding="UTF-8" standalone="no"?>
<!DOCTYPE svg PUBLIC "-//W3C//DTD SVG 1.1//EN"
 "http://www.w3.org/Graphics/SVG/1.1/DTD/svg11.dtd">
<!-- Generated by graphviz version 3.0.0 (0)
 -->
<!-- Title: G Pages: 1 -->
<svg width="184pt" height="115pt"
 viewBox="0.00 0.00 183.90 115.34" xmlns="http://www.w3.org/2000/svg" xmlns:xlink="http://www.w3.org/1999/xlink">
<g id="graph0" class="graph" transform="scale(1 1) rotate(0) translate(4 111.34)">
<title>G</title>
<polygon fill="transparent" stroke="transparent" points="-4,4 -4,-111.34 179.9,-111.34 179.9,4 -4,4"/>
<!-- 1 -->
<g id="node1" class="node">
<title>1</title>
<ellipse fill="none" stroke="black" cx="18" cy="-37.69" rx="18" ry="18"/>
<text text-anchor="middle" x="18" y="-33.99" font-family="Times,serif" font-size="14.00">1</text>
</g>
<!-- 2 -->
<g id="node2" class="node">
<title>2</title>
<ellipse fill="none" stroke="black" cx="90.81" cy="-46.14" rx="18" ry="18"/>
<text text-anchor="middle" x="90.81" y="-42.44" font-family="Times,serif" font-size="14.00">2</text>
</g>
<!-- 1&#45;&#45;2 -->
<g id="edge1" class="edge">
<title>1&#45;&#45;2</title>
<path fill="none" stroke="black" d="M36,-39.78C47.2,-41.08 61.56,-42.75 72.77,-44.05"/>
</g>
<!-- 3 -->
<g id="node3" class="node">
<title>3</title>
<ellipse fill="none" stroke="black" cx="157.9" cy="-18" rx="18" ry="18"/>
<text text-anchor="middle" x="157.9" y="-14.3" font-family="Times,serif" font-size="14.00">3</text>
</g>
<!-- 2&#45;&#45;3 -->
<g id="edge2" class="edge">
<title>2&#45;&#45;3</title>
<path fill="none" stroke="black" d="M107.74,-39.04C117.99,-34.74 131,-29.28 141.21,-25"/>
</g>
<!-- 4 -->
<g id="node4" class="node">
<title>4</title>
<ellipse fill="none" stroke="black" cx="149.36" cy="-89.34" rx="18" ry="18"/>
<text text-anchor="middle" x="149.36" y="-85.64" font-family="Times,serif" font-size="14.00">4</text>
</g>
<!-- 2&#45;&#45;4 -->
<g id="edge3" class="edge">
<title>2&#45;&#45;4</title>
<path fill="none" stroke="black" d="M105.59,-57.04C114.53,-63.64 125.89,-72.02 134.8,-78.59"/>
</g>
<!-- 3&#45;&#45;4 -->
<g id="edge4" class="edge">
<title>3&#45;&#45;4</title>
<path fill="none" stroke="black" d="M155.74,-36C154.46,-46.74 152.83,-60.32 151.54,-71.1"/>
</g>
</g>
</svg>
