<?xml version="1.0" encoding="UTF-8" standalone="no"?>
<!DOCTYPE svg PUBLIC "-//W3C//DTD SVG 1.1//EN"
 "http://www.w3.org/Graphics/SVG/1.1/DTD/svg11.dtd">
<!-- Generated by graphviz version 3.0.0 (0)
 -->
<!-- Title: G Pages: 1 -->
<svg width="152pt" height="164pt"
 viewBox="0.00 0.00 151.78 164.37" xmlns="http://www.w3.org/2000/svg" xmlns:xlink="http://www.w3.org/1999/xlink">
<g id="graph0" class="graph" transform="scale(1 1) rotate(0) translate(4 160.37)">
<title>G</title>
<polygon fill="transparent" stroke="transparent" points="-4,4 -4,-160.37 147.78,-160.37 147.78,4 -4,4"/>
<!-- 1 -->
<g id="node1" class="node">
<title>1</title>
<ellipse fill="none" stroke="black" cx="18" cy="-57.59" rx="18" ry="18"/>
<text text-anchor="middle" x="18" y="-53.89" font-family="Times,serif" font-size="14.00">1</text>
</g>
<!-- 2 -->
<g id="node2" class="node">
<title>2</title>
<ellipse fill="none" stroke="black" cx="105.15" cy="-66.82" rx="18" ry="18"/>
<text text-anchor="middle" x="105.15" y="-63.12" font-family="Times,serif" font-size="14.00">2</text>
</g>
<!-- 1&#45;&#45;2 -->
<g id="edge1" class="edge">
<title>1&#45;&#45;2</title>
<path fill="none" stroke="black" d="M36.06,-59.5C51.02,-61.09 72.17,-63.33 87.11,-64.91"/>
</g>
<!-- 3 -->
<g id="node3" class="node">
<title>3</title>
<ellipse fill="none" stroke="black" cx="65.34" cy="-18" rx="18" ry="18"/>
<text text-anchor="middle" x="65.34" y="-14.3" font-family="Times,serif" font-size="14.00">3</text>
</g>
<!-- 1&#45;&#45;3 -->
<g id="edge2" class="edge">
<title>1&#45;&#45;3</title>
<path fill="none" stroke="black" d="M31.95,-45.92C38.06,-40.81 45.21,-34.83 51.33,-29.72"/>
</g>
<!-- 4 -->
<g id="node4" class="node">
<title>4</title>
<ellipse fill="none" stroke="black" cx="59.05" cy="-105.4" rx="18" ry="18"/>
<text text-anchor="middle" x="59.05" y="-101.7" font-family="Times,serif" font-size="14.00">4</text>
</g>
<!-- 1&#45;&#45;4 -->
<g id="edge3" class="edge">
<title>1&#45;&#45;4</title>
<path fill="none" stroke="black" d="M29.87,-71.42C35.27,-77.71 41.65,-85.13 47.06,-91.44"/>
</g>
<!-- 2&#45;&#45;3 -->
<g id="edge4" class="edge">
<title>2&#45;&#45;3</title>
<path fill="none" stroke="black" d="M93.64,-52.7C88.4,-46.28 82.22,-38.7 76.97,-32.26"/>
</g>
<!-- 2&#45;&#45;4 -->
<g id="edge5" class="edge">
<title>2&#45;&#45;4</title>
<path fill="none" stroke="black" d="M91.07,-78.61C85.35,-83.39 78.76,-88.91 73.05,-93.69"/>
</g>
<!-- 5 -->
<g id="node5" class="node">
<title>5</title>
<ellipse fill="none" stroke="black" cx="125.78" cy="-138.37" rx="18" ry="18"/>
<text text-anchor="middle" x="125.78" y="-134.67" font-family="Times,serif" font-size="14.00">5</text>
</g>
<!-- 2&#45;&#45;5 -->
<g id="edge6" class="edge">
<title>2&#45;&#45;5</title>
<path fill="none" stroke="black" d="M110.14,-84.14C113.36,-95.31 117.53,-109.78 120.76,-120.96"/>
</g>
<!-- 3&#45;&#45;4 -->
<g id="edge7" class="edge">
<title>3&#45;&#45;4</title>
<path fill="none" stroke="black" d="M64.03,-36.11C62.96,-51.11 61.43,-72.32 60.35,-87.32"/>
</g>
<!-- 4&#45;&#45;5 -->
<g id="edge8" class="edge">
<title>4&#45;&#45;5</title>
<path fill="none" stroke="black" d="M75.2,-113.38C85.54,-118.49 98.91,-125.1 109.31,-130.23"/>
</g>
</g>
</svg>
