<?xml version="1.0" encoding="UTF-8" standalone="no"?>
<!DOCTYPE svg PUBLIC "-//W3C//DTD SVG 1.1//EN"
 "http://www.w3.org/Graphics/SVG/1.1/DTD/svg11.dtd">
<!-- Generated by graphviz version 3.0.0 (0)
 -->
<!-- Title: G Pages: 1 -->
<svg width="153pt" height="138pt"
 viewBox="0.00 0.00 153.36 138.25" xmlns="http://www.w3.org/2000/svg" xmlns:xlink="http://www.w3.org/1999/xlink">
<g id="graph0" class="graph" transform="scale(1 1) rotate(0) translate(4 134.25)">
<title>G</title>
<polygon fill="transparent" stroke="transparent" points="-4,4 -4,-134.25 149.36,-134.25 149.36,4 -4,4"/>
<!-- 1 -->
<g id="node1" class="node">
<title>1</title>
<ellipse fill="none" stroke="black" cx="18" cy="-53.59" rx="18" ry="18"/>
<text text-anchor="middle" x="18" y="-49.89" font-family="Times,serif" font-size="14.00">1</text>
</g>
<!-- 3 -->
<g id="node2" class="node">
<title>3</title>
<ellipse fill="none" stroke="black" cx="109.36" cy="-76.24" rx="18" ry="18"/>
<text text-anchor="middle" x="109.36" y="-72.54" font-family="Times,serif" font-size="14.00">3</text>
</g>
<!-- 1&#45;&gt;3 -->
<g id="edge1" class="edge">
<title>1&#45;&gt;3</title>
<path fill="none" stroke="black" d="M33.47,-62.95C46.41,-67.7 65.22,-72.66 80.88,-75.59"/>
<polygon fill="black" stroke="black" points="80.67,-79.1 91.1,-77.27 81.8,-72.19 80.67,-79.1"/>
</g>
<!-- 2 -->
<g id="node3" class="node">
<title>2</title>
<ellipse fill="none" stroke="black" cx="64.17" cy="-18" rx="18" ry="18"/>
<text text-anchor="middle" x="64.17" y="-14.3" font-family="Times,serif" font-size="14.00">2</text>
</g>
<!-- 1&#45;&gt;2 -->
<g id="edge2" class="edge">
<title>1&#45;&gt;2</title>
<path fill="none" stroke="black" d="M32.35,-42.53C35.28,-40.27 38.42,-37.85 41.55,-35.43"/>
<polygon fill="black" stroke="black" points="43.88,-38.06 49.66,-29.18 39.6,-32.52 43.88,-38.06"/>
</g>
<!-- 3&#45;&gt;1 -->
<g id="edge3" class="edge">
<title>3&#45;&gt;1</title>
<path fill="none" stroke="black" d="M93.89,-66.88C80.94,-62.13 62.14,-57.17 46.48,-54.24"/>
<polygon fill="black" stroke="black" points="46.69,-50.73 36.26,-52.57 45.56,-57.64 46.69,-50.73"/>
</g>
<!-- 3&#45;&gt;3 -->
<g id="edge4" class="edge">
<title>3&#45;&gt;3</title>
<path fill="none" stroke="black" d="M126.39,-82.62C136.21,-83.92 145.36,-81.8 145.36,-76.24 145.36,-72.77 141.79,-70.64 136.71,-69.84"/>
<polygon fill="black" stroke="black" points="136.38,-66.35 126.39,-69.86 136.4,-73.35 136.38,-66.35"/>
</g>
<!-- 4 -->
<g id="node4" class="node">
<title>4</title>
<ellipse fill="none" stroke="black" cx="63.48" cy="-112.25" rx="18" ry="18"/>
<text text-anchor="middle" x="63.48" y="-108.55" font-family="Times,serif" font-size="14.00">4</text>
</g>
<!-- 2&#45;&gt;4 -->
<g id="edge5" class="edge">
<title>2&#45;&gt;4</title>
<path fill="none" stroke="black" d="M64.03,-36.17C63.93,-49.73 63.8,-68.52 63.68,-84.02"/>
<polygon fill="black" stroke="black" points="60.18,-84.11 63.61,-94.13 67.18,-84.16 60.18,-84.11"/>
</g>
<!-- 4&#45;&gt;3 -->
<g id="edge6" class="edge">
<title>4&#45;&gt;3</title>
<path fill="none" stroke="black" d="M77.99,-100.86C80.89,-98.58 84,-96.14 87.1,-93.71"/>
<polygon fill="black" stroke="black" points="89.39,-96.37 95.09,-87.44 85.06,-90.86 89.39,-96.37"/>
</g>
</g>
</svg>
