<?xml version="1.0" encoding="UTF-8" standalone="no"?>
<!DOCTYPE svg PUBLIC "-//W3C//DTD SVG 1.1//EN"
 "http://www.w3.org/Graphics/SVG/1.1/DTD/svg11.dtd">
<!-- Generated by graphviz version 3.0.0 (0)
 -->
<!-- Title: G Pages: 1 -->
<svg width="116pt" height="106pt"
 viewBox="0.00 0.00 116.21 106.41" xmlns="http://www.w3.org/2000/svg" xmlns:xlink="http://www.w3.org/1999/xlink">
<g id="graph0" class="graph" transform="scale(1 1) rotate(0) translate(4 102.41)">
<title>G</title>
<polygon fill="transparent" stroke="transparent" points="-4,4 -4,-102.41 112.21,-102.41 112.21,4 -4,4"/>
<!-- 1 -->
<g id="node1" class="node">
<title>1</title>
<ellipse fill="none" stroke="black" cx="18" cy="-79.93" rx="18" ry="18"/>
<text text-anchor="middle" x="18" y="-76.23" font-family="Times,serif" font-size="14.00">1</text>
</g>
<!-- 2 -->
<g id="node2" class="node">
<title>2</title>
<ellipse fill="none" stroke="black" cx="90.21" cy="-80.41" rx="18" ry="18"/>
<text text-anchor="middle" x="90.21" y="-76.71" font-family="Times,serif" font-size="14.00">2</text>
</g>
<!-- 1&#45;&gt;2 -->
<g id="edge1" class="edge">
<title>1&#45;&gt;2</title>
<path fill="none" stroke="black" d="M36.22,-80.05C44,-80.1 53.27,-80.17 61.91,-80.22"/>
<polygon fill="black" stroke="black" points="61.97,-83.72 71.99,-80.29 62.01,-76.72 61.97,-83.72"/>
</g>
<!-- 3 -->
<g id="node3" class="node">
<title>3</title>
<ellipse fill="none" stroke="black" cx="54.59" cy="-18" rx="18" ry="18"/>
<text text-anchor="middle" x="54.59" y="-14.3" font-family="Times,serif" font-size="14.00">3</text>
</g>
<!-- 1&#45;&gt;3 -->
<g id="edge2" class="edge">
<title>1&#45;&gt;3</title>
<path fill="none" stroke="black" d="M31.7,-68.23C36.57,-61.67 41.84,-53.26 46.18,-45.18"/>
<polygon fill="black" stroke="black" points="49.44,-46.5 50.79,-35.99 43.18,-43.36 49.44,-46.5"/>
</g>
<!-- 3&#45;&gt;1 -->
<g id="edge3" class="edge">
<title>3&#45;&gt;1</title>
<path fill="none" stroke="black" d="M40.89,-29.71C36.02,-36.26 30.76,-44.68 26.41,-52.75"/>
<polygon fill="black" stroke="black" points="23.15,-51.43 21.8,-61.94 29.41,-54.57 23.15,-51.43"/>
</g>
<!-- 3&#45;&gt;2 -->
<g id="edge4" class="edge">
<title>3&#45;&gt;2</title>
<path fill="none" stroke="black" d="M63.58,-33.75C67.35,-40.35 71.82,-48.19 76.01,-55.53"/>
<polygon fill="black" stroke="black" points="73.1,-57.5 81.1,-64.45 79.18,-54.03 73.1,-57.5"/>
</g>
</g>
</svg>
