<?xml version="1.0" encoding="UTF-8" standalone="no"?>
<!DOCTYPE svg PUBLIC "-//W3C//DTD SVG 1.1//EN"
 "http://www.w3.org/Graphics/SVG/1.1/DTD/svg11.dtd">
<!-- Generated by graphviz version 3.0.0 (0)
 -->
<!-- Title: G Pages: 1 -->
<svg width="246pt" height="219pt"
 viewBox="0.00 0.00 246.17 219.30" xmlns="http://www.w3.org/2000/svg" xmlns:xlink="http://www.w3.org/1999/xlink">
<g id="graph0" class="graph" transform="scale(1 1) rotate(0) translate(4 215.3)">
<title>G</title>
<polygon fill="transparent" stroke="transparent" points="-4,4 -4,-215.3 242.17,-215.3 242.17,4 -4,4"/>
<!-- 0 -->
<g id="node1" class="node">
<title>0</title>
<ellipse fill="none" stroke="black" cx="63" cy="-26.04" rx="18" ry="18"/>
<text text-anchor="middle" x="63" y="-22.34" font-family="Times,serif" font-size="14.00">0</text>
</g>
<!-- 1 -->
<g id="node2" class="node">
<title>1</title>
<ellipse fill="none" stroke="black" cx="63" cy="-115.36" rx="18" ry="18"/>
<text text-anchor="middle" x="63" y="-111.66" font-family="Times,serif" font-size="14.00">1</text>
</g>
<!-- 0&#45;&#45;1 -->
<g id="edge1" class="edge">
<title>0&#45;&#45;1</title>
<path fill="none" stroke="black" d="M63,-44.12C63,-59.61 63,-81.82 63,-97.31"/>
</g>
<!-- 2 -->
<g id="node3" class="node">
<title>2</title>
<ellipse fill="none" stroke="black" cx="140.35" cy="-70.7" rx="18" ry="18"/>
<text text-anchor="middle" x="140.35" y="-67" font-family="Times,serif" font-size="14.00">2</text>
</g>
<!-- 0&#45;&#45;2 -->
<g id="edge2" class="edge">
<title>0&#45;&#45;2</title>
<path fill="none" stroke="black" d="M78.65,-35.08C92.07,-42.83 111.31,-53.93 124.72,-61.68"/>
</g>
<!-- 1&#45;&#45;2 -->
<g id="edge3" class="edge">
<title>1&#45;&#45;2</title>
<path fill="none" stroke="black" d="M78.65,-106.32C92.07,-98.57 111.31,-87.47 124.72,-79.72"/>
</g>
<!-- 5 -->
<g id="node4" class="node">
<title>5</title>
<ellipse fill="none" stroke="black" cx="18" cy="-193.3" rx="18" ry="18"/>
<text text-anchor="middle" x="18" y="-189.6" font-family="Times,serif" font-size="14.00">5</text>
</g>
<!-- 1&#45;&#45;5 -->
<g id="edge4" class="edge">
<title>1&#45;&#45;5</title>
<path fill="none" stroke="black" d="M53.89,-131.13C46.09,-144.65 34.9,-164.03 27.09,-177.55"/>
</g>
<!-- 3 -->
<g id="node5" class="node">
<title>3</title>
<ellipse fill="none" stroke="black" cx="220.17" cy="-18" rx="18" ry="18"/>
<text text-anchor="middle" x="220.17" y="-14.3" font-family="Times,serif" font-size="14.00">3</text>
</g>
<!-- 2&#45;&#45;3 -->
<g id="edge5" class="edge">
<title>2&#45;&#45;3</title>
<path fill="none" stroke="black" d="M155.74,-60.54C169.97,-51.15 190.98,-37.28 205.1,-27.95"/>
</g>
<!-- 4 -->
<g id="node6" class="node">
<title>4</title>
<ellipse fill="none" stroke="black" cx="220.17" cy="-123.4" rx="18" ry="18"/>
<text text-anchor="middle" x="220.17" y="-119.7" font-family="Times,serif" font-size="14.00">4</text>
</g>
<!-- 2&#45;&#45;4 -->
<g id="edge6" class="edge">
<title>2&#45;&#45;4</title>
<path fill="none" stroke="black" d="M155.74,-80.86C169.97,-90.25 190.98,-104.12 205.1,-113.45"/>
</g>
</g>
</svg>
