<?xml version="1.0" encoding="UTF-8" standalone="no"?>
<!DOCTYPE svg PUBLIC "-//W3C//DTD SVG 1.1//EN"
 "http://www.w3.org/Graphics/SVG/1.1/DTD/svg11.dtd">
<!-- Generated by graphviz version 2.40.1 (20161225.0304)
 -->
<!-- Title: G Pages: 1 -->
<svg width="251pt" height="223pt"
 viewBox="0.00 0.00 251.22 223.29" xmlns="http://www.w3.org/2000/svg" xmlns:xlink="http://www.w3.org/1999/xlink">
<g id="graph0" class="graph" transform="scale(1 1) rotate(0) translate(4 219.2868)">
<title>G</title>
<polygon fill="transparent" stroke="transparent" points="-4,4 -4,-219.2868 247.221,-219.2868 247.221,4 -4,4"/>
<!-- A -->
<g id="node1" class="node">
<title>A</title>
<ellipse fill="none" stroke="#000000" cx="173.4653" cy="-18" rx="18" ry="18"/>
<text text-anchor="middle" x="173.4653" y="-14.3" font-family="Times,serif" font-size="14.00" fill="#000000">A</text>
</g>
<!-- B -->
<g id="node2" class="node">
<title>B</title>
<ellipse fill="none" stroke="#000000" cx="69.954" cy="-18" rx="18" ry="18"/>
<text text-anchor="middle" x="69.954" y="-14.3" font-family="Times,serif" font-size="14.00" fill="#000000">B</text>
</g>
<!-- A&#45;&gt;B -->
<g id="edge1" class="edge">
<title>A&#45;&gt;B</title>
<path fill="none" stroke="#000000" d="M155.435,-18C139.6501,-18 116.4518,-18 98.2037,-18"/>
<polygon fill="#000000" stroke="#000000" points="98.125,-14.4999 88.125,-18 98.125,-21.4999 98.125,-14.4999"/>
</g>
<!-- C -->
<g id="node3" class="node">
<title>C</title>
<ellipse fill="none" stroke="#000000" cx="69.954" cy="-197.2868" rx="18" ry="18"/>
<text text-anchor="middle" x="69.954" y="-193.5868" font-family="Times,serif" font-size="14.00" fill="#000000">C</text>
</g>
<!-- A&#45;&gt;C -->
<g id="edge2" class="edge">
<title>A&#45;&gt;C</title>
<path fill="none" stroke="#000000" d="M164.4605,-33.5969C146.4135,-64.8551 105.6996,-135.3738 84.0733,-172.8315"/>
<polygon fill="#000000" stroke="#000000" points="80.9807,-171.188 79.0118,-181.5983 87.0429,-174.6881 80.9807,-171.188"/>
</g>
<!-- B&#45;&gt;C -->
<g id="edge3" class="edge">
<title>B&#45;&gt;C</title>
<path fill="none" stroke="#000000" d="M69.954,-36.1776C69.954,-67.4533 69.954,-131.6634 69.954,-168.885"/>
<polygon fill="#000000" stroke="#000000" points="66.4541,-169.061 69.954,-179.0611 73.4541,-169.0611 66.4541,-169.061"/>
</g>
<!-- D -->
<g id="node4" class="node">
<title>D</title>
<ellipse fill="none" stroke="#000000" cx="18.1984" cy="-107.6434" rx="18.399" ry="18.399"/>
<text text-anchor="middle" x="18.1984" y="-103.9434" font-family="Times,serif" font-size="14.00" fill="#000000">D</text>
</g>
<!-- B&#45;&gt;D -->
<g id="edge4" class="edge">
<title>B&#45;&gt;D</title>
<path fill="none" stroke="#000000" d="M60.9389,-33.6147C53.0948,-47.201 41.5895,-67.1289 32.4914,-82.8871"/>
<polygon fill="#000000" stroke="#000000" points="29.4277,-81.1937 27.4587,-91.604 35.4899,-84.6938 29.4277,-81.1937"/>
</g>
<!-- C&#45;&gt;D -->
<g id="edge5" class="edge">
<title>C&#45;&gt;D</title>
<path fill="none" stroke="#000000" d="M60.9389,-181.6721C53.0948,-168.0858 41.5895,-148.158 32.4914,-132.3997"/>
<polygon fill="#000000" stroke="#000000" points="35.4899,-130.593 27.4587,-123.6828 29.4277,-134.0931 35.4899,-130.593"/>
</g>
<!-- E -->
<g id="node5" class="node">
<title>E</title>
<ellipse fill="none" stroke="#000000" cx="173.4653" cy="-197.2868" rx="18" ry="18"/>
<text text-anchor="middle" x="173.4653" y="-193.5868" font-family="Times,serif" font-size="14.00" fill="#000000">E</text>
</g>
<!-- C&#45;&gt;E -->
<g id="edge6" class="edge">
<title>C&#45;&gt;E</title>
<path fill="none" stroke="#000000" d="M87.9843,-197.2868C103.7693,-197.2868 126.9675,-197.2868 145.2156,-197.2868"/>
<polygon fill="#000000" stroke="#000000" points="145.2944,-200.7869 155.2943,-197.2868 145.2943,-193.7869 145.2944,-200.7869"/>
</g>
<!-- D&#45;&gt;E -->
<g id="edge7" class="edge">
<title>D&#45;&gt;E</title>
<path fill="none" stroke="#000000" d="M34.2299,-116.8992C61.4506,-132.6151 116.8717,-164.6125 148.9761,-183.148"/>
<polygon fill="#000000" stroke="#000000" points="147.342,-186.2459 157.7523,-188.2149 150.842,-180.1838 147.342,-186.2459"/>
</g>
<!-- F -->
<g id="node6" class="node">
<title>F</title>
<ellipse fill="none" stroke="#000000" cx="225.221" cy="-107.6434" rx="18" ry="18"/>
<text text-anchor="middle" x="225.221" y="-103.9434" font-family="Times,serif" font-size="14.00" fill="#000000">F</text>
</g>
<!-- E&#45;&gt;F -->
<g id="edge8" class="edge">
<title>E&#45;&gt;F</title>
<path fill="none" stroke="#000000" d="M182.4805,-181.6721C190.373,-168.0019 201.9721,-147.9117 211.0961,-132.1084"/>
<polygon fill="#000000" stroke="#000000" points="214.1665,-133.7902 216.1355,-123.3799 208.1043,-130.2902 214.1665,-133.7902"/>
</g>
<!-- F&#45;&gt;C -->
<g id="edge9" class="edge">
<title>F&#45;&gt;C</title>
<path fill="none" stroke="#000000" d="M209.4787,-116.7322C182.3932,-132.3701 126.7855,-164.4751 94.5507,-183.0859"/>
<polygon fill="#000000" stroke="#000000" points="92.6482,-180.1428 85.738,-188.1739 96.1483,-186.205 92.6482,-180.1428"/>
</g>
</g>
</svg>
