<?xml version="1.0" encoding="UTF-8" standalone="no"?>
<!DOCTYPE svg PUBLIC "-//W3C//DTD SVG 1.1//EN"
 "http://www.w3.org/Graphics/SVG/1.1/DTD/svg11.dtd">
<!-- Generated by graphviz version 2.40.1 (20161225.0304)
 -->
<!-- Title: a Pages: 1 -->
<svg width="287pt" height="268pt"
 viewBox="0.00 0.00 286.75 268.41" xmlns="http://www.w3.org/2000/svg" xmlns:xlink="http://www.w3.org/1999/xlink">
<g id="graph0" class="graph" transform="scale(1 1) rotate(0) translate(4 264.4126)">
<title>a</title>
<polygon fill="#ffffff" stroke="transparent" points="-4,4 -4,-264.4126 282.7549,-264.4126 282.7549,4 -4,4"/>
<!-- 1 -->
<g id="node1" class="node">
<title>1</title>
<ellipse fill="none" stroke="#000000" cx="152.7549" cy="-32.7549" rx="18" ry="18"/>
<text text-anchor="middle" x="152.7549" y="-29.0549" font-family="Times,serif" font-size="14.00" fill="#000000">1</text>
</g>
<!-- 2 -->
<g id="node2" class="node">
<title>2</title>
<ellipse fill="none" stroke="#000000" cx="260.7549" cy="-32.7549" rx="18" ry="18"/>
<text text-anchor="middle" x="260.7549" y="-29.0549" font-family="Times,serif" font-size="14.00" fill="#000000">2</text>
</g>
<!-- 1&#45;&#45;2 -->
<g id="edge1" class="edge">
<title>1&#45;&#45;2</title>
<path fill="none" stroke="#000000" d="M171.0757,-32.7549C191.0559,-32.7549 222.8318,-32.7549 242.7048,-32.7549"/>
</g>
<!-- a -->
<g id="node3" class="node">
<title>a</title>
<ellipse fill="none" stroke="#000000" cx="167.9718" cy="-153.0973" rx="18" ry="18"/>
<text text-anchor="middle" x="167.9718" y="-149.3973" font-family="Times,serif" font-size="14.00" fill="#000000">1</text>
</g>
<!-- b -->
<g id="node4" class="node">
<title>b</title>
<ellipse fill="none" stroke="#000000" cx="167.9718" cy="-242.4126" rx="18" ry="18"/>
<text text-anchor="middle" x="167.9718" y="-238.7126" font-family="Times,serif" font-size="14.00" fill="#000000">2</text>
</g>
<!-- a&#45;&#45;b -->
<g id="edge2" class="edge">
<title>a&#45;&#45;b</title>
<path fill="none" stroke="#000000" d="M167.9718,-171.1716C167.9718,-186.6674 167.9718,-208.8771 167.9718,-224.3652"/>
</g>
<!-- c -->
<g id="node5" class="node">
<title>c</title>
<ellipse fill="none" stroke="#000000" cx="245.3211" cy="-197.7549" rx="18" ry="18"/>
<text text-anchor="middle" x="245.3211" y="-194.0549" font-family="Times,serif" font-size="14.00" fill="#000000">3</text>
</g>
<!-- b&#45;&#45;c -->
<g id="edge3" class="edge">
<title>b&#45;&#45;c</title>
<path fill="none" stroke="#000000" d="M183.6246,-233.3754C197.0444,-225.6275 216.2786,-214.5226 229.6916,-206.7786"/>
</g>
<!-- c&#45;&#45;a -->
<g id="edge4" class="edge">
<title>c&#45;&#45;a</title>
<path fill="none" stroke="#000000" d="M229.6684,-188.7178C216.2486,-180.9699 197.0144,-169.865 183.6013,-162.121"/>
</g>
<!-- 4 -->
<g id="node6" class="node">
<title>4</title>
<ellipse fill="none" stroke="#000000" cx="86.7549" cy="-18" rx="18" ry="18"/>
<text text-anchor="middle" x="86.7549" y="-14.3" font-family="Times,serif" font-size="14.00" fill="#000000">1</text>
</g>
<!-- 5 -->
<g id="node7" class="node">
<title>5</title>
<ellipse fill="none" stroke="#000000" cx="155.5099" cy="-86.7549" rx="18" ry="18"/>
<text text-anchor="middle" x="155.5099" y="-83.0549" font-family="Times,serif" font-size="14.00" fill="#000000">2</text>
</g>
<!-- 4&#45;&#45;5 -->
<g id="edge5" class="edge">
<title>4&#45;&#45;5</title>
<path fill="none" stroke="#000000" d="M99.6872,-30.9323C111.9795,-43.2246 130.3625,-61.6076 142.6356,-73.8806"/>
</g>
<!-- 6 -->
<g id="node8" class="node">
<title>6</title>
<ellipse fill="none" stroke="#000000" cx="86.7549" cy="-155.5099" rx="18" ry="18"/>
<text text-anchor="middle" x="86.7549" y="-151.8099" font-family="Times,serif" font-size="14.00" fill="#000000">3</text>
</g>
<!-- 4&#45;&#45;6 -->
<g id="edge6" class="edge">
<title>4&#45;&#45;6</title>
<path fill="none" stroke="#000000" d="M86.7549,-36.2602C86.7549,-62.5609 86.7549,-110.8315 86.7549,-137.1741"/>
</g>
<!-- 7 -->
<g id="node9" class="node">
<title>7</title>
<ellipse fill="none" stroke="#000000" cx="18" cy="-86.7549" rx="18" ry="18"/>
<text text-anchor="middle" x="18" y="-83.0549" font-family="Times,serif" font-size="14.00" fill="#000000">4</text>
</g>
<!-- 4&#45;&#45;7 -->
<g id="edge7" class="edge">
<title>4&#45;&#45;7</title>
<path fill="none" stroke="#000000" d="M73.8227,-30.9323C61.5304,-43.2246 43.1474,-61.6076 30.8743,-73.8806"/>
</g>
<!-- 5&#45;&#45;6 -->
<g id="edge8" class="edge">
<title>5&#45;&#45;6</title>
<path fill="none" stroke="#000000" d="M142.5776,-99.6872C130.2853,-111.9795 111.9023,-130.3625 99.6292,-142.6356"/>
</g>
<!-- 5&#45;&#45;7 -->
<g id="edge9" class="edge">
<title>5&#45;&#45;7</title>
<path fill="none" stroke="#000000" d="M137.2496,-86.7549C110.949,-86.7549 62.6784,-86.7549 36.3358,-86.7549"/>
</g>
<!-- 6&#45;&#45;7 -->
<g id="edge10" class="edge">
<title>6&#45;&#45;7</title>
<path fill="none" stroke="#000000" d="M73.8227,-142.5776C61.5304,-130.2853 43.1474,-111.9023 30.8743,-99.6292"/>
</g>
</g>
</svg>
