<?xml version="1.0" encoding="UTF-8" standalone="no"?>
<!DOCTYPE svg PUBLIC "-//W3C//DTD SVG 1.1//EN"
 "http://www.w3.org/Graphics/SVG/1.1/DTD/svg11.dtd">
<!-- Generated by graphviz version 2.40.1 (20161225.0304)
 -->
<!-- Title: G Pages: 1 -->
<svg width="424pt" height="536pt"
 viewBox="0.00 0.00 423.68 536.46" xmlns="http://www.w3.org/2000/svg" xmlns:xlink="http://www.w3.org/1999/xlink">
<g id="graph0" class="graph" transform="scale(1 1) rotate(0) translate(4 532.4591)">
<title>G</title>
<polygon fill="transparent" stroke="transparent" points="-4,4 -4,-532.4591 419.6812,-532.4591 419.6812,4 -4,4"/>
<!-- New -->
<g id="node1" class="node">
<title>New</title>
<ellipse fill="#d3d3d3" stroke="#000000" cx="62.4009" cy="-18" rx="31.6951" ry="18"/>
<text text-anchor="middle" x="62.4009" y="-14.3" font-family="Times,serif" font-size="14.00" fill="#000000">New</text>
</g>
<!-- Ready -->
<g id="node2" class="node">
<title>Ready</title>
<ellipse fill="#d3d3d3" stroke="#000000" cx="100.274" cy="-158.466" rx="39.7935" ry="18"/>
<text text-anchor="middle" x="100.274" y="-154.766" font-family="Times,serif" font-size="14.00" fill="#000000">Ready</text>
</g>
<!-- New&#45;&gt;Ready -->
<g id="edge1" class="edge">
<title>New&#45;&gt;Ready</title>
<path fill="none" stroke="#000000" d="M67.2747,-36.0759C73.723,-59.9918 85.1554,-102.3931 92.7253,-130.4689"/>
<polygon fill="#000000" stroke="#000000" points="89.4364,-131.7154 95.419,-140.4594 96.195,-129.8931 89.4364,-131.7154"/>
<text text-anchor="middle" x="40" y="-87.0724" font-family="Times,serif" font-size="14.00" fill="#000000">Copie RAM</text>
</g>
<!-- Running -->
<g id="node4" class="node">
<title>Running</title>
<ellipse fill="#d3d3d3" stroke="#000000" cx="202.4226" cy="-350.8058" rx="50.0912" ry="18"/>
<text text-anchor="middle" x="202.4226" y="-347.1058" font-family="Times,serif" font-size="14.00" fill="#000000">Running</text>
</g>
<!-- Ready&#45;&gt;Running -->
<g id="edge3" class="edge">
<title>Ready&#45;&gt;Running</title>
<path fill="none" stroke="#000000" d="M105.3225,-176.3847C119.6579,-210.5452 158.7793,-284.9308 182.9119,-324.6479"/>
<polygon fill="#000000" stroke="#000000" points="180.0119,-326.6125 188.2597,-333.2627 185.9592,-322.9206 180.0119,-326.6125"/>
<text text-anchor="middle" x="114.6172" y="-254.3163" font-family="Times,serif" font-size="14.00" fill="#000000">Élection</text>
</g>
<!-- Blocked -->
<g id="node3" class="node">
<title>Blocked</title>
<ellipse fill="#d3d3d3" stroke="#000000" cx="67.3161" cy="-299.6215" rx="47.3916" ry="18"/>
<text text-anchor="middle" x="67.3161" y="-295.9215" font-family="Times,serif" font-size="14.00" fill="#000000">Blocked</text>
</g>
<!-- Blocked&#45;&gt;Ready -->
<g id="edge2" class="edge">
<title>Blocked&#45;&gt;Ready</title>
<path fill="none" stroke="#000000" d="M71.5573,-281.4569C77.1688,-257.4235 87.1175,-214.8142 93.705,-186.6005"/>
<polygon fill="#000000" stroke="#000000" points="97.1837,-187.0948 96.0491,-176.5609 90.367,-185.5031 97.1837,-187.0948"/>
<text text-anchor="middle" x="58.1312" y="-237.8287" font-family="Times,serif" font-size="14.00" fill="#000000">Fin ES</text>
</g>
<!-- Running&#45;&gt;Ready -->
<g id="edge5" class="edge">
<title>Running&#45;&gt;Ready</title>
<path fill="none" stroke="#000000" d="M197.3741,-332.887C182.9954,-298.6232 143.6804,-223.8905 119.5661,-184.2643"/>
<polygon fill="#000000" stroke="#000000" points="122.3357,-182.0905 114.0802,-175.4498 116.3927,-185.7892 122.3357,-182.0905"/>
<text text-anchor="middle" x="202.4701" y="-262.3757" font-family="Times,serif" font-size="14.00" fill="#000000">Interruption</text>
</g>
<!-- Running&#45;&gt;Blocked -->
<g id="edge4" class="edge">
<title>Running&#45;&gt;Blocked</title>
<path fill="none" stroke="#000000" d="M167.6293,-337.6246C150.1854,-331.016 128.896,-322.9507 110.4249,-315.9531"/>
<polygon fill="#000000" stroke="#000000" points="111.6494,-312.6742 101.058,-312.4044 109.1694,-319.2202 111.6494,-312.6742"/>
<text text-anchor="middle" x="100.0271" y="-330.5888" font-family="Times,serif" font-size="14.00" fill="#000000">Attente ES</text>
</g>
<!-- Terminated -->
<g id="node5" class="node">
<title>Terminated</title>
<ellipse fill="#d3d3d3" stroke="#000000" cx="351.9869" cy="-510.4591" rx="63.8893" ry="18"/>
<text text-anchor="middle" x="351.9869" y="-506.7591" font-family="Times,serif" font-size="14.00" fill="#000000">Terminated</text>
</g>
<!-- Running&#45;&gt;Terminated -->
<g id="edge6" class="edge">
<title>Running&#45;&gt;Terminated</title>
<path fill="none" stroke="#000000" d="M218.4286,-367.8915C244.9394,-396.1907 298.0732,-452.9087 328.7285,-485.6318"/>
<polygon fill="#000000" stroke="#000000" points="326.2515,-488.1072 335.6425,-493.0123 331.3601,-483.3215 326.2515,-488.1072"/>
<text text-anchor="middle" x="236.5785" y="-430.5617" font-family="Times,serif" font-size="14.00" fill="#000000">Libération</text>
</g>
</g>
</svg>
