<?xml version="1.0" encoding="UTF-8" standalone="no"?>
<!DOCTYPE svg PUBLIC "-//W3C//DTD SVG 1.1//EN"
 "http://www.w3.org/Graphics/SVG/1.1/DTD/svg11.dtd">
<!-- Generated by graphviz version 3.0.0 (0)
 -->
<!-- Pages: 1 -->
<svg width="255pt" height="400pt"
 viewBox="0.00 0.00 254.51 400.09" xmlns="http://www.w3.org/2000/svg" xmlns:xlink="http://www.w3.org/1999/xlink">
<g id="graph0" class="graph" transform="scale(1 1) rotate(0) translate(4 396.09)">
<polygon fill="white" stroke="transparent" points="-4,4 -4,-396.09 250.51,-396.09 250.51,4 -4,4"/>
<!-- n -->
<g id="node1" class="node">
<title>n</title>
<ellipse fill="none" stroke="black" cx="124.18" cy="-239.09" rx="27" ry="18"/>
<text text-anchor="middle" x="124.18" y="-235.39" font-family="Times,serif" font-size="14.00">r</text>
</g>
<!-- g -->
<g id="node2" class="node">
<title>g</title>
<ellipse fill="none" stroke="black" cx="133.95" cy="-317.1" rx="27" ry="18"/>
<text text-anchor="middle" x="133.95" y="-313.4" font-family="Times,serif" font-size="14.00">g</text>
</g>
<!-- n&#45;&#45;g -->
<g id="edge1" class="edge">
<title>n&#45;&#45;g</title>
<path fill="none" stroke="black" d="M126.44,-257.18C128.02,-269.79 130.12,-286.53 131.69,-299.11"/>
</g>
<!-- d -->
<g id="node3" class="node">
<title>d</title>
<ellipse fill="none" stroke="black" cx="107.3" cy="-161.16" rx="27" ry="18"/>
<text text-anchor="middle" x="107.3" y="-157.46" font-family="Times,serif" font-size="14.00">d</text>
</g>
<!-- n&#45;&#45;d -->
<g id="edge2" class="edge">
<title>n&#45;&#45;d</title>
<path fill="none" stroke="black" d="M120.26,-221.01C117.54,-208.43 113.92,-191.7 111.19,-179.14"/>
</g>
<!-- gg -->
<g id="node4" class="node">
<title>gg</title>
<polygon fill="none" stroke="black" points="96.93,-392.09 60.93,-392.09 60.93,-356.09 96.93,-356.09 96.93,-392.09"/>
<text text-anchor="middle" x="78.93" y="-370.39" font-family="Times,serif" font-size="14.00">nil</text>
</g>
<!-- g&#45;&#45;gg -->
<g id="edge3" class="edge">
<title>g&#45;&#45;gg</title>
<path fill="none" stroke="black" d="M119.2,-332.37C112.2,-339.63 103.78,-348.35 96.45,-355.94"/>
</g>
<!-- gd -->
<g id="node5" class="node">
<title>gd</title>
<polygon fill="none" stroke="black" points="218.36,-378.09 182.36,-378.09 182.36,-342.09 218.36,-342.09 218.36,-378.09"/>
<text text-anchor="middle" x="200.36" y="-356.39" font-family="Times,serif" font-size="14.00">nil</text>
</g>
<!-- g&#45;&#45;gd -->
<g id="edge4" class="edge">
<title>g&#45;&#45;gd</title>
<path fill="none" stroke="black" d="M153.51,-329.77C162.54,-335.61 173.2,-342.51 182.07,-348.25"/>
</g>
<!-- dg -->
<g id="node6" class="node">
<title>dg</title>
<ellipse fill="none" stroke="black" cx="27" cy="-146.9" rx="27" ry="18"/>
<text text-anchor="middle" x="27" y="-143.2" font-family="Times,serif" font-size="14.00">dg</text>
</g>
<!-- d&#45;&#45;dg -->
<g id="edge5" class="edge">
<title>d&#45;&#45;dg</title>
<path fill="none" stroke="black" d="M81.01,-156.49C72.13,-154.91 62.23,-153.15 53.35,-151.58"/>
</g>
<!-- dd -->
<g id="node7" class="node">
<title>dd</title>
<ellipse fill="none" stroke="black" cx="152.44" cy="-92.66" rx="27" ry="18"/>
<text text-anchor="middle" x="152.44" y="-88.96" font-family="Times,serif" font-size="14.00">dd</text>
</g>
<!-- d&#45;&#45;dd -->
<g id="edge6" class="edge">
<title>d&#45;&#45;dd</title>
<path fill="none" stroke="black" d="M118.23,-144.58C125.22,-133.97 134.27,-120.24 141.3,-109.57"/>
</g>
<!-- ddg -->
<g id="node8" class="node">
<title>ddg</title>
<polygon fill="none" stroke="black" points="143.11,-36 107.11,-36 107.11,0 143.11,0 143.11,-36"/>
<text text-anchor="middle" x="125.11" y="-14.3" font-family="Times,serif" font-size="14.00">nil</text>
</g>
<!-- dd&#45;&#45;ddg -->
<g id="edge7" class="edge">
<title>dd&#45;&#45;ddg</title>
<path fill="none" stroke="black" d="M145.97,-74.97C141.67,-63.24 136.05,-47.89 131.73,-36.09"/>
</g>
<!-- ddd -->
<g id="node9" class="node">
<title>ddd</title>
<polygon fill="none" stroke="black" points="246.51,-88.13 210.51,-88.13 210.51,-52.13 246.51,-52.13 246.51,-88.13"/>
<text text-anchor="middle" x="228.51" y="-66.43" font-family="Times,serif" font-size="14.00">nil</text>
</g>
<!-- dd&#45;&#45;ddd -->
<g id="edge8" class="edge">
<title>dd&#45;&#45;ddd</title>
<path fill="none" stroke="black" d="M177.35,-85.28C188.1,-82.1 200.44,-78.44 210.3,-75.52"/>
</g>
</g>
</svg>
