<?xml version="1.0" encoding="UTF-8" standalone="no"?>
<!DOCTYPE svg PUBLIC "-//W3C//DTD SVG 1.1//EN"
 "http://www.w3.org/Graphics/SVG/1.1/DTD/svg11.dtd">
<!-- Generated by graphviz version 3.0.0 (0)
 -->
<!-- Title: probability_tree Pages: 1 -->
<svg width="402pt" height="422pt"
 viewBox="0.00 0.00 401.72 422.00" xmlns="http://www.w3.org/2000/svg" xmlns:xlink="http://www.w3.org/1999/xlink">
<g id="graph0" class="graph" transform="scale(1 1) rotate(0) translate(4 418)">
<title>probability_tree</title>
<polygon fill="white" stroke="transparent" points="-4,4 -4,-418 397.72,-418 397.72,4 -4,4"/>
<!-- Univers -->
<g id="node1" class="node">
<title>Univers</title>
<ellipse fill="black" stroke="black" cx="0.36" cy="-217" rx="0.36" ry="0.36"/>
</g>
<!-- S -->
<g id="node2" class="node">
<title>S</title>
<text text-anchor="middle" x="92.72" y="-267.3" font-family="Times,serif" font-size="14.00">Succès</text>
</g>
<!-- Univers&#45;&#45;S -->
<g id="edge1" class="edge">
<title>Univers&#45;&#45;S</title>
<path fill="none" stroke="black" d="M0.79,-217.04C2.45,-218.03 35.44,-237.6 61.2,-252.89"/>
<text text-anchor="middle" x="30.22" y="-243.8" font-family="Times,serif" font-size="14.00">p</text>
</g>
<!-- E -->
<g id="node3" class="node">
<title>E</title>
<text text-anchor="middle" x="92.72" y="-159.3" font-family="Times,serif" font-size="14.00">Échec</text>
</g>
<!-- Univers&#45;&#45;E -->
<g id="edge2" class="edge">
<title>Univers&#45;&#45;E</title>
<path fill="none" stroke="black" d="M0.79,-216.96C2.5,-215.95 37.16,-195.38 63.18,-179.93"/>
<text text-anchor="middle" x="30.22" y="-208.8" font-family="Times,serif" font-size="14.00">1&#45;p</text>
</g>
<!-- S1 -->
<g id="node4" class="node">
<title>S1</title>
<text text-anchor="middle" x="226.72" y="-338.3" font-family="Times,serif" font-size="14.00">Succès</text>
</g>
<!-- S&#45;&#45;S1 -->
<g id="edge3" class="edge">
<title>S&#45;&#45;S1</title>
<path fill="none" stroke="black" d="M126.01,-288.37C146.47,-299.37 172.83,-313.55 193.31,-324.56"/>
<text text-anchor="middle" x="159.72" y="-317.8" font-family="Times,serif" font-size="14.00">p</text>
</g>
<!-- E1 -->
<g id="node5" class="node">
<title>E1</title>
<text text-anchor="middle" x="226.72" y="-267.3" font-family="Times,serif" font-size="14.00">Échec</text>
</g>
<!-- S&#45;&#45;E1 -->
<g id="edge4" class="edge">
<title>S&#45;&#45;E1</title>
<path fill="none" stroke="black" d="M126.01,-271C147.69,-271 175.99,-271 196.91,-271"/>
<text text-anchor="middle" x="159.72" y="-274.8" font-family="Times,serif" font-size="14.00">1 &#45; p</text>
</g>
<!-- S2 -->
<g id="node6" class="node">
<title>S2</title>
<text text-anchor="middle" x="226.72" y="-159.3" font-family="Times,serif" font-size="14.00">Succès</text>
</g>
<!-- E&#45;&#45;S2 -->
<g id="edge5" class="edge">
<title>E&#45;&#45;S2</title>
<path fill="none" stroke="black" d="M122.36,-163C143.29,-163 171.69,-163 193.42,-163"/>
<text text-anchor="middle" x="159.72" y="-166.8" font-family="Times,serif" font-size="14.00">p</text>
</g>
<!-- E2 -->
<g id="node7" class="node">
<title>E2</title>
<text text-anchor="middle" x="226.72" y="-68.3" font-family="Times,serif" font-size="14.00">Échec</text>
</g>
<!-- E&#45;&#45;E2 -->
<g id="edge6" class="edge">
<title>E&#45;&#45;E2</title>
<path fill="none" stroke="black" d="M120.11,-144.8C143.14,-128.93 176.36,-106.03 199.37,-90.16"/>
<text text-anchor="middle" x="159.72" y="-131.8" font-family="Times,serif" font-size="14.00">1 &#45; p</text>
</g>
<!-- S3 -->
<g id="node8" class="node">
<title>S3</title>
<text text-anchor="middle" x="360.72" y="-392.3" font-family="Times,serif" font-size="14.00">Succès</text>
</g>
<!-- S1&#45;&#45;S3 -->
<g id="edge7" class="edge">
<title>S1&#45;&#45;S3</title>
<path fill="none" stroke="black" d="M260.01,-355.21C280.47,-363.58 306.83,-374.36 327.31,-382.74"/>
<text text-anchor="middle" x="293.72" y="-378.8" font-family="Times,serif" font-size="14.00">p</text>
</g>
<!-- E3 -->
<g id="node9" class="node">
<title>E3</title>
<text text-anchor="middle" x="360.72" y="-338.3" font-family="Times,serif" font-size="14.00">Échec</text>
</g>
<!-- S1&#45;&#45;E3 -->
<g id="edge8" class="edge">
<title>S1&#45;&#45;E3</title>
<path fill="none" stroke="black" d="M260.01,-342C281.69,-342 309.99,-342 330.91,-342"/>
<text text-anchor="middle" x="293.72" y="-345.8" font-family="Times,serif" font-size="14.00">1 &#45; p</text>
</g>
<!-- S4 -->
<g id="node10" class="node">
<title>S4</title>
<text text-anchor="middle" x="360.72" y="-284.3" font-family="Times,serif" font-size="14.00">Succès</text>
</g>
<!-- E1&#45;&#45;S4 -->
<g id="edge9" class="edge">
<title>E1&#45;&#45;S4</title>
<path fill="none" stroke="black" d="M256.36,-274.69C277.29,-277.38 305.69,-281.04 327.42,-283.84"/>
<text text-anchor="middle" x="293.72" y="-284.8" font-family="Times,serif" font-size="14.00">p</text>
</g>
<!-- E4 -->
<g id="node11" class="node">
<title>E4</title>
<text text-anchor="middle" x="360.72" y="-230.3" font-family="Times,serif" font-size="14.00">Échec</text>
</g>
<!-- E1&#45;&#45;E4 -->
<g id="edge10" class="edge">
<title>E1&#45;&#45;E4</title>
<path fill="none" stroke="black" d="M256.36,-262.97C278.5,-256.77 309.01,-248.21 331.13,-242.01"/>
<text text-anchor="middle" x="293.72" y="-259.8" font-family="Times,serif" font-size="14.00">1 &#45; p</text>
</g>
<!-- S5 -->
<g id="node12" class="node">
<title>S5</title>
<text text-anchor="middle" x="360.72" y="-176.3" font-family="Times,serif" font-size="14.00">Succès</text>
</g>
<!-- S2&#45;&#45;S5 -->
<g id="edge11" class="edge">
<title>S2&#45;&#45;S5</title>
<path fill="none" stroke="black" d="M260.01,-167.16C280.47,-169.79 306.83,-173.19 327.31,-175.83"/>
<text text-anchor="middle" x="293.72" y="-176.8" font-family="Times,serif" font-size="14.00">p</text>
</g>
<!-- E5 -->
<g id="node13" class="node">
<title>E5</title>
<text text-anchor="middle" x="360.72" y="-122.3" font-family="Times,serif" font-size="14.00">Échec</text>
</g>
<!-- S2&#45;&#45;E5 -->
<g id="edge12" class="edge">
<title>S2&#45;&#45;E5</title>
<path fill="none" stroke="black" d="M260.01,-153.95C281.69,-147.87 309.99,-139.94 330.91,-134.08"/>
<text text-anchor="middle" x="293.72" y="-151.8" font-family="Times,serif" font-size="14.00">1 &#45; p</text>
</g>
<!-- S6 -->
<g id="node14" class="node">
<title>S6</title>
<text text-anchor="middle" x="360.72" y="-68.3" font-family="Times,serif" font-size="14.00">Succès</text>
</g>
<!-- E2&#45;&#45;S6 -->
<g id="edge13" class="edge">
<title>E2&#45;&#45;S6</title>
<path fill="none" stroke="black" d="M256.36,-72C277.29,-72 305.69,-72 327.42,-72"/>
<text text-anchor="middle" x="293.72" y="-75.8" font-family="Times,serif" font-size="14.00">p</text>
</g>
<!-- E6 -->
<g id="node15" class="node">
<title>E6</title>
<text text-anchor="middle" x="360.72" y="-14.3" font-family="Times,serif" font-size="14.00">Échec</text>
</g>
<!-- E2&#45;&#45;E6 -->
<g id="edge14" class="edge">
<title>E2&#45;&#45;E6</title>
<path fill="none" stroke="black" d="M256.36,-60.28C278.5,-51.23 309.01,-38.75 331.13,-29.69"/>
<text text-anchor="middle" x="293.72" y="-54.8" font-family="Times,serif" font-size="14.00">1 &#45; p</text>
</g>
</g>
</svg>
