<svg xmlns="http://www.w3.org/2000/svg" width="390.01" height="233.77" viewBox="0 0 390.01187 233.77499"><defs><clipPath id="7"><path d="m51.36 686.26h298.75v13.56h-298.75v-13.56"/></clipPath><clipPath id="C"><path d="m51.36 613.66h298.75v13.56h-298.75v-13.56"/></clipPath><clipPath id="8"><path d="m51.36 671.74h298.75v13.56h-298.75v-13.56"/></clipPath><clipPath id="A"><path d="m51.36 642.7h298.75v13.56h-298.75v-13.56"/></clipPath><clipPath id="B"><path d="m51.36 628.18h298.75v13.56h-298.75v-13.56"/></clipPath><clipPath id="9"><path d="m51.36 657.22h298.75v13.56h-298.75v-13.56"/></clipPath><clipPath id="6"><path d="m51.36 700.78h298.75v13.56h-298.75v-13.56"/></clipPath><clipPath id="0"><path d="m51.36 612.7h298.75v174.26h-298.75v-174.26"/></clipPath><clipPath id="5"><path d="m51.36 715.3h298.75v13.56h-298.75v-13.56"/></clipPath><clipPath id="1"><path d="m51.36 773.4h298.75v13.56h-298.75v-13.56"/></clipPath><clipPath id="3"><path d="m51.36 744.34h298.75v13.584h-298.75v-13.584"/></clipPath><clipPath id="4"><path d="m51.36 729.82h298.75v13.56h-298.75v-13.56"/></clipPath><clipPath id="2"><path d="m51.36 758.88h298.75v13.56h-298.75v-13.56"/></clipPath></defs><g transform="matrix(1.25 0 0-1.25-56.708 995.69)"><g clip-path="url(#0)"><path d="m50.88 772.8h298.87v14.64h-298.87v-14.64" fill="#ffc" fill-rule="evenodd"/></g><g clip-path="url(#0)"><path d="m50.88 671.14h26.904v101.78h-26.904v-101.78" fill="#ffc" fill-rule="evenodd"/></g><path d="m151.82 671.14h49.584v14.64h-49.584v-14.64" fill="#dce6f1" fill-rule="evenodd"/><g clip-path="url(#0)"><path d="m50.88 656.62h26.904v14.64h-26.904v-14.64" fill="#ffc" fill-rule="evenodd"/></g><path d="m176.54 656.62h24.864v14.64h-24.864v-14.64" fill="#fde9d9" fill-rule="evenodd"/><g clip-path="url(#0)"><path d="m50.88 613.06h26.904v43.68h-26.904v-43.68" fill="#ffc" fill-rule="evenodd"/></g><g clip-path="url(#1)"><text transform="matrix(1 0 0-1 55.56 776.64)" font-family="Calibri" fill="#f00" font-size="11.04"><tspan x="0" y="0">n </tspan></text></g><g clip-path="url(#1)"><text transform="matrix(1 0 0-1 63.864 776.64)" font-family="Calibri" font-size="11.04"><tspan x="0" y="0">\ </tspan></text></g><g clip-path="url(#1)"><text transform="matrix(1 0 0-1 70.7 776.64)" font-family="Calibri" fill="#00b050" font-size="11.04"><tspan x="0" y="0">k</tspan></text></g><g clip-path="url(#1)"><text transform="matrix(1 0 0-1 94.82 776.52)" font-family="Calibri" fill="#00b050" font-size="11.04"><tspan x="0" y="0">0</tspan></text></g><g clip-path="url(#1)"><text transform="matrix(1 0 0-1 119.54 776.52)" font-family="Calibri" fill="#00b050" font-size="11.04"><tspan x="0" y="0">1</tspan></text></g><g clip-path="url(#1)"><text transform="matrix(1 0 0-1 144.26 776.52)" font-family="Calibri" fill="#00b050" font-size="11.04"><tspan x="0" y="0">2</tspan></text></g><g clip-path="url(#1)"><text transform="matrix(1 0 0-1 168.98 776.52)" font-family="Calibri" fill="#00b050" font-size="11.04"><tspan x="0" y="0">3</tspan></text></g><g clip-path="url(#1)"><text transform="matrix(1 0 0-1 193.73 776.52)" font-family="Calibri" fill="#00b050" font-size="11.04"><tspan x="0" y="0">4</tspan></text></g><g clip-path="url(#1)"><text transform="matrix(1 0 0-1 218.45 776.52)" font-family="Calibri" fill="#00b050" font-size="11.04"><tspan x="0" y="0">5</tspan></text></g><g clip-path="url(#1)"><text transform="matrix(1 0 0-1 243.17 776.52)" font-family="Calibri" fill="#00b050" font-size="11.04"><tspan x="0" y="0">6</tspan></text></g><g clip-path="url(#1)"><text transform="matrix(1 0 0-1 267.89 776.52)" font-family="Calibri" fill="#00b050" font-size="11.04"><tspan x="0" y="0">7</tspan></text></g><g clip-path="url(#1)"><text transform="matrix(1 0 0-1 292.61 776.52)" font-family="Calibri" fill="#00b050" font-size="11.04"><tspan x="0" y="0">8</tspan></text></g><g clip-path="url(#1)"><text transform="matrix(1 0 0-1 317.35 776.52)" font-family="Calibri" fill="#00b050" font-size="11.04"><tspan x="0" y="0">9</tspan></text></g><g clip-path="url(#1)"><text transform="matrix(1 0 0-1 336.43 776.52)" font-family="Calibri" fill="#00b050" font-size="11.04"><tspan x="0" y="0">10</tspan></text></g><g clip-path="url(#2)"><text transform="matrix(1 0 0-1 70.1 762)" font-family="Calibri" fill="#f00" font-size="11.04"><tspan x="0" y="0">0</tspan></text></g><g clip-path="url(#2)"><text transform="matrix(1 0 0-1 94.82 762)" font-family="Calibri" font-size="11.04"><tspan x="0" y="0">1</tspan></text></g><g clip-path="url(#3)"><text transform="matrix(1 0 0-1 70.1 747.46)" font-family="Calibri" fill="#f00" font-size="11.04"><tspan x="0" y="0">1</tspan></text></g><g clip-path="url(#3)"><text transform="matrix(1 0 0-1 94.82 747.46)" font-family="Calibri" font-size="11.04"><tspan x="0" y="0">1</tspan></text></g><g clip-path="url(#3)"><text transform="matrix(1 0 0-1 119.54 747.46)" font-family="Calibri" font-size="11.04"><tspan x="0" y="0">1</tspan></text></g><g clip-path="url(#4)"><text transform="matrix(1 0 0-1 70.1 732.94)" font-family="Calibri" fill="#f00" font-size="11.04"><tspan x="0" y="0">2</tspan></text></g><g clip-path="url(#4)"><text transform="matrix(1 0 0-1 94.82 732.94)" font-family="Calibri" font-size="11.04"><tspan x="0" y="0">1</tspan></text></g><g clip-path="url(#4)"><text transform="matrix(1 0 0-1 119.54 732.94)" font-family="Calibri" font-size="11.04"><tspan x="0" y="0">2</tspan></text></g><g clip-path="url(#4)"><text transform="matrix(1 0 0-1 144.26 732.94)" font-family="Calibri" font-size="11.04"><tspan x="0" y="0">1</tspan></text></g><g clip-path="url(#5)"><text transform="matrix(1 0 0-1 70.1 718.42)" font-family="Calibri" fill="#f00" font-size="11.04"><tspan x="0" y="0">3</tspan></text></g><g clip-path="url(#5)"><text transform="matrix(1 0 0-1 94.82 718.42)" font-family="Calibri" font-size="11.04"><tspan x="0" y="0">1</tspan></text></g><g clip-path="url(#5)"><text transform="matrix(1 0 0-1 119.54 718.42)" font-family="Calibri" font-size="11.04"><tspan x="0" y="0">3</tspan></text></g><g clip-path="url(#5)"><text transform="matrix(1 0 0-1 144.26 718.42)" font-family="Calibri" font-size="11.04"><tspan x="0" y="0">3</tspan></text></g><g clip-path="url(#5)"><text transform="matrix(1 0 0-1 168.98 718.42)" font-family="Calibri" font-size="11.04"><tspan x="0" y="0">1</tspan></text></g><g clip-path="url(#6)"><text transform="matrix(1 0 0-1 70.1 703.9)" font-family="Calibri" fill="#f00" font-size="11.04"><tspan x="0" y="0">4</tspan></text></g><g clip-path="url(#6)"><text transform="matrix(1 0 0-1 94.82 703.9)" font-family="Calibri" font-size="11.04"><tspan x="0" y="0">1</tspan></text></g><g clip-path="url(#6)"><text transform="matrix(1 0 0-1 119.54 703.9)" font-family="Calibri" font-size="11.04"><tspan x="0" y="0">4</tspan></text></g><g clip-path="url(#6)"><text transform="matrix(1 0 0-1 144.26 703.9)" font-family="Calibri" font-size="11.04"><tspan x="0" y="0">6</tspan></text></g><g clip-path="url(#6)"><text transform="matrix(1 0 0-1 168.98 703.9)" font-family="Calibri" font-size="11.04"><tspan x="0" y="0">4</tspan></text></g><g clip-path="url(#6)"><text transform="matrix(1 0 0-1 193.73 703.9)" font-family="Calibri" font-size="11.04"><tspan x="0" y="0">1</tspan></text></g><g clip-path="url(#7)"><text transform="matrix(1 0 0-1 70.1 689.38)" font-family="Calibri" fill="#f00" font-size="11.04"><tspan x="0" y="0">5</tspan></text></g><g clip-path="url(#7)"><text transform="matrix(1 0 0-1 94.82 689.38)" font-family="Calibri" font-size="11.04"><tspan x="0" y="0">1</tspan></text></g><g clip-path="url(#7)"><text transform="matrix(1 0 0-1 119.54 689.38)" font-family="Calibri" font-size="11.04"><tspan x="0" y="0">5</tspan></text></g><g clip-path="url(#7)"><text transform="matrix(1 0 0-1 138.62 689.38)" font-family="Calibri" font-size="11.04"><tspan x="0" y="0">10</tspan></text></g><g clip-path="url(#7)"><text transform="matrix(1 0 0-1 163.34 689.38)" font-family="Calibri" font-size="11.04"><tspan x="0" y="0">10</tspan></text></g><g clip-path="url(#7)"><text transform="matrix(1 0 0-1 193.73 689.38)" font-family="Calibri" font-size="11.04"><tspan x="0" y="0">5</tspan></text></g><g clip-path="url(#7)"><text transform="matrix(1 0 0-1 218.45 689.38)" font-family="Calibri" font-size="11.04"><tspan x="0" y="0">1</tspan></text></g><g clip-path="url(#8)"><text transform="matrix(1 0 0-1 70.1 674.86)" font-family="Calibri" fill="#f00" font-size="11.04"><tspan x="0" y="0">6</tspan></text></g><g clip-path="url(#8)"><text transform="matrix(1 0 0-1 94.82 674.86)" font-family="Calibri" font-size="11.04"><tspan x="0" y="0">1</tspan></text></g><g clip-path="url(#8)"><text transform="matrix(1 0 0-1 119.54 674.86)" font-family="Calibri" font-size="11.04"><tspan x="0" y="0">6</tspan></text></g><g clip-path="url(#8)"><text transform="matrix(1 0 0-1 138.62 674.86)" font-family="Calibri" font-size="11.04"><tspan x="0" y="0">15</tspan></text></g><g clip-path="url(#8)"><text transform="matrix(1 0 0-1 163.34 674.86)" font-family="Calibri" font-size="11.04"><tspan x="0" y="0">20</tspan></text></g><g clip-path="url(#8)"><text transform="matrix(1 0 0-1 188.06 674.86)" font-family="Calibri" font-size="11.04"><tspan x="0" y="0">15</tspan></text></g><g clip-path="url(#8)"><text transform="matrix(1 0 0-1 218.45 674.86)" font-family="Calibri" font-size="11.04"><tspan x="0" y="0">6</tspan></text></g><g clip-path="url(#8)"><text transform="matrix(1 0 0-1 243.17 674.86)" font-family="Calibri" font-size="11.04"><tspan x="0" y="0">1</tspan></text></g><g clip-path="url(#9)"><text transform="matrix(1 0 0-1 70.1 660.34)" font-family="Calibri" fill="#f00" font-size="11.04"><tspan x="0" y="0">7</tspan></text></g><g clip-path="url(#9)"><text transform="matrix(1 0 0-1 94.82 660.34)" font-family="Calibri" font-size="11.04"><tspan x="0" y="0">1</tspan></text></g><g clip-path="url(#9)"><text transform="matrix(1 0 0-1 119.54 660.34)" font-family="Calibri" font-size="11.04"><tspan x="0" y="0">7</tspan></text></g><g clip-path="url(#9)"><text transform="matrix(1 0 0-1 138.62 660.34)" font-family="Calibri" font-size="11.04"><tspan x="0" y="0">21</tspan></text></g><g clip-path="url(#9)"><text transform="matrix(1 0 0-1 163.34 660.34)" font-family="Calibri" font-size="11.04"><tspan x="0" y="0">35</tspan></text></g><g clip-path="url(#9)"><text transform="matrix(1 0 0-1 188.06 660.34)" font-family="Calibri" font-size="11.04"><tspan x="0" y="0">35</tspan></text></g><g clip-path="url(#9)"><text transform="matrix(1 0 0-1 212.81 660.34)" font-family="Calibri" font-size="11.04"><tspan x="0" y="0">21</tspan></text></g><g clip-path="url(#9)"><text transform="matrix(1 0 0-1 243.17 660.34)" font-family="Calibri" font-size="11.04"><tspan x="0" y="0">7</tspan></text></g><g clip-path="url(#9)"><text transform="matrix(1 0 0-1 267.89 660.34)" font-family="Calibri" font-size="11.04"><tspan x="0" y="0">1</tspan></text></g><g clip-path="url(#A)"><text transform="matrix(1 0 0-1 70.1 645.82)" font-family="Calibri" fill="#f00" font-size="11.04"><tspan x="0" y="0">8</tspan></text></g><g clip-path="url(#A)"><text transform="matrix(1 0 0-1 94.82 645.82)" font-family="Calibri" font-size="11.04"><tspan x="0" y="0">1</tspan></text></g><g clip-path="url(#A)"><text transform="matrix(1 0 0-1 119.54 645.82)" font-family="Calibri" font-size="11.04"><tspan x="0" y="0">8</tspan></text></g><g clip-path="url(#A)"><text transform="matrix(1 0 0-1 138.62 645.82)" font-family="Calibri" font-size="11.04"><tspan x="0" y="0">28</tspan></text></g><g clip-path="url(#A)"><text transform="matrix(1 0 0-1 163.34 645.82)" font-family="Calibri" font-size="11.04"><tspan x="0" y="0">56</tspan></text></g><g clip-path="url(#A)"><text transform="matrix(1 0 0-1 188.06 645.82)" font-family="Calibri" font-size="11.04"><tspan x="0" y="0">70</tspan></text></g><g clip-path="url(#A)"><text transform="matrix(1 0 0-1 212.81 645.82)" font-family="Calibri" font-size="11.04"><tspan x="0" y="0">56</tspan></text></g><g clip-path="url(#A)"><text transform="matrix(1 0 0-1 237.53 645.82)" font-family="Calibri" font-size="11.04"><tspan x="0" y="0">28</tspan></text></g><g clip-path="url(#A)"><text transform="matrix(1 0 0-1 267.89 645.82)" font-family="Calibri" font-size="11.04"><tspan x="0" y="0">8</tspan></text></g><g clip-path="url(#A)"><text transform="matrix(1 0 0-1 292.61 645.82)" font-family="Calibri" font-size="11.04"><tspan x="0" y="0">1</tspan></text></g><g clip-path="url(#B)"><text transform="matrix(1 0 0-1 70.1 631.3)" font-family="Calibri" fill="#f00" font-size="11.04"><tspan x="0" y="0">9</tspan></text></g><g clip-path="url(#B)"><text transform="matrix(1 0 0-1 94.82 631.3)" font-family="Calibri" font-size="11.04"><tspan x="0" y="0">1</tspan></text></g><g clip-path="url(#B)"><text transform="matrix(1 0 0-1 119.54 631.3)" font-family="Calibri" font-size="11.04"><tspan x="0" y="0">9</tspan></text></g><g clip-path="url(#B)"><text transform="matrix(1 0 0-1 138.62 631.3)" font-family="Calibri" font-size="11.04"><tspan x="0" y="0">36</tspan></text></g><g clip-path="url(#B)"><text transform="matrix(1 0 0-1 163.34 631.3)" font-family="Calibri" font-size="11.04"><tspan x="0" y="0">84</tspan></text></g><g clip-path="url(#B)"><text transform="matrix(1 0 0-1 182.42 631.3)" font-family="Calibri" font-size="11.04"><tspan x="0" y="0">126</tspan></text></g><g clip-path="url(#B)"><text transform="matrix(1 0 0-1 207.17 631.3)" font-family="Calibri" font-size="11.04"><tspan x="0" y="0">126</tspan></text></g><g clip-path="url(#B)"><text transform="matrix(1 0 0-1 237.53 631.3)" font-family="Calibri" font-size="11.04"><tspan x="0" y="0">84</tspan></text></g><g clip-path="url(#B)"><text transform="matrix(1 0 0-1 262.25 631.3)" font-family="Calibri" font-size="11.04"><tspan x="0" y="0">36</tspan></text></g><g clip-path="url(#B)"><text transform="matrix(1 0 0-1 292.61 631.3)" font-family="Calibri" font-size="11.04"><tspan x="0" y="0">9</tspan></text></g><g clip-path="url(#B)"><text transform="matrix(1 0 0-1 317.35 631.3)" font-family="Calibri" font-size="11.04"><tspan x="0" y="0">1</tspan></text></g><g clip-path="url(#C)"><text transform="matrix(1 0 0-1 64.46 616.78)" font-family="Calibri" fill="#f00" font-size="11.04"><tspan x="0" y="0">10</tspan></text></g><g clip-path="url(#C)"><text transform="matrix(1 0 0-1 94.82 616.78)" font-family="Calibri" font-size="11.04"><tspan x="0" y="0">1</tspan></text></g><g clip-path="url(#C)"><text transform="matrix(1 0 0-1 113.9 616.78)" font-family="Calibri" font-size="11.04"><tspan x="0" y="0">10</tspan></text></g><g clip-path="url(#C)"><text transform="matrix(1 0 0-1 138.62 616.78)" font-family="Calibri" font-size="11.04"><tspan x="0" y="0">45</tspan></text></g><g clip-path="url(#C)"><text transform="matrix(1 0 0-1 157.7 616.78)" font-family="Calibri" font-size="11.04"><tspan x="0" y="0">120</tspan></text></g><g clip-path="url(#C)"><text transform="matrix(1 0 0-1 182.42 616.78)" font-family="Calibri" font-size="11.04"><tspan x="0" y="0">210</tspan></text></g><g clip-path="url(#C)"><text transform="matrix(1 0 0-1 207.17 616.78)" font-family="Calibri" font-size="11.04"><tspan x="0" y="0">252</tspan></text></g><g clip-path="url(#C)"><text transform="matrix(1 0 0-1 231.89 616.78)" font-family="Calibri" font-size="11.04"><tspan x="0" y="0">210</tspan></text></g><g clip-path="url(#C)"><text transform="matrix(1 0 0-1 256.61 616.78)" font-family="Calibri" font-size="11.04"><tspan x="0" y="0">120</tspan></text></g><g clip-path="url(#C)"><text transform="matrix(1 0 0-1 286.97 616.78)" font-family="Calibri" font-size="11.04"><tspan x="0" y="0">45</tspan></text></g><g clip-path="url(#C)"><text transform="matrix(1 0 0-1 311.69 616.78)" font-family="Calibri" font-size="11.04"><tspan x="0" y="0">10</tspan></text></g><g clip-path="url(#C)"><text transform="matrix(1 0 0-1 342.07 616.78)" font-family="Calibri" font-size="11.04"><tspan x="0" y="0">1</tspan></text></g></g></svg>