<?xml version="1.0" encoding="UTF-8" standalone="no"?>
<!DOCTYPE svg PUBLIC "-//W3C//DTD SVG 1.1//EN"
 "http://www.w3.org/Graphics/SVG/1.1/DTD/svg11.dtd">
<!-- Generated by graphviz version 2.40.1 (20161225.0304)
 -->
<!-- Title: G Pages: 1 -->
<svg width="314pt" height="44pt"
 viewBox="0.00 0.00 314.00 44.00" xmlns="http://www.w3.org/2000/svg" xmlns:xlink="http://www.w3.org/1999/xlink">
<g id="graph0" class="graph" transform="scale(1 1) rotate(0) translate(4 40)">
<title>G</title>
<polygon fill="transparent" stroke="transparent" points="-4,4 -4,-40 310,-40 310,4 -4,4"/>
<!-- P1 -->
<g id="node1" class="node">
<title>P1</title>
<ellipse fill="#add8e6" stroke="#000000" cx="27" cy="-18" rx="27" ry="18"/>
<text text-anchor="middle" x="27" y="-14.3" font-family="Times,serif" font-size="14.00" fill="#000000">P1</text>
</g>
<!-- P2 -->
<g id="node2" class="node">
<title>P2</title>
<ellipse fill="#add8e6" stroke="#000000" cx="279" cy="-18" rx="27" ry="18"/>
<text text-anchor="middle" x="279" y="-14.3" font-family="Times,serif" font-size="14.00" fill="#000000">P2</text>
</g>
<!-- R1 -->
<g id="node3" class="node">
<title>R1</title>
<ellipse fill="#ffc0cb" stroke="#000000" cx="153" cy="-18" rx="27" ry="18"/>
<text text-anchor="middle" x="153" y="-14.3" font-family="Times,serif" font-size="14.00" fill="#000000">R1</text>
</g>
<!-- P2&#45;&gt;R1 -->
<g id="edge2" class="edge">
<title>P2&#45;&gt;R1</title>
<path fill="none" stroke="#000000" d="M251.9698,-18C234.0719,-18 210.3491,-18 190.6161,-18"/>
<polygon fill="#000000" stroke="#000000" points="190.4203,-14.5001 180.4202,-18 190.4202,-21.5001 190.4203,-14.5001"/>
</g>
<!-- R1&#45;&gt;P1 -->
<g id="edge1" class="edge">
<title>R1&#45;&gt;P1</title>
<path fill="none" stroke="#000000" d="M125.9698,-18C108.0719,-18 84.3491,-18 64.6161,-18"/>
<polygon fill="#000000" stroke="#000000" points="64.4203,-14.5001 54.4202,-18 64.4202,-21.5001 64.4203,-14.5001"/>
</g>
</g>
</svg>
