<?xml version="1.0" encoding="UTF-8" standalone="no"?>
<!DOCTYPE svg PUBLIC "-//W3C//DTD SVG 1.1//EN"
 "http://www.w3.org/Graphics/SVG/1.1/DTD/svg11.dtd">
<!-- Generated by graphviz version 11.0.0 (0)
 -->
<!-- Title: G Pages: 1 -->
<svg width="222pt" height="204pt"
 viewBox="0.00 0.00 222.43 204.43" xmlns="http://www.w3.org/2000/svg" xmlns:xlink="http://www.w3.org/1999/xlink">
<g id="graph0" class="graph" transform="scale(1 1) rotate(0) translate(4 200.43)">
<title>G</title>
<polygon fill="none" stroke="none" points="-4,4 -4,-200.43 218.43,-200.43 218.43,4 -4,4"/>
<!-- P1 -->
<g id="node1" class="node">
<title>P1</title>
<ellipse fill="lightblue" stroke="black" cx="107.21" cy="-18" rx="27" ry="18"/>
<text text-anchor="middle" x="107.21" y="-13.32" font-family="Times,serif" font-size="14.00">P1</text>
</g>
<!-- R1 -->
<g id="node3" class="node">
<title>R1</title>
<ellipse fill="pink" stroke="black" cx="27" cy="-98.21" rx="27" ry="18"/>
<text text-anchor="middle" x="27" y="-93.54" font-family="Times,serif" font-size="14.00">R1</text>
</g>
<!-- P1&#45;&gt;R1 -->
<g id="edge1" class="edge">
<title>P1&#45;&gt;R1</title>
<path fill="none" stroke="black" d="M92.13,-33.09C80.33,-44.89 63.71,-61.5 50.22,-74.99"/>
<polygon fill="black" stroke="black" points="47.96,-72.31 43.36,-81.85 52.91,-77.25 47.96,-72.31"/>
</g>
<!-- P2 -->
<g id="node2" class="node">
<title>P2</title>
<ellipse fill="lightblue" stroke="black" cx="107.21" cy="-178.43" rx="27" ry="18"/>
<text text-anchor="middle" x="107.21" y="-173.75" font-family="Times,serif" font-size="14.00">P2</text>
</g>
<!-- R2 -->
<g id="node4" class="node">
<title>R2</title>
<ellipse fill="pink" stroke="black" cx="187.43" cy="-98.21" rx="27" ry="18"/>
<text text-anchor="middle" x="187.43" y="-93.54" font-family="Times,serif" font-size="14.00">R2</text>
</g>
<!-- P2&#45;&gt;R2 -->
<g id="edge2" class="edge">
<title>P2&#45;&gt;R2</title>
<path fill="none" stroke="black" d="M122.3,-163.34C134.1,-151.54 150.72,-134.93 164.21,-121.43"/>
<polygon fill="black" stroke="black" points="166.47,-124.12 171.07,-114.58 161.52,-119.17 166.47,-124.12"/>
</g>
<!-- R1&#45;&gt;P2 -->
<g id="edge4" class="edge">
<title>R1&#45;&gt;P2</title>
<path fill="none" stroke="black" d="M42.09,-113.3C53.89,-125.1 70.5,-141.72 83.99,-155.21"/>
<polygon fill="black" stroke="black" points="81.31,-157.47 90.85,-162.07 86.25,-152.52 81.31,-157.47"/>
</g>
<!-- R2&#45;&gt;P1 -->
<g id="edge3" class="edge">
<title>R2&#45;&gt;P1</title>
<path fill="none" stroke="black" d="M172.34,-83.13C160.54,-71.33 143.93,-54.71 130.43,-41.22"/>
<polygon fill="black" stroke="black" points="133.12,-38.96 123.58,-34.36 128.17,-43.91 133.12,-38.96"/>
</g>
</g>
</svg>
