<?xml version="1.0" encoding="UTF-8" standalone="no"?>
<!DOCTYPE svg PUBLIC "-//W3C//DTD SVG 1.1//EN"
 "http://www.w3.org/Graphics/SVG/1.1/DTD/svg11.dtd">
<!-- Generated by graphviz version 2.40.1 (20161225.0304)
 -->
<!-- Title: G Pages: 1 -->
<svg width="222pt" height="204pt"
 viewBox="0.00 0.00 222.43 204.43" xmlns="http://www.w3.org/2000/svg" xmlns:xlink="http://www.w3.org/1999/xlink">
<g id="graph0" class="graph" transform="scale(1 1) rotate(0) translate(4 200.4282)">
<title>G</title>
<polygon fill="transparent" stroke="transparent" points="-4,4 -4,-200.4282 218.4282,-200.4282 218.4282,4 -4,4"/>
<!-- P1 -->
<g id="node1" class="node">
<title>P1</title>
<ellipse fill="#add8e6" stroke="#000000" cx="107.2141" cy="-18" rx="27" ry="18"/>
<text text-anchor="middle" x="107.2141" y="-14.3" font-family="Times,serif" font-size="14.00" fill="#000000">P1</text>
</g>
<!-- R1 -->
<g id="node3" class="node">
<title>R1</title>
<ellipse fill="#ffc0cb" stroke="#000000" cx="27" cy="-98.2141" rx="27" ry="18"/>
<text text-anchor="middle" x="27" y="-94.5141" font-family="Times,serif" font-size="14.00" fill="#000000">R1</text>
</g>
<!-- P1&#45;&gt;R1 -->
<g id="edge1" class="edge">
<title>P1&#45;&gt;R1</title>
<path fill="none" stroke="#000000" d="M92.1264,-33.0877C80.0262,-45.1879 62.8673,-62.3468 49.1996,-76.0145"/>
<polygon fill="#000000" stroke="#000000" points="46.6162,-73.6481 42.02,-83.1941 51.566,-78.5979 46.6162,-73.6481"/>
</g>
<!-- P2 -->
<g id="node2" class="node">
<title>P2</title>
<ellipse fill="#add8e6" stroke="#000000" cx="107.2141" cy="-178.4282" rx="27" ry="18"/>
<text text-anchor="middle" x="107.2141" y="-174.7282" font-family="Times,serif" font-size="14.00" fill="#000000">P2</text>
</g>
<!-- R2 -->
<g id="node4" class="node">
<title>R2</title>
<ellipse fill="#ffc0cb" stroke="#000000" cx="187.4282" cy="-98.2141" rx="27" ry="18"/>
<text text-anchor="middle" x="187.4282" y="-94.5141" font-family="Times,serif" font-size="14.00" fill="#000000">R2</text>
</g>
<!-- P2&#45;&gt;R2 -->
<g id="edge2" class="edge">
<title>P2&#45;&gt;R2</title>
<path fill="none" stroke="#000000" d="M122.3017,-163.3405C134.402,-151.2403 151.5609,-134.0814 165.2285,-120.4137"/>
<polygon fill="#000000" stroke="#000000" points="167.812,-122.7801 172.4082,-113.2341 162.8622,-117.8303 167.812,-122.7801"/>
</g>
<!-- R1&#45;&gt;P2 -->
<g id="edge4" class="edge">
<title>R1&#45;&gt;P2</title>
<path fill="none" stroke="#000000" d="M42.0877,-113.3017C54.1879,-125.402 71.3468,-142.5609 85.0145,-156.2285"/>
<polygon fill="#000000" stroke="#000000" points="82.6481,-158.812 92.1941,-163.4082 87.5979,-153.8622 82.6481,-158.812"/>
</g>
<!-- R2&#45;&gt;P1 -->
<g id="edge3" class="edge">
<title>R2&#45;&gt;P1</title>
<path fill="none" stroke="#000000" d="M172.3405,-83.1264C160.2403,-71.0262 143.0814,-53.8673 129.4137,-40.1996"/>
<polygon fill="#000000" stroke="#000000" points="131.7801,-37.6162 122.2341,-33.02 126.8303,-42.566 131.7801,-37.6162"/>
</g>
</g>
</svg>
