<?xml version="1.0" encoding="UTF-8" standalone="no"?>
<!DOCTYPE svg PUBLIC "-//W3C//DTD SVG 1.1//EN"
 "http://www.w3.org/Graphics/SVG/1.1/DTD/svg11.dtd">
<!-- Generated by graphviz version 2.40.1 (20161225.0304)
 -->
<!-- Title: G Pages: 1 -->
<svg width="251pt" height="148pt"
 viewBox="0.00 0.00 251.24 148.20" xmlns="http://www.w3.org/2000/svg" xmlns:xlink="http://www.w3.org/1999/xlink">
<g id="graph0" class="graph" transform="scale(1 1) rotate(0) translate(4 144.2012)">
<title>G</title>
<polygon fill="transparent" stroke="transparent" points="-4,4 -4,-144.2012 247.2409,-144.2012 247.2409,4 -4,4"/>
<!-- P1 -->
<g id="node1" class="node">
<title>P1</title>
<ellipse fill="#add8e6" stroke="#000000" cx="27" cy="-122.2012" rx="27" ry="18"/>
<text text-anchor="middle" x="27" y="-118.5012" font-family="Times,serif" font-size="14.00" fill="#000000">P1</text>
</g>
<!-- P2 -->
<g id="node2" class="node">
<title>P2</title>
<ellipse fill="#add8e6" stroke="#000000" cx="216.2409" cy="-70.1006" rx="27" ry="18"/>
<text text-anchor="middle" x="216.2409" y="-66.4006" font-family="Times,serif" font-size="14.00" fill="#000000">P2</text>
</g>
<!-- R1 -->
<g id="node3" class="node">
<title>R1</title>
<ellipse fill="#ffc0cb" stroke="#000000" cx="117.2409" cy="-70.1006" rx="27" ry="18"/>
<text text-anchor="middle" x="117.2409" y="-66.4006" font-family="Times,serif" font-size="14.00" fill="#000000">R1</text>
</g>
<!-- P2&#45;&gt;R1 -->
<g id="edge3" class="edge">
<title>P2&#45;&gt;R1</title>
<path fill="none" stroke="#000000" d="M190.7459,-64.1123C179.2877,-63.3235 165.5652,-63.1473 153.0958,-63.5839"/>
<polygon fill="#000000" stroke="#000000" points="152.8039,-60.0941 142.9935,-64.0947 153.1575,-67.0851 152.8039,-60.0941"/>
</g>
<!-- P2&#45;&gt;R1 -->
<g id="edge4" class="edge">
<title>P2&#45;&gt;R1</title>
<path fill="none" stroke="#000000" d="M190.7459,-76.0888C179.2877,-76.8777 165.5652,-77.0539 153.0958,-76.6173"/>
<polygon fill="#000000" stroke="#000000" points="153.1575,-73.116 142.9935,-76.1064 152.8039,-80.1071 153.1575,-73.116"/>
</g>
<!-- R1&#45;&gt;P1 -->
<g id="edge2" class="edge">
<title>R1&#45;&gt;P1</title>
<path fill="none" stroke="#000000" d="M96.7638,-81.923C84.8489,-88.8021 69.6269,-97.5905 56.4437,-105.2018"/>
<polygon fill="#000000" stroke="#000000" points="54.6186,-102.214 47.7084,-110.2452 58.1187,-108.2762 54.6186,-102.214"/>
</g>
<!-- R2 -->
<g id="node4" class="node">
<title>R2</title>
<ellipse fill="#ffc0cb" stroke="#000000" cx="27" cy="-18" rx="27" ry="18"/>
<text text-anchor="middle" x="27" y="-14.3" font-family="Times,serif" font-size="14.00" fill="#000000">R2</text>
</g>
<!-- R1&#45;&gt;R2 -->
<!-- R2&#45;&gt;P1 -->
<g id="edge1" class="edge">
<title>R2&#45;&gt;P1</title>
<path fill="none" stroke="#000000" d="M27,-36.1505C27,-52.0406 27,-75.3934 27,-93.7632"/>
<polygon fill="#000000" stroke="#000000" points="23.4999,-93.9091 27,-103.9091 30.4999,-93.909 23.4999,-93.9091"/>
</g>
</g>
</svg>
