<?xml version="1.0" encoding="UTF-8" standalone="no"?>
<!DOCTYPE svg PUBLIC "-//W3C//DTD SVG 1.1//EN"
 "http://www.w3.org/Graphics/SVG/1.1/DTD/svg11.dtd">
<!-- Generated by graphviz version 3.0.0 (0)
 -->
<!-- Title: g Pages: 1 -->
<svg width="278pt" height="44pt"
 viewBox="0.00 0.00 278.00 44.00" xmlns="http://www.w3.org/2000/svg" xmlns:xlink="http://www.w3.org/1999/xlink">
<g id="graph0" class="graph" transform="scale(1 1) rotate(0) translate(4 40)">
<title>g</title>
<polygon fill="white" stroke="transparent" points="-4,4 -4,-40 274,-40 274,4 -4,4"/>
<!-- 2 -->
<g id="node1" class="node">
<title>2</title>
<ellipse fill="none" stroke="black" cx="27" cy="-18" rx="27" ry="18"/>
<text text-anchor="middle" x="27" y="-14.3" font-family="Times,serif" font-size="14.00">2</text>
</g>
<!-- 8 -->
<g id="node2" class="node">
<title>8</title>
<ellipse fill="none" stroke="black" cx="135" cy="-18" rx="27" ry="18"/>
<text text-anchor="middle" x="135" y="-14.3" font-family="Times,serif" font-size="14.00">8</text>
</g>
<!-- 2&#45;&gt;8 -->
<g id="edge1" class="edge">
<title>2&#45;&gt;8</title>
<path fill="none" stroke="black" d="M54.2,-18C67.33,-18 83.42,-18 97.71,-18"/>
<polygon fill="black" stroke="black" points="97.73,-21.5 107.73,-18 97.73,-14.5 97.73,-21.5"/>
<text text-anchor="middle" x="81" y="-21.8" font-family="Times,serif" font-size="14.00">x4</text>
</g>
<!-- 32 -->
<g id="node3" class="node">
<title>32</title>
<ellipse fill="none" stroke="black" cx="243" cy="-18" rx="27" ry="18"/>
<text text-anchor="middle" x="243" y="-14.3" font-family="Times,serif" font-size="14.00">32</text>
</g>
<!-- 8&#45;&gt;32 -->
<g id="edge2" class="edge">
<title>8&#45;&gt;32</title>
<path fill="none" stroke="black" d="M162.2,-18C175.33,-18 191.42,-18 205.71,-18"/>
<polygon fill="black" stroke="black" points="205.73,-21.5 215.73,-18 205.73,-14.5 205.73,-21.5"/>
<text text-anchor="middle" x="189" y="-21.8" font-family="Times,serif" font-size="14.00">x4</text>
</g>
</g>
</svg>
