<?xml version="1.0" encoding="UTF-8" standalone="no"?>
<!DOCTYPE svg PUBLIC "-//W3C//DTD SVG 1.1//EN"
 "http://www.w3.org/Graphics/SVG/1.1/DTD/svg11.dtd">
<!-- Generated by graphviz version 2.40.1 (20161225.0304)
 -->
<!-- Title: G Pages: 1 -->
<svg width="364pt" height="211pt"
 viewBox="0.00 0.00 364.35 211.26" xmlns="http://www.w3.org/2000/svg" xmlns:xlink="http://www.w3.org/1999/xlink">
<g id="graph0" class="graph" transform="scale(1 1) rotate(0) translate(4 207.2576)">
<title>G</title>
<polygon fill="transparent" stroke="transparent" points="-4,4 -4,-207.2576 360.3493,-207.2576 360.3493,4 -4,4"/>
<!-- 0 -->
<g id="node1" class="node">
<title>0</title>
<ellipse fill="none" stroke="#000000" cx="63" cy="-18" rx="18" ry="18"/>
<text text-anchor="middle" x="63" y="-14.3" font-family="Times,serif" font-size="14.00" fill="#000000">0</text>
</g>
<!-- 1 -->
<g id="node2" class="node">
<title>1</title>
<ellipse fill="none" stroke="#000000" cx="63" cy="-107.3153" rx="18" ry="18"/>
<text text-anchor="middle" x="63" y="-103.6153" font-family="Times,serif" font-size="14.00" fill="#000000">1</text>
</g>
<!-- 0&#45;&#45;1 -->
<g id="edge1" class="edge">
<title>0&#45;&#45;1</title>
<path fill="none" stroke="#000000" d="M63,-36.0743C63,-51.5701 63,-73.7799 63,-89.2679"/>
</g>
<!-- 2 -->
<g id="node3" class="node">
<title>2</title>
<ellipse fill="none" stroke="#000000" cx="140.3493" cy="-62.6576" rx="18" ry="18"/>
<text text-anchor="middle" x="140.3493" y="-58.9576" font-family="Times,serif" font-size="14.00" fill="#000000">2</text>
</g>
<!-- 0&#45;&#45;2 -->
<g id="edge2" class="edge">
<title>0&#45;&#45;2</title>
<path fill="none" stroke="#000000" d="M78.6528,-27.0371C92.0725,-34.785 111.3068,-45.8899 124.7198,-53.6339"/>
</g>
<!-- 1&#45;&#45;2 -->
<g id="edge3" class="edge">
<title>1&#45;&#45;2</title>
<path fill="none" stroke="#000000" d="M78.6528,-98.2781C92.0725,-90.5302 111.3068,-79.4254 124.7198,-71.6813"/>
</g>
<!-- 5 -->
<g id="node6" class="node">
<title>5</title>
<ellipse fill="none" stroke="#000000" cx="18" cy="-185.2576" rx="18" ry="18"/>
<text text-anchor="middle" x="18" y="-181.5576" font-family="Times,serif" font-size="14.00" fill="#000000">5</text>
</g>
<!-- 1&#45;&#45;5 -->
<g id="edge6" class="edge">
<title>1&#45;&#45;5</title>
<path fill="none" stroke="#000000" d="M53.8936,-123.0881C46.0863,-136.6107 34.8963,-155.9924 27.0929,-169.5082"/>
</g>
<!-- 3 -->
<g id="node4" class="node">
<title>3</title>
<ellipse fill="none" stroke="#000000" cx="230.3493" cy="-62.6576" rx="18" ry="18"/>
<text text-anchor="middle" x="230.3493" y="-58.9576" font-family="Times,serif" font-size="14.00" fill="#000000">3</text>
</g>
<!-- 2&#45;&#45;3 -->
<g id="edge4" class="edge">
<title>2&#45;&#45;3</title>
<path fill="none" stroke="#000000" d="M158.5621,-62.6576C174.1767,-62.6576 196.5568,-62.6576 212.1635,-62.6576"/>
</g>
<!-- 4 -->
<g id="node5" class="node">
<title>4</title>
<ellipse fill="none" stroke="#000000" cx="338.3493" cy="-62.6576" rx="18" ry="18"/>
<text text-anchor="middle" x="338.3493" y="-58.9576" font-family="Times,serif" font-size="14.00" fill="#000000">4</text>
</g>
<!-- 3&#45;&#45;4 -->
<g id="edge5" class="edge">
<title>3&#45;&#45;4</title>
<path fill="none" stroke="#000000" d="M248.67,-62.6576C268.6503,-62.6576 300.4262,-62.6576 320.2991,-62.6576"/>
</g>
</g>
</svg>
