<?xml version="1.0" encoding="UTF-8" standalone="no"?>
<!DOCTYPE svg PUBLIC "-//W3C//DTD SVG 1.1//EN"
 "http://www.w3.org/Graphics/SVG/1.1/DTD/svg11.dtd">
<!-- Generated by graphviz version 2.40.1 (20161225.0304)
 -->
<!-- Title: G Pages: 1 -->
<svg width="211pt" height="133pt"
 viewBox="0.00 0.00 211.35 133.32" xmlns="http://www.w3.org/2000/svg" xmlns:xlink="http://www.w3.org/1999/xlink">
<g id="graph0" class="graph" transform="scale(1 1) rotate(0) translate(4 129.3153)">
<title>G</title>
<polygon fill="transparent" stroke="transparent" points="-4,4 -4,-129.3153 207.3493,-129.3153 207.3493,4 -4,4"/>
<!-- 0 -->
<g id="node1" class="node">
<title>0</title>
<ellipse fill="none" stroke="#000000" cx="18" cy="-107.3153" rx="18" ry="18"/>
<text text-anchor="middle" x="18" y="-103.6153" font-family="Times,serif" font-size="14.00" fill="#000000">0</text>
</g>
<!-- 1 -->
<g id="node2" class="node">
<title>1</title>
<ellipse fill="none" stroke="#000000" cx="95.3493" cy="-62.6576" rx="18" ry="18"/>
<text text-anchor="middle" x="95.3493" y="-58.9576" font-family="Times,serif" font-size="14.00" fill="#000000">1</text>
</g>
<!-- 0&#45;&#45;1 -->
<g id="edge1" class="edge">
<title>0&#45;&#45;1</title>
<path fill="none" stroke="#000000" d="M33.6528,-98.2781C47.0725,-90.5302 66.3068,-79.4254 79.7198,-71.6813"/>
</g>
<!-- 2 -->
<g id="node3" class="node">
<title>2</title>
<ellipse fill="none" stroke="#000000" cx="18" cy="-18" rx="18" ry="18"/>
<text text-anchor="middle" x="18" y="-14.3" font-family="Times,serif" font-size="14.00" fill="#000000">2</text>
</g>
<!-- 1&#45;&#45;2 -->
<g id="edge2" class="edge">
<title>1&#45;&#45;2</title>
<path fill="none" stroke="#000000" d="M79.6965,-53.6205C66.2768,-45.8726 47.0425,-34.7677 33.6295,-27.0237"/>
</g>
<!-- 3 -->
<g id="node4" class="node">
<title>3</title>
<ellipse fill="none" stroke="#000000" cx="185.3493" cy="-62.6576" rx="18" ry="18"/>
<text text-anchor="middle" x="185.3493" y="-58.9576" font-family="Times,serif" font-size="14.00" fill="#000000">3</text>
</g>
<!-- 1&#45;&#45;3 -->
<g id="edge4" class="edge">
<title>1&#45;&#45;3</title>
<path fill="none" stroke="#000000" d="M113.5621,-62.6576C129.1767,-62.6576 151.5568,-62.6576 167.1635,-62.6576"/>
</g>
<!-- 2&#45;&#45;0 -->
<g id="edge3" class="edge">
<title>2&#45;&#45;0</title>
<path fill="none" stroke="#000000" d="M18,-36.0743C18,-51.5701 18,-73.7799 18,-89.2679"/>
</g>
</g>
</svg>
