<svg version="1.1" xmlns="http://www.w3.org/2000/svg" xmlns:xlink="http://www.w3.org/1999/xlink" width="444" height="402"><defs><clipPath id="QBrAgnpDaPAs"><path fill="none" stroke="none" d=" M 0 0 L 444 0 L 444 402 L 0 402 L 0 0 Z"/></clipPath></defs><g transform="scale(1,1)" clip-path="url(#QBrAgnpDaPAs)"><g><rect fill="rgb(255,255,255)" stroke="none" x="0" y="0" width="444" height="402" fill-opacity="1"/><path fill="none" stroke="rgb(192,192,192)" paint-order="fill stroke markers" d=" M 53.5 0.5 L 53.5 402.5 M 53.5 0.5 L 53.5 402.5 M 114.5 0.5 L 114.5 402.5 M 174.5 0.5 L 174.5 402.5 M 235.5 0.5 L 235.5 402.5 M 295.5 0.5 L 295.5 402.5 M 356.5 0.5 L 356.5 402.5" stroke-opacity="1" stroke-linecap="round" stroke-linejoin="round" stroke-miterlimit="10"/><path fill="none" stroke="rgb(192,192,192)" paint-order="fill stroke markers" d=" M 5.5 0.5 L 5.5 402.5 M 17.5 0.5 L 17.5 402.5 M 29.5 0.5 L 29.5 402.5 M 41.5 0.5 L 41.5 402.5 M 65.5 0.5 L 65.5 402.5 M 78.5 0.5 L 78.5 402.5 M 90.5 0.5 L 90.5 402.5 M 102.5 0.5 L 102.5 402.5 M 126.5 0.5 L 126.5 402.5 M 138.5 0.5 L 138.5 402.5 M 150.5 0.5 L 150.5 402.5 M 162.5 0.5 L 162.5 402.5 M 186.5 0.5 L 186.5 402.5 M 199.5 0.5 L 199.5 402.5 M 211.5 0.5 L 211.5 402.5 M 223.5 0.5 L 223.5 402.5 M 247.5 0.5 L 247.5 402.5 M 259.5 0.5 L 259.5 402.5 M 271.5 0.5 L 271.5 402.5 M 283.5 0.5 L 283.5 402.5 M 307.5 0.5 L 307.5 402.5 M 320.5 0.5 L 320.5 402.5 M 332.5 0.5 L 332.5 402.5 M 344.5 0.5 L 344.5 402.5 M 368.5 0.5 L 368.5 402.5 M 380.5 0.5 L 380.5 402.5 M 392.5 0.5 L 392.5 402.5 M 404.5 0.5 L 404.5 402.5 M 428.5 0.5 L 428.5 402.5 M 441.5 0.5 L 441.5 402.5" stroke-opacity="0.23529411764705882" stroke-linecap="round" stroke-linejoin="round" stroke-miterlimit="10"/><path fill="none" stroke="rgb(192,192,192)" paint-order="fill stroke markers" d=" M 0.5 11.5 L 444.5 11.5 M 0.5 11.5 L 444.5 11.5 M 0.5 132.5 L 444.5 132.5 M 0.5 192.5 L 444.5 192.5 M 0.5 253.5 L 444.5 253.5 M 0.5 313.5 L 444.5 313.5 M 0.5 374.5 L 444.5 374.5" stroke-opacity="1" stroke-linecap="round" stroke-linejoin="round" stroke-miterlimit="10"/><path fill="none" stroke="rgb(192,192,192)" paint-order="fill stroke markers" d=" M 0.5 11.5 L 444.5 11.5 M 0.5 23.5 L 444.5 23.5 M 0.5 35.5 L 444.5 35.5 M 0.5 47.5 L 444.5 47.5 M 0.5 59.5 L 444.5 59.5 M 0.5 83.5 L 444.5 83.5 M 0.5 95.5 L 444.5 95.5 M 0.5 107.5 L 444.5 107.5 M 0.5 120.5 L 444.5 120.5 M 0.5 144.5 L 444.5 144.5 M 0.5 156.5 L 444.5 156.5 M 0.5 168.5 L 444.5 168.5 M 0.5 180.5 L 444.5 180.5 M 0.5 204.5 L 444.5 204.5 M 0.5 216.5 L 444.5 216.5 M 0.5 228.5 L 444.5 228.5 M 0.5 241.5 L 444.5 241.5 M 0.5 265.5 L 444.5 265.5 M 0.5 277.5 L 444.5 277.5 M 0.5 289.5 L 444.5 289.5 M 0.5 301.5 L 444.5 301.5 M 0.5 325.5 L 444.5 325.5 M 0.5 337.5 L 444.5 337.5 M 0.5 349.5 L 444.5 349.5 M 0.5 362.5 L 444.5 362.5 M 0.5 386.5 L 444.5 386.5 M 0.5 398.5 L 444.5 398.5" stroke-opacity="0.23529411764705882" stroke-linecap="round" stroke-linejoin="round" stroke-miterlimit="10"/><path fill="none" stroke="rgb(0,0,0)" paint-order="fill stroke markers" d=" M 416.5 2.5 L 416.5 402.5" stroke-opacity="1" stroke-miterlimit="10"/><path fill="none" stroke="rgb(0,0,0)" paint-order="fill stroke markers" d=" M 416.5 1.5 L 412.5 5.5" stroke-opacity="1" stroke-miterlimit="10"/><path fill="none" stroke="rgb(0,0,0)" paint-order="fill stroke markers" d=" M 416.5 1.5 L 420.5 5.5" stroke-opacity="1" stroke-miterlimit="10"/><path fill="none" stroke="rgb(0,0,0)" paint-order="fill stroke markers" d=" M 0.5 71.5 L 442.5 71.5" stroke-opacity="1" stroke-miterlimit="10"/><path fill="none" stroke="rgb(0,0,0)" paint-order="fill stroke markers" d=" M 443.5 71.5 L 439.5 67.5" stroke-opacity="1" stroke-miterlimit="10"/><path fill="none" stroke="rgb(0,0,0)" paint-order="fill stroke markers" d=" M 443.5 71.5 L 439.5 75.5" stroke-opacity="1" stroke-miterlimit="10"/><text fill="rgb(0,0,0)" stroke="none" font-family="geogebra-sans-serif, sans-serif" font-size="12px" font-style="normal" font-weight="normal" text-decoration="normal" x="48" y="87" text-anchor="start" dominant-baseline="alphabetic" fill-opacity="1">–6</text><text fill="none" stroke="rgb(255,255,255)" font-family="geogebra-sans-serif, sans-serif" font-size="12px" font-style="normal" font-weight="normal" text-decoration="normal" x="48" y="87" text-anchor="start" dominant-baseline="alphabetic" stroke-opacity="1" stroke-linejoin="bevel" stroke-miterlimit="10" stroke-width="3">–6</text><text fill="rgb(0,0,0)" stroke="none" font-family="geogebra-sans-serif, sans-serif" font-size="12px" font-style="normal" font-weight="normal" text-decoration="normal" x="48" y="87" text-anchor="start" dominant-baseline="alphabetic" fill-opacity="1">–6</text><text fill="rgb(0,0,0)" stroke="none" font-family="geogebra-sans-serif, sans-serif" font-size="12px" font-style="normal" font-weight="normal" text-decoration="normal" x="109" y="87" text-anchor="start" dominant-baseline="alphabetic" fill-opacity="1">–5</text><text fill="none" stroke="rgb(255,255,255)" font-family="geogebra-sans-serif, sans-serif" font-size="12px" font-style="normal" font-weight="normal" text-decoration="normal" x="109" y="87" text-anchor="start" dominant-baseline="alphabetic" stroke-opacity="1" stroke-linejoin="bevel" stroke-miterlimit="10" stroke-width="3">–5</text><text fill="rgb(0,0,0)" stroke="none" font-family="geogebra-sans-serif, sans-serif" font-size="12px" font-style="normal" font-weight="normal" text-decoration="normal" x="109" y="87" text-anchor="start" dominant-baseline="alphabetic" fill-opacity="1">–5</text><text fill="rgb(0,0,0)" stroke="none" font-family="geogebra-sans-serif, sans-serif" font-size="12px" font-style="normal" font-weight="normal" text-decoration="normal" x="169" y="87" text-anchor="start" dominant-baseline="alphabetic" fill-opacity="1">–4</text><text fill="none" stroke="rgb(255,255,255)" font-family="geogebra-sans-serif, sans-serif" font-size="12px" font-style="normal" font-weight="normal" text-decoration="normal" x="169" y="87" text-anchor="start" dominant-baseline="alphabetic" stroke-opacity="1" stroke-linejoin="bevel" stroke-miterlimit="10" stroke-width="3">–4</text><text fill="rgb(0,0,0)" stroke="none" font-family="geogebra-sans-serif, sans-serif" font-size="12px" font-style="normal" font-weight="normal" text-decoration="normal" x="169" y="87" text-anchor="start" dominant-baseline="alphabetic" fill-opacity="1">–4</text><text fill="rgb(0,0,0)" stroke="none" font-family="geogebra-sans-serif, sans-serif" font-size="12px" font-style="normal" font-weight="normal" text-decoration="normal" x="230" y="87" text-anchor="start" dominant-baseline="alphabetic" fill-opacity="1">–3</text><text fill="none" stroke="rgb(255,255,255)" font-family="geogebra-sans-serif, sans-serif" font-size="12px" font-style="normal" font-weight="normal" text-decoration="normal" x="230" y="87" text-anchor="start" dominant-baseline="alphabetic" stroke-opacity="1" stroke-linejoin="bevel" stroke-miterlimit="10" stroke-width="3">–3</text><text fill="rgb(0,0,0)" stroke="none" font-family="geogebra-sans-serif, sans-serif" font-size="12px" font-style="normal" font-weight="normal" text-decoration="normal" x="230" y="87" text-anchor="start" dominant-baseline="alphabetic" fill-opacity="1">–3</text><text fill="rgb(0,0,0)" stroke="none" font-family="geogebra-sans-serif, sans-serif" font-size="12px" font-style="normal" font-weight="normal" text-decoration="normal" x="290" y="87" text-anchor="start" dominant-baseline="alphabetic" fill-opacity="1">–2</text><text fill="none" stroke="rgb(255,255,255)" font-family="geogebra-sans-serif, sans-serif" font-size="12px" font-style="normal" font-weight="normal" text-decoration="normal" x="290" y="87" text-anchor="start" dominant-baseline="alphabetic" stroke-opacity="1" stroke-linejoin="bevel" stroke-miterlimit="10" stroke-width="3">–2</text><text fill="rgb(0,0,0)" stroke="none" font-family="geogebra-sans-serif, sans-serif" font-size="12px" font-style="normal" font-weight="normal" text-decoration="normal" x="290" y="87" text-anchor="start" dominant-baseline="alphabetic" fill-opacity="1">–2</text><text fill="rgb(0,0,0)" stroke="none" font-family="geogebra-sans-serif, sans-serif" font-size="12px" font-style="normal" font-weight="normal" text-decoration="normal" x="351" y="87" text-anchor="start" dominant-baseline="alphabetic" fill-opacity="1">–1</text><text fill="none" stroke="rgb(255,255,255)" font-family="geogebra-sans-serif, sans-serif" font-size="12px" font-style="normal" font-weight="normal" text-decoration="normal" x="351" y="87" text-anchor="start" dominant-baseline="alphabetic" stroke-opacity="1" stroke-linejoin="bevel" stroke-miterlimit="10" stroke-width="3">–1</text><text fill="rgb(0,0,0)" stroke="none" font-family="geogebra-sans-serif, sans-serif" font-size="12px" font-style="normal" font-weight="normal" text-decoration="normal" x="351" y="87" text-anchor="start" dominant-baseline="alphabetic" fill-opacity="1">–1</text><text fill="rgb(0,0,0)" stroke="none" font-family="geogebra-sans-serif, sans-serif" font-size="12px" font-style="normal" font-weight="normal" text-decoration="normal" x="396" y="379" text-anchor="start" dominant-baseline="alphabetic" fill-opacity="1">–5</text><text fill="none" stroke="rgb(255,255,255)" font-family="geogebra-sans-serif, sans-serif" font-size="12px" font-style="normal" font-weight="normal" text-decoration="normal" x="396" y="379" text-anchor="start" dominant-baseline="alphabetic" stroke-opacity="1" stroke-linejoin="bevel" stroke-miterlimit="10" stroke-width="3">–5</text><text fill="rgb(0,0,0)" stroke="none" font-family="geogebra-sans-serif, sans-serif" font-size="12px" font-style="normal" font-weight="normal" text-decoration="normal" x="396" y="379" text-anchor="start" dominant-baseline="alphabetic" fill-opacity="1">–5</text><text fill="rgb(0,0,0)" stroke="none" font-family="geogebra-sans-serif, sans-serif" font-size="12px" font-style="normal" font-weight="normal" text-decoration="normal" x="396" y="318" text-anchor="start" dominant-baseline="alphabetic" fill-opacity="1">–4</text><text fill="none" stroke="rgb(255,255,255)" font-family="geogebra-sans-serif, sans-serif" font-size="12px" font-style="normal" font-weight="normal" text-decoration="normal" x="396" y="318" text-anchor="start" dominant-baseline="alphabetic" stroke-opacity="1" stroke-linejoin="bevel" stroke-miterlimit="10" stroke-width="3">–4</text><text fill="rgb(0,0,0)" stroke="none" font-family="geogebra-sans-serif, sans-serif" font-size="12px" font-style="normal" font-weight="normal" text-decoration="normal" x="396" y="318" text-anchor="start" dominant-baseline="alphabetic" fill-opacity="1">–4</text><text fill="rgb(0,0,0)" stroke="none" font-family="geogebra-sans-serif, sans-serif" font-size="12px" font-style="normal" font-weight="normal" text-decoration="normal" x="396" y="258" text-anchor="start" dominant-baseline="alphabetic" fill-opacity="1">–3</text><text fill="none" stroke="rgb(255,255,255)" font-family="geogebra-sans-serif, sans-serif" font-size="12px" font-style="normal" font-weight="normal" text-decoration="normal" x="396" y="258" text-anchor="start" dominant-baseline="alphabetic" stroke-opacity="1" stroke-linejoin="bevel" stroke-miterlimit="10" stroke-width="3">–3</text><text fill="rgb(0,0,0)" stroke="none" font-family="geogebra-sans-serif, sans-serif" font-size="12px" font-style="normal" font-weight="normal" text-decoration="normal" x="396" y="258" text-anchor="start" dominant-baseline="alphabetic" fill-opacity="1">–3</text><text fill="rgb(0,0,0)" stroke="none" font-family="geogebra-sans-serif, sans-serif" font-size="12px" font-style="normal" font-weight="normal" text-decoration="normal" x="396" y="197" text-anchor="start" dominant-baseline="alphabetic" fill-opacity="1">–2</text><text fill="none" stroke="rgb(255,255,255)" font-family="geogebra-sans-serif, sans-serif" font-size="12px" font-style="normal" font-weight="normal" text-decoration="normal" x="396" y="197" text-anchor="start" dominant-baseline="alphabetic" stroke-opacity="1" stroke-linejoin="bevel" stroke-miterlimit="10" stroke-width="3">–2</text><text fill="rgb(0,0,0)" stroke="none" font-family="geogebra-sans-serif, sans-serif" font-size="12px" font-style="normal" font-weight="normal" text-decoration="normal" x="396" y="197" text-anchor="start" dominant-baseline="alphabetic" fill-opacity="1">–2</text><text fill="rgb(0,0,0)" stroke="none" font-family="geogebra-sans-serif, sans-serif" font-size="12px" font-style="normal" font-weight="normal" text-decoration="normal" x="396" y="137" text-anchor="start" dominant-baseline="alphabetic" fill-opacity="1">–1</text><text fill="none" stroke="rgb(255,255,255)" font-family="geogebra-sans-serif, sans-serif" font-size="12px" font-style="normal" font-weight="normal" text-decoration="normal" x="396" y="137" text-anchor="start" dominant-baseline="alphabetic" stroke-opacity="1" stroke-linejoin="bevel" stroke-miterlimit="10" stroke-width="3">–1</text><text fill="rgb(0,0,0)" stroke="none" font-family="geogebra-sans-serif, sans-serif" font-size="12px" font-style="normal" font-weight="normal" text-decoration="normal" x="396" y="137" text-anchor="start" dominant-baseline="alphabetic" fill-opacity="1">–1</text><text fill="rgb(0,0,0)" stroke="none" font-family="geogebra-sans-serif, sans-serif" font-size="12px" font-style="normal" font-weight="normal" text-decoration="normal" x="402" y="16" text-anchor="start" dominant-baseline="alphabetic" fill-opacity="1">1</text><text fill="none" stroke="rgb(255,255,255)" font-family="geogebra-sans-serif, sans-serif" font-size="12px" font-style="normal" font-weight="normal" text-decoration="normal" x="402" y="16" text-anchor="start" dominant-baseline="alphabetic" stroke-opacity="1" stroke-linejoin="bevel" stroke-miterlimit="10" stroke-width="3">1</text><text fill="rgb(0,0,0)" stroke="none" font-family="geogebra-sans-serif, sans-serif" font-size="12px" font-style="normal" font-weight="normal" text-decoration="normal" x="402" y="16" text-anchor="start" dominant-baseline="alphabetic" fill-opacity="1">1</text><text fill="rgb(0,0,0)" stroke="none" font-family="geogebra-sans-serif, sans-serif" font-size="12px" font-style="normal" font-weight="normal" text-decoration="normal" x="402" y="87" text-anchor="start" dominant-baseline="alphabetic" fill-opacity="1">0</text><text fill="none" stroke="rgb(255,255,255)" font-family="geogebra-sans-serif, sans-serif" font-size="12px" font-style="normal" font-weight="normal" text-decoration="normal" x="402" y="87" text-anchor="start" dominant-baseline="alphabetic" stroke-opacity="1" stroke-linejoin="bevel" stroke-miterlimit="10" stroke-width="3">0</text><text fill="rgb(0,0,0)" stroke="none" font-family="geogebra-sans-serif, sans-serif" font-size="12px" font-style="normal" font-weight="normal" text-decoration="normal" x="402" y="87" text-anchor="start" dominant-baseline="alphabetic" fill-opacity="1">0</text><path fill="none" stroke="rgb(46,125,50)" paint-order="fill stroke markers" d=" M 1 80.41699403326814 L 1 80.43810616149878 L 1 80.43810616149878 L 2.000000000000057 80.45932006439698 L 2.000000000000057 80.45932006439698 L 3.000000000000057 80.48063647967449 L 3.000000000000057 80.48063647967449 L 4.000000000000057 80.50205615219002 L 4.000000000000057 80.50205615219002 L 5.000000000000114 80.52357983403603 L 5.000000000000114 80.52357983403603 L 6.000000000000114 80.54520828462677 L 6.000000000000114 80.54520828462677 L 7.000000000000114 80.56694227078755 L 7.000000000000114 80.56694227078755 L 8.00000000000017 80.58878256684544 L 8.00000000000017 80.58878256684544 L 9.00000000000017 80.61072995472117 L 9.00000000000017 80.61072995472117 L 10.00000000000017 80.63278522402246 L 10.00000000000017 80.63278522402246 L 11.000000000000227 80.65494917213871 L 11.000000000000227 80.65494917213871 L 12.000000000000227 80.67722260433713 L 12.000000000000227 80.67722260433713 L 13.000000000000227 80.69960633386025 L 13.000000000000227 80.69960633386025 L 14.000000000000284 80.72210118202486 L 14.000000000000284 80.72210118202486 L 15.000000000000284 80.74470797832251 L 15.000000000000284 80.74470797832251 L 16.000000000000284 80.7674275605215 L 16.000000000000284 80.7674275605215 L 17.00000000000034 80.79026077477029 L 17.00000000000034 80.79026077477029 L 18.00000000000034 80.81320847570258 L 18.00000000000034 80.81320847570258 L 19.00000000000034 80.836271526544 L 19.00000000000034 80.836271526544 L 20.000000000000398 80.85945079922023 L 20.000000000000398 80.85945079922023 L 21.000000000000398 80.88274717446701 L 21.000000000000398 80.88274717446701 L 22.000000000000398 80.90616154194161 L 22.000000000000398 80.90616154194161 L 23.000000000000455 80.92969480033614 L 23.000000000000455 80.92969480033614 L 24.000000000000455 80.95334785749243 L 24.000000000000455 80.95334785749243 L 25.000000000000455 80.97712163051894 L 25.000000000000455 80.97712163051894 L 26.00000000000051 81.00101704590912 L 26.00000000000051 81.00101704590912 L 27.00000000000051 81.02503503966189 L 27.00000000000051 81.02503503966189 L 28.00000000000051 81.04917655740378 L 28.00000000000051 81.04917655740378 L 29.00000000000057 81.07344255451311 L 29.00000000000057 81.07344255451311 L 30.00000000000057 81.09783399624592 L 30.00000000000057 81.09783399624592 L 31.00000000000057 81.12235185786409 L 31.00000000000057 81.12235185786409 L 32.000000000000625 81.14699712476518 L 32.000000000000625 81.14699712476518 L 33.000000000000625 81.17177079261457 L 33.000000000000625 81.17177079261457 L 34.000000000000625 81.19667386747949 L 34.000000000000625 81.19667386747949 L 35.00000000000068 81.22170736596522 L 35.00000000000068 81.22170736596522 L 36.00000000000068 81.2468723153534 L 36.00000000000068 81.2468723153534 L 37.00000000000068 81.27216975374263 L 37.00000000000068 81.27216975374263 L 38.00000000000074 81.29760073019114 L 38.00000000000074 81.29760073019114 L 39.00000000000074 81.32316630486184 L 39.00000000000074 81.32316630486184 L 40.00000000000074 81.34886754916965 L 40.00000000000074 81.34886754916965 L 41.000000000000796 81.37470554593115 L 41.000000000000796 81.37470554593115 L 42.000000000000796 81.40068138951668 L 42.000000000000796 81.40068138951668 L 43.000000000000796 81.42679618600481 L 43.000000000000796 81.42679618600481 L 44.00000000000085 81.45305105333941 L 44.00000000000085 81.45305105333941 L 45.00000000000085 81.4794471214891 L 45.00000000000085 81.4794471214891 L 46.00000000000085 81.50598553260942 L 46.00000000000085 81.50598553260942 L 47.00000000000091 81.53266744120754 L 47.00000000000091 81.53266744120754 L 48.00000000000091 81.55949401430966 L 48.00000000000091 81.55949401430966 L 49.00000000000091 81.58646643163127 L 49.00000000000091 81.58646643163127 L 50.000000000000966 81.61358588574991 L 50.000000000000966 81.61358588574991 L 51.000000000000966 81.64085358228112 L 51.000000000000966 81.64085358228112 L 52.000000000000966 81.66827074005695 L 52.000000000000966 81.66827074005695 L 53.00000000000102 81.69583859130768 L 53.00000000000102 81.69583859130768 L 54.00000000000102 81.72355838184633 L 54.00000000000102 81.72355838184633 L 55.00000000000102 81.75143137125646 L 55.00000000000102 81.75143137125646 L 56.00000000000108 81.7794588330828 L 56.00000000000108 81.7794588330828 L 57.00000000000108 81.80764205502535 L 57.00000000000108 81.80764205502535 L 58.00000000000108 81.83598233913655 L 58.00000000000108 81.83598233913655 L 59.00000000000114 81.86448100202175 L 59.00000000000114 81.86448100202175 L 60.00000000000114 81.89313937504319 L 60.00000000000114 81.89313937504319 L 61.00000000000114 81.92195880452729 L 61.00000000000114 81.92195880452729 L 62.000000000001194 81.95094065197547 L 62.000000000001194 81.95094065197547 L 63.000000000001194 81.98008629427856 L 63.000000000001194 81.98008629427856 L 64.0000000000012 82.00939712393487 L 64.0000000000012 82.00939712393487 L 65.00000000000125 82.03887454927198 L 65.00000000000125 82.03887454927198 L 66.00000000000125 82.06851999467226 L 66.00000000000125 82.06851999467226 L 67.00000000000125 82.09833490080234 L 67.00000000000125 82.09833490080234 L 68.00000000000131 82.12832072484647 L 68.00000000000131 82.12832072484647 L 69.00000000000131 82.15847894074393 L 69.00000000000131 82.15847894074393 L 70.00000000000131 82.18881103943055 L 70.00000000000131 82.18881103943055 L 71.00000000000136 82.21931852908438 L 71.00000000000136 82.21931852908438 L 72.00000000000136 82.2500029353757 L 72.00000000000136 82.2500029353757 L 73.00000000000136 82.28086580172135 L 73.00000000000136 82.28086580172135 L 74.00000000000142 82.3119086895435 L 74.00000000000142 82.3119086895435 L 75.00000000000142 82.34313317853298 L 75.00000000000142 82.34313317853298 L 76.00000000000142 82.37454086691727 L 76.00000000000142 82.37454086691727 L 77.00000000000148 82.40613337173313 L 77.00000000000148 82.40613337173313 L 78.00000000000148 82.43791232910422 L 78.00000000000148 82.43791232910422 L 79.00000000000148 82.46987939452347 L 79.00000000000148 82.46987939452347 L 80.00000000000153 82.50203624314061 L 80.00000000000153 82.50203624314061 L 81.00000000000153 82.5343845700547 L 81.00000000000153 82.5343845700547 L 82.00000000000153 82.56692609061213 L 82.00000000000153 82.56692609061213 L 83.00000000000159 82.5996625407097 L 83.00000000000159 82.5996625407097 L 84.00000000000159 82.6325956771034 L 84.00000000000159 82.6325956771034 L 85.00000000000159 82.66572727772257 L 85.00000000000159 82.66572727772257 L 86.00000000000165 82.69905914198992 L 86.00000000000165 82.69905914198992 L 87.00000000000165 82.73259309114731 L 87.00000000000165 82.73259309114731 L 88.00000000000165 82.76633096858743 L 88.00000000000165 82.76633096858743 L 89.0000000000017 82.8002746401916 L 89.0000000000017 82.8002746401916 L 90.0000000000017 82.8344259946738 L 90.0000000000017 82.8344259946738 L 91.0000000000017 82.86878694393093 L 91.0000000000017 82.86878694393093 L 92.00000000000176 82.90335942339965 L 92.00000000000176 82.90335942339965 L 93.00000000000176 82.93814539241974 L 93.00000000000176 82.93814539241974 L 94.00000000000176 82.97314683460432 L 94.00000000000176 82.97314683460432 L 95.00000000000182 83.00836575821683 L 95.00000000000182 83.00836575821683 L 96.00000000000182 83.0438041965552 L 96.00000000000182 83.0438041965552 L 97.00000000000182 83.07946420834313 L 97.00000000000182 83.07946420834313 L 98.00000000000188 83.11534787812873 L 98.00000000000188 83.11534787812873 L 99.00000000000188 83.15145731669078 L 99.00000000000188 83.15145731669078 L 100.00000000000188 83.18779466145263 L 100.00000000000188 83.18779466145263 L 101.00000000000193 83.22436207690383 L 101.00000000000193 83.22436207690383 L 102.00000000000193 83.26116175503009 L 102.00000000000193 83.26116175503009 L 103.00000000000193 83.29819591575112 L 103.00000000000193 83.29819591575112 L 104.00000000000199 83.33546680736717 L 104.00000000000199 83.33546680736717 L 105.00000000000199 83.37297670701392 L 105.00000000000199 83.37297670701392 L 106.00000000000199 83.41072792112631 L 106.00000000000199 83.41072792112631 L 107.00000000000205 83.44872278591124 L 107.00000000000205 83.44872278591124 L 108.00000000000205 83.48696366782958 L 108.00000000000205 83.48696366782958 L 109.00000000000205 83.52545296408744 L 109.00000000000205 83.52545296408744 L 110.0000000000021 83.56419310313709 L 110.0000000000021 83.56419310313709 L 111.0000000000021 83.60318654518778 L 111.0000000000021 83.60318654518778 L 112.0000000000021 83.6424357827265 L 112.0000000000021 83.6424357827265 L 113.00000000000216 83.68194334104909 L 113.00000000000216 83.68194334104909 L 114.00000000000216 83.72171177880188 L 114.00000000000216 83.72171177880188 L 115.00000000000216 83.761743688534 L 115.00000000000216 83.761743688534 L 116.00000000000222 83.80204169726086 L 116.00000000000222 83.80204169726086 L 117.00000000000222 83.84260846703877 L 117.00000000000222 83.84260846703877 L 118.00000000000222 83.88344669555116 L 118.00000000000222 83.88344669555116 L 119.00000000000227 83.92455911670655 L 119.00000000000227 83.92455911670655 L 120.00000000000227 83.9659485012487 L 120.00000000000227 83.9659485012487 L 121.00000000000227 84.00761765737909 L 121.00000000000227 84.00761765737909 L 122.00000000000233 84.04956943139199 L 122.00000000000233 84.04956943139199 L 123.00000000000233 84.09180670832261 L 123.00000000000233 84.09180670832261 L 124.00000000000233 84.13433241260846 L 124.00000000000233 84.13433241260846 L 125.00000000000239 84.17714950876433 L 125.00000000000239 84.17714950876433 L 126.00000000000239 84.22026100207123 L 126.00000000000239 84.22026100207123 L 127.00000000000239 84.26366993927942 L 127.00000000000239 84.26366993927942 L 128.00000000000244 84.30737940932636 L 128.00000000000244 84.30737940932636 L 129.00000000000244 84.35139254406926 L 129.00000000000244 84.35139254406926 L 130.00000000000244 84.39571251903318 L 130.00000000000244 84.39571251903318 L 131.0000000000025 84.44034255417486 L 131.0000000000025 84.44034255417486 L 132.0000000000025 84.48528591466243 L 132.0000000000025 84.48528591466243 L 133.0000000000025 84.53054591167174 L 133.0000000000025 84.53054591167174 L 134.00000000000256 84.57612590319967 L 134.00000000000256 84.57612590319967 L 135.00000000000256 84.62202929489452 L 135.00000000000256 84.62202929489452 L 136.00000000000256 84.6682595409043 L 136.00000000000256 84.6682595409043 L 137.00000000000261 84.71482014474323 L 137.00000000000261 84.71482014474323 L 138.00000000000261 84.76171466017674 L 138.00000000000261 84.76171466017674 L 139.00000000000261 84.80894669212566 L 139.00000000000261 84.80894669212566 L 140.00000000000267 84.85651989759006 L 140.00000000000267 84.85651989759006 L 141.00000000000267 84.90443798659314 L 141.00000000000267 84.90443798659314 L 142.00000000000267 84.95270472314557 L 142.00000000000267 84.95270472314557 L 143.00000000000273 85.0013239262313 L 143.00000000000273 85.0013239262313 L 144.00000000000273 85.05029947081462 L 144.00000000000273 85.05029947081462 L 145.00000000000273 85.09963528886986 L 145.00000000000273 85.09963528886986 L 146.00000000000279 85.1493353704336 L 146.00000000000279 85.1493353704336 L 147.00000000000279 85.1994037646804 L 147.00000000000279 85.1994037646804 L 148.00000000000279 85.24984458102244 L 148.00000000000279 85.24984458102244 L 149.00000000000284 85.30066199023403 L 149.00000000000284 85.30066199023403 L 150.00000000000284 85.35186022560103 L 150.00000000000284 85.35186022560103 L 151.00000000000284 85.40344358409658 L 151.00000000000284 85.40344358409658 L 152.0000000000029 85.45541642758317 L 152.0000000000029 85.45541642758317 L 153.0000000000029 85.50778318404224 L 153.0000000000029 85.50778318404224 L 154.0000000000029 85.56054834883173 L 154.0000000000029 85.56054834883173 L 155.00000000000296 85.61371648597247 L 155.00000000000296 85.61371648597247 L 156.00000000000296 85.66729222946427 L 156.00000000000296 85.66729222946427 L 157.00000000000296 85.7212802846321 L 157.00000000000296 85.7212802846321 L 158.000000000003 85.77568542950387 L 158.000000000003 85.77568542950387 L 159.000000000003 85.8305125162199 L 159.000000000003 85.8305125162199 L 160.000000000003 85.88576647247557 L 160.000000000003 85.88576647247557 L 161.00000000000304 85.94145230299765 L 161.00000000000304 85.94145230299765 L 162.00000000000307 85.99757509105542 L 162.00000000000307 85.99757509105542 L 163.0000000000031 86.05414000000759 L 163.0000000000031 86.05414000000759 L 164.0000000000031 86.11115227488574 L 164.0000000000031 86.11115227488574 L 165.00000000000313 86.16861724401566 L 165.00000000000313 86.16861724401566 L 166.00000000000315 86.2265403206774 L 166.00000000000315 86.2265403206774 L 167.00000000000315 86.28492700480508 L 167.00000000000315 86.28492700480508 L 168.00000000000318 86.34378288472791 L 168.00000000000318 86.34378288472791 L 169.0000000000032 86.40311363895309 L 169.0000000000032 86.40311363895309 L 170.0000000000032 86.46292503799222 L 170.0000000000032 86.46292503799222 L 171.00000000000324 86.52322294623227 L 171.00000000000324 86.52322294623227 L 172.00000000000327 86.58401332385218 L 172.00000000000327 86.58401332385218 L 173.00000000000327 86.645302228787 L 173.00000000000327 86.645302228787 L 174.0000000000033 86.70709581874016 L 174.0000000000033 86.70709581874016 L 175.0000000000033 86.76940035324586 L 175.0000000000033 86.76940035324586 L 176.00000000000327 86.83222219578288 L 176.00000000000327 86.83222219578288 L 177.00000000000327 86.89556781594104 L 177.00000000000327 86.89556781594104 L 178.00000000000327 86.95944379164234 L 178.00000000000327 86.95944379164234 L 179.00000000000327 87.02385681141793 L 179.00000000000327 87.02385681141793 L 180.00000000000324 87.08881367674279 L 180.00000000000324 87.08881367674279 L 181.00000000000324 87.15432130442991 L 181.00000000000324 87.15432130442991 L 182.00000000000324 87.2203867290855 L 182.00000000000324 87.2203867290855 L 183.0000000000032 87.28701710562724 L 183.0000000000032 87.28701710562724 L 184.0000000000032 87.35421971186736 L 184.0000000000032 87.35421971186736 L 185.0000000000032 87.42200195116268 L 185.0000000000032 87.42200195116268 L 186.0000000000032 87.4903713551334 L 186.0000000000032 87.4903713551334 L 187.00000000000318 87.55933558645287 L 187.00000000000318 87.55933558645287 L 188.00000000000318 87.62890244171057 L 188.00000000000318 87.62890244171057 L 189.00000000000318 87.69907985435034 L 189.00000000000318 87.69907985435034 L 190.00000000000315 87.76987589768649 L 190.00000000000315 87.76987589768649 L 191.00000000000315 87.84129878799982 L 191.00000000000315 87.84129878799982 L 192.00000000000315 87.91335688771643 L 192.00000000000315 87.91335688771643 L 193.00000000000315 87.9860587086716 L 193.00000000000315 87.9860587086716 L 194.00000000000313 88.0594129154616 L 194.00000000000313 88.0594129154616 L 195.00000000000313 88.13342832888611 L 195.00000000000313 88.13342832888611 L 196.00000000000313 88.20811392948414 L 196.00000000000313 88.20811392948414 L 197.00000000000313 88.28347886116649 L 197.00000000000313 88.28347886116649 L 198.0000000000031 88.3595324349477 L 198.0000000000031 88.3595324349477 L 199.0000000000031 88.43628413278086 L 199.0000000000031 88.43628413278086 L 200.0000000000031 88.51374361149843 L 200.0000000000031 88.51374361149843 L 201.00000000000307 88.59192070686268 L 201.00000000000307 88.59192070686268 L 202.00000000000307 88.67082543772915 L 202.00000000000307 88.67082543772915 L 203.00000000000307 88.7504680103269 L 203.00000000000307 88.7504680103269 L 204.00000000000307 88.83085882265947 L 204.00000000000307 88.83085882265947 L 205.00000000000304 88.91200846903041 L 205.00000000000304 88.91200846903041 L 206.00000000000304 88.99392774469764 L 206.00000000000304 88.99392774469764 L 207.00000000000304 89.07662765066073 L 207.00000000000304 89.07662765066073 L 208.000000000003 89.16011939858585 L 208.000000000003 89.16011939858585 L 209.000000000003 89.24441441587277 L 209.000000000003 89.24441441587277 L 210.000000000003 89.32952435086885 L 210.000000000003 89.32952435086885 L 211.000000000003 89.415461078235 L 211.000000000003 89.415461078235 L 212.00000000000298 89.50223670446867 L 212.00000000000298 89.50223670446867 L 213.00000000000298 89.58986357358961 L 213.00000000000298 89.58986357358961 L 214.00000000000298 89.67835427299353 L 214.00000000000298 89.67835427299353 L 215.00000000000298 89.76772163947984 L 215.00000000000298 89.76772163947984 L 216.00000000000296 89.85797876545955 L 216.00000000000296 89.85797876545955 L 217.00000000000296 89.94913900534924 L 217.00000000000296 89.94913900534924 L 218.00000000000296 90.0412159821582 L 218.00000000000296 90.0412159821582 L 219.00000000000293 90.1342235942752 L 219.00000000000293 90.1342235942752 L 220.00000000000293 90.228176022462 L 220.00000000000293 90.228176022462 L 221.00000000000293 90.32308773706123 L 221.00000000000293 90.32308773706123 L 222.00000000000293 90.41897350542611 L 222.00000000000293 90.41897350542611 L 223.0000000000029 90.5158483995801 L 223.0000000000029 90.5158483995801 L 224.0000000000029 90.6137278041148 L 224.0000000000029 90.6137278041148 L 225.0000000000029 90.7126274243349 L 225.0000000000029 90.7126274243349 L 226.00000000000287 90.81256329465904 L 226.00000000000287 90.81256329465904 L 227.00000000000287 90.91355178728622 L 227.00000000000287 90.91355178728622 L 228.00000000000287 91.01560962113751 L 228.00000000000287 91.01560962113751 L 229.00000000000287 91.11875387108314 L 229.00000000000287 91.11875387108314 L 230.00000000000284 91.22300197746617 L 230.00000000000284 91.22300197746617 L 231.00000000000284 91.3283717559332 L 231.00000000000284 91.3283717559332 L 232.00000000000284 91.43488140758444 L 232.00000000000284 91.43488140758444 L 233.00000000000284 91.54254952945476 L 233.00000000000284 91.54254952945476 L 234.0000000000028 91.65139512533871 L 234.0000000000028 91.65139512533871 L 235.0000000000028 91.76143761697263 L 235.0000000000028 91.76143761697263 L 236.0000000000028 91.87269685558763 L 236.0000000000028 91.87269685558763 L 237.00000000000279 91.98519313384804 L 237.00000000000279 91.98519313384804 L 238.00000000000279 92.09894719819019 L 238.00000000000279 92.09894719819019 L 239.00000000000279 92.21398026157739 L 239.00000000000279 92.21398026157739 L 240.00000000000279 92.33031401668768 L 240.00000000000279 92.33031401668768 L 241.00000000000276 92.4479706495514 L 241.00000000000276 92.4479706495514 L 242.00000000000276 92.56697285365654 L 242.00000000000276 92.56697285365654 L 243.00000000000276 92.68734384454112 L 243.00000000000276 92.68734384454112 L 244.00000000000273 92.80910737489168 L 244.00000000000273 92.80910737489168 L 245.00000000000273 92.93228775016905 L 245.00000000000273 92.93228775016905 L 246.00000000000273 93.05690984478267 L 246.00000000000273 93.05690984478267 L 247.00000000000273 93.18299911883626 L 247.00000000000273 93.18299911883626 L 248.0000000000027 93.31058163546832 L 248.0000000000027 93.31058163546832 L 249.0000000000027 93.4396840788125 L 249.0000000000027 93.4396840788125 L 250.0000000000027 93.57033377260362 L 250.0000000000027 93.57033377260362 L 251.0000000000027 93.70255869945674 L 251.0000000000027 93.70255869945674 L 252.00000000000267 93.83638752084777 L 252.00000000000267 93.83638752084777 L 253.00000000000267 93.97184959782562 L 253.00000000000267 93.97184959782562 L 254.00000000000267 94.10897501248738 L 254.00000000000267 94.10897501248738 L 255.00000000000264 94.24779459024933 L 255.00000000000264 94.24779459024933 L 256.0000000000026 94.38833992294866 L 256.0000000000026 94.38833992294866 L 257.0000000000026 94.53064339281217 L 257.0000000000026 94.53064339281217 L 258.0000000000026 94.67473819733004 L 258.0000000000026 94.67473819733004 L 259.0000000000026 94.82065837507498 L 259.0000000000026 94.82065837507498 L 260.0000000000026 94.96843883250877 L 260.0000000000026 94.96843883250877 L 261.0000000000026 95.11811537182068 L 261.0000000000026 95.11811537182068 L 262.0000000000026 95.26972471984435 L 262.0000000000026 95.26972471984435 L 263.0000000000026 95.42330455810213 L 263.0000000000026 95.42330455810213 L 264.0000000000026 95.57889355402861 L 264.0000000000026 95.57889355402861 L 265.0000000000026 95.73653139342755 L 265.0000000000026 95.73653139342755 L 266.00000000000256 95.89625881421964 L 266.00000000000256 95.89625881421964 L 267.00000000000256 96.05811764154109 L 267.00000000000256 96.05811764154109 L 268.00000000000256 96.22215082425697 L 268.00000000000256 96.22215082425697 L 269.0000000000025 96.38840247295569 L 269.0000000000025 96.38840247295569 L 270.0000000000025 96.55691789949591 L 270.0000000000025 96.55691789949591 L 271.0000000000025 96.72774365817966 L 271.0000000000025 96.72774365817966 L 272.0000000000025 96.90092758863088 L 272.0000000000025 96.90092758863088 L 273.0000000000025 97.07651886046186 L 273.0000000000025 97.07651886046186 L 274.0000000000025 97.25456801981545 L 274.0000000000025 97.25456801981545 L 275.0000000000025 97.4351270378755 L 275.0000000000025 97.4351270378755 L 276.0000000000025 97.61824936144338 L 276.0000000000025 97.61824936144338 L 277.0000000000025 97.80398996568378 L 277.0000000000025 97.80398996568378 L 278.0000000000025 97.99240540914951 L 278.0000000000025 97.99240540914951 L 279.0000000000025 98.18355389120055 L 279.0000000000025 98.18355389120055 L 280.00000000000244 98.37749531194008 L 280.00000000000244 98.37749531194008 L 281.00000000000244 98.57429133479718 L 281.00000000000244 98.57429133479718 L 282.00000000000244 98.77400545189336 L 282.00000000000244 98.77400545189336 L 283.00000000000244 98.97670305233854 L 283.00000000000244 98.97670305233854 L 284.0000000000024 99.18245149361096 L 284.0000000000024 99.18245149361096 L 285.0000000000024 99.39132017618452 L 285.0000000000024 99.39132017618452 L 286.0000000000024 99.60338062157732 L 286.0000000000024 99.60338062157732 L 287.0000000000024 99.81870655400573 L 287.0000000000024 99.81870655400573 L 288.0000000000024 100.03737398583993 L 288.0000000000024 100.03737398583993 L 289.0000000000024 100.25946130706888 L 289.0000000000024 100.25946130706888 L 290.0000000000024 100.48504937899605 L 290.0000000000024 100.48504937899605 L 291.0000000000024 100.7142216324011 L 291.0000000000024 100.7142216324011 L 292.0000000000024 100.94706417041775 L 292.0000000000024 100.94706417041775 L 293.0000000000024 101.18366587639461 L 293.0000000000024 101.18366587639461 L 294.00000000000233 101.42411852702253 L 294.00000000000233 101.42411852702253 L 295.00000000000233 101.6685169110311 L 295.00000000000233 101.6685169110311 L 296.00000000000233 101.91695895377688 L 296.00000000000233 101.91695895377688 L 297.00000000000233 102.16954584806709 L 297.00000000000233 102.16954584806709 L 298.0000000000024 102.42638219158633 L 298.0000000000024 102.42638219158633 L 299.0000000000024 102.68757613131808 L 299.0000000000024 102.68757613131808 L 300.0000000000024 102.95323951538008 L 300.0000000000024 102.95323951538008 L 301.0000000000024 103.22348805272146 L 301.0000000000024 103.22348805272146 L 302.0000000000024 103.49844148116058 L 302.0000000000024 103.49844148116058 L 303.0000000000024 103.7782237442762 L 303.0000000000024 103.7782237442762 L 304.0000000000024 104.0629631777013 L 304.0000000000024 104.0629631777013 L 305.0000000000024 104.35279270540752 L 305.0000000000024 104.35279270540752 L 306.0000000000024 104.647850046611 L 306.0000000000024 104.647850046611 L 307.0000000000024 104.9482779339765 L 307.0000000000024 104.9482779339765 L 308.0000000000024 105.25422434384595 L 308.0000000000024 105.25422434384595 L 309.0000000000024 105.56584273927166 L 309.0000000000024 105.56584273927166 L 310.0000000000024 105.88329232669295 L 310.0000000000024 105.88329232669295 L 311.00000000000244 106.20673832715809 L 311.00000000000244 106.20673832715809 L 312.00000000000244 106.53635226306253 L 312.00000000000244 106.53635226306253 L 313.00000000000244 106.87231226144857 L 313.00000000000244 106.87231226144857 L 314.00000000000244 107.21480337499398 L 314.00000000000244 107.21480337499398 L 315.00000000000244 107.56401792190424 L 315.00000000000244 107.56401792190424 L 316.00000000000244 107.9201558460207 L 316.00000000000244 107.9201558460207 L 317.00000000000244 108.28342509856107 L 317.00000000000244 108.28342509856107 L 318.00000000000244 108.65404204302385 L 318.00000000000244 108.65404204302385 L 319.0000000000025 109.03223188491336 L 319.0000000000025 109.03223188491336 L 320.0000000000025 109.41822912807848 L 320.0000000000025 109.41822912807848 L 321.0000000000025 109.81227805960856 L 321.0000000000025 109.81227805960856 L 322.0000000000025 110.21463326539286 L 322.0000000000025 110.21463326539286 L 323.0000000000025 110.62556017863037 L 323.0000000000025 110.62556017863037 L 324.0000000000025 111.04533566377305 L 324.0000000000025 111.04533566377305 L 325.0000000000025 111.47424863860212 L 325.0000000000025 111.47424863860212 L 326.0000000000025 111.91260073737469 L 326.0000000000025 111.91260073737469 L 327.0000000000025 112.3607070182392 L 327.0000000000025 112.3607070182392 L 328.0000000000025 112.81889671840625 L 328.0000000000025 112.81889671840625 L 329.0000000000025 113.28751406087892 L 329.0000000000025 113.28751406087892 L 330.0000000000025 113.76691911689639 L 330.0000000000025 113.76691911689639 L 331.00000000000256 114.25748872863241 L 331.00000000000256 114.25748872863241 L 332.00000000000256 114.7596174971176 L 332.00000000000256 114.7596174971176 L 333.00000000000256 115.27371884082872 L 333.00000000000256 115.27371884082872 L 334.00000000000256 115.80022613091333 L 334.00000000000256 115.80022613091333 L 335.00000000000256 116.33959390960182 L 335.00000000000256 116.33959390960182 L 336.00000000000256 116.892299199006 L 336.00000000000256 116.892299199006 L 337.00000000000256 117.45884290822548 L 337.00000000000256 117.45884290822548 L 338.00000000000256 118.03975134748559 L 338.00000000000256 118.03975134748559 L 339.0000000000026 118.63557785892719 L 339.0000000000026 118.63557785892719 L 340.0000000000026 119.24690457466963 L 340.0000000000026 119.24690457466963 L 341.0000000000026 119.87434431388805 L 341.0000000000026 119.87434431388805 L 342.0000000000026 120.51854263190029 L 342.0000000000026 120.51854263190029 L 343.0000000000026 121.18018003566642 L 343.0000000000026 121.18018003566642 L 344.0000000000026 121.85997438168414 L 344.0000000000026 121.85997438168414 L 345.0000000000026 122.55868347404311 L 345.0000000000026 122.55868347404311 L 346.0000000000026 123.27710788240526 L 346.0000000000026 123.27710788240526 L 347.0000000000026 124.0160940019417 L 347.0000000000026 124.0160940019417 L 348.0000000000026 124.77653737981532 L 348.0000000000026 124.77653737981532 L 349.0000000000026 125.55938633569629 L 349.0000000000026 125.55938633569629 L 350.0000000000026 126.36564590708514 L 350.0000000000026 126.36564590708514 L 351.0000000000026 127.19638215395615 L 351.0000000000026 127.19638215395615 L 352.0000000000027 128.05272686148825 L 352.0000000000027 128.05272686148825 L 353.0000000000027 128.93588268450634 L 353.0000000000027 128.93588268450634 L 354.0000000000027 129.84712878280587 L 354.0000000000027 129.84712878280587 L 355.0000000000027 130.78782700289037 L 355.0000000000027 130.78782700289037 L 356.0000000000027 131.75942866894914 L 356.0000000000027 131.75942866894914 L 357.0000000000027 132.76348205429542 L 357.0000000000027 132.76348205429542 L 358.0000000000027 133.80164061416266 L 358.0000000000027 133.80164061416266 L 359.0000000000027 134.8756720719378 L 359.0000000000027 134.8756720719378 L 360.0000000000027 135.9874684638606 L 360.0000000000027 135.9874684638606 L 361.0000000000027 137.13905726225545 L 361.0000000000027 137.13905726225545 L 362.0000000000027 138.33261371486373 L 362.0000000000027 138.33261371486373 L 363.0000000000027 139.5704745582711 L 363.0000000000027 139.5704745582711 L 364.0000000000027 140.85515328732606 L 364.0000000000027 140.85515328732606 L 365.0000000000027 142.18935719049614 L 365.0000000000027 142.18935719049614 L 366.0000000000027 143.5760063941168 L 366.0000000000027 143.5760063941168 L 367.0000000000027 145.01825519745626 L 367.0000000000027 145.01825519745626 L 368.0000000000027 146.51951602666014 L 368.0000000000027 146.51951602666014 L 369.0000000000027 148.08348639045425 L 369.0000000000027 148.08348639045425 L 370.0000000000027 149.7141792858224 L 370.0000000000027 149.7141792858224 L 371.0000000000027 151.41595758002967 L 371.0000000000027 151.41595758002967 L 372.0000000000027 153.1935729891913 L 372.0000000000027 153.1935729891913 L 373.0000000000027 155.05221038665707 L 373.0000000000027 155.05221038665707 L 374.0000000000027 156.99753831128862 L 374.0000000000027 156.99753831128862 L 375.0000000000027 159.03576671190908 L 375.0000000000027 159.03576671190908 L 376.0000000000027 161.17371316700155 L 376.0000000000027 161.17371316700155 L 377.0000000000027 163.4188790672941 L 377.0000000000027 163.4188790672941 L 378.0000000000027 165.77953755496895 L 378.0000000000027 165.77953755496895 L 379.0000000000027 168.26483539206026 L 379.0000000000027 168.26483539206026 L 380.0000000000026 170.88491140187944 L 380.0000000000026 170.88491140187944 L 381.0000000000026 173.65103471679447 L 381.0000000000026 173.65103471679447 L 382.0000000000026 176.5757668072822 L 382.0000000000026 176.5757668072822 L 383.0000000000026 179.67315220576415 L 383.0000000000026 179.67315220576415 L 384.0000000000026 182.95894403424583 L 384.0000000000026 182.95894403424583 L 385.0000000000026 186.45087197778955 L 385.0000000000026 186.45087197778955 L 386.0000000000026 190.16896232566395 L 386.0000000000026 190.16896232566395 L 387.0000000000026 194.13592227815707 L 387.0000000000026 194.13592227815707 L 388.0000000000026 198.37760409600355 L 388.0000000000026 198.37760409600355 L 389.0000000000026 202.92356913911843 L 389.0000000000026 202.92356913911843 L 390.0000000000026 207.80777780764458 L 390.0000000000026 207.80777780764458 L 391.0000000000026 213.0694394394913 L 391.0000000000026 213.0694394394913 L 392.0000000000026 218.75406716851248 L 392.0000000000026 218.75406716851248 L 393.0000000000026 224.91479782434968 L 393.0000000000026 224.91479782434968 L 394.0000000000026 231.61405796247612 L 394.0000000000026 231.61405796247612 L 395.0000000000026 238.92568676167028 L 395.0000000000026 238.92568676167028 L 396.0000000000026 246.93766895455775 L 396.0000000000026 246.93766895455775 L 397.0000000000026 255.75569259346875 L 397.0000000000026 255.75569259346875 L 398.0000000000026 265.5078374725932 L 398.0000000000026 265.5078374725932 L 399.0000000000026 276.35083686139734 L 399.0000000000026 276.35083686139734 L 400.0000000000026 288.4785649954961 L 400.0000000000026 288.4785649954961 L 401.0000000000026 302.13373146302376 L 401.0000000000026 302.13373146302376 L 402.0000000000026 317.624291124249 L 402.0000000000026 317.624291124249 L 403.0000000000026 335.3469477448733 L 403.0000000000026 335.3469477448733 L 404.0000000000026 355.8216066740152 L 404.0000000000026 355.8216066740152 L 405.0000000000026 379.74322811821344 L 405.0000000000026 379.74322811821344 L 406.0000000000026 408.0622764260242 L 406.0000000000026 408.0622764260242 L 406.11563939049455 412 L 416.0000000000026 412 L 416.0000000000026 402 M 416.02676324001135 -10" stroke-opacity="0.8" stroke-linecap="round" stroke-linejoin="round" stroke-miterlimit="10" stroke-width="2.5"/><text fill="rgb(46,125,50)" stroke="none" font-family="geogebra-sans-serif, sans-serif" font-size="16px" font-style="normal" font-weight="normal" text-decoration="normal" x="24" y="80" text-anchor="start" dominant-baseline="alphabetic" fill-opacity="1">f</text><text fill="none" stroke="rgb(255,255,255)" font-family="geogebra-sans-serif, sans-serif" font-size="16px" font-style="normal" font-weight="normal" text-decoration="normal" x="24" y="80" text-anchor="start" dominant-baseline="alphabetic" stroke-opacity="1" stroke-linejoin="bevel" stroke-miterlimit="10" stroke-width="3">f</text><text fill="rgb(46,125,50)" stroke="none" font-family="geogebra-sans-serif, sans-serif" font-size="16px" font-style="normal" font-weight="normal" text-decoration="normal" x="24" y="80" text-anchor="start" dominant-baseline="alphabetic" fill-opacity="1">f</text><path fill="none" stroke="rgb(21,101,192)" paint-order="fill stroke markers" d=" M 0 80.41699403326814 L 3.46875 80.49066404875308 L 6.9375 80.56558079017711 L 10.40625 80.64177617533893 L 13.874999999999943 80.71928322093095 L 17.34375 80.79813609024188 L 20.8125 80.87837014336614 L 24.28125 80.96002199007489 L 27.75 81.0431295455149 L 31.21875 81.12773208891315 L 34.6875 81.2138703254784 L 38.15625 81.3015864517043 L 41.625 81.3909242242946 L 45.09375 81.48192903294654 L 48.5625 81.57464797724728 L 52.03125 81.66912994795646 L 55.5 81.76542571297038 L 58.96875 81.86358800828465 L 62.4375 81.9636716342983 L 65.90625 82.06573355782847 L 69.375 82.16983302023516 L 72.84375 82.27603165208664 L 76.3125 82.38439359483255 L 79.78124999999994 82.49498562998885 L 83.25 82.60787731638175 L 86.71875000000006 82.72314113604307 L 90.1875 82.84085264940016 L 93.65625 82.9610906604585 L 97.12500000000006 83.08393739273589 L 100.59375 83.20947867677366 L 104.0625 83.33780415012333 L 107.53125 83.4690074707882 L 111 83.6031865451877 M 111 83.6031865451877 L 114.46875 83.74044377181072 L 117.9375 83.88088630183228 L 121.40625 84.02462631808724 L 124.875 84.17178133392804 L 128.34375 84.32247451363908 L 131.8125 84.47683501624459 L 135.28125 84.6349983647266 L 138.75 84.79710684287161 L 142.21875 84.96330992218837 L 145.6875 85.13376472158929 L 149.15625 85.30863650280678 L 152.62500000000006 85.48809920482837 L 156.09375 85.67233602098321 L 159.5625 85.86154002270496 L 163.03125000000003 86.05591483443558 L 166.5 86.25567536462968 M 166.5 86.25567536462968 L 169.96875 86.46104859837628 L 173.43750000000003 86.67227445778381 M 173.43750000000003 86.67227445778381 L 174.87982625108782 86.76188576233753" stroke-opacity="0.8" stroke-linecap="round" stroke-linejoin="round" stroke-miterlimit="10" stroke-width="5.5"/></g></g></svg>