<svg version="1.1" xmlns="http://www.w3.org/2000/svg" xmlns:xlink="http://www.w3.org/1999/xlink" width="444" height="372"><defs><clipPath id="adbWQFxqtHfF"><path fill="none" stroke="none" d=" M 0 0 L 444 0 L 444 372 L 0 372 L 0 0 Z"/></clipPath></defs><g transform="scale(1,1)" clip-path="url(#adbWQFxqtHfF)"><g><rect fill="rgb(255,255,255)" stroke="none" x="0" y="0" width="444" height="372" fill-opacity="1"/><path fill="none" stroke="rgb(192,192,192)" paint-order="fill stroke markers" d=" M 87.5 0.5 L 87.5 372.5 M 147.5 0.5 L 147.5 372.5 M 208.5 0.5 L 208.5 372.5 M 268.5 0.5 L 268.5 372.5 M 329.5 0.5 L 329.5 372.5 M 389.5 0.5 L 389.5 372.5" stroke-opacity="1" stroke-linecap="round" stroke-linejoin="round" stroke-miterlimit="10"/><path fill="none" stroke="rgb(192,192,192)" paint-order="fill stroke markers" d=" M 2.5 0.5 L 2.5 372.5 M 14.5 0.5 L 14.5 372.5 M 38.5 0.5 L 38.5 372.5 M 51.5 0.5 L 51.5 372.5 M 63.5 0.5 L 63.5 372.5 M 75.5 0.5 L 75.5 372.5 M 99.5 0.5 L 99.5 372.5 M 111.5 0.5 L 111.5 372.5 M 123.5 0.5 L 123.5 372.5 M 135.5 0.5 L 135.5 372.5 M 159.5 0.5 L 159.5 372.5 M 172.5 0.5 L 172.5 372.5 M 184.5 0.5 L 184.5 372.5 M 196.5 0.5 L 196.5 372.5 M 220.5 0.5 L 220.5 372.5 M 232.5 0.5 L 232.5 372.5 M 244.5 0.5 L 244.5 372.5 M 256.5 0.5 L 256.5 372.5 M 280.5 0.5 L 280.5 372.5 M 293.5 0.5 L 293.5 372.5 M 305.5 0.5 L 305.5 372.5 M 317.5 0.5 L 317.5 372.5 M 341.5 0.5 L 341.5 372.5 M 353.5 0.5 L 353.5 372.5 M 365.5 0.5 L 365.5 372.5 M 377.5 0.5 L 377.5 372.5 M 401.5 0.5 L 401.5 372.5 M 414.5 0.5 L 414.5 372.5 M 426.5 0.5 L 426.5 372.5 M 438.5 0.5 L 438.5 372.5" stroke-opacity="0.23529411764705882" stroke-linecap="round" stroke-linejoin="round" stroke-miterlimit="10"/><path fill="none" stroke="rgb(192,192,192)" paint-order="fill stroke markers" d=" M 0.5 42.5 L 444.5 42.5 M 0.5 42.5 L 444.5 42.5 M 0.5 102.5 L 444.5 102.5 M 0.5 163.5 L 444.5 163.5 M 0.5 223.5 L 444.5 223.5 M 0.5 284.5 L 444.5 284.5" stroke-opacity="1" stroke-linecap="round" stroke-linejoin="round" stroke-miterlimit="10"/><path fill="none" stroke="rgb(192,192,192)" paint-order="fill stroke markers" d=" M 0.5 5.5 L 444.5 5.5 M 0.5 5.5 L 444.5 5.5 M 0.5 17.5 L 444.5 17.5 M 0.5 30.5 L 444.5 30.5 M 0.5 54.5 L 444.5 54.5 M 0.5 66.5 L 444.5 66.5 M 0.5 78.5 L 444.5 78.5 M 0.5 90.5 L 444.5 90.5 M 0.5 114.5 L 444.5 114.5 M 0.5 126.5 L 444.5 126.5 M 0.5 138.5 L 444.5 138.5 M 0.5 151.5 L 444.5 151.5 M 0.5 175.5 L 444.5 175.5 M 0.5 187.5 L 444.5 187.5 M 0.5 199.5 L 444.5 199.5 M 0.5 211.5 L 444.5 211.5 M 0.5 235.5 L 444.5 235.5 M 0.5 247.5 L 444.5 247.5 M 0.5 259.5 L 444.5 259.5 M 0.5 272.5 L 444.5 272.5 M 0.5 296.5 L 444.5 296.5 M 0.5 308.5 L 444.5 308.5 M 0.5 320.5 L 444.5 320.5 M 0.5 332.5 L 444.5 332.5 M 0.5 356.5 L 444.5 356.5 M 0.5 368.5 L 444.5 368.5" stroke-opacity="0.23529411764705882" stroke-linecap="round" stroke-linejoin="round" stroke-miterlimit="10"/><path fill="none" stroke="rgb(0,0,0)" paint-order="fill stroke markers" d=" M 26.5 2.5 L 26.5 372.5" stroke-opacity="1" stroke-miterlimit="10"/><path fill="none" stroke="rgb(0,0,0)" paint-order="fill stroke markers" d=" M 26.5 1.5 L 22.5 5.5" stroke-opacity="1" stroke-miterlimit="10"/><path fill="none" stroke="rgb(0,0,0)" paint-order="fill stroke markers" d=" M 26.5 1.5 L 30.5 5.5" stroke-opacity="1" stroke-miterlimit="10"/><path fill="none" stroke="rgb(0,0,0)" paint-order="fill stroke markers" d=" M 0.5 344.5 L 442.5 344.5" stroke-opacity="1" stroke-miterlimit="10"/><path fill="none" stroke="rgb(0,0,0)" paint-order="fill stroke markers" d=" M 443.5 344.5 L 439.5 340.5" stroke-opacity="1" stroke-miterlimit="10"/><path fill="none" stroke="rgb(0,0,0)" paint-order="fill stroke markers" d=" M 443.5 344.5 L 439.5 348.5" stroke-opacity="1" stroke-miterlimit="10"/><text fill="rgb(0,0,0)" stroke="none" font-family="geogebra-sans-serif, sans-serif" font-size="12px" font-style="normal" font-weight="normal" text-decoration="normal" x="85" y="360" text-anchor="start" dominant-baseline="alphabetic" fill-opacity="1">1</text><text fill="none" stroke="rgb(255,255,255)" font-family="geogebra-sans-serif, sans-serif" font-size="12px" font-style="normal" font-weight="normal" text-decoration="normal" x="85" y="360" text-anchor="start" dominant-baseline="alphabetic" stroke-opacity="1" stroke-linejoin="bevel" stroke-miterlimit="10" stroke-width="3">1</text><text fill="rgb(0,0,0)" stroke="none" font-family="geogebra-sans-serif, sans-serif" font-size="12px" font-style="normal" font-weight="normal" text-decoration="normal" x="85" y="360" text-anchor="start" dominant-baseline="alphabetic" fill-opacity="1">1</text><text fill="rgb(0,0,0)" stroke="none" font-family="geogebra-sans-serif, sans-serif" font-size="12px" font-style="normal" font-weight="normal" text-decoration="normal" x="145" y="360" text-anchor="start" dominant-baseline="alphabetic" fill-opacity="1">2</text><text fill="none" stroke="rgb(255,255,255)" font-family="geogebra-sans-serif, sans-serif" font-size="12px" font-style="normal" font-weight="normal" text-decoration="normal" x="145" y="360" text-anchor="start" dominant-baseline="alphabetic" stroke-opacity="1" stroke-linejoin="bevel" stroke-miterlimit="10" stroke-width="3">2</text><text fill="rgb(0,0,0)" stroke="none" font-family="geogebra-sans-serif, sans-serif" font-size="12px" font-style="normal" font-weight="normal" text-decoration="normal" x="145" y="360" text-anchor="start" dominant-baseline="alphabetic" fill-opacity="1">2</text><text fill="rgb(0,0,0)" stroke="none" font-family="geogebra-sans-serif, sans-serif" font-size="12px" font-style="normal" font-weight="normal" text-decoration="normal" x="206" y="360" text-anchor="start" dominant-baseline="alphabetic" fill-opacity="1">3</text><text fill="none" stroke="rgb(255,255,255)" font-family="geogebra-sans-serif, sans-serif" font-size="12px" font-style="normal" font-weight="normal" text-decoration="normal" x="206" y="360" text-anchor="start" dominant-baseline="alphabetic" stroke-opacity="1" stroke-linejoin="bevel" stroke-miterlimit="10" stroke-width="3">3</text><text fill="rgb(0,0,0)" stroke="none" font-family="geogebra-sans-serif, sans-serif" font-size="12px" font-style="normal" font-weight="normal" text-decoration="normal" x="206" y="360" text-anchor="start" dominant-baseline="alphabetic" fill-opacity="1">3</text><text fill="rgb(0,0,0)" stroke="none" font-family="geogebra-sans-serif, sans-serif" font-size="12px" font-style="normal" font-weight="normal" text-decoration="normal" x="266" y="360" text-anchor="start" dominant-baseline="alphabetic" fill-opacity="1">4</text><text fill="none" stroke="rgb(255,255,255)" font-family="geogebra-sans-serif, sans-serif" font-size="12px" font-style="normal" font-weight="normal" text-decoration="normal" x="266" y="360" text-anchor="start" dominant-baseline="alphabetic" stroke-opacity="1" stroke-linejoin="bevel" stroke-miterlimit="10" stroke-width="3">4</text><text fill="rgb(0,0,0)" stroke="none" font-family="geogebra-sans-serif, sans-serif" font-size="12px" font-style="normal" font-weight="normal" text-decoration="normal" x="266" y="360" text-anchor="start" dominant-baseline="alphabetic" fill-opacity="1">4</text><text fill="rgb(0,0,0)" stroke="none" font-family="geogebra-sans-serif, sans-serif" font-size="12px" font-style="normal" font-weight="normal" text-decoration="normal" x="327" y="360" text-anchor="start" dominant-baseline="alphabetic" fill-opacity="1">5</text><text fill="none" stroke="rgb(255,255,255)" font-family="geogebra-sans-serif, sans-serif" font-size="12px" font-style="normal" font-weight="normal" text-decoration="normal" x="327" y="360" text-anchor="start" dominant-baseline="alphabetic" stroke-opacity="1" stroke-linejoin="bevel" stroke-miterlimit="10" stroke-width="3">5</text><text fill="rgb(0,0,0)" stroke="none" font-family="geogebra-sans-serif, sans-serif" font-size="12px" font-style="normal" font-weight="normal" text-decoration="normal" x="327" y="360" text-anchor="start" dominant-baseline="alphabetic" fill-opacity="1">5</text><text fill="rgb(0,0,0)" stroke="none" font-family="geogebra-sans-serif, sans-serif" font-size="12px" font-style="normal" font-weight="normal" text-decoration="normal" x="387" y="360" text-anchor="start" dominant-baseline="alphabetic" fill-opacity="1">6</text><text fill="none" stroke="rgb(255,255,255)" font-family="geogebra-sans-serif, sans-serif" font-size="12px" font-style="normal" font-weight="normal" text-decoration="normal" x="387" y="360" text-anchor="start" dominant-baseline="alphabetic" stroke-opacity="1" stroke-linejoin="bevel" stroke-miterlimit="10" stroke-width="3">6</text><text fill="rgb(0,0,0)" stroke="none" font-family="geogebra-sans-serif, sans-serif" font-size="12px" font-style="normal" font-weight="normal" text-decoration="normal" x="387" y="360" text-anchor="start" dominant-baseline="alphabetic" fill-opacity="1">6</text><text fill="rgb(0,0,0)" stroke="none" font-family="geogebra-sans-serif, sans-serif" font-size="12px" font-style="normal" font-weight="normal" text-decoration="normal" x="12" y="289" text-anchor="start" dominant-baseline="alphabetic" fill-opacity="1">1</text><text fill="none" stroke="rgb(255,255,255)" font-family="geogebra-sans-serif, sans-serif" font-size="12px" font-style="normal" font-weight="normal" text-decoration="normal" x="12" y="289" text-anchor="start" dominant-baseline="alphabetic" stroke-opacity="1" stroke-linejoin="bevel" stroke-miterlimit="10" stroke-width="3">1</text><text fill="rgb(0,0,0)" stroke="none" font-family="geogebra-sans-serif, sans-serif" font-size="12px" font-style="normal" font-weight="normal" text-decoration="normal" x="12" y="289" text-anchor="start" dominant-baseline="alphabetic" fill-opacity="1">1</text><text fill="rgb(0,0,0)" stroke="none" font-family="geogebra-sans-serif, sans-serif" font-size="12px" font-style="normal" font-weight="normal" text-decoration="normal" x="12" y="228" text-anchor="start" dominant-baseline="alphabetic" fill-opacity="1">2</text><text fill="none" stroke="rgb(255,255,255)" font-family="geogebra-sans-serif, sans-serif" font-size="12px" font-style="normal" font-weight="normal" text-decoration="normal" x="12" y="228" text-anchor="start" dominant-baseline="alphabetic" stroke-opacity="1" stroke-linejoin="bevel" stroke-miterlimit="10" stroke-width="3">2</text><text fill="rgb(0,0,0)" stroke="none" font-family="geogebra-sans-serif, sans-serif" font-size="12px" font-style="normal" font-weight="normal" text-decoration="normal" x="12" y="228" text-anchor="start" dominant-baseline="alphabetic" fill-opacity="1">2</text><text fill="rgb(0,0,0)" stroke="none" font-family="geogebra-sans-serif, sans-serif" font-size="12px" font-style="normal" font-weight="normal" text-decoration="normal" x="12" y="168" text-anchor="start" dominant-baseline="alphabetic" fill-opacity="1">3</text><text fill="none" stroke="rgb(255,255,255)" font-family="geogebra-sans-serif, sans-serif" font-size="12px" font-style="normal" font-weight="normal" text-decoration="normal" x="12" y="168" text-anchor="start" dominant-baseline="alphabetic" stroke-opacity="1" stroke-linejoin="bevel" stroke-miterlimit="10" stroke-width="3">3</text><text fill="rgb(0,0,0)" stroke="none" font-family="geogebra-sans-serif, sans-serif" font-size="12px" font-style="normal" font-weight="normal" text-decoration="normal" x="12" y="168" text-anchor="start" dominant-baseline="alphabetic" fill-opacity="1">3</text><text fill="rgb(0,0,0)" stroke="none" font-family="geogebra-sans-serif, sans-serif" font-size="12px" font-style="normal" font-weight="normal" text-decoration="normal" x="12" y="107" text-anchor="start" dominant-baseline="alphabetic" fill-opacity="1">4</text><text fill="none" stroke="rgb(255,255,255)" font-family="geogebra-sans-serif, sans-serif" font-size="12px" font-style="normal" font-weight="normal" text-decoration="normal" x="12" y="107" text-anchor="start" dominant-baseline="alphabetic" stroke-opacity="1" stroke-linejoin="bevel" stroke-miterlimit="10" stroke-width="3">4</text><text fill="rgb(0,0,0)" stroke="none" font-family="geogebra-sans-serif, sans-serif" font-size="12px" font-style="normal" font-weight="normal" text-decoration="normal" x="12" y="107" text-anchor="start" dominant-baseline="alphabetic" fill-opacity="1">4</text><text fill="rgb(0,0,0)" stroke="none" font-family="geogebra-sans-serif, sans-serif" font-size="12px" font-style="normal" font-weight="normal" text-decoration="normal" x="12" y="47" text-anchor="start" dominant-baseline="alphabetic" fill-opacity="1">5</text><text fill="none" stroke="rgb(255,255,255)" font-family="geogebra-sans-serif, sans-serif" font-size="12px" font-style="normal" font-weight="normal" text-decoration="normal" x="12" y="47" text-anchor="start" dominant-baseline="alphabetic" stroke-opacity="1" stroke-linejoin="bevel" stroke-miterlimit="10" stroke-width="3">5</text><text fill="rgb(0,0,0)" stroke="none" font-family="geogebra-sans-serif, sans-serif" font-size="12px" font-style="normal" font-weight="normal" text-decoration="normal" x="12" y="47" text-anchor="start" dominant-baseline="alphabetic" fill-opacity="1">5</text><text fill="rgb(0,0,0)" stroke="none" font-family="geogebra-sans-serif, sans-serif" font-size="12px" font-style="normal" font-weight="normal" text-decoration="normal" x="12" y="360" text-anchor="start" dominant-baseline="alphabetic" fill-opacity="1">0</text><text fill="none" stroke="rgb(255,255,255)" font-family="geogebra-sans-serif, sans-serif" font-size="12px" font-style="normal" font-weight="normal" text-decoration="normal" x="12" y="360" text-anchor="start" dominant-baseline="alphabetic" stroke-opacity="1" stroke-linejoin="bevel" stroke-miterlimit="10" stroke-width="3">0</text><text fill="rgb(0,0,0)" stroke="none" font-family="geogebra-sans-serif, sans-serif" font-size="12px" font-style="normal" font-weight="normal" text-decoration="normal" x="12" y="360" text-anchor="start" dominant-baseline="alphabetic" fill-opacity="1">0</text><path fill="none" stroke="rgb(46,125,50)" paint-order="fill stroke markers" d=" M 302.98738394666134 382.00000000000006 L 25.99999999999999 382 L 25.99999999999999 372 M 26.025061095078755 -10 L 37.21650443921634 -9.999999999999998 L 37.999999999999986 15.482838229935851 L 37.999999999999986 15.482838229935851 L 38.999999999999986 42.640374979777505 L 38.999999999999986 42.640374979777505 L 39.999999999999986 65.65809795552354 L 39.999999999999986 65.65809795552354 L 40.999999999999986 85.4155602048391 L 40.999999999999986 85.4155602048391 L 41.99999999999999 102.55963144847402 L 41.99999999999999 102.55963144847402 L 42.999999999999986 117.57666955287615 L 42.999999999999986 117.57666955287615 L 43.999999999999986 130.83939851820946 L 43.999999999999986 130.83939851820946 L 44.999999999999986 142.63826410210595 L 44.999999999999986 142.63826410210595 L 45.999999999999986 153.20294990163646 L 45.999999999999986 153.20294990163646 L 46.999999999999986 162.71747716386554 L 46.999999999999986 162.71747716386554 L 47.999999999999986 171.33101491266612 L 47.999999999999986 171.33101491266612 L 48.999999999999986 179.16575787602252 L 48.999999999999986 179.16575787602252 L 49.999999999999986 186.32275998384213 L 49.999999999999986 186.32275998384213 L 50.99999999999998 192.88631675732537 L 50.99999999999998 192.88631675732537 L 51.99999999999998 198.92730095649705 L 51.99999999999998 198.92730095649705 L 52.99999999999998 204.50573200444046 L 52.99999999999998 204.50573200444046 L 53.99999999999997 209.67277695847204 L 53.99999999999997 209.67277695847204 L 54.99999999999997 214.47232453419178 L 54.99999999999997 214.47232453419178 L 55.99999999999997 218.94223481331986 L 55.99999999999997 218.94223481331986 L 56.99999999999997 223.11534000718024 L 56.99999999999997 223.11534000718024 L 57.99999999999997 227.02025227199988 L 57.99999999999997 227.02025227199988 L 58.99999999999997 230.68202062552587 L 58.99999999999997 230.68202062552587 L 59.99999999999997 234.1226688576313 L 59.99999999999997 234.1226688576313 L 60.999999999999986 237.36163884985248 L 60.999999999999986 237.36163884985248 L 61.999999999999986 240.41615815733763 L 61.999999999999986 240.41615815733763 L 62.999999999999986 243.30154653096398 L 62.999999999999986 243.30154653096398 L 63.999999999999986 246.03147289408514 L 63.999999999999986 246.03147289408514 L 64.99999999999999 248.61817187191537 L 64.99999999999999 248.61817187191537 L 65.99999999999999 251.07262711103232 L 65.99999999999999 251.07262711103232 L 66.99999999999999 253.40472718332018 L 66.99999999999999 253.40472718332018 L 68 255.6233987413785 L 68 255.6233987413785 L 69 257.736720706002 L 69 257.736720706002 L 70 259.7520225649283 L 70 259.7520225649283 L 71 261.67596930372156 L 71 261.67596930372156 L 72 263.5146350426987 L 72 263.5146350426987 L 73 265.2735670940664 L 73 265.2735670940664 L 74.00000000000001 266.95784186240604 L 74.00000000000001 266.95784186240604 L 75.00000000000001 268.5721137750493 L 75.00000000000001 268.5721137750493 L 76.00000000000001 270.1206582356367 L 76.00000000000001 270.1206582356367 L 77.00000000000001 271.6074094356087 L 77.00000000000001 271.6074094356087 L 78.00000000000001 273.03599372774227 L 78.00000000000001 273.03599372774227 L 79.00000000000001 274.40975915777466 L 79.00000000000001 274.40975915777466 L 80.00000000000001 275.73180166038696 L 80.00000000000001 275.73180166038696 L 81.00000000000003 277.00498835098637 L 81.00000000000003 277.00498835098637 L 82.00000000000003 278.2319782821063 L 82.00000000000003 278.2319782821063 L 83.00000000000003 279.4152409806685 L 83.00000000000003 279.4152409806685 L 84.00000000000003 280.5570730380602 L 84.00000000000003 280.5570730380602 L 85.00000000000003 281.6596129875442 L 85.00000000000003 281.6596129875442 L 86.00000000000003 282.724854671788 L 86.00000000000003 282.724854671788 L 87.00000000000004 283.7546592763117 L 87.00000000000004 283.7546592763117 L 88.00000000000003 284.75076618164536 L 88.00000000000003 284.75076618164536 L 89.00000000000003 285.71480276730927 L 89.00000000000003 285.71480276730927 L 90.00000000000003 286.6482932838593 L 90.00000000000003 286.6482932838593 L 91.00000000000003 287.55266689473746 L 91.00000000000003 287.55266689473746 L 92.00000000000001 288.42926497716667 L 92.00000000000001 288.42926497716667 L 93.00000000000001 289.2793477605352 L 93.00000000000001 289.2793477605352 L 94.00000000000001 290.1041003713624 L 94.00000000000001 290.1041003713624 L 95 290.90463834582675 L 95 290.90463834582675 L 96 291.6820126637766 L 96 291.6820126637766 L 97 292.43721435199393 L 97 292.43721435199393 L 97.99999999999999 293.17117869910726 L 97.99999999999999 293.17117869910726 L 98.99999999999999 293.88478911984686 L 98.99999999999999 293.88478911984686 L 99.99999999999999 294.5788807022125 L 99.99999999999999 294.5788807022125 L 100.99999999999997 295.2542434674983 L 100.99999999999997 295.2542434674983 L 101.99999999999997 295.9116253699341 L 101.99999999999997 295.9116253699341 L 102.99999999999997 296.55173505988574 L 102.99999999999997 296.55173505988574 L 103.99999999999996 297.1752444320773 L 103.99999999999996 297.1752444320773 L 104.99999999999996 297.7827909780974 L 104.99999999999996 297.7827909780974 L 105.99999999999996 298.3749799605056 L 105.99999999999996 298.3749799605056 L 106.99999999999994 298.9523864241255 L 106.99999999999994 298.9523864241255 L 107.99999999999994 299.51555705857396 L 107.99999999999994 299.51555705857396 L 108.99999999999994 300.0650119247066 L 108.99999999999994 300.0650119247066 L 109.99999999999994 300.6012460564411 L 109.99999999999994 300.6012460564411 L 110.99999999999993 301.1247309483275 L 110.99999999999993 301.1247309483275 L 111.99999999999993 301.6359159382624 L 111.99999999999993 301.6359159382624 L 112.99999999999993 302.13522949386834 L 112.99999999999993 302.13522949386834 L 113.99999999999991 302.6230804102809 L 113.99999999999991 302.6230804102809 L 114.99999999999991 303.0998589263791 L 114.99999999999991 303.0998589263791 L 115.99999999999991 303.56593776586584 L 115.99999999999991 303.56593776586584 L 116.9999999999999 304.0216731090359 L 116.9999999999999 304.0216731090359 L 117.9999999999999 304.46740550055546 L 117.9999999999999 304.46740550055546 L 118.9999999999999 304.9034606981162 L 118.9999999999999 304.9034606981162 L 119.99999999999989 305.3301504664076 L 119.99999999999989 305.3301504664076 L 120.99999999999989 305.7477733204757 L 120.99999999999989 305.7477733204757 L 121.99999999999989 306.1566152221913 L 121.99999999999989 306.1566152221913 L 122.99999999999987 306.55695023324404 L 122.99999999999987 306.55695023324404 L 123.99999999999987 306.94904112779466 L 123.99999999999987 306.94904112779466 L 124.99999999999987 307.33313996766395 L 124.99999999999987 307.33313996766395 L 125.99999999999986 307.7094886427044 L 125.99999999999986 307.7094886427044 L 126.99999999999986 308.07831937878757 L 126.99999999999986 308.07831937878757 L 127.99999999999986 308.43985521565105 L 127.99999999999986 308.43985521565105 L 128.99999999999983 308.79431045666877 L 128.99999999999983 308.79431045666877 L 129.99999999999983 309.14189109245245 L 129.99999999999983 309.14189109245245 L 130.99999999999983 309.482795200042 L 130.99999999999983 309.482795200042 L 131.99999999999983 309.81721331931186 L 131.99999999999983 309.81721331931186 L 132.99999999999983 310.14532880809475 L 132.99999999999983 310.14532880809475 L 133.99999999999983 310.4673181774147 L 133.99999999999983 310.4673181774147 L 134.99999999999983 310.7833514081168 L 134.99999999999983 310.7833514081168 L 135.9999999999998 311.0935922500864 L 135.9999999999998 311.0935922500864 L 136.9999999999998 311.3981985051658 L 136.9999999999998 311.3981985051658 L 137.9999999999998 311.6973222947943 L 137.9999999999998 311.6973222947943 L 138.9999999999998 311.99111031332575 L 138.9999999999998 311.99111031332575 L 139.9999999999998 312.2797040679101 L 139.9999999999998 312.2797040679101 L 140.9999999999998 312.5632401057623 L 140.9999999999998 312.5632401057623 L 141.99999999999977 312.8418502295874 L 141.99999999999977 312.8418502295874 L 142.99999999999977 313.11566170187274 L 142.99999999999977 313.11566170187274 L 143.99999999999977 313.3847974387158 L 143.99999999999977 313.3847974387158 L 144.99999999999977 313.64937619380584 L 144.99999999999977 313.64937619380584 L 145.99999999999977 313.90951273313834 L 145.99999999999977 313.90951273313834 L 146.99999999999977 314.16531800100284 L 146.99999999999977 314.16531800100284 L 147.99999999999977 314.4168992777481 L 147.99999999999977 314.4168992777481 L 148.99999999999977 314.6643603297955 L 148.99999999999977 314.6643603297955 L 149.99999999999977 314.9078015523425 L 149.99999999999977 314.9078015523425 L 150.99999999999974 315.1473201051674 L 150.99999999999974 315.1473201051674 L 151.99999999999974 315.38301004192175 L 151.99999999999974 315.38301004192175 L 152.99999999999974 315.61496243327196 L 152.99999999999974 315.61496243327196 L 153.99999999999974 315.8432654842285 L 153.99999999999974 315.8432654842285 L 154.99999999999974 316.06800464598075 L 154.99999999999974 316.06800464598075 L 155.99999999999974 316.289262722535 L 155.99999999999974 316.289262722535 L 156.99999999999974 316.50711997243474 L 156.99999999999974 316.50711997243474 L 157.99999999999974 316.72165420582724 L 157.99999999999974 316.72165420582724 L 158.99999999999972 316.9329408771209 L 158.99999999999972 316.9329408771209 L 159.99999999999972 317.14105317346747 L 159.99999999999972 317.14105317346747 L 160.99999999999972 317.3460620992849 L 160.99999999999972 317.3460620992849 L 161.99999999999972 317.5480365570278 L 161.99999999999972 317.5480365570278 L 162.99999999999972 317.74704342439696 L 162.99999999999972 317.74704342439696 L 163.99999999999972 317.94314762817106 L 163.99999999999972 317.94314762817106 L 164.99999999999972 318.13641221483044 L 164.99999999999972 318.13641221483044 L 165.9999999999997 318.32689841813544 L 165.9999999999997 318.32689841813544 L 166.9999999999997 318.51466572381094 L 166.9999999999997 318.51466572381094 L 167.9999999999997 318.6997719314805 L 167.9999999999997 318.6997719314805 L 168.9999999999997 318.88227321398597 L 168.9999999999997 318.88227321398597 L 169.9999999999997 319.06222417422043 L 169.9999999999997 319.06222417422043 L 170.9999999999997 319.2396778995944 L 170.9999999999997 319.2396778995944 L 171.99999999999966 319.414686014251 L 171.99999999999966 319.414686014251 L 172.99999999999966 319.5872987291364 L 172.99999999999966 319.5872987291364 L 173.99999999999966 319.7575648900287 L 173.99999999999966 319.7575648900287 L 174.99999999999966 319.9255320236206 L 174.99999999999966 319.9255320236206 L 175.99999999999966 320.09124638174893 L 175.99999999999966 320.09124638174893 L 176.99999999999966 320.25475298385544 L 176.99999999999966 320.25475298385544 L 177.99999999999963 320.4160956577622 L 177.99999999999963 320.4160956577622 L 178.99999999999963 320.5753170788388 L 178.99999999999963 320.5753170788388 L 179.99999999999963 320.7324588076343 L 179.99999999999963 320.7324588076343 L 180.99999999999963 320.88756132604505 L 180.99999999999963 320.88756132604505 L 181.99999999999963 321.0406640720823 L 181.99999999999963 321.0406640720823 L 182.99999999999963 321.1918054733048 L 182.99999999999963 321.1918054733048 L 183.9999999999996 321.34102297897397 L 183.9999999999996 321.34102297897397 L 184.9999999999996 321.4883530909893 L 184.9999999999996 321.4883530909893 L 185.9999999999996 321.633831393657 L 185.9999999999996 321.633831393657 L 186.9999999999996 321.77749258234314 L 186.9999999999996 321.77749258234314 L 187.9999999999996 321.9193704910603 L 187.9999999999996 321.9193704910603 L 188.9999999999996 322.05949811903247 L 188.9999999999996 322.05949811903247 L 189.9999999999996 322.1979076562833 L 189.9999999999996 322.1979076562833 L 190.99999999999957 322.33463050828874 L 190.99999999999957 322.33463050828874 L 191.99999999999957 322.4696973197341 L 191.99999999999957 322.4696973197341 L 192.99999999999957 322.6031379974128 L 192.99999999999957 322.6031379974128 L 193.99999999999957 322.7349817323027 L 193.99999999999957 322.7349817323027 L 194.99999999999957 322.8652570208553 L 194.99999999999957 322.8652570208553 L 195.99999999999957 322.99399168552935 L 195.99999999999957 322.99399168552935 L 196.99999999999955 323.1212128945997 L 196.99999999999955 323.1212128945997 L 197.99999999999955 323.24694718127233 L 197.99999999999955 323.24694718127233 L 198.99999999999955 323.37122046213284 L 198.99999999999955 323.37122046213284 L 199.99999999999955 323.4940580549554 L 199.99999999999955 323.4940580549554 L 200.99999999999955 323.6154846958979 L 200.99999999999955 323.6154846958979 L 201.99999999999955 323.73552455610854 L 201.99999999999955 323.73552455610854 L 202.99999999999952 323.85420125776585 L 202.99999999999952 323.85420125776585 L 203.99999999999952 323.97153788957627 L 203.99999999999952 323.97153788957627 L 204.99999999999952 324.0875570217488 L 204.99999999999952 324.0875570217488 L 205.99999999999952 324.2022807204686 L 205.99999999999952 324.2022807204686 L 206.99999999999952 324.3157305618884 L 206.99999999999952 324.3157305618884 L 207.99999999999952 324.42792764565615 L 207.99999999999952 324.42792764565615 L 208.99999999999952 324.5388926079974 L 208.99999999999952 324.5388926079974 L 209.9999999999995 324.64864563436856 L 209.9999999999995 324.64864563436856 L 210.9999999999995 324.75720647169817 L 210.9999999999995 324.75720647169817 L 211.9999999999995 324.8645944402315 L 211.9999999999995 324.8645944402315 L 212.9999999999995 324.9708284449926 L 212.9999999999995 324.9708284449926 L 213.9999999999995 325.0759269868801 L 213.9999999999995 325.0759269868801 L 214.9999999999995 325.1799081734076 L 214.9999999999995 325.1799081734076 L 215.99999999999946 325.2827897291047 L 215.99999999999946 325.2827897291047 L 216.99999999999946 325.3845890055886 L 216.99999999999946 325.3845890055886 L 217.99999999999946 325.4853229913205 L 217.99999999999946 325.4853229913205 L 218.99999999999946 325.58500832105676 L 218.99999999999946 325.58500832105676 L 219.99999999999946 325.6836612850063 L 219.99999999999946 325.6836612850063 L 220.99999999999946 325.7812978377055 L 220.99999999999946 325.7812978377055 L 221.99999999999943 325.87793360661976 L 221.99999999999943 325.87793360661976 L 222.99999999999943 325.97358390048197 L 222.99999999999943 325.97358390048197 L 223.99999999999943 326.0682637173775 L 223.99999999999943 326.0682637173775 L 224.99999999999943 326.1619877525835 L 224.99999999999943 326.1619877525835 L 225.99999999999943 326.2547704061734 L 225.99999999999943 326.2547704061734 L 226.99999999999943 326.3466257903917 L 226.99999999999943 326.3466257903917 L 227.99999999999943 326.43756773681037 L 227.99999999999943 326.43756773681037 L 228.9999999999994 326.5276098032714 L 228.9999999999994 326.5276098032714 L 229.9999999999994 326.61676528062543 L 229.9999999999994 326.61676528062543 L 230.9999999999994 326.7050471992716 L 230.9999999999994 326.7050471992716 L 231.9999999999994 326.79246833550616 L 231.9999999999994 326.79246833550616 L 232.9999999999994 326.8790412176868 L 232.9999999999994 326.8790412176868 L 233.9999999999994 326.9647781322177 L 233.9999999999994 326.9647781322177 L 234.99999999999937 327.04969112936243 L 234.99999999999937 327.04969112936243 L 235.99999999999937 327.1337920288901 L 235.99999999999937 327.1337920288901 L 236.99999999999937 327.21709242556017 L 236.99999999999937 327.21709242556017 L 237.99999999999937 327.29960369445115 L 237.99999999999937 327.29960369445115 L 238.99999999999937 327.3813369961392 L 238.99999999999937 327.3813369961392 L 239.99999999999937 327.4623032817304 L 239.99999999999937 327.4623032817304 L 240.99999999999935 327.542513297752 L 240.99999999999935 327.542513297752 L 241.99999999999935 327.62197759090765 L 241.99999999999935 327.62197759090765 L 242.99999999999935 327.7007065127002 L 242.99999999999935 327.7007065127002 L 243.99999999999935 327.7787102239271 L 243.99999999999935 327.7787102239271 L 244.99999999999935 327.8559986990517 L 244.99999999999935 327.8559986990517 L 245.99999999999935 327.9325817304556 L 245.99999999999935 327.9325817304556 L 246.99999999999935 328.0084689325739 L 246.99999999999935 328.0084689325739 L 247.99999999999932 328.0836697459197 L 247.99999999999932 328.0836697459197 L 248.99999999999932 328.1581934409985 L 248.99999999999932 328.1581934409985 L 249.99999999999932 328.2320491221185 L 249.99999999999932 328.2320491221185 L 250.99999999999932 328.305245731098 L 250.99999999999932 328.305245731098 L 251.99999999999932 328.3777920508745 L 251.99999999999932 328.3777920508745 L 252.99999999999932 328.4496967090181 L 252.99999999999932 328.4496967090181 L 253.9999999999993 328.5209681811514 L 253.9999999999993 328.5209681811514 L 254.9999999999993 328.5916147942803 L 254.9999999999993 328.5916147942803 L 255.9999999999993 328.66164473003715 L 255.9999999999993 328.66164473003715 L 256.99999999999926 328.73106602783935 L 256.99999999999926 328.73106602783935 L 257.99999999999926 328.7998865879659 L 257.99999999999926 328.7998865879659 L 258.99999999999926 328.8681141745547 L 258.99999999999926 328.8681141745547 L 259.99999999999926 328.93575641852243 L 259.99999999999926 328.93575641852243 L 260.99999999999926 329.0028208204096 L 260.99999999999926 329.0028208204096 L 261.99999999999926 329.06931475315344 L 261.99999999999926 329.06931475315344 L 262.99999999999926 329.1352454647894 L 262.99999999999926 329.1352454647894 L 263.99999999999926 329.2006200810856 L 263.99999999999926 329.2006200810856 L 264.99999999999926 329.2654456081094 L 264.99999999999926 329.2654456081094 L 265.99999999999926 329.3297289347311 L 265.99999999999926 329.3297289347311 L 266.9999999999992 329.39347683506367 L 266.9999999999992 329.39347683506367 L 267.9999999999992 329.4566959708429 L 267.9999999999992 329.4566959708429 L 268.9999999999992 329.5193928937477 L 268.9999999999992 329.5193928937477 L 269.99999999999926 329.58157404766393 L 269.99999999999926 329.58157404766393 L 270.99999999999926 329.6432457708919 L 270.99999999999926 329.6432457708919 L 271.99999999999926 329.7044142983001 L 271.99999999999926 329.7044142983001 L 272.9999999999993 329.76508576342667 L 272.9999999999993 329.76508576342667 L 273.9999999999993 329.8252662005295 L 273.9999999999993 329.8252662005295 L 274.9999999999994 329.8849615465868 L 274.9999999999994 329.8849615465868 L 275.9999999999994 329.94417764324965 L 275.9999999999994 329.94417764324965 L 276.9999999999994 330.0029202387477 L 276.9999999999994 330.0029202387477 L 277.99999999999943 330.0611949897492 L 277.99999999999943 330.0611949897492 L 278.99999999999943 330.1190074631766 L 278.99999999999943 330.1190074631766 L 279.9999999999995 330.1763631379798 L 279.9999999999995 330.1763631379798 L 280.9999999999995 330.23326740686673 L 280.9999999999995 330.23326740686673 L 281.9999999999995 330.28972557799364 L 281.9999999999995 330.28972557799364 L 282.99999999999955 330.34574287661576 L 282.99999999999955 330.34574287661576 L 283.99999999999955 330.4013244466995 L 283.99999999999955 330.4013244466995 L 284.9999999999996 330.4564753524968 L 284.9999999999996 330.4564753524968 L 285.9999999999996 330.5112005800837 L 285.9999999999996 330.5112005800837 L 286.99999999999966 330.5655050388627 L 286.99999999999966 330.5655050388627 L 287.99999999999966 330.61939356303094 L 287.99999999999966 330.61939356303094 L 288.99999999999966 330.67287091301506 L 288.99999999999966 330.67287091301506 L 289.9999999999997 330.7259417768728 L 289.9999999999997 330.7259417768728 L 290.9999999999997 330.77861077166284 L 290.9999999999997 330.77861077166284 L 291.9999999999998 330.8308824447843 L 291.9999999999998 330.8308824447843 L 292.9999999999998 330.8827612752851 L 292.9999999999998 330.8827612752851 L 293.9999999999998 330.9342516751414 L 293.9999999999998 330.9342516751414 L 294.99999999999983 330.98535799050865 L 294.99999999999983 330.98535799050865 L 295.99999999999983 331.03608450294416 L 295.99999999999983 331.03608450294416 L 296.9999999999999 331.0864354306032 L 296.9999999999999 331.0864354306032 L 297.9999999999999 331.1364149294078 L 297.9999999999999 331.1364149294078 L 298.9999999999999 331.1860270941906 L 298.9999999999999 331.1860270941906 L 299.99999999999994 331.2352759598131 L 299.99999999999994 331.2352759598131 L 300.99999999999994 331.2841655022595 L 300.99999999999994 331.2841655022595 L 301.99999999999994 331.3326996397068 L 301.99999999999994 331.3326996397068 L 303 331.3808822335715 L 303 331.3808822335715 L 304 331.4287170895338 L 304 331.4287170895338 L 305.00000000000006 331.4762079585395 L 305.00000000000006 331.4762079585395 L 306.00000000000006 331.52335853778055 L 306.00000000000006 331.52335853778055 L 307.00000000000006 331.5701724716547 L 307.00000000000006 331.5701724716547 L 308.0000000000001 331.61665335270413 L 308.0000000000001 331.61665335270413 L 309.0000000000001 331.66280472253476 L 309.0000000000001 331.66280472253476 L 310.00000000000017 331.7086300727157 L 310.00000000000017 331.7086300727157 L 311.00000000000017 331.7541328456599 L 311.00000000000017 331.7541328456599 L 312.00000000000017 331.79931643548605 L 312.00000000000017 331.79931643548605 L 313.0000000000002 331.8441841888626 L 313.0000000000002 331.8441841888626 L 314.0000000000002 331.8887394058339 L 314.0000000000002 331.8887394058339 L 315.0000000000003 331.9329853406299 L 315.0000000000003 331.9329853406299 L 316.0000000000003 331.9769252024575 L 316.0000000000003 331.9769252024575 L 317.0000000000003 332.0205621562774 L 317.0000000000003 332.0205621562774 L 318.00000000000034 332.06389932356336 L 318.00000000000034 332.06389932356336 L 319.00000000000034 332.10693978304715 L 319.00000000000034 332.10693978304715 L 320.0000000000004 332.149686571447 L 320.0000000000004 332.149686571447 L 321.0000000000004 332.1921426841822 L 321.0000000000004 332.1921426841822 L 322.0000000000004 332.23431107607286 L 322.0000000000004 332.23431107607286 L 323.00000000000045 332.2761946620251 L 323.00000000000045 332.2761946620251 L 324.00000000000045 332.31779631770314 L 324.00000000000045 332.31779631770314 L 325.0000000000005 332.359118880187 L 325.0000000000005 332.359118880187 L 326.0000000000005 332.40016514861793 L 326.0000000000005 332.40016514861793 L 327.0000000000005 332.44093788483 L 327.0000000000005 332.44093788483 L 328.00000000000057 332.4814398139701 L 328.00000000000057 332.4814398139701 L 329.00000000000057 332.52167362510454 L 329.00000000000057 332.52167362510454 L 330.0000000000006 332.5616419718147 L 330.0000000000006 332.5616419718147 L 331.0000000000006 332.60134747278 L 331.0000000000006 332.60134747278 L 332.0000000000006 332.6407927123502 L 332.0000000000006 332.6407927123502 L 333.0000000000007 332.679980241106 L 333.0000000000007 332.679980241106 L 334.0000000000007 332.7189125764086 L 334.0000000000007 332.7189125764086 L 335.0000000000007 332.75759220293924 L 335.0000000000007 332.75759220293924 L 336.00000000000074 332.7960215732271 L 336.00000000000074 332.7960215732271 L 337.00000000000074 332.8342031081685 L 337.00000000000074 332.8342031081685 L 338.0000000000008 332.8721391975346 L 338.0000000000008 332.8721391975346 L 339.0000000000008 332.90983220047036 L 339.0000000000008 332.90983220047036 L 340.0000000000008 332.9472844459834 L 340.0000000000008 332.9472844459834 L 341.00000000000085 332.98449823342395 L 341.00000000000085 332.98449823342395 L 342.00000000000085 333.02147583295516 L 342.00000000000085 333.02147583295516 L 343.0000000000009 333.05821948601493 L 343.0000000000009 333.05821948601493 L 344.0000000000009 333.09473140576875 L 344.0000000000009 333.09473140576875 L 345.0000000000009 333.13101377755396 L 345.0000000000009 333.13101377755396 L 346.00000000000097 333.16706875931595 L 346.00000000000097 333.16706875931595 L 347.00000000000097 333.202898482036 L 347.00000000000097 333.202898482036 L 348.000000000001 333.2385050501509 L 348.000000000001 333.2385050501509 L 349.000000000001 333.27389054196516 L 349.000000000001 333.27389054196516 L 350.000000000001 333.3090570100554 L 350.000000000001 333.3090570100554 L 351.0000000000011 333.3440064816672 L 351.0000000000011 333.3440064816672 L 352.0000000000011 333.3787409591045 L 352.0000000000011 333.3787409591045 L 353.00000000000114 333.41326242011235 L 353.00000000000114 333.41326242011235 L 354.00000000000114 333.44757281825184 L 354.00000000000114 333.44757281825184 L 355.00000000000114 333.4816740832691 L 355.00000000000114 333.4816740832691 L 356.0000000000012 333.51556812145685 L 356.0000000000012 333.51556812145685 L 357.0000000000012 333.5492568160094 L 357.0000000000012 333.5492568160094 L 358.00000000000125 333.58274202737203 L 358.00000000000125 333.58274202737203 L 359.00000000000125 333.61602559358283 L 359.00000000000125 333.61602559358283 L 360.00000000000125 333.64910933060946 L 360.00000000000125 333.64910933060946 L 361.0000000000013 333.6819950326793 L 361.0000000000013 333.6819950326793 L 362.0000000000013 333.71468447260384 L 362.0000000000013 333.71468447260384 L 363.0000000000013 333.747179402097 L 363.0000000000013 333.747179402097 L 364.00000000000136 333.7794815520885 L 364.00000000000136 333.7794815520885 L 365.00000000000136 333.81159263303084 L 365.00000000000136 333.81159263303084 L 366.0000000000014 333.84351433520135 L 366.0000000000014 333.84351433520135 L 367.0000000000014 333.87524832899885 L 367.0000000000014 333.87524832899885 L 368.0000000000014 333.90679626523485 L 368.0000000000014 333.90679626523485 L 369.0000000000015 333.9381597754199 L 369.0000000000015 333.9381597754199 L 370.0000000000015 333.9693404720449 L 370.0000000000015 333.9693404720449 L 371.00000000000153 334.00033994885746 L 371.00000000000153 334.00033994885746 L 372.00000000000153 334.0311597811333 L 372.00000000000153 334.0311597811333 L 373.00000000000153 334.06180152594317 L 373.00000000000153 334.06180152594317 L 374.0000000000016 334.0922667224151 L 374.0000000000016 334.0922667224151 L 375.0000000000016 334.1225568919922 L 375.0000000000016 334.1225568919922 L 376.00000000000165 334.1526735386857 L 376.00000000000165 334.1526735386857 L 377.00000000000165 334.1826181493242 L 377.00000000000165 334.1826181493242 L 378.00000000000165 334.21239219379794 L 378.00000000000165 334.21239219379794 L 379.0000000000017 334.2419971252998 L 379.0000000000017 334.2419971252998 L 380.0000000000017 334.2714343805614 L 380.0000000000017 334.2714343805614 L 381.00000000000176 334.30070538008556 L 381.00000000000176 334.30070538008556 L 382.00000000000176 334.3298115283749 L 382.00000000000176 334.3298115283749 L 383.00000000000176 334.3587542141564 L 383.00000000000176 334.3587542141564 L 384.0000000000018 334.38753481060246 L 384.0000000000018 334.38753481060246 L 385.0000000000018 334.4161546755477 L 385.0000000000018 334.4161546755477 L 386.0000000000019 334.4446151517029 L 386.0000000000019 334.4446151517029 L 387.0000000000019 334.4729175668647 L 387.0000000000019 334.4729175668647 L 388.0000000000019 334.50106323412217 L 388.0000000000019 334.50106323412217 L 389.00000000000193 334.52905345206017 L 389.00000000000193 334.52905345206017 L 390.00000000000193 334.55688950495846 L 390.00000000000193 334.55688950495846 L 391.000000000002 334.5845726629889 L 391.000000000002 334.5845726629889 L 392.000000000002 334.6121041824078 L 392.000000000002 334.6121041824078 L 393.000000000002 334.6394853057468 L 393.000000000002 334.6394853057468 L 394.00000000000205 334.6667172619991 L 394.00000000000205 334.6667172619991 L 395.00000000000205 334.69380126680386 L 395.00000000000205 334.69380126680386 L 396.00000000000205 334.7207385226267 L 396.00000000000205 334.7207385226267 L 397.0000000000021 334.7475302189379 L 397.0000000000021 334.7475302189379 L 398.0000000000021 334.77417753238745 L 398.0000000000021 334.77417753238745 L 399.00000000000216 334.8006816269772 L 399.00000000000216 334.8006816269772 L 400.00000000000216 334.8270436542305 L 400.00000000000216 334.8270436542305 L 401.00000000000216 334.8532647533588 L 401.00000000000216 334.8532647533588 L 402.0000000000022 334.87934605142607 L 402.0000000000022 334.87934605142607 L 403.0000000000022 334.90528866350974 L 403.0000000000022 334.90528866350974 L 404.0000000000023 334.93109369286026 L 404.0000000000023 334.93109369286026 L 405.0000000000023 334.9567622310569 L 405.0000000000023 334.9567622310569 L 406.0000000000023 334.98229535816233 L 406.0000000000023 334.98229535816233 L 407.00000000000233 335.00769414287333 L 407.00000000000233 335.00769414287333 L 408.00000000000233 335.0329596426705 L 408.00000000000233 335.0329596426705 L 409.0000000000024 335.0580929039649 L 409.0000000000024 335.0580929039649 L 410.0000000000024 335.0830949622423 L 410.0000000000024 335.0830949622423 L 411.0000000000024 335.10796684220554 L 411.0000000000024 335.10796684220554 L 412.00000000000244 335.13270955791467 L 412.00000000000244 335.13270955791467 L 413.00000000000244 335.15732411292447 L 413.00000000000244 335.15732411292447 L 414.0000000000025 335.1818115004203 L 414.0000000000025 335.1818115004203 L 415.0000000000025 335.2061727033517 L 415.0000000000025 335.2061727033517 L 416.0000000000025 335.23040869456383 L 416.0000000000025 335.23040869456383 L 417.00000000000256 335.2545204369272 L 417.00000000000256 335.2545204369272 L 418.00000000000256 335.2785088834647 L 418.00000000000256 335.2785088834647 L 419.0000000000026 335.3023749774778 L 419.0000000000026 335.3023749774778 L 420.0000000000026 335.3261196526697 L 420.0000000000026 335.3261196526697 L 421.0000000000026 335.34974383326727 L 421.0000000000026 335.34974383326727 L 422.0000000000027 335.3732484341409 L 422.0000000000027 335.3732484341409 L 423.0000000000027 335.3966343609229 L 423.0000000000027 335.3966343609229 L 424.0000000000027 335.41990251012334 L 424.0000000000027 335.41990251012334 L 425.00000000000273 335.44305376924507 L 425.00000000000273 335.44305376924507 L 426.00000000000273 335.4660890168961 L 426.00000000000273 335.4660890168961 L 427.0000000000028 335.4890091229013 L 427.0000000000028 335.4890091229013 L 428.0000000000028 335.5118149484112 L 428.0000000000028 335.5118149484112 L 429.0000000000028 335.5345073460107 L 429.0000000000028 335.5345073460107 L 430.00000000000284 335.5570871598244 L 430.00000000000284 335.5570871598244 L 431.00000000000284 335.57955522562196 L 431.00000000000284 335.57955522562196 L 432.0000000000029 335.60191237092096 L 432.0000000000029 335.60191237092096 L 433.0000000000029 335.6241594150884 L 433.0000000000029 335.6241594150884 L 434.0000000000029 335.646297169441 L 434.0000000000029 335.646297169441 L 435.00000000000296 335.6683264373438 L 435.00000000000296 335.6683264373438 L 436.00000000000296 335.6902480143071 L 436.00000000000296 335.6902480143071 L 437.000000000003 335.7120626880825 L 437.000000000003 335.7120626880825 L 438.000000000003 335.73377123875713 L 438.000000000003 335.73377123875713 L 439.000000000003 335.75537443884673 L 439.000000000003 335.75537443884673 L 440.00000000000307 335.7768730533872 L 440.00000000000307 335.7768730533872 L 441.00000000000307 335.79826784002483 L 441.00000000000307 335.79826784002483 L 442.0000000000031 335.8195595491056 L 442.0000000000031 335.8195595491056 L 443.0000000000031 335.8407489237625 L 443.0000000000031 335.8407489237625 L 444.0000000000031 335.86183670000236" stroke-opacity="0.8" stroke-linecap="round" stroke-linejoin="round" stroke-miterlimit="10" stroke-width="2.5"/><text fill="rgb(46,125,50)" stroke="none" font-family="geogebra-sans-serif, sans-serif" font-size="16px" font-style="normal" font-weight="normal" text-decoration="normal" x="37" y="24" text-anchor="start" dominant-baseline="alphabetic" fill-opacity="1">f</text><text fill="none" stroke="rgb(255,255,255)" font-family="geogebra-sans-serif, sans-serif" font-size="16px" font-style="normal" font-weight="normal" text-decoration="normal" x="37" y="24" text-anchor="start" dominant-baseline="alphabetic" stroke-opacity="1" stroke-linejoin="bevel" stroke-miterlimit="10" stroke-width="3">f</text><text fill="rgb(46,125,50)" stroke="none" font-family="geogebra-sans-serif, sans-serif" font-size="16px" font-style="normal" font-weight="normal" text-decoration="normal" x="37" y="24" text-anchor="start" dominant-baseline="alphabetic" fill-opacity="1">f</text><path fill="none" stroke="rgb(21,101,192)" paint-order="fill stroke markers" d=" M 268.87982746108844 329.5118858379626 L 270.5625 329.6163266739033 M 270.5625 329.6163266739033 L 274.03125 329.82713899214286 L 277.5 330.0321157447955 M 277.5 330.0321157447955 L 280.96874999999994 330.231495928326 L 284.43749999999994 330.4255056641182 L 287.90624999999994 330.6143590539517 L 291.375 330.7982589681646 L 294.84375 330.9773977725986 L 298.3125 331.1519579998062 L 301.78125 331.32211296944035 L 305.25 331.48802736226094 L 308.71874999999994 331.6498577517531 L 312.18749999999994 331.8077530969657 L 315.65624999999994 331.96185519983027 L 319.12499999999994 332.11229912991087 L 322.59375 332.25921361926095 L 326.0625 332.4027214298112 L 329.53125 332.5429396954938 L 332.99999999999994 332.67998024110597 M 332.99999999999994 332.67998024110597 L 336.46874999999994 332.81394987973755 L 339.93749999999994 332.9449506904255 L 343.40624999999994 333.07308027755136 L 346.875 333.19843201336795 L 350.34375 333.32109526492087 L 353.81249999999994 333.4411556065246 L 357.28124999999994 333.558695018854 L 360.74999999999994 333.67379207562544 L 364.21874999999994 333.7865221187599 L 367.68749999999994 333.89695742284977 L 371.15625 334.0051673496829 L 374.625 334.111218493518 L 378.09374999999994 334.2151748177521 L 381.56249999999994 334.3170977835676 L 385.03124999999994 334.41704647110396 L 388.5 334.5150776936556 L 391.96875 334.61124610535944 L 395.4375 334.7056043028015 L 398.90625 334.79820292093945 L 402.37499999999994 334.889090723708 L 405.84374999999994 334.97831468964887 L 409.31249999999994 335.06592009288005 L 412.78125 335.15195057969873 L 416.25 335.2364482410894 L 419.71875 335.3194536813906 L 423.18749999999994 335.40100608335536 L 426.65624999999994 335.48114326982494 L 430.125 335.55990176221917 L 433.59374999999994 335.6373168360337 L 437.0625 335.7134225735213 L 440.53125 335.78825191372306 L 444 335.8618367000023" stroke-opacity="0.2" stroke-linecap="round" stroke-linejoin="round" stroke-miterlimit="10" stroke-width="13"/><path fill="none" stroke="rgb(21,101,192)" paint-order="fill stroke markers" d=" M 268.87982746108844 329.5118858379626 L 270.5625 329.6163266739033 M 270.5625 329.6163266739033 L 274.03125 329.82713899214286 L 277.5 330.0321157447955 M 277.5 330.0321157447955 L 280.96874999999994 330.231495928326 L 284.43749999999994 330.4255056641182 L 287.90624999999994 330.6143590539517 L 291.375 330.7982589681646 L 294.84375 330.9773977725986 L 298.3125 331.1519579998062 L 301.78125 331.32211296944035 L 305.25 331.48802736226094 L 308.71874999999994 331.6498577517531 L 312.18749999999994 331.8077530969657 L 315.65624999999994 331.96185519983027 L 319.12499999999994 332.11229912991087 L 322.59375 332.25921361926095 L 326.0625 332.4027214298112 L 329.53125 332.5429396954938 L 332.99999999999994 332.67998024110597 M 332.99999999999994 332.67998024110597 L 336.46874999999994 332.81394987973755 L 339.93749999999994 332.9449506904255 L 343.40624999999994 333.07308027755136 L 346.875 333.19843201336795 L 350.34375 333.32109526492087 L 353.81249999999994 333.4411556065246 L 357.28124999999994 333.558695018854 L 360.74999999999994 333.67379207562544 L 364.21874999999994 333.7865221187599 L 367.68749999999994 333.89695742284977 L 371.15625 334.0051673496829 L 374.625 334.111218493518 L 378.09374999999994 334.2151748177521 L 381.56249999999994 334.3170977835676 L 385.03124999999994 334.41704647110396 L 388.5 334.5150776936556 L 391.96875 334.61124610535944 L 395.4375 334.7056043028015 L 398.90625 334.79820292093945 L 402.37499999999994 334.889090723708 L 405.84374999999994 334.97831468964887 L 409.31249999999994 335.06592009288005 L 412.78125 335.15195057969873 L 416.25 335.2364482410894 L 419.71875 335.3194536813906 L 423.18749999999994 335.40100608335536 L 426.65624999999994 335.48114326982494 L 430.125 335.55990176221917 L 433.59374999999994 335.6373168360337 L 437.0625 335.7134225735213 L 440.53125 335.78825191372306 L 444 335.8618367000023" stroke-opacity="0.8" stroke-linecap="round" stroke-linejoin="round" stroke-miterlimit="10" stroke-width="5.5"/></g></g></svg>