<svg version="1.1" xmlns="http://www.w3.org/2000/svg" xmlns:xlink="http://www.w3.org/1999/xlink" width="500" height="786"><defs><clipPath id="xXABNKVLpCWx"><path fill="none" stroke="none" d=" M 0 0 L 500 0 L 500 786 L 0 786 L 0 0 Z"/></clipPath></defs><g transform="scale(1,1)" clip-path="url(#xXABNKVLpCWx)"><g><rect fill="rgb(255,255,255)" stroke="none" x="0" y="0" width="500" height="786" fill-opacity="1"/><path fill="none" stroke="rgb(192,192,192)" paint-order="fill stroke markers" d=" M 9.5 0.5 L 9.5 786.5 M 9.5 0.5 L 9.5 786.5 M 100.5 0.5 L 100.5 786.5 M 192.5 0.5 L 192.5 786.5 M 374.5 0.5 L 374.5 786.5 M 466.5 0.5 L 466.5 786.5" stroke-opacity="1" stroke-linecap="round" stroke-linejoin="round" stroke-miterlimit="10"/><path fill="none" stroke="rgb(192,192,192)" paint-order="fill stroke markers" d=" M 27.5 0.5 L 27.5 786.5 M 46.5 0.5 L 46.5 786.5 M 64.5 0.5 L 64.5 786.5 M 82.5 0.5 L 82.5 786.5 M 119.5 0.5 L 119.5 786.5 M 137.5 0.5 L 137.5 786.5 M 155.5 0.5 L 155.5 786.5 M 174.5 0.5 L 174.5 786.5 M 210.5 0.5 L 210.5 786.5 M 228.5 0.5 L 228.5 786.5 M 247.5 0.5 L 247.5 786.5 M 265.5 0.5 L 265.5 786.5 M 301.5 0.5 L 301.5 786.5 M 320.5 0.5 L 320.5 786.5 M 338.5 0.5 L 338.5 786.5 M 356.5 0.5 L 356.5 786.5 M 393.5 0.5 L 393.5 786.5 M 411.5 0.5 L 411.5 786.5 M 429.5 0.5 L 429.5 786.5 M 447.5 0.5 L 447.5 786.5 M 484.5 0.5 L 484.5 786.5" stroke-opacity="0.23529411764705882" stroke-linecap="round" stroke-linejoin="round" stroke-miterlimit="10"/><path fill="none" stroke="rgb(192,192,192)" paint-order="fill stroke markers" d=" M 0.5 55.5 L 500.5 55.5 M 0.5 55.5 L 500.5 55.5 M 0.5 116.5 L 500.5 116.5 M 0.5 178.5 L 500.5 178.5 M 0.5 239.5 L 500.5 239.5 M 0.5 300.5 L 500.5 300.5 M 0.5 362.5 L 500.5 362.5 M 0.5 423.5 L 500.5 423.5 M 0.5 546.5 L 500.5 546.5 M 0.5 607.5 L 500.5 607.5 M 0.5 668.5 L 500.5 668.5 M 0.5 730.5 L 500.5 730.5" stroke-opacity="1" stroke-linecap="round" stroke-linejoin="round" stroke-miterlimit="10"/><path fill="none" stroke="rgb(192,192,192)" paint-order="fill stroke markers" d=" M 0.5 6.5 L 500.5 6.5 M 0.5 18.5 L 500.5 18.5 M 0.5 31.5 L 500.5 31.5 M 0.5 43.5 L 500.5 43.5 M 0.5 67.5 L 500.5 67.5 M 0.5 80.5 L 500.5 80.5 M 0.5 92.5 L 500.5 92.5 M 0.5 104.5 L 500.5 104.5 M 0.5 129.5 L 500.5 129.5 M 0.5 141.5 L 500.5 141.5 M 0.5 153.5 L 500.5 153.5 M 0.5 165.5 L 500.5 165.5 M 0.5 190.5 L 500.5 190.5 M 0.5 202.5 L 500.5 202.5 M 0.5 215.5 L 500.5 215.5 M 0.5 227.5 L 500.5 227.5 M 0.5 251.5 L 500.5 251.5 M 0.5 264.5 L 500.5 264.5 M 0.5 276.5 L 500.5 276.5 M 0.5 288.5 L 500.5 288.5 M 0.5 313.5 L 500.5 313.5 M 0.5 325.5 L 500.5 325.5 M 0.5 337.5 L 500.5 337.5 M 0.5 349.5 L 500.5 349.5 M 0.5 374.5 L 500.5 374.5 M 0.5 386.5 L 500.5 386.5 M 0.5 398.5 L 500.5 398.5 M 0.5 411.5 L 500.5 411.5 M 0.5 435.5 L 500.5 435.5 M 0.5 448.5 L 500.5 448.5 M 0.5 460.5 L 500.5 460.5 M 0.5 472.5 L 500.5 472.5 M 0.5 497.5 L 500.5 497.5 M 0.5 509.5 L 500.5 509.5 M 0.5 521.5 L 500.5 521.5 M 0.5 533.5 L 500.5 533.5 M 0.5 558.5 L 500.5 558.5 M 0.5 570.5 L 500.5 570.5 M 0.5 582.5 L 500.5 582.5 M 0.5 595.5 L 500.5 595.5 M 0.5 619.5 L 500.5 619.5 M 0.5 632.5 L 500.5 632.5 M 0.5 644.5 L 500.5 644.5 M 0.5 656.5 L 500.5 656.5 M 0.5 681.5 L 500.5 681.5 M 0.5 693.5 L 500.5 693.5 M 0.5 705.5 L 500.5 705.5 M 0.5 717.5 L 500.5 717.5 M 0.5 742.5 L 500.5 742.5 M 0.5 754.5 L 500.5 754.5 M 0.5 766.5 L 500.5 766.5 M 0.5 779.5 L 500.5 779.5" stroke-opacity="0.23529411764705882" stroke-linecap="round" stroke-linejoin="round" stroke-miterlimit="10"/><path fill="none" stroke="rgb(0,0,0)" paint-order="fill stroke markers" d=" M 283.5 2.5 L 283.5 786.5" stroke-opacity="1" stroke-miterlimit="10"/><path fill="none" stroke="rgb(0,0,0)" paint-order="fill stroke markers" d=" M 283.5 1.5 L 279.5 5.5" stroke-opacity="1" stroke-miterlimit="10"/><path fill="none" stroke="rgb(0,0,0)" paint-order="fill stroke markers" d=" M 283.5 1.5 L 287.5 5.5" stroke-opacity="1" stroke-miterlimit="10"/><path fill="none" stroke="rgb(0,0,0)" paint-order="fill stroke markers" d=" M 0.5 484.5 L 498.5 484.5" stroke-opacity="1" stroke-miterlimit="10"/><path fill="none" stroke="rgb(0,0,0)" paint-order="fill stroke markers" d=" M 499.5 484.5 L 495.5 480.5" stroke-opacity="1" stroke-miterlimit="10"/><path fill="none" stroke="rgb(0,0,0)" paint-order="fill stroke markers" d=" M 499.5 484.5 L 495.5 488.5" stroke-opacity="1" stroke-miterlimit="10"/><text fill="rgb(0,0,0)" stroke="none" font-family="geogebra-sans-serif, sans-serif" font-size="12px" font-style="normal" font-weight="normal" text-decoration="normal" x="95" y="500" text-anchor="start" dominant-baseline="alphabetic" fill-opacity="1">–2</text><text fill="none" stroke="rgb(255,255,255)" font-family="geogebra-sans-serif, sans-serif" font-size="12px" font-style="normal" font-weight="normal" text-decoration="normal" x="95" y="500" text-anchor="start" dominant-baseline="alphabetic" stroke-opacity="1" stroke-linejoin="bevel" stroke-miterlimit="10" stroke-width="3">–2</text><text fill="rgb(0,0,0)" stroke="none" font-family="geogebra-sans-serif, sans-serif" font-size="12px" font-style="normal" font-weight="normal" text-decoration="normal" x="95" y="500" text-anchor="start" dominant-baseline="alphabetic" fill-opacity="1">–2</text><text fill="rgb(0,0,0)" stroke="none" font-family="geogebra-sans-serif, sans-serif" font-size="12px" font-style="normal" font-weight="normal" text-decoration="normal" x="187" y="500" text-anchor="start" dominant-baseline="alphabetic" fill-opacity="1">–1</text><text fill="none" stroke="rgb(255,255,255)" font-family="geogebra-sans-serif, sans-serif" font-size="12px" font-style="normal" font-weight="normal" text-decoration="normal" x="187" y="500" text-anchor="start" dominant-baseline="alphabetic" stroke-opacity="1" stroke-linejoin="bevel" stroke-miterlimit="10" stroke-width="3">–1</text><text fill="rgb(0,0,0)" stroke="none" font-family="geogebra-sans-serif, sans-serif" font-size="12px" font-style="normal" font-weight="normal" text-decoration="normal" x="187" y="500" text-anchor="start" dominant-baseline="alphabetic" fill-opacity="1">–1</text><text fill="rgb(0,0,0)" stroke="none" font-family="geogebra-sans-serif, sans-serif" font-size="12px" font-style="normal" font-weight="normal" text-decoration="normal" x="372" y="500" text-anchor="start" dominant-baseline="alphabetic" fill-opacity="1">1</text><text fill="none" stroke="rgb(255,255,255)" font-family="geogebra-sans-serif, sans-serif" font-size="12px" font-style="normal" font-weight="normal" text-decoration="normal" x="372" y="500" text-anchor="start" dominant-baseline="alphabetic" stroke-opacity="1" stroke-linejoin="bevel" stroke-miterlimit="10" stroke-width="3">1</text><text fill="rgb(0,0,0)" stroke="none" font-family="geogebra-sans-serif, sans-serif" font-size="12px" font-style="normal" font-weight="normal" text-decoration="normal" x="372" y="500" text-anchor="start" dominant-baseline="alphabetic" fill-opacity="1">1</text><text fill="rgb(0,0,0)" stroke="none" font-family="geogebra-sans-serif, sans-serif" font-size="12px" font-style="normal" font-weight="normal" text-decoration="normal" x="464" y="500" text-anchor="start" dominant-baseline="alphabetic" fill-opacity="1">2</text><text fill="none" stroke="rgb(255,255,255)" font-family="geogebra-sans-serif, sans-serif" font-size="12px" font-style="normal" font-weight="normal" text-decoration="normal" x="464" y="500" text-anchor="start" dominant-baseline="alphabetic" stroke-opacity="1" stroke-linejoin="bevel" stroke-miterlimit="10" stroke-width="3">2</text><text fill="rgb(0,0,0)" stroke="none" font-family="geogebra-sans-serif, sans-serif" font-size="12px" font-style="normal" font-weight="normal" text-decoration="normal" x="464" y="500" text-anchor="start" dominant-baseline="alphabetic" fill-opacity="1">2</text><text fill="rgb(0,0,0)" stroke="none" font-family="geogebra-sans-serif, sans-serif" font-size="12px" font-style="normal" font-weight="normal" text-decoration="normal" x="263" y="735" text-anchor="start" dominant-baseline="alphabetic" fill-opacity="1">–8</text><text fill="none" stroke="rgb(255,255,255)" font-family="geogebra-sans-serif, sans-serif" font-size="12px" font-style="normal" font-weight="normal" text-decoration="normal" x="263" y="735" text-anchor="start" dominant-baseline="alphabetic" stroke-opacity="1" stroke-linejoin="bevel" stroke-miterlimit="10" stroke-width="3">–8</text><text fill="rgb(0,0,0)" stroke="none" font-family="geogebra-sans-serif, sans-serif" font-size="12px" font-style="normal" font-weight="normal" text-decoration="normal" x="263" y="735" text-anchor="start" dominant-baseline="alphabetic" fill-opacity="1">–8</text><text fill="rgb(0,0,0)" stroke="none" font-family="geogebra-sans-serif, sans-serif" font-size="12px" font-style="normal" font-weight="normal" text-decoration="normal" x="263" y="673" text-anchor="start" dominant-baseline="alphabetic" fill-opacity="1">–6</text><text fill="none" stroke="rgb(255,255,255)" font-family="geogebra-sans-serif, sans-serif" font-size="12px" font-style="normal" font-weight="normal" text-decoration="normal" x="263" y="673" text-anchor="start" dominant-baseline="alphabetic" stroke-opacity="1" stroke-linejoin="bevel" stroke-miterlimit="10" stroke-width="3">–6</text><text fill="rgb(0,0,0)" stroke="none" font-family="geogebra-sans-serif, sans-serif" font-size="12px" font-style="normal" font-weight="normal" text-decoration="normal" x="263" y="673" text-anchor="start" dominant-baseline="alphabetic" fill-opacity="1">–6</text><text fill="rgb(0,0,0)" stroke="none" font-family="geogebra-sans-serif, sans-serif" font-size="12px" font-style="normal" font-weight="normal" text-decoration="normal" x="263" y="612" text-anchor="start" dominant-baseline="alphabetic" fill-opacity="1">–4</text><text fill="none" stroke="rgb(255,255,255)" font-family="geogebra-sans-serif, sans-serif" font-size="12px" font-style="normal" font-weight="normal" text-decoration="normal" x="263" y="612" text-anchor="start" dominant-baseline="alphabetic" stroke-opacity="1" stroke-linejoin="bevel" stroke-miterlimit="10" stroke-width="3">–4</text><text fill="rgb(0,0,0)" stroke="none" font-family="geogebra-sans-serif, sans-serif" font-size="12px" font-style="normal" font-weight="normal" text-decoration="normal" x="263" y="612" text-anchor="start" dominant-baseline="alphabetic" fill-opacity="1">–4</text><text fill="rgb(0,0,0)" stroke="none" font-family="geogebra-sans-serif, sans-serif" font-size="12px" font-style="normal" font-weight="normal" text-decoration="normal" x="263" y="551" text-anchor="start" dominant-baseline="alphabetic" fill-opacity="1">–2</text><text fill="none" stroke="rgb(255,255,255)" font-family="geogebra-sans-serif, sans-serif" font-size="12px" font-style="normal" font-weight="normal" text-decoration="normal" x="263" y="551" text-anchor="start" dominant-baseline="alphabetic" stroke-opacity="1" stroke-linejoin="bevel" stroke-miterlimit="10" stroke-width="3">–2</text><text fill="rgb(0,0,0)" stroke="none" font-family="geogebra-sans-serif, sans-serif" font-size="12px" font-style="normal" font-weight="normal" text-decoration="normal" x="263" y="551" text-anchor="start" dominant-baseline="alphabetic" fill-opacity="1">–2</text><text fill="rgb(0,0,0)" stroke="none" font-family="geogebra-sans-serif, sans-serif" font-size="12px" font-style="normal" font-weight="normal" text-decoration="normal" x="269" y="428" text-anchor="start" dominant-baseline="alphabetic" fill-opacity="1">2</text><text fill="none" stroke="rgb(255,255,255)" font-family="geogebra-sans-serif, sans-serif" font-size="12px" font-style="normal" font-weight="normal" text-decoration="normal" x="269" y="428" text-anchor="start" dominant-baseline="alphabetic" stroke-opacity="1" stroke-linejoin="bevel" stroke-miterlimit="10" stroke-width="3">2</text><text fill="rgb(0,0,0)" stroke="none" font-family="geogebra-sans-serif, sans-serif" font-size="12px" font-style="normal" font-weight="normal" text-decoration="normal" x="269" y="428" text-anchor="start" dominant-baseline="alphabetic" fill-opacity="1">2</text><text fill="rgb(0,0,0)" stroke="none" font-family="geogebra-sans-serif, sans-serif" font-size="12px" font-style="normal" font-weight="normal" text-decoration="normal" x="269" y="367" text-anchor="start" dominant-baseline="alphabetic" fill-opacity="1">4</text><text fill="none" stroke="rgb(255,255,255)" font-family="geogebra-sans-serif, sans-serif" font-size="12px" font-style="normal" font-weight="normal" text-decoration="normal" x="269" y="367" text-anchor="start" dominant-baseline="alphabetic" stroke-opacity="1" stroke-linejoin="bevel" stroke-miterlimit="10" stroke-width="3">4</text><text fill="rgb(0,0,0)" stroke="none" font-family="geogebra-sans-serif, sans-serif" font-size="12px" font-style="normal" font-weight="normal" text-decoration="normal" x="269" y="367" text-anchor="start" dominant-baseline="alphabetic" fill-opacity="1">4</text><text fill="rgb(0,0,0)" stroke="none" font-family="geogebra-sans-serif, sans-serif" font-size="12px" font-style="normal" font-weight="normal" text-decoration="normal" x="269" y="305" text-anchor="start" dominant-baseline="alphabetic" fill-opacity="1">6</text><text fill="none" stroke="rgb(255,255,255)" font-family="geogebra-sans-serif, sans-serif" font-size="12px" font-style="normal" font-weight="normal" text-decoration="normal" x="269" y="305" text-anchor="start" dominant-baseline="alphabetic" stroke-opacity="1" stroke-linejoin="bevel" stroke-miterlimit="10" stroke-width="3">6</text><text fill="rgb(0,0,0)" stroke="none" font-family="geogebra-sans-serif, sans-serif" font-size="12px" font-style="normal" font-weight="normal" text-decoration="normal" x="269" y="305" text-anchor="start" dominant-baseline="alphabetic" fill-opacity="1">6</text><text fill="rgb(0,0,0)" stroke="none" font-family="geogebra-sans-serif, sans-serif" font-size="12px" font-style="normal" font-weight="normal" text-decoration="normal" x="269" y="244" text-anchor="start" dominant-baseline="alphabetic" fill-opacity="1">8</text><text fill="none" stroke="rgb(255,255,255)" font-family="geogebra-sans-serif, sans-serif" font-size="12px" font-style="normal" font-weight="normal" text-decoration="normal" x="269" y="244" text-anchor="start" dominant-baseline="alphabetic" stroke-opacity="1" stroke-linejoin="bevel" stroke-miterlimit="10" stroke-width="3">8</text><text fill="rgb(0,0,0)" stroke="none" font-family="geogebra-sans-serif, sans-serif" font-size="12px" font-style="normal" font-weight="normal" text-decoration="normal" x="269" y="244" text-anchor="start" dominant-baseline="alphabetic" fill-opacity="1">8</text><text fill="rgb(0,0,0)" stroke="none" font-family="geogebra-sans-serif, sans-serif" font-size="12px" font-style="normal" font-weight="normal" text-decoration="normal" x="263" y="183" text-anchor="start" dominant-baseline="alphabetic" fill-opacity="1">10</text><text fill="none" stroke="rgb(255,255,255)" font-family="geogebra-sans-serif, sans-serif" font-size="12px" font-style="normal" font-weight="normal" text-decoration="normal" x="263" y="183" text-anchor="start" dominant-baseline="alphabetic" stroke-opacity="1" stroke-linejoin="bevel" stroke-miterlimit="10" stroke-width="3">10</text><text fill="rgb(0,0,0)" stroke="none" font-family="geogebra-sans-serif, sans-serif" font-size="12px" font-style="normal" font-weight="normal" text-decoration="normal" x="263" y="183" text-anchor="start" dominant-baseline="alphabetic" fill-opacity="1">10</text><text fill="rgb(0,0,0)" stroke="none" font-family="geogebra-sans-serif, sans-serif" font-size="12px" font-style="normal" font-weight="normal" text-decoration="normal" x="263" y="121" text-anchor="start" dominant-baseline="alphabetic" fill-opacity="1">12</text><text fill="none" stroke="rgb(255,255,255)" font-family="geogebra-sans-serif, sans-serif" font-size="12px" font-style="normal" font-weight="normal" text-decoration="normal" x="263" y="121" text-anchor="start" dominant-baseline="alphabetic" stroke-opacity="1" stroke-linejoin="bevel" stroke-miterlimit="10" stroke-width="3">12</text><text fill="rgb(0,0,0)" stroke="none" font-family="geogebra-sans-serif, sans-serif" font-size="12px" font-style="normal" font-weight="normal" text-decoration="normal" x="263" y="121" text-anchor="start" dominant-baseline="alphabetic" fill-opacity="1">12</text><text fill="rgb(0,0,0)" stroke="none" font-family="geogebra-sans-serif, sans-serif" font-size="12px" font-style="normal" font-weight="normal" text-decoration="normal" x="263" y="60" text-anchor="start" dominant-baseline="alphabetic" fill-opacity="1">14</text><text fill="none" stroke="rgb(255,255,255)" font-family="geogebra-sans-serif, sans-serif" font-size="12px" font-style="normal" font-weight="normal" text-decoration="normal" x="263" y="60" text-anchor="start" dominant-baseline="alphabetic" stroke-opacity="1" stroke-linejoin="bevel" stroke-miterlimit="10" stroke-width="3">14</text><text fill="rgb(0,0,0)" stroke="none" font-family="geogebra-sans-serif, sans-serif" font-size="12px" font-style="normal" font-weight="normal" text-decoration="normal" x="263" y="60" text-anchor="start" dominant-baseline="alphabetic" fill-opacity="1">14</text><text fill="rgb(0,0,0)" stroke="none" font-family="geogebra-sans-serif, sans-serif" font-size="12px" font-style="normal" font-weight="normal" text-decoration="normal" x="269" y="500" text-anchor="start" dominant-baseline="alphabetic" fill-opacity="1">0</text><text fill="none" stroke="rgb(255,255,255)" font-family="geogebra-sans-serif, sans-serif" font-size="12px" font-style="normal" font-weight="normal" text-decoration="normal" x="269" y="500" text-anchor="start" dominant-baseline="alphabetic" stroke-opacity="1" stroke-linejoin="bevel" stroke-miterlimit="10" stroke-width="3">0</text><text fill="rgb(0,0,0)" stroke="none" font-family="geogebra-sans-serif, sans-serif" font-size="12px" font-style="normal" font-weight="normal" text-decoration="normal" x="269" y="500" text-anchor="start" dominant-baseline="alphabetic" fill-opacity="1">0</text><path fill="none" stroke="rgb(211,47,47)" paint-order="fill stroke markers" d=" M 0 1.9888325393644664 L 3.90625 7.100033527814162 L 7.8125 12.207327836002207 L 11.71875 17.310547036991522 L 15.625 22.409512880929242 L 19.53125 27.50403656834152 L 23.4375 32.59391795794522 L 27.34375 37.678944701987234 L 31.25 42.75889130125631 L 35.15625000000003 47.83351807092447 L 39.0625 52.902570007245004 L 42.96875000000003 57.96577554383646 L 46.875 63.02284518479797 L 50.78125000000003 68.07347000018376 L 54.6875 73.11731996739252 L 58.59375 78.15404213974085 L 62.50000000000003 83.18325862084163 L 66.40625 88.20456432033296 L 70.31250000000003 93.2175244629172 L 74.21875 98.22167181848482 L 78.125 103.21650361619442 L 82.03125 108.20147809962265 L 85.9375 113.17601067331543 L 89.84375000000003 118.13946958305803 L 93.75 123.0911710626836 L 97.65624999999997 128.03037386894675 L 101.5625 132.9562731125102 L 105.46875 137.8679932769577 L 109.375 142.76458029835186 L 113.28125 147.6449925544551 L 117.1875 152.50809058438847 L 121.09375 157.3526253250268 L 125 162.1772246082989 L 128.90625 166.98037761186663 L 132.8125 171.76041689188992 L 136.71875000000003 176.51549754756007 L 140.625 181.24357296861064 L 144.53125 185.94236649364348 L 148.4375 190.60933815162588 L 152.34375 195.24164546177224 L 156.25 199.83609701542736 L 160.15625 204.3890972402844 L 164.0625 208.89658032885626 L 167.96875 213.35393076741946 L 171.875 217.7558871841419 L 175.78125 222.09642528349832 L 179.6875 226.36861436032558 L 183.59375 230.56444016505216 L 187.5 234.67458453951232 L 191.40625 238.68814899307458 L 195.3125 242.5923048441721 L 199.21875000000003 246.37184611279204 L 203.125 250.0086120945502 L 207.03125 253.48073303915555 L 210.9375 256.76163230703037 L 214.84375 259.8186880679026 L 218.75 262.6114108475825 L 222.65625 265.0889194705578 L 226.56249999999997 267.18637867406557 L 230.46875 268.8198633819876 L 234.375 269.87877454051 L 236.32812500000003 270.1481933514075 L 238.28125 270.21432713638524 L 240.234375 270.0496685445602 L 242.1875 269.62151295669753 L 244.140625 268.8906701589615 L 246.09375 267.8097727977439 L 248.046875 266.32102628063546 L 250 264.35317241617463 L 251.953125 261.81732643264763 L 253.90624999999997 258.6011675326049 L 257.8125 249.50806516108923 L 259.765625 243.19387459106616 L 261.71875 235.27928439235382 L 263.671875 225.29222914934746 L 264.6484375 219.32061596572743 L 265.625 212.55474010977633 L 266.6015625 204.8571957514451 L 267.578125 196.05694294308609 L 268.06640625 191.17804152712154 L 268.5546875 185.93834562780125 L 269.04296875 180.30138985668526 L 269.53125 174.22562343823387 L 270.01953125 167.6634916892059 L 270.5078125 160.5603109534585 L 270.99609375 152.85288069651222 L 271.484375 144.46775821789413 L 271.97265625 135.31909625881127 L 272.216796875 130.42756043123046 L 272.4609375 125.3059086111154 L 272.705078125 119.93858014580957 L 272.94921875 114.30857906280329 L 273.193359375 108.39730467038521 L 273.4375 102.1843575868773 L 273.681640625 95.64731693733461 L 273.92578125 88.76148359061574 L 274.169921875 81.4995832406305 L 274.4140625 73.83142180890184 L 274.658203125 65.72348399065038 L 274.90234375 57.13846369045416 L 275.146484375 48.03471247367884 L 275.390625 38.36558883331861 L 275.5126953125 33.302884648882355 L 275.634765625 28.07868682028976 L 275.7568359375 22.685393255883525 L 275.87890625 17.11491711364539 L 276.0009765625 11.358647537408672 L 276.123046875 5.407406513876197 L 276.2451171875 -0.7485986041461956 L 276.3671875 -7.119827424882033 M 290.6494140625 795.8548286959733 L 290.771484375 789.3809092996236 L 290.8935546875 783.12726359644 L 291.015625 777.0831062011368 L 291.1376953125 771.2383445421094 L 291.259765625 765.5835241109004 L 291.3818359375 760.1097788229713 L 291.50390625 754.8087859415973 L 291.6259765625 749.6727250828909 L 291.748046875 744.69424087728 L 291.9921875 735.1827046266914 L 292.236328125 726.2234117847626 L 292.48046875 717.7711397739338 L 292.724609375 709.7854724519752 L 292.96875 702.2301780811455 L 293.212890625 695.0726814611638 L 293.45703125 688.2836140048511 L 293.701171875 681.8364286521116 L 293.9453125 675.7070689768385 L 294.189453125 669.8736837930046 L 294.43359375 664.3163801244314 L 294.677734375 659.0170086535887 L 294.921875 653.9589767742656 L 295.41015625 644.5073846810247 L 295.8984375 635.8542696897244 L 296.38671875 627.9086113690246 L 296.875 620.5927170651543 L 297.36328125 613.839868627104 L 297.8515625 607.5924507432477 L 298.33984375 601.8004496902934 L 298.828125 596.4202397010638 L 299.8046875 586.7468777351013 L 300.78125 578.317729285974 L 301.7578125 570.9327466904008 L 302.734375 564.4325863179752 L 303.7109375 558.6887570503986 L 304.6875 553.5964978705676 L 306.640625 545.0362057439811 L 308.59375 538.2195415863912 L 312.5 528.4061455130558 L 314.453125 524.9267752733014 L 316.40625 522.1727924224933 L 318.359375 520.0221421047147 L 320.3125 518.378698064708 L 322.265625 517.1657247220217 L 324.21875 516.3212225253511 L 326.171875 515.7945526779152 L 328.125 515.5439489499748 L 330.078125 515.5346559921726 L 332.03125 515.7375175240142 L 335.9375 516.6848135275734 L 339.84375 518.2289704277696 L 343.75 520.253827419281 L 347.65625 522.671530247146 L 351.5625 525.4144040015251 L 355.46875 528.4294739740923 L 359.375 531.6746798128183 L 363.28125 535.1162023594525 L 367.1875 538.7265394577284 L 371.09375 542.4830968323223 L 375 546.3671400542333 L 378.90624999999994 550.3630040645414 L 382.8125 554.4574893169146 L 386.71875 558.6393950841352 L 390.625 562.8991549055231 L 394.53125 567.2285490126912 L 398.4375 571.6204754146166 L 402.34375 576.0687661414679 L 406.25 580.5680385846608 L 410.15625 585.113574354056 L 414.0625 589.7012198877712 L 417.96875 594.3273043900917 L 421.875 598.988571672441 L 425.78125 603.682123224824 L 429.6875 608.4053704166076 L 433.59374999999994 613.1559941630753 L 437.5 617.9319107318395 L 441.40625 622.7312426256647 L 445.3125 627.5522936836754 L 449.21875 632.3935277047567 L 453.12499999999994 637.2535500252457 L 457.03125 642.1310915853004 L 460.9375 647.0249951003541 L 464.84375 651.9342030201777 L 468.75 656.8577470116397 L 472.65625 661.7947387448593 L 476.5625 666.7443617981189 L 480.46875 671.7058645261966 L 484.375 676.6785537609505 L 488.28125 681.6617892330084 L 492.1875 686.6549786200618 L 496.09375 691.6575731411557 L 500 696.6690636280063" stroke-opacity="0.8" stroke-linecap="round" stroke-linejoin="round" stroke-miterlimit="10" stroke-width="2.5"/><text fill="rgb(211,47,47)" stroke="none" font-family="geogebra-sans-serif, sans-serif" font-size="16px" font-style="normal" font-weight="normal" text-decoration="normal" x="8" y="24" text-anchor="start" dominant-baseline="alphabetic" fill-opacity="1">h</text><text fill="none" stroke="rgb(255,255,255)" font-family="geogebra-sans-serif, sans-serif" font-size="16px" font-style="normal" font-weight="normal" text-decoration="normal" x="8" y="24" text-anchor="start" dominant-baseline="alphabetic" stroke-opacity="1" stroke-linejoin="bevel" stroke-miterlimit="10" stroke-width="3">h</text><text fill="rgb(211,47,47)" stroke="none" font-family="geogebra-sans-serif, sans-serif" font-size="16px" font-style="normal" font-weight="normal" text-decoration="normal" x="8" y="24" text-anchor="start" dominant-baseline="alphabetic" fill-opacity="1">h</text></g></g></svg>