<svg version="1.1" xmlns="http://www.w3.org/2000/svg" xmlns:xlink="http://www.w3.org/1999/xlink" width="444" height="425"><defs><clipPath id="bukisblNaIkL"><path fill="none" stroke="none" d=" M 0 0 L 444 0 L 444 425 L 0 425 L 0 0 Z"/></clipPath></defs><g transform="scale(1,1)" clip-path="url(#bukisblNaIkL)"><g><rect fill="rgb(255,255,255)" stroke="none" x="0" y="0" width="444" height="425" fill-opacity="1"/><path fill="none" stroke="rgb(192,192,192)" paint-order="fill stroke markers" d=" M 41.5 0.5 L 41.5 425.5 M 41.5 0.5 L 41.5 425.5 M 101.5 0.5 L 101.5 425.5 M 162.5 0.5 L 162.5 425.5 M 283.5 0.5 L 283.5 425.5 M 343.5 0.5 L 343.5 425.5 M 404.5 0.5 L 404.5 425.5" stroke-opacity="1" stroke-linecap="round" stroke-linejoin="round" stroke-miterlimit="10"/><path fill="none" stroke="rgb(192,192,192)" paint-order="fill stroke markers" d=" M 5.5 0.5 L 5.5 425.5 M 17.5 0.5 L 17.5 425.5 M 29.5 0.5 L 29.5 425.5 M 53.5 0.5 L 53.5 425.5 M 65.5 0.5 L 65.5 425.5 M 77.5 0.5 L 77.5 425.5 M 89.5 0.5 L 89.5 425.5 M 113.5 0.5 L 113.5 425.5 M 126.5 0.5 L 126.5 425.5 M 138.5 0.5 L 138.5 425.5 M 150.5 0.5 L 150.5 425.5 M 174.5 0.5 L 174.5 425.5 M 186.5 0.5 L 186.5 425.5 M 198.5 0.5 L 198.5 425.5 M 210.5 0.5 L 210.5 425.5 M 234.5 0.5 L 234.5 425.5 M 247.5 0.5 L 247.5 425.5 M 259.5 0.5 L 259.5 425.5 M 271.5 0.5 L 271.5 425.5 M 295.5 0.5 L 295.5 425.5 M 307.5 0.5 L 307.5 425.5 M 319.5 0.5 L 319.5 425.5 M 331.5 0.5 L 331.5 425.5 M 355.5 0.5 L 355.5 425.5 M 368.5 0.5 L 368.5 425.5 M 380.5 0.5 L 380.5 425.5 M 392.5 0.5 L 392.5 425.5 M 416.5 0.5 L 416.5 425.5 M 428.5 0.5 L 428.5 425.5 M 440.5 0.5 L 440.5 425.5" stroke-opacity="0.23529411764705882" stroke-linecap="round" stroke-linejoin="round" stroke-miterlimit="10"/><path fill="none" stroke="rgb(192,192,192)" paint-order="fill stroke markers" d=" M 0.5 53.5 L 444.5 53.5 M 0.5 53.5 L 444.5 53.5 M 0.5 113.5 L 444.5 113.5 M 0.5 174.5 L 444.5 174.5 M 0.5 295.5 L 444.5 295.5 M 0.5 355.5 L 444.5 355.5 M 0.5 416.5 L 444.5 416.5" stroke-opacity="1" stroke-linecap="round" stroke-linejoin="round" stroke-miterlimit="10"/><path fill="none" stroke="rgb(192,192,192)" paint-order="fill stroke markers" d=" M 0.5 4.5 L 444.5 4.5 M 0.5 16.5 L 444.5 16.5 M 0.5 28.5 L 444.5 28.5 M 0.5 41.5 L 444.5 41.5 M 0.5 65.5 L 444.5 65.5 M 0.5 77.5 L 444.5 77.5 M 0.5 89.5 L 444.5 89.5 M 0.5 101.5 L 444.5 101.5 M 0.5 125.5 L 444.5 125.5 M 0.5 137.5 L 444.5 137.5 M 0.5 149.5 L 444.5 149.5 M 0.5 162.5 L 444.5 162.5 M 0.5 186.5 L 444.5 186.5 M 0.5 198.5 L 444.5 198.5 M 0.5 210.5 L 444.5 210.5 M 0.5 222.5 L 444.5 222.5 M 0.5 246.5 L 444.5 246.5 M 0.5 258.5 L 444.5 258.5 M 0.5 270.5 L 444.5 270.5 M 0.5 283.5 L 444.5 283.5 M 0.5 307.5 L 444.5 307.5 M 0.5 319.5 L 444.5 319.5 M 0.5 331.5 L 444.5 331.5 M 0.5 343.5 L 444.5 343.5 M 0.5 367.5 L 444.5 367.5 M 0.5 379.5 L 444.5 379.5 M 0.5 391.5 L 444.5 391.5 M 0.5 404.5 L 444.5 404.5" stroke-opacity="0.23529411764705882" stroke-linecap="round" stroke-linejoin="round" stroke-miterlimit="10"/><path fill="none" stroke="rgb(0,0,0)" paint-order="fill stroke markers" d=" M 222.5 2.5 L 222.5 425.5" stroke-opacity="1" stroke-miterlimit="10"/><path fill="none" stroke="rgb(0,0,0)" paint-order="fill stroke markers" d=" M 222.5 1.5 L 218.5 5.5" stroke-opacity="1" stroke-miterlimit="10"/><path fill="none" stroke="rgb(0,0,0)" paint-order="fill stroke markers" d=" M 222.5 1.5 L 226.5 5.5" stroke-opacity="1" stroke-miterlimit="10"/><path fill="none" stroke="rgb(0,0,0)" paint-order="fill stroke markers" d=" M 0.5 234.5 L 442.5 234.5" stroke-opacity="1" stroke-miterlimit="10"/><path fill="none" stroke="rgb(0,0,0)" paint-order="fill stroke markers" d=" M 443.5 234.5 L 439.5 230.5" stroke-opacity="1" stroke-miterlimit="10"/><path fill="none" stroke="rgb(0,0,0)" paint-order="fill stroke markers" d=" M 443.5 234.5 L 439.5 238.5" stroke-opacity="1" stroke-miterlimit="10"/><text fill="rgb(0,0,0)" stroke="none" font-family="geogebra-sans-serif, sans-serif" font-size="12px" font-style="normal" font-weight="normal" text-decoration="normal" x="36" y="250" text-anchor="start" dominant-baseline="alphabetic" fill-opacity="1">–3</text><text fill="none" stroke="rgb(255,255,255)" font-family="geogebra-sans-serif, sans-serif" font-size="12px" font-style="normal" font-weight="normal" text-decoration="normal" x="36" y="250" text-anchor="start" dominant-baseline="alphabetic" stroke-opacity="1" stroke-linejoin="bevel" stroke-miterlimit="10" stroke-width="3">–3</text><text fill="rgb(0,0,0)" stroke="none" font-family="geogebra-sans-serif, sans-serif" font-size="12px" font-style="normal" font-weight="normal" text-decoration="normal" x="36" y="250" text-anchor="start" dominant-baseline="alphabetic" fill-opacity="1">–3</text><text fill="rgb(0,0,0)" stroke="none" font-family="geogebra-sans-serif, sans-serif" font-size="12px" font-style="normal" font-weight="normal" text-decoration="normal" x="96" y="250" text-anchor="start" dominant-baseline="alphabetic" fill-opacity="1">–2</text><text fill="none" stroke="rgb(255,255,255)" font-family="geogebra-sans-serif, sans-serif" font-size="12px" font-style="normal" font-weight="normal" text-decoration="normal" x="96" y="250" text-anchor="start" dominant-baseline="alphabetic" stroke-opacity="1" stroke-linejoin="bevel" stroke-miterlimit="10" stroke-width="3">–2</text><text fill="rgb(0,0,0)" stroke="none" font-family="geogebra-sans-serif, sans-serif" font-size="12px" font-style="normal" font-weight="normal" text-decoration="normal" x="96" y="250" text-anchor="start" dominant-baseline="alphabetic" fill-opacity="1">–2</text><text fill="rgb(0,0,0)" stroke="none" font-family="geogebra-sans-serif, sans-serif" font-size="12px" font-style="normal" font-weight="normal" text-decoration="normal" x="157" y="250" text-anchor="start" dominant-baseline="alphabetic" fill-opacity="1">–1</text><text fill="none" stroke="rgb(255,255,255)" font-family="geogebra-sans-serif, sans-serif" font-size="12px" font-style="normal" font-weight="normal" text-decoration="normal" x="157" y="250" text-anchor="start" dominant-baseline="alphabetic" stroke-opacity="1" stroke-linejoin="bevel" stroke-miterlimit="10" stroke-width="3">–1</text><text fill="rgb(0,0,0)" stroke="none" font-family="geogebra-sans-serif, sans-serif" font-size="12px" font-style="normal" font-weight="normal" text-decoration="normal" x="157" y="250" text-anchor="start" dominant-baseline="alphabetic" fill-opacity="1">–1</text><text fill="rgb(0,0,0)" stroke="none" font-family="geogebra-sans-serif, sans-serif" font-size="12px" font-style="normal" font-weight="normal" text-decoration="normal" x="281" y="250" text-anchor="start" dominant-baseline="alphabetic" fill-opacity="1">1</text><text fill="none" stroke="rgb(255,255,255)" font-family="geogebra-sans-serif, sans-serif" font-size="12px" font-style="normal" font-weight="normal" text-decoration="normal" x="281" y="250" text-anchor="start" dominant-baseline="alphabetic" stroke-opacity="1" stroke-linejoin="bevel" stroke-miterlimit="10" stroke-width="3">1</text><text fill="rgb(0,0,0)" stroke="none" font-family="geogebra-sans-serif, sans-serif" font-size="12px" font-style="normal" font-weight="normal" text-decoration="normal" x="281" y="250" text-anchor="start" dominant-baseline="alphabetic" fill-opacity="1">1</text><text fill="rgb(0,0,0)" stroke="none" font-family="geogebra-sans-serif, sans-serif" font-size="12px" font-style="normal" font-weight="normal" text-decoration="normal" x="341" y="250" text-anchor="start" dominant-baseline="alphabetic" fill-opacity="1">2</text><text fill="none" stroke="rgb(255,255,255)" font-family="geogebra-sans-serif, sans-serif" font-size="12px" font-style="normal" font-weight="normal" text-decoration="normal" x="341" y="250" text-anchor="start" dominant-baseline="alphabetic" stroke-opacity="1" stroke-linejoin="bevel" stroke-miterlimit="10" stroke-width="3">2</text><text fill="rgb(0,0,0)" stroke="none" font-family="geogebra-sans-serif, sans-serif" font-size="12px" font-style="normal" font-weight="normal" text-decoration="normal" x="341" y="250" text-anchor="start" dominant-baseline="alphabetic" fill-opacity="1">2</text><text fill="rgb(0,0,0)" stroke="none" font-family="geogebra-sans-serif, sans-serif" font-size="12px" font-style="normal" font-weight="normal" text-decoration="normal" x="402" y="250" text-anchor="start" dominant-baseline="alphabetic" fill-opacity="1">3</text><text fill="none" stroke="rgb(255,255,255)" font-family="geogebra-sans-serif, sans-serif" font-size="12px" font-style="normal" font-weight="normal" text-decoration="normal" x="402" y="250" text-anchor="start" dominant-baseline="alphabetic" stroke-opacity="1" stroke-linejoin="bevel" stroke-miterlimit="10" stroke-width="3">3</text><text fill="rgb(0,0,0)" stroke="none" font-family="geogebra-sans-serif, sans-serif" font-size="12px" font-style="normal" font-weight="normal" text-decoration="normal" x="402" y="250" text-anchor="start" dominant-baseline="alphabetic" fill-opacity="1">3</text><text fill="rgb(0,0,0)" stroke="none" font-family="geogebra-sans-serif, sans-serif" font-size="12px" font-style="normal" font-weight="normal" text-decoration="normal" x="202" y="360" text-anchor="start" dominant-baseline="alphabetic" fill-opacity="1">–2</text><text fill="none" stroke="rgb(255,255,255)" font-family="geogebra-sans-serif, sans-serif" font-size="12px" font-style="normal" font-weight="normal" text-decoration="normal" x="202" y="360" text-anchor="start" dominant-baseline="alphabetic" stroke-opacity="1" stroke-linejoin="bevel" stroke-miterlimit="10" stroke-width="3">–2</text><text fill="rgb(0,0,0)" stroke="none" font-family="geogebra-sans-serif, sans-serif" font-size="12px" font-style="normal" font-weight="normal" text-decoration="normal" x="202" y="360" text-anchor="start" dominant-baseline="alphabetic" fill-opacity="1">–2</text><text fill="rgb(0,0,0)" stroke="none" font-family="geogebra-sans-serif, sans-serif" font-size="12px" font-style="normal" font-weight="normal" text-decoration="normal" x="202" y="300" text-anchor="start" dominant-baseline="alphabetic" fill-opacity="1">–1</text><text fill="none" stroke="rgb(255,255,255)" font-family="geogebra-sans-serif, sans-serif" font-size="12px" font-style="normal" font-weight="normal" text-decoration="normal" x="202" y="300" text-anchor="start" dominant-baseline="alphabetic" stroke-opacity="1" stroke-linejoin="bevel" stroke-miterlimit="10" stroke-width="3">–1</text><text fill="rgb(0,0,0)" stroke="none" font-family="geogebra-sans-serif, sans-serif" font-size="12px" font-style="normal" font-weight="normal" text-decoration="normal" x="202" y="300" text-anchor="start" dominant-baseline="alphabetic" fill-opacity="1">–1</text><text fill="rgb(0,0,0)" stroke="none" font-family="geogebra-sans-serif, sans-serif" font-size="12px" font-style="normal" font-weight="normal" text-decoration="normal" x="208" y="179" text-anchor="start" dominant-baseline="alphabetic" fill-opacity="1">1</text><text fill="none" stroke="rgb(255,255,255)" font-family="geogebra-sans-serif, sans-serif" font-size="12px" font-style="normal" font-weight="normal" text-decoration="normal" x="208" y="179" text-anchor="start" dominant-baseline="alphabetic" stroke-opacity="1" stroke-linejoin="bevel" stroke-miterlimit="10" stroke-width="3">1</text><text fill="rgb(0,0,0)" stroke="none" font-family="geogebra-sans-serif, sans-serif" font-size="12px" font-style="normal" font-weight="normal" text-decoration="normal" x="208" y="179" text-anchor="start" dominant-baseline="alphabetic" fill-opacity="1">1</text><text fill="rgb(0,0,0)" stroke="none" font-family="geogebra-sans-serif, sans-serif" font-size="12px" font-style="normal" font-weight="normal" text-decoration="normal" x="208" y="118" text-anchor="start" dominant-baseline="alphabetic" fill-opacity="1">2</text><text fill="none" stroke="rgb(255,255,255)" font-family="geogebra-sans-serif, sans-serif" font-size="12px" font-style="normal" font-weight="normal" text-decoration="normal" x="208" y="118" text-anchor="start" dominant-baseline="alphabetic" stroke-opacity="1" stroke-linejoin="bevel" stroke-miterlimit="10" stroke-width="3">2</text><text fill="rgb(0,0,0)" stroke="none" font-family="geogebra-sans-serif, sans-serif" font-size="12px" font-style="normal" font-weight="normal" text-decoration="normal" x="208" y="118" text-anchor="start" dominant-baseline="alphabetic" fill-opacity="1">2</text><text fill="rgb(0,0,0)" stroke="none" font-family="geogebra-sans-serif, sans-serif" font-size="12px" font-style="normal" font-weight="normal" text-decoration="normal" x="208" y="58" text-anchor="start" dominant-baseline="alphabetic" fill-opacity="1">3</text><text fill="none" stroke="rgb(255,255,255)" font-family="geogebra-sans-serif, sans-serif" font-size="12px" font-style="normal" font-weight="normal" text-decoration="normal" x="208" y="58" text-anchor="start" dominant-baseline="alphabetic" stroke-opacity="1" stroke-linejoin="bevel" stroke-miterlimit="10" stroke-width="3">3</text><text fill="rgb(0,0,0)" stroke="none" font-family="geogebra-sans-serif, sans-serif" font-size="12px" font-style="normal" font-weight="normal" text-decoration="normal" x="208" y="58" text-anchor="start" dominant-baseline="alphabetic" fill-opacity="1">3</text><text fill="rgb(0,0,0)" stroke="none" font-family="geogebra-sans-serif, sans-serif" font-size="12px" font-style="normal" font-weight="normal" text-decoration="normal" x="208" y="250" text-anchor="start" dominant-baseline="alphabetic" fill-opacity="1">0</text><text fill="none" stroke="rgb(255,255,255)" font-family="geogebra-sans-serif, sans-serif" font-size="12px" font-style="normal" font-weight="normal" text-decoration="normal" x="208" y="250" text-anchor="start" dominant-baseline="alphabetic" stroke-opacity="1" stroke-linejoin="bevel" stroke-miterlimit="10" stroke-width="3">0</text><text fill="rgb(0,0,0)" stroke="none" font-family="geogebra-sans-serif, sans-serif" font-size="12px" font-style="normal" font-weight="normal" text-decoration="normal" x="208" y="250" text-anchor="start" dominant-baseline="alphabetic" fill-opacity="1">0</text><path fill="none" stroke="rgb(46,125,50)" paint-order="fill stroke markers" d=" M 0.9999999999999716 251.05941291546134 L 0.9999999999999716 251.13342832888586 L 0.9999999999999716 251.13342832888586 L 1.9999999999999716 251.2081139294839 L 1.9999999999999716 251.2081139294839 L 2.9999999999999716 251.28347886116623 L 2.9999999999999716 251.28347886116623 L 3.9999999999999716 251.35953243494743 L 3.9999999999999716 251.35953243494743 L 4.999999999999972 251.43628413278057 L 4.999999999999972 251.43628413278057 L 5.999999999999972 251.51374361149814 L 5.999999999999972 251.51374361149814 L 6.999999999999972 251.59192070686242 L 6.999999999999972 251.59192070686242 L 7.999999999999943 251.67082543772887 L 7.999999999999943 251.67082543772887 L 8.999999999999943 251.7504680103266 L 8.999999999999943 251.7504680103266 L 9.999999999999943 251.83085882265917 L 9.999999999999943 251.83085882265917 L 10.999999999999943 251.91200846903013 L 10.999999999999943 251.91200846903013 L 11.999999999999943 251.99392774469734 L 11.999999999999943 251.99392774469734 L 12.999999999999943 252.07662765066044 L 12.999999999999943 252.07662765066044 L 13.999999999999943 252.16011939858555 L 13.999999999999943 252.16011939858555 L 14.999999999999915 252.24441441587246 L 14.999999999999915 252.24441441587246 L 15.999999999999915 252.32952435086855 L 15.999999999999915 252.32952435086855 L 16.999999999999915 252.41546107823467 L 16.999999999999915 252.41546107823467 L 17.999999999999915 252.50223670446837 L 17.999999999999915 252.50223670446837 L 18.999999999999915 252.5898635735893 L 18.999999999999915 252.5898635735893 L 19.999999999999915 252.6783542729932 L 19.999999999999915 252.6783542729932 L 20.999999999999915 252.76772163947953 L 20.999999999999915 252.76772163947953 L 21.999999999999886 252.85797876545922 L 21.999999999999886 252.85797876545922 L 22.999999999999886 252.9491390053489 L 22.999999999999886 252.9491390053489 L 23.999999999999886 253.04121598215787 L 23.999999999999886 253.04121598215787 L 24.999999999999886 253.13422359427486 L 24.999999999999886 253.13422359427486 L 25.999999999999886 253.22817602246164 L 25.999999999999886 253.22817602246164 L 26.999999999999886 253.32308773706086 L 26.999999999999886 253.32308773706086 L 27.999999999999886 253.41897350542575 L 27.999999999999886 253.41897350542575 L 28.999999999999886 253.51584839957974 L 28.999999999999886 253.51584839957974 L 29.999999999999858 253.61372780411443 L 29.999999999999858 253.61372780411443 L 30.999999999999858 253.71262742433453 L 30.999999999999858 253.71262742433453 L 31.999999999999858 253.81256329465867 L 31.999999999999858 253.81256329465867 L 32.99999999999986 253.91355178728585 L 32.99999999999986 253.91355178728585 L 33.99999999999986 254.01560962113712 L 33.99999999999986 254.01560962113712 L 34.99999999999986 254.11875387108276 L 34.99999999999986 254.11875387108276 L 35.99999999999986 254.22300197746577 L 35.99999999999986 254.22300197746577 L 36.99999999999983 254.3283717559328 L 36.99999999999983 254.3283717559328 L 37.99999999999983 254.43488140758404 L 37.99999999999983 254.43488140758404 L 38.99999999999983 254.54254952945436 L 38.99999999999983 254.54254952945436 L 39.99999999999983 254.6513951253383 L 39.99999999999983 254.6513951253383 L 40.99999999999983 254.76143761697222 L 40.99999999999983 254.76143761697222 L 41.99999999999983 254.8726968555872 L 41.99999999999983 254.8726968555872 L 42.99999999999983 254.98519313384762 L 42.99999999999983 254.98519313384762 L 43.9999999999998 255.09894719818976 L 43.9999999999998 255.09894719818976 L 44.9999999999998 255.21398026157695 L 44.9999999999998 255.21398026157695 L 45.9999999999998 255.33031401668725 L 45.9999999999998 255.33031401668725 L 46.9999999999998 255.44797064955094 L 46.9999999999998 255.44797064955094 L 47.9999999999998 255.56697285365607 L 47.9999999999998 255.56697285365607 L 48.9999999999998 255.68734384454066 L 48.9999999999998 255.68734384454066 L 49.9999999999998 255.80910737489123 L 49.9999999999998 255.80910737489123 L 50.99999999999977 255.93228775016857 L 50.99999999999977 255.93228775016857 L 51.99999999999977 256.0569098447822 L 51.99999999999977 256.0569098447822 L 52.99999999999977 256.18299911883577 L 52.99999999999977 256.18299911883577 L 53.99999999999977 256.3105816354678 L 53.99999999999977 256.3105816354678 L 54.99999999999977 256.439684078812 L 54.99999999999977 256.439684078812 L 55.99999999999977 256.57033377260314 L 55.99999999999977 256.57033377260314 L 56.99999999999977 256.70255869945623 L 56.99999999999977 256.70255869945623 L 57.999999999999744 256.83638752084727 L 57.999999999999744 256.83638752084727 L 58.999999999999744 256.9718495978251 L 58.999999999999744 256.9718495978251 L 59.999999999999744 257.10897501248684 L 59.999999999999744 257.10897501248684 L 60.999999999999744 257.24779459024876 L 60.999999999999744 257.24779459024876 L 61.999999999999744 257.3883399229481 L 61.999999999999744 257.3883399229481 L 62.999999999999744 257.5306433928116 L 62.999999999999744 257.5306433928116 L 63.999999999999744 257.6747381973295 L 63.999999999999744 257.6747381973295 L 64.99999999999972 257.8206583750744 L 64.99999999999972 257.8206583750744 L 65.99999999999972 257.9684388325082 L 65.99999999999972 257.9684388325082 L 66.99999999999972 258.11811537182007 L 66.99999999999972 258.11811537182007 L 67.99999999999972 258.26972471984374 L 67.99999999999972 258.26972471984374 L 68.99999999999972 258.42330455810156 L 68.99999999999972 258.42330455810156 L 69.99999999999972 258.578893554028 L 69.99999999999972 258.578893554028 L 70.99999999999972 258.73653139342696 L 70.99999999999972 258.73653139342696 L 71.99999999999969 258.896258814219 L 71.99999999999969 258.896258814219 L 72.99999999999969 259.05811764154043 L 72.99999999999969 259.05811764154043 L 73.99999999999969 259.22215082425635 L 73.99999999999969 259.22215082425635 L 74.99999999999969 259.388402472955 L 74.99999999999969 259.388402472955 L 75.99999999999969 259.55691789949526 L 75.99999999999969 259.55691789949526 L 76.99999999999969 259.727743658179 L 76.99999999999969 259.727743658179 L 77.99999999999969 259.9009275886302 L 77.99999999999969 259.9009275886302 L 78.99999999999966 260.0765188604612 L 78.99999999999966 260.0765188604612 L 79.99999999999966 260.25456801981477 L 79.99999999999966 260.25456801981477 L 80.99999999999966 260.4351270378748 L 80.99999999999966 260.4351270378748 L 81.99999999999966 260.6182493614426 L 81.99999999999966 260.6182493614426 L 82.99999999999966 260.80398996568306 L 82.99999999999966 260.80398996568306 L 83.99999999999966 260.9924054091488 L 83.99999999999966 260.9924054091488 L 84.99999999999966 261.1835538911998 L 84.99999999999966 261.1835538911998 L 85.99999999999963 261.3774953119393 L 85.99999999999963 261.3774953119393 L 86.99999999999963 261.5742913347964 L 86.99999999999963 261.5742913347964 L 87.99999999999963 261.77400545189255 L 87.99999999999963 261.77400545189255 L 88.99999999999963 261.9767030523377 L 88.99999999999963 261.9767030523377 L 89.99999999999963 262.18245149361013 L 89.99999999999963 262.18245149361013 L 90.99999999999963 262.3913201761837 L 90.99999999999963 262.3913201761837 L 91.99999999999963 262.6033806215765 L 91.99999999999963 262.6033806215765 L 92.9999999999996 262.81870655400485 L 92.9999999999996 262.81870655400485 L 93.9999999999996 263.03737398583905 L 93.9999999999996 263.03737398583905 L 94.9999999999996 263.25946130706797 L 94.9999999999996 263.25946130706797 L 95.9999999999996 263.48504937899514 L 95.9999999999996 263.48504937899514 L 96.9999999999996 263.71422163240015 L 96.9999999999996 263.71422163240015 L 97.99999999999959 263.9470641704168 L 97.99999999999959 263.9470641704168 L 98.99999999999959 264.18366587639366 L 98.99999999999959 264.18366587639366 L 99.99999999999959 264.42411852702156 L 99.99999999999959 264.42411852702156 L 100.99999999999959 264.6685169110301 L 100.99999999999959 264.6685169110301 L 101.99999999999957 264.91695895377586 L 101.99999999999957 264.91695895377586 L 102.99999999999957 265.16954584806604 L 102.99999999999957 265.16954584806604 L 103.99999999999957 265.4263821915853 L 103.99999999999957 265.4263821915853 L 104.99999999999956 265.687576131317 L 104.99999999999956 265.687576131317 L 105.99999999999956 265.953239515379 L 105.99999999999956 265.953239515379 L 106.99999999999956 266.22348805272037 L 106.99999999999956 266.22348805272037 L 107.99999999999956 266.49844148115943 L 107.99999999999956 266.49844148115943 L 108.99999999999955 266.778223744275 L 108.99999999999955 266.778223744275 L 109.99999999999955 267.0629631777001 L 109.99999999999955 267.0629631777001 L 110.99999999999955 267.3527927054063 L 110.99999999999955 267.3527927054063 L 111.99999999999953 267.64785004660973 L 111.99999999999953 267.64785004660973 L 112.99999999999953 267.94827793397525 L 112.99999999999953 267.94827793397525 L 113.99999999999953 268.25422434384467 L 113.99999999999953 268.25422434384467 L 114.99999999999953 268.56584273927035 L 114.99999999999953 268.56584273927035 L 115.99999999999952 268.88329232669156 L 115.99999999999952 268.88329232669156 L 116.99999999999952 269.2067383271567 L 116.99999999999952 269.2067383271567 L 117.99999999999952 269.5363522630611 L 117.99999999999952 269.5363522630611 L 118.9999999999995 269.87231226144706 L 118.9999999999995 269.87231226144706 L 119.9999999999995 270.21480337499247 L 119.9999999999995 270.21480337499247 L 120.9999999999995 270.5640179219027 L 120.9999999999995 270.5640179219027 L 121.9999999999995 270.92015584601916 L 121.9999999999995 270.92015584601916 L 122.99999999999949 271.28342509855946 L 122.99999999999949 271.28342509855946 L 123.99999999999949 271.6540420430222 L 123.99999999999949 271.6540420430222 L 124.99999999999949 272.03223188491165 L 124.99999999999949 272.03223188491165 L 125.99999999999947 272.41822912807675 L 125.99999999999947 272.41822912807675 L 126.99999999999947 272.8122780596068 L 126.99999999999947 272.8122780596068 L 127.99999999999947 273.21463326539106 L 127.99999999999947 273.21463326539106 L 128.9999999999995 273.6255601786285 L 128.9999999999995 273.6255601786285 L 129.99999999999946 274.04533566377114 L 129.99999999999946 274.04533566377114 L 130.99999999999946 274.47424863860016 L 130.99999999999946 274.47424863860016 L 131.99999999999946 274.91260073737266 L 131.99999999999946 274.91260073737266 L 132.99999999999943 275.3607070182371 L 132.99999999999943 275.3607070182371 L 133.99999999999943 275.8188967184041 L 133.99999999999943 275.8188967184041 L 134.99999999999943 276.28751406087673 L 134.99999999999943 276.28751406087673 L 135.99999999999943 276.76691911689414 L 135.99999999999943 276.76691911689414 L 136.99999999999943 277.2574887286301 L 136.99999999999943 277.2574887286301 L 137.99999999999943 277.75961749711524 L 137.99999999999943 277.75961749711524 L 138.99999999999943 278.2737188408263 L 138.99999999999943 278.2737188408263 L 139.99999999999943 278.80022613091086 L 139.99999999999943 278.80022613091086 L 140.99999999999943 279.3395939095993 L 140.99999999999943 279.3395939095993 L 141.99999999999943 279.8922991990034 L 141.99999999999943 279.8922991990034 L 142.99999999999943 280.4588429082228 L 142.99999999999943 280.4588429082228 L 143.9999999999994 281.0397513474828 L 143.9999999999994 281.0397513474828 L 144.9999999999994 281.6355778589243 L 144.9999999999994 281.6355778589243 L 145.9999999999994 282.2469045746667 L 145.9999999999994 282.2469045746667 L 146.99999999999937 282.874344313885 L 146.99999999999937 282.874344313885 L 147.99999999999937 283.51854263189716 L 147.99999999999937 283.51854263189716 L 148.99999999999937 284.18018003566317 L 148.99999999999937 284.18018003566317 L 149.99999999999937 284.8599743816808 L 149.99999999999937 284.8599743816808 L 150.99999999999937 285.5586834740397 L 150.99999999999937 285.5586834740397 L 151.99999999999937 286.2771078824017 L 151.99999999999937 286.2771078824017 L 152.99999999999937 287.01609400193803 L 152.99999999999937 287.01609400193803 L 153.99999999999937 287.77653737981154 L 153.99999999999937 287.77653737981154 L 154.99999999999937 288.5593863356924 L 154.99999999999937 288.5593863356924 L 155.99999999999937 289.3656459070811 L 155.99999999999937 289.3656459070811 L 156.99999999999937 290.19638215395196 L 156.99999999999937 290.19638215395196 L 157.99999999999935 291.05272686148396 L 157.99999999999935 291.05272686148396 L 158.99999999999935 291.9358826845019 L 158.99999999999935 291.9358826845019 L 159.99999999999935 292.84712878280124 L 159.99999999999935 292.84712878280124 L 160.99999999999935 293.7878270028856 L 160.99999999999935 293.7878270028856 L 161.99999999999932 294.7594286689442 L 161.99999999999932 294.7594286689442 L 162.99999999999935 295.7634820542903 L 162.99999999999935 295.7634820542903 L 163.99999999999935 296.80164061415735 L 163.99999999999935 296.80164061415735 L 164.99999999999935 297.8756720719323 L 164.99999999999935 297.8756720719323 L 165.99999999999935 298.9874684638549 L 165.99999999999935 298.9874684638549 L 166.99999999999935 300.1390572622496 L 166.99999999999935 300.1390572622496 L 167.99999999999935 301.33261371485764 L 167.99999999999935 301.33261371485764 L 168.99999999999935 302.5704745582648 L 168.99999999999935 302.5704745582648 L 169.99999999999935 303.85515328731947 L 169.99999999999935 303.85515328731947 L 170.99999999999937 305.1893571904893 L 170.99999999999937 305.1893571904893 L 171.99999999999937 306.5760063941097 L 171.99999999999937 306.5760063941097 L 172.99999999999937 308.01825519744887 L 172.99999999999937 308.01825519744887 L 173.99999999999937 309.5195160266524 L 173.99999999999937 309.5195160266524 L 174.99999999999937 311.08348639044624 L 174.99999999999937 311.08348639044624 L 175.99999999999937 312.714179285814 L 175.99999999999937 312.714179285814 L 176.99999999999937 314.4159575800209 L 176.99999999999937 314.4159575800209 L 177.99999999999937 316.19357298918214 L 177.99999999999937 316.19357298918214 L 178.99999999999937 318.05221038664746 L 178.99999999999937 318.05221038664746 L 179.99999999999937 319.99753831127856 L 179.99999999999937 319.99753831127856 L 180.99999999999937 322.03576671189853 L 180.99999999999937 322.03576671189853 L 181.99999999999937 324.1737131669905 L 181.99999999999937 324.1737131669905 L 182.99999999999937 326.4188790672825 L 182.99999999999937 326.4188790672825 L 183.9999999999994 328.77953755495673 L 183.9999999999994 328.77953755495673 L 184.9999999999994 331.2648353920474 L 184.9999999999994 331.2648353920474 L 185.9999999999994 333.88491140186585 L 185.9999999999994 333.88491140186585 L 186.9999999999994 336.65103471678015 L 186.9999999999994 336.65103471678015 L 187.9999999999994 339.575766807267 L 187.9999999999994 339.575766807267 L 188.9999999999994 342.673152205748 L 188.9999999999994 342.673152205748 L 189.9999999999994 345.9589440342287 L 189.9999999999994 345.9589440342287 L 190.9999999999994 349.4508719777714 L 190.9999999999994 349.4508719777714 L 191.99999999999943 353.16896232564454 L 191.99999999999943 353.16896232564454 L 192.9999999999994 357.1359222781364 L 192.9999999999994 357.1359222781364 L 193.9999999999994 361.3776040959813 L 193.9999999999994 361.3776040959813 L 194.9999999999994 365.9235691390946 L 194.9999999999994 365.9235691390946 L 195.9999999999994 370.8077778076189 L 195.9999999999994 370.8077778076189 L 196.9999999999994 376.06943943946357 L 196.9999999999994 376.06943943946357 L 197.9999999999994 381.75406716848244 L 197.9999999999994 381.75406716848244 L 198.9999999999994 387.914797824317 L 198.9999999999994 387.914797824317 L 199.9999999999994 394.61405796244054 L 199.9999999999994 394.61405796244054 L 200.9999999999994 401.92568676163137 L 200.9999999999994 401.92568676163137 L 201.9999999999994 409.93766895451495 L 201.9999999999994 409.93766895451495 L 202.9999999999994 418.7556925934215 L 202.9999999999994 418.7556925934215 L 203.9999999999994 428.50783747254087 L 203.9999999999994 428.50783747254087 L 204.59874231240477 435 L 221.9999999999994 434.99999999999994 L 221.9999999999994 425 M 222.02838638158025 -10.000000000000002 L 237.85069873940094 -10 L 237.9999999999994 -7.440368551536125 L 237.9999999999994 -7.440368551536125 L 238.9999999999994 7.5766695528672585 L 238.9999999999994 7.5766695528672585 L 239.9999999999994 20.83939851820159 L 239.9999999999994 20.83939851820159 L 240.9999999999994 32.6382641020989 L 240.9999999999994 32.6382641020989 L 241.9999999999994 43.20294990163012 L 241.9999999999994 43.20294990163012 L 242.9999999999994 52.7174771638598 L 242.9999999999994 52.7174771638598 L 243.9999999999994 61.33101491266095 L 243.9999999999994 61.33101491266095 L 244.9999999999994 69.16575787601778 L 244.9999999999994 69.16575787601778 L 245.9999999999994 76.32275998383778 L 245.9999999999994 76.32275998383778 L 246.9999999999994 82.8863167573214 L 246.9999999999994 82.8863167573214 L 247.9999999999994 88.92730095649338 L 247.9999999999994 88.92730095649338 L 248.9999999999994 94.50573200443705 L 248.9999999999994 94.50573200443705 L 249.99999999999937 99.67277695846889 L 249.99999999999937 99.67277695846889 L 250.99999999999937 104.47232453418883 L 250.99999999999937 104.47232453418883 L 251.99999999999937 108.94223481331709 L 251.99999999999937 108.94223481331709 L 252.99999999999937 113.11534000717765 L 252.99999999999937 113.11534000717765 L 253.99999999999937 117.02025227199745 L 253.99999999999937 117.02025227199745 L 254.99999999999937 120.6820206255236 L 254.99999999999937 120.6820206255236 L 255.9999999999994 124.12266885762918 L 255.9999999999994 124.12266885762918 L 256.9999999999994 127.36163884985046 L 256.9999999999994 127.36163884985046 L 257.9999999999994 130.4161581573357 L 257.9999999999994 130.4161581573357 L 258.99999999999943 133.30154653096218 L 258.99999999999943 133.30154653096218 L 259.99999999999943 136.03147289408344 L 259.99999999999943 136.03147289408344 L 260.99999999999943 138.61817187191372 L 260.99999999999943 138.61817187191372 L 261.99999999999943 141.07262711103073 L 261.99999999999943 141.07262711103073 L 262.99999999999943 143.4047271833187 L 262.99999999999943 143.4047271833187 L 263.99999999999943 145.62339874137712 L 263.99999999999943 145.62339874137712 L 264.99999999999943 147.73672070600065 L 264.99999999999943 147.73672070600065 L 265.99999999999943 149.75202256492702 L 265.99999999999943 149.75202256492702 L 266.99999999999943 151.6759693037203 L 266.99999999999943 151.6759693037203 L 267.99999999999943 153.5146350426976 L 267.99999999999943 153.5146350426976 L 268.99999999999943 155.2735670940653 L 268.99999999999943 155.2735670940653 L 269.99999999999943 156.95784186240496 L 269.99999999999943 156.95784186240496 L 270.99999999999943 158.5721137750482 L 270.99999999999943 158.5721137750482 L 271.99999999999943 160.12065823563572 L 271.99999999999943 160.12065823563572 L 272.99999999999943 161.60740943560774 L 272.99999999999943 161.60740943560774 L 273.99999999999943 163.03599372774136 L 273.99999999999943 163.03599372774136 L 274.99999999999943 164.4097591577738 L 274.99999999999943 164.4097591577738 L 275.99999999999943 165.7318016603861 L 275.99999999999943 165.7318016603861 L 276.99999999999943 167.00498835098557 L 276.99999999999943 167.00498835098557 L 277.99999999999943 168.23197828210547 L 277.99999999999943 168.23197828210547 L 278.99999999999943 169.41524098066773 L 278.99999999999943 169.41524098066773 L 279.99999999999943 170.55707303805946 L 279.99999999999943 170.55707303805946 L 280.99999999999943 171.65961298754348 L 280.99999999999943 171.65961298754348 L 281.99999999999943 172.7248546717873 L 281.99999999999943 172.7248546717873 L 282.9999999999995 173.75465927631103 L 282.9999999999995 173.75465927631103 L 283.99999999999943 174.7507661816447 L 283.99999999999943 174.7507661816447 L 284.99999999999943 175.71480276730858 L 284.99999999999943 175.71480276730858 L 285.99999999999943 176.6482932838587 L 285.99999999999943 176.6482932838587 L 286.99999999999943 177.55266689473686 L 286.99999999999943 177.55266689473686 L 287.99999999999943 178.4292649771661 L 287.99999999999943 178.4292649771661 L 288.99999999999943 179.27934776053462 L 288.99999999999943 179.27934776053462 L 289.99999999999943 180.10410037136185 L 289.99999999999943 180.10410037136185 L 290.99999999999943 180.90463834582619 L 290.99999999999943 180.90463834582619 L 291.99999999999943 181.68201266377605 L 291.99999999999943 181.68201266377605 L 292.99999999999943 182.43721435199342 L 292.99999999999943 182.43721435199342 L 293.99999999999943 183.17117869910672 L 293.99999999999943 183.17117869910672 L 294.99999999999943 183.88478911984637 L 294.99999999999943 183.88478911984637 L 295.99999999999943 184.57888070221196 L 295.99999999999943 184.57888070221196 L 296.99999999999943 185.25424346749784 L 296.99999999999943 185.25424346749784 L 297.99999999999943 185.91162536993366 L 297.99999999999943 185.91162536993366 L 298.99999999999943 186.55173505988532 L 298.99999999999943 186.55173505988532 L 299.99999999999943 187.17524443207688 L 299.99999999999943 187.17524443207688 L 300.9999999999994 187.78279097809695 L 300.9999999999994 187.78279097809695 L 301.9999999999994 188.37497996050516 L 301.9999999999994 188.37497996050516 L 302.9999999999994 188.95238642412514 L 302.9999999999994 188.95238642412514 L 303.9999999999994 189.5155570585736 L 303.9999999999994 189.5155570585736 L 304.9999999999994 190.06501192470623 L 304.9999999999994 190.06501192470623 L 305.9999999999994 190.6012460564407 L 305.9999999999994 190.6012460564407 L 306.9999999999994 191.12473094832714 L 306.9999999999994 191.12473094832714 L 307.9999999999994 191.63591593826197 L 307.9999999999994 191.63591593826197 L 308.9999999999994 192.13522949386794 L 308.9999999999994 192.13522949386794 L 309.9999999999994 192.62308041028058 L 309.9999999999994 192.62308041028058 L 310.9999999999993 193.09985892637877 L 310.9999999999993 193.09985892637877 L 311.9999999999993 193.5659377658655 L 311.9999999999993 193.5659377658655 L 312.9999999999993 194.02167310903553 L 312.9999999999993 194.02167310903553 L 313.9999999999993 194.46740550055512 L 313.9999999999993 194.46740550055512 L 314.9999999999993 194.90346069811585 L 314.9999999999993 194.90346069811585 L 315.9999999999993 195.3301504664073 L 315.9999999999993 195.3301504664073 L 316.9999999999993 195.74777332047537 L 316.9999999999993 195.74777332047537 L 317.9999999999993 196.156615222191 L 317.9999999999993 196.156615222191 L 318.9999999999993 196.55695023324373 L 318.9999999999993 196.55695023324373 L 319.9999999999993 196.94904112779435 L 319.9999999999993 196.94904112779435 L 320.9999999999993 197.3331399676637 L 320.9999999999993 197.3331399676637 L 321.9999999999993 197.7094886427041 L 321.9999999999993 197.7094886427041 L 322.9999999999993 198.07831937878728 L 322.9999999999993 198.07831937878728 L 323.9999999999993 198.43985521565077 L 323.9999999999993 198.43985521565077 L 324.9999999999993 198.7943104566685 L 324.9999999999993 198.7943104566685 L 325.9999999999993 199.14189109245217 L 325.9999999999993 199.14189109245217 L 326.9999999999993 199.48279520004175 L 326.9999999999993 199.48279520004175 L 327.9999999999993 199.8172133193116 L 327.9999999999993 199.8172133193116 L 328.99999999999926 200.1453288080945 L 328.99999999999926 200.1453288080945 L 329.99999999999926 200.46731817741448 L 329.99999999999926 200.46731817741448 L 330.99999999999926 200.78335140811652 L 330.99999999999926 200.78335140811652 L 331.99999999999926 201.09359225008612 L 331.99999999999926 201.09359225008612 L 332.99999999999926 201.39819850516554 L 332.99999999999926 201.39819850516554 L 333.99999999999926 201.69732229479405 L 333.99999999999926 201.69732229479405 L 334.99999999999926 201.99111031332552 L 334.99999999999926 201.99111031332552 L 335.99999999999926 202.27970406790982 L 335.99999999999926 202.27970406790982 L 336.99999999999926 202.56324010576208 L 336.99999999999926 202.56324010576208 L 337.99999999999926 202.84185022958715 L 337.99999999999926 202.84185022958715 L 338.9999999999992 203.1156617018725 L 338.9999999999992 203.1156617018725 L 339.9999999999992 203.3847974387156 L 339.9999999999992 203.3847974387156 L 340.9999999999992 203.6493761938056 L 340.9999999999992 203.6493761938056 L 341.9999999999992 203.90951273313811 L 341.9999999999992 203.90951273313811 L 342.9999999999992 204.16531800100265 L 342.9999999999992 204.16531800100265 L 343.9999999999992 204.41689927774786 L 343.9999999999992 204.41689927774786 L 344.9999999999992 204.66436032979527 L 344.9999999999992 204.66436032979527 L 345.9999999999992 204.90780155234228 L 345.9999999999992 204.90780155234228 L 346.9999999999992 205.1473201051672 L 346.9999999999992 205.1473201051672 L 347.9999999999992 205.38301004192155 L 347.9999999999992 205.38301004192155 L 348.9999999999992 205.61496243327173 L 348.9999999999992 205.61496243327173 L 349.9999999999992 205.84326548422828 L 349.9999999999992 205.84326548422828 L 350.9999999999992 206.06800464598058 L 350.9999999999992 206.06800464598058 L 351.9999999999992 206.2892627225348 L 351.9999999999992 206.2892627225348 L 352.9999999999992 206.50711997243457 L 352.9999999999992 206.50711997243457 L 353.9999999999992 206.72165420582704 L 353.9999999999992 206.72165420582704 L 354.9999999999992 206.93294087712073 L 354.9999999999992 206.93294087712073 L 355.9999999999992 207.14105317346727 L 355.9999999999992 207.14105317346727 L 356.9999999999992 207.34606209928472 L 356.9999999999992 207.34606209928472 L 357.9999999999992 207.5480365570276 L 357.9999999999992 207.5480365570276 L 358.99999999999915 207.7470434243968 L 358.99999999999915 207.7470434243968 L 359.99999999999915 207.9431476281709 L 359.99999999999915 207.9431476281709 L 360.99999999999915 208.13641221483027 L 360.99999999999915 208.13641221483027 L 361.99999999999915 208.32689841813527 L 361.99999999999915 208.32689841813527 L 362.99999999999915 208.51466572381077 L 362.99999999999915 208.51466572381077 L 363.99999999999915 208.6997719314803 L 363.99999999999915 208.6997719314803 L 364.99999999999915 208.88227321398583 L 364.99999999999915 208.88227321398583 L 365.9999999999991 209.06222417422026 L 365.9999999999991 209.06222417422026 L 366.9999999999991 209.23967789959423 L 366.9999999999991 209.23967789959423 L 367.9999999999991 209.41468601425083 L 367.9999999999991 209.41468601425083 L 368.9999999999991 209.58729872913628 L 368.9999999999991 209.58729872913628 L 369.9999999999991 209.7575648900285 L 369.9999999999991 209.7575648900285 L 370.9999999999991 209.9255320236204 L 370.9999999999991 209.9255320236204 L 371.9999999999991 210.09124638174876 L 371.9999999999991 210.09124638174876 L 372.9999999999991 210.25475298385527 L 372.9999999999991 210.25475298385527 L 373.9999999999991 210.41609565776204 L 373.9999999999991 210.41609565776204 L 374.9999999999991 210.57531707883862 L 374.9999999999991 210.57531707883862 L 375.9999999999991 210.7324588076342 L 375.9999999999991 210.7324588076342 L 376.9999999999991 210.8875613260449 L 376.9999999999991 210.8875613260449 L 377.9999999999991 211.04066407208214 L 377.9999999999991 211.04066407208214 L 378.9999999999991 211.19180547330464 L 378.9999999999991 211.19180547330464 L 379.9999999999991 211.34102297897383 L 379.9999999999991 211.34102297897383 L 380.9999999999991 211.48835309098916 L 380.9999999999991 211.48835309098916 L 381.9999999999991 211.6338313936568 L 381.9999999999991 211.6338313936568 L 382.9999999999991 211.777492582343 L 382.9999999999991 211.777492582343 L 383.9999999999991 211.9193704910602 L 383.9999999999991 211.9193704910602 L 384.9999999999991 212.05949811903233 L 384.9999999999991 212.05949811903233 L 385.9999999999991 212.19790765628312 L 385.9999999999991 212.19790765628312 L 386.99999999999903 212.3346305082886 L 386.99999999999903 212.3346305082886 L 387.99999999999903 212.469697319734 L 387.99999999999903 212.469697319734 L 388.99999999999903 212.60313799741263 L 388.99999999999903 212.60313799741263 L 389.99999999999903 212.73498173230251 L 389.99999999999903 212.73498173230251 L 390.99999999999903 212.86525702085518 L 390.99999999999903 212.86525702085518 L 391.99999999999903 212.9939916855292 L 391.99999999999903 212.9939916855292 L 392.99999999999903 213.12121289459955 L 392.99999999999903 213.12121289459955 L 393.999999999999 213.2469471812722 L 393.999999999999 213.2469471812722 L 394.999999999999 213.37122046213273 L 394.999999999999 213.37122046213273 L 395.999999999999 213.49405805495525 L 395.999999999999 213.49405805495525 L 396.999999999999 213.61548469589778 L 396.999999999999 213.61548469589778 L 397.999999999999 213.73552455610837 L 397.999999999999 213.73552455610837 L 398.999999999999 213.85420125776574 L 398.999999999999 213.85420125776574 L 399.999999999999 213.97153788957615 L 399.999999999999 213.97153788957615 L 400.999999999999 214.08755702174867 L 400.999999999999 214.08755702174867 L 401.999999999999 214.20228072046848 L 401.999999999999 214.20228072046848 L 402.999999999999 214.31573056188827 L 402.999999999999 214.31573056188827 L 403.999999999999 214.42792764565604 L 403.999999999999 214.42792764565604 L 404.999999999999 214.53889260799727 L 404.999999999999 214.53889260799727 L 405.999999999999 214.64864563436842 L 405.999999999999 214.64864563436842 L 406.999999999999 214.75720647169805 L 406.999999999999 214.75720647169805 L 407.999999999999 214.86459444023134 L 407.999999999999 214.86459444023134 L 408.999999999999 214.9708284449925 L 408.999999999999 214.9708284449925 L 409.999999999999 215.07592698687998 L 409.999999999999 215.07592698687998 L 410.999999999999 215.1799081734075 L 410.999999999999 215.1799081734075 L 411.999999999999 215.2827897291046 L 411.999999999999 215.2827897291046 L 412.999999999999 215.38458900558848 L 412.999999999999 215.38458900558848 L 413.999999999999 215.4853229913204 L 413.999999999999 215.4853229913204 L 414.9999999999989 215.58500832105662 L 414.9999999999989 215.58500832105662 L 415.9999999999989 215.68366128500617 L 415.9999999999989 215.68366128500617 L 416.9999999999989 215.78129783770535 L 416.9999999999989 215.78129783770535 L 417.9999999999989 215.87793360661962 L 417.9999999999989 215.87793360661962 L 418.9999999999989 215.97358390048186 L 418.9999999999989 215.97358390048186 L 419.9999999999989 216.06826371737733 L 419.9999999999989 216.06826371737733 L 420.9999999999989 216.1619877525834 L 420.9999999999989 216.1619877525834 L 421.99999999999886 216.2547704061733 L 421.99999999999886 216.2547704061733 L 422.99999999999886 216.3466257903916 L 422.99999999999886 216.3466257903916 L 423.99999999999886 216.43756773681025 L 423.99999999999886 216.43756773681025 L 424.99999999999886 216.52760980327128 L 424.99999999999886 216.52760980327128 L 425.99999999999886 216.61676528062532 L 425.99999999999886 216.61676528062532 L 426.99999999999886 216.70504719927146 L 426.99999999999886 216.70504719927146 L 427.99999999999886 216.79246833550604 L 427.99999999999886 216.79246833550604 L 428.99999999999886 216.8790412176867 L 428.99999999999886 216.8790412176867 L 429.99999999999886 216.9647781322176 L 429.99999999999886 216.9647781322176 L 430.99999999999886 217.04969112936234 L 430.99999999999886 217.04969112936234 L 431.99999999999886 217.13379202889 L 431.99999999999886 217.13379202889 L 432.99999999999886 217.21709242556005 L 432.99999999999886 217.21709242556005 L 433.99999999999886 217.29960369445104 L 433.99999999999886 217.29960369445104 L 434.99999999999886 217.3813369961391 L 434.99999999999886 217.3813369961391 L 435.99999999999886 217.4623032817303 L 435.99999999999886 217.4623032817303 L 436.99999999999886 217.5425132977519 L 436.99999999999886 217.5425132977519 L 437.99999999999886 217.62197759090753 L 437.99999999999886 217.62197759090753 L 438.99999999999886 217.7007065127001 L 438.99999999999886 217.7007065127001 L 439.99999999999886 217.77871022392696 L 439.99999999999886 217.77871022392696 L 440.99999999999886 217.85599869905164 L 440.99999999999886 217.85599869905164 L 441.99999999999886 217.9325817304555 L 441.99999999999886 217.9325817304555 L 442.9999999999988 218.00846893257383 L 442.9999999999988 218.00846893257383 L 443.9999999999988 218.0836697459196" stroke-opacity="0.2" stroke-linecap="round" stroke-linejoin="round" stroke-miterlimit="10" stroke-width="7"/><path fill="none" stroke="rgb(46,125,50)" paint-order="fill stroke markers" d=" M 0.9999999999999716 251.05941291546134 L 0.9999999999999716 251.13342832888586 L 0.9999999999999716 251.13342832888586 L 1.9999999999999716 251.2081139294839 L 1.9999999999999716 251.2081139294839 L 2.9999999999999716 251.28347886116623 L 2.9999999999999716 251.28347886116623 L 3.9999999999999716 251.35953243494743 L 3.9999999999999716 251.35953243494743 L 4.999999999999972 251.43628413278057 L 4.999999999999972 251.43628413278057 L 5.999999999999972 251.51374361149814 L 5.999999999999972 251.51374361149814 L 6.999999999999972 251.59192070686242 L 6.999999999999972 251.59192070686242 L 7.999999999999943 251.67082543772887 L 7.999999999999943 251.67082543772887 L 8.999999999999943 251.7504680103266 L 8.999999999999943 251.7504680103266 L 9.999999999999943 251.83085882265917 L 9.999999999999943 251.83085882265917 L 10.999999999999943 251.91200846903013 L 10.999999999999943 251.91200846903013 L 11.999999999999943 251.99392774469734 L 11.999999999999943 251.99392774469734 L 12.999999999999943 252.07662765066044 L 12.999999999999943 252.07662765066044 L 13.999999999999943 252.16011939858555 L 13.999999999999943 252.16011939858555 L 14.999999999999915 252.24441441587246 L 14.999999999999915 252.24441441587246 L 15.999999999999915 252.32952435086855 L 15.999999999999915 252.32952435086855 L 16.999999999999915 252.41546107823467 L 16.999999999999915 252.41546107823467 L 17.999999999999915 252.50223670446837 L 17.999999999999915 252.50223670446837 L 18.999999999999915 252.5898635735893 L 18.999999999999915 252.5898635735893 L 19.999999999999915 252.6783542729932 L 19.999999999999915 252.6783542729932 L 20.999999999999915 252.76772163947953 L 20.999999999999915 252.76772163947953 L 21.999999999999886 252.85797876545922 L 21.999999999999886 252.85797876545922 L 22.999999999999886 252.9491390053489 L 22.999999999999886 252.9491390053489 L 23.999999999999886 253.04121598215787 L 23.999999999999886 253.04121598215787 L 24.999999999999886 253.13422359427486 L 24.999999999999886 253.13422359427486 L 25.999999999999886 253.22817602246164 L 25.999999999999886 253.22817602246164 L 26.999999999999886 253.32308773706086 L 26.999999999999886 253.32308773706086 L 27.999999999999886 253.41897350542575 L 27.999999999999886 253.41897350542575 L 28.999999999999886 253.51584839957974 L 28.999999999999886 253.51584839957974 L 29.999999999999858 253.61372780411443 L 29.999999999999858 253.61372780411443 L 30.999999999999858 253.71262742433453 L 30.999999999999858 253.71262742433453 L 31.999999999999858 253.81256329465867 L 31.999999999999858 253.81256329465867 L 32.99999999999986 253.91355178728585 L 32.99999999999986 253.91355178728585 L 33.99999999999986 254.01560962113712 L 33.99999999999986 254.01560962113712 L 34.99999999999986 254.11875387108276 L 34.99999999999986 254.11875387108276 L 35.99999999999986 254.22300197746577 L 35.99999999999986 254.22300197746577 L 36.99999999999983 254.3283717559328 L 36.99999999999983 254.3283717559328 L 37.99999999999983 254.43488140758404 L 37.99999999999983 254.43488140758404 L 38.99999999999983 254.54254952945436 L 38.99999999999983 254.54254952945436 L 39.99999999999983 254.6513951253383 L 39.99999999999983 254.6513951253383 L 40.99999999999983 254.76143761697222 L 40.99999999999983 254.76143761697222 L 41.99999999999983 254.8726968555872 L 41.99999999999983 254.8726968555872 L 42.99999999999983 254.98519313384762 L 42.99999999999983 254.98519313384762 L 43.9999999999998 255.09894719818976 L 43.9999999999998 255.09894719818976 L 44.9999999999998 255.21398026157695 L 44.9999999999998 255.21398026157695 L 45.9999999999998 255.33031401668725 L 45.9999999999998 255.33031401668725 L 46.9999999999998 255.44797064955094 L 46.9999999999998 255.44797064955094 L 47.9999999999998 255.56697285365607 L 47.9999999999998 255.56697285365607 L 48.9999999999998 255.68734384454066 L 48.9999999999998 255.68734384454066 L 49.9999999999998 255.80910737489123 L 49.9999999999998 255.80910737489123 L 50.99999999999977 255.93228775016857 L 50.99999999999977 255.93228775016857 L 51.99999999999977 256.0569098447822 L 51.99999999999977 256.0569098447822 L 52.99999999999977 256.18299911883577 L 52.99999999999977 256.18299911883577 L 53.99999999999977 256.3105816354678 L 53.99999999999977 256.3105816354678 L 54.99999999999977 256.439684078812 L 54.99999999999977 256.439684078812 L 55.99999999999977 256.57033377260314 L 55.99999999999977 256.57033377260314 L 56.99999999999977 256.70255869945623 L 56.99999999999977 256.70255869945623 L 57.999999999999744 256.83638752084727 L 57.999999999999744 256.83638752084727 L 58.999999999999744 256.9718495978251 L 58.999999999999744 256.9718495978251 L 59.999999999999744 257.10897501248684 L 59.999999999999744 257.10897501248684 L 60.999999999999744 257.24779459024876 L 60.999999999999744 257.24779459024876 L 61.999999999999744 257.3883399229481 L 61.999999999999744 257.3883399229481 L 62.999999999999744 257.5306433928116 L 62.999999999999744 257.5306433928116 L 63.999999999999744 257.6747381973295 L 63.999999999999744 257.6747381973295 L 64.99999999999972 257.8206583750744 L 64.99999999999972 257.8206583750744 L 65.99999999999972 257.9684388325082 L 65.99999999999972 257.9684388325082 L 66.99999999999972 258.11811537182007 L 66.99999999999972 258.11811537182007 L 67.99999999999972 258.26972471984374 L 67.99999999999972 258.26972471984374 L 68.99999999999972 258.42330455810156 L 68.99999999999972 258.42330455810156 L 69.99999999999972 258.578893554028 L 69.99999999999972 258.578893554028 L 70.99999999999972 258.73653139342696 L 70.99999999999972 258.73653139342696 L 71.99999999999969 258.896258814219 L 71.99999999999969 258.896258814219 L 72.99999999999969 259.05811764154043 L 72.99999999999969 259.05811764154043 L 73.99999999999969 259.22215082425635 L 73.99999999999969 259.22215082425635 L 74.99999999999969 259.388402472955 L 74.99999999999969 259.388402472955 L 75.99999999999969 259.55691789949526 L 75.99999999999969 259.55691789949526 L 76.99999999999969 259.727743658179 L 76.99999999999969 259.727743658179 L 77.99999999999969 259.9009275886302 L 77.99999999999969 259.9009275886302 L 78.99999999999966 260.0765188604612 L 78.99999999999966 260.0765188604612 L 79.99999999999966 260.25456801981477 L 79.99999999999966 260.25456801981477 L 80.99999999999966 260.4351270378748 L 80.99999999999966 260.4351270378748 L 81.99999999999966 260.6182493614426 L 81.99999999999966 260.6182493614426 L 82.99999999999966 260.80398996568306 L 82.99999999999966 260.80398996568306 L 83.99999999999966 260.9924054091488 L 83.99999999999966 260.9924054091488 L 84.99999999999966 261.1835538911998 L 84.99999999999966 261.1835538911998 L 85.99999999999963 261.3774953119393 L 85.99999999999963 261.3774953119393 L 86.99999999999963 261.5742913347964 L 86.99999999999963 261.5742913347964 L 87.99999999999963 261.77400545189255 L 87.99999999999963 261.77400545189255 L 88.99999999999963 261.9767030523377 L 88.99999999999963 261.9767030523377 L 89.99999999999963 262.18245149361013 L 89.99999999999963 262.18245149361013 L 90.99999999999963 262.3913201761837 L 90.99999999999963 262.3913201761837 L 91.99999999999963 262.6033806215765 L 91.99999999999963 262.6033806215765 L 92.9999999999996 262.81870655400485 L 92.9999999999996 262.81870655400485 L 93.9999999999996 263.03737398583905 L 93.9999999999996 263.03737398583905 L 94.9999999999996 263.25946130706797 L 94.9999999999996 263.25946130706797 L 95.9999999999996 263.48504937899514 L 95.9999999999996 263.48504937899514 L 96.9999999999996 263.71422163240015 L 96.9999999999996 263.71422163240015 L 97.99999999999959 263.9470641704168 L 97.99999999999959 263.9470641704168 L 98.99999999999959 264.18366587639366 L 98.99999999999959 264.18366587639366 L 99.99999999999959 264.42411852702156 L 99.99999999999959 264.42411852702156 L 100.99999999999959 264.6685169110301 L 100.99999999999959 264.6685169110301 L 101.99999999999957 264.91695895377586 L 101.99999999999957 264.91695895377586 L 102.99999999999957 265.16954584806604 L 102.99999999999957 265.16954584806604 L 103.99999999999957 265.4263821915853 L 103.99999999999957 265.4263821915853 L 104.99999999999956 265.687576131317 L 104.99999999999956 265.687576131317 L 105.99999999999956 265.953239515379 L 105.99999999999956 265.953239515379 L 106.99999999999956 266.22348805272037 L 106.99999999999956 266.22348805272037 L 107.99999999999956 266.49844148115943 L 107.99999999999956 266.49844148115943 L 108.99999999999955 266.778223744275 L 108.99999999999955 266.778223744275 L 109.99999999999955 267.0629631777001 L 109.99999999999955 267.0629631777001 L 110.99999999999955 267.3527927054063 L 110.99999999999955 267.3527927054063 L 111.99999999999953 267.64785004660973 L 111.99999999999953 267.64785004660973 L 112.99999999999953 267.94827793397525 L 112.99999999999953 267.94827793397525 L 113.99999999999953 268.25422434384467 L 113.99999999999953 268.25422434384467 L 114.99999999999953 268.56584273927035 L 114.99999999999953 268.56584273927035 L 115.99999999999952 268.88329232669156 L 115.99999999999952 268.88329232669156 L 116.99999999999952 269.2067383271567 L 116.99999999999952 269.2067383271567 L 117.99999999999952 269.5363522630611 L 117.99999999999952 269.5363522630611 L 118.9999999999995 269.87231226144706 L 118.9999999999995 269.87231226144706 L 119.9999999999995 270.21480337499247 L 119.9999999999995 270.21480337499247 L 120.9999999999995 270.5640179219027 L 120.9999999999995 270.5640179219027 L 121.9999999999995 270.92015584601916 L 121.9999999999995 270.92015584601916 L 122.99999999999949 271.28342509855946 L 122.99999999999949 271.28342509855946 L 123.99999999999949 271.6540420430222 L 123.99999999999949 271.6540420430222 L 124.99999999999949 272.03223188491165 L 124.99999999999949 272.03223188491165 L 125.99999999999947 272.41822912807675 L 125.99999999999947 272.41822912807675 L 126.99999999999947 272.8122780596068 L 126.99999999999947 272.8122780596068 L 127.99999999999947 273.21463326539106 L 127.99999999999947 273.21463326539106 L 128.9999999999995 273.6255601786285 L 128.9999999999995 273.6255601786285 L 129.99999999999946 274.04533566377114 L 129.99999999999946 274.04533566377114 L 130.99999999999946 274.47424863860016 L 130.99999999999946 274.47424863860016 L 131.99999999999946 274.91260073737266 L 131.99999999999946 274.91260073737266 L 132.99999999999943 275.3607070182371 L 132.99999999999943 275.3607070182371 L 133.99999999999943 275.8188967184041 L 133.99999999999943 275.8188967184041 L 134.99999999999943 276.28751406087673 L 134.99999999999943 276.28751406087673 L 135.99999999999943 276.76691911689414 L 135.99999999999943 276.76691911689414 L 136.99999999999943 277.2574887286301 L 136.99999999999943 277.2574887286301 L 137.99999999999943 277.75961749711524 L 137.99999999999943 277.75961749711524 L 138.99999999999943 278.2737188408263 L 138.99999999999943 278.2737188408263 L 139.99999999999943 278.80022613091086 L 139.99999999999943 278.80022613091086 L 140.99999999999943 279.3395939095993 L 140.99999999999943 279.3395939095993 L 141.99999999999943 279.8922991990034 L 141.99999999999943 279.8922991990034 L 142.99999999999943 280.4588429082228 L 142.99999999999943 280.4588429082228 L 143.9999999999994 281.0397513474828 L 143.9999999999994 281.0397513474828 L 144.9999999999994 281.6355778589243 L 144.9999999999994 281.6355778589243 L 145.9999999999994 282.2469045746667 L 145.9999999999994 282.2469045746667 L 146.99999999999937 282.874344313885 L 146.99999999999937 282.874344313885 L 147.99999999999937 283.51854263189716 L 147.99999999999937 283.51854263189716 L 148.99999999999937 284.18018003566317 L 148.99999999999937 284.18018003566317 L 149.99999999999937 284.8599743816808 L 149.99999999999937 284.8599743816808 L 150.99999999999937 285.5586834740397 L 150.99999999999937 285.5586834740397 L 151.99999999999937 286.2771078824017 L 151.99999999999937 286.2771078824017 L 152.99999999999937 287.01609400193803 L 152.99999999999937 287.01609400193803 L 153.99999999999937 287.77653737981154 L 153.99999999999937 287.77653737981154 L 154.99999999999937 288.5593863356924 L 154.99999999999937 288.5593863356924 L 155.99999999999937 289.3656459070811 L 155.99999999999937 289.3656459070811 L 156.99999999999937 290.19638215395196 L 156.99999999999937 290.19638215395196 L 157.99999999999935 291.05272686148396 L 157.99999999999935 291.05272686148396 L 158.99999999999935 291.9358826845019 L 158.99999999999935 291.9358826845019 L 159.99999999999935 292.84712878280124 L 159.99999999999935 292.84712878280124 L 160.99999999999935 293.7878270028856 L 160.99999999999935 293.7878270028856 L 161.99999999999932 294.7594286689442 L 161.99999999999932 294.7594286689442 L 162.99999999999935 295.7634820542903 L 162.99999999999935 295.7634820542903 L 163.99999999999935 296.80164061415735 L 163.99999999999935 296.80164061415735 L 164.99999999999935 297.8756720719323 L 164.99999999999935 297.8756720719323 L 165.99999999999935 298.9874684638549 L 165.99999999999935 298.9874684638549 L 166.99999999999935 300.1390572622496 L 166.99999999999935 300.1390572622496 L 167.99999999999935 301.33261371485764 L 167.99999999999935 301.33261371485764 L 168.99999999999935 302.5704745582648 L 168.99999999999935 302.5704745582648 L 169.99999999999935 303.85515328731947 L 169.99999999999935 303.85515328731947 L 170.99999999999937 305.1893571904893 L 170.99999999999937 305.1893571904893 L 171.99999999999937 306.5760063941097 L 171.99999999999937 306.5760063941097 L 172.99999999999937 308.01825519744887 L 172.99999999999937 308.01825519744887 L 173.99999999999937 309.5195160266524 L 173.99999999999937 309.5195160266524 L 174.99999999999937 311.08348639044624 L 174.99999999999937 311.08348639044624 L 175.99999999999937 312.714179285814 L 175.99999999999937 312.714179285814 L 176.99999999999937 314.4159575800209 L 176.99999999999937 314.4159575800209 L 177.99999999999937 316.19357298918214 L 177.99999999999937 316.19357298918214 L 178.99999999999937 318.05221038664746 L 178.99999999999937 318.05221038664746 L 179.99999999999937 319.99753831127856 L 179.99999999999937 319.99753831127856 L 180.99999999999937 322.03576671189853 L 180.99999999999937 322.03576671189853 L 181.99999999999937 324.1737131669905 L 181.99999999999937 324.1737131669905 L 182.99999999999937 326.4188790672825 L 182.99999999999937 326.4188790672825 L 183.9999999999994 328.77953755495673 L 183.9999999999994 328.77953755495673 L 184.9999999999994 331.2648353920474 L 184.9999999999994 331.2648353920474 L 185.9999999999994 333.88491140186585 L 185.9999999999994 333.88491140186585 L 186.9999999999994 336.65103471678015 L 186.9999999999994 336.65103471678015 L 187.9999999999994 339.575766807267 L 187.9999999999994 339.575766807267 L 188.9999999999994 342.673152205748 L 188.9999999999994 342.673152205748 L 189.9999999999994 345.9589440342287 L 189.9999999999994 345.9589440342287 L 190.9999999999994 349.4508719777714 L 190.9999999999994 349.4508719777714 L 191.99999999999943 353.16896232564454 L 191.99999999999943 353.16896232564454 L 192.9999999999994 357.1359222781364 L 192.9999999999994 357.1359222781364 L 193.9999999999994 361.3776040959813 L 193.9999999999994 361.3776040959813 L 194.9999999999994 365.9235691390946 L 194.9999999999994 365.9235691390946 L 195.9999999999994 370.8077778076189 L 195.9999999999994 370.8077778076189 L 196.9999999999994 376.06943943946357 L 196.9999999999994 376.06943943946357 L 197.9999999999994 381.75406716848244 L 197.9999999999994 381.75406716848244 L 198.9999999999994 387.914797824317 L 198.9999999999994 387.914797824317 L 199.9999999999994 394.61405796244054 L 199.9999999999994 394.61405796244054 L 200.9999999999994 401.92568676163137 L 200.9999999999994 401.92568676163137 L 201.9999999999994 409.93766895451495 L 201.9999999999994 409.93766895451495 L 202.9999999999994 418.7556925934215 L 202.9999999999994 418.7556925934215 L 203.9999999999994 428.50783747254087 L 203.9999999999994 428.50783747254087 L 204.59874231240477 435 L 221.9999999999994 434.99999999999994 L 221.9999999999994 425 M 222.02838638158025 -10.000000000000002 L 237.85069873940094 -10 L 237.9999999999994 -7.440368551536125 L 237.9999999999994 -7.440368551536125 L 238.9999999999994 7.5766695528672585 L 238.9999999999994 7.5766695528672585 L 239.9999999999994 20.83939851820159 L 239.9999999999994 20.83939851820159 L 240.9999999999994 32.6382641020989 L 240.9999999999994 32.6382641020989 L 241.9999999999994 43.20294990163012 L 241.9999999999994 43.20294990163012 L 242.9999999999994 52.7174771638598 L 242.9999999999994 52.7174771638598 L 243.9999999999994 61.33101491266095 L 243.9999999999994 61.33101491266095 L 244.9999999999994 69.16575787601778 L 244.9999999999994 69.16575787601778 L 245.9999999999994 76.32275998383778 L 245.9999999999994 76.32275998383778 L 246.9999999999994 82.8863167573214 L 246.9999999999994 82.8863167573214 L 247.9999999999994 88.92730095649338 L 247.9999999999994 88.92730095649338 L 248.9999999999994 94.50573200443705 L 248.9999999999994 94.50573200443705 L 249.99999999999937 99.67277695846889 L 249.99999999999937 99.67277695846889 L 250.99999999999937 104.47232453418883 L 250.99999999999937 104.47232453418883 L 251.99999999999937 108.94223481331709 L 251.99999999999937 108.94223481331709 L 252.99999999999937 113.11534000717765 L 252.99999999999937 113.11534000717765 L 253.99999999999937 117.02025227199745 L 253.99999999999937 117.02025227199745 L 254.99999999999937 120.6820206255236 L 254.99999999999937 120.6820206255236 L 255.9999999999994 124.12266885762918 L 255.9999999999994 124.12266885762918 L 256.9999999999994 127.36163884985046 L 256.9999999999994 127.36163884985046 L 257.9999999999994 130.4161581573357 L 257.9999999999994 130.4161581573357 L 258.99999999999943 133.30154653096218 L 258.99999999999943 133.30154653096218 L 259.99999999999943 136.03147289408344 L 259.99999999999943 136.03147289408344 L 260.99999999999943 138.61817187191372 L 260.99999999999943 138.61817187191372 L 261.99999999999943 141.07262711103073 L 261.99999999999943 141.07262711103073 L 262.99999999999943 143.4047271833187 L 262.99999999999943 143.4047271833187 L 263.99999999999943 145.62339874137712 L 263.99999999999943 145.62339874137712 L 264.99999999999943 147.73672070600065 L 264.99999999999943 147.73672070600065 L 265.99999999999943 149.75202256492702 L 265.99999999999943 149.75202256492702 L 266.99999999999943 151.6759693037203 L 266.99999999999943 151.6759693037203 L 267.99999999999943 153.5146350426976 L 267.99999999999943 153.5146350426976 L 268.99999999999943 155.2735670940653 L 268.99999999999943 155.2735670940653 L 269.99999999999943 156.95784186240496 L 269.99999999999943 156.95784186240496 L 270.99999999999943 158.5721137750482 L 270.99999999999943 158.5721137750482 L 271.99999999999943 160.12065823563572 L 271.99999999999943 160.12065823563572 L 272.99999999999943 161.60740943560774 L 272.99999999999943 161.60740943560774 L 273.99999999999943 163.03599372774136 L 273.99999999999943 163.03599372774136 L 274.99999999999943 164.4097591577738 L 274.99999999999943 164.4097591577738 L 275.99999999999943 165.7318016603861 L 275.99999999999943 165.7318016603861 L 276.99999999999943 167.00498835098557 L 276.99999999999943 167.00498835098557 L 277.99999999999943 168.23197828210547 L 277.99999999999943 168.23197828210547 L 278.99999999999943 169.41524098066773 L 278.99999999999943 169.41524098066773 L 279.99999999999943 170.55707303805946 L 279.99999999999943 170.55707303805946 L 280.99999999999943 171.65961298754348 L 280.99999999999943 171.65961298754348 L 281.99999999999943 172.7248546717873 L 281.99999999999943 172.7248546717873 L 282.9999999999995 173.75465927631103 L 282.9999999999995 173.75465927631103 L 283.99999999999943 174.7507661816447 L 283.99999999999943 174.7507661816447 L 284.99999999999943 175.71480276730858 L 284.99999999999943 175.71480276730858 L 285.99999999999943 176.6482932838587 L 285.99999999999943 176.6482932838587 L 286.99999999999943 177.55266689473686 L 286.99999999999943 177.55266689473686 L 287.99999999999943 178.4292649771661 L 287.99999999999943 178.4292649771661 L 288.99999999999943 179.27934776053462 L 288.99999999999943 179.27934776053462 L 289.99999999999943 180.10410037136185 L 289.99999999999943 180.10410037136185 L 290.99999999999943 180.90463834582619 L 290.99999999999943 180.90463834582619 L 291.99999999999943 181.68201266377605 L 291.99999999999943 181.68201266377605 L 292.99999999999943 182.43721435199342 L 292.99999999999943 182.43721435199342 L 293.99999999999943 183.17117869910672 L 293.99999999999943 183.17117869910672 L 294.99999999999943 183.88478911984637 L 294.99999999999943 183.88478911984637 L 295.99999999999943 184.57888070221196 L 295.99999999999943 184.57888070221196 L 296.99999999999943 185.25424346749784 L 296.99999999999943 185.25424346749784 L 297.99999999999943 185.91162536993366 L 297.99999999999943 185.91162536993366 L 298.99999999999943 186.55173505988532 L 298.99999999999943 186.55173505988532 L 299.99999999999943 187.17524443207688 L 299.99999999999943 187.17524443207688 L 300.9999999999994 187.78279097809695 L 300.9999999999994 187.78279097809695 L 301.9999999999994 188.37497996050516 L 301.9999999999994 188.37497996050516 L 302.9999999999994 188.95238642412514 L 302.9999999999994 188.95238642412514 L 303.9999999999994 189.5155570585736 L 303.9999999999994 189.5155570585736 L 304.9999999999994 190.06501192470623 L 304.9999999999994 190.06501192470623 L 305.9999999999994 190.6012460564407 L 305.9999999999994 190.6012460564407 L 306.9999999999994 191.12473094832714 L 306.9999999999994 191.12473094832714 L 307.9999999999994 191.63591593826197 L 307.9999999999994 191.63591593826197 L 308.9999999999994 192.13522949386794 L 308.9999999999994 192.13522949386794 L 309.9999999999994 192.62308041028058 L 309.9999999999994 192.62308041028058 L 310.9999999999993 193.09985892637877 L 310.9999999999993 193.09985892637877 L 311.9999999999993 193.5659377658655 L 311.9999999999993 193.5659377658655 L 312.9999999999993 194.02167310903553 L 312.9999999999993 194.02167310903553 L 313.9999999999993 194.46740550055512 L 313.9999999999993 194.46740550055512 L 314.9999999999993 194.90346069811585 L 314.9999999999993 194.90346069811585 L 315.9999999999993 195.3301504664073 L 315.9999999999993 195.3301504664073 L 316.9999999999993 195.74777332047537 L 316.9999999999993 195.74777332047537 L 317.9999999999993 196.156615222191 L 317.9999999999993 196.156615222191 L 318.9999999999993 196.55695023324373 L 318.9999999999993 196.55695023324373 L 319.9999999999993 196.94904112779435 L 319.9999999999993 196.94904112779435 L 320.9999999999993 197.3331399676637 L 320.9999999999993 197.3331399676637 L 321.9999999999993 197.7094886427041 L 321.9999999999993 197.7094886427041 L 322.9999999999993 198.07831937878728 L 322.9999999999993 198.07831937878728 L 323.9999999999993 198.43985521565077 L 323.9999999999993 198.43985521565077 L 324.9999999999993 198.7943104566685 L 324.9999999999993 198.7943104566685 L 325.9999999999993 199.14189109245217 L 325.9999999999993 199.14189109245217 L 326.9999999999993 199.48279520004175 L 326.9999999999993 199.48279520004175 L 327.9999999999993 199.8172133193116 L 327.9999999999993 199.8172133193116 L 328.99999999999926 200.1453288080945 L 328.99999999999926 200.1453288080945 L 329.99999999999926 200.46731817741448 L 329.99999999999926 200.46731817741448 L 330.99999999999926 200.78335140811652 L 330.99999999999926 200.78335140811652 L 331.99999999999926 201.09359225008612 L 331.99999999999926 201.09359225008612 L 332.99999999999926 201.39819850516554 L 332.99999999999926 201.39819850516554 L 333.99999999999926 201.69732229479405 L 333.99999999999926 201.69732229479405 L 334.99999999999926 201.99111031332552 L 334.99999999999926 201.99111031332552 L 335.99999999999926 202.27970406790982 L 335.99999999999926 202.27970406790982 L 336.99999999999926 202.56324010576208 L 336.99999999999926 202.56324010576208 L 337.99999999999926 202.84185022958715 L 337.99999999999926 202.84185022958715 L 338.9999999999992 203.1156617018725 L 338.9999999999992 203.1156617018725 L 339.9999999999992 203.3847974387156 L 339.9999999999992 203.3847974387156 L 340.9999999999992 203.6493761938056 L 340.9999999999992 203.6493761938056 L 341.9999999999992 203.90951273313811 L 341.9999999999992 203.90951273313811 L 342.9999999999992 204.16531800100265 L 342.9999999999992 204.16531800100265 L 343.9999999999992 204.41689927774786 L 343.9999999999992 204.41689927774786 L 344.9999999999992 204.66436032979527 L 344.9999999999992 204.66436032979527 L 345.9999999999992 204.90780155234228 L 345.9999999999992 204.90780155234228 L 346.9999999999992 205.1473201051672 L 346.9999999999992 205.1473201051672 L 347.9999999999992 205.38301004192155 L 347.9999999999992 205.38301004192155 L 348.9999999999992 205.61496243327173 L 348.9999999999992 205.61496243327173 L 349.9999999999992 205.84326548422828 L 349.9999999999992 205.84326548422828 L 350.9999999999992 206.06800464598058 L 350.9999999999992 206.06800464598058 L 351.9999999999992 206.2892627225348 L 351.9999999999992 206.2892627225348 L 352.9999999999992 206.50711997243457 L 352.9999999999992 206.50711997243457 L 353.9999999999992 206.72165420582704 L 353.9999999999992 206.72165420582704 L 354.9999999999992 206.93294087712073 L 354.9999999999992 206.93294087712073 L 355.9999999999992 207.14105317346727 L 355.9999999999992 207.14105317346727 L 356.9999999999992 207.34606209928472 L 356.9999999999992 207.34606209928472 L 357.9999999999992 207.5480365570276 L 357.9999999999992 207.5480365570276 L 358.99999999999915 207.7470434243968 L 358.99999999999915 207.7470434243968 L 359.99999999999915 207.9431476281709 L 359.99999999999915 207.9431476281709 L 360.99999999999915 208.13641221483027 L 360.99999999999915 208.13641221483027 L 361.99999999999915 208.32689841813527 L 361.99999999999915 208.32689841813527 L 362.99999999999915 208.51466572381077 L 362.99999999999915 208.51466572381077 L 363.99999999999915 208.6997719314803 L 363.99999999999915 208.6997719314803 L 364.99999999999915 208.88227321398583 L 364.99999999999915 208.88227321398583 L 365.9999999999991 209.06222417422026 L 365.9999999999991 209.06222417422026 L 366.9999999999991 209.23967789959423 L 366.9999999999991 209.23967789959423 L 367.9999999999991 209.41468601425083 L 367.9999999999991 209.41468601425083 L 368.9999999999991 209.58729872913628 L 368.9999999999991 209.58729872913628 L 369.9999999999991 209.7575648900285 L 369.9999999999991 209.7575648900285 L 370.9999999999991 209.9255320236204 L 370.9999999999991 209.9255320236204 L 371.9999999999991 210.09124638174876 L 371.9999999999991 210.09124638174876 L 372.9999999999991 210.25475298385527 L 372.9999999999991 210.25475298385527 L 373.9999999999991 210.41609565776204 L 373.9999999999991 210.41609565776204 L 374.9999999999991 210.57531707883862 L 374.9999999999991 210.57531707883862 L 375.9999999999991 210.7324588076342 L 375.9999999999991 210.7324588076342 L 376.9999999999991 210.8875613260449 L 376.9999999999991 210.8875613260449 L 377.9999999999991 211.04066407208214 L 377.9999999999991 211.04066407208214 L 378.9999999999991 211.19180547330464 L 378.9999999999991 211.19180547330464 L 379.9999999999991 211.34102297897383 L 379.9999999999991 211.34102297897383 L 380.9999999999991 211.48835309098916 L 380.9999999999991 211.48835309098916 L 381.9999999999991 211.6338313936568 L 381.9999999999991 211.6338313936568 L 382.9999999999991 211.777492582343 L 382.9999999999991 211.777492582343 L 383.9999999999991 211.9193704910602 L 383.9999999999991 211.9193704910602 L 384.9999999999991 212.05949811903233 L 384.9999999999991 212.05949811903233 L 385.9999999999991 212.19790765628312 L 385.9999999999991 212.19790765628312 L 386.99999999999903 212.3346305082886 L 386.99999999999903 212.3346305082886 L 387.99999999999903 212.469697319734 L 387.99999999999903 212.469697319734 L 388.99999999999903 212.60313799741263 L 388.99999999999903 212.60313799741263 L 389.99999999999903 212.73498173230251 L 389.99999999999903 212.73498173230251 L 390.99999999999903 212.86525702085518 L 390.99999999999903 212.86525702085518 L 391.99999999999903 212.9939916855292 L 391.99999999999903 212.9939916855292 L 392.99999999999903 213.12121289459955 L 392.99999999999903 213.12121289459955 L 393.999999999999 213.2469471812722 L 393.999999999999 213.2469471812722 L 394.999999999999 213.37122046213273 L 394.999999999999 213.37122046213273 L 395.999999999999 213.49405805495525 L 395.999999999999 213.49405805495525 L 396.999999999999 213.61548469589778 L 396.999999999999 213.61548469589778 L 397.999999999999 213.73552455610837 L 397.999999999999 213.73552455610837 L 398.999999999999 213.85420125776574 L 398.999999999999 213.85420125776574 L 399.999999999999 213.97153788957615 L 399.999999999999 213.97153788957615 L 400.999999999999 214.08755702174867 L 400.999999999999 214.08755702174867 L 401.999999999999 214.20228072046848 L 401.999999999999 214.20228072046848 L 402.999999999999 214.31573056188827 L 402.999999999999 214.31573056188827 L 403.999999999999 214.42792764565604 L 403.999999999999 214.42792764565604 L 404.999999999999 214.53889260799727 L 404.999999999999 214.53889260799727 L 405.999999999999 214.64864563436842 L 405.999999999999 214.64864563436842 L 406.999999999999 214.75720647169805 L 406.999999999999 214.75720647169805 L 407.999999999999 214.86459444023134 L 407.999999999999 214.86459444023134 L 408.999999999999 214.9708284449925 L 408.999999999999 214.9708284449925 L 409.999999999999 215.07592698687998 L 409.999999999999 215.07592698687998 L 410.999999999999 215.1799081734075 L 410.999999999999 215.1799081734075 L 411.999999999999 215.2827897291046 L 411.999999999999 215.2827897291046 L 412.999999999999 215.38458900558848 L 412.999999999999 215.38458900558848 L 413.999999999999 215.4853229913204 L 413.999999999999 215.4853229913204 L 414.9999999999989 215.58500832105662 L 414.9999999999989 215.58500832105662 L 415.9999999999989 215.68366128500617 L 415.9999999999989 215.68366128500617 L 416.9999999999989 215.78129783770535 L 416.9999999999989 215.78129783770535 L 417.9999999999989 215.87793360661962 L 417.9999999999989 215.87793360661962 L 418.9999999999989 215.97358390048186 L 418.9999999999989 215.97358390048186 L 419.9999999999989 216.06826371737733 L 419.9999999999989 216.06826371737733 L 420.9999999999989 216.1619877525834 L 420.9999999999989 216.1619877525834 L 421.99999999999886 216.2547704061733 L 421.99999999999886 216.2547704061733 L 422.99999999999886 216.3466257903916 L 422.99999999999886 216.3466257903916 L 423.99999999999886 216.43756773681025 L 423.99999999999886 216.43756773681025 L 424.99999999999886 216.52760980327128 L 424.99999999999886 216.52760980327128 L 425.99999999999886 216.61676528062532 L 425.99999999999886 216.61676528062532 L 426.99999999999886 216.70504719927146 L 426.99999999999886 216.70504719927146 L 427.99999999999886 216.79246833550604 L 427.99999999999886 216.79246833550604 L 428.99999999999886 216.8790412176867 L 428.99999999999886 216.8790412176867 L 429.99999999999886 216.9647781322176 L 429.99999999999886 216.9647781322176 L 430.99999999999886 217.04969112936234 L 430.99999999999886 217.04969112936234 L 431.99999999999886 217.13379202889 L 431.99999999999886 217.13379202889 L 432.99999999999886 217.21709242556005 L 432.99999999999886 217.21709242556005 L 433.99999999999886 217.29960369445104 L 433.99999999999886 217.29960369445104 L 434.99999999999886 217.3813369961391 L 434.99999999999886 217.3813369961391 L 435.99999999999886 217.4623032817303 L 435.99999999999886 217.4623032817303 L 436.99999999999886 217.5425132977519 L 436.99999999999886 217.5425132977519 L 437.99999999999886 217.62197759090753 L 437.99999999999886 217.62197759090753 L 438.99999999999886 217.7007065127001 L 438.99999999999886 217.7007065127001 L 439.99999999999886 217.77871022392696 L 439.99999999999886 217.77871022392696 L 440.99999999999886 217.85599869905164 L 440.99999999999886 217.85599869905164 L 441.99999999999886 217.9325817304555 L 441.99999999999886 217.9325817304555 L 442.9999999999988 218.00846893257383 L 442.9999999999988 218.00846893257383 L 443.9999999999988 218.0836697459196" stroke-opacity="0.8" stroke-linecap="round" stroke-linejoin="round" stroke-miterlimit="10" stroke-width="2.5"/><text fill="rgb(46,125,50)" stroke="none" font-family="geogebra-sans-serif, sans-serif" font-size="16px" font-style="normal" font-weight="normal" text-decoration="normal" x="24" y="253" text-anchor="start" dominant-baseline="alphabetic" fill-opacity="1">f</text><text fill="none" stroke="rgb(255,255,255)" font-family="geogebra-sans-serif, sans-serif" font-size="16px" font-style="normal" font-weight="normal" text-decoration="normal" x="24" y="253" text-anchor="start" dominant-baseline="alphabetic" stroke-opacity="1" stroke-linejoin="bevel" stroke-miterlimit="10" stroke-width="3">f</text><text fill="rgb(46,125,50)" stroke="none" font-family="geogebra-sans-serif, sans-serif" font-size="16px" font-style="normal" font-weight="normal" text-decoration="normal" x="24" y="253" text-anchor="start" dominant-baseline="alphabetic" fill-opacity="1">f</text></g></g></svg>