<?xml version="1.0" encoding="UTF-8" standalone="no"?>
<!DOCTYPE svg PUBLIC "-//W3C//DTD SVG 1.1//EN"
 "http://www.w3.org/Graphics/SVG/1.1/DTD/svg11.dtd">
<!-- Generated by graphviz version 2.40.1 (20161225.0304)
 -->
<!-- Title: G Pages: 1 -->
<svg width="485pt" height="252pt"
 viewBox="0.00 0.00 485.50 251.75" xmlns="http://www.w3.org/2000/svg" xmlns:xlink="http://www.w3.org/1999/xlink">
<g id="graph0" class="graph" transform="scale(1 1) rotate(0) translate(4 247.748)">
<title>G</title>
<polygon fill="transparent" stroke="transparent" points="-4,4 -4,-247.748 481.496,-247.748 481.496,4 -4,4"/>
<!-- 1 -->
<g id="node1" class="node">
<title>1</title>
<ellipse fill="none" stroke="#000000" cx="18" cy="-144.748" rx="18" ry="18"/>
<text text-anchor="middle" x="18" y="-141.048" font-family="Times,serif" font-size="14.00" fill="#000000">1</text>
</g>
<!-- 2 -->
<g id="node2" class="node">
<title>2</title>
<ellipse fill="none" stroke="#000000" cx="126" cy="-171.748" rx="18" ry="18"/>
<text text-anchor="middle" x="126" y="-168.048" font-family="Times,serif" font-size="14.00" fill="#000000">2</text>
</g>
<!-- 1&#45;&gt;2 -->
<g id="edge1" class="edge">
<title>1&#45;&gt;2</title>
<path fill="none" stroke="#000000" d="M35.834,-149.2065C52.8977,-153.4724 78.8783,-159.9676 98.5751,-164.8918"/>
<polygon fill="#000000" stroke="#000000" points="97.9475,-168.3425 108.4978,-167.3724 99.6453,-161.5515 97.9475,-168.3425"/>
</g>
<!-- 3 -->
<g id="node3" class="node">
<title>3</title>
<ellipse fill="none" stroke="#000000" cx="126" cy="-117.748" rx="18" ry="18"/>
<text text-anchor="middle" x="126" y="-114.048" font-family="Times,serif" font-size="14.00" fill="#000000">3</text>
</g>
<!-- 1&#45;&gt;3 -->
<g id="edge2" class="edge">
<title>1&#45;&gt;3</title>
<path fill="none" stroke="#000000" d="M35.834,-140.2895C52.8977,-136.0235 78.8783,-129.5284 98.5751,-124.6042"/>
<polygon fill="#000000" stroke="#000000" points="99.6453,-127.9445 108.4978,-122.1235 97.9475,-121.1535 99.6453,-127.9445"/>
</g>
<!-- 4 -->
<g id="node4" class="node">
<title>4</title>
<ellipse fill="none" stroke="#000000" cx="234" cy="-225.748" rx="18" ry="18"/>
<text text-anchor="middle" x="234" y="-222.048" font-family="Times,serif" font-size="14.00" fill="#000000">4</text>
</g>
<!-- 2&#45;&gt;4 -->
<g id="edge3" class="edge">
<title>2&#45;&gt;4</title>
<path fill="none" stroke="#000000" d="M142.4029,-179.9494C160.0286,-188.7623 188.2635,-202.8797 208.7301,-213.1131"/>
<polygon fill="#000000" stroke="#000000" points="207.2871,-216.3046 217.7966,-217.6463 210.4176,-210.0436 207.2871,-216.3046"/>
</g>
<!-- 5 -->
<g id="node5" class="node">
<title>5</title>
<ellipse fill="none" stroke="#000000" cx="234" cy="-171.748" rx="18" ry="18"/>
<text text-anchor="middle" x="234" y="-168.048" font-family="Times,serif" font-size="14.00" fill="#000000">5</text>
</g>
<!-- 2&#45;&gt;5 -->
<g id="edge4" class="edge">
<title>2&#45;&gt;5</title>
<path fill="none" stroke="#000000" d="M144.3207,-171.748C161.179,-171.748 186.4349,-171.748 205.853,-171.748"/>
<polygon fill="#000000" stroke="#000000" points="205.9499,-175.2481 215.9498,-171.748 205.9498,-168.2481 205.9499,-175.2481"/>
</g>
<!-- 6 -->
<g id="node6" class="node">
<title>6</title>
<ellipse fill="none" stroke="#000000" cx="234" cy="-117.748" rx="18" ry="18"/>
<text text-anchor="middle" x="234" y="-114.048" font-family="Times,serif" font-size="14.00" fill="#000000">6</text>
</g>
<!-- 3&#45;&gt;6 -->
<g id="edge5" class="edge">
<title>3&#45;&gt;6</title>
<path fill="none" stroke="#000000" d="M144.3207,-117.748C161.179,-117.748 186.4349,-117.748 205.853,-117.748"/>
<polygon fill="#000000" stroke="#000000" points="205.9499,-121.2481 215.9498,-117.748 205.9498,-114.2481 205.9499,-121.2481"/>
</g>
<!-- 7 -->
<g id="node7" class="node">
<title>7</title>
<ellipse fill="none" stroke="#000000" cx="234" cy="-63.748" rx="18" ry="18"/>
<text text-anchor="middle" x="234" y="-60.048" font-family="Times,serif" font-size="14.00" fill="#000000">7</text>
</g>
<!-- 3&#45;&gt;7 -->
<g id="edge6" class="edge">
<title>3&#45;&gt;7</title>
<path fill="none" stroke="#000000" d="M142.4029,-109.5465C160.0286,-100.7337 188.2635,-86.6162 208.7301,-76.3829"/>
<polygon fill="#000000" stroke="#000000" points="210.4176,-79.4524 217.7966,-71.8497 207.2871,-73.1914 210.4176,-79.4524"/>
</g>
<!-- 8 -->
<g id="node8" class="node">
<title>8</title>
<ellipse fill="none" stroke="#000000" cx="342" cy="-148.748" rx="18" ry="18"/>
<text text-anchor="middle" x="342" y="-145.048" font-family="Times,serif" font-size="14.00" fill="#000000">8</text>
</g>
<!-- 6&#45;&gt;8 -->
<g id="edge7" class="edge">
<title>6&#45;&gt;8</title>
<path fill="none" stroke="#000000" d="M251.3521,-122.7287C268.5144,-127.6549 295.028,-135.2653 314.9552,-140.9851"/>
<polygon fill="#000000" stroke="#000000" points="314.1135,-144.3848 324.691,-143.7797 316.0448,-137.6565 314.1135,-144.3848"/>
</g>
<!-- 9 -->
<g id="node9" class="node">
<title>9</title>
<ellipse fill="none" stroke="#000000" cx="342" cy="-85.748" rx="18" ry="18"/>
<text text-anchor="middle" x="342" y="-82.048" font-family="Times,serif" font-size="14.00" fill="#000000">9</text>
</g>
<!-- 6&#45;&gt;9 -->
<g id="edge8" class="edge">
<title>6&#45;&gt;9</title>
<path fill="none" stroke="#000000" d="M251.3521,-112.6066C268.5144,-107.5215 295.028,-99.6656 314.9552,-93.7613"/>
<polygon fill="#000000" stroke="#000000" points="316.0973,-97.0733 324.691,-90.8766 314.1087,-90.3617 316.0973,-97.0733"/>
</g>
<!-- 10 -->
<g id="node10" class="node">
<title>10</title>
<ellipse fill="none" stroke="#000000" cx="454.748" cy="-211.748" rx="22.9987" ry="22.9987"/>
<text text-anchor="middle" x="454.748" y="-208.048" font-family="Times,serif" font-size="14.00" fill="#000000">10</text>
</g>
<!-- 8&#45;&gt;10 -->
<g id="edge9" class="edge">
<title>8&#45;&gt;10</title>
<path fill="none" stroke="#000000" d="M358.154,-157.7743C375.8427,-167.6582 404.5547,-183.7016 426.0867,-195.733"/>
<polygon fill="#000000" stroke="#000000" points="424.3852,-198.7915 434.8221,-200.614 427.7997,-192.6808 424.3852,-198.7915"/>
</g>
<!-- 11 -->
<g id="node11" class="node">
<title>11</title>
<ellipse fill="none" stroke="#000000" cx="454.748" cy="-148.748" rx="22.9987" ry="22.9987"/>
<text text-anchor="middle" x="454.748" y="-145.048" font-family="Times,serif" font-size="14.00" fill="#000000">11</text>
</g>
<!-- 8&#45;&gt;11 -->
<g id="edge10" class="edge">
<title>8&#45;&gt;11</title>
<path fill="none" stroke="#000000" d="M360.1149,-148.748C376.6536,-148.748 401.5104,-148.748 421.599,-148.748"/>
<polygon fill="#000000" stroke="#000000" points="421.6001,-152.2481 431.6,-148.748 421.6,-145.2481 421.6001,-152.2481"/>
</g>
<!-- 12 -->
<g id="node12" class="node">
<title>12</title>
<ellipse fill="none" stroke="#000000" cx="454.748" cy="-85.748" rx="22.9987" ry="22.9987"/>
<text text-anchor="middle" x="454.748" y="-82.048" font-family="Times,serif" font-size="14.00" fill="#000000">12</text>
</g>
<!-- 9&#45;&gt;12 -->
<g id="edge11" class="edge">
<title>9&#45;&gt;12</title>
<path fill="none" stroke="#000000" d="M360.1149,-85.748C376.6536,-85.748 401.5104,-85.748 421.599,-85.748"/>
<polygon fill="#000000" stroke="#000000" points="421.6001,-89.2481 431.6,-85.748 421.6,-82.2481 421.6001,-89.2481"/>
</g>
<!-- 13 -->
<g id="node13" class="node">
<title>13</title>
<ellipse fill="none" stroke="#000000" cx="454.748" cy="-22.748" rx="22.9987" ry="22.9987"/>
<text text-anchor="middle" x="454.748" y="-19.048" font-family="Times,serif" font-size="14.00" fill="#000000">13</text>
</g>
<!-- 9&#45;&gt;13 -->
<g id="edge12" class="edge">
<title>9&#45;&gt;13</title>
<path fill="none" stroke="#000000" d="M358.154,-76.7216C375.8427,-66.8378 404.5547,-50.7944 426.0867,-38.763"/>
<polygon fill="#000000" stroke="#000000" points="427.7997,-41.8152 434.8221,-33.8819 424.3852,-35.7044 427.7997,-41.8152"/>
</g>
</g>
</svg>
