<?xml version="1.0" encoding="UTF-8" standalone="no"?>
<!DOCTYPE svg PUBLIC "-//W3C//DTD SVG 1.1//EN"
 "http://www.w3.org/Graphics/SVG/1.1/DTD/svg11.dtd">
<!-- Generated by graphviz version 2.40.1 (20161225.0304)
 -->
<!-- Title: G Pages: 1 -->
<svg width="730pt" height="305pt"
 viewBox="0.00 0.00 729.98 305.50" xmlns="http://www.w3.org/2000/svg" xmlns:xlink="http://www.w3.org/1999/xlink">
<g id="graph0" class="graph" transform="scale(1 1) rotate(0) translate(4 301.496)">
<title>G</title>
<polygon fill="transparent" stroke="transparent" points="-4,4 -4,-301.496 725.9839,-301.496 725.9839,4 -4,4"/>
<!-- 1 -->
<g id="node1" class="node">
<title>1</title>
<ellipse fill="none" stroke="#000000" cx="18" cy="-148.748" rx="18" ry="18"/>
<text text-anchor="middle" x="18" y="-145.048" font-family="Times,serif" font-size="14.00" fill="#000000">1</text>
</g>
<!-- 2 -->
<g id="node2" class="node">
<title>2</title>
<ellipse fill="none" stroke="#000000" cx="126" cy="-148.748" rx="18" ry="18"/>
<text text-anchor="middle" x="126" y="-145.048" font-family="Times,serif" font-size="14.00" fill="#000000">2</text>
</g>
<!-- 1&#45;&gt;2 -->
<g id="edge1" class="edge">
<title>1&#45;&gt;2</title>
<path fill="none" stroke="#000000" d="M36.3207,-148.748C53.179,-148.748 78.4349,-148.748 97.853,-148.748"/>
<polygon fill="#000000" stroke="#000000" points="97.9499,-152.2481 107.9498,-148.748 97.9498,-145.2481 97.9499,-152.2481"/>
</g>
<!-- 6 -->
<g id="node3" class="node">
<title>6</title>
<ellipse fill="none" stroke="#000000" cx="234" cy="-256.748" rx="18" ry="18"/>
<text text-anchor="middle" x="234" y="-253.048" font-family="Times,serif" font-size="14.00" fill="#000000">6</text>
</g>
<!-- 2&#45;&gt;6 -->
<g id="edge2" class="edge">
<title>2&#45;&gt;6</title>
<path fill="none" stroke="#000000" d="M138.8131,-161.5611C157.4065,-180.1544 192.0391,-214.7871 214.008,-236.756"/>
<polygon fill="#000000" stroke="#000000" points="211.6576,-239.3553 221.2035,-243.9515 216.6073,-234.4055 211.6576,-239.3553"/>
</g>
<!-- 7 -->
<g id="node4" class="node">
<title>7</title>
<ellipse fill="none" stroke="#000000" cx="234" cy="-202.748" rx="18" ry="18"/>
<text text-anchor="middle" x="234" y="-199.048" font-family="Times,serif" font-size="14.00" fill="#000000">7</text>
</g>
<!-- 2&#45;&gt;7 -->
<g id="edge3" class="edge">
<title>2&#45;&gt;7</title>
<path fill="none" stroke="#000000" d="M142.4029,-156.9494C160.0286,-165.7623 188.2635,-179.8797 208.7301,-190.1131"/>
<polygon fill="#000000" stroke="#000000" points="207.2871,-193.3046 217.7966,-194.6463 210.4176,-187.0436 207.2871,-193.3046"/>
</g>
<!-- 3 -->
<g id="node5" class="node">
<title>3</title>
<ellipse fill="none" stroke="#000000" cx="234" cy="-148.748" rx="18" ry="18"/>
<text text-anchor="middle" x="234" y="-145.048" font-family="Times,serif" font-size="14.00" fill="#000000">3</text>
</g>
<!-- 2&#45;&gt;3 -->
<g id="edge4" class="edge">
<title>2&#45;&gt;3</title>
<path fill="none" stroke="#000000" d="M144.3207,-148.748C161.179,-148.748 186.4349,-148.748 205.853,-148.748"/>
<polygon fill="#000000" stroke="#000000" points="205.9499,-152.2481 215.9498,-148.748 205.9498,-145.2481 205.9499,-152.2481"/>
</g>
<!-- 8 -->
<g id="node6" class="node">
<title>8</title>
<ellipse fill="none" stroke="#000000" cx="234" cy="-94.748" rx="18" ry="18"/>
<text text-anchor="middle" x="234" y="-91.048" font-family="Times,serif" font-size="14.00" fill="#000000">8</text>
</g>
<!-- 2&#45;&gt;8 -->
<g id="edge5" class="edge">
<title>2&#45;&gt;8</title>
<path fill="none" stroke="#000000" d="M142.4029,-140.5465C160.0286,-131.7337 188.2635,-117.6162 208.7301,-107.3829"/>
<polygon fill="#000000" stroke="#000000" points="210.4176,-110.4524 217.7966,-102.8497 207.2871,-104.1914 210.4176,-110.4524"/>
</g>
<!-- 9 -->
<g id="node7" class="node">
<title>9</title>
<ellipse fill="none" stroke="#000000" cx="234" cy="-40.748" rx="18" ry="18"/>
<text text-anchor="middle" x="234" y="-37.048" font-family="Times,serif" font-size="14.00" fill="#000000">9</text>
</g>
<!-- 2&#45;&gt;9 -->
<g id="edge6" class="edge">
<title>2&#45;&gt;9</title>
<path fill="none" stroke="#000000" d="M138.8131,-135.9349C157.4065,-117.3415 192.0391,-82.7089 214.008,-60.7399"/>
<polygon fill="#000000" stroke="#000000" points="216.6073,-63.0904 221.2035,-53.5444 211.6576,-58.1406 216.6073,-63.0904"/>
</g>
<!-- 10 -->
<g id="node8" class="node">
<title>10</title>
<ellipse fill="none" stroke="#000000" cx="346.748" cy="-270.748" rx="22.9987" ry="22.9987"/>
<text text-anchor="middle" x="346.748" y="-267.048" font-family="Times,serif" font-size="14.00" fill="#000000">10</text>
</g>
<!-- 3&#45;&gt;10 -->
<g id="edge7" class="edge">
<title>3&#45;&gt;10</title>
<path fill="none" stroke="#000000" d="M246.4968,-162.2703C265.2022,-182.5106 300.7745,-221.0019 324.1232,-246.2666"/>
<polygon fill="#000000" stroke="#000000" points="321.5871,-248.6793 330.9447,-253.6479 326.728,-243.9283 321.5871,-248.6793"/>
</g>
<!-- 11 -->
<g id="node9" class="node">
<title>11</title>
<ellipse fill="none" stroke="#000000" cx="346.748" cy="-207.748" rx="22.9987" ry="22.9987"/>
<text text-anchor="middle" x="346.748" y="-204.048" font-family="Times,serif" font-size="14.00" fill="#000000">11</text>
</g>
<!-- 3&#45;&gt;11 -->
<g id="edge8" class="edge">
<title>3&#45;&gt;11</title>
<path fill="none" stroke="#000000" d="M250.154,-157.2012C267.6576,-166.3607 295.9551,-181.1686 317.4086,-192.395"/>
<polygon fill="#000000" stroke="#000000" points="315.9431,-195.5783 326.426,-197.1137 319.1886,-189.3761 315.9431,-195.5783"/>
</g>
<!-- 4 -->
<g id="node10" class="node">
<title>4</title>
<ellipse fill="none" stroke="#000000" cx="346.748" cy="-148.748" rx="18" ry="18"/>
<text text-anchor="middle" x="346.748" y="-145.048" font-family="Times,serif" font-size="14.00" fill="#000000">4</text>
</g>
<!-- 3&#45;&gt;4 -->
<g id="edge9" class="edge">
<title>3&#45;&gt;4</title>
<path fill="none" stroke="#000000" d="M252.1149,-148.748C270.0318,-148.748 297.711,-148.748 318.5142,-148.748"/>
<polygon fill="#000000" stroke="#000000" points="318.6781,-152.2481 328.678,-148.748 318.678,-145.2481 318.6781,-152.2481"/>
</g>
<!-- 12 -->
<g id="node11" class="node">
<title>12</title>
<ellipse fill="none" stroke="#000000" cx="346.748" cy="-89.748" rx="22.9987" ry="22.9987"/>
<text text-anchor="middle" x="346.748" y="-86.048" font-family="Times,serif" font-size="14.00" fill="#000000">12</text>
</g>
<!-- 3&#45;&gt;12 -->
<g id="edge10" class="edge">
<title>3&#45;&gt;12</title>
<path fill="none" stroke="#000000" d="M250.154,-140.2947C267.6576,-131.1353 295.9551,-116.3274 317.4086,-105.101"/>
<polygon fill="#000000" stroke="#000000" points="319.1886,-108.1199 326.426,-100.3823 315.9431,-101.9177 319.1886,-108.1199"/>
</g>
<!-- 13 -->
<g id="node12" class="node">
<title>13</title>
<ellipse fill="none" stroke="#000000" cx="346.748" cy="-26.748" rx="22.9987" ry="22.9987"/>
<text text-anchor="middle" x="346.748" y="-23.048" font-family="Times,serif" font-size="14.00" fill="#000000">13</text>
</g>
<!-- 3&#45;&gt;13 -->
<g id="edge11" class="edge">
<title>3&#45;&gt;13</title>
<path fill="none" stroke="#000000" d="M246.4968,-135.2257C265.2022,-114.9853 300.7745,-76.4941 324.1232,-51.2294"/>
<polygon fill="#000000" stroke="#000000" points="326.728,-53.5676 330.9447,-43.8481 321.5871,-48.8166 326.728,-53.5676"/>
</g>
<!-- 14 -->
<g id="node13" class="node">
<title>14</title>
<ellipse fill="none" stroke="#000000" cx="464.2439" cy="-270.748" rx="22.9987" ry="22.9987"/>
<text text-anchor="middle" x="464.2439" y="-267.048" font-family="Times,serif" font-size="14.00" fill="#000000">14</text>
</g>
<!-- 10&#45;&gt;14 -->
<g id="edge12" class="edge">
<title>10&#45;&gt;14</title>
<path fill="none" stroke="#000000" d="M369.6813,-270.748C387.2304,-270.748 411.6743,-270.748 431.3132,-270.748"/>
<polygon fill="#000000" stroke="#000000" points="431.3685,-274.2481 441.3685,-270.748 431.3684,-267.2481 431.3685,-274.2481"/>
</g>
<!-- 5 -->
<g id="node14" class="node">
<title>5</title>
<ellipse fill="none" stroke="#000000" cx="464.2439" cy="-148.748" rx="18" ry="18"/>
<text text-anchor="middle" x="464.2439" y="-145.048" font-family="Times,serif" font-size="14.00" fill="#000000">5</text>
</g>
<!-- 4&#45;&gt;5 -->
<g id="edge13" class="edge">
<title>4&#45;&gt;5</title>
<path fill="none" stroke="#000000" d="M364.8492,-148.748C383.7686,-148.748 413.7194,-148.748 435.8026,-148.748"/>
<polygon fill="#000000" stroke="#000000" points="435.9286,-152.2481 445.9285,-148.748 435.9285,-145.2481 435.9286,-152.2481"/>
</g>
<!-- 15 -->
<g id="node15" class="node">
<title>15</title>
<ellipse fill="none" stroke="#000000" cx="464.2439" cy="-26.748" rx="22.9987" ry="22.9987"/>
<text text-anchor="middle" x="464.2439" y="-23.048" font-family="Times,serif" font-size="14.00" fill="#000000">15</text>
</g>
<!-- 13&#45;&gt;15 -->
<g id="edge14" class="edge">
<title>13&#45;&gt;15</title>
<path fill="none" stroke="#000000" d="M369.6813,-26.748C387.2304,-26.748 411.6743,-26.748 431.3132,-26.748"/>
<polygon fill="#000000" stroke="#000000" points="431.3685,-30.2481 441.3685,-26.748 431.3684,-23.2481 431.3685,-30.2481"/>
</g>
<!-- 16 -->
<g id="node16" class="node">
<title>16</title>
<ellipse fill="none" stroke="#000000" cx="581.7399" cy="-274.748" rx="22.9987" ry="22.9987"/>
<text text-anchor="middle" x="581.7399" y="-271.048" font-family="Times,serif" font-size="14.00" fill="#000000">16</text>
</g>
<!-- 5&#45;&gt;16 -->
<g id="edge15" class="edge">
<title>5&#45;&gt;16</title>
<path fill="none" stroke="#000000" d="M476.8181,-162.2322C496.4311,-183.2647 534.5923,-224.1879 559.0861,-250.4546"/>
<polygon fill="#000000" stroke="#000000" points="556.5294,-252.8448 565.9091,-257.7714 561.6489,-248.0708 556.5294,-252.8448"/>
</g>
<!-- 17 -->
<g id="node17" class="node">
<title>17</title>
<ellipse fill="none" stroke="#000000" cx="581.7399" cy="-211.748" rx="22.9987" ry="22.9987"/>
<text text-anchor="middle" x="581.7399" y="-208.048" font-family="Times,serif" font-size="14.00" fill="#000000">17</text>
</g>
<!-- 5&#45;&gt;17 -->
<g id="edge16" class="edge">
<title>5&#45;&gt;17</title>
<path fill="none" stroke="#000000" d="M480.5813,-157.5079C499.2025,-167.4924 529.9962,-184.0036 552.7257,-196.1909"/>
<polygon fill="#000000" stroke="#000000" points="551.1414,-199.3128 561.6084,-200.9537 554.4493,-193.1436 551.1414,-199.3128"/>
</g>
<!-- 18 -->
<g id="node18" class="node">
<title>18</title>
<ellipse fill="none" stroke="#000000" cx="581.7399" cy="-148.748" rx="22.9987" ry="22.9987"/>
<text text-anchor="middle" x="581.7399" y="-145.048" font-family="Times,serif" font-size="14.00" fill="#000000">18</text>
</g>
<!-- 5&#45;&gt;18 -->
<g id="edge17" class="edge">
<title>5&#45;&gt;18</title>
<path fill="none" stroke="#000000" d="M482.3452,-148.748C500.0475,-148.748 527.4077,-148.748 548.9442,-148.748"/>
<polygon fill="#000000" stroke="#000000" points="548.9811,-152.2481 558.981,-148.748 548.981,-145.2481 548.9811,-152.2481"/>
</g>
<!-- 19 -->
<g id="node19" class="node">
<title>19</title>
<ellipse fill="none" stroke="#000000" cx="581.7399" cy="-85.748" rx="22.9987" ry="22.9987"/>
<text text-anchor="middle" x="581.7399" y="-82.048" font-family="Times,serif" font-size="14.00" fill="#000000">19</text>
</g>
<!-- 5&#45;&gt;19 -->
<g id="edge18" class="edge">
<title>5&#45;&gt;19</title>
<path fill="none" stroke="#000000" d="M480.5813,-139.9881C499.2025,-130.0036 529.9962,-113.4924 552.7257,-101.3051"/>
<polygon fill="#000000" stroke="#000000" points="554.4493,-104.3523 561.6084,-96.5423 551.1414,-98.1832 554.4493,-104.3523"/>
</g>
<!-- 20 -->
<g id="node20" class="node">
<title>20</title>
<ellipse fill="none" stroke="#000000" cx="581.7399" cy="-22.748" rx="22.9987" ry="22.9987"/>
<text text-anchor="middle" x="581.7399" y="-19.048" font-family="Times,serif" font-size="14.00" fill="#000000">20</text>
</g>
<!-- 5&#45;&gt;20 -->
<g id="edge19" class="edge">
<title>5&#45;&gt;20</title>
<path fill="none" stroke="#000000" d="M476.8181,-135.2638C496.4311,-114.2312 534.5923,-73.308 559.0861,-47.0414"/>
<polygon fill="#000000" stroke="#000000" points="561.6489,-49.4251 565.9091,-39.7245 556.5294,-44.6511 561.6489,-49.4251"/>
</g>
<!-- 21 -->
<g id="node21" class="node">
<title>21</title>
<ellipse fill="none" stroke="#000000" cx="699.2359" cy="-258.748" rx="22.9987" ry="22.9987"/>
<text text-anchor="middle" x="699.2359" y="-255.048" font-family="Times,serif" font-size="14.00" fill="#000000">21</text>
</g>
<!-- 17&#45;&gt;21 -->
<g id="edge20" class="edge">
<title>17&#45;&gt;21</title>
<path fill="none" stroke="#000000" d="M603.0175,-220.2593C621.2036,-227.534 647.6115,-238.0975 668.1628,-246.3183"/>
<polygon fill="#000000" stroke="#000000" points="667.1348,-249.6767 677.7195,-250.1411 669.7347,-243.1774 667.1348,-249.6767"/>
</g>
<!-- 22 -->
<g id="node22" class="node">
<title>22</title>
<ellipse fill="none" stroke="#000000" cx="699.2359" cy="-195.748" rx="22.9987" ry="22.9987"/>
<text text-anchor="middle" x="699.2359" y="-192.048" font-family="Times,serif" font-size="14.00" fill="#000000">22</text>
</g>
<!-- 17&#45;&gt;22 -->
<g id="edge21" class="edge">
<title>17&#45;&gt;22</title>
<path fill="none" stroke="#000000" d="M604.3943,-208.663C622.0305,-206.2614 646.7522,-202.8949 666.5338,-200.2012"/>
<polygon fill="#000000" stroke="#000000" points="667.2147,-203.6408 676.651,-198.8235 666.2702,-196.7049 667.2147,-203.6408"/>
</g>
<!-- 23 -->
<g id="node23" class="node">
<title>23</title>
<ellipse fill="none" stroke="#000000" cx="699.2359" cy="-101.748" rx="22.9987" ry="22.9987"/>
<text text-anchor="middle" x="699.2359" y="-98.048" font-family="Times,serif" font-size="14.00" fill="#000000">23</text>
</g>
<!-- 19&#45;&gt;23 -->
<g id="edge22" class="edge">
<title>19&#45;&gt;23</title>
<path fill="none" stroke="#000000" d="M604.3943,-88.8329C622.0305,-91.2346 646.7522,-94.601 666.5338,-97.2948"/>
<polygon fill="#000000" stroke="#000000" points="666.2702,-100.7911 676.651,-98.6725 667.2147,-93.8551 666.2702,-100.7911"/>
</g>
<!-- 24 -->
<g id="node24" class="node">
<title>24</title>
<ellipse fill="none" stroke="#000000" cx="699.2359" cy="-38.748" rx="22.9987" ry="22.9987"/>
<text text-anchor="middle" x="699.2359" y="-35.048" font-family="Times,serif" font-size="14.00" fill="#000000">24</text>
</g>
<!-- 19&#45;&gt;24 -->
<g id="edge23" class="edge">
<title>19&#45;&gt;24</title>
<path fill="none" stroke="#000000" d="M603.0175,-77.2366C621.2036,-69.962 647.6115,-59.3984 668.1628,-51.1776"/>
<polygon fill="#000000" stroke="#000000" points="669.7347,-54.3186 677.7195,-47.3548 667.1348,-47.8193 669.7347,-54.3186"/>
</g>
</g>
</svg>
